# https://github.com/mikedh/trimesh
v -2418.24450000 -3713.06485000 -1213.18500000
v -2407.59450000 -3789.76485000 -1217.02500000
v -2394.02450000 -3775.66485000 -1148.21500000
v -2421.44450000 -3711.46485000 -1277.69500000
v -2413.43450000 -3631.16485000 -1250.44500000
v -2420.74450000 -3644.26485000 -1297.59500000
v -2411.59450000 -3742.96485000 -1314.96500000
v -2419.56450000 -3655.46485000 -1351.89500000
v -2396.56450000 -3536.86485000 -1337.24500000
v -2413.16450000 -3587.36485000 -1365.30500000
v -2389.26450000 -3491.06485000 -1424.12500000
v -2409.16450000 -3676.16485000 -1389.69500000
v -2401.02450000 -3576.36485000 -1426.45500000
v -2394.74450000 -3685.16485000 -1180.51500000
v -2386.35450000 -3834.46485000 -1160.71500000
v -2385.09450000 -3854.26485000 -1206.37500000
v -2382.01450000 -3583.66485000 -1239.62500000
v -2374.25450000 -3838.86485000 -1292.03500000
v -2386.48450000 -3740.86485000 -1390.21500000
v -2370.97450000 -3639.86485000 -1486.93500000
v -2376.91450000 -3476.96485000 -1502.16500000
v -2365.20450000 -3541.76485000 -1527.79500000
v -2362.05450000 -3745.06485000 -1101.90500000
v -2349.91450000 -3635.96485000 -1146.44500000
v -2350.75450000 -3832.76485000 -1100.18500000
v -2361.17450000 -3880.06485000 -1165.84500000
v -2329.50450000 -3514.36485000 -1222.53500000
v -2357.27450000 -3890.26485000 -1218.92500000
v -2322.20450000 -3425.76485000 -1320.02500000
v -2337.38450000 -3371.03485000 -1462.60500000
v -2336.95450000 -3806.16485000 -1429.74500000
v -2342.49450000 -3720.36485000 -1494.16500000
v -2359.18450000 -3408.62485000 -1508.68500000
v -2353.74450000 -3409.34485000 -1562.46500000
v -2338.73450000 -3470.66485000 -1606.48500000
v -2288.80450000 -3785.66485000 -1023.89500000
v -2319.96450000 -3905.56485000 -1115.75500000
v -2298.87450000 -3877.46485000 -1060.08500000
v -2326.74450000 -3922.26485000 -1182.07500000
v -2312.56450000 -3918.16485000 -1289.18500000
v -2298.79450000 -3877.36485000 -1402.19500000
v -2332.72450000 -3337.96485000 -1546.48500000
v -2319.56450000 -3657.36485000 -1585.33500000
v -2305.18450000 -3757.66485000 -1536.63500000
v -2332.16450000 -3337.56485000 -1580.79500000
v -2339.00450000 -3568.56485000 -1580.39500000
v -2327.73450000 -3370.44485000 -1629.49500000
v -2268.50450000 -3699.76485000 -1030.99500000
v -2280.79450000 -3840.26485000 -1027.07500000
v -2274.86450000 -3619.76485000 -1075.50500000
v -2253.43450000 -3922.66485000 -1064.04500000
v -2278.68450000 -3525.06485000 -1150.36500000
v -2287.89450000 -3937.96485000 -1138.11500000
v -2286.04450000 -3306.21485000 -1427.07500000
v -2308.60450000 -3277.96485000 -1607.37500000
v -2314.02450000 -3305.54485000 -1646.67500000
v -2300.38450000 -3574.46485000 -1671.87500000
v -2303.18450000 -3325.79485000 -1711.15500000
v -2295.85450000 -3438.06485000 -1732.61500000
v -2239.13450000 -3875.06485000 -1008.21500000
v -2272.49450000 -3957.36485000 -1222.44500000
v -2265.41450000 -3410.84485000 -1243.08500000
v -2238.21450000 -3936.76485000 -1441.24500000
v -2281.56450000 -3252.21485000 -1546.28500000
v -2272.35450000 -3733.16485000 -1633.61500000
v -2292.59450000 -3255.92485000 -1722.44500000
v -2280.46450000 -3267.92485000 -1801.28500000
v -2274.34450000 -3343.53485000 -1821.92500000
v -2217.96450000 -3752.16485000 -970.14500000
v -2202.90450000 -3604.06485000 -1026.40500000
v -2228.34450000 -3508.66485000 -1113.06500000
v -2248.85450000 -3956.76485000 -1341.32500000
v -2236.76450000 -3299.07485000 -1342.93500000
v -2269.62450000 -3836.96485000 -1524.21500000
v -2273.75450000 -3205.44485000 -1684.05500000
v -2260.05450000 -3670.76485000 -1730.73500000
v -2263.92450000 -3585.06485000 -1779.80500000
v -2259.94450000 -3191.52485000 -1831.72500000
v -2259.24450000 -3454.76485000 -1851.90500000
v -2252.60450000 -3338.85485000 -1912.16500000
v -2262.46450000 -3667.96485000 -2173.48500000
v -2252.28450000 -3703.26485000 -2250.17500000
v -2251.89450000 -3740.36485000 -2166.36500000
v -2244.39450000 -3838.46485000 -2277.84500000
v -2182.98450000 -3690.76485000 -967.10500000
v -2225.41450000 -3961.76485000 -1136.32500000
v -2217.84450000 -3412.66485000 -1181.73500000
v -2192.71450000 -3989.16485000 -1242.20500000
v -2199.52450000 -3983.76485000 -1339.32500000
v -2228.03450000 -3212.38485000 -1478.41500000
v -2194.26450000 -3977.96485000 -1422.17500000
v -2235.61450000 -3160.05485000 -1636.77500000
v -2222.36450000 -3860.56485000 -1630.99500000
v -2232.74450000 -3784.06485000 -1723.44500000
v -2242.56450000 -3139.08485000 -1766.03500000
v -2244.87450000 -3690.16485000 -1792.39500000
v -2232.04450000 -3121.14485000 -1875.72500000
v -2245.07450000 -3617.86485000 -1867.95500000
v -2234.30450000 -3249.59485000 -2008.89500000
v -2245.74450000 -3523.96485000 -1917.46500000
v -2243.28450000 -3578.26485000 -2084.11500000
v -2253.16450000 -3628.66485000 -2146.19500000
v -2240.62450000 -3753.26485000 -2073.43500000
v -2248.11450000 -3586.16485000 -2171.49500000
v -2232.06450000 -3872.96485000 -2129.30500000
v -2237.92450000 -3433.46485000 -2123.06500000
v -2238.27450000 -3529.16485000 -2211.51500000
v -2235.10450000 -3898.56485000 -2242.55500000
v -2235.89450000 -3643.26485000 -2288.50500000
v -2228.81450000 -3916.26485000 -2328.16500000
v -2237.61450000 -3739.56485000 -2320.30500000
v -2218.60450000 -3849.26485000 -2367.90500000
v -2217.35450000 -3815.26485000 -973.76500000
v -2193.63450000 -3866.86485000 -970.94500000
v -2194.74450000 -3905.36485000 -1004.50500000
v -2206.31450000 -3329.70485000 -1258.27500000
v -2199.37450000 -3928.36485000 -1566.96500000
v -2198.74450000 -3095.36485000 -1706.65500000
v -2180.29450000 -3058.27485000 -1852.75500000
v -2221.80450000 -3777.86485000 -1837.08500000
v -2184.27450000 -3061.91485000 -1967.66500000
v -2203.07450000 -3123.93485000 -2015.87500000
v -2236.98450000 -3648.76485000 -1963.31500000
v -2213.69450000 -3851.26485000 -1973.01500000
v -2242.56450000 -3487.96485000 -1992.36500000
v -2241.99450000 -3417.16485000 -2024.41500000
v -2214.10450000 -3213.39485000 -2090.26500000
v -2225.95450000 -3358.95485000 -2145.93500000
v -2206.68450000 -3947.26485000 -2074.30500000
v -2196.20450000 -3261.64485000 -2181.82500000
v -2212.55450000 -3963.46485000 -2186.01500000
v -2216.07450000 -3484.46485000 -2254.36500000
v -2212.44450000 -3968.86485000 -2309.04500000
v -2212.11450000 -3701.16485000 -2351.33500000
v -2200.01450000 -3957.46485000 -2394.32500000
v -2176.15450000 -3466.96485000 -1106.06500000
v -2143.22450000 -3944.46485000 -1036.73500000
v -2117.18450000 -3988.66485000 -1164.97500000
v -2125.51450000 -4012.86485000 -1349.44500000
v -2153.48450000 -3236.51485000 -1314.13500000
v -2166.46450000 -3173.83485000 -1435.21500000
v -2167.69450000 -3106.76485000 -1596.03500000
v -2157.87450000 -3990.86485000 -1565.17500000
v -2186.87450000 -3930.16485000 -1630.20500000
v -2189.64450000 -3898.66485000 -1728.68500000
v -2195.46450000 -3885.36485000 -1845.09500000
v -2191.46450000 -3919.56485000 -1901.05500000
v -2188.29450000 -3952.86485000 -1960.08500000
v -2182.01450000 -3137.72485000 -2112.64500000
v -2185.81450000 -3998.86485000 -2086.82500000
v -2194.72450000 -4006.16485000 -2257.32500000
v -2187.68450000 -3371.12485000 -2263.15500000
v -2184.18450000 -3534.26485000 -2333.94500000
v -2183.17450000 -4006.36485000 -2377.88500000
v -2171.75450000 -4029.26485000 -2338.38500000
v -2170.60450000 -3695.96485000 -2414.75500000
v -2177.31450000 -3830.06485000 -2443.86500000
v -2169.88450000 -3935.46485000 -2465.92500000
v -2165.22450000 -3758.46485000 -939.34500000
v -2136.51450000 -3834.36485000 -935.15500000
v -2141.17450000 -3645.96485000 -963.38500000
v -2136.08450000 -3891.46485000 -968.17500000
v -2157.75450000 -3342.78485000 -1202.44500000
v -2153.51450000 -3999.76485000 -1431.10500000
v -2174.23450000 -3956.46485000 -1852.17500000
v -2168.18450000 -3993.56485000 -1945.59500000
v -2161.19450000 -3064.69485000 -2070.71500000
v -2137.68450000 -3072.12485000 -2150.38500000
v -2156.37450000 -4033.46485000 -2157.11500000
v -2145.77450000 -4026.46485000 -1979.79500000
v -2159.74450000 -3160.45485000 -2183.36500000
v -2159.92450000 -3256.52485000 -2245.53500000
v -2149.17450000 -3391.30485000 -2321.61500000
v -2133.12450000 -4035.56485000 -2437.03500000
v -2145.45450000 -3999.36485000 -2476.25500000
v -2133.47450000 -3596.76485000 -2420.64500000
v -2135.39450000 -3800.16485000 -2490.01500000
v -2125.05450000 -3548.76485000 -1022.09500000
v -2121.50450000 -3417.06485000 -1118.56500000
v -2126.10450000 -4001.56485000 -1247.39500000
v -2173.89450000 -3952.76485000 -1647.02500000
v -2131.93450000 -3029.17485000 -1744.19500000
v -2157.24450000 -3978.16485000 -1742.95500000
v -2101.12450000 -2978.82485000 -1924.61500000
v -2150.11450000 -3999.86485000 -1866.56500000
v -2138.43450000 -3021.15485000 -2002.49500000
v -2141.67450000 -4035.76485000 -2030.97500000
v -2113.13450000 -3136.79485000 -2234.21500000
v -2112.18450000 -3245.78485000 -2294.55500000
v -2110.60450000 -4050.16485000 -2158.90500000
v -2132.16450000 -4040.16485000 -2304.79500000
v -2101.55450000 -3982.56485000 -2557.82500000
v -2132.85450000 -3899.76485000 -2511.02500000
v -2117.77450000 -3712.46485000 -929.44500000
v -2092.00450000 -3778.86485000 -913.61500000
v -2082.37450000 -3875.96485000 -932.27500000
v -2101.45450000 -3481.66485000 -1065.06500000
v -2055.42450000 -3977.66485000 -1081.87500000
v -2103.01450000 -3322.28485000 -1191.33500000
v -2109.46450000 -3265.64485000 -1253.72500000
v -2110.47450000 -3146.01485000 -1408.17500000
v -2116.47450000 -3097.42485000 -1513.95500000
v -2113.89450000 -4022.96485000 -1553.92500000
v -2105.75450000 -3045.99485000 -1627.22500000
v -2131.38450000 -4016.86485000 -1771.37500000
v -2119.91450000 -4037.16485000 -1957.48500000
v -2112.89450000 -3014.46485000 -2102.83500000
v -2085.12450000 -3032.58485000 -2183.06500000
v -2069.45450000 -3368.45485000 -2383.54500000
v -2094.28450000 -3763.36485000 -2518.56500000
v -2084.06450000 -4014.66485000 -2562.29500000
v -2093.09450000 -4027.96485000 -2519.97500000
v -2091.27450000 -3879.56485000 -2550.58500000
v -2062.09450000 -3835.36485000 -915.43500000
v -2086.99450000 -3655.86485000 -947.37500000
v -2069.52450000 -3914.16485000 -965.23500000
v -2069.33450000 -3533.36485000 -1030.51500000
v -2070.80450000 -3602.36485000 -979.10500000
v -2083.93450000 -3372.35485000 -1148.88500000
v -2060.70450000 -4019.36485000 -1284.88500000
v -2097.32450000 -3197.05485000 -1329.44500000
v -2073.57450000 -3145.69485000 -1388.76500000
v -2089.05450000 -3098.27485000 -1475.61500000
v -2074.58450000 -2996.99485000 -1711.33500000
v -2069.13450000 -2971.03485000 -1815.07500000
v -2088.41450000 -4038.86485000 -1716.73500000
v -2083.11450000 -2971.02485000 -2042.62500000
v -2050.67450000 -3147.96485000 -2304.45500000
v -2054.16450000 -4050.36485000 -2240.09500000
v -2038.43450000 -4043.86485000 -2491.02500000
v -2061.07450000 -3629.06485000 -2492.69500000
v -2046.23450000 -3802.36485000 -906.32500000
v -2034.71450000 -3949.26485000 -1012.43500000
v -2078.44450000 -3441.16485000 -1101.88500000
v -2070.72450000 -3331.54485000 -1185.74500000
v -2072.42450000 -3285.03485000 -1232.68500000
v -2068.84450000 -3227.07485000 -1292.71500000
v -2050.27450000 -3176.53485000 -1357.96500000
v -2060.67450000 -3101.35485000 -1466.38500000
v -2056.50450000 -4036.86485000 -1492.62500000
v -2067.04450000 -3058.32485000 -1554.91500000
v -2064.10450000 -3018.69485000 -1644.48500000
v -2052.68450000 -4049.36485000 -1875.11500000
v -2035.44450000 -2938.30485000 -1924.91500000
v -2030.77450000 -2937.66485000 -2016.57500000
v -2058.42450000 -2974.82485000 -2131.06500000
v -2058.45450000 -3059.31485000 -2241.40500000
v -2039.68450000 -3818.56485000 -2573.45500000
v -2045.54450000 -4003.86485000 -2601.75500000
v -2030.59450000 -3759.66485000 -921.33500000
v -2039.26450000 -3613.66485000 -974.56500000
v -2053.01450000 -3404.80485000 -1142.55500000
v -2001.80450000 -4009.16485000 -1190.56500000
v -2040.71450000 -3254.02485000 -1279.83500000
v -2034.65450000 -3129.28485000 -1431.73500000
v -2048.14450000 -4045.66485000 -1640.58500000
v -2039.72450000 -2991.08485000 -1695.48500000
v -2034.17450000 -2966.63485000 -1772.27500000
v -2027.06450000 -2944.06485000 -2092.85500000
v -2028.89450000 -2993.74485000 -2207.88500000
v -2005.38450000 -3208.72485000 -2365.03500000
v -2031.24450000 -3488.16485000 -2456.64500000
v -2004.89450000 -3689.76485000 -2543.56500000
v -2025.54450000 -4022.46485000 -2577.87500000
v -2040.69450000 -3937.36485000 -2596.75500000
v -2036.19450000 -3668.66485000 -948.78500000
v -2029.57450000 -3883.56485000 -934.06500000
v -2011.11450000 -3918.96485000 -969.14500000
v -2018.50450000 -3581.56485000 -1022.02500000
v -2045.24450000 -3492.46485000 -1082.00500000
v -2043.57450000 -3210.20485000 -1323.71500000
v -2037.62450000 -3063.82485000 -1538.02500000
v -2024.39450000 -3039.16485000 -1592.34500000
v -1984.49450000 -4050.26485000 -1600.20500000
v -2028.62450000 -3015.76485000 -1648.88500000
v -2015.10450000 -2940.97485000 -1865.76500000
v -1999.18450000 -2950.34485000 -2162.13500000
v -2008.26450000 -3031.87485000 -2266.79500000
v -1998.22450000 -3361.69485000 -2424.03500000
v -2007.30450000 -3574.36485000 -2497.03500000
v -1966.28450000 -4040.26485000 -2565.65500000
v -1990.37450000 -3890.16485000 -2617.49500000
v -2016.49450000 -3836.66485000 -922.93500000
v -2014.04450000 -3653.66485000 -964.29500000
v -1980.92450000 -3981.86485000 -1096.04500000
v -2043.39450000 -3346.50485000 -1202.38500000
v -2023.95450000 -3219.30485000 -1335.54500000
v -1981.59450000 -4034.06485000 -1365.73500000
v -2016.12450000 -3166.19485000 -1404.44500000
v -2009.76450000 -3128.69485000 -1456.27500000
v -2006.98450000 -3095.78485000 -1520.77500000
v -2001.57450000 -3050.13485000 -1597.87500000
v -1981.19450000 -3014.08485000 -1691.09500000
v -1987.36450000 -2974.89485000 -1769.24500000
v -1990.75450000 -2947.21485000 -1837.41500000
v -1978.83450000 -2921.27485000 -1945.03500000
v -1974.66450000 -2919.46485000 -2017.05500000
v -1983.42450000 -2931.00485000 -2101.40500000
v -1947.72450000 -4053.66485000 -1928.61500000
v -1967.85450000 -2973.82485000 -2231.94500000
v -1988.18450000 -3087.15485000 -2316.53500000
v -1978.30450000 -3472.06485000 -2470.30500000
v -1957.98450000 -3596.56485000 -2518.62500000
v -1980.50450000 -3792.26485000 -2588.39500000
v -1991.08450000 -3974.26485000 -2614.99500000
v -2003.89450000 -3708.16485000 -944.73500000
v -1970.04450000 -3830.26485000 -939.39500000
v -1976.74450000 -3889.76485000 -960.45500000
v -1963.83450000 -3943.46485000 -1029.13500000
v -2014.17450000 -3473.46485000 -1131.82500000
v -2010.35450000 -3334.50485000 -1261.43500000
v -1963.54450000 -2930.36485000 -1903.83500000
v -1965.33450000 -3021.07485000 -2282.99500000
v -1955.61450000 -3141.01485000 -2359.24500000
v -1955.57450000 -3260.40485000 -2403.44500000
v -1943.95450000 -3373.14485000 -2443.61500000
v -1959.15450000 -3715.76485000 -2564.06500000
v -1954.19450000 -3862.26485000 -2617.41500000
v -1943.16450000 -4011.06485000 -2603.71500000
v -1977.59450000 -3757.76485000 -948.16500000
v -1991.57450000 -3676.16485000 -981.23500000
v -1977.10450000 -3632.66485000 -1052.11500000
v -1983.53450000 -3546.06485000 -1131.31500000
v -1942.02450000 -4004.86485000 -1171.14500000
v -1984.64450000 -3473.46485000 -1214.98500000
v -1980.50450000 -3358.03485000 -1324.19500000
v -1990.22450000 -3234.07485000 -1395.20500000
v -1988.98450000 -3148.80485000 -1481.56500000
v -1960.19450000 -3056.13485000 -1662.08500000
v -1949.61450000 -2989.54485000 -1782.22500000
v -1954.82450000 -2949.13485000 -1860.24500000
v -1931.74450000 -2923.43485000 -1997.98500000
v -1946.17450000 -2940.57485000 -2174.26500000
v -1935.03450000 -3058.56485000 -2317.78500000
v -1955.40450000 -4048.16485000 -2339.11500000
v -1926.05450000 -3481.26485000 -2479.41500000
v -1949.06450000 -3926.86485000 -2626.94500000
v -1949.83450000 -3753.76485000 -997.72500000
v -1936.27450000 -3920.06485000 -1006.24500000
v -1926.81450000 -3979.36485000 -1122.12500000
v -1954.27450000 -3609.66485000 -1185.70500000
v -1920.89450000 -4025.76485000 -1270.45500000
v -1956.45450000 -3470.16485000 -1335.88500000
v -1953.59450000 -3311.28485000 -1455.78500000
v -1938.20450000 -3430.86485000 -1457.95500000
v -1932.48450000 -3175.97485000 -1603.87500000
v -1956.44450000 -3108.03485000 -1612.54500000
v -1935.78450000 -2969.42485000 -1842.41500000
v -1934.83450000 -2928.27485000 -2095.47500000
v -1924.04450000 -2957.92485000 -2222.86500000
v -1928.10450000 -2999.50485000 -2266.12500000
v -1912.75450000 -3121.43485000 -2354.70500000
v -1913.89450000 -3202.82485000 -2385.72500000
v -1903.46450000 -3302.11485000 -2419.96500000
v -1914.67450000 -4030.36485000 -2531.90500000
v -1929.73450000 -3790.56485000 -2589.98500000
v -1927.56450000 -3683.06485000 -2549.70500000
v -1915.83450000 -3865.36485000 -2608.50500000
v -1935.22450000 -3971.96485000 -2620.38500000
v -1936.78450000 -3831.36485000 -982.71500000
v -1938.07450000 -3883.06485000 -989.27500000
v -1926.15450000 -3750.06485000 -1125.89500000
v -1914.73450000 -3945.56485000 -1071.80500000
v -1924.41450000 -3704.56485000 -1258.77500000
v -1934.30450000 -3616.46485000 -1321.01500000
v -1926.32450000 -3563.66485000 -1432.36500000
v -1893.03450000 -4043.96485000 -1540.68500000
v -1915.28450000 -3480.26485000 -1550.87500000
v -1926.86450000 -3347.89485000 -1544.38500000
v -1920.08450000 -3273.65485000 -1598.72500000
v -1934.81450000 -3008.86485000 -1782.50500000
v -1927.01450000 -2944.72485000 -1918.69500000
v -1899.44450000 -2949.61485000 -2175.74500000
v -1900.02450000 -4050.66485000 -2131.26500000
v -1896.41450000 -3022.65485000 -2283.39500000
v -1897.57450000 -3079.18485000 -2323.89500000
v -1893.01450000 -3408.34485000 -2451.10500000
v -1898.72450000 -3605.26485000 -2515.39500000
v -1905.30450000 -3925.56485000 -2611.39500000
v -1898.86450000 -3979.26485000 -2602.83500000
v -1908.18450000 -3846.46485000 -1073.68500000
v -1907.84450000 -3894.96485000 -1048.46500000
v -1918.11450000 -3915.76485000 -1037.26500000
v -1895.43450000 -4008.66485000 -1220.90500000
v -1892.87450000 -3800.16485000 -1312.23500000
v -1864.65450000 -4027.86485000 -1337.47500000
v -1908.37450000 -3696.06485000 -1401.44500000
v -1899.62450000 -3369.78485000 -1659.77500000
v -1898.92450000 -3083.16485000 -1794.98500000
v -1890.27450000 -2943.26485000 -2010.16500000
v -1895.86450000 -2939.89485000 -2091.94500000
v -1903.07450000 -2982.17485000 -2235.01500000
v -1888.50450000 -4038.56485000 -2352.02500000
v -1880.52450000 -3122.09485000 -2342.13500000
v -1880.35450000 -3171.65485000 -2363.18500000
v -1862.14450000 -3361.08485000 -2426.98500000
v -1882.32450000 -3514.56485000 -2479.56500000
v -1895.49450000 -3736.86485000 -2561.20500000
v -1902.33450000 -3807.36485000 -2586.01500000
v -1896.56450000 -3936.96485000 -1098.92500000
v -1871.20450000 -3878.76485000 -1237.84500000
v -1887.03450000 -3973.46485000 -1169.53500000
v -1865.62450000 -3863.56485000 -1353.03500000
v -1862.34450000 -4003.06485000 -1262.34500000
v -1858.71450000 -3853.06485000 -1492.39500000
v -1881.59450000 -3769.16485000 -1530.24500000
v -1898.63450000 -3630.06485000 -1574.96500000
v -1889.23450000 -3533.36485000 -1691.60500000
v -1871.60450000 -4047.26485000 -1851.21500000
v -1876.11450000 -3723.76485000 -1701.63500000
v -1884.15450000 -3636.16485000 -1694.61500000
v -1892.72450000 -3254.12485000 -1717.16500000
v -1895.72450000 -3173.45485000 -1739.64500000
v -1863.83450000 -3436.56485000 -1818.52500000
v -1900.12450000 -2985.09485000 -1909.46500000
v -1855.34450000 -4038.86485000 -2079.61500000
v -1869.92450000 -2960.79485000 -2153.00500000
v -1868.45450000 -3072.69485000 -2297.02500000
v -1861.07450000 -3268.52485000 -2389.00500000
v -1852.88450000 -3581.86485000 -2485.51500000
v -1868.47450000 -3685.86485000 -2528.51500000
v -1895.15450000 -4007.16485000 -2577.16500000
v -1876.82450000 -3800.76485000 -2564.52500000
v -1878.02450000 -3926.06485000 -1166.60500000
v -1830.42450000 -4017.06485000 -1337.48500000
v -1838.18450000 -3908.76485000 -1418.18500000
v -1853.50450000 -3828.66485000 -1688.82500000
v -1871.52450000 -3641.56485000 -1780.33500000
v -1861.97450000 -3227.56485000 -1841.64500000
v -1851.29450000 -3777.86485000 -1827.87500000
v -1838.85450000 -3673.76485000 -1917.66500000
v -1861.65450000 -3043.50485000 -1949.70500000
v -1862.59450000 -2991.60485000 -2031.15500000
v -1871.62450000 -2964.96485000 -2091.21500000
v -1854.42450000 -4029.26485000 -2309.76500000
v -1836.93450000 -4024.86485000 -2164.85500000
v -1873.99450000 -3004.42485000 -2223.91500000
v -1844.33450000 -3180.87485000 -2332.30500000
v -1852.37450000 -3462.86485000 -2448.03500000
v -1871.00450000 -4013.96485000 -2488.84500000
v -1875.23450000 -3985.66485000 -2567.91500000
v -1871.89450000 -3908.06485000 -2573.03500000
v -1836.93450000 -3958.86485000 -1283.81500000
v -1851.71450000 -3983.36485000 -1261.30500000
v -1824.87450000 -3948.66485000 -1356.95500000
v -1835.87450000 -4032.86485000 -1449.91500000
v -1820.04450000 -3923.16485000 -1606.04500000
v -1829.14450000 -4037.56485000 -1620.66500000
v -1832.81450000 -4036.86485000 -1811.18500000
v -1827.29450000 -3885.06485000 -1787.92500000
v -1830.35450000 -3374.10485000 -1934.34500000
v -1815.01450000 -3292.23485000 -2001.72500000
v -1819.12450000 -3547.06485000 -1986.97500000
v -1830.86450000 -3821.56485000 -1903.94500000
v -1845.73450000 -3151.43485000 -1945.36500000
v -1807.88450000 -3696.76485000 -2061.10500000
v -1827.70450000 -4026.96485000 -1937.06500000
v -1819.09450000 -3843.76485000 -2025.36500000
v -1834.91450000 -3082.27485000 -2060.43500000
v -1854.17450000 -3009.93485000 -2141.27500000
v -1826.84450000 -4001.06485000 -2235.14500000
v -1821.37450000 -4000.16485000 -2040.30500000
v -1847.83450000 -3075.62485000 -2243.24500000
v -1835.78450000 -3995.36485000 -2377.63500000
v -1818.79450000 -3310.93485000 -2370.13500000
v -1831.08450000 -3394.98485000 -2407.92500000
v -1846.37450000 -3676.06485000 -2506.98500000
v -1827.48450000 -3753.96485000 -2497.15500000
v -1847.09450000 -3921.76485000 -2503.39500000
v -1823.34450000 -4001.76485000 -1338.05500000
v -1813.25450000 -4019.26485000 -1451.64500000
v -1805.08450000 -3970.46485000 -1493.03500000
v -1805.95450000 -3962.26485000 -1740.46500000
v -1803.82450000 -3966.26485000 -1620.82500000
v -1810.64450000 -4024.46485000 -1737.80500000
v -1818.18450000 -3913.36485000 -1893.14500000
v -1811.01450000 -3980.76485000 -1871.39500000
v -1817.50450000 -3941.76485000 -1999.03500000
v -1813.71450000 -4010.16485000 -1852.51500000
v -1816.07450000 -3197.61485000 -2055.70500000
v -1805.32450000 -3175.78485000 -2137.24500000
v -1805.28450000 -3824.46485000 -2144.55500000
v -1816.33450000 -3932.56485000 -2143.34500000
v -1827.84450000 -3112.19485000 -2177.96500000
v -1800.70450000 -3202.88485000 -2214.88500000
v -1803.79450000 -3884.46485000 -2235.64500000
v -1814.91450000 -3192.89485000 -2264.66500000
v -1816.46450000 -3947.76485000 -2292.72500000
v -1802.54450000 -3294.17485000 -2323.19500000
v -1825.88450000 -3560.16485000 -2448.98500000
v -1810.77450000 -3911.06485000 -2390.53500000
v -1823.78450000 -3905.26485000 -2446.31500000
v -1802.47450000 -3824.46485000 -2423.25500000
v -1815.32450000 -3819.16485000 -2454.19500000
v -1815.45450000 -3987.56485000 -1392.88500000
v -1801.95450000 -4004.36485000 -1516.06500000
v -1808.53450000 -4017.56485000 -1593.81500000
v -1804.99450000 -3994.56485000 -1625.10500000
v -1809.84450000 -3995.36485000 -1765.46500000
v -1802.87450000 -3424.46485000 -2041.90500000
v -1793.66450000 -3334.30485000 -2114.72500000
v -1792.77450000 -3532.46485000 -2110.35500000
v -1792.29450000 -3700.46485000 -2153.19500000
v -1786.03450000 -3288.40485000 -2212.85500000
v -1788.34450000 -3778.26485000 -2254.73500000
v -1794.86450000 -3270.38485000 -2264.28500000
v -1800.69450000 -3862.46485000 -2309.38500000
v -1791.41450000 -3795.16485000 -2354.56500000
v -1802.06450000 -3462.76485000 -2383.87500000
v -1808.49450000 -3615.96485000 -2434.48500000
v -1798.61450000 -3669.16485000 -2400.31500000
v -1779.72450000 -3480.46485000 -2215.14500000
v -1784.32450000 -3639.36485000 -2214.13500000
v -1790.63450000 -3451.96485000 -2306.03500000
v -1788.93450000 -3636.16485000 -2290.45500000
v 1770.17550000 -3561.66485000 -2251.89500000
v 1797.58550000 -3517.06485000 -2104.47500000
v 1790.58550000 -3377.05485000 -2156.07500000
v 1787.12550000 -3645.46485000 -2201.25500000
v 1776.66550000 -3456.46485000 -2279.55500000
v 1793.14550000 -3313.82485000 -2229.35500000
v 1787.90550000 -3730.46485000 -2290.07500000
v 1797.35550000 -3743.36485000 -2213.01500000
v 1795.68550000 -3346.30485000 -2312.64500000
v 1779.22550000 -3587.96485000 -2328.36500000
v 1789.69550000 -3487.46485000 -2353.88500000
v 1794.28550000 -3607.66485000 -2396.23500000
v 1802.00550000 -3732.96485000 -2397.32500000
v 1814.85550000 -4009.96485000 -1389.75500000
v 1833.59550000 -3964.26485000 -1357.30500000
v 1821.35550000 -3965.26485000 -1483.24500000
v 1837.87550000 -4020.06485000 -1334.87500000
v 1828.17550000 -4030.96485000 -1426.50500000
v 1812.45550000 -4010.06485000 -1562.77500000
v 1818.59550000 -3966.96485000 -1585.97500000
v 1822.75550000 -4032.96485000 -1610.50500000
v 1816.82550000 -3975.76485000 -1710.28500000
v 1836.97550000 -3914.06485000 -1659.35500000
v 1813.50550000 -4006.16485000 -1711.22500000
v 1822.90550000 -4020.16485000 -1777.37500000
v 1819.56550000 -3982.06485000 -1855.36500000
v 1820.97550000 -4000.46485000 -1807.73500000
v 1809.61550000 -3340.77485000 -2039.46500000
v 1831.49550000 -3394.35485000 -1961.22500000
v 1811.25550000 -3254.05485000 -2056.42500000
v 1811.51550000 -3206.35485000 -2135.81500000
v 1805.46550000 -3701.36485000 -2141.81500000
v 1805.53550000 -3807.06485000 -2212.84500000
v 1814.25550000 -3208.81485000 -2248.49500000
v 1815.00550000 -3274.78485000 -2329.11500000
v 1806.95550000 -3837.46485000 -2333.97500000
v 1815.25550000 -3406.49485000 -2383.34500000
v 1814.36550000 -3856.76485000 -2438.25500000
v 1815.68550000 -3576.86485000 -2431.13500000
v 1819.69550000 -3708.56485000 -2461.51500000
v 1821.38550000 -3820.26485000 -2472.28500000
v 1849.26550000 -3985.86485000 -1287.74500000
v 1850.80550000 -3953.36485000 -1280.99500000
v 1838.69550000 -4041.76485000 -1597.08500000
v 1849.98550000 -3906.16485000 -1469.51500000
v 1827.93550000 -3939.26485000 -1827.34500000
v 1842.49550000 -4037.26485000 -1788.06500000
v 1823.22550000 -3932.36485000 -1977.26500000
v 1832.69550000 -3899.36485000 -1912.98500000
v 1826.17550000 -3993.36485000 -2007.24500000
v 1830.41550000 -3243.41485000 -1976.03500000
v 1848.84550000 -3259.74485000 -1901.22500000
v 1839.29550000 -4022.76485000 -2074.16500000
v 1835.92550000 -3846.26485000 -1960.75500000
v 1847.97550000 -3851.76485000 -1814.95500000
v 1831.50550000 -3145.58485000 -2030.69500000
v 1827.39550000 -3636.36485000 -2021.39500000
v 1838.42550000 -3755.66485000 -1985.06500000
v 1821.82550000 -3806.66485000 -2070.27500000
v 1834.94550000 -3074.86485000 -2092.80500000
v 1832.74550000 -3085.23485000 -2165.50500000
v 1818.83550000 -3908.56485000 -2216.60500000
v 1833.50550000 -3987.56485000 -2323.99500000
v 1837.81550000 -3091.37485000 -2232.91500000
v 1833.59550000 -3169.67485000 -2295.25500000
v 1843.04550000 -3243.84485000 -2357.04500000
v 1820.53550000 -3909.86485000 -2367.37500000
v 1851.26550000 -3385.89485000 -2419.54500000
v 1839.35550000 -3522.26485000 -2446.98500000
v 1850.70550000 -3657.56485000 -2495.65500000
v 1833.82550000 -3912.66485000 -2464.95500000
v 1853.99550000 -3827.56485000 -2530.86500000
v 1881.17550000 -3964.26485000 -1164.99500000
v 1868.62550000 -3942.76485000 -1201.44500000
v 1877.86550000 -3997.66485000 -1227.87500000
v 1885.23550000 -4025.26485000 -1296.33500000
v 1874.48550000 -3893.16485000 -1250.27500000
v 1877.94550000 -4043.06485000 -1468.38500000
v 1887.06550000 -4048.46485000 -1725.93500000
v 1871.26550000 -3829.46485000 -1573.74500000
v 1862.12550000 -4038.86485000 -2074.61500000
v 1856.31550000 -3152.12485000 -1914.74500000
v 1856.69550000 -3511.26485000 -1889.81500000
v 1861.37550000 -3360.82485000 -1854.28500000
v 1855.93550000 -3750.76485000 -1872.20500000
v 1858.32550000 -3037.94485000 -2005.20500000
v 1849.94550000 -3656.56485000 -1921.94500000
v 1856.70550000 -3004.87485000 -2103.18500000
v 1862.44550000 -3012.46485000 -2196.94500000
v 1857.92550000 -3074.61485000 -2270.23500000
v 1850.05550000 -4021.26485000 -2295.11500000
v 1859.39550000 -3130.08485000 -2315.28500000
v 1883.06550000 -3139.87485000 -2345.66500000
v 1879.21550000 -3251.79485000 -2390.98500000
v 1862.61550000 -3997.06485000 -2486.09500000
v 1874.89550000 -3513.16485000 -2473.63500000
v 1863.09550000 -3942.06485000 -2539.16500000
v 1877.68550000 -3983.26485000 -2563.17500000
v 1884.61550000 -3937.06485000 -1133.51500000
v 1897.47550000 -3894.06485000 -1097.44500000
v 1881.00550000 -3849.06485000 -1371.88500000
v 1877.41550000 -3743.06485000 -1719.66500000
v 1876.33550000 -3253.64485000 -1807.65500000
v 1890.46550000 -3150.70485000 -1786.51500000
v 1886.85550000 -3412.05485000 -1762.83500000
v 1871.15550000 -3597.86485000 -1826.11500000
v 1883.95550000 -3653.16485000 -1753.81500000
v 1887.98550000 -3075.79485000 -1851.86500000
v 1893.15550000 -2995.71485000 -1920.46500000
v 1886.80550000 -2965.72485000 -2020.80500000
v 1894.77550000 -2953.67485000 -2120.11500000
v 1904.68550000 -2973.77485000 -2218.06500000
v 1878.53550000 -4034.56485000 -2307.24500000
v 1887.44550000 -3020.58485000 -2257.14500000
v 1891.00550000 -3069.58485000 -2302.08500000
v 1889.78550000 -3373.14485000 -2437.56500000
v 1893.85550000 -3647.56485000 -2527.42500000
v 1882.86550000 -3750.56485000 -2550.23500000
v 1905.79550000 -4004.76485000 -2590.20500000
v 1906.07550000 -4029.76485000 -2505.97500000
v 1893.78550000 -3844.16485000 -2585.46500000
v 1892.13550000 -3928.26485000 -2582.94500000
v 1926.85550000 -3840.46485000 -1000.08500000
v 1922.57550000 -3792.86485000 -1124.95500000
v 1920.23550000 -3902.36485000 -1021.17500000
v 1904.70550000 -3935.76485000 -1088.91500000
v 1911.04550000 -3968.16485000 -1116.27500000
v 1901.60550000 -3810.86485000 -1282.15500000
v 1930.77550000 -3994.76485000 -1158.05500000
v 1897.23550000 -3780.66485000 -1425.66500000
v 1952.52550000 -4035.96485000 -1326.25500000
v 1955.80550000 -4048.56485000 -1560.80500000
v 1904.34550000 -3698.06485000 -1517.61500000
v 1905.54550000 -3583.56485000 -1621.47500000
v 1905.60550000 -3248.37485000 -1703.86500000
v 1894.49550000 -3525.56485000 -1709.26500000
v 1924.66550000 -3124.73485000 -1699.60500000
v 1920.83550000 -3028.80485000 -1804.57500000
v 1901.80550000 -4048.26485000 -2156.06500000
v 1916.18550000 -2979.86485000 -1875.18500000
v 1926.84550000 -2952.77485000 -1919.06500000
v 1923.44550000 -2931.04485000 -2026.62500000
v 1937.15550000 -2936.90485000 -2164.39500000
v 1915.84550000 -4044.96485000 -2396.22500000
v 1907.69550000 -3166.58485000 -2370.54500000
v 1915.92550000 -3258.58485000 -2406.37500000
v 1934.62550000 -3361.82485000 -2440.37500000
v 1913.02550000 -3450.56485000 -2465.25500000
v 1933.84550000 -3559.06485000 -2503.41500000
v 1919.81550000 -3773.56485000 -2578.61500000
v 1924.50550000 -3890.96485000 -2611.55500000
v 1942.62550000 -3868.96485000 -968.28500000
v 1942.36550000 -3910.06485000 -986.93500000
v 1934.12550000 -3935.86485000 -1036.15500000
v 1932.54550000 -3687.46485000 -1285.86500000
v 1967.54550000 -4012.26485000 -1211.30500000
v 1937.71550000 -3574.26485000 -1410.21500000
v 1924.21550000 -3520.26485000 -1531.07500000
v 1920.04550000 -3396.46485000 -1609.65500000
v 1916.66550000 -3499.76485000 -1587.24500000
v 1937.95550000 -3217.58485000 -1609.66500000
v 1956.92550000 -2998.88485000 -1766.96500000
v 1935.64550000 -2926.34485000 -2094.40500000
v 1973.51550000 -4053.26485000 -2283.61500000
v 1950.14550000 -2964.96485000 -2231.62500000
v 1929.47550000 -3010.65485000 -2273.27500000
v 1929.74550000 -3089.67485000 -2329.34500000
v 1944.64550000 -3168.60485000 -2371.08500000
v 1939.98550000 -3679.56485000 -2549.29500000
v 1942.29550000 -4029.96485000 -2583.54500000
v 1933.43550000 -3967.16485000 -2621.41500000
v 1970.04550000 -4010.96485000 -2616.23500000
v 1967.06550000 -3795.46485000 -942.96500000
v 1978.15550000 -3844.06485000 -928.40500000
v 1972.22550000 -3894.26485000 -955.55500000
v 1953.53550000 -3756.26485000 -1015.12500000
v 1977.86550000 -3932.06485000 -992.36500000
v 1968.80550000 -3963.16485000 -1062.03500000
v 1960.12550000 -3681.46485000 -1099.29500000
v 1955.73550000 -3554.96485000 -1306.24500000
v 1960.04550000 -3459.06485000 -1369.25500000
v 1946.94550000 -3415.16485000 -1462.19500000
v 1956.13550000 -3279.15485000 -1502.83500000
v 1966.74550000 -3155.62485000 -1554.14500000
v 1953.22550000 -3069.85485000 -1685.06500000
v 2006.12550000 -4053.66485000 -1956.85500000
v 1987.76550000 -2962.75485000 -1803.14500000
v 1966.68550000 -2931.54485000 -1931.15500000
v 1962.24550000 -2919.41485000 -2032.19500000
v 1963.46550000 -2987.41485000 -2261.47500000
v 1966.58550000 -3267.06485000 -2404.07500000
v 1963.82550000 -3467.06485000 -2470.24500000
v 1994.03550000 -4045.06485000 -2466.70500000
v 1970.26550000 -3873.56485000 -2618.34500000
v 1955.77550000 -3939.06485000 -2631.45500000
v 1971.74550000 -3978.36485000 -2631.40500000
v 2015.30550000 -3787.26485000 -911.25500000
v 2026.79550000 -3836.46485000 -911.35500000
v 2007.11550000 -3878.56485000 -932.26500000
v 1981.66550000 -3699.86485000 -998.97500000
v 2024.15550000 -3990.96485000 -1128.88500000
v 1972.31550000 -3543.56485000 -1220.79500000
v 1973.69550000 -3449.06485000 -1302.91500000
v 1974.13550000 -3343.39485000 -1382.76500000
v 1980.37550000 -3236.44485000 -1440.20500000
v 1991.40550000 -3080.16485000 -1583.50500000
v 2036.48550000 -4049.66485000 -1646.32500000
v 2008.18550000 -3012.75485000 -1672.23500000
v 1999.71550000 -2924.63485000 -1945.22500000
v 1962.80550000 -2924.42485000 -2107.32500000
v 1989.20550000 -2942.46485000 -2158.44500000
v 1992.30550000 -2980.38485000 -2235.23500000
v 1984.86550000 -3040.20485000 -2289.14500000
v 1974.65550000 -3115.76485000 -2338.14500000
v 1988.84550000 -3568.06485000 -2503.21500000
v 1982.13550000 -3660.96485000 -2541.28500000
v 1978.57550000 -3760.96485000 -2576.42500000
v 2020.10550000 -4034.16485000 -2559.77500000
v 1993.80550000 -3954.06485000 -2631.39500000
v 2016.39550000 -3721.96485000 -935.43500000
v 2006.04550000 -3659.36485000 -989.50500000
v 2044.23550000 -3911.26485000 -958.64500000
v 2000.69550000 -3562.06485000 -1095.30500000
v 1991.75550000 -3415.86485000 -1258.54500000
v 2001.82550000 -3291.66485000 -1331.66500000
v 2000.97550000 -3188.96485000 -1435.28500000
v 2035.85550000 -2990.02485000 -1704.33500000
v 2009.74550000 -2943.06485000 -1858.96500000
v 2020.28550000 -2931.39485000 -2021.49500000
v 2001.87550000 -3208.78485000 -2367.54500000
v 2035.91550000 -3359.47485000 -2408.39500000
v 1995.96550000 -3409.38485000 -2441.45500000
v 2026.09550000 -3921.46485000 -2616.03500000
v 2012.90550000 -3997.06485000 -2620.88500000
v 2031.59550000 -3613.16485000 -1001.42500000
v 2056.20550000 -3871.46485000 -926.92500000
v 2027.49550000 -3514.76485000 -1085.75500000
v 2070.95550000 -3955.16485000 -1041.98500000
v 2022.15550000 -3418.36485000 -1180.87500000
v 2069.01550000 -4014.36485000 -1245.18500000
v 2041.48550000 -3275.15485000 -1277.92500000
v 2045.06550000 -3144.24485000 -1422.04500000
v 2037.89550000 -4035.16485000 -1434.31500000
v 2041.86550000 -3065.48485000 -1542.29500000
v 2048.75550000 -3021.40485000 -1632.44500000
v 2046.06550000 -2968.85485000 -1778.59500000
v 2083.84550000 -4051.46485000 -1915.20500000
v 2053.57550000 -3032.38485000 -2236.59500000
v 2022.41550000 -3153.53485000 -2329.86500000
v 2033.60550000 -3572.56485000 -2488.59500000
v 2023.30550000 -3657.66485000 -2528.10500000
v 2021.25550000 -3730.76485000 -2556.43500000
v 2042.39550000 -3829.66485000 -2576.69500000
v 2033.58550000 -4018.76485000 -2591.54500000
v 2051.09550000 -3971.06485000 -2607.07500000
v 2063.86550000 -3735.56485000 -911.31500000
v 2062.20550000 -3792.86485000 -906.63500000
v 2065.60550000 -3665.66485000 -944.68500000
v 2067.10550000 -3591.86485000 -992.72500000
v 2053.80550000 -3498.66485000 -1075.04500000
v 2057.36550000 -3391.14485000 -1159.73500000
v 2075.74550000 -3262.48485000 -1249.79500000
v 2069.83550000 -3210.55485000 -1317.07500000
v 2059.71550000 -3096.26485000 -1473.05500000
v 2069.62550000 -3075.12485000 -1503.76500000
v 2050.53550000 -2949.24485000 -1881.22500000
v 2103.08550000 -4053.36485000 -2099.60500000
v 2048.25550000 -2949.07485000 -2094.51500000
v 2066.58550000 -2995.54485000 -2161.00500000
v 2073.11550000 -3143.71485000 -2284.28500000
v 2089.21550000 -4050.06485000 -2281.18500000
v 2054.78550000 -3506.86485000 -2452.78500000
v 2082.32550000 -4043.06485000 -2469.40500000
v 2079.37550000 -4029.06485000 -2544.73500000
v 2104.16550000 -3831.86485000 -919.60500000
v 2099.66550000 -3526.76485000 -1032.42500000
v 2086.88550000 -3337.68485000 -1184.29500000
v 2092.37550000 -3437.16485000 -1105.75500000
v 2100.44550000 -3283.33485000 -1223.95500000
v 2081.00550000 -3167.39485000 -1361.53500000
v 2081.69550000 -3116.80485000 -1441.32500000
v 2078.95550000 -3046.60485000 -1578.41500000
v 2072.81550000 -3009.90485000 -1675.09500000
v 2078.16550000 -2951.00485000 -1944.15500000
v 2088.42550000 -2960.26485000 -2013.15500000
v 2111.43550000 -2992.93485000 -2073.27500000
v 2083.17550000 -3315.87485000 -2355.64500000
v 2094.14550000 -3905.36485000 -2565.29500000
v 2065.45550000 -4003.46485000 -2583.82500000
v 2111.86550000 -3754.76485000 -916.81500000
v 2097.41550000 -3694.76485000 -928.39500000
v 2110.14550000 -3617.76485000 -972.83500000
v 2107.38550000 -3880.56485000 -945.01500000
v 2130.49550000 -3982.96485000 -1127.71500000
v 2096.99550000 -3226.25485000 -1289.02500000
v 2117.06550000 -3168.02485000 -1371.78500000
v 2086.52550000 -4034.46485000 -1517.36500000
v 2134.45550000 -4015.06485000 -1367.65500000
v 2102.31550000 -3080.51485000 -1515.70500000
v 2103.95550000 -4038.06485000 -1720.96500000
v 2104.28550000 -3003.63485000 -1756.45500000
v 2123.95550000 -4050.66485000 -2050.12500000
v 2114.38550000 -3054.60485000 -2182.59500000
v 2115.55550000 -3114.52485000 -2224.20500000
v 2083.64550000 -3478.76485000 -2424.00500000
v 2096.76550000 -3623.36485000 -2472.34500000
v 2054.84550000 -3707.06485000 -2528.03500000
v 2097.47550000 -3975.26485000 -2567.75500000
v 2157.18550000 -3911.76485000 -994.29500000
v 2167.00550000 -3951.96485000 -1061.21500000
v 2130.18550000 -3474.96485000 -1071.42500000
v 2128.83550000 -3402.23485000 -1129.14500000
v 2128.46550000 -3326.90485000 -1191.35500000
v 2124.95550000 -3271.70485000 -1243.10500000
v 2118.48550000 -3118.87485000 -1455.33500000
v 2129.11550000 -4020.56485000 -1539.70500000
v 2130.55550000 -3059.09485000 -1625.79500000
v 2141.72550000 -4039.86485000 -1981.37500000
v 2119.84550000 -2993.87485000 -1852.70500000
v 2124.59550000 -4032.86485000 -2493.59500000
v 2104.44550000 -3766.96485000 -2513.62500000
v 2144.26550000 -3690.06485000 -946.12500000
v 2147.93550000 -3549.86485000 -1023.93500000
v 2142.80550000 -3234.66485000 -1296.34500000
v 2160.89550000 -3198.78485000 -1359.28500000
v 2155.61550000 -3144.72485000 -1451.91500000
v 2138.42550000 -3100.36485000 -1526.96500000
v 2135.50550000 -4018.06485000 -1664.40500000
v 2144.23550000 -4019.56485000 -1814.14500000
v 2150.08550000 -3010.32485000 -1898.63500000
v 2151.18550000 -3013.43485000 -1975.28500000
v 2140.58550000 -3044.54485000 -2111.50500000
v 2141.16550000 -3232.85485000 -2261.57500000
v 2151.78550000 -3386.07485000 -2324.12500000
v 2131.33550000 -3507.86485000 -2393.67500000
v 2120.80550000 -4007.36485000 -2528.71500000
v 2183.34550000 -3782.06485000 -949.26500000
v 2173.83550000 -3853.96485000 -962.01500000
v 2145.07550000 -3624.76485000 -977.08500000
v 2216.32550000 -3637.56485000 -1014.08500000
v 2234.32550000 -3930.86485000 -1053.43500000
v 2167.17550000 -3454.06485000 -1102.33500000
v 2170.24550000 -3370.73485000 -1172.25500000
v 2161.24550000 -3299.85485000 -1236.66500000
v 2186.77550000 -3992.86485000 -1223.76500000
v 2189.80550000 -3258.86485000 -1311.68500000
v 2179.81550000 -3998.76485000 -1432.40500000
v 2159.10550000 -3997.26485000 -1578.48500000
v 2164.72550000 -3975.56485000 -1715.47500000
v 2191.48550000 -3079.23485000 -1737.37500000
v 2175.65550000 -4004.66485000 -1953.94500000
v 2140.07550000 -4045.56485000 -2148.07500000
v 2181.99550000 -3053.74485000 -1996.71500000
v 2141.13550000 -4037.86485000 -2409.46500000
v 2153.77550000 -3662.56485000 -2432.99500000
v 2154.92550000 -4018.46485000 -2469.36500000
v 2156.45550000 -3806.76485000 -2476.59500000
v 2149.34550000 -3931.86485000 -2504.14500000
v 2234.94550000 -3715.76485000 -995.44500000
v 2233.41550000 -3372.81485000 -1233.34500000
v 2219.52550000 -3989.06485000 -1311.65500000
v 2210.98550000 -3199.73485000 -1444.62500000
v 2178.42550000 -3123.12485000 -1564.14500000
v 2197.35550000 -3923.76485000 -1627.35500000
v 2211.06550000 -3955.96485000 -1499.61500000
v 2165.48550000 -3987.66485000 -1819.99500000
v 2178.37550000 -4028.66485000 -2140.13500000
v 2160.98550000 -3131.71485000 -2163.81500000
v 2181.84550000 -3333.62485000 -2265.98500000
v 2161.42550000 -4035.26485000 -2277.07500000
v 2183.26550000 -3505.26485000 -2335.10500000
v 2153.27550000 -3990.86485000 -2493.27500000
v 2215.46550000 -3877.06485000 -990.62500000
v 2224.21550000 -3538.96485000 -1081.99500000
v 2235.42550000 -3955.86485000 -1123.63500000
v 2235.20550000 -3474.76485000 -1141.86500000
v 2242.94550000 -3879.76485000 -1562.03500000
v 2210.83550000 -3867.36485000 -1745.66500000
v 2190.15550000 -3936.26485000 -1852.29500000
v 2211.31550000 -3925.76485000 -1988.83500000
v 2196.19550000 -3061.90485000 -1893.19500000
v 2208.44550000 -3987.96485000 -2121.68500000
v 2188.78550000 -3102.20485000 -2063.06500000
v 2183.87550000 -3240.15485000 -2205.84500000
v 2200.68550000 -4010.26485000 -2264.24500000
v 2176.83550000 -4016.86485000 -2382.40500000
v 2191.42550000 -3679.56485000 -2392.31500000
v 2183.15550000 -3963.06485000 -2440.70500000
v 2209.20550000 -3811.16485000 -2392.86500000
v 2289.35550000 -3769.36485000 -1020.47500000
v 2252.14550000 -3841.46485000 -1002.37500000
v 2246.53550000 -3893.56485000 -1025.92500000
v 2269.08550000 -3963.66485000 -1212.00500000
v 2260.11550000 -3311.15485000 -1349.65500000
v 2244.51550000 -3963.26485000 -1382.69500000
v 2241.49550000 -3818.96485000 -1668.67500000
v 2223.46550000 -3837.16485000 -1867.60500000
v 2237.23550000 -3815.36485000 -1973.18500000
v 2223.26550000 -3120.55485000 -1967.22500000
v 2237.76550000 -3892.66485000 -2098.15500000
v 2209.37550000 -3217.92485000 -2117.52500000
v 2207.53550000 -3389.22485000 -2237.13500000
v 2209.18550000 -3978.86485000 -2356.14500000
v 2220.38550000 -3909.96485000 -2373.38500000
v 2310.15550000 -3680.66485000 -1070.06500000
v 2273.79550000 -3593.66485000 -1085.81500000
v 2266.71550000 -3543.76485000 -1114.27500000
v 2274.03550000 -3258.95485000 -1464.02500000
v 2276.53550000 -3907.26485000 -1438.10500000
v 2242.25550000 -3187.95485000 -1563.84500000
v 2238.28550000 -3782.16485000 -1783.87500000
v 2247.33550000 -3733.66485000 -1856.11500000
v 2242.19550000 -3231.15485000 -2020.42500000
v 2256.61550000 -3779.76485000 -2072.16500000
v 2235.56550000 -3374.43485000 -2146.00500000
v 2232.22550000 -3944.16485000 -2239.13500000
v 2221.62550000 -3575.46485000 -2286.45500000
v 2244.09550000 -3905.66485000 -2300.93500000
v 2285.40550000 -3911.16485000 -1073.83500000
v 2301.98550000 -3541.76485000 -1158.46500000
v 2314.49550000 -3437.06485000 -1275.23500000
v 2282.74550000 -3955.86485000 -1295.20500000
v 2284.87550000 -3938.06485000 -1354.98500000
v 2314.28550000 -3293.91485000 -1514.49500000
v 2301.10550000 -3804.56485000 -1534.86500000
v 2271.01550000 -3704.66485000 -1715.80500000
v 2276.31550000 -3201.37485000 -1664.53500000
v 2239.65550000 -3131.27485000 -1810.08500000
v 2264.87550000 -3603.66485000 -1848.24500000
v 2260.96550000 -3518.36485000 -1961.33500000
v 2274.38550000 -3465.26485000 -1861.29500000
v 2254.11550000 -3692.86485000 -1961.20500000
v 2253.60550000 -3183.18485000 -1893.00500000
v 2255.85550000 -3369.34485000 -2018.23500000
v 2268.96550000 -3272.12485000 -1871.75500000
v 2273.76550000 -3373.13485000 -1883.79500000
v 2262.27550000 -3648.86485000 -2074.24500000
v 2262.28550000 -3565.36485000 -2107.11500000
v 2253.59550000 -3547.16485000 -2175.09500000
v 2269.52550000 -3656.36485000 -2143.39500000
v 2260.36550000 -3844.36485000 -2191.98500000
v 2269.08550000 -3667.36485000 -2183.80500000
v 2252.44550000 -3887.66485000 -2251.88500000
v 2253.52550000 -3725.56485000 -2263.02500000
v 2259.33550000 -3830.66485000 -2257.18500000
v 2237.41550000 -3837.76485000 -2316.50500000
v 2330.04550000 -3820.26485000 -1055.15500000
v 2293.63550000 -3868.76485000 -1047.82500000
v 2308.37550000 -3925.16485000 -1138.42500000
v 2326.69550000 -3375.41485000 -1385.25500000
v 2326.01550000 -3861.66485000 -1411.22500000
v 2326.18550000 -3700.26485000 -1581.48500000
v 2308.82550000 -3608.76485000 -1666.36500000
v 2304.17550000 -3246.91485000 -1669.13500000
v 2278.91550000 -3228.51485000 -1768.99500000
v 2294.69550000 -3521.86485000 -1750.40500000
v 2287.16550000 -3305.57485000 -1802.14500000
v 2295.12550000 -3394.74485000 -1783.22500000
v 2266.35550000 -3730.46485000 -2149.11500000
v 2261.48550000 -3759.76485000 -2209.30500000
v 2323.81550000 -3928.26485000 -1213.36500000
v 2331.22550000 -3897.86485000 -1316.37500000
v 2367.40550000 -3488.96485000 -1296.96500000
v 2323.78550000 -3299.07485000 -1602.56500000
v 2344.34550000 -3619.76485000 -1589.27500000
v 2348.46550000 -3539.86485000 -1613.31500000
v 2313.91550000 -3330.24485000 -1694.08500000
v 2319.71550000 -3438.26485000 -1696.10500000
v 2356.15550000 -3748.06485000 -1091.70500000
v 2337.31550000 -3869.06485000 -1094.75500000
v 2362.43550000 -3818.96485000 -1381.86500000
v 2362.74550000 -3738.96485000 -1473.29500000
v 2349.76550000 -3387.92485000 -1594.62500000
v 2343.78550000 -3436.46485000 -1627.11500000
v 2376.07550000 -3805.36485000 -1114.19500000
v 2348.66550000 -3894.46485000 -1154.99500000
v 2360.99550000 -3547.96485000 -1226.05500000
v 2373.16550000 -3871.86485000 -1213.15500000
v 2370.53550000 -3852.46485000 -1296.00500000
v 2384.03550000 -3475.86485000 -1362.32500000
v 2358.57550000 -3400.01485000 -1440.43500000
v 2364.33550000 -3413.36485000 -1510.02500000
v 2380.44550000 -3644.76485000 -1502.01500000
v 2363.80550000 -3460.06485000 -1578.70500000
v 2367.21550000 -3505.76485000 -1572.81500000
v 2377.85550000 -3844.36485000 -1150.21500000
v 2362.62550000 -3643.66485000 -1159.11500000
v 2389.50550000 -3472.76485000 -1422.79500000
v 2400.08550000 -3735.16485000 -1387.73500000
v 2381.61550000 -3498.46485000 -1526.88500000
v 2379.04550000 -3554.76485000 -1535.30500000
v 2410.56550000 -3781.56485000 -1177.40500000
v 2394.75550000 -3717.56485000 -1169.20500000
v 2402.31550000 -3814.96485000 -1212.61500000
v 2396.84550000 -3594.16485000 -1260.71500000
v 2397.67550000 -3796.46485000 -1295.24500000
v 2411.31550000 -3549.96485000 -1358.20500000
v 2405.35550000 -3536.96485000 -1429.77500000
v 2397.12550000 -3579.06485000 -1473.03500000
v 2420.99550000 -3694.46485000 -1241.17500000
v 2419.22550000 -3748.26485000 -1257.75500000
v 2422.21550000 -3618.16485000 -1305.25500000
v 2420.65550000 -3724.26485000 -1322.17500000
v 2425.04550000 -3607.46485000 -1351.57500000
v 2410.84550000 -3643.16485000 -1394.18500000
v 2419.44550000 -3672.16485000 -1311.53500000
f 1 2 3
f 2 1 4
f 1 5 6
f 4 1 6
f 2 4 7
f 7 4 8
f 4 6 8
f 6 5 9
f 6 9 10
f 8 6 10
f 10 9 11
f 7 8 12
f 11 13 10
f 8 10 13
f 12 8 13
f 3 14 1
f 1 14 5
f 2 15 3
f 16 15 2
f 14 17 5
f 16 2 18
f 5 17 9
f 2 7 18
f 7 19 18
f 12 19 7
f 19 12 20
f 13 11 21
f 13 21 22
f 12 13 20
f 20 13 22
f 23 24 14
f 23 14 3
f 25 23 3
f 15 25 3
f 26 25 15
f 24 27 17
f 14 24 17
f 15 16 26
f 28 26 16
f 16 18 28
f 17 29 9
f 29 30 9
f 31 18 19
f 9 30 11
f 19 32 31
f 33 11 30
f 21 11 33
f 20 32 19
f 33 34 21
f 22 21 35
f 35 21 34
f 25 36 23
f 25 37 38
f 25 26 37
f 39 37 26
f 28 39 26
f 17 27 29
f 28 18 40
f 18 41 40
f 18 31 41
f 33 30 42
f 20 43 32
f 43 44 32
f 33 42 45
f 34 33 45
f 20 46 43
f 34 45 47
f 35 34 47
f 20 22 46
f 48 23 36
f 36 25 49
f 48 50 24
f 23 48 24
f 38 37 51
f 50 52 24
f 52 27 24
f 37 39 53
f 39 28 40
f 29 54 30
f 42 30 55
f 44 31 32
f 42 55 45
f 45 55 56
f 45 56 47
f 35 46 22
f 46 35 57
f 56 58 47
f 35 47 59
f 57 35 59
f 47 58 59
f 25 38 49
f 49 38 60
f 51 37 53
f 53 39 61
f 52 62 27
f 27 62 29
f 40 41 63
f 54 64 30
f 30 64 55
f 65 44 43
f 56 55 66
f 58 56 66
f 57 43 46
f 58 66 67
f 68 58 67
f 68 59 58
f 48 36 69
f 60 38 51
f 48 70 50
f 50 71 52
f 39 40 61
f 61 40 72
f 29 62 73
f 40 63 72
f 73 54 29
f 41 31 74
f 31 44 74
f 65 74 44
f 75 55 64
f 57 65 43
f 66 55 75
f 65 57 76
f 57 59 77
f 76 57 77
f 66 75 78
f 67 66 78
f 68 79 59
f 77 59 79
f 68 67 80
f 67 78 80
f 81 82 83
f 84 83 82
f 85 48 69
f 70 48 85
f 70 71 50
f 51 53 86
f 71 87 52
f 52 87 62
f 53 61 86
f 86 61 88
f 88 61 89
f 61 72 89
f 90 54 73
f 91 72 63
f 54 90 64
f 41 74 63
f 90 92 64
f 65 93 74
f 64 92 75
f 76 94 65
f 94 93 65
f 75 92 95
f 75 95 78
f 96 76 77
f 95 97 78
f 98 96 77
f 80 79 68
f 78 97 99
f 79 98 77
f 79 80 100
f 80 78 99
f 83 101 102
f 103 101 83
f 102 101 104
f 105 103 83
f 106 104 101
f 102 104 81
f 83 102 81
f 81 104 82
f 82 104 107
f 108 83 84
f 105 83 108
f 82 107 109
f 108 84 110
f 82 109 111
f 112 82 111
f 84 82 112
f 110 84 112
f 36 49 113
f 69 36 113
f 60 113 49
f 114 60 115
f 51 115 60
f 87 116 62
f 116 73 62
f 72 91 89
f 93 117 74
f 92 118 95
f 94 76 96
f 119 95 118
f 94 96 120
f 95 119 97
f 96 98 120
f 121 97 119
f 122 97 121
f 79 100 98
f 123 98 100
f 120 98 123
f 124 120 123
f 123 100 125
f 99 97 122
f 100 80 125
f 103 124 123
f 80 99 126
f 125 80 126
f 123 125 101
f 103 123 101
f 127 99 122
f 101 125 126
f 128 99 127
f 124 103 105
f 129 124 105
f 126 99 106
f 106 99 128
f 127 130 128
f 101 126 106
f 129 105 131
f 106 128 107
f 106 107 104
f 131 105 108
f 132 128 130
f 107 128 132
f 107 132 109
f 131 108 133
f 134 109 132
f 109 134 111
f 110 133 108
f 112 111 134
f 133 110 135
f 135 110 112
f 113 60 114
f 71 70 136
f 137 51 86
f 71 136 87
f 88 138 86
f 88 89 139
f 116 140 73
f 141 73 140
f 90 73 141
f 142 90 141
f 90 142 92
f 117 143 63
f 63 74 117
f 92 142 118
f 117 93 144
f 144 93 145
f 94 145 93
f 120 145 94
f 146 145 120
f 124 146 120
f 146 124 147
f 148 147 124
f 129 148 124
f 122 149 127
f 148 129 150
f 130 127 149
f 150 129 131
f 151 150 131
f 130 152 132
f 132 152 153
f 131 133 151
f 151 133 154
f 154 155 151
f 132 153 134
f 156 134 153
f 135 154 133
f 134 157 112
f 134 156 157
f 158 112 157
f 135 112 158
f 85 69 159
f 69 113 159
f 114 160 113
f 161 70 85
f 162 114 115
f 51 137 115
f 87 136 163
f 87 163 116
f 116 163 140
f 89 164 139
f 89 91 164
f 146 165 145
f 165 146 147
f 165 147 148
f 166 165 148
f 166 148 150
f 167 122 121
f 122 167 149
f 167 168 149
f 169 170 150
f 168 171 149
f 149 171 130
f 169 150 151
f 130 171 172
f 130 172 152
f 173 152 172
f 152 173 153
f 155 169 151
f 155 154 174
f 174 154 175
f 156 153 176
f 177 156 176
f 154 135 175
f 158 175 135
f 157 156 177
f 113 160 159
f 115 137 162
f 136 178 179
f 70 178 136
f 86 138 137
f 88 139 180
f 91 63 143
f 143 164 91
f 117 181 143
f 117 144 181
f 118 142 182
f 144 145 181
f 183 181 145
f 145 165 183
f 182 119 118
f 184 119 182
f 185 183 165
f 185 165 166
f 185 166 170
f 186 121 119
f 166 150 170
f 167 121 186
f 170 169 187
f 188 172 171
f 189 173 172
f 190 169 191
f 169 155 191
f 153 173 176
f 174 191 155
f 158 192 175
f 193 157 177
f 158 157 193
f 192 158 193
f 194 85 159
f 160 195 159
f 194 161 85
f 160 162 196
f 160 114 162
f 161 178 70
f 178 197 179
f 198 137 138
f 199 163 179
f 136 179 163
f 138 88 180
f 200 140 163
f 201 141 140
f 141 201 202
f 203 139 164
f 142 141 202
f 182 142 204
f 143 181 183
f 205 143 183
f 185 205 183
f 170 205 185
f 186 119 184
f 187 206 170
f 186 207 167
f 167 207 168
f 187 169 206
f 168 207 208
f 169 190 206
f 208 188 168
f 168 188 171
f 189 172 188
f 173 189 209
f 173 209 176
f 177 176 210
f 175 211 212
f 175 212 174
f 192 211 175
f 193 177 213
f 159 195 194
f 160 214 195
f 160 196 214
f 194 215 161
f 215 178 161
f 162 137 216
f 217 178 218
f 197 178 217
f 219 199 179
f 163 199 200
f 138 180 220
f 140 200 221
f 201 221 222
f 140 221 201
f 202 201 223
f 143 203 164
f 142 202 204
f 205 203 143
f 182 204 224
f 225 182 224
f 184 182 225
f 206 226 205
f 205 170 206
f 186 184 227
f 186 227 207
f 228 189 188
f 190 191 229
f 191 174 229
f 229 174 230
f 210 176 231
f 174 212 230
f 177 210 213
f 213 192 193
f 195 214 232
f 196 162 216
f 215 218 178
f 233 216 137
f 198 233 137
f 179 197 234
f 179 234 219
f 199 219 235
f 200 199 236
f 236 199 235
f 200 237 221
f 221 238 222
f 180 139 220
f 239 201 222
f 201 239 223
f 139 203 240
f 202 223 241
f 202 241 204
f 204 241 242
f 205 226 203
f 224 204 242
f 226 206 243
f 244 184 225
f 245 184 244
f 245 227 184
f 243 206 190
f 246 207 227
f 207 246 208
f 208 247 188
f 228 188 247
f 189 228 209
f 176 209 231
f 210 231 248
f 213 210 248
f 211 192 249
f 250 195 232
f 250 215 194
f 195 250 194
f 251 217 218
f 197 217 234
f 219 234 252
f 235 219 252
f 138 220 253
f 236 254 237
f 236 237 200
f 237 238 221
f 220 139 240
f 255 239 222
f 223 239 241
f 240 203 226
f 240 226 256
f 224 242 257
f 224 257 258
f 224 258 225
f 226 243 256
f 259 227 245
f 246 227 259
f 246 260 208
f 190 229 243
f 208 260 247
f 261 209 228
f 209 262 231
f 248 231 263
f 230 212 264
f 211 264 212
f 192 265 249
f 213 265 192
f 211 249 264
f 265 213 248
f 250 266 215
f 267 214 196
f 266 218 215
f 196 216 267
f 251 218 266
f 216 233 268
f 251 269 217
f 269 270 217
f 270 234 217
f 198 138 253
f 252 234 270
f 237 254 271
f 271 238 237
f 238 255 222
f 241 239 272
f 241 272 273
f 240 256 274
f 273 275 241
f 242 241 275
f 242 275 257
f 258 276 225
f 225 276 244
f 259 277 246
f 247 260 278
f 228 247 278
f 209 261 279
f 209 279 262
f 280 231 262
f 231 280 263
f 230 264 281
f 265 248 282
f 214 283 232
f 214 267 283
f 216 268 267
f 251 284 269
f 284 251 266
f 233 198 285
f 198 253 285
f 235 252 286
f 235 286 236
f 236 286 254
f 271 287 238
f 220 240 288
f 255 238 289
f 289 290 255
f 288 240 274
f 255 290 291
f 255 291 239
f 272 239 291
f 272 292 273
f 273 293 275
f 292 293 273
f 275 294 257
f 257 294 258
f 256 243 274
f 276 258 295
f 276 296 244
f 296 297 244
f 244 297 245
f 297 298 245
f 245 298 259
f 243 229 299
f 260 246 277
f 260 300 278
f 228 278 301
f 228 301 261
f 280 262 302
f 280 303 263
f 248 263 304
f 248 304 282
f 249 265 305
f 283 250 232
f 250 306 266
f 283 307 250
f 308 283 267
f 306 284 266
f 267 268 308
f 309 268 233
f 270 269 310
f 270 310 252
f 286 252 310
f 286 310 311
f 254 286 311
f 287 254 311
f 288 253 220
f 271 254 287
f 287 289 238
f 272 291 292
f 275 293 294
f 258 294 295
f 274 243 299
f 295 312 276
f 276 312 296
f 259 298 277
f 277 300 260
f 278 300 313
f 278 313 301
f 261 301 314
f 261 314 315
f 279 261 315
f 302 279 316
f 279 302 262
f 280 302 303
f 263 317 304
f 304 318 282
f 319 281 264
f 305 265 282
f 305 264 249
f 320 306 250
f 250 307 320
f 306 321 284
f 284 321 269
f 309 308 268
f 322 269 321
f 233 285 309
f 269 322 310
f 310 322 323
f 324 285 253
f 325 310 323
f 311 310 325
f 311 325 326
f 326 327 311
f 287 311 327
f 287 327 289
f 328 289 327
f 290 289 328
f 290 328 291
f 293 292 329
f 292 291 329
f 293 330 294
f 294 331 295
f 296 312 332
f 297 296 332
f 298 333 277
f 333 300 277
f 301 313 334
f 301 334 314
f 299 229 335
f 279 315 316
f 229 230 335
f 302 336 303
f 230 281 335
f 263 303 317
f 282 318 337
f 305 282 337
f 319 264 305
f 321 306 320
f 308 307 283
f 338 321 320
f 339 308 309
f 322 321 338
f 309 285 340
f 285 324 340
f 325 323 341
f 253 342 324
f 341 343 325
f 253 288 342
f 325 343 326
f 327 326 344
f 343 344 326
f 343 345 344
f 328 327 346
f 344 346 327
f 328 346 347
f 328 347 291
f 329 291 347
f 294 348 331
f 330 348 294
f 331 312 295
f 297 349 298
f 349 333 298
f 333 350 300
f 300 351 313
f 313 351 334
f 314 334 352
f 353 315 314
f 316 315 354
f 302 316 336
f 335 281 355
f 304 317 356
f 317 357 356
f 318 304 356
f 355 281 319
f 318 358 337
f 359 319 305
f 305 337 359
f 360 338 320
f 307 360 320
f 361 360 307
f 308 361 307
f 308 339 361
f 362 322 338
f 309 363 339
f 363 309 340
f 362 341 322
f 323 322 341
f 364 365 341
f 343 341 365
f 366 343 365
f 343 366 345
f 288 274 367
f 366 368 345
f 345 369 344
f 368 369 345
f 370 344 369
f 370 346 344
f 293 329 371
f 293 371 330
f 331 348 372
f 331 372 312
f 312 372 332
f 297 332 349
f 349 373 333
f 333 373 350
f 299 335 374
f 350 351 300
f 375 334 351
f 334 375 376
f 334 376 352
f 314 352 353
f 354 315 353
f 316 354 377
f 336 316 377
f 303 336 378
f 317 303 357
f 303 378 357
f 318 356 358
f 359 337 379
f 337 358 379
f 319 359 380
f 338 360 381
f 381 362 338
f 382 381 360
f 361 382 360
f 383 382 361
f 361 339 383
f 363 383 339
f 362 364 341
f 384 340 324
f 362 385 364
f 384 324 342
f 384 342 386
f 367 342 288
f 364 387 365
f 385 387 364
f 365 387 366
f 367 274 299
f 388 370 369
f 368 388 369
f 347 346 389
f 347 389 329
f 371 329 389
f 348 330 371
f 372 390 332
f 349 332 391
f 392 350 373
f 374 335 393
f 350 392 351
f 375 351 392
f 352 376 394
f 353 352 395
f 352 394 395
f 354 396 377
f 336 377 397
f 336 397 378
f 357 378 398
f 393 335 355
f 357 398 356
f 356 398 399
f 356 399 358
f 379 380 359
f 383 400 382
f 400 383 363
f 381 401 362
f 401 385 362
f 363 340 402
f 384 402 340
f 401 403 385
f 384 404 402
f 404 384 386
f 386 342 367
f 405 385 403
f 385 406 387
f 406 407 387
f 366 387 407
f 368 366 407
f 408 368 407
f 367 299 409
f 410 411 407
f 388 368 408
f 411 408 407
f 388 412 370
f 370 412 346
f 412 413 346
f 408 414 388
f 346 413 389
f 414 412 388
f 299 374 409
f 371 415 348
f 415 371 389
f 348 415 372
f 372 415 390
f 409 374 416
f 390 391 332
f 349 391 373
f 417 373 391
f 416 374 393
f 376 375 418
f 353 395 419
f 353 419 354
f 354 419 396
f 378 397 420
f 378 420 421
f 378 421 398
f 319 422 355
f 358 399 423
f 358 423 379
f 319 380 422
f 382 424 381
f 400 424 382
f 363 402 400
f 424 401 381
f 400 402 424
f 425 404 386
f 401 426 403
f 385 405 406
f 407 406 410
f 427 410 406
f 405 427 406
f 410 428 411
f 428 414 408
f 411 428 408
f 414 429 412
f 410 430 428
f 412 429 413
f 431 414 428
f 413 429 389
f 430 431 428
f 415 389 432
f 415 433 390
f 432 433 415
f 433 434 390
f 434 391 390
f 391 434 417
f 435 436 416
f 417 437 373
f 416 393 435
f 373 437 392
f 392 437 375
f 375 437 418
f 394 376 418
f 395 438 419
f 395 394 438
f 377 396 439
f 439 397 377
f 439 420 397
f 393 355 440
f 435 393 440
f 421 423 398
f 398 423 399
f 440 422 441
f 440 355 422
f 441 380 442
f 441 422 380
f 379 423 442
f 380 379 442
f 424 443 401
f 444 443 424
f 424 402 444
f 443 445 401
f 402 404 444
f 404 425 444
f 426 401 445
f 425 386 446
f 446 386 367
f 403 426 405
f 447 405 426
f 446 367 448
f 367 409 448
f 405 447 427
f 448 409 449
f 450 427 447
f 410 427 430
f 427 450 430
f 451 429 414
f 452 429 451
f 431 453 414
f 431 430 454
f 389 429 455
f 432 389 455
f 455 429 452
f 453 451 414
f 431 456 453
f 450 454 430
f 416 457 449
f 449 409 416
f 458 456 431
f 455 459 432
f 436 457 416
f 433 432 459
f 433 460 434
f 460 417 434
f 461 462 436
f 417 460 437
f 437 460 463
f 464 461 436
f 436 435 464
f 418 437 463
f 438 418 463
f 438 394 418
f 419 438 465
f 396 419 466
f 396 466 439
f 435 440 464
f 467 421 420
f 467 468 423
f 464 440 469
f 423 421 467
f 468 469 442
f 440 441 469
f 442 423 468
f 441 442 469
f 470 443 444
f 444 425 470
f 471 425 446
f 472 426 445
f 447 426 472
f 473 447 474
f 449 475 448
f 457 475 449
f 473 450 447
f 473 476 450
f 477 478 476
f 479 462 477
f 462 478 477
f 457 462 479
f 458 431 454
f 450 476 454
f 457 436 462
f 480 455 452
f 476 458 454
f 480 459 455
f 478 458 476
f 481 459 480
f 458 482 456
f 478 483 458
f 460 433 459
f 460 459 484
f 481 484 459
f 462 483 478
f 462 461 483
f 483 482 458
f 481 485 484
f 486 482 483
f 484 463 460
f 485 487 484
f 487 463 484
f 483 488 486
f 461 488 483
f 463 487 438
f 489 438 487
f 465 438 489
f 461 464 488
f 465 466 419
f 466 490 439
f 491 492 493
f 488 464 491
f 490 468 467
f 490 420 439
f 467 420 490
f 464 492 491
f 492 494 493
f 492 469 494
f 464 469 492
f 469 468 494
f 470 495 443
f 445 443 495
f 425 471 470
f 495 472 445
f 496 495 471
f 495 470 471
f 472 495 496
f 446 448 471
f 448 497 471
f 472 474 447
f 473 474 498
f 475 498 497
f 448 475 497
f 498 499 473
f 498 475 499
f 499 477 473
f 477 476 473
f 499 479 477
f 475 479 499
f 475 457 479
f 451 453 500
f 451 500 452
f 452 501 480
f 456 502 453
f 500 501 452
f 453 502 500
f 503 502 456
f 501 481 480
f 503 456 482
f 504 485 481
f 501 504 481
f 482 505 503
f 482 486 505
f 506 485 504
f 487 485 506
f 486 507 505
f 507 508 505
f 488 507 486
f 506 489 487
f 488 491 507
f 465 489 509
f 509 466 465
f 507 491 508
f 509 510 490
f 491 493 508
f 490 466 509
f 508 493 511
f 510 468 490
f 468 510 511
f 493 494 511
f 494 468 511
f 471 497 496
f 472 498 474
f 496 498 472
f 497 498 496
f 502 501 500
f 512 504 501
f 502 512 501
f 513 512 502
f 503 513 502
f 503 505 513
f 514 506 504
f 512 514 504
f 505 515 513
f 513 515 512
f 489 506 514
f 515 514 512
f 505 508 515
f 509 489 514
f 511 509 514
f 515 511 514
f 508 511 515
f 510 509 511
f 516 517 518
f 517 516 519
f 520 518 521
f 516 518 520
f 522 519 516
f 522 523 519
f 521 524 520
f 516 520 525
f 522 516 525
f 526 520 524
f 525 520 526
f 527 525 526
f 528 525 527
f 529 530 531
f 532 529 533
f 529 531 534
f 534 531 535
f 534 533 529
f 536 533 534
f 534 535 537
f 538 537 535
f 534 537 539
f 540 536 534
f 539 540 534
f 541 542 537
f 539 537 542
f 542 540 539
f 543 517 544
f 543 545 518
f 518 545 546
f 517 543 518
f 518 546 521
f 519 547 517
f 523 547 519
f 548 547 523
f 521 546 549
f 521 549 524
f 548 523 522
f 549 550 524
f 548 522 551
f 524 550 552
f 524 552 526
f 522 525 528
f 551 522 528
f 551 528 553
f 526 552 554
f 527 526 554
f 554 555 527
f 527 555 528
f 553 528 556
f 556 528 555
f 557 558 530
f 529 557 530
f 529 532 557
f 533 536 559
f 538 531 560
f 531 538 535
f 538 561 537
f 536 540 562
f 562 559 536
f 537 561 541
f 541 561 563
f 563 561 564
f 542 541 565
f 540 542 565
f 565 541 563
f 566 544 567
f 568 562 540
f 565 568 540
f 569 564 570
f 544 566 543
f 543 566 545
f 545 566 571
f 572 544 517
f 569 573 574
f 564 569 563
f 563 569 574
f 574 573 572
f 546 571 575
f 545 571 546
f 547 572 517
f 574 572 547
f 546 575 576
f 563 574 577
f 546 576 549
f 548 574 547
f 577 574 548
f 565 563 577
f 565 577 578
f 549 576 579
f 579 580 549
f 550 549 580
f 577 548 551
f 580 581 550
f 577 551 582
f 578 577 582
f 550 581 552
f 583 552 581
f 584 552 583
f 552 584 554
f 582 551 553
f 585 554 584
f 554 585 555
f 553 556 586
f 582 553 586
f 578 582 586
f 556 555 587
f 586 556 587
f 588 589 557
f 557 589 558
f 590 588 557
f 532 590 557
f 532 591 590
f 558 592 530
f 560 530 592
f 532 533 591
f 591 533 593
f 530 560 531
f 593 533 559
f 559 562 594
f 570 538 595
f 561 538 570
f 561 570 564
f 596 594 562
f 568 596 562
f 567 597 566
f 598 599 544
f 599 567 544
f 572 598 544
f 570 600 569
f 566 597 571
f 597 601 571
f 602 598 572
f 569 600 573
f 600 602 573
f 571 601 575
f 572 573 602
f 575 601 603
f 603 576 575
f 576 603 604
f 576 604 579
f 604 605 579
f 568 578 606
f 565 578 568
f 579 605 580
f 605 607 580
f 607 581 580
f 608 609 581
f 608 581 607
f 583 581 609
f 606 578 610
f 585 584 611
f 585 587 555
f 578 586 610
f 587 612 586
f 613 610 612
f 612 610 586
f 614 615 589
f 588 614 589
f 589 615 592
f 589 592 558
f 592 616 560
f 616 595 560
f 560 595 538
f 593 559 594
f 595 617 570
f 618 619 597
f 620 618 599
f 598 620 599
f 621 620 598
f 599 618 567
f 617 622 600
f 570 617 600
f 619 623 597
f 618 597 567
f 622 621 600
f 602 621 598
f 600 621 602
f 623 624 601
f 597 623 601
f 601 624 625
f 625 603 601
f 603 625 626
f 603 626 604
f 627 604 626
f 596 606 628
f 568 606 596
f 627 629 604
f 604 629 605
f 605 629 630
f 605 630 607
f 607 630 608
f 583 609 631
f 583 611 584
f 631 611 583
f 606 610 628
f 585 611 632
f 585 632 633
f 585 633 587
f 613 634 610
f 634 635 610
f 587 633 636
f 636 637 587
f 587 637 612
f 637 613 612
f 638 639 615
f 640 638 615
f 641 640 615
f 641 615 614
f 588 641 614
f 588 642 641
f 590 642 588
f 615 639 592
f 592 639 643
f 644 590 591
f 592 643 616
f 643 645 616
f 591 593 646
f 646 593 647
f 616 645 595
f 645 648 595
f 648 649 617
f 595 648 617
f 617 649 622
f 650 619 618
f 620 650 618
f 649 651 622
f 652 653 623
f 619 652 623
f 651 620 621
f 622 651 621
f 594 596 654
f 653 655 624
f 623 653 624
f 656 624 655
f 657 625 656
f 656 625 624
f 625 657 626
f 658 627 626
f 596 628 654
f 654 628 659
f 609 608 660
f 609 660 661
f 609 661 631
f 631 662 663
f 611 631 663
f 664 611 663
f 611 664 632
f 628 610 635
f 628 635 659
f 633 632 665
f 636 633 665
f 637 634 613
f 637 636 666
f 667 638 640
f 668 667 640
f 669 668 640
f 640 641 669
f 641 642 669
f 590 644 642
f 670 643 639
f 644 591 671
f 643 670 645
f 671 591 646
f 670 672 648
f 648 672 673
f 645 670 648
f 673 674 675
f 648 673 649
f 673 675 649
f 674 676 650
f 674 650 620
f 649 675 674
f 593 594 647
f 651 649 674
f 676 652 650
f 651 674 620
f 650 652 619
f 656 655 677
f 657 678 626
f 678 658 626
f 654 659 679
f 680 627 658
f 627 680 681
f 627 681 629
f 629 681 630
f 630 681 682
f 608 630 682
f 608 682 660
f 660 683 661
f 631 661 662
f 632 664 684
f 632 684 665
f 635 634 685
f 666 636 665
f 637 686 634
f 687 634 686
f 637 666 686
f 688 667 689
f 689 667 690
f 688 691 638
f 667 688 638
f 690 667 668
f 691 639 638
f 668 669 692
f 692 669 693
f 694 639 691
f 693 669 642
f 693 642 644
f 639 694 670
f 670 695 672
f 695 696 672
f 672 696 697
f 672 697 673
f 673 697 674
f 697 698 674
f 674 698 676
f 698 699 676
f 676 699 652
f 700 652 699
f 652 700 653
f 653 700 677
f 653 677 655
f 647 594 701
f 594 654 701
f 656 702 703
f 656 703 657
f 657 703 704
f 657 704 678
f 701 654 679
f 680 705 681
f 683 660 682
f 661 683 706
f 661 706 662
f 663 662 707
f 663 707 664
f 679 659 708
f 659 635 708
f 635 685 708
f 666 665 709
f 685 634 687
f 666 709 710
f 686 666 710
f 687 686 711
f 688 689 712
f 712 689 713
f 713 689 714
f 689 690 714
f 688 715 691
f 668 692 690
f 715 694 691
f 693 644 716
f 694 717 670
f 716 644 671
f 670 717 695
f 717 718 695
f 695 718 696
f 696 718 719
f 719 720 698
f 696 719 697
f 719 698 697
f 720 699 698
f 700 721 677
f 722 647 701
f 677 721 723
f 723 702 677
f 656 677 702
f 703 724 704
f 704 725 678
f 678 725 658
f 725 726 658
f 658 726 680
f 727 705 680
f 728 681 705
f 682 681 728
f 728 729 682
f 682 729 683
f 664 707 730
f 684 664 731
f 664 730 731
f 665 684 732
f 684 731 732
f 708 685 733
f 665 732 709
f 685 687 733
f 710 709 734
f 711 686 710
f 710 734 711
f 735 688 712
f 735 736 715
f 688 735 715
f 737 714 690
f 690 692 737
f 736 738 715
f 715 738 694
f 694 738 717
f 738 739 717
f 717 739 718
f 739 740 719
f 719 718 739
f 719 740 720
f 740 741 720
f 721 699 741
f 720 741 699
f 699 721 700
f 723 742 702
f 702 743 703
f 743 724 703
f 744 725 704
f 727 680 726
f 728 705 727
f 683 729 745
f 683 745 706
f 706 745 746
f 662 706 747
f 662 747 707
f 709 748 734
f 711 749 687
f 735 750 736
f 737 751 714
f 750 752 738
f 750 738 736
f 693 753 692
f 693 716 753
f 738 752 754
f 738 754 739
f 671 646 755
f 739 754 740
f 754 756 740
f 756 741 740
f 756 757 741
f 646 647 758
f 758 647 722
f 741 757 721
f 757 759 721
f 721 759 723
f 723 760 742
f 723 759 760
f 761 702 742
f 722 701 762
f 761 743 702
f 724 744 704
f 725 744 726
f 727 763 728
f 729 728 764
f 729 764 745
f 706 746 747
f 747 765 707
f 707 765 730
f 730 766 731
f 732 731 767
f 732 767 768
f 709 732 768
f 709 768 748
f 687 769 733
f 734 749 711
f 734 770 749
f 749 769 687
f 771 712 772
f 712 713 772
f 735 773 750
f 771 735 712
f 771 773 735
f 714 751 713
f 774 750 773
f 750 774 775
f 692 753 737
f 750 775 752
f 775 776 754
f 752 775 754
f 716 671 755
f 754 776 756
f 756 777 778
f 646 758 755
f 756 778 757
f 779 780 759
f 757 779 759
f 743 781 724
f 781 744 724
f 762 701 782
f 783 726 744
f 726 783 784
f 726 784 727
f 784 763 727
f 763 785 728
f 728 785 764
f 782 701 786
f 701 679 786
f 787 765 747
f 679 708 786
f 766 730 765
f 786 708 788
f 788 708 733
f 731 766 767
f 769 789 733
f 734 748 770
f 713 751 790
f 775 774 791
f 792 776 793
f 793 776 775
f 792 794 777
f 792 777 756
f 776 792 756
f 778 795 757
f 757 796 779
f 796 757 795
f 759 780 797
f 797 760 759
f 760 798 742
f 761 742 798
f 761 781 743
f 781 799 744
f 799 800 744
f 800 783 744
f 801 784 783
f 764 802 745
f 787 747 746
f 788 733 789
f 748 768 803
f 748 803 770
f 770 804 749
f 804 769 749
f 772 805 771
f 713 790 772
f 773 806 807
f 773 771 806
f 808 790 751
f 774 773 807
f 808 751 737
f 774 807 791
f 775 791 793
f 716 755 809
f 810 777 794
f 778 777 810
f 810 795 778
f 811 796 795
f 812 813 758
f 796 780 779
f 814 780 796
f 758 722 812
f 780 814 797
f 812 722 815
f 797 798 760
f 722 762 815
f 761 816 781
f 817 762 782
f 784 818 763
f 818 819 763
f 763 819 785
f 745 802 746
f 802 820 746
f 746 820 787
f 765 787 821
f 765 821 822
f 765 822 766
f 766 822 767
f 767 822 768
f 789 769 804
f 770 803 823
f 824 808 737
f 753 824 737
f 824 753 825
f 826 793 791
f 753 716 809
f 793 826 827
f 792 793 827
f 828 792 827
f 828 794 792
f 829 810 794
f 813 755 758
f 795 810 811
f 830 796 811
f 814 796 830
f 815 831 812
f 797 814 832
f 797 832 798
f 761 798 816
f 815 762 833
f 781 816 834
f 762 817 833
f 781 834 799
f 801 783 800
f 802 764 785
f 787 820 821
f 788 789 835
f 836 768 822
f 803 768 836
f 804 770 823
f 772 790 805
f 805 806 771
f 805 837 806
f 806 837 807
f 791 807 838
f 838 826 791
f 753 809 825
f 828 829 794
f 810 829 839
f 811 810 839
f 839 840 811
f 830 811 841
f 813 812 831
f 814 830 842
f 814 842 832
f 831 815 843
f 844 843 815
f 833 844 815
f 834 845 799
f 845 800 799
f 800 845 846
f 801 800 846
f 784 801 847
f 818 784 847
f 848 785 819
f 785 848 802
f 802 849 850
f 850 820 802
f 851 835 789
f 789 804 851
f 804 823 851
f 790 852 805
f 790 808 853
f 837 854 807
f 837 855 854
f 854 838 807
f 856 824 825
f 857 826 838
f 827 826 857
f 857 858 827
f 858 828 827
f 859 828 858
f 859 829 828
f 829 859 839
f 809 755 860
f 755 813 860
f 861 840 839
f 841 811 840
f 831 862 813
f 841 842 830
f 863 862 831
f 863 831 843
f 864 863 843
f 832 816 798
f 844 864 843
f 834 816 865
f 866 844 833
f 833 817 867
f 868 847 801
f 817 782 867
f 782 786 867
f 786 788 869
f 820 850 821
f 850 870 821
f 788 835 869
f 821 870 836
f 835 851 871
f 821 836 822
f 803 836 872
f 823 803 873
f 851 823 873
f 852 837 805
f 790 853 852
f 852 874 837
f 853 808 824
f 855 838 854
f 858 875 859
f 859 861 839
f 860 813 876
f 840 877 841
f 842 878 832
f 879 880 863
f 863 864 879
f 865 832 878
f 832 865 816
f 864 844 881
f 881 844 866
f 846 868 801
f 882 866 833
f 833 867 882
f 883 818 847
f 819 818 883
f 848 819 883
f 848 884 849
f 867 786 885
f 849 802 848
f 885 786 869
f 849 886 850
f 869 835 871
f 870 872 836
f 803 872 873
f 851 887 871
f 851 873 887
f 874 855 837
f 853 824 888
f 855 889 838
f 838 889 857
f 825 890 856
f 890 825 809
f 858 857 891
f 891 875 858
f 876 813 862
f 862 863 880
f 841 878 842
f 892 880 879
f 864 893 879
f 864 894 893
f 864 881 894
f 834 865 845
f 881 866 894
f 866 895 894
f 845 896 846
f 868 846 896
f 882 897 866
f 898 847 868
f 883 847 898
f 848 883 899
f 848 899 884
f 885 882 867
f 900 882 885
f 886 849 884
f 901 900 885
f 869 901 885
f 870 850 886
f 886 902 870
f 901 871 903
f 869 871 901
f 870 902 872
f 904 903 873
f 871 887 903
f 873 872 904
f 887 873 903
f 852 905 874
f 853 906 852
f 853 888 906
f 856 907 824
f 857 889 891
f 860 890 809
f 859 875 861
f 860 876 908
f 840 861 877
f 909 877 861
f 910 862 880
f 841 877 878
f 892 879 911
f 879 893 911
f 894 912 893
f 894 895 912
f 895 913 912
f 896 914 868
f 898 868 914
f 866 897 895
f 895 897 915
f 916 883 898
f 899 883 916
f 917 899 916
f 900 897 882
f 884 899 917
f 886 884 917
f 901 918 900
f 902 904 872
f 903 918 901
f 918 903 919
f 903 904 919
f 855 874 920
f 888 824 907
f 889 855 921
f 921 922 889
f 922 891 889
f 860 908 890
f 861 875 909
f 862 910 876
f 923 877 909
f 910 880 924
f 924 880 892
f 878 877 925
f 878 925 865
f 926 911 893
f 865 896 845
f 893 912 926
f 912 927 926
f 912 913 927
f 928 916 914
f 916 898 914
f 929 913 915
f 895 915 913
f 930 916 928
f 897 931 915
f 930 917 916
f 897 900 931
f 932 917 930
f 886 917 932
f 931 900 918
f 918 933 931
f 902 886 932
f 902 932 904
f 918 919 933
f 852 906 905
f 888 907 906
f 920 921 855
f 856 934 907
f 934 856 890
f 935 891 922
f 909 875 936
f 876 937 908
f 876 910 937
f 938 910 924
f 923 925 877
f 939 925 923
f 892 940 924
f 892 911 940
f 911 941 940
f 925 942 865
f 941 911 926
f 942 943 865
f 865 943 896
f 926 927 941
f 941 927 944
f 944 945 946
f 947 945 944
f 896 943 914
f 948 914 943
f 927 947 944
f 949 950 951
f 945 951 946
f 949 928 948
f 947 952 945
f 913 947 927
f 928 914 948
f 945 949 951
f 952 953 945
f 929 952 947
f 913 929 947
f 945 953 949
f 949 930 928
f 953 954 949
f 954 930 949
f 952 955 953
f 929 915 956
f 957 953 955
f 954 953 957
f 915 931 956
f 931 958 956
f 959 954 957
f 930 954 932
f 959 932 954
f 933 960 958
f 961 960 933
f 958 931 933
f 904 932 959
f 961 904 959
f 919 904 961
f 933 919 961
f 905 906 962
f 920 874 905
f 907 963 906
f 907 934 963
f 934 890 964
f 908 964 890
f 936 875 935
f 875 891 935
f 937 910 938
f 909 965 923
f 924 940 966
f 942 925 939
f 940 941 967
f 941 968 967
f 969 970 942
f 968 941 971
f 970 948 943
f 942 970 943
f 972 950 970
f 941 944 971
f 970 950 948
f 971 946 973
f 973 951 972
f 971 944 946
f 951 950 972
f 946 951 973
f 949 948 950
f 955 952 974
f 974 952 929
f 929 956 974
f 974 957 955
f 956 975 974
f 974 975 957
f 975 959 957
f 956 960 975
f 958 960 956
f 960 959 975
f 960 961 959
f 906 963 962
f 964 908 976
f 937 976 908
f 937 977 976
f 938 977 937
f 909 936 965
f 965 936 978
f 977 938 924
f 977 924 966
f 939 923 965
f 969 942 979
f 967 968 980
f 980 968 981
f 982 970 969
f 981 971 983
f 968 971 981
f 982 972 970
f 982 983 973
f 973 972 982
f 983 971 973
f 905 962 984
f 963 985 962
f 963 934 985
f 922 921 935
f 964 985 934
f 966 940 986
f 986 940 987
f 967 987 940
f 939 979 942
f 982 969 979
f 988 982 979
f 983 989 981
f 989 983 982
f 920 905 984
f 984 962 990
f 990 962 985
f 921 920 935
f 985 964 991
f 964 976 991
f 935 992 936
f 991 976 993
f 936 992 978
f 993 977 994
f 993 976 977
f 994 977 986
f 965 978 995
f 977 966 986
f 965 995 996
f 965 996 939
f 996 997 939
f 939 997 979
f 987 967 998
f 967 980 998
f 997 988 979
f 998 980 981
f 999 1000 989
f 981 989 1000
f 989 982 988
f 999 989 988
f 990 985 1001
f 985 991 1001
f 920 1002 935
f 984 1002 920
f 935 1002 992
f 1001 991 993
f 996 995 1003
f 986 987 1004
f 1003 997 996
f 1004 987 998
f 1005 988 997
f 1005 1006 1000
f 999 988 1005
f 998 981 1006
f 1000 999 1005
f 981 1000 1006
f 990 1001 1007
f 1002 984 1008
f 990 1008 984
f 1001 1009 1007
f 1007 1008 990
f 992 1002 1010
f 1008 1010 1002
f 1001 993 1009
f 1011 1009 993
f 994 1011 993
f 992 1010 978
f 1010 995 978
f 1012 995 1010
f 994 986 1011
f 1011 986 1004
f 995 1012 1003
f 1013 1003 1012
f 1013 997 1003
f 1014 998 1006
f 1013 1005 997
f 1013 1014 1005
f 1014 1006 1005
f 1010 1008 1015
f 1007 1015 1008
f 1009 1016 1007
f 1007 1016 1015
f 1009 1011 1016
f 1017 1010 1015
f 1017 1012 1010
f 1011 1018 1016
f 1017 1019 1012
f 1011 1004 1018
f 1020 1013 1019
f 1018 1004 1020
f 1019 1013 1012
f 1020 1014 1013
f 1020 998 1014
f 1004 998 1020
f 1017 1015 1021
f 1015 1016 1021
f 1016 1018 1021
f 1021 1019 1017
f 1021 1020 1019
f 1018 1020 1021

