# https://github.com/mikedh/trimesh
v -2407.31450000 -461.43485000 -10.48500000
v -2399.01450000 -400.88485000 -6.70500000
v -2400.06450000 -466.96485000 -41.66500000
v -2397.73450000 -564.10485000 6.59500000
v -2395.14450000 -598.30485000 -33.83500000
v -2393.44450000 -547.67485000 -70.18500000
v -2385.71450000 -455.17485000 36.19500000
v -2380.01450000 -603.65485000 56.70500000
v -2382.03450000 -653.24485000 40.90500000
v -2377.41450000 -686.97485000 12.23500000
v -2381.01450000 -354.82485000 6.93500000
v -2382.32450000 -358.64485000 -29.98500000
v -2364.79450000 -699.11485000 -57.33500000
v -2381.76450000 -612.49485000 -76.41500000
v -2370.99450000 -380.02485000 -91.34500000
v -2377.69450000 -478.11485000 -100.94500000
v -2377.57450000 -556.29485000 -101.96500000
v -2354.84450000 -545.59485000 102.59500000
v -2361.29450000 -417.27485000 78.58500000
v -2353.68450000 -697.24485000 81.46500000
v -2355.65450000 -336.89485000 50.80500000
v -2348.82450000 -767.00485000 47.86500000
v -2351.37450000 -288.68485000 -11.85500000
v -2342.72450000 -781.78485000 -7.57500000
v -2355.56450000 -316.49485000 -76.48500000
v -2341.55450000 -632.24485000 -132.22500000
v -2343.70450000 -324.53485000 -124.82500000
v -2347.73450000 -504.01485000 -148.34500000
v -2322.70450000 -369.37485000 -166.75500000
v -2310.50450000 -537.96485000 -192.67500000
v -2334.94450000 -410.77485000 113.41500000
v -2318.80450000 -661.60485000 154.59500000
v -2310.04450000 -306.99485000 110.59500000
v -2315.06450000 -811.79485000 103.12500000
v -2306.66450000 -859.54485000 41.28500000
v -2315.23450000 -258.75485000 44.29500000
v -2324.06450000 -253.72485000 -82.44500000
v -2319.43450000 -806.60485000 -65.77500000
v -2294.42450000 -873.11485000 -32.87500000
v -2327.26450000 -279.32485000 -119.73500000
v -2295.19450000 -776.59485000 -127.65500000
v -2260.47450000 -629.26485000 -227.46500000
v -2292.01450000 -549.99485000 191.56500000
v -2289.30450000 -770.89485000 164.01500000
v -2277.30450000 -400.73485000 187.51500000
v -2279.30450000 -203.32485000 -49.23500000
v -2269.93450000 -929.21485000 10.15500000
v -2261.35450000 -189.73485000 -130.84500000
v -2292.44450000 -236.81485000 -148.31500000
v -2303.61450000 -284.40485000 -166.23500000
v -2258.37450000 -439.96485000 -248.08500000
v -2255.22450000 -718.81485000 223.18500000
v -2250.45450000 -310.72485000 185.89500000
v -2257.95450000 -867.66485000 165.00500000
v -2277.07450000 -889.89485000 101.93500000
v -2262.80450000 -243.39485000 112.89500000
v -2255.40450000 -942.22485000 67.92500000
v -2246.97450000 -186.70485000 16.33500000
v -2243.24450000 -896.15485000 -113.48500000
v -2226.95450000 -724.96485000 -232.39500000
v -2270.52450000 -236.06485000 -192.67500000
v -2254.79450000 -270.17485000 -229.10500000
v -2222.46450000 -346.97485000 -279.25500000
v -2248.82450000 -475.57485000 239.39500000
v -2224.85450000 -668.48485000 265.80500000
v -2218.12450000 -837.54485000 233.87500000
v -2230.50450000 -940.96485000 140.46500000
v -2198.50450000 -166.81485000 68.08500000
v -2220.45450000 -992.47485000 26.32500000
v -2236.49450000 -956.22485000 -36.43500000
v -2250.88450000 -198.81485000 -178.83500000
v -2229.13450000 -822.93485000 -185.77500000
v -2172.68450000 -540.05485000 -332.13500000
v -2196.65450000 -483.94485000 290.66500000
v -2207.31450000 -568.65485000 280.61500000
v -2212.79450000 -393.51485000 252.25500000
v -2192.77450000 -927.63485000 214.68500000
v -2204.62450000 -259.69485000 194.26500000
v -2192.64450000 -123.27485000 -74.28500000
v -2210.59450000 -140.13485000 -122.51500000
v -2184.28450000 -996.14485000 -93.86500000
v -2225.21450000 -197.46485000 -218.13500000
v -2133.76450000 -638.31485000 -356.94500000
v -2159.72450000 -783.55485000 315.80500000
v -2197.24450000 -319.43485000 236.54500000
v -2165.68450000 -996.93485000 187.37500000
v -2175.64450000 -202.47485000 147.69500000
v -2181.53450000 -1014.04485000 108.66500000
v -2181.31450000 -128.25485000 -13.54500000
v -2177.10450000 -1029.29485000 -19.70500000
v -2195.04450000 -142.52485000 -186.39500000
v -2168.03450000 -896.52485000 -211.40500000
v -2166.68450000 -145.87485000 -247.61500000
v -2156.78450000 -193.49485000 -297.62500000
v -2126.58450000 -398.59485000 -385.28500000
v -2148.28450000 -283.97485000 -340.39500000
v -2140.54450000 -561.76485000 339.39500000
v -2141.62450000 -677.62485000 342.49500000
v -2164.42450000 -356.38485000 277.48500000
v -2136.38450000 -453.03485000 319.54500000
v -2164.42450000 -242.57485000 206.67500000
v -2105.46450000 -130.44485000 90.88500000
v -2131.05450000 -101.98485000 5.41500000
v -2142.69450000 -1061.00485000 47.38500000
v -2148.43450000 -968.13485000 -173.16500000
v -2145.82450000 -798.14485000 -283.91500000
v -2090.33450000 -707.07485000 -378.01500000
v -2139.11450000 -298.60485000 254.96500000
v -2121.11450000 -894.45485000 320.19500000
v -2116.97450000 -969.19485000 275.31500000
v -2117.84450000 -1068.61485000 124.01500000
v -2128.25450000 -1071.23485000 -26.07500000
v -2128.83450000 -1047.43485000 -90.30500000
v -2126.33450000 -69.52485000 -169.41500000
v -2077.26450000 -765.00485000 400.82500000
v -2083.04450000 -836.86485000 381.54500000
v -2077.85450000 -218.31485000 205.91500000
v -2108.24450000 -1018.99485000 237.27500000
v -2120.66450000 -1040.68485000 179.91500000
v -2117.81450000 -64.35485000 -87.18500000
v -2118.77450000 -1022.47485000 -146.88500000
v -2109.71450000 -84.05485000 -251.81500000
v -2062.27450000 -962.25485000 -266.07500000
v -2049.69450000 -873.82485000 -329.90500000
v -2111.11450000 -123.19485000 -299.15500000
v -2074.42450000 -200.16485000 -396.38500000
v -2093.71450000 -498.67485000 -419.70500000
v -2052.41450000 -550.35485000 -465.13500000
v -2096.70450000 -399.58485000 320.47500000
v -2060.02450000 -161.99485000 150.87500000
v -2077.85450000 -1097.29485000 -8.19500000
v -2082.61450000 -46.15485000 -48.58500000
v -2084.18450000 -1079.23485000 -75.94500000
v -2037.37450000 8.14515000 -168.01500000
v -2039.37450000 -1056.53485000 -173.58500000
v -2078.90450000 -134.81485000 -351.96500000
v -2065.14450000 -274.39485000 -431.75500000
v -2079.94450000 -649.62485000 390.69500000
v -2076.01450000 -546.87485000 373.34500000
v -2067.44450000 -478.82485000 357.67500000
v -2067.58450000 -944.66485000 349.72500000
v -2034.76450000 -277.18485000 264.44500000
v -2071.01450000 -1046.59485000 238.42500000
v -2060.92450000 -64.26485000 16.76500000
v -2060.66450000 -1099.58485000 94.26500000
v -2062.20450000 -1007.57485000 -216.41500000
v -2031.65450000 -55.35485000 -341.73500000
v -2033.92450000 -785.48485000 -391.43500000
v -2018.86450000 -631.87485000 -483.11500000
v -2052.48450000 -898.59485000 386.11500000
v -2058.01450000 -1004.91485000 297.26500000
v -2041.56450000 -355.85485000 310.97500000
v -2065.06450000 -1074.31485000 179.21500000
v -1976.18450000 -79.63485000 92.52500000
v -1990.65450000 -1098.62485000 -115.16500000
v -2053.71450000 -12.10485000 -94.43500000
v -2034.42450000 -725.31485000 426.79500000
v -2033.95450000 -828.21485000 418.17500000
v -2031.36450000 -629.80485000 409.06500000
v -2025.93450000 -436.50485000 350.13500000
v -2029.00450000 -957.90485000 364.10500000
v -1947.21450000 -220.70485000 230.66500000
v -1955.35450000 -136.95485000 154.51500000
v -2031.46450000 -73.96485000 56.28500000
v -2002.98450000 -1118.84485000 8.75500000
v -2025.89450000 -12.46485000 -44.21500000
v -2044.83450000 -18.80485000 -245.24500000
v -1929.12450000 -954.48485000 -387.26500000
v -1912.95450000 -840.97485000 -467.11500000
v -2026.40450000 -124.25485000 -411.02500000
v -2029.75450000 -439.37485000 -497.20500000
v -2019.51450000 -535.08485000 383.30500000
v -1963.69450000 -301.67485000 283.84500000
v -2022.30450000 -1057.19485000 254.66500000
v -2020.69450000 -1092.94485000 174.33500000
v -1974.83450000 -20.14485000 12.60500000
v -2000.40450000 24.10515000 -107.28500000
v -1944.73450000 -1018.93485000 -311.31500000
v -2031.81450000 -333.99485000 -482.88500000
v -1952.45450000 -482.54485000 -603.20500000
v -2001.26450000 -712.28485000 433.93500000
v -2005.05450000 -790.27485000 436.65500000
v -2006.35450000 -846.50485000 431.34500000
v -1993.31450000 -638.10485000 412.36500000
v -2007.60450000 -894.82485000 406.83500000
v -1961.80450000 -384.91485000 324.70500000
v -2007.11450000 -1005.36485000 328.72500000
v -1980.53450000 -1040.16485000 295.90500000
v -1989.42450000 -1115.03485000 111.91500000
v -1960.23450000 25.00515000 -54.95500000
v -1923.32450000 68.70515000 -179.44500000
v -1957.71450000 45.26515000 -270.77500000
v -1981.71450000 8.96515000 -323.76500000
v -1964.20450000 -6.07485000 -388.91500000
v -1958.00450000 -71.63485000 -466.62500000
v -1964.53450000 -713.40485000 -497.94500000
v -1992.28450000 -219.47485000 -498.38500000
v -1966.24450000 -352.68485000 -573.49500000
v -1968.37450000 -572.60485000 -563.36500000
v -1985.26450000 -783.39485000 438.62500000
v -1984.94450000 -845.90485000 425.21500000
v -1967.23450000 -558.59485000 384.32500000
v -1987.00450000 -956.09485000 372.32500000
v -1976.18450000 -469.59485000 357.68500000
v -1965.56450000 -1005.60485000 327.59500000
v -1975.58450000 -1082.06485000 213.30500000
v -1945.94450000 -1129.62485000 31.22500000
v -1929.42450000 53.03515000 -101.03500000
v -1868.18450000 -1076.29485000 -280.69500000
v -1974.86450000 -726.13485000 425.04500000
v -1975.09450000 -905.10485000 399.37500000
v -1946.01450000 -886.12485000 388.32500000
v -1959.93450000 -649.64485000 399.43500000
v -1942.05450000 -427.40485000 337.46500000
v -1947.91450000 -1055.19485000 263.96500000
v -1938.98450000 -1111.33485000 129.76500000
v -1903.01450000 31.67515000 -21.78500000
v -1928.76450000 -1121.90485000 -69.97500000
v -1861.91450000 92.98515000 -295.48500000
v -1900.80450000 45.66515000 -393.81500000
v -1897.01450000 3.26515000 -472.91500000
v -1894.61450000 -143.41485000 -606.35500000
v -1906.86450000 -613.52485000 -627.70500000
v -1903.97450000 -541.41485000 -662.40500000
v -1959.02450000 -808.31485000 411.70500000
v -1879.08450000 -553.48485000 318.61500000
v -1944.88450000 -957.21485000 347.06500000
v -1898.85450000 -430.67485000 313.29500000
v -1935.30450000 -1087.61485000 198.86500000
v -1884.23450000 -1.73485000 31.12500000
v -1901.55450000 -1128.80485000 -35.79500000
v -1895.38450000 51.17515000 -59.72500000
v -1846.42450000 85.82515000 -373.24500000
v -1813.95450000 -1009.76485000 -439.77500000
v -1872.49450000 -49.92485000 -570.11500000
v -1846.41450000 -765.77485000 -569.79500000
v -1832.29450000 -685.93485000 -649.59500000
v -1916.66450000 -256.35485000 -621.30500000
v -1882.45450000 -358.96485000 -694.33500000
v -1918.28450000 -719.55485000 361.49500000
v -1907.22450000 -373.56485000 305.27500000
v -1901.42450000 -311.84485000 279.60500000
v -1922.18450000 -1021.40485000 278.48500000
v -1910.23450000 -981.06485000 299.55500000
v -1901.22450000 -253.79485000 250.17500000
v -1921.66450000 -1070.98485000 218.01500000
v -1905.85450000 -1096.03485000 146.26500000
v -1876.11450000 -1122.68485000 -110.86500000
v -1841.82450000 77.67515000 -100.20500000
v -1847.98450000 -1108.40485000 -195.48500000
v -1800.57450000 113.51515000 -243.01500000
v -1824.88450000 -927.81485000 -488.26500000
v -1865.60450000 -239.16485000 -686.86500000
v -1859.95450000 -479.57485000 -734.00500000
v -1897.65450000 -833.04485000 322.66500000
v -1873.54450000 -670.42485000 306.64500000
v -1900.89450000 -920.78485000 302.43500000
v -1853.09450000 -193.29485000 205.99500000
v -1841.85450000 -114.67485000 147.70500000
v -1873.81450000 -56.48485000 92.42500000
v -1892.30450000 -1115.28485000 29.40500000
v -1852.85450000 -1117.37485000 -83.82500000
v -1813.65450000 -1050.31485000 -378.85500000
v -1812.88450000 59.72515000 -506.65500000
v -1807.58450000 13.05515000 -585.80500000
v -1761.64450000 -861.60485000 -577.71500000
v -1848.03450000 -91.45485000 -643.36500000
v -1820.48450000 -151.68485000 -710.69500000
v -1840.41450000 -638.80485000 267.61500000
v -1845.62450000 -733.34485000 261.04500000
v -1780.24450000 -323.45485000 200.72500000
v -1869.59450000 -984.53485000 215.07500000
v -1847.56450000 -251.51485000 233.10500000
v -1892.77450000 -1053.60485000 190.81500000
v -1859.01450000 -1074.75485000 83.88500000
v -1831.53450000 44.58515000 -23.22500000
v -1803.26450000 101.45515000 -166.39500000
v -1766.73450000 122.39515000 -392.59500000
v -1768.17450000 -659.75485000 -739.11500000
v -1763.19450000 -700.17485000 -697.03500000
v -1827.74450000 -552.04485000 -756.95500000
v -1809.78450000 -284.42485000 -773.39500000
v -1808.98450000 -419.11485000 -799.57500000
v -1856.39450000 -323.32485000 257.92500000
v -1799.13450000 -543.16485000 228.94500000
v -1829.67450000 -854.50485000 203.52500000
v -1815.84450000 -153.48485000 171.75500000
v -1863.94450000 -1037.70485000 149.73500000
v -1815.88450000 -6.96485000 47.82500000
v -1829.39450000 -1094.27485000 -34.78500000
v -1812.74450000 -1113.90485000 -167.77500000
v -1734.21450000 138.31515000 -337.50500000
v -1731.37450000 112.60515000 -491.09500000
v -1758.79450000 -752.06485000 -655.49500000
v -1798.59450000 -62.41485000 -676.93500000
v -1798.17450000 -616.54485000 -747.15500000
v -1791.99450000 -501.03485000 -813.45500000
v -1776.10450000 -440.95485000 203.85500000
v -1804.14450000 -185.68485000 182.71500000
v -1834.16450000 -1021.47485000 100.49500000
v -1822.45450000 -54.07485000 93.63500000
v -1813.70450000 -1054.69485000 10.26500000
v -1769.51450000 77.10515000 -67.20500000
v -1793.82450000 -1102.33485000 -134.29500000
v -1741.79450000 -1109.73485000 -256.40500000
v -1764.62450000 -1097.99485000 -295.38500000
v -1756.85450000 -959.68485000 -521.59500000
v -1722.19450000 14.30515000 -685.07500000
v -1752.11450000 -127.62485000 -775.53500000
v -1783.21450000 -210.10485000 -777.37500000
v -1748.96450000 -379.10485000 -866.28500000
v -1742.42450000 -261.35485000 -837.53500000
v -1804.77450000 -247.08485000 201.27500000
v -1768.26450000 -631.25485000 181.19500000
v -1819.06450000 -951.87485000 126.07500000
v -1770.74450000 -115.41485000 126.68500000
v -1777.18450000 -45.22485000 77.18500000
v -1790.27450000 -1003.25485000 21.59500000
v -1745.43450000 104.30515000 -132.12500000
v -1747.18450000 -1107.43485000 -211.15500000
v -1745.80450000 -1080.22485000 -358.51500000
v -1714.41450000 72.93515000 -601.73500000
v -1728.42450000 -558.19485000 -855.54500000
v -1723.16450000 -472.48485000 -886.84500000
v -1716.88450000 -467.65485000 133.69500000
v -1776.67450000 -733.95485000 169.73500000
v -1767.82450000 -899.23485000 66.35500000
v -1754.48450000 33.25515000 -11.10500000
v -1759.12450000 -1059.42485000 -99.36500000
v -1731.93450000 124.74515000 -204.31500000
v -1707.77450000 -1089.50485000 -206.25500000
v -1693.33450000 147.49515000 -277.37500000
v -1742.43450000 -1043.61485000 -433.33500000
v -1742.54450000 -1001.20485000 -492.78500000
v -1710.31450000 -969.25485000 -542.48500000
v -1730.57450000 -50.14485000 -740.29500000
v -1685.71450000 -710.61485000 -749.66500000
v -1668.87450000 -638.52485000 -835.81500000
v -1685.58450000 -354.71485000 -920.57500000
v -1679.90450000 -262.24485000 -894.18500000
v -1754.07450000 -190.36485000 142.38500000
v -1752.05450000 -792.11485000 109.85500000
v -1739.57450000 -64.23485000 77.28500000
v -1723.60450000 -944.14485000 -44.67500000
v -1646.73450000 148.82515000 -233.60500000
v -1710.51450000 -920.26485000 -574.43500000
v -1663.91450000 3.01515000 -751.92500000
v -1672.32450000 -62.33485000 -795.62500000
v -1680.27450000 -168.54485000 -846.66500000
v -1675.80450000 -429.76485000 -936.58500000
v -1719.63450000 -702.50485000 97.74500000
v -1678.46450000 -540.97485000 73.00500000
v -1700.10450000 -86.28485000 52.69500000
v -1720.48450000 -15.27485000 21.47500000
v -1698.46450000 88.18515000 -99.89500000
v -1669.65450000 -1061.51485000 -206.29500000
v -1690.54450000 117.61515000 -165.16500000
v -1635.21450000 164.95515000 -292.48500000
v -1688.88450000 -1002.33485000 -502.80500000
v -1668.16450000 -798.63485000 -681.80500000
v -1619.73450000 72.50515000 -702.13500000
v -1657.40450000 -482.78485000 -949.85500000
v -1691.99450000 -326.64485000 106.27500000
v -1676.16450000 -205.20485000 66.44500000
v -1697.54450000 -804.90485000 4.98500000
v -1681.21450000 44.18515000 -53.08500000
v -1655.25450000 -991.10485000 -169.82500000
v -1677.84450000 -1098.89485000 -274.08500000
v -1634.68450000 169.30515000 -345.73500000
v -1699.38450000 -1094.36485000 -319.15500000
v -1650.86450000 157.81515000 -438.23500000
v -1678.06450000 -1060.23485000 -399.80500000
v -1639.23450000 113.69515000 -608.40500000
v -1674.86450000 -933.31485000 -577.28500000
v -1686.47450000 -877.83485000 -611.22500000
v -1613.88450000 -199.26485000 -906.27500000
v -1646.46450000 -521.40485000 -944.74500000
v -1602.89450000 -290.70485000 -948.56500000
v -1633.81450000 -251.85485000 32.86500000
v -1618.97450000 -354.04485000 13.98500000
v -1651.33450000 11.04515000 -50.70500000
v -1650.38450000 49.27515000 -76.24500000
v -1662.30450000 -876.65485000 -96.79500000
v -1632.96450000 123.56515000 -179.49500000
v -1632.73450000 -1010.76485000 -469.45500000
v -1607.90450000 148.09515000 -553.84500000
v -1621.94450000 -924.79485000 -580.14500000
v -1604.31450000 -7.97485000 -796.21500000
v -1613.95450000 -104.80485000 -854.01500000
v -1617.63450000 -583.68485000 -928.20500000
v -1604.96450000 -395.01485000 -980.53500000
v -1650.51450000 -637.21485000 -0.21500000
v -1625.91450000 75.74515000 -128.15500000
v -1591.96450000 -850.07485000 -182.84500000
v -1641.29450000 -1076.99485000 -267.04500000
v -1626.24450000 -854.83485000 -650.23500000
v -1600.00450000 -746.85485000 -766.42500000
v -1587.20450000 -689.95485000 -839.36500000
v -1574.15450000 -638.69485000 -904.65500000
v -1607.20450000 -480.06485000 -980.73500000
v -1614.64450000 -490.80485000 -15.05500000
v -1600.67450000 -88.91485000 -57.71500000
v -1623.29450000 -729.68485000 -83.99500000
v -1569.86450000 131.34515000 -221.22500000
v -1620.32450000 -1045.04485000 -250.09500000
v -1647.15450000 -1079.82485000 -321.37500000
v -1615.04450000 -1048.70485000 -379.88500000
v -1568.09450000 174.18515000 -505.92500000
v -1547.36450000 -943.77485000 -502.91500000
v -1575.70450000 -778.70485000 -742.22500000
v -1565.71450000 -333.55485000 -983.06500000
v -1585.39450000 -543.47485000 -973.81500000
v -1590.38450000 -214.73485000 -30.02500000
v -1559.30450000 -559.38485000 -119.11500000
v -1591.24450000 149.11515000 -241.04500000
v -1571.81450000 -978.78485000 -266.49500000
v -1524.53450000 -859.27485000 -272.45500000
v -1579.88450000 172.50515000 -311.67500000
v -1577.58450000 177.98515000 -416.53500000
v -1568.57450000 -1009.40485000 -412.20500000
v -1565.51450000 122.69515000 -650.03500000
v -1585.25450000 -856.61485000 -650.72500000
v -1564.90450000 92.10515000 -710.08500000
v -1552.79450000 -811.82485000 -705.10500000
v -1555.96450000 53.99515000 -755.20500000
v -1554.52450000 -1.09485000 -810.62500000
v -1564.05450000 -52.22485000 -846.00500000
v -1563.17450000 -121.33485000 -888.54500000
v -1547.92450000 -198.10485000 -930.87500000
v -1535.56450000 -372.28485000 -1007.51500000
v -1541.24450000 -448.39485000 -1015.08500000
v -1527.98450000 -521.84485000 -1006.22500000
v -1517.41450000 -393.55485000 -134.30500000
v -1506.17450000 -162.26485000 -143.57500000
v -1569.65450000 10.15515000 -146.89500000
v -1539.80450000 83.99515000 -223.10500000
v -1596.23450000 -1043.81485000 -316.41500000
v -1527.48450000 184.76515000 -394.63500000
v -1568.98450000 -1025.78485000 -367.08500000
v -1524.66450000 -996.56485000 -377.32500000
v -1537.03450000 156.80515000 -576.20500000
v -1523.21450000 -865.21485000 -614.62500000
v -1545.30450000 -726.87485000 -817.70500000
v -1530.26450000 -26.89485000 -833.44500000
v -1524.26450000 -82.96485000 -871.56500000
v -1523.13450000 -293.37485000 -979.48500000
v -1520.57450000 -594.24485000 -966.27500000
v -1557.44450000 -694.98485000 -169.70500000
v -1517.43450000 -748.64485000 -244.45500000
v -1544.64450000 162.91515000 -290.66500000
v -1536.88450000 176.67515000 -339.71500000
v -1556.72450000 -1022.15485000 -350.68500000
v -1513.08450000 -969.03485000 -424.40500000
v -1517.97450000 171.03515000 -499.05500000
v -1520.73450000 90.30515000 -703.64500000
v -1518.84450000 54.02515000 -752.40500000
v -1498.16450000 -743.36485000 -810.42500000
v -1522.26450000 12.85515000 -791.47500000
v -1517.59450000 -147.33485000 -911.28500000
v -1486.51450000 -424.21485000 -1033.44500000
v -1474.27450000 -488.20485000 -1030.73500000
v -1511.50450000 -267.89485000 -126.12500000
v -1498.76450000 -74.30485000 -197.84500000
v -1502.08450000 -627.41485000 -228.28500000
v -1485.93450000 21.18515000 -265.62500000
v -1507.36450000 141.52515000 -305.46500000
v -1471.94450000 -790.42485000 -316.03500000
v -1472.01450000 -888.54485000 -345.57500000
v -1513.74450000 -958.71485000 -325.36500000
v -1531.66450000 -986.28485000 -338.55500000
v -1481.65450000 -928.77485000 -477.14500000
v -1464.94450000 -894.71485000 -533.76500000
v -1502.47450000 127.82515000 -629.29500000
v -1477.43450000 -799.07485000 -706.68500000
v -1503.88450000 -671.49485000 -896.32500000
v -1474.65450000 -224.61485000 -951.69500000
v -1478.81450000 -359.09485000 -1016.00500000
v -1423.61450000 -460.39485000 -289.51500000
v -1502.77450000 170.13515000 -372.87500000
v -1481.48450000 -943.86485000 -361.91500000
v -1489.39450000 169.79515000 -450.27500000
v -1491.46450000 148.24515000 -570.29500000
v -1441.35450000 -37.29485000 -783.09500000
v -1473.51450000 -96.59485000 -862.71500000
v -1487.96450000 -148.04485000 -906.81500000
v -1422.85450000 -624.96485000 -972.62500000
v -1438.64450000 -327.24485000 -1000.34500000
v -1449.49450000 -554.14485000 -1007.33500000
v -1439.15450000 -459.84485000 -1040.67500000
v -1417.36450000 -153.20485000 -267.22500000
v -1481.57450000 85.98515000 -306.59500000
v -1440.30450000 -651.67485000 -323.92500000
v -1490.86450000 -963.30485000 -376.64500000
v -1467.92450000 -942.46485000 -424.15500000
v -1459.31450000 154.00515000 -440.92500000
v -1472.63450000 151.21515000 -381.18500000
v -1461.64450000 139.15515000 -522.38500000
v -1455.18450000 62.23515000 -678.23500000
v -1406.72450000 -225.71485000 -931.00500000
v -1431.99450000 -409.39485000 -1031.96500000
v -1441.92450000 -211.94485000 -217.14500000
v -1421.20450000 -298.87485000 -249.39500000
v -1427.26450000 -54.19485000 -314.70500000
v -1442.89450000 92.59515000 -387.45500000
v -1454.31450000 -933.56485000 -399.87500000
v -1465.41450000 111.62515000 -603.55500000
v -1412.54450000 -833.82485000 -615.00500000
v -1389.02450000 -752.36485000 -776.82500000
v -1395.59450000 -681.82485000 -905.00500000
v -1426.26450000 -374.11485000 -1018.94500000
v -1402.54450000 -510.99485000 -1029.58500000
v -1350.86450000 -535.58485000 -418.96500000
v -1443.91450000 29.35515000 -343.42500000
v -1369.06450000 -722.32485000 -428.84500000
v -1438.91450000 -906.34485000 -397.03500000
v -1438.31450000 120.82515000 -435.25500000
v -1421.59450000 -892.09485000 -498.68500000
v -1410.95450000 -14.74485000 -724.46500000
v -1347.75450000 -122.83485000 -776.81500000
v -1356.18450000 -204.36485000 -881.06500000
v -1348.24450000 -631.65485000 -973.50500000
v -1353.05450000 -329.01485000 -977.18500000
v -1374.27450000 -468.11485000 -1030.35500000
v -1386.95450000 -226.92485000 -289.93500000
v -1371.10450000 -112.30485000 -367.46500000
v -1396.55450000 -17.03485000 -401.91500000
v -1388.60450000 -850.33485000 -436.86500000
v -1395.10450000 39.20515000 -476.54500000
v -1413.15450000 -893.03485000 -447.16500000
v -1424.49450000 98.54515000 -507.64500000
v -1387.17450000 -879.15485000 -486.05500000
v -1416.16450000 42.13515000 -625.81500000
v -1301.09450000 -208.25485000 -835.54500000
v -1306.86450000 -701.21485000 -854.29500000
v -1369.06450000 -403.99485000 -1011.84500000
v -1355.05450000 -577.12485000 -1001.56500000
v -1361.98450000 -338.70485000 -342.04500000
v -1386.69450000 17.29515000 -567.94500000
v -1358.78450000 -849.88485000 -524.20500000
v -1326.59450000 -782.02485000 -678.56500000
v -1360.47450000 -70.26485000 -710.04500000
v -1334.73450000 -523.33485000 -1017.46500000
v -1344.77450000 -109.01485000 -422.99500000
v -1322.21450000 -168.07485000 -412.99500000
v -1379.04450000 -868.39485000 -463.55500000
v -1338.76450000 -82.73485000 -495.95500000
v -1320.45450000 -788.66485000 -500.28500000
v -1377.31450000 -868.41485000 -481.30500000
v -1352.06450000 -50.61485000 -583.14500000
v -1332.71450000 -813.80485000 -599.18500000
v -1368.32450000 -34.39485000 -636.29500000
v -1296.46450000 -740.06485000 -755.60500000
v -1298.69450000 -311.49485000 -938.90500000
v -1350.33450000 -192.08485000 -358.07500000
v -1345.85450000 -270.29485000 -360.15500000
v -1326.72450000 -377.93485000 -411.95500000
v -1276.17450000 -535.36485000 -509.12500000
v -1358.08450000 -842.90485000 -487.51500000
v -1331.10450000 -99.66485000 -665.04500000
v -1315.06450000 -139.06485000 -729.73500000
v -1299.48450000 -653.53485000 -937.87500000
v -1252.97450000 -429.34485000 -978.96500000
v -1294.94450000 -613.84485000 -975.02500000
v -1297.22450000 -484.00485000 -1004.27500000
v -1306.35450000 -159.77485000 -471.08500000
v -1296.22450000 -449.28485000 -468.60500000
v -1325.38450000 -817.54485000 -521.40500000
v -1239.45450000 -665.99485000 -566.90500000
v -1319.36450000 -110.26485000 -595.14500000
v -1303.82450000 -804.23485000 -571.34500000
v -1275.22450000 -366.67485000 -961.10500000
v -1255.23450000 -562.34485000 -983.82500000
v -1298.33450000 -249.35485000 -447.74500000
v -1277.76450000 -177.38485000 -571.21500000
v -1276.99450000 -765.61485000 -564.43500000
v -1277.50450000 -777.59485000 -637.40500000
v -1273.27450000 -183.26485000 -678.86500000
v -1253.80450000 -746.68485000 -702.06500000
v -1220.03450000 -696.72485000 -807.13500000
v -1257.02450000 -221.88485000 -774.70500000
v -1239.90450000 -666.11485000 -892.03500000
v -1248.01450000 -302.77485000 -891.86500000
v -1269.36450000 -221.18485000 -520.02500000
v -1255.55450000 -388.91485000 -511.81500000
v -1249.24450000 -758.37485000 -616.66500000
v -1221.92450000 -246.12485000 -658.92500000
v -1227.62450000 -740.00485000 -667.33500000
v -1220.73450000 -290.70485000 -844.58500000
v -1222.34450000 -621.28485000 -938.52500000
v -1234.03450000 -301.17485000 -548.59500000
v -1228.82450000 -261.06485000 -591.71500000
v -1195.98450000 -521.24485000 -591.33500000
v -1226.98450000 -722.59485000 -611.65500000
v -1209.64450000 -263.91485000 -741.02500000
v -1203.86450000 -393.09485000 -928.49500000
v -1173.44450000 -585.81485000 -946.47500000
v -1197.52450000 -513.52485000 -966.73500000
v -1190.79450000 -705.51485000 -661.09500000
v -1178.42450000 -696.31485000 -735.27500000
v -1165.54450000 -332.68485000 -812.78500000
v -1172.41450000 -420.28485000 -616.26500000
v -1184.79450000 -334.09485000 -624.35500000
v -1155.97450000 -601.07485000 -641.99500000
v -1185.04450000 -303.70485000 -667.21500000
v -1203.55450000 -687.76485000 -623.21500000
v -1169.74450000 -655.27485000 -649.02500000
v -1159.73450000 -327.48485000 -734.82500000
v -1144.04450000 -659.35485000 -822.18500000
v -1174.59450000 -646.70485000 -874.56500000
v -1170.59450000 -369.48485000 -874.33500000
v -1138.16450000 -605.73485000 -906.29500000
v -1169.00450000 -556.34485000 -952.56500000
v -1140.16450000 -397.55485000 -671.18500000
v -1131.33450000 -655.15485000 -704.42500000
v -1131.91450000 -663.92485000 -732.05500000
v -1113.99450000 -452.63485000 -891.20500000
v -1157.34450000 -478.05485000 -933.08500000
v -1137.19450000 -533.00485000 -934.17500000
v -1146.66450000 -360.08485000 -696.46500000
v -1128.41450000 -533.29485000 -668.05500000
v -1113.06450000 -396.09485000 -745.02500000
v -1109.86450000 -622.96485000 -854.40500000
v -1115.94450000 -567.30485000 -914.65500000
v -1102.39450000 -476.63485000 -708.15500000
v -1112.72450000 -422.13485000 -717.57500000
v -1114.88450000 -610.07485000 -702.70500000
v -1092.92450000 -633.57485000 -761.08500000
v -1118.23450000 -646.34485000 -788.00500000
v -1098.16450000 -422.33485000 -797.36500000
v -1121.64450000 -412.42485000 -847.82500000
v -1088.24450000 -589.96485000 -875.25500000
v -1101.05450000 -629.93485000 -738.07500000
v -1098.94450000 -517.37485000 -898.29500000
v -1082.63450000 -555.56485000 -736.96500000
v -1086.89450000 -456.60485000 -758.91500000
v -1065.35450000 -516.95485000 -771.57500000
v -1082.79450000 -603.70485000 -760.12500000
v -1064.50450000 -492.75485000 -811.58500000
v -1082.99450000 -605.92485000 -811.62500000
v -1090.28450000 -472.88485000 -851.79500000
v -1078.66450000 -559.79485000 -881.05500000
v -1065.95450000 -568.31485000 -793.05500000
v -1066.75450000 -567.83485000 -842.88500000
v -1072.71450000 -527.85485000 -850.88500000
v -1067.94450000 -534.48485000 -813.55500000
v 1049.57550000 -567.91485000 -807.53500000
v 1053.43550000 -536.39485000 -800.67500000
v 1057.04550000 -532.43485000 -830.37500000
v 1079.34550000 -502.41485000 -759.38500000
v 1066.81550000 -500.48485000 -810.52500000
v 1070.25550000 -565.10485000 -769.44500000
v 1067.74550000 -590.92485000 -789.98500000
v 1068.49550000 -579.08485000 -828.21500000
v 1077.02550000 -488.05485000 -848.20500000
v 1080.81550000 -543.03485000 -870.67500000
v 1121.56550000 -459.72485000 -693.27500000
v 1124.03550000 -573.27485000 -699.13500000
v 1103.48550000 -435.68485000 -746.72500000
v 1091.46550000 -455.52485000 -799.76500000
v 1106.82550000 -616.04485000 -736.98500000
v 1096.61550000 -621.27485000 -772.12500000
v 1112.74550000 -634.44485000 -800.90500000
v 1110.48550000 -490.25485000 -894.95500000
v 1117.56550000 -594.33485000 -881.32500000
v 1139.65550000 -538.37485000 -924.25500000
v 1135.35550000 -385.17485000 -712.35500000
v 1116.43550000 -406.10485000 -774.67500000
v 1136.91550000 -657.31485000 -716.61500000
v 1136.58550000 -661.04485000 -740.49500000
v 1141.52550000 -395.65485000 -839.19500000
v 1167.71550000 -654.71485000 -839.31500000
v 1148.45550000 -399.81485000 -669.92500000
v 1183.65550000 -509.40485000 -623.97500000
v 1166.49550000 -667.48485000 -676.27500000
v 1144.80550000 -364.35485000 -757.18500000
v 1173.18550000 -684.25485000 -751.41500000
v 1173.57550000 -432.66485000 -922.52500000
v 1199.49550000 -578.83485000 -958.91500000
v 1175.40550000 -486.30485000 -944.35500000
v 1169.72550000 -401.48485000 -637.67500000
v 1168.58550000 -353.84485000 -658.86500000
v 1170.52550000 -329.69485000 -694.15500000
v 1190.80550000 -703.53485000 -681.72500000
v 1192.34550000 -305.11485000 -751.42500000
v 1235.78550000 -279.65485000 -819.68500000
v 1201.59550000 -377.85485000 -910.28500000
v 1194.67550000 -621.97485000 -924.31500000
v 1219.23550000 -510.14485000 -974.66500000
v 1205.49550000 -318.09485000 -605.56500000
v 1189.52550000 -317.25485000 -649.21500000
v 1220.97550000 -657.97485000 -609.95500000
v 1194.65550000 -703.30485000 -658.29500000
v 1235.94550000 -661.70485000 -896.19500000
v 1243.89550000 -704.66485000 -791.38500000
v 1261.15550000 -305.21485000 -885.66500000
v 1250.07550000 -387.34485000 -960.14500000
v 1237.79550000 -442.01485000 -969.96500000
v 1226.78550000 -610.51485000 -961.67500000
v 1229.90550000 -409.28485000 -567.58500000
v 1257.93550000 -569.97485000 -555.93500000
v 1233.16550000 -731.62485000 -626.24500000
v 1215.87550000 -278.85485000 -649.35500000
v 1228.69550000 -725.27485000 -708.01500000
v 1247.76550000 -228.44485000 -678.27500000
v 1253.08550000 -237.88485000 -754.54500000
v 1243.17550000 -307.05485000 -538.21500000
v 1246.43550000 -262.81485000 -555.81500000
v 1250.03550000 -750.75485000 -649.04500000
v 1272.18550000 -774.98485000 -600.24500000
v 1261.28550000 -629.82485000 -956.64500000
v 1277.21550000 -532.38485000 -1002.28500000
v 1270.38550000 -591.20485000 -981.70500000
v 1280.11550000 -250.90485000 -473.56500000
v 1276.93550000 -217.10485000 -505.02500000
v 1283.23550000 -352.68485000 -486.11500000
v 1292.13550000 -484.91485000 -502.72500000
v 1286.64550000 -766.89485000 -560.24500000
v 1291.06550000 -687.13485000 -537.12500000
v 1264.18550000 -216.34485000 -573.05500000
v 1280.93550000 -755.00485000 -690.42500000
v 1316.45550000 -222.59485000 -848.78500000
v 1327.39550000 -698.88485000 -861.22500000
v 1308.03550000 -311.51485000 -937.72500000
v 1341.15550000 -329.12485000 -974.85500000
v 1321.14550000 -388.08485000 -994.28500000
v 1316.24550000 -176.04485000 -443.93500000
v 1312.84550000 -142.74485000 -511.68500000
v 1329.80550000 -293.82485000 -397.55500000
v 1273.22550000 -770.86485000 -588.40500000
v 1307.89550000 -801.66485000 -559.80500000
v 1305.67550000 -143.98485000 -617.66500000
v 1289.86550000 -182.32485000 -709.04500000
v 1310.93550000 -181.80485000 -775.23500000
v 1323.55550000 -661.80485000 -933.20500000
v 1297.31550000 -457.89485000 -1001.08500000
v 1337.87550000 -553.60485000 -1014.07500000
v 1336.97550000 -215.05485000 -383.78500000
v 1385.54550000 -329.22485000 -322.87500000
v 1377.25550000 -482.76485000 -380.11500000
v 1331.65550000 -623.17485000 -471.86500000
v 1309.81550000 -798.35485000 -595.01500000
v 1332.76550000 -110.16485000 -681.80500000
v 1365.62550000 -750.30485000 -750.31500000
v 1366.86550000 -137.62485000 -376.36500000
v 1359.33550000 -77.48485000 -451.88500000
v 1368.39550000 -784.77485000 -459.72500000
v 1351.93550000 -49.36485000 -534.28500000
v 1353.59550000 -827.31485000 -506.53500000
v 1351.74550000 -46.68485000 -597.98500000
v 1348.44550000 -832.55485000 -537.56500000
v 1376.42550000 -847.01485000 -549.00500000
v 1379.02550000 -801.12485000 -644.26500000
v 1400.71550000 -84.02485000 -793.10500000
v 1382.86550000 -179.01485000 -872.25500000
v 1395.81550000 -692.24485000 -895.80500000
v 1340.69550000 -614.68485000 -981.73500000
v 1355.48550000 -482.91485000 -1023.64500000
v 1385.37550000 -246.43485000 -306.07500000
v 1391.17550000 -188.09485000 -307.28500000
v 1431.42550000 -375.14485000 -266.71500000
v 1378.78550000 19.82515000 -549.58500000
v 1380.97550000 0.03515000 -624.97500000
v 1384.29550000 -38.91485000 -704.22500000
v 1418.24550000 -650.26485000 -951.86500000
v 1384.69550000 -412.13485000 -1019.42500000
v 1425.95550000 -557.58485000 -1019.13500000
v 1402.56550000 -512.72485000 -1030.67500000
v 1501.89550000 -479.36485000 -189.53500000
v 1405.97550000 -42.01485000 -374.70500000
v 1412.22550000 -700.34485000 -382.14500000
v 1403.80550000 -865.68485000 -449.31500000
v 1400.32550000 38.00515000 -464.56500000
v 1401.29550000 -871.88485000 -487.22500000
v 1456.77550000 -849.17485000 -599.31500000
v 1432.27550000 -225.07485000 -939.33500000
v 1407.61550000 -330.51485000 -991.10500000
v 1429.80550000 -125.53485000 -279.28500000
v 1457.90550000 -204.17485000 -206.45500000
v 1450.33550000 -289.31485000 -220.47500000
v 1420.27550000 -872.27485000 -419.06500000
v 1431.80550000 -897.01485000 -420.00500000
v 1428.77550000 32.36515000 -381.96500000
v 1453.45550000 -919.90485000 -418.01500000
v 1408.22550000 69.69515000 -539.02500000
v 1410.45550000 66.08515000 -590.77500000
v 1418.74550000 62.45515000 -620.26500000
v 1449.07550000 -730.07485000 -821.72500000
v 1437.74550000 -604.32485000 -989.85500000
v 1429.33550000 -457.39485000 -1033.05500000
v 1455.28550000 -502.65485000 -1031.62500000
v 1458.47550000 -29.00485000 -289.73500000
v 1478.27550000 -614.39485000 -266.81500000
v 1500.55550000 -763.10485000 -282.65500000
v 1477.39550000 -866.26485000 -346.13500000
v 1433.53550000 88.56515000 -407.44500000
v 1456.67550000 58.08515000 -337.46500000
v 1444.95550000 122.44515000 -461.24500000
v 1426.98550000 92.90515000 -554.92500000
v 1441.53550000 -879.84485000 -526.19500000
v 1437.89550000 50.23515000 -674.74500000
v 1456.39550000 -38.65485000 -806.04500000
v 1459.61550000 -685.44485000 -897.19500000
v 1548.61550000 -624.60485000 -168.38500000
v 1484.98550000 28.56515000 -273.39500000
v 1491.64550000 77.98515000 -283.60500000
v 1468.32550000 111.32515000 -359.90500000
v 1465.16550000 -914.76485000 -384.42500000
v 1463.35550000 -908.92485000 -475.01500000
v 1453.42550000 118.05515000 -560.92500000
v 1475.69550000 159.74515000 -473.61500000
v 1473.95550000 -799.15485000 -696.12500000
v 1469.91550000 40.30515000 -730.85500000
v 1484.34550000 -77.86485000 -854.85500000
v 1474.57550000 -618.46485000 -976.37500000
v 1460.37550000 -382.69485000 -1016.65500000
v 1530.23550000 -299.34485000 -107.53500000
v 1501.04550000 -372.60485000 -163.99500000
v 1502.12550000 -121.09485000 -177.30500000
v 1497.81550000 127.00515000 -306.10500000
v 1491.22550000 151.61515000 -379.84500000
v 1504.45550000 -960.59485000 -361.63500000
v 1514.42550000 -960.19485000 -415.97500000
v 1491.70550000 161.19515000 -541.83500000
v 1529.18550000 -917.91485000 -528.36500000
v 1482.55550000 110.03515000 -634.99500000
v 1502.29550000 -137.67485000 -906.06500000
v 1515.57550000 -635.26485000 -942.43500000
v 1484.31550000 -286.52485000 -978.88500000
v 1507.78550000 -580.15485000 -990.25500000
v 1552.45550000 -224.49485000 -84.35500000
v 1526.75550000 -1.98485000 -195.79500000
v 1594.29550000 -588.92485000 -79.66500000
v 1530.57550000 92.17515000 -236.27500000
v 1563.61550000 -762.55485000 -202.28500000
v 1537.46550000 177.74515000 -346.80500000
v 1529.22550000 138.22515000 -287.91500000
v 1497.71550000 -934.62485000 -349.21500000
v 1558.32550000 -977.89485000 -296.46500000
v 1507.19550000 173.28515000 -449.36500000
v 1523.45550000 180.62515000 -505.65500000
v 1526.34550000 150.09515000 -603.41500000
v 1532.80550000 -865.68485000 -620.38500000
v 1520.06550000 96.96515000 -695.40500000
v 1506.63550000 22.89515000 -773.66500000
v 1531.76550000 -693.53485000 -858.84500000
v 1500.96550000 -197.47485000 -937.67500000
v 1508.10550000 -456.75485000 -1023.80500000
v 1495.17550000 -521.58485000 -1015.27500000
v 1564.54550000 -440.33485000 -85.00500000
v 1583.94550000 -901.50485000 -233.87500000
v 1561.84550000 -1022.12485000 -339.49500000
v 1582.98550000 -1021.87485000 -396.67500000
v 1537.10550000 184.91515000 -428.21500000
v 1541.53550000 4.19515000 -810.19500000
v 1533.81550000 -69.63485000 -864.08500000
v 1537.42550000 -143.20485000 -910.01500000
v 1529.32550000 -357.66485000 -998.14500000
v 1596.57550000 -127.13485000 -54.60500000
v 1612.36550000 -740.27485000 -115.13500000
v 1603.58550000 23.70515000 -109.09500000
v 1580.83550000 99.85515000 -188.16500000
v 1597.21550000 140.30515000 -228.21500000
v 1595.41550000 170.71515000 -300.45500000
v 1581.90550000 -1032.43485000 -300.72500000
v 1578.90550000 184.42515000 -446.53500000
v 1596.85550000 -987.55485000 -476.64500000
v 1567.00550000 166.81515000 -550.33500000
v 1570.28550000 142.56515000 -630.07500000
v 1557.87550000 118.36515000 -673.10500000
v 1580.79550000 -852.42485000 -658.58500000
v 1560.78550000 65.19515000 -741.63500000
v 1548.06550000 -771.42485000 -751.87500000
v 1537.53550000 -253.93485000 -957.46500000
v 1604.38550000 -51.92485000 -73.71500000
v 1641.41550000 54.02515000 -89.93500000
v 1649.20550000 142.44515000 -211.96500000
v 1598.31550000 -1057.73485000 -303.11500000
v 1623.86550000 -1045.26485000 -262.71500000
v 1573.29550000 179.80515000 -376.08500000
v 1610.54550000 -1073.75485000 -326.51500000
v 1609.14550000 -1051.95485000 -373.58500000
v 1633.50550000 -980.99485000 -521.85500000
v 1578.43550000 32.22515000 -784.50500000
v 1574.96550000 -18.09485000 -824.88500000
v 1581.18550000 -89.65485000 -868.06500000
v 1595.62550000 -193.23485000 -913.45500000
v 1575.22550000 -585.46485000 -962.92500000
v 1588.26550000 -437.88485000 -996.69500000
v 1563.93550000 -521.64485000 -989.37500000
v 1629.57550000 -240.32485000 15.46500000
v 1626.56550000 -389.84485000 10.74500000
v 1642.62550000 -559.35485000 9.41500000
v 1653.31550000 88.58515000 -116.83500000
v 1624.59550000 -859.88485000 -160.68500000
v 1656.17550000 -1078.54485000 -271.20500000
v 1637.53550000 -1039.04485000 -432.98500000
v 1641.99550000 -1012.54485000 -480.09500000
v 1637.97550000 138.09515000 -576.17500000
v 1608.64550000 -923.30485000 -578.25500000
v 1624.31550000 99.45515000 -659.20500000
v 1612.29550000 -822.26485000 -687.38500000
v 1609.45550000 -718.58485000 -792.71500000
v 1631.99550000 -7.64485000 -793.31500000
v 1630.28550000 -635.89485000 -873.45500000
v 1683.77550000 -95.37485000 34.64500000
v 1666.59550000 -720.32485000 -12.94500000
v 1639.71550000 -1006.35485000 -222.94500000
v 1676.36550000 -1095.06485000 -293.14500000
v 1634.34550000 169.33515000 -354.34500000
v 1649.06550000 -1075.06485000 -360.93500000
v 1661.32550000 163.57515000 -413.91500000
v 1646.54550000 156.13515000 -486.93500000
v 1637.22550000 36.66515000 -734.25500000
v 1618.36550000 -769.07485000 -732.13500000
v 1672.01550000 -733.61485000 -736.26500000
v 1630.79550000 -55.55485000 -826.50500000
v 1601.49550000 -321.28485000 -958.20500000
v 1685.65550000 -205.95485000 72.15500000
v 1686.86550000 -329.63485000 84.56500000
v 1716.39550000 -674.75485000 85.36500000
v 1720.95550000 -581.61485000 111.20500000
v 1694.10550000 -865.70485000 -53.71500000
v 1690.48550000 -976.43485000 -141.35500000
v 1702.54550000 99.92515000 -113.27500000
v 1673.77550000 148.62515000 -263.61500000
v 1702.83550000 -1094.49485000 -327.68500000
v 1800.04550000 115.11515000 -375.72500000
v 1659.27550000 -894.21485000 -613.95500000
v 1703.63550000 -678.61485000 -771.79500000
v 1658.71550000 -131.70485000 -854.00500000
v 1641.63550000 -237.09485000 -910.16500000
v 1639.32550000 -561.89485000 -933.25500000
v 1664.76550000 -423.26485000 -947.93500000
v 1645.25550000 -492.42485000 -952.70500000
v 1727.03550000 -441.02485000 128.30500000
v 1687.18550000 0.79515000 -13.88500000
v 1682.06550000 53.14515000 -56.75500000
v 1729.34550000 -818.91485000 39.47500000
v 1710.79550000 63.13515000 -52.32500000
v 1702.97550000 125.88515000 -178.26500000
v 1704.98550000 -1058.00485000 -192.70500000
v 1722.87550000 -1089.70485000 -223.34500000
v 1699.12550000 -1072.19485000 -397.67500000
v 1676.49550000 -1029.44485000 -467.12500000
v 1690.12550000 -985.89485000 -521.61500000
v 1699.77550000 -791.09485000 -666.39500000
v 1693.54550000 -73.17485000 -798.76500000
v 1681.35550000 -300.13485000 -906.16500000
v 1743.78550000 -192.55485000 130.63500000
v 1765.68550000 -980.21485000 -15.18500000
v 1761.32550000 122.82515000 -205.73500000
v 1746.53550000 115.03515000 -477.53500000
v 1758.05550000 83.66515000 -536.80500000
v 1727.40550000 -887.03485000 -592.58500000
v 1748.53550000 27.17515000 -639.66500000
v 1709.05550000 -24.48485000 -740.19500000
v 1699.43550000 -212.39485000 -863.03500000
v 1703.56550000 -582.83485000 -875.01500000
v 1700.38550000 -486.10485000 -919.37500000
v 1708.07550000 -528.70485000 -896.49500000
v 1788.04550000 -373.46485000 191.03500000
v 1793.68550000 -695.29485000 189.37500000
v 1753.95550000 -59.61485000 75.37500000
v 1760.81550000 -148.60485000 126.73500000
v 1767.71550000 -780.10485000 120.87500000
v 1734.10550000 18.47515000 2.03500000
v 1775.84550000 -903.15485000 65.79500000
v 1755.49550000 131.52515000 -298.14500000
v 1768.56550000 -1103.86485000 -225.19500000
v 1773.72550000 -1091.43485000 -310.66500000
v 1734.75550000 -957.39485000 -540.19500000
v 1744.63550000 -715.51485000 -699.81500000
v 1744.03550000 -616.06485000 -805.22500000
v 1738.35550000 -372.55485000 -878.01500000
v 1807.87550000 -556.75485000 217.17500000
v 1751.93550000 46.65515000 -21.30500000
v 1803.71550000 90.65515000 -113.10500000
v 1789.70550000 -1059.94485000 -49.96500000
v 1775.07550000 -1078.67485000 -357.57500000
v 1761.13550000 -1049.19485000 -410.22500000
v 1757.06550000 -919.48485000 -554.42500000
v 1768.94550000 -870.84485000 -572.93500000
v 1747.58550000 -164.67485000 -802.79500000
v 1750.85550000 -277.41485000 -839.35500000
v 1830.71550000 -264.19485000 215.17500000
v 1802.25550000 -148.03485000 151.38500000
v 1810.14550000 -22.44485000 59.91500000
v 1805.41550000 -987.99485000 63.79500000
v 1795.62550000 -1097.61485000 -113.35500000
v 1906.93550000 -1107.25485000 -174.55500000
v 1783.35550000 -1012.34485000 -455.25500000
v 1804.10550000 -808.23485000 -582.56500000
v 1778.58550000 -36.72485000 -687.41500000
v 1766.16550000 -88.58485000 -738.17500000
v 1772.93550000 -558.53485000 -824.50500000
v 1757.96550000 -467.76485000 -859.75500000
v 1877.66550000 -548.56485000 301.65500000
v 1823.84550000 -888.35485000 171.18500000
v 1816.08550000 -108.14485000 132.30500000
v 1836.41550000 -1043.11485000 77.62500000
v 1805.48550000 45.95515000 -29.94500000
v 1860.31550000 92.23515000 -157.18500000
v 1846.99550000 -1121.56485000 -92.31500000
v 1850.77550000 100.94515000 -210.80500000
v 1810.58550000 -948.43485000 -489.92500000
v 1855.12550000 22.55515000 -519.66500000
v 1804.19550000 -879.68485000 -538.37500000
v 1824.98550000 -21.74485000 -614.14500000
v 1803.03550000 -726.31485000 -641.25500000
v 1798.19550000 -651.69485000 -717.34500000
v 1807.91550000 -362.31485000 -801.60500000
v 1887.30550000 -419.16485000 294.11500000
v 1844.89550000 -816.09485000 240.35500000
v 1835.40550000 -974.66485000 143.15500000
v 1854.26550000 -1092.97485000 37.29500000
v 1833.44550000 -1096.67485000 -25.53500000
v 1881.56550000 -1122.80485000 -109.87500000
v 1878.95550000 -1077.16485000 -279.49500000
v 1866.64550000 62.56515000 -417.75500000
v 1843.04550000 -69.24485000 -637.68500000
v 1802.22550000 -251.86485000 -778.56500000
v 1791.75550000 -600.62485000 -771.67500000
v 1875.08550000 -626.45485000 305.75500000
v 1875.96550000 -720.93485000 305.94500000
v 1870.34550000 -260.24485000 246.21500000
v 1896.97550000 -319.37485000 275.28500000
v 1858.27550000 -194.57485000 199.83500000
v 1874.77550000 -936.87485000 246.80500000
v 1874.53550000 -125.33485000 154.75500000
v 1880.62550000 -1029.12485000 186.98500000
v 1922.41550000 -89.12485000 119.70500000
v 1890.19550000 -12.39485000 36.71500000
v 1886.49550000 89.27515000 -253.34500000
v 1884.92550000 -1046.67485000 -335.82500000
v 1884.61550000 -1006.53485000 -386.75500000
v 1844.30550000 -161.96485000 -685.19500000
v 1832.73550000 -456.60485000 -782.17500000
v 1833.62550000 -522.30485000 -767.04500000
v 1917.04550000 -679.18485000 361.10500000
v 1935.97550000 -384.54485000 316.70500000
v 1899.99550000 -860.83485000 321.54500000
v 1894.47550000 -1089.10485000 122.93500000
v 1896.55550000 37.44515000 -42.52500000
v 1867.37550000 -1110.37485000 4.31500000
v 1922.71550000 58.07515000 -105.92500000
v 1908.39550000 -951.10485000 -411.53500000
v 1910.35550000 -828.30485000 -484.20500000
v 1837.16550000 -592.14485000 -724.04500000
v 1944.19550000 -807.13485000 391.66500000
v 1914.92550000 -937.51485000 321.67500000
v 1919.89550000 -1002.09485000 281.86500000
v 1918.01550000 -266.46485000 258.70500000
v 1959.31550000 -214.16485000 223.58500000
v 1923.48550000 -1056.88485000 226.18500000
v 1924.87550000 -1129.83485000 -9.63500000
v 1925.21550000 69.67515000 -171.06500000
v 1913.44550000 68.22515000 -305.36500000
v 1899.66550000 -31.49485000 -528.79500000
v 1881.74550000 -295.66485000 -686.29500000
v 1907.64550000 -567.80485000 -652.67500000
v 1889.86550000 -423.63485000 -696.50500000
v 1963.38550000 -711.42485000 412.52500000
v 1940.41550000 -569.90485000 363.35500000
v 1943.55550000 -900.99485000 371.79500000
v 1949.51550000 -962.53485000 347.45500000
v 1959.20550000 -455.41485000 346.30500000
v 1949.27550000 -1033.67485000 287.50500000
v 1947.77550000 -1097.14485000 182.18500000
v 1928.51550000 -1116.34485000 84.46500000
v 1989.88550000 -78.33485000 88.91500000
v 1954.38550000 -1122.75485000 -68.69500000
v 2012.50550000 -1060.17485000 -209.17500000
v 1996.52550000 -974.78485000 -323.36500000
v 1878.93550000 -679.24485000 -608.00500000
v 1945.26550000 -221.37485000 -577.01500000
v 1884.82550000 -499.83485000 -699.71500000
v 1971.68550000 -884.80485000 407.35500000
v 1976.16550000 -932.13485000 386.92500000
v 1969.90550000 -409.31485000 338.52500000
v 1978.24550000 -361.65485000 316.12500000
v 1958.19550000 -1001.05485000 323.66500000
v 2027.34550000 -292.80485000 275.88500000
v 1965.95550000 -1064.60485000 250.49500000
v 1989.53550000 -166.28485000 181.52500000
v 1967.44550000 -1129.04485000 74.07500000
v 1974.18550000 -22.13485000 15.45500000
v 1993.44550000 -1089.52485000 -160.35500000
v 1970.54550000 -1021.04485000 -296.21500000
v 1992.40550000 -879.94485000 -385.96500000
v 1940.79550000 -2.93485000 -427.60500000
v 1943.29550000 -115.51485000 -528.28500000
v 1956.38550000 -377.97485000 -599.35500000
v 1986.82550000 -637.64485000 413.12500000
v 1994.17550000 -724.96485000 434.88500000
v 1982.21550000 -778.42485000 428.33500000
v 1986.09550000 -838.53485000 424.08500000
v 1993.91550000 -545.19485000 385.87500000
v 1982.82550000 -975.54485000 358.52500000
v 1984.97550000 -1025.87485000 305.23500000
v 2009.90550000 -1092.70485000 193.93500000
v 1971.27550000 -1112.78485000 132.09500000
v 2050.63550000 -150.99485000 155.05500000
v 2009.80550000 -1122.30485000 23.63500000
v 2000.72550000 3.90515000 -52.91500000
v 1984.28550000 40.29515000 -215.87500000
v 1981.42550000 -65.76485000 -437.85500000
v 1947.85550000 -296.51485000 -594.80500000
v 1955.11550000 -485.66485000 -602.03500000
v 1983.37550000 -619.05485000 -532.45500000
v 2005.00550000 -783.49485000 436.52500000
v 2020.41550000 -613.34485000 411.76500000
v 2013.96550000 -668.87485000 425.18500000
v 1995.77550000 -898.31485000 411.22500000
v 1999.17550000 -942.10485000 387.36500000
v 2006.70550000 -461.22485000 359.82500000
v 1997.25550000 -1059.36485000 257.66500000
v 2004.18550000 -1115.17485000 104.70500000
v 2057.32550000 -79.52485000 55.53500000
v 1997.21550000 25.48515000 -130.97500000
v 2008.55550000 -5.82485000 -300.52500000
v 1959.24550000 -719.83485000 -505.20500000
v 2015.89550000 -719.05485000 433.38500000
v 2017.81550000 -843.98485000 426.33500000
v 2029.77550000 -550.68485000 389.67500000
v 2019.22550000 -914.55485000 401.69500000
v 2015.67550000 -978.29485000 351.61500000
v 2039.32550000 -417.33485000 344.46500000
v 2053.52550000 -361.63485000 314.48500000
v 2038.13550000 -1036.52485000 268.95500000
v 2106.72550000 -136.22485000 114.39500000
v 2041.77550000 -41.83485000 0.86500000
v 2012.74550000 -1107.16485000 -72.43500000
v 2017.38550000 -761.65485000 -429.84500000
v 2027.77550000 -196.35485000 -460.40500000
v 2002.67550000 -291.54485000 -522.02500000
v 2049.18550000 -535.23485000 -477.00500000
v 2023.86550000 -756.50485000 431.70500000
v 2028.78550000 -698.11485000 425.47500000
v 2051.51550000 -876.63485000 403.67500000
v 2057.39550000 -1102.29485000 102.24500000
v 2096.94550000 -57.19485000 -33.26500000
v 2074.81550000 -26.15485000 -203.33500000
v 2063.31550000 -1008.41485000 -229.24500000
v 2024.78550000 -58.15485000 -361.48500000
v 2085.07550000 -860.77485000 -319.62500000
v 2058.46550000 -126.53485000 -384.00500000
v 2047.94550000 -387.13485000 -481.11500000
v 2057.33550000 -765.65485000 408.20500000
v 2081.52550000 -617.24485000 381.49500000
v 2075.07550000 -497.16485000 359.33500000
v 2052.69550000 -936.29485000 369.35500000
v 2058.86550000 -982.42485000 323.35500000
v 2097.14550000 -1059.94485000 174.18500000
v 2069.36550000 -25.88485000 -88.32500000
v 2068.30550000 -650.03485000 -429.27500000
v 2114.88550000 -283.19485000 -395.26500000
v 2119.96550000 -815.41485000 355.96500000
v 2118.78550000 -899.74485000 330.65500000
v 2096.87550000 -960.73485000 312.26500000
v 2101.98550000 -408.78485000 324.66500000
v 2090.04550000 -237.93485000 223.91500000
v 2128.76550000 -97.25485000 24.14500000
v 2080.40550000 -1097.71485000 12.26500000
v 2069.18550000 -1078.92485000 -92.93500000
v 2078.94550000 -29.33485000 -142.58500000
v 2127.23550000 -77.73485000 -216.14500000
v 2115.66550000 -933.95485000 -246.85500000
v 2124.45550000 -203.12485000 -356.86500000
v 2128.61550000 -734.75485000 -338.84500000
v 2127.48550000 -565.89485000 -386.98500000
v 2132.84550000 -535.71485000 342.63500000
v 2144.85550000 -704.60485000 342.19500000
v 2163.94550000 -460.51485000 308.77500000
v 2100.00550000 -335.25485000 287.78500000
v 2102.70550000 -1003.77485000 254.97500000
v 2153.71550000 -193.87485000 161.96500000
v 2124.66550000 -1074.25485000 77.67500000
v 2112.54550000 -1037.28485000 -133.94500000
v 2115.03550000 -102.84485000 -279.74500000
v 2157.19550000 -879.55485000 -248.19500000
v 2168.53550000 -378.99485000 -359.05500000
v 2150.26550000 -376.97485000 292.70500000
v 2154.00550000 -955.90485000 251.96500000
v 2150.57550000 -131.35485000 74.53500000
v 2169.55550000 -97.99485000 -137.95500000
v 2151.20550000 -982.04485000 -166.17500000
v 2214.33550000 -789.75485000 -230.45500000
v 2170.43550000 -174.19485000 -282.53500000
v 2157.29550000 -632.33485000 -342.34500000
v 2146.85550000 -472.28485000 -379.22500000
v 2185.12550000 -755.39485000 306.87500000
v 2181.01550000 -818.49485000 295.73500000
v 2163.84550000 -309.64485000 253.63500000
v 2175.25550000 -998.96485000 169.83500000
v 2158.57550000 -1043.06485000 109.63500000
v 2199.72550000 -175.74485000 107.10500000
v 2179.70550000 -1046.09485000 47.99500000
v 2138.53550000 -1056.73485000 -23.95500000
v 2190.14550000 -120.02485000 -10.65500000
v 2150.66550000 -85.75485000 -72.21500000
v 2211.50550000 -249.54485000 -282.96500000
v 2211.48550000 -592.78485000 282.47500000
v 2219.56550000 -862.31485000 231.71500000
v 2187.74550000 -258.26485000 205.64500000
v 2224.98550000 -162.40485000 43.68500000
v 2179.72550000 -1012.85485000 -79.24500000
v 2197.42550000 -910.86485000 -176.55500000
v 2211.96550000 -561.86485000 -302.72500000
v 2203.27550000 -695.78485000 291.83500000
v 2209.03550000 -369.08485000 255.02500000
v 2203.45550000 -307.68485000 230.15500000
v 2218.88550000 -927.20485000 186.69500000
v 2205.14550000 -1016.50485000 -2.72500000
v 2219.74550000 -162.84485000 -179.55500000
v 2211.42550000 -668.00485000 -275.63500000
v 2250.72550000 -345.07485000 -269.51500000
v 2253.56550000 -450.40485000 231.44500000
v 2246.21550000 -305.86485000 195.42500000
v 2229.78550000 -236.00485000 148.95500000
v 2213.99550000 -1000.11485000 76.48500000
v 2206.66550000 -966.96485000 -110.98500000
v 2239.15550000 -467.46485000 -283.28500000
v 2243.21550000 -736.64485000 242.00500000
v 2245.97550000 -939.53485000 126.75500000
v 2272.70550000 -220.35485000 84.43500000
v 2255.32550000 -967.87485000 19.57500000
v 2241.99550000 -160.60485000 -56.54500000
v 2231.24550000 -974.41485000 -48.24500000
v 2249.19550000 -921.01485000 -98.70500000
v 2235.68550000 -216.47485000 -230.91500000
v 2291.95550000 -605.99485000 -203.24500000
v 2269.56550000 -262.41485000 -224.92500000
v 2264.97550000 -290.04485000 -238.48500000
v 2269.12550000 -364.05485000 198.65500000
v 2283.31550000 -645.42485000 210.74500000
v 2269.49550000 -875.18485000 155.08500000
v 2281.93550000 -802.73485000 177.49500000
v 2263.49550000 -944.63485000 71.14500000
v 2306.41550000 -226.86485000 -99.59500000
v 2248.26550000 -856.84485000 -154.25500000
v 2278.50550000 -771.56485000 -161.62500000
v 2302.52550000 -325.20485000 151.21500000
v 2314.35550000 -554.23485000 168.36500000
v 2293.12550000 -278.56485000 120.61500000
v 2294.41550000 -884.61485000 92.10500000
v 2299.28550000 -214.28485000 12.86500000
v 2295.52550000 -905.04485000 35.16500000
v 2283.82550000 -909.80485000 -30.62500000
v 2295.48550000 -835.09485000 -98.05500000
v 2283.99550000 -242.77485000 -172.31500000
v 2280.95550000 -457.32485000 -235.78500000
v 2322.66550000 -393.40485000 136.77500000
v 2315.42550000 -707.19485000 156.11500000
v 2323.45550000 -859.37485000 4.70500000
v 2330.61550000 -825.12485000 -41.39500000
v 2317.61550000 -227.95485000 -35.94500000
v 2319.46550000 -734.95485000 -126.90500000
v 2302.26550000 -310.56485000 -192.94500000
v 2330.46550000 -315.14485000 99.06500000
v 2312.49550000 -807.09485000 121.89500000
v 2322.74550000 -265.52485000 56.49500000
v 2340.19550000 -810.33485000 49.96500000
v 2341.14550000 -761.62485000 -83.60500000
v 2336.57550000 -290.08485000 -117.60500000
v 2350.86550000 -341.98485000 -133.38500000
v 2322.00550000 -425.71485000 -180.50500000
v 2372.95550000 -485.41485000 75.09500000
v 2348.36550000 -738.20485000 93.29500000
v 2340.31550000 -261.45485000 5.56500000
v 2350.53550000 -798.02485000 -10.46500000
v 2353.54550000 -285.68485000 -41.37500000
v 2372.13550000 -733.55485000 -43.01500000
v 2362.36550000 -653.97485000 -101.66500000
v 2354.73550000 -522.82485000 -136.38500000
v 2359.38550000 -632.56485000 93.37500000
v 2381.51550000 -692.68485000 35.31500000
v 2356.72550000 -346.28485000 42.25500000
v 2370.18550000 -743.35485000 4.98500000
v 2373.26550000 -342.19485000 -78.12500000
v 2370.25550000 -426.63485000 -110.31500000
v 2395.71550000 -555.26485000 25.67500000
v 2389.81550000 -436.49485000 22.00500000
v 2400.93550000 -628.95485000 7.46500000
v 2382.85550000 -372.97485000 -23.92500000
v 2391.62550000 -671.52485000 -14.21500000
v 2389.98550000 -423.19485000 -64.94500000
v 2390.69550000 -637.51485000 -56.28500000
v 2386.00550000 -525.36485000 -74.89500000
v 2393.41550000 -481.00485000 -24.47500000
v 2392.62550000 -585.04485000 -21.34500000
f 1 2 3
f 4 1 3
f 4 3 5
f 5 3 6
f 4 7 1
f 8 7 4
f 9 8 4
f 10 9 4
f 11 12 2
f 7 11 2
f 1 7 2
f 10 4 5
f 13 10 5
f 2 12 3
f 13 5 14
f 3 12 15
f 6 14 5
f 6 3 16
f 16 3 15
f 17 6 16
f 14 6 17
f 18 19 7
f 20 18 8
f 8 18 7
f 9 20 8
f 19 21 7
f 7 21 11
f 10 20 9
f 22 20 10
f 21 23 11
f 12 11 23
f 22 10 24
f 24 10 13
f 12 23 25
f 12 25 15
f 14 26 13
f 25 27 15
f 16 28 17
f 17 26 14
f 27 29 15
f 16 15 29
f 26 17 28
f 26 28 30
f 18 31 19
f 20 32 18
f 31 33 21
f 31 21 19
f 22 34 20
f 35 34 22
f 33 36 21
f 23 21 36
f 22 24 35
f 23 37 25
f 38 39 24
f 13 38 24
f 37 40 25
f 13 41 38
f 25 40 27
f 26 41 13
f 29 28 16
f 26 30 42
f 43 31 18
f 32 43 18
f 20 44 32
f 20 34 44
f 45 33 31
f 46 23 36
f 39 47 35
f 23 46 37
f 35 24 39
f 48 37 46
f 37 48 49
f 37 49 40
f 49 50 40
f 40 50 27
f 50 29 27
f 29 51 28
f 51 30 28
f 31 43 45
f 32 52 43
f 44 52 32
f 33 45 53
f 34 54 44
f 55 54 34
f 35 55 34
f 33 56 36
f 55 35 57
f 56 58 36
f 46 36 58
f 39 38 59
f 41 59 38
f 26 60 41
f 49 61 50
f 42 60 26
f 62 50 61
f 63 51 29
f 29 50 62
f 64 45 43
f 52 65 43
f 52 44 66
f 53 56 33
f 67 54 55
f 57 67 55
f 68 58 56
f 47 57 35
f 47 69 57
f 70 47 39
f 59 70 39
f 48 71 49
f 59 41 72
f 49 71 61
f 62 63 29
f 51 73 30
f 30 73 42
f 74 64 75
f 43 75 64
f 65 75 43
f 76 53 45
f 64 76 45
f 66 54 77
f 44 54 66
f 53 78 56
f 69 47 70
f 46 58 79
f 80 46 79
f 46 80 48
f 59 81 70
f 41 60 72
f 71 82 61
f 62 61 82
f 73 83 42
f 60 42 83
f 65 52 84
f 53 85 78
f 85 53 76
f 54 67 77
f 77 67 86
f 78 87 56
f 87 68 56
f 57 88 67
f 69 88 57
f 58 68 89
f 58 89 79
f 69 70 90
f 81 90 70
f 91 48 80
f 59 72 92
f 71 48 91
f 82 91 93
f 71 91 82
f 82 94 62
f 63 95 51
f 96 95 63
f 95 73 51
f 63 62 96
f 74 75 97
f 97 75 98
f 99 76 100
f 100 76 74
f 98 75 65
f 98 65 84
f 85 76 99
f 74 76 64
f 66 84 52
f 78 101 87
f 88 86 67
f 102 68 87
f 103 68 102
f 68 103 89
f 104 88 69
f 81 59 105
f 59 92 105
f 72 60 106
f 72 106 92
f 82 93 94
f 83 107 60
f 96 62 94
f 100 74 97
f 78 108 101
f 108 78 85
f 66 77 109
f 86 110 77
f 104 111 88
f 104 69 90
f 112 104 90
f 113 90 81
f 80 79 114
f 106 60 107
f 84 115 98
f 109 116 84
f 109 84 66
f 99 108 85
f 110 109 77
f 101 117 87
f 110 86 118
f 86 119 118
f 86 88 119
f 88 111 119
f 112 90 113
f 120 79 89
f 114 79 120
f 121 81 105
f 80 114 91
f 91 122 93
f 105 92 123
f 106 124 92
f 92 124 123
f 93 122 125
f 93 125 94
f 96 94 126
f 95 127 73
f 128 73 127
f 83 73 128
f 116 115 84
f 100 129 99
f 129 108 99
f 108 117 101
f 130 87 117
f 102 87 130
f 112 131 104
f 120 103 132
f 89 103 120
f 113 133 112
f 81 121 113
f 134 114 120
f 135 113 121
f 91 114 122
f 94 125 136
f 126 94 136
f 95 96 137
f 97 98 138
f 138 98 115
f 97 139 100
f 129 100 140
f 109 110 141
f 108 142 117
f 143 118 119
f 144 103 102
f 111 104 145
f 103 144 132
f 112 133 131
f 113 135 133
f 121 105 146
f 125 122 147
f 124 106 148
f 96 126 137
f 128 149 83
f 107 83 149
f 139 140 100
f 150 116 109
f 109 141 150
f 141 110 151
f 152 108 129
f 142 108 152
f 153 143 119
f 119 111 153
f 153 111 145
f 130 154 102
f 145 104 131
f 131 133 155
f 120 132 156
f 134 120 156
f 121 146 135
f 105 123 146
f 136 125 147
f 107 148 106
f 138 115 157
f 115 116 158
f 139 97 138
f 139 138 159
f 129 140 160
f 161 141 151
f 152 129 160
f 110 118 151
f 118 143 151
f 162 117 142
f 117 163 130
f 144 102 164
f 164 102 154
f 145 131 165
f 166 132 144
f 156 132 166
f 167 114 134
f 114 167 122
f 147 122 167
f 124 168 123
f 124 148 169
f 126 136 170
f 95 171 127
f 159 138 157
f 158 157 115
f 116 150 158
f 139 159 172
f 139 172 140
f 140 172 160
f 150 141 161
f 152 173 142
f 174 151 143
f 117 162 163
f 174 143 153
f 174 153 175
f 154 130 163
f 175 153 145
f 164 176 144
f 131 155 165
f 166 177 156
f 156 177 134
f 155 133 135
f 146 123 178
f 178 123 168
f 136 147 170
f 137 179 95
f 179 171 95
f 128 127 171
f 128 171 180
f 181 157 182
f 158 182 157
f 158 183 182
f 159 181 184
f 157 181 159
f 158 185 183
f 185 158 150
f 159 184 172
f 161 185 150
f 152 160 186
f 161 151 187
f 152 186 173
f 187 151 174
f 187 174 188
f 175 145 189
f 189 145 165
f 166 176 190
f 166 144 176
f 166 190 177
f 191 134 177
f 192 134 191
f 192 167 134
f 167 192 193
f 178 135 146
f 147 167 193
f 147 193 194
f 194 195 147
f 124 169 168
f 147 195 170
f 107 196 148
f 170 197 126
f 126 197 137
f 197 179 137
f 196 107 149
f 179 198 171
f 149 128 199
f 182 200 181
f 182 201 200
f 183 201 182
f 183 185 201
f 184 202 172
f 185 161 203
f 160 172 204
f 160 204 186
f 203 161 187
f 205 203 187
f 188 174 206
f 174 175 206
f 164 154 176
f 189 165 207
f 177 190 208
f 208 191 177
f 135 209 155
f 135 178 209
f 148 196 169
f 197 170 195
f 198 180 171
f 180 199 128
f 181 210 184
f 200 210 181
f 185 211 201
f 201 211 212
f 184 213 202
f 185 203 211
f 172 202 204
f 204 214 186
f 205 187 188
f 215 205 188
f 162 142 173
f 175 189 206
f 206 189 216
f 216 189 207
f 190 176 217
f 207 165 218
f 165 155 218
f 219 192 191
f 220 193 192
f 193 220 194
f 194 221 195
f 195 222 197
f 199 223 149
f 149 223 196
f 197 198 179
f 223 199 224
f 210 200 225
f 200 201 225
f 184 210 213
f 201 212 225
f 213 226 202
f 203 227 211
f 203 205 227
f 204 228 214
f 188 206 215
f 229 215 206
f 176 154 230
f 207 218 231
f 208 190 232
f 233 192 219
f 192 233 220
f 178 168 234
f 195 221 235
f 169 196 236
f 195 235 222
f 223 237 196
f 197 238 198
f 180 224 199
f 239 198 238
f 180 198 239
f 213 210 240
f 210 225 240
f 204 202 228
f 228 202 226
f 240 226 213
f 227 212 211
f 214 241 186
f 186 241 242
f 243 244 227
f 205 243 227
f 205 215 243
f 186 242 173
f 173 242 245
f 245 162 173
f 246 215 229
f 247 246 229
f 206 216 229
f 229 216 247
f 176 230 217
f 190 217 232
f 231 218 248
f 232 249 208
f 249 191 208
f 218 155 250
f 219 191 251
f 168 252 234
f 194 220 221
f 196 237 236
f 222 238 197
f 222 253 238
f 254 224 180
f 238 253 239
f 239 254 180
f 240 225 255
f 255 225 212
f 226 240 256
f 257 255 212
f 212 227 257
f 214 228 241
f 244 257 227
f 215 246 243
f 162 245 258
f 259 163 162
f 154 163 260
f 261 247 216
f 260 230 154
f 261 216 207
f 207 231 261
f 231 248 262
f 248 218 250
f 155 209 250
f 209 178 263
f 220 264 221
f 221 264 265
f 169 236 266
f 235 221 265
f 267 222 235
f 268 222 267
f 268 253 222
f 226 256 269
f 270 256 240
f 270 240 255
f 226 271 228
f 272 257 244
f 245 273 258
f 245 242 273
f 272 244 243
f 246 274 243
f 243 274 272
f 259 162 258
f 247 274 246
f 260 163 259
f 247 275 274
f 217 230 276
f 261 231 262
f 217 276 232
f 249 277 191
f 233 219 278
f 178 234 263
f 237 279 280
f 223 224 281
f 254 281 224
f 253 282 239
f 254 239 283
f 241 228 284
f 284 228 271
f 284 242 241
f 269 285 226
f 286 270 255
f 257 286 255
f 284 273 242
f 272 286 257
f 287 259 258
f 288 272 274
f 247 261 275
f 289 230 260
f 290 261 262
f 276 249 232
f 262 248 291
f 248 250 291
f 277 251 191
f 251 292 219
f 278 219 292
f 220 293 264
f 168 169 252
f 266 236 294
f 265 295 235
f 235 295 267
f 237 280 294
f 237 294 236
f 268 267 295
f 237 223 296
f 282 253 268
f 223 281 296
f 282 283 239
f 254 297 281
f 297 254 283
f 269 256 270
f 298 271 226
f 285 298 226
f 273 299 258
f 258 299 287
f 300 272 288
f 274 275 288
f 301 260 259
f 288 275 300
f 289 260 301
f 275 302 300
f 275 261 290
f 276 303 249
f 290 262 304
f 262 291 304
f 250 305 291
f 209 306 250
f 220 233 293
f 234 252 307
f 295 265 308
f 295 309 268
f 237 296 279
f 310 268 309
f 282 268 310
f 282 311 283
f 311 282 312
f 313 273 284
f 313 299 273
f 270 314 269
f 286 272 315
f 259 287 316
f 317 301 259
f 300 315 272
f 300 302 318
f 276 230 289
f 275 290 302
f 249 303 319
f 277 249 319
f 304 291 320
f 320 291 305
f 305 250 306
f 209 263 321
f 306 209 321
f 233 278 293
f 264 293 322
f 322 265 264
f 266 252 169
f 307 252 266
f 281 297 323
f 281 323 296
f 283 324 297
f 313 284 271
f 285 269 314
f 285 325 298
f 314 270 326
f 270 286 326
f 299 316 287
f 316 317 259
f 286 315 327
f 317 289 301
f 327 315 318
f 300 318 315
f 276 328 303
f 328 276 289
f 302 290 329
f 319 330 277
f 331 304 320
f 277 330 251
f 330 332 251
f 251 332 292
f 321 263 333
f 234 333 263
f 333 234 334
f 234 307 334
f 334 307 335
f 265 322 308
f 295 308 336
f 279 337 280
f 295 336 309
f 296 338 279
f 312 310 309
f 282 310 312
f 339 312 340
f 311 312 339
f 311 324 283
f 297 324 323
f 285 314 325
f 341 316 299
f 313 341 299
f 271 341 313
f 326 286 342
f 316 343 317
f 327 342 286
f 328 289 317
f 302 329 318
f 344 318 329
f 329 290 304
f 329 304 331
f 345 332 330
f 346 307 266
f 280 337 294
f 308 347 336
f 279 338 337
f 309 336 348
f 312 309 349
f 296 323 338
f 340 312 349
f 311 350 324
f 339 350 311
f 314 326 351
f 314 352 325
f 351 326 342
f 353 343 316
f 341 353 316
f 343 354 317
f 317 354 328
f 327 318 344
f 355 303 328
f 303 355 319
f 329 331 356
f 319 357 330
f 345 358 332
f 359 333 334
f 335 307 346
f 294 360 266
f 308 361 347
f 336 347 348
f 349 309 348
f 350 362 324
f 271 298 363
f 298 325 363
f 341 271 364
f 364 271 363
f 351 352 314
f 353 354 343
f 342 327 365
f 328 354 366
f 327 344 365
f 328 366 355
f 319 355 357
f 344 329 367
f 329 356 367
f 368 331 320
f 368 320 305
f 369 292 332
f 305 306 370
f 369 371 292
f 371 278 292
f 321 333 372
f 278 371 293
f 373 322 293
f 359 334 335
f 374 335 346
f 375 346 266
f 322 361 308
f 266 360 375
f 340 349 376
f 323 324 377
f 339 340 378
f 377 324 362
f 363 379 364
f 325 380 363
f 352 380 325
f 342 365 351
f 354 353 381
f 366 354 381
f 381 382 366
f 365 344 383
f 355 384 357
f 332 358 369
f 368 305 370
f 306 321 370
f 370 321 372
f 333 359 372
f 372 359 385
f 371 386 293
f 373 293 386
f 359 335 374
f 387 359 374
f 374 346 375
f 294 337 360
f 347 388 348
f 348 389 349
f 338 323 390
f 340 376 378
f 339 378 391
f 339 391 350
f 353 341 364
f 380 379 363
f 392 352 351
f 351 365 392
f 366 393 355
f 366 382 393
f 355 393 384
f 344 367 383
f 383 367 394
f 330 357 345
f 356 331 395
f 395 331 368
f 359 387 385
f 361 322 373
f 374 375 396
f 396 375 360
f 397 360 337
f 337 338 398
f 376 349 389
f 399 398 338
f 338 390 399
f 323 377 390
f 350 400 362
f 362 400 377
f 400 350 391
f 401 380 352
f 353 364 402
f 353 402 381
f 365 403 392
f 365 383 403
f 393 404 384
f 384 345 357
f 356 405 367
f 356 395 405
f 406 395 368
f 370 406 368
f 406 370 372
f 407 372 385
f 371 408 386
f 387 409 385
f 387 374 396
f 360 410 396
f 410 360 397
f 347 361 388
f 337 398 397
f 388 389 348
f 378 411 391
f 412 377 400
f 402 364 413
f 401 352 392
f 392 414 401
f 403 414 392
f 382 381 393
f 403 383 394
f 384 404 415
f 384 415 345
f 416 417 394
f 367 416 394
f 405 416 367
f 415 418 345
f 345 418 358
f 369 358 418
f 369 418 419
f 407 406 372
f 369 419 371
f 407 385 420
f 386 421 373
f 387 396 422
f 373 421 361
f 421 423 361
f 424 396 410
f 425 361 423
f 361 425 388
f 388 426 427
f 389 388 427
f 389 428 376
f 376 428 429
f 378 376 429
f 390 377 412
f 391 411 430
f 400 391 431
f 391 430 431
f 412 400 432
f 379 413 364
f 413 379 380
f 380 401 433
f 402 413 434
f 381 402 435
f 381 435 393
f 404 393 436
f 435 436 393
f 395 437 405
f 395 406 437
f 418 438 419
f 407 439 437
f 437 406 407
f 420 440 439
f 439 407 420
f 419 408 371
f 409 420 385
f 408 441 386
f 386 441 421
f 387 442 409
f 422 442 387
f 396 424 422
f 410 397 443
f 426 444 427
f 445 427 444
f 389 427 428
f 378 429 446
f 411 378 446
f 399 390 447
f 431 432 400
f 414 403 448
f 448 403 394
f 417 449 394
f 418 415 450
f 450 415 404
f 450 451 418
f 437 416 405
f 418 451 438
f 439 452 437
f 439 440 452
f 420 409 453
f 419 454 408
f 408 454 441
f 424 442 422
f 421 455 423
f 425 423 455
f 456 425 455
f 410 443 457
f 457 424 410
f 425 426 388
f 458 426 425
f 397 398 443
f 427 445 428
f 428 459 429
f 447 390 412
f 411 446 430
f 447 412 432
f 431 430 460
f 432 431 461
f 413 380 462
f 462 434 413
f 433 462 380
f 433 401 414
f 435 402 463
f 414 448 464
f 436 435 465
f 463 465 435
f 449 448 394
f 404 436 466
f 449 417 467
f 404 466 450
f 417 468 467
f 417 416 468
f 416 469 468
f 469 416 470
f 437 452 470
f 416 437 470
f 453 440 420
f 438 454 419
f 409 471 453
f 409 472 471
f 409 442 472
f 441 473 421
f 424 474 442
f 458 425 456
f 474 424 457
f 426 458 444
f 428 445 459
f 398 399 475
f 429 459 476
f 447 475 399
f 429 476 446
f 430 446 477
f 430 477 460
f 431 460 461
f 433 414 478
f 478 414 464
f 449 464 448
f 450 466 479
f 451 450 479
f 469 470 480
f 451 479 438
f 479 481 438
f 438 481 454
f 454 482 441
f 482 473 441
f 473 455 421
f 455 483 456
f 456 483 458
f 458 484 444
f 445 444 484
f 485 445 484
f 459 445 485
f 475 443 398
f 476 459 485
f 486 475 447
f 446 487 477
f 432 488 447
f 489 461 460
f 463 402 434
f 490 463 434
f 465 491 436
f 464 449 492
f 466 436 491
f 480 468 469
f 470 493 480
f 440 493 470
f 494 493 440
f 470 452 440
f 479 495 481
f 496 495 479
f 440 453 494
f 481 497 454
f 454 497 482
f 498 455 473
f 498 483 455
f 458 483 484
f 443 475 457
f 485 499 476
f 446 476 487
f 460 477 500
f 488 432 461
f 460 500 489
f 462 501 434
f 501 490 434
f 433 502 462
f 503 465 463
f 492 449 467
f 466 491 504
f 466 496 479
f 496 466 504
f 505 480 493
f 494 505 493
f 453 471 494
f 497 506 482
f 506 473 482
f 506 498 473
f 507 442 474
f 457 508 474
f 485 484 499
f 509 457 475
f 477 487 510
f 486 447 488
f 510 500 477
f 488 461 511
f 501 462 502
f 503 463 490
f 433 478 502
f 478 464 492
f 512 478 492
f 491 465 513
f 504 491 513
f 467 514 492
f 468 480 515
f 516 496 504
f 480 505 515
f 496 516 495
f 471 517 494
f 481 495 497
f 471 472 517
f 517 472 507
f 507 472 442
f 498 518 483
f 483 518 519
f 483 520 484
f 499 484 520
f 508 457 509
f 475 486 509
f 509 486 521
f 476 522 487
f 489 523 511
f 511 461 489
f 490 501 524
f 503 490 525
f 513 465 503
f 467 468 514
f 513 526 504
f 468 527 514
f 515 527 468
f 528 516 504
f 526 528 504
f 529 515 505
f 530 516 528
f 494 517 529
f 505 494 529
f 516 530 495
f 531 529 517
f 530 497 495
f 532 497 530
f 497 532 506
f 506 532 498
f 498 532 518
f 508 507 474
f 519 533 483
f 483 533 520
f 508 509 534
f 499 522 476
f 487 522 535
f 535 510 487
f 486 488 536
f 500 510 535
f 500 535 523
f 500 523 489
f 502 524 501
f 502 478 537
f 513 503 526
f 514 512 492
f 527 515 529
f 538 530 528
f 517 539 531
f 530 538 532
f 539 517 507
f 508 540 507
f 518 532 541
f 536 521 486
f 523 542 511
f 488 511 536
f 526 503 525
f 526 525 543
f 543 525 544
f 527 529 545
f 528 526 546
f 546 526 543
f 527 547 514
f 529 548 545
f 529 531 548
f 531 539 548
f 538 528 549
f 507 550 539
f 551 532 538
f 541 532 551
f 508 552 540
f 518 541 519
f 508 534 552
f 522 499 553
f 511 542 536
f 524 554 490
f 524 502 555
f 554 524 555
f 490 554 525
f 537 555 502
f 525 554 544
f 556 537 478
f 512 556 478
f 512 514 557
f 527 545 558
f 547 527 558
f 545 548 558
f 548 539 558
f 546 549 528
f 549 551 538
f 507 540 550
f 559 551 549
f 541 551 559
f 560 541 559
f 519 541 560
f 520 553 499
f 534 509 561
f 561 509 521
f 535 522 562
f 521 536 563
f 523 535 564
f 537 556 555
f 543 544 565
f 556 512 566
f 543 565 546
f 566 512 557
f 547 558 567
f 514 568 557
f 558 539 567
f 546 569 549
f 539 550 570
f 567 539 570
f 569 559 549
f 553 571 522
f 522 571 562
f 521 563 561
f 542 572 536
f 536 572 563
f 542 523 564
f 554 573 544
f 555 573 554
f 565 544 573
f 546 565 574
f 568 514 547
f 547 567 575
f 575 567 570
f 546 574 569
f 576 570 550
f 577 569 574
f 540 576 550
f 569 577 559
f 540 578 576
f 560 559 577
f 540 552 578
f 578 552 579
f 552 534 579
f 519 580 533
f 519 560 580
f 534 561 581
f 553 520 582
f 535 562 564
f 564 572 542
f 555 556 573
f 573 583 565
f 556 566 584
f 574 565 583
f 557 584 566
f 568 547 575
f 575 570 585
f 576 585 570
f 574 586 577
f 576 578 587
f 580 560 577
f 588 533 580
f 579 534 581
f 533 582 520
f 561 589 581
f 572 589 563
f 589 561 563
f 590 573 584
f 573 556 584
f 590 583 573
f 583 591 574
f 557 592 584
f 568 575 593
f 575 585 593
f 574 591 586
f 587 585 576
f 586 594 577
f 580 577 594
f 533 588 582
f 553 582 595
f 553 595 571
f 596 589 572
f 562 597 564
f 572 564 597
f 590 591 583
f 585 598 593
f 585 587 598
f 578 599 587
f 578 579 599
f 594 600 580
f 571 595 562
f 590 584 601
f 601 584 592
f 591 590 602
f 601 602 590
f 557 568 592
f 592 568 603
f 602 604 591
f 568 593 605
f 605 606 568
f 586 591 604
f 598 605 593
f 587 599 598
f 607 594 586
f 594 607 600
f 579 608 599
f 588 580 600
f 581 609 579
f 582 588 610
f 582 610 595
f 589 611 609
f 589 609 581
f 589 596 611
f 572 597 612
f 596 572 612
f 602 601 613
f 606 603 568
f 614 606 598
f 606 605 598
f 604 607 586
f 598 599 615
f 608 579 609
f 595 610 616
f 595 617 562
f 597 562 617
f 597 617 618
f 613 619 602
f 620 601 592
f 603 620 592
f 604 602 619
f 598 615 614
f 604 619 607
f 607 619 621
f 609 622 608
f 588 600 610
f 595 616 617
f 618 623 612
f 612 623 596
f 623 611 596
f 612 597 618
f 613 601 624
f 619 613 625
f 624 625 613
f 620 624 601
f 626 620 603
f 603 606 626
f 606 614 626
f 625 621 619
f 615 627 614
f 628 627 615
f 621 629 607
f 599 628 615
f 608 628 599
f 607 629 600
f 630 600 629
f 630 610 600
f 623 631 611
f 626 614 632
f 614 627 632
f 622 628 608
f 630 616 610
f 622 611 631
f 609 611 622
f 617 633 618
f 633 623 618
f 624 620 634
f 634 620 626
f 625 624 635
f 636 635 624
f 636 624 634
f 621 625 635
f 637 634 626
f 626 632 637
f 632 627 637
f 635 629 621
f 629 635 638
f 639 637 627
f 628 639 627
f 640 630 629
f 622 639 628
f 631 639 622
f 616 630 640
f 640 633 616
f 633 617 616
f 641 623 633
f 631 623 641
f 634 642 636
f 636 638 635
f 637 642 634
f 639 642 637
f 643 642 639
f 638 640 629
f 644 640 638
f 643 639 631
f 633 640 644
f 643 641 644
f 643 631 641
f 641 633 644
f 642 645 636
f 636 645 638
f 645 644 638
f 642 643 645
f 643 644 645
f 646 647 648
f 647 649 650
f 651 649 647
f 646 651 647
f 646 652 651
f 652 646 653
f 647 650 648
f 648 650 654
f 646 648 653
f 648 654 655
f 655 653 648
f 656 649 657
f 649 658 659
f 651 657 649
f 652 660 651
f 661 660 652
f 650 649 659
f 661 653 662
f 652 653 661
f 659 654 650
f 654 663 655
f 653 655 664
f 655 665 664
f 665 655 663
f 658 666 667
f 656 658 649
f 660 657 651
f 661 668 660
f 661 669 668
f 658 667 659
f 662 669 661
f 670 659 667
f 659 670 654
f 662 653 664
f 662 664 671
f 654 670 663
f 656 672 666
f 656 666 658
f 657 673 656
f 660 668 674
f 657 660 674
f 666 675 667
f 662 676 669
f 671 676 662
f 675 670 667
f 663 670 677
f 664 665 678
f 679 663 677
f 663 679 665
f 656 680 672
f 673 680 656
f 672 681 666
f 681 682 666
f 683 668 669
f 674 668 683
f 666 682 675
f 676 683 669
f 675 682 684
f 670 684 685
f 675 684 670
f 677 670 686
f 671 664 687
f 678 687 664
f 665 679 688
f 678 665 688
f 681 689 690
f 680 689 681
f 672 680 681
f 673 657 691
f 674 691 657
f 681 690 682
f 683 692 674
f 693 694 671
f 685 695 670
f 686 670 695
f 671 687 693
f 677 686 696
f 677 696 697
f 697 679 677
f 687 678 698
f 699 689 680
f 673 699 680
f 673 691 700
f 674 701 691
f 692 701 674
f 690 702 682
f 683 701 692
f 682 702 684
f 676 703 683
f 676 671 694
f 684 704 705
f 684 705 685
f 706 707 689
f 699 706 689
f 700 699 673
f 689 707 702
f 689 702 690
f 708 709 701
f 683 708 701
f 703 708 683
f 676 694 703
f 710 693 687
f 698 710 687
f 678 688 711
f 678 711 712
f 698 678 712
f 707 713 714
f 713 707 706
f 715 706 699
f 716 715 699
f 699 700 716
f 691 717 718
f 707 719 702
f 691 701 717
f 702 704 684
f 719 704 702
f 703 694 720
f 721 695 685
f 694 693 722
f 686 695 723
f 686 723 696
f 696 724 725
f 696 723 724
f 725 697 696
f 697 688 679
f 714 726 727
f 713 726 714
f 728 713 715
f 715 713 706
f 714 727 719
f 714 719 707
f 691 718 700
f 717 701 729
f 709 729 701
f 709 730 729
f 719 731 704
f 732 704 731
f 704 732 705
f 705 732 733
f 685 733 721
f 685 705 733
f 693 710 734
f 712 710 698
f 688 697 735
f 688 735 711
f 712 711 736
f 726 713 737
f 737 713 728
f 738 728 739
f 739 728 715
f 716 739 715
f 727 731 719
f 700 718 740
f 729 730 717
f 730 709 741
f 709 708 741
f 720 741 708
f 731 742 732
f 708 703 720
f 694 743 720
f 694 722 743
f 722 693 734
f 737 744 726
f 744 745 726
f 726 745 727
f 739 716 740
f 700 740 716
f 746 740 718
f 731 727 747
f 717 746 718
f 730 748 717
f 749 731 747
f 748 730 750
f 730 741 750
f 750 741 751
f 731 749 742
f 752 741 720
f 733 732 742
f 733 753 721
f 695 721 754
f 695 754 723
f 734 755 722
f 710 712 756
f 756 734 710
f 697 725 735
f 735 757 711
f 736 711 757
f 737 728 758
f 759 737 758
f 758 728 738
f 737 759 744
f 760 738 739
f 727 745 747
f 746 717 748
f 761 749 747
f 762 749 761
f 741 752 751
f 742 749 762
f 720 743 752
f 733 763 753
f 733 742 763
f 734 756 764
f 764 755 734
f 735 725 765
f 712 736 756
f 736 766 756
f 735 765 757
f 736 757 767
f 739 768 760
f 744 769 745
f 739 740 770
f 746 770 740
f 771 746 748
f 772 747 745
f 748 750 773
f 747 772 761
f 751 752 774
f 762 763 742
f 721 753 754
f 723 775 724
f 776 725 724
f 725 776 765
f 736 767 766
f 777 759 778
f 759 758 778
f 738 779 758
f 759 777 744
f 777 769 744
f 746 771 780
f 781 780 771
f 745 769 772
f 769 782 772
f 781 771 783
f 773 771 748
f 773 783 771
f 772 784 761
f 750 751 773
f 761 784 762
f 762 784 785
f 785 786 762
f 762 786 763
f 743 722 787
f 755 787 722
f 723 754 775
f 776 724 775
f 766 788 756
f 757 789 767
f 766 767 790
f 778 758 779
f 791 782 769
f 739 792 768
f 793 770 794
f 795 782 796
f 794 770 746
f 780 794 746
f 782 795 772
f 772 795 797
f 784 772 797
f 798 784 797
f 773 751 799
f 799 751 774
f 784 798 785
f 798 786 785
f 763 786 800
f 763 800 753
f 754 753 801
f 755 764 802
f 764 756 788
f 757 765 789
f 738 760 779
f 768 792 803
f 769 777 791
f 804 805 796
f 791 796 782
f 805 806 796
f 770 792 739
f 793 792 770
f 796 806 795
f 807 794 780
f 795 806 797
f 781 807 780
f 781 783 807
f 783 773 808
f 799 808 773
f 809 797 810
f 798 797 809
f 798 809 786
f 786 809 800
f 811 774 752
f 752 743 811
f 787 811 743
f 753 812 801
f 753 800 812
f 754 801 813
f 814 764 788
f 765 776 815
f 765 815 789
f 790 767 789
f 816 779 817
f 779 816 778
f 818 791 777
f 778 818 777
f 760 817 779
f 791 804 796
f 805 819 806
f 819 820 806
f 806 820 797
f 783 821 807
f 797 820 810
f 808 822 783
f 810 823 809
f 799 774 824
f 809 825 800
f 775 813 826
f 775 754 813
f 764 814 827
f 827 802 764
f 776 775 828
f 776 828 815
f 788 766 829
f 818 778 830
f 818 831 791
f 760 768 817
f 768 803 832
f 791 831 804
f 805 831 833
f 831 805 804
f 793 834 792
f 805 833 819
f 835 820 836
f 819 836 820
f 837 821 838
f 837 794 807
f 807 821 837
f 839 810 820
f 821 783 822
f 823 810 839
f 808 799 824
f 822 808 824
f 840 823 839
f 809 823 825
f 841 825 823
f 774 842 824
f 843 825 841
f 774 811 842
f 825 843 812
f 800 825 812
f 812 844 801
f 801 844 813
f 787 755 802
f 802 827 845
f 846 775 826
f 846 828 775
f 814 788 829
f 815 847 789
f 829 766 848
f 848 766 790
f 789 847 790
f 816 830 778
f 768 849 817
f 834 803 792
f 833 836 819
f 850 794 838
f 794 850 793
f 838 794 837
f 851 821 822
f 822 852 851
f 820 835 839
f 835 853 839
f 853 840 839
f 823 840 841
f 812 843 844
f 844 854 813
f 845 787 802
f 813 855 826
f 826 856 846
f 815 857 847
f 847 848 790
f 858 818 830
f 817 849 816
f 858 831 818
f 832 849 768
f 803 834 859
f 833 860 861
f 831 860 833
f 836 861 862
f 861 836 833
f 835 862 863
f 835 836 862
f 821 851 838
f 851 864 838
f 853 865 840
f 822 824 866
f 865 867 840
f 840 867 841
f 867 868 841
f 843 841 869
f 842 811 870
f 843 869 871
f 844 843 871
f 787 845 872
f 813 854 855
f 846 873 828
f 827 814 829
f 828 857 815
f 874 831 858
f 859 832 803
f 861 860 875
f 874 860 831
f 850 834 793
f 876 863 862
f 864 877 878
f 863 879 835
f 877 864 851
f 877 851 880
f 881 851 852
f 880 851 881
f 835 879 853
f 879 865 853
f 822 866 852
f 866 824 882
f 841 868 869
f 811 872 870
f 811 787 872
f 871 854 844
f 883 854 871
f 854 883 884
f 884 855 854
f 885 855 884
f 826 855 856
f 855 885 856
f 856 885 886
f 886 873 856
f 856 873 846
f 828 873 857
f 887 827 829
f 847 857 888
f 848 847 889
f 858 830 890
f 891 890 830
f 816 891 830
f 849 891 816
f 832 892 849
f 893 861 875
f 834 894 859
f 893 862 861
f 850 894 834
f 838 864 878
f 878 877 895
f 852 866 896
f 881 852 896
f 866 882 897
f 867 898 868
f 824 899 882
f 824 842 899
f 899 842 870
f 900 869 868
f 870 872 901
f 869 900 871
f 845 902 872
f 883 903 884
f 845 904 902
f 827 904 845
f 904 827 887
f 829 848 889
f 847 888 889
f 849 892 891
f 874 858 905
f 906 892 832
f 859 906 832
f 874 905 860
f 850 838 907
f 907 838 878
f 877 880 895
f 895 880 908
f 863 909 879
f 880 881 910
f 880 910 908
f 879 909 865
f 909 911 865
f 912 865 911
f 865 912 867
f 912 898 867
f 898 900 868
f 900 913 871
f 913 883 871
f 914 902 915
f 914 872 902
f 883 913 903
f 903 916 884
f 885 884 916
f 886 917 873
f 873 917 857
f 889 887 829
f 857 917 888
f 918 890 919
f 905 858 918
f 891 919 890
f 892 906 920
f 890 918 858
f 921 891 892
f 922 906 859
f 894 922 859
f 894 850 923
f 862 924 876
f 924 862 893
f 850 907 923
f 863 925 909
f 908 910 926
f 866 897 896
f 911 927 912
f 899 870 928
f 870 901 928
f 872 914 901
f 902 929 915
f 916 930 885
f 885 930 886
f 886 930 931
f 886 931 917
f 904 887 932
f 917 933 888
f 887 889 932
f 889 934 932
f 934 888 933
f 889 888 934
f 891 921 935
f 921 892 920
f 905 936 860
f 875 936 937
f 860 936 875
f 906 922 938
f 937 939 893
f 937 893 875
f 893 939 924
f 923 922 894
f 876 924 940
f 876 940 925
f 878 895 941
f 925 863 876
f 895 908 942
f 926 910 943
f 881 896 910
f 897 882 944
f 882 899 945
f 946 901 914
f 914 915 946
f 903 947 916
f 931 948 917
f 917 948 933
f 905 918 949
f 935 919 891
f 923 950 922
f 923 907 941
f 907 878 941
f 940 951 925
f 942 941 895
f 910 896 943
f 943 896 944
f 896 897 944
f 912 952 898
f 882 945 944
f 898 952 953
f 899 928 945
f 953 900 898
f 928 946 954
f 928 901 946
f 900 955 913
f 955 956 913
f 913 956 903
f 916 947 930
f 902 904 929
f 930 957 931
f 932 958 904
f 933 959 934
f 960 934 959
f 932 934 960
f 961 919 935
f 961 918 919
f 921 920 962
f 905 963 936
f 905 964 963
f 920 906 965
f 938 965 906
f 936 966 937
f 922 967 938
f 937 966 939
f 950 967 922
f 925 968 909
f 908 926 969
f 926 943 970
f 927 952 912
f 945 928 971
f 900 953 955
f 915 929 972
f 956 947 903
f 904 973 929
f 973 904 958
f 948 931 957
f 960 958 932
f 948 974 933
f 961 949 918
f 921 962 975
f 949 964 905
f 920 965 962
f 963 966 936
f 965 938 967
f 939 976 924
f 976 939 966
f 924 977 940
f 923 978 950
f 923 941 978
f 942 908 969
f 925 951 968
f 926 970 969
f 909 968 911
f 970 943 979
f 944 980 943
f 944 945 980
f 954 971 928
f 954 981 971
f 981 954 982
f 930 947 983
f 930 983 957
f 957 984 948
f 948 984 974
f 985 964 949
f 975 961 935
f 921 975 935
f 963 964 986
f 963 987 966
f 950 988 967
f 977 951 940
f 941 942 989
f 989 942 969
f 970 990 969
f 911 968 927
f 943 980 979
f 980 945 991
f 945 971 991
f 982 954 992
f 992 954 946
f 955 993 956
f 946 915 972
f 993 994 956
f 956 994 947
f 994 983 947
f 960 995 958
f 974 996 933
f 959 933 996
f 997 961 975
f 964 985 986
f 961 985 949
f 967 998 965
f 963 999 987
f 966 987 976
f 988 950 1000
f 976 1001 924
f 1000 950 978
f 978 941 989
f 977 1002 951
f 969 1003 989
f 951 1004 968
f 981 1005 971
f 1005 991 971
f 953 1006 955
f 981 982 1007
f 1008 993 955
f 992 946 1009
f 946 972 1009
f 972 1010 1009
f 929 1010 972
f 973 1010 929
f 984 957 983
f 973 958 995
f 974 1011 996
f 996 995 960
f 960 959 996
f 961 997 1012
f 985 961 1012
f 965 1013 962
f 998 1013 965
f 999 963 986
f 1014 998 967
f 967 988 1014
f 1000 1014 988
f 1001 977 924
f 978 1015 1000
f 978 1016 1015
f 978 989 1016
f 1003 969 1017
f 1002 1004 951
f 979 980 1018
f 979 1018 970
f 1019 953 952
f 1007 982 992
f 993 1020 994
f 983 1021 984
f 1022 973 995
f 1023 975 1024
f 1025 985 1026
f 985 1012 1026
f 962 1024 975
f 1024 962 1013
f 1027 985 1025
f 1023 997 975
f 1027 986 985
f 1028 998 1014
f 1027 999 986
f 1029 999 1027
f 1000 1030 1014
f 1029 987 999
f 1031 987 1029
f 987 1032 1001
f 976 987 1001
f 1017 969 990
f 1004 1033 968
f 990 970 1018
f 968 1033 927
f 980 1034 1018
f 1035 1034 991
f 991 1034 980
f 1035 991 1005
f 1005 981 1007
f 955 1006 1008
f 994 1020 1036
f 1036 983 994
f 983 1036 1021
f 973 1022 1010
f 1011 984 1021
f 1011 1037 996
f 1037 1038 996
f 974 984 1011
f 995 996 1038
f 1039 1023 1024
f 1026 1012 1040
f 1028 1041 1013
f 998 1028 1013
f 1030 1028 1014
f 1030 1000 1042
f 1015 1042 1000
f 1032 987 1031
f 977 1001 1043
f 1016 989 1044
f 1044 989 1003
f 977 1043 1045
f 977 1045 1002
f 927 1019 952
f 1035 1005 1046
f 992 1047 1007
f 1008 1020 993
f 1010 1022 1048
f 995 1038 1048
f 1022 995 1048
f 1039 1024 1049
f 1024 1041 1049
f 1013 1041 1024
f 1039 997 1023
f 1050 1041 1028
f 1051 1050 1028
f 1026 1052 1025
f 1025 1052 1027
f 1027 1052 1053
f 1030 1051 1028
f 1029 1027 1053
f 1054 1051 1030
f 1030 1042 1054
f 1042 1015 1044
f 1044 1015 1016
f 1032 1043 1001
f 1044 1003 1055
f 1055 1003 1017
f 1045 1056 1002
f 1002 1056 1004
f 1033 1057 927
f 1057 1019 927
f 1019 1006 953
f 1005 1047 1046
f 1005 1007 1047
f 1008 1058 1020
f 1036 1059 1021
f 1038 1060 1048
f 1011 1021 1059
f 1011 1059 1061
f 1037 1011 1061
f 1039 1049 1062
f 997 1039 1063
f 1012 997 1063
f 1050 1064 1041
f 1064 1050 1065
f 1040 1012 1066
f 1065 1050 1051
f 1051 1054 1067
f 1068 1042 1069
f 1069 1042 1044
f 1031 1070 1032
f 1055 1069 1044
f 1017 990 1071
f 1072 1018 1034
f 1073 1035 1046
f 1006 1058 1008
f 1074 1009 1010
f 992 1009 1074
f 1010 1048 1074
f 1059 1036 1075
f 1076 1037 1061
f 1038 1037 1076
f 1060 1038 1076
f 1063 1039 1062
f 1049 1064 1077
f 1077 1064 1078
f 1064 1049 1041
f 1078 1064 1065
f 1040 1079 1080
f 1040 1066 1079
f 1065 1051 1081
f 1052 1026 1080
f 1040 1080 1026
f 1051 1067 1081
f 1052 1080 1082
f 1083 1067 1054
f 1054 1068 1083
f 1084 1029 1053
f 1084 1031 1029
f 1054 1042 1068
f 1069 1055 1085
f 1086 1032 1070
f 1032 1086 1043
f 1055 1017 1071
f 1033 1004 1056
f 1018 1072 1087
f 1034 1035 1088
f 1046 1047 1089
f 1006 1090 1058
f 1058 1091 1020
f 1036 1020 1091
f 1036 1091 1075
f 1074 1048 1060
f 1059 1092 1061
f 1093 1062 1094
f 1049 1095 1062
f 1096 1049 1077
f 1062 1093 1063
f 1066 1012 1063
f 1066 1063 1097
f 1065 1098 1078
f 1065 1081 1098
f 1081 1067 1099
f 1067 1083 1099
f 1082 1053 1052
f 1083 1068 1100
f 1101 1100 1068
f 1031 1102 1070
f 1102 1031 1084
f 1068 1069 1101
f 1069 1085 1101
f 1085 1055 1103
f 1103 1055 1071
f 1043 1104 1045
f 990 1018 1087
f 1105 1057 1033
f 1088 1072 1034
f 1089 1073 1046
f 1006 1019 1090
f 1106 1058 1090
f 1106 1091 1058
f 1107 1059 1075
f 1060 1076 1108
f 1074 1060 1109
f 1092 1059 1107
f 1108 1061 1092
f 1076 1061 1108
f 1094 1095 1110
f 1110 1095 1096
f 1111 1093 1112
f 1112 1093 1094
f 1095 1094 1062
f 1096 1095 1049
f 1077 1113 1096
f 1097 1093 1111
f 1077 1078 1113
f 1093 1097 1063
f 1078 1098 1114
f 1079 1115 1080
f 1066 1115 1079
f 1115 1066 1097
f 1081 1099 1098
f 1099 1083 1116
f 1083 1100 1116
f 1101 1085 1117
f 1070 1118 1086
f 1086 1104 1043
f 1045 1104 1119
f 1056 1045 1119
f 1056 1105 1033
f 1120 1019 1057
f 1073 1088 1035
f 1019 1120 1090
f 1074 1121 1047
f 1047 992 1074
f 1121 1074 1109
f 1109 1060 1108
f 1094 1110 1122
f 1096 1123 1110
f 1096 1113 1123
f 1097 1111 1124
f 1113 1114 1125
f 1078 1114 1113
f 1126 1114 1098
f 1115 1127 1080
f 1126 1098 1099
f 1082 1080 1128
f 1129 1099 1116
f 1117 1100 1101
f 1102 1130 1070
f 1070 1130 1118
f 1117 1085 1103
f 1118 1131 1086
f 1086 1131 1104
f 1071 990 1132
f 990 1087 1132
f 1047 1133 1089
f 1133 1047 1121
f 1075 1091 1134
f 1135 1075 1134
f 1135 1092 1107
f 1135 1107 1075
f 1109 1108 1136
f 1110 1137 1122
f 1110 1123 1137
f 1112 1138 1111
f 1112 1122 1138
f 1122 1112 1094
f 1113 1125 1123
f 1123 1125 1139
f 1097 1124 1115
f 1114 1126 1125
f 1128 1080 1127
f 1126 1099 1129
f 1100 1129 1116
f 1117 1103 1140
f 1131 1141 1104
f 1119 1105 1056
f 1105 1120 1057
f 1120 1105 1142
f 1088 1073 1143
f 1120 1144 1090
f 1090 1144 1106
f 1089 1133 1145
f 1091 1146 1134
f 1106 1146 1091
f 1133 1121 1109
f 1147 1136 1108
f 1092 1135 1147
f 1108 1092 1147
f 1122 1137 1138
f 1123 1148 1137
f 1123 1139 1148
f 1124 1149 1150
f 1111 1149 1124
f 1138 1149 1111
f 1125 1151 1139
f 1115 1124 1150
f 1126 1151 1125
f 1126 1152 1151
f 1126 1129 1152
f 1100 1153 1129
f 1100 1140 1153
f 1140 1100 1117
f 1103 1071 1132
f 1104 1154 1119
f 1104 1141 1154
f 1072 1088 1143
f 1073 1089 1145
f 1146 1106 1144
f 1133 1109 1155
f 1156 1135 1134
f 1155 1109 1136
f 1138 1137 1148
f 1148 1149 1138
f 1139 1157 1148
f 1151 1158 1139
f 1159 1158 1151
f 1150 1127 1115
f 1150 1160 1127
f 1151 1152 1159
f 1127 1160 1128
f 1084 1053 1161
f 1161 1053 1082
f 1084 1161 1102
f 1118 1162 1131
f 1140 1103 1163
f 1103 1132 1163
f 1087 1072 1164
f 1087 1164 1132
f 1119 1165 1105
f 1165 1142 1105
f 1120 1142 1166
f 1143 1073 1167
f 1073 1145 1167
f 1168 1134 1146
f 1156 1134 1168
f 1169 1133 1155
f 1135 1156 1147
f 1170 1155 1136
f 1149 1171 1150
f 1148 1172 1149
f 1158 1157 1139
f 1171 1173 1150
f 1174 1128 1160
f 1082 1128 1174
f 1152 1175 1159
f 1082 1174 1161
f 1152 1129 1175
f 1175 1129 1153
f 1102 1176 1130
f 1177 1153 1140
f 1131 1162 1141
f 1132 1164 1163
f 1154 1165 1119
f 1164 1072 1178
f 1120 1179 1144
f 1180 1167 1145
f 1169 1145 1133
f 1156 1181 1147
f 1173 1160 1150
f 1173 1182 1160
f 1183 1158 1159
f 1160 1182 1174
f 1175 1183 1159
f 1102 1161 1176
f 1130 1184 1118
f 1118 1184 1162
f 1140 1163 1177
f 1142 1165 1185
f 1166 1142 1185
f 1143 1186 1178
f 1178 1072 1143
f 1143 1167 1186
f 1166 1179 1120
f 1144 1179 1146
f 1145 1169 1187
f 1168 1146 1188
f 1189 1155 1170
f 1190 1147 1181
f 1136 1147 1190
f 1170 1136 1190
f 1172 1148 1157
f 1191 1157 1192
f 1192 1157 1158
f 1157 1191 1172
f 1182 1193 1174
f 1174 1193 1161
f 1175 1194 1183
f 1175 1153 1194
f 1195 1153 1177
f 1130 1196 1184
f 1176 1196 1130
f 1197 1195 1177
f 1177 1163 1198
f 1197 1177 1198
f 1199 1141 1162
f 1163 1164 1198
f 1200 1154 1141
f 1164 1178 1198
f 1165 1154 1200
f 1185 1165 1200
f 1146 1179 1188
f 1168 1201 1156
f 1171 1149 1202
f 1202 1149 1172
f 1171 1202 1173
f 1203 1158 1183
f 1204 1161 1193
f 1161 1204 1176
f 1195 1194 1153
f 1162 1184 1205
f 1199 1162 1205
f 1200 1141 1199
f 1178 1206 1198
f 1178 1186 1206
f 1186 1167 1207
f 1167 1180 1207
f 1145 1187 1180
f 1190 1208 1170
f 1169 1155 1189
f 1202 1172 1209
f 1191 1209 1172
f 1210 1193 1182
f 1173 1210 1182
f 1158 1203 1192
f 1210 1211 1193
f 1211 1204 1193
f 1212 1203 1183
f 1183 1194 1212
f 1184 1196 1205
f 1198 1213 1197
f 1198 1206 1213
f 1166 1185 1214
f 1179 1214 1188
f 1166 1214 1179
f 1215 1169 1189
f 1188 1201 1168
f 1156 1216 1181
f 1170 1208 1189
f 1202 1217 1173
f 1210 1218 1211
f 1219 1176 1204
f 1176 1219 1196
f 1194 1195 1220
f 1195 1197 1220
f 1213 1220 1197
f 1206 1186 1221
f 1221 1186 1207
f 1169 1215 1187
f 1180 1187 1207
f 1208 1215 1189
f 1216 1156 1201
f 1181 1216 1222
f 1190 1181 1222
f 1208 1190 1222
f 1210 1173 1217
f 1209 1191 1223
f 1223 1202 1209
f 1192 1223 1191
f 1203 1223 1192
f 1211 1218 1204
f 1194 1224 1212
f 1196 1219 1225
f 1194 1220 1224
f 1196 1225 1205
f 1220 1213 1226
f 1227 1199 1205
f 1200 1199 1227
f 1228 1226 1213
f 1213 1206 1228
f 1185 1200 1227
f 1221 1229 1228
f 1228 1206 1221
f 1214 1185 1227
f 1221 1207 1229
f 1230 1188 1214
f 1187 1215 1231
f 1201 1188 1230
f 1232 1201 1230
f 1201 1233 1216
f 1210 1217 1234
f 1218 1210 1234
f 1223 1235 1202
f 1203 1236 1237
f 1236 1203 1212
f 1204 1218 1219
f 1236 1212 1224
f 1224 1220 1238
f 1238 1220 1226
f 1214 1227 1239
f 1240 1229 1207
f 1240 1187 1241
f 1207 1187 1240
f 1241 1187 1231
f 1232 1233 1201
f 1218 1234 1242
f 1202 1243 1217
f 1235 1243 1202
f 1223 1203 1237
f 1219 1218 1244
f 1218 1242 1244
f 1236 1224 1245
f 1224 1238 1245
f 1227 1205 1246
f 1226 1247 1238
f 1226 1248 1247
f 1226 1228 1248
f 1229 1249 1248
f 1248 1228 1229
f 1229 1240 1249
f 1250 1230 1214
f 1232 1230 1250
f 1208 1231 1215
f 1222 1216 1251
f 1217 1252 1234
f 1252 1217 1243
f 1242 1234 1252
f 1253 1235 1223
f 1223 1237 1253
f 1219 1244 1225
f 1225 1246 1205
f 1247 1245 1238
f 1247 1248 1254
f 1255 1254 1248
f 1239 1227 1256
f 1255 1248 1249
f 1257 1249 1241
f 1249 1240 1241
f 1250 1214 1239
f 1258 1232 1250
f 1258 1233 1232
f 1216 1233 1258
f 1231 1222 1251
f 1208 1222 1231
f 1242 1259 1244
f 1242 1252 1259
f 1237 1236 1260
f 1237 1260 1253
f 1236 1245 1260
f 1225 1244 1261
f 1261 1244 1259
f 1260 1245 1262
f 1225 1261 1246
f 1262 1245 1247
f 1254 1262 1247
f 1246 1256 1227
f 1255 1249 1263
f 1263 1249 1257
f 1239 1264 1250
f 1250 1264 1258
f 1258 1265 1266
f 1241 1231 1257
f 1266 1216 1258
f 1251 1216 1266
f 1243 1235 1253
f 1252 1243 1267
f 1253 1260 1268
f 1268 1260 1262
f 1261 1269 1246
f 1254 1270 1262
f 1246 1269 1256
f 1254 1255 1270
f 1271 1256 1269
f 1270 1255 1272
f 1255 1263 1272
f 1256 1271 1239
f 1264 1239 1271
f 1263 1257 1273
f 1265 1258 1264
f 1266 1274 1231
f 1257 1231 1273
f 1231 1251 1266
f 1267 1243 1275
f 1243 1253 1275
f 1275 1253 1268
f 1268 1276 1275
f 1261 1259 1277
f 1252 1277 1259
f 1277 1252 1267
f 1262 1276 1268
f 1262 1278 1276
f 1270 1278 1262
f 1277 1271 1269
f 1261 1277 1269
f 1270 1272 1278
f 1279 1264 1271
f 1280 1265 1279
f 1263 1273 1272
f 1264 1279 1265
f 1273 1231 1274
f 1280 1266 1265
f 1274 1266 1280
f 1267 1275 1281
f 1281 1275 1276
f 1277 1267 1282
f 1276 1283 1281
f 1282 1284 1277
f 1281 1282 1267
f 1283 1276 1285
f 1271 1277 1284
f 1276 1278 1285
f 1279 1271 1284
f 1286 1279 1284
f 1278 1272 1285
f 1272 1287 1285
f 1286 1280 1279
f 1272 1273 1287
f 1280 1286 1288
f 1287 1273 1288
f 1274 1280 1288
f 1273 1274 1288
f 1284 1282 1289
f 1281 1289 1282
f 1289 1286 1284
f 1281 1290 1289
f 1283 1290 1281
f 1285 1287 1290
f 1285 1290 1283
f 1290 1288 1289
f 1288 1286 1289
f 1287 1288 1290

