# https://github.com/mikedh/trimesh
v 15488.12744863 29146.55442231 24559.71793511
v 15460.42626772 29308.55676266 23253.13023348
v 15106.20160939 28103.75004948 23868.66877460
v 15044.53299077 27883.03656447 25038.08696200
v 15313.74017948 28922.00846723 25525.26292290
v 14898.18454934 28168.92662079 26010.06423872
v 15771.35660728 30705.10273985 24043.35500024
v 15723.38327025 30472.88111213 22685.83361012
v 15499.49246797 30136.11170593 25407.30811696
v 14967.18921454 29365.18901725 26317.96221347
v 15523.54550168 32756.75975564 18951.91025946
v 15108.43893678 32426.01277265 17612.20511720
v 15088.67461763 31580.78874799 18315.18967404
v 15338.63927050 31202.57252000 19720.78076207
v 15771.77214359 32384.45175350 20813.49994884
v 15600.04057546 30848.44293571 21397.66221110
v 15882.45078028 31967.70068250 22699.20461774
v 15847.09836036 32220.82944460 24203.48199394
v 15592.06250972 31668.00578922 25288.70196338
v 15035.42161062 30960.29676804 26356.33084932
v 15160.20013796 33637.56563993 17494.00654031
v 14499.14356468 33728.57641619 15987.28120274
v 14698.05264550 32703.64291815 16613.12067851
v 15482.78531649 34046.44980545 18859.80482086
v 15678.34335179 33800.39459685 20272.15532265
v 15772.83578894 33559.52697091 22020.44075836
v 15734.44220687 33388.41513704 23696.28143495
v 15509.85119050 33112.67459967 25102.18803365
v 15009.11701183 32547.32722393 26249.43483361
v 14694.15696572 34611.96641854 16815.12712589
v 14042.70666471 34894.42146234 15597.64558518
v 14970.88871568 34826.00646132 18151.97682181
v 15199.05328626 34892.13883629 19769.82868933
v 15305.56803521 34781.83925277 21486.04844601
v 15293.50768505 34607.25636591 23214.27817933
v 15141.61520875 34338.57467272 24770.12884263
v 14794.09707624 33895.37195350 26030.24829780
v 13946.70766161 35586.98001535 17248.69040035
v 14268.11084981 35685.09986692 19196.34358908
v 14414.87598591 35672.27566042 21008.63078855
v 14443.60020686 35551.20754867 22789.44788048
v 14369.25283013 35304.35506652 24439.61517225
v 14189.82457454 34882.95786450 25808.58620216
v 12584.44588495 20997.81915849 27285.63843446
v 12492.41194369 20625.74080027 26523.75573111
v 12203.77814176 19880.53311102 27195.65270199
v 11868.76626317 19851.44488386 27714.92769617
v 13079.16409791 22389.67390478 26435.55676501
v 13199.35171087 23140.81437795 25065.18980249
v 12568.80972664 21489.66848115 25370.78294170
v 12808.11560272 22217.81977466 27426.91996001
v 12084.14650970 21177.65167138 27911.14521946
v 13747.73515163 24653.92072260 25770.68297985
v 13601.64355022 24501.76900578 24387.12639645
v 13160.29964475 23745.69802452 27148.68502218
v 12293.36437967 22775.15906812 27939.95432381
v 13923.11691001 26383.57532715 22431.79946843
v 13819.05828906 27002.94245999 21202.91554287
v 13172.44053354 25716.17789640 21565.18641177
v 13336.14507342 24934.17322336 23003.24946315
v 14325.74769614 26374.86295496 24108.83572174
v 14408.95997984 26783.07459160 25873.83163890
v 13585.61491885 25748.88835597 26985.78758234
v 12521.28633108 24614.51446478 27868.45919217
v 14711.48638354 28014.09828186 22264.22761648
v 14255.45573351 28095.35142913 20678.84376455
v 14084.62319421 27934.73495015 26952.27226148
v 12757.01776634 26631.55237906 27831.76220322
v 13776.29974538 29938.16304362 17273.72066583
v 13158.37769393 30277.11928060 16164.69284450
v 12968.28138845 29106.74726676 16926.38229127
v 13483.15906386 28834.83091809 18021.50723827
v 14504.49188578 30133.74843432 18563.79413167
v 13996.84549320 28560.55005358 19422.38850481
v 14895.66299345 29481.49350107 20552.87623264
v 15363.14550481 29600.82281529 22023.17733477
v 14145.15362315 29948.01134114 27188.95891806
v 12909.56699873 28674.29264491 27869.15245376
v 14388.92888924 31337.11483484 17048.89963755
v 13661.18951866 32230.41422367 15273.75097029
v 14158.06479041 31725.57793057 27179.13848169
v 12952.94329689 30612.33583832 27889.35822640
v 12590.76133251 34744.34902609 7733.16625634
v 12210.59804804 34868.13381375 6828.76717661
v 11880.76244225 34342.56408088 7200.40546950
v 12328.80312931 34141.50071308 8409.78088075
v 12861.49471033 34647.81246033 8965.07826287
v 12649.38362803 34080.76686660 9456.00514768
v 13850.36958122 33948.40460181 14539.79707268
v 14091.09853037 33260.19932282 27004.76266201
v 12950.43676040 32359.64367996 27766.51051606
v 12410.27796947 35212.41722771 7291.10957593
v 11783.25677272 35311.82927308 6537.31493295
v 12638.45358219 35267.24829414 8435.46622394
v 12956.59040825 34414.51259559 10062.15291172
v 12886.33620914 35142.37037578 10179.29696974
v 13048.37077661 34349.67252735 11343.39578189
v 13074.21987228 35174.54305159 12134.63470654
v 13355.52204716 34209.03626790 12972.28618154
v 13434.23493803 35089.70379385 13950.51539143
v 13926.27329860 34316.64597246 26714.70600135
v 12925.59581201 33803.72333548 27439.24838105
v 11766.28141857 35773.41904083 7693.72790846
v 12097.70972391 35863.44665929 9476.72628172
v 12295.03586451 35892.89455855 11369.94356664
v 12514.81882598 35907.21299808 13337.05128551
v 12902.28665692 35907.76253374 15477.57233220
v 12662.15569020 36272.66036821 17276.09052263
v 12965.53276250 36268.86631595 18800.90697081
v 13128.37261127 36267.65134093 20617.89608554
v 13188.89893385 36183.42496512 22441.12542179
v 13171.27722150 35963.60647221 24159.41814005
v 13089.61876473 35541.01664930 25643.69695943
v 12972.77002306 34850.61966434 26762.70739791
v 11697.73440624 19080.75387494 27400.52751950
v 11649.37629489 19080.35063537 26618.14432036
v 11287.57116005 18463.23762307 27268.46623195
v 10816.76808919 18385.76504499 27740.39859409
v 12086.36685071 20160.66526192 25820.95762237
v 10924.68298842 19775.49549912 28195.97456204
v 12641.21668415 22425.07997882 24361.99000008
v 12192.02465939 22635.29170682 23313.49561676
v 11941.32401562 21422.15862436 24123.40907678
v 11886.91517981 20471.19619656 24985.37699586
v 11069.22492517 21445.44441271 28373.16292041
v 12982.90243396 23542.68342361 23841.70396536
v 12590.22974732 23740.35967669 22830.32162742
v 11198.72804835 23283.25916535 28411.70847899
v 13007.99650076 26411.11113656 20298.47275345
v 12002.82935240 25707.14397072 19503.22787961
v 12357.22539259 25198.68118406 20722.09608650
v 12422.92424530 24417.85833380 21803.00111940
v 11315.51887200 25236.41610862 28404.77044583
v 12392.88321743 27914.60418040 17430.43981878
v 11720.89479462 28586.36949685 16116.43263830
v 11294.05869407 27119.15797036 16970.69852787
v 11688.92805777 26500.53779946 18083.53359380
v 12921.18048057 27349.34246821 18919.45486860
v 13631.62649336 27481.24492088 20070.50032484
v 11407.89387095 27244.14656485 28406.16954483
v 11973.06144771 30461.45491739 14729.78860042
v 11458.47243906 29230.66914583 28403.62584122
v 12566.42105068 32013.60992574 13738.29665447
v 11589.83494561 31793.97716071 12753.07183640
v 11739.74827446 31173.85741531 13681.03584598
v 11475.16910300 31116.77914530 28330.73367145
v 11373.81763845 34769.86709377 6169.28199584
v 10547.69739002 34062.31924783 6706.64409128
v 11203.14438142 33662.12387420 8093.09002305
v 11793.66254990 33480.59734526 9477.36930714
v 12528.49195940 33698.85332608 10603.01267396
v 11327.06687315 32601.76570409 11093.91978026
v 12634.90334557 33150.65775693 12313.17361485
v 13318.91839719 33154.84238253 13744.75991876
v 11479.55331910 32809.96737885 28099.92126997
v 11076.89516795 35303.59050271 5854.24598290
v 10087.05725708 35502.19988105 5577.93343930
v 10593.91282987 35035.73695674 5534.17702228
v 11498.46112911 34209.04851331 27605.52067228
v 10687.71350720 35835.18321355 6483.98560344
v 10552.84140514 36240.83978947 7696.29726546
v 10878.81111786 36321.63860136 9035.67297540
v 11066.17229692 36385.91232412 10829.58799095
v 11201.65542284 36422.11896695 12767.41751154
v 11344.92090772 36455.04368201 14762.75200219
v 11406.58340640 36545.22390753 16710.57485710
v 11450.01376071 36628.16589290 18538.99007376
v 11553.09038324 36627.20634242 20354.14900027
v 11614.51079635 36555.27816030 22194.92065450
v 11627.51219272 36355.36190448 23952.57687737
v 11600.18888393 35948.30602561 25508.33276187
v 11546.72028180 35252.41541494 26748.79206026
v 10528.57988554 17519.52914866 26953.53675456
v 9947.07007068 16744.10031868 26171.85801816
v 9490.40345077 16031.42601386 26797.96380820
v 9183.03430527 16245.60401141 27697.68324416
v 10316.81790456 18395.40776480 24532.72670737
v 9324.22749937 17801.37282925 23636.76749851
v 9551.11665725 17309.81735431 24381.80893106
v 9732.21321076 16965.65501613 25180.84108786
v 10667.07714782 17973.61796687 25845.74291980
v 9411.01759702 18013.61091083 28319.35858443
v 10010.83704222 19370.29231120 23216.85633295
v 9148.54963476 19905.71868084 21960.65241084
v 8915.97033711 18479.11951799 22695.72993252
v 11125.06187881 20076.19697297 24124.08966727
v 11362.49934375 19330.64130877 25354.37686761
v 9539.94897420 19815.75172681 28605.41681986
v 10903.33735277 21514.22430391 22528.54950098
v 9551.49642741 21729.59388397 20871.27721873
v 9628.41447313 21700.60755164 28715.13009098
v 11078.76441081 23707.02618222 20578.30882328
v 9770.73668324 23627.39833976 19149.52024845
v 9774.99242269 22830.47684304 20014.10889465
v 11862.30012633 23208.07735538 22196.37301796
v 9691.40094167 23650.89773466 28744.97749695
v 10501.39587394 25880.70106937 17400.34945043
v 9957.71569186 26766.62255247 16225.88119590
v 9414.21939592 25363.47081451 16968.44122959
v 9621.93474973 24590.03816919 17915.61731952
v 10810.17533881 25009.33719378 18710.99646662
v 9737.77107998 25640.11225526 28749.93295201
v 9930.30593053 28553.49410384 14835.26571167
v 9768.36388219 27634.34274354 28745.18196015
v 10572.70119187 30412.48558472 13513.64383098
v 9251.99166047 30355.05442496 12780.20886170
v 8849.75502075 29250.88742638 13676.44454018
v 9784.10414386 29588.03200909 28706.40009562
v 10271.39954315 31356.44380967 12143.07041971
v 9873.46619768 31933.65999824 10963.78738711
v 8630.03434946 31054.74038897 11683.25773924
v 9791.84931196 31436.46123028 28575.01313848
v 10323.60242756 34608.09790367 5753.25080027
v 9351.76334429 35037.11933767 5354.68259030
v 9091.72352419 34304.80601445 5900.97878937
v 9184.84859069 33688.58152658 6918.96816560
v 9930.44670700 33408.03673073 7778.28687369
v 10000.67551906 32780.33887302 9414.79738234
v 9801.65923424 33091.85609288 28263.40365709
v 8838.14664720 35637.71610004 5447.56256230
v 9820.30452656 34461.83651302 27671.21349451
v 9130.32374635 36022.08857586 6098.64959117
v 9299.83087999 36363.84061802 7284.86265555
v 9395.46646034 36580.28261466 8778.18255179
v 9520.65633204 36673.24677666 10503.75344975
v 9609.59250832 36718.25363785 12403.73543323
v 9678.95383305 36745.54747526 14372.47450077
v 9729.07651608 36778.21890290 16345.76159282
v 9760.06972026 36813.36685687 18282.63588404
v 9795.76025268 36815.68174246 20182.32469658
v 9833.54001197 36747.55979715 22050.15584169
v 9855.03576586 36558.08100060 23832.16193559
v 9857.52588295 36166.52988188 25425.44682908
v 9843.15503416 35486.75243200 26726.65549015
v 6138.82757132 6565.45969541 28055.74768771
v 6006.83873238 6630.64134323 27756.45999285
v 5856.63888734 5823.29266189 27972.03999339
v 5637.93310470 5800.45178230 28221.56238578
v 6345.62188958 7738.54634111 27945.93852752
v 6181.65913891 8048.65317139 27433.00699023
v 5879.08200291 7024.33189963 28315.17874617
v 6645.42778560 9510.37308963 27699.84290662
v 6495.75966363 9819.99881793 26947.66031194
v 6120.02110480 8693.59339554 28282.52235725
v 7289.74585102 11854.58201077 27230.56593489
v 6928.83082947 11467.37236222 26267.12938684
v 6502.94552428 10808.80365556 28154.15604081
v 7822.37177173 14126.89749568 25044.92084452
v 7074.35289238 14318.61746680 23987.42969611
v 6870.19668804 13121.41327364 24655.54564877
v 7116.17970219 12555.00386197 25439.66636642
v 7856.62922318 13304.11274075 26165.51872862
v 8438.60515242 14392.02206566 27018.16143031
v 7310.46649746 13551.38994563 28062.80828914
v 8559.11717341 16084.37758727 24245.23757001
v 7252.06950523 15663.29527314 23146.31256663
v 8920.84183845 15370.25541225 25830.97926972
v 7664.28208041 15949.73139422 28484.42297120
v 8194.70301214 17130.02282314 22964.61191530
v 7594.01992819 18128.43974902 21940.73728342
v 7119.22884559 16594.32523877 22442.72234601
v 7817.51313949 17967.72733423 28764.17571160
v 7608.66052397 20136.34997793 20734.43104952
v 7893.30477091 19928.15285493 28900.42869419
v 8541.46106898 22198.23943948 19585.31183667
v 7546.09793416 22426.14921003 18710.51658177
v 6640.23583469 21218.49265533 19450.31586598
v 7934.45713432 21900.08896602 28952.21393485
v 8438.58953797 24338.34697608 17307.28859953
v 8368.33603796 25393.28367276 16387.19647134
v 7269.98322909 24292.13396561 16838.35724158
v 7158.70310488 23214.56976813 17776.46766731
v 8560.06267539 23386.31913018 18360.42296272
v 7958.45782382 23888.94544217 28966.87240426
v 8211.15305057 26690.59682992 15409.87101919
v 7973.27223359 25884.41649342 28967.16993253
v 7915.68257546 27901.39087027 14416.02209713
v 7981.98653369 27866.83935462 28950.57658630
v 7657.63516520 29749.68577421 12822.79949002
v 7490.31543978 28665.60786862 13691.15614535
v 7986.95405960 29800.90149504 28888.29236814
v 8818.30252354 31919.21773759 10455.46933565
v 8175.71417345 32352.51034624 9540.24506381
v 7155.77277665 31554.80548238 10657.99163514
v 7009.76025719 30572.65876679 11859.03412906
v 7991.25373751 31626.44866084 28721.84867686
v 8197.07683186 34793.56148542 5357.36717740
v 7740.99589943 34402.58236841 5689.98157695
v 7701.70704621 33836.94886455 6583.10289290
v 8307.14345005 33099.97970334 8091.01703332
v 7996.65237153 33258.28673978 28365.31740686
v 7549.60470289 35427.10805759 5351.89852533
v 6880.86090128 34880.72403580 5417.14810022
v 8000.09151419 34606.35294009 27726.23851324
v 7546.25800315 36042.64006687 5942.37093956
v 7640.91131978 36437.52271785 7061.28951469
v 7715.93485493 36685.29299945 8572.01895913
v 7775.07514502 36813.23578907 10319.55134668
v 7825.41093758 36867.74055286 12207.25333778
v 7861.75229927 36891.27530136 14166.91746935
v 7887.82447997 36905.65890721 16148.50568721
v 7905.71744031 36915.51745776 18122.65277016
v 7920.32914032 36905.04919315 20072.82698532
v 7936.35251222 36837.47647199 21979.46544656
v 7954.94454530 36654.25108323 23790.04262123
v 7976.28934261 36274.59486161 25410.72112572
v 7994.05077976 35611.58511687 26742.47411772
v 5390.86858818 5145.93515954 28050.29741820
v 5217.06430599 5348.44406166 27755.14304701
v 4830.66679043 4571.86412141 27996.22282897
v 4641.40329449 4715.79793267 28298.79656692
v 5268.25658823 6567.31478404 27332.93624275
v 4879.02417177 5918.24793596 28563.83963547
v 5405.58299854 8125.12076200 26798.57859696
v 5100.37350425 7532.22054018 28686.76492821
v 5745.41807845 9866.70486102 26076.46633381
v 5318.07495712 9459.43195082 28707.93877440
v 6230.63532778 11947.29785571 24909.35072616
v 5686.90490236 12682.90822506 24036.05597201
v 5280.75836622 11339.56494099 24602.51182372
v 5540.35508381 10701.57741092 25246.68598824
v 6405.04739528 11314.47347558 25593.51882369
v 5611.67780372 11648.59581927 28705.64218712
v 5806.05435836 14296.69263891 23060.27157738
v 5886.68832443 13910.47881675 28801.77630730
v 6356.26541228 15608.85250183 22526.28911340
v 5902.40109175 16475.40451663 21942.32982496
v 5431.25383696 15121.81875061 22364.18326097
v 6032.32806440 16042.75961303 28965.12028251
v 5890.88653194 18165.26457828 21179.72396566
v 6100.38330168 18070.43288466 29075.81556286
v 5565.29560837 19574.97832794 20318.07001679
v 6131.71494923 20068.67722902 29128.70362692
v 6563.19604153 22176.53663371 18513.71110816
v 5925.03645465 22546.28224698 17978.94781695
v 5284.27811741 21567.78611850 18742.04882879
v 5028.80261181 20471.60123216 19592.64463119
v 6146.29191210 22064.49759049 29147.86620979
v 6730.99711010 25206.24503341 15998.61946638
v 5486.46082978 23563.57822974 17024.98430892
v 6153.44986077 24061.97726696 29152.22094076
v 6196.19619749 26619.55063214 14892.04068849
v 6157.28300591 26055.81534496 29147.26396064
v 6626.04558388 27862.47754852 14093.20218403
v 6218.30603106 28696.04000445 13424.28350082
v 5187.60517994 27602.32752645 14055.61648754
v 6159.48430904 28030.93782448 29122.82962603
v 5834.02567236 29743.01827621 12537.44553619
v 6160.92378452 29954.49991635 29047.85572327
v 6409.28570736 32528.11405087 9112.98324171
v 5250.38287224 31739.76142372 10366.40000550
v 5560.92574468 30794.98579507 11491.42533369
v 6161.20272473 31766.80545887 28863.73645268
v 6578.32621756 34344.83073371 5934.76032591
v 6291.18473024 33909.59790412 6617.82093070
v 6479.45502152 33374.74156636 7573.57707454
v 6155.96625968 33382.09636729 28486.67341916
v 5702.09585116 35453.28478802 5471.10061865
v 5244.32104058 34858.81352913 5738.31124055
v 6133.98307666 34709.60705614 27828.16009846
v 5826.35774046 35989.90721576 5906.62506328
v 5834.43059603 36433.15561703 6962.66146739
v 5870.80684720 36715.76569154 8459.10222209
v 5903.70552819 36865.12121773 10216.98625310
v 5928.57291562 36930.57934903 12111.75814576
v 5946.63729903 36955.03467806 14071.37283208
v 5959.17175701 36963.62206155 16055.90865324
v 5968.18546950 36963.98649788 18042.56583992
v 5975.16225550 36946.95555856 20015.05348379
v 5980.89264708 36880.87845759 21950.66552417
v 5989.20849012 36704.76089623 23800.59184362
v 6021.34711392 36336.41468012 25464.77963173
v 6082.33225636 35692.02400823 26826.02965154
v 4144.12738378 4042.09043406 28092.33601062
v 4168.44553644 4309.72580370 27809.34727899
v 3358.97080036 3680.91171203 28012.72809227
v 3272.55856489 3729.91488198 28372.73198962
v 4079.98488398 5165.51470085 27404.08999005
v 3460.09605258 4602.44289508 28750.93665648
v 4018.35098389 6505.34650500 26832.43232772
v 3731.55756247 6146.40724773 28996.12482702
v 4114.11572160 8114.12864732 26073.61073667
v 3917.91220929 7990.84546459 29108.07170029
v 4444.99920930 10245.89336244 24844.67888297
v 4190.78557678 11227.41256125 24132.22860115
v 3293.70371434 9962.40507006 24505.28798930
v 3370.83185687 8868.28403846 25225.57788697
v 4700.81267240 9541.54188901 25493.85204651
v 4062.45980513 10003.47753957 29150.09378089
v 3913.25315243 12704.81780627 23232.25330782
v 4192.49432942 12098.83710607 29187.86872137
v 4551.03385504 14194.13573452 22564.65531890
v 4337.02475669 15223.06009521 22043.21924388
v 3105.47282947 13875.31055629 22431.19504176
v 4286.77763796 14189.91125542 29249.38147723
v 4310.97426446 16652.65251328 21470.00301173
v 4337.15138022 16235.50983112 29310.97837938
v 4167.01669814 18097.80455528 20824.50326870
v 4360.20152861 18248.89186060 29349.15690640
v 3856.74430272 19381.50664715 20113.32929392
v 4369.80293661 20250.63991025 29366.32474624
v 4906.79556389 22347.67835220 17950.95727984
v 4004.96409449 21664.77305872 18434.93252427
v 3617.50850023 20614.98320162 19258.09047716
v 4373.54025108 22249.79689706 29371.99581598
v 4718.63736601 25025.11672749 15750.10596746
v 3295.90469841 23721.83312223 16568.05077380
v 3644.52926010 22513.83536221 17638.36324526
v 4375.01585126 24247.60323812 29371.83447322
v 3869.49223824 26388.41562124 14697.51552213
v 4375.72202993 26239.41435896 29364.05431802
v 4343.47902409 28660.25376575 13266.20218495
v 3797.90890510 27550.56301752 13951.56511422
v 4376.11226526 28210.78066920 29335.45998487
v 4023.98680677 30006.89317120 12216.76776644
v 4375.57378288 30128.31379558 29253.79541656
v 4476.98414271 32493.85527350 9374.31562267
v 3896.90538135 31919.99933496 10260.45321922
v 3926.28803763 31152.50745417 11142.02151291
v 4370.26462753 31929.86786083 29060.41068215
v 5481.77289920 34263.12720811 6286.25992922
v 5205.62091851 33808.68810658 7066.97209021
v 4952.90047742 33183.73065813 8183.27272641
v 4347.48127582 33524.94394814 28673.50682961
v 4352.54089092 35440.96358757 5619.53269533
v 3494.76360868 35102.47296787 5928.47584352
v 4094.87396733 34373.34761872 6523.09246428
v 4017.96640914 33723.36718545 7487.39111083
v 4276.91088258 34818.31950169 28008.32537578
v 4123.66064150 35902.80128793 5919.34044890
v 3912.89489945 36365.37426448 6907.56797828
v 3929.27950816 36696.23612944 8402.13674456
v 3955.40428051 36871.39565362 10165.17991846
v 3971.67507012 36948.88164468 12067.50403266
v 3981.27248154 36977.43871842 14031.41107696
v 3987.61569105 36985.42287788 16017.94948239
v 3993.10623394 36983.09004838 18007.93315610
v 3999.46821536 36965.03594541 19987.08896876
v 4005.59051026 36905.40053868 21934.82345810
v 4004.56667173 36745.09985743 23815.57666491
v 4001.90440036 36386.54769932 25565.67203970
v 4113.65893052 35760.92435197 26997.00767354
v 2902.42760649 3999.72150123 27669.40700926
v 2017.40320445 3179.95433147 28175.14900265
v 1560.08813422 3036.50184829 28902.03558488
v 2495.28917443 5012.29604320 27085.17284858
v 2117.80635072 4621.93694810 29283.47809822
v 2399.15256164 6510.37725723 26292.95964989
v 2376.76197723 6451.66630578 29459.71962916
v 2798.78790361 7636.28280511 25744.29770154
v 1975.56785026 7821.23414547 25352.38039125
v 2019.27958146 7107.54892861 25788.62932915
v 2499.81124674 8407.02719809 29534.17681731
v 2272.40202288 10678.66565623 23854.04076183
v 2037.28298405 9025.47154740 24665.53273103
v 2569.46812844 10425.22177189 29565.98361503
v 1555.05232949 12340.77773775 22957.63841797
v 2615.89192305 12463.39639890 29590.76047279
v 2592.51381911 15304.26375754 21795.26505971
v 1606.56990121 13837.03723538 22303.24878121
v 2643.96292308 14493.06325786 29617.09894070
v 2896.42429755 16859.13433552 21210.90864333
v 2657.60666210 16506.16585087 29638.72765226
v 2412.61526332 18065.34172037 20661.01691316
v 2662.86866709 18508.20788005 29651.66387315
v 2245.75643252 19487.22263312 19897.27850133
v 2664.09857155 20506.08883848 29657.66437632
v 2406.84721587 21327.62070920 18555.51232400
v 2313.75855722 20397.60493468 19303.24443507
v 2663.81323330 22503.34999768 29659.56598826
v 2657.04251776 24975.64865807 15531.26783820
v 1569.06127798 23915.69310855 16276.11398855
v 1604.54694661 22621.50622615 17382.61199827
v 2663.34592714 24499.79186219 29657.98458525
v 1911.26467933 26077.72508017 14704.21254249
v 2663.21703676 26490.23040787 29648.48252675
v 2980.05296998 28039.60082170 13597.40248460
v 2605.16819962 27134.71179992 14110.68759767
v 2663.30963218 28459.30896405 29616.16533924
v 2279.74081417 29003.20773779 12944.88685659
v 1892.86394253 27845.16314363 13650.79671411
v 2661.97034161 30370.96097091 29527.20130453
v 3170.99419443 32402.19071895 9675.41875716
v 2645.19858376 31748.58920478 10561.39168363
v 2100.89633571 30621.80456671 11727.33027931
v 2651.95928889 32156.25483096 29322.70298461
v 3217.27966694 33150.30832977 8522.93351685
v 1643.34510912 32593.38047031 9514.75605185
v 1106.96459901 31637.31594386 10822.17889750
v 2608.76870527 33711.89034314 28926.33878249
v 3071.01249226 35650.65674743 5914.18154879
v 1565.33950273 35353.99509236 6183.93442492
v 2538.30127561 34676.58239334 6463.32315408
v 2708.57744108 33995.70892589 7290.79131019
v 2456.09819377 34927.42338652 28272.69339029
v 1684.34790216 36172.05329667 6757.90715513
v 1892.23413987 36639.40725982 8360.51480698
v 1960.26427000 36850.31039225 10134.55636832
v 1984.57783413 36943.73042632 12043.82449153
v 1993.84587674 36979.83029631 14013.28194225
v 1998.56189006 36990.32778364 16002.14116525
v 2003.54461088 36987.75447599 17992.22372877
v 2012.50000868 36969.34957870 19970.62189109
v 2028.23337314 36915.34726593 21916.82385156
v 2043.34460689 36779.53489519 23795.04902065
v 2014.71839095 36465.59357559 25576.46790506
v 1888.80617246 35792.44633328 27307.67803140
v -1204.35281695 -483.97919623 29808.31231347
v -1305.04187976 -488.56374298 29582.13726587
v -1541.46818890 -1111.84580686 29828.44956609
v -1686.66924364 -955.62172468 29984.83651139
v -488.63454231 993.99087534 29482.36250298
v -1148.76887268 369.15690076 29186.36021733
v -1391.11405297 70.45673605 29989.25155511
v 1073.74134976 3604.04899780 27624.25125187
v -285.80559121 1980.75368032 28528.18817501
v 416.34863992 3009.97350060 29640.63252631
v -1036.20180002 1614.97103039 30018.41275005
v 366.55423534 5010.15620280 26762.97064070
v 778.50837996 4896.36713824 29805.53272026
v -754.93043372 3423.02619795 30122.03538128
v 851.48733892 6701.94802182 25797.55595584
v -501.55359057 7086.44991227 25433.30231700
v -1013.49278077 5987.17801281 26113.33832273
v 920.95977322 6837.11905302 29892.29771326
v -637.21878579 5314.17402348 30197.33602552
v 683.20108312 7929.31605833 25017.27119974
v 528.82414506 9255.60279850 24293.32913283
v -826.95997286 8140.25328526 24840.17626028
v 976.11784594 8825.50289408 29925.78509336
v -599.40865705 7269.93396999 30224.06325066
v 280.10887756 10676.95740998 23589.99977797
v 1000.29785283 10837.97605649 29938.72922001
v -588.53185840 9270.30502330 30224.87224229
v -216.80439148 11789.74701372 23109.01142331
v 1011.79573747 12854.43506038 29949.90133745
v -587.99395478 11290.09677829 30225.56664522
v 882.73793073 14683.70967401 21973.95438836
v -77.78198039 13273.21834547 22556.98308233
v 1016.10749708 14862.55621948 29963.52237578
v -594.48756981 13305.01981587 30238.56831698
v 1019.57253965 16350.57421045 21353.95096985
v -650.72123216 14904.30065949 21995.54297286
v 1016.39356024 16859.59906556 29976.81667454
v -601.86248661 15299.88776975 30262.78398928
v 308.00506633 18330.70473593 20499.63333752
v 1014.09404169 18849.94803226 29986.69972061
v -609.61707451 17274.36876802 30288.48984362
v 919.06125407 20155.25028521 19392.31889250
v -492.15736184 20634.75359149 19088.96472577
v -1001.00034569 19582.49016288 19890.03708200
v 1010.35099933 20839.83057504 29992.36913338
v -620.98643032 19242.15675621 30307.17894842
v 589.00203987 21389.55186446 18415.29700454
v -81.47653715 22242.38014470 17693.09900647
v -917.94453098 21477.39727703 18426.56747879
v 1006.91609455 22832.53726690 29994.37083163
v -633.20302302 21216.96016521 30317.27314310
v 561.36013653 25036.75623808 15399.16708005
v -305.18816269 23480.79753076 16697.91031887
v 1005.00545064 24826.83878943 29991.90627343
v -641.88438411 23202.22557833 30320.07771800
v 593.18478291 26164.88038686 14562.80775659
v 23.68470438 26881.02226042 14132.75496512
v -681.99894624 26050.90569995 14692.89494953
v 1005.00678984 26816.15894844 29978.90511921
v -645.44088217 25193.61438943 30314.24809182
v 1227.56261885 27003.16758466 14090.22489529
v 431.38928495 28052.51010385 13502.49914333
v 1006.95237309 28783.10999916 29937.67783120
v -643.53837195 27181.81518986 30290.62646594
v 206.14068011 29709.91883469 12521.86001546
v 1010.05196396 30686.57384205 29831.09793823
v -635.14976516 29147.05331161 30225.99227895
v 483.95440031 30889.62671917 11635.11813003
v -144.16442415 31488.70504787 11123.74135477
v -837.25068824 30785.17662037 11831.54690773
v 1009.52907976 32444.81661250 29600.35148511
v -615.34711912 31043.26630188 30078.18015287
v 765.66075861 34370.20153099 6944.49396902
v -867.66970767 34692.07797104 6363.53548551
v -1185.90259792 34067.03167008 7293.01897443
v -161.13135083 33265.26254898 8622.60749478
v 1636.51282091 33501.51021075 8143.83370179
v -106.54323730 32237.38905324 10183.92920968
v 986.58825201 33926.85167551 29183.41106473
v -569.06776396 32774.03551230 29787.04239841
v -324.01676212 35227.70867110 6063.90712055
v -1481.77284090 35646.48800325 5790.22818576
v -1738.39479322 35171.03720275 5864.97957969
v 912.18418301 34936.16276388 28602.06106961
v -487.74819101 34196.19225697 29275.27544897
v -492.13164435 35945.14745161 6278.90605841
v -623.72421248 36407.06751316 7238.46844272
v -184.55922489 36620.33727360 8391.98322751
v -50.90659860 36811.47376733 10105.55395571
v -11.13950133 36916.09813414 12016.53935526
v 1.17018119 36965.38061235 13995.62801108
v 6.20576287 36983.76633979 15989.20970578
v 12.04957963 36983.73513347 17978.45619817
v 23.56925828 36964.16666620 19952.11814277
v 47.81044228 36908.10408961 21891.69987823
v 94.89055496 36781.23090108 23757.09517747
v 153.09804641 36534.83900977 25469.91520623
v 35.64372885 36047.87212313 27038.01933312
v -274.19282816 35265.57116526 28376.97177274
v -1886.43847487 -1397.17189247 29912.30874240
v -1973.80435624 -1145.23510443 29715.20034247
v -2137.45465280 -1464.94851466 29884.46097495
v -2333.07137257 -1113.43427008 29992.14196169
v -1840.29846105 -396.64145731 29386.34468121
v -2125.50743702 -445.24909729 30111.41988100
v -1997.58155470 603.43586809 28960.62011486
v -2149.48468157 659.80159239 30207.78438068
v -1093.05375605 3297.25071379 27639.22311797
v -2319.78541327 1937.35759620 28345.39192063
v -2092.90336448 2178.50090712 30315.39139250
v -2094.95418090 4684.89533205 26951.43384864
v -2097.07498457 3896.20109630 30386.86298680
v -2182.26809683 7090.96841099 25637.47756051
v -2431.03864253 5861.34504726 26329.98726018
v -2121.41009483 5753.91061867 30400.82372011
v -1264.17324275 9558.19902844 24169.69718088
v -2155.91565039 8441.33853119 24872.96762257
v -2142.94787853 7718.98075424 30371.71356943
v -1122.14315860 10897.99243663 23538.98603733
v -2153.55230406 9756.07704957 30345.37492766
v -1610.64107479 12100.07873096 23171.90828521
v -2178.49725035 11808.03595916 30350.74362013
v -1960.12601160 13650.25325049 22662.69035942
v -2207.19556812 13828.55202669 30395.40812306
v -1190.05552152 16567.83166492 21417.72051042
v -2402.66365331 15164.69528188 22164.33684873
v -2221.38362290 15789.62531169 30461.87455468
v -2171.58937235 18248.24042989 20852.22177732
v -2243.41502395 17709.67614966 30517.71070386
v -2086.20772540 20660.88472021 19344.31137421
v -2442.46552450 19578.68494201 20180.12500263
v -2276.67797891 19635.56963132 30551.29142752
v -1433.02076652 22419.53205916 17699.17308475
v -2045.43738132 21685.38265059 18458.77239085
v -2304.57195698 21588.60760982 30566.82013941
v -1754.04012589 24982.26431313 15668.12395964
v -2589.38997438 23503.95573857 17106.72619444
v -2321.41106058 23564.59597399 30567.47720849
v -1335.66001177 27316.75874051 14008.17758157
v -2029.66896895 26259.28567173 14726.93107175
v -2326.07544276 25551.84273013 30550.76345681
v -1121.84831589 28668.28496455 13259.14359322
v -2320.17736847 27537.13358842 30501.44400080
v -1777.68467460 29804.41875552 12668.01814965
v -2302.69065772 29501.88216593 30389.24047641
v -1344.54426068 31677.53204872 11030.67727257
v -2326.20795680 30938.66652532 11923.69833525
v -2256.96152878 31406.21681183 30169.46927596
v -2115.92848371 34606.03892147 6450.67070627
v -2710.41478956 34098.89885324 7420.48258989
v -2208.82592074 33422.19247310 8637.24494297
v -1719.70176113 32560.46457049 9956.93116446
v -2096.22719784 33128.20957089 29791.08153216
v -2721.60820903 35643.38400492 5673.14945480
v -3218.98983363 35133.70600500 6017.08295778
v -1913.57477290 34470.15566185 29168.16455952
v -2353.10271088 36037.97218909 6055.82827790
v -2132.60197953 36362.74313622 7002.94612148
v -2056.11150689 36596.84183940 8340.20600474
v -1990.32915402 36733.84401900 10014.00482789
v -1977.96872968 36838.67971455 11944.60875102
v -1975.25249963 36914.14134930 13954.93024787
v -1975.19108485 36954.77301397 15963.21236075
v -1969.81099778 36966.06371225 17953.57825049
v -1955.12541385 36948.71264882 19918.49880415
v -1928.69829980 36886.98256542 21844.32969050
v -1875.84707514 36744.29636871 23704.70060743
v -1750.29540663 36478.57162897 25433.26990347
v -1449.89320436 36156.56247222 26733.55582772
v -2072.61713147 35412.58280813 28123.08569622
v -2454.20355696 -1206.53104315 29812.28242439
v -2862.76393993 -347.51611489 29494.84419139
v -2930.80227352 -768.12504896 29866.04164080
v -3170.35431172 44.55378902 30093.15135924
v -3408.56304421 1066.43364337 28910.88401280
v -3094.69748470 1325.39368239 30305.39976518
v -3129.37483590 3281.55385085 27793.91558373
v -3688.70652064 2163.53196646 28408.76832200
v -3344.04571922 2683.86749574 30395.90608977
v -3401.27356673 4369.40850160 27344.93054072
v -3468.57291448 4331.49634668 30424.39747812
v -3027.37106473 6323.72523315 26234.59409685
v -3657.04699000 5584.97928039 26930.08493690
v -3586.66818448 6155.03261374 30335.99784642
v -2718.98857563 9352.23753026 24579.39431114
v -3613.17620223 8493.87602418 25484.24085804
v -3655.76340227 7008.36829299 26225.71754649
v -3622.15495128 8203.42695688 30232.68100382
v -2635.07394990 10749.68512422 23970.43176015
v -3671.35022906 9934.58614744 24755.39399903
v -3651.04335303 10337.49043389 30197.83857163
v -3410.00200114 12626.16052235 23504.09221092
v -3761.03088269 12455.84190749 30243.32881124
v -3347.13711473 14140.25238588 22826.18218014
v -3794.86484211 14468.57006558 30386.38740521
v -3050.83100541 16618.32129842 21758.41906508
v -3930.49047633 15370.84389236 22548.75043557
v -3799.94770399 16313.61456007 30534.41218794
v -3769.50139211 17830.45797561 21511.40877487
v -3878.12386527 18128.59974154 30621.38053074
v -3012.96953735 20087.13103515 20045.06202199
v -3837.96216751 19422.82774366 20841.11346053
v -3946.50734435 20004.22072401 30670.82162700
v -2642.61693680 22374.68986553 18070.97960885
v -3112.86361487 21652.36293377 18913.67720768
v -3588.53018485 20765.62343591 19880.10298944
v -3998.76482340 21935.25657944 30685.69547714
v -3613.84953677 24815.92468289 16297.64935195
v -4252.04016913 24020.33976384 17335.43753830
v -3939.57430271 22807.86180187 18389.07883435
v -4024.78514105 23902.26906974 30676.18213278
v -2751.32725361 27079.85157250 14376.70119462
v -3414.02587978 26165.85635763 15226.94679901
v -4030.32687818 25878.75073413 30635.73341257
v -2940.73772444 28493.69083699 13693.18596013
v -3746.56121243 27406.68218637 14543.73606128
v -4025.45145866 27849.79657735 30541.52109695
v -3385.30627338 30164.51061826 12823.39507938
v -4018.48270575 29810.29680660 30361.06711284
v -2803.06849613 31865.97637754 11132.17977673
v -3534.83713335 31203.94239207 12066.35463509
v -4003.74012184 31794.00591314 30047.35520665
v -3216.11402554 34570.64673784 6715.83623907
v -3748.59312177 34304.62063745 7449.55223320
v -3863.37343772 33798.62556140 8661.37382789
v -3580.66258539 32806.88380129 10260.37006109
v -3400.68142987 33539.27793853 29617.51767660
v -3933.42759272 35673.75438663 5657.62220811
v -4516.40956795 35429.16500343 6086.85647808
v -4339.95874904 34851.82459683 6974.44803769
v -3169.11860659 34543.57544962 29069.64374037
v -4310.20460827 33920.02648776 29301.81679734
v -4139.75027791 34767.42774347 28556.00370630
v -3698.81219619 35994.06566535 5886.42688914
v -3622.78929069 36278.41895148 6758.28901294
v -3587.12491973 36483.53434218 8061.85915866
v -3702.80461488 36559.35694775 9718.73534332
v -3846.33912312 36633.16958815 11732.81042190
v -3888.22437959 36768.39161036 13856.03594966
v -3914.99590873 36866.16282907 15904.53268180
v -3921.99782393 36911.94134927 17902.35756288
v -3904.45131128 36909.30643816 19856.80854328
v -3869.28893093 36850.09304884 21755.44280733
v -3831.54779647 36696.11004822 23584.64811542
v -3764.65880269 36376.04097467 25341.19529131
v -3546.10316436 35780.75788524 27085.95531628
v -3598.75515015 -131.68075294 29792.38030304
v -4303.12730996 774.15791944 29479.13027900
v -4223.68639542 568.15537985 29900.80876552
v -4394.73425222 1662.60007664 30146.59641842
v -4337.93781390 2945.46484699 28264.69139896
v -4713.47002619 2102.72701540 28882.66679721
v -4408.16897985 3202.04507877 30312.49114406
v -4405.29222948 4198.28149355 27853.20152170
v -5091.48673776 3354.24946482 28534.77671603
v -4719.08927698 4596.10769324 30197.31561914
v -4880.00071497 5575.22444660 27719.12013914
v -4932.42044669 6499.84446204 29858.05888329
v -4316.65807183 7786.64581165 26268.05753999
v -4745.83408274 7087.52246377 27069.79313316
v -4836.09538562 8884.03404952 29741.13854018
v -4270.08188742 11314.61792908 24530.96126113
v -4772.30527506 10128.27612173 25537.05368293
v -4912.58924974 8731.67999510 26457.14647475
v -5013.70930179 11081.06547757 29719.07022405
v -4870.05894723 12709.59592008 24255.53085715
v -5788.17350745 12135.21062721 25515.76539042
v -5424.77756741 13442.11039873 29870.11298983
v -4727.81535444 14149.75407350 23494.10331601
v -5731.67992415 13629.65113659 24514.25369528
v -5090.03049897 15256.71163958 30304.83727362
v -4530.41495246 16769.23854330 22293.53642704
v -5124.35010707 15685.45142365 23072.11971509
v -5329.16640163 16801.11876407 30449.37511515
v -4990.15943666 18271.33479279 22009.06781092
v -5442.05964606 18541.68766617 30584.86649604
v -5337.91511255 19689.60592432 21699.80250799
v -5572.73358581 20369.03180475 30627.08358521
v -4232.43215673 21784.78033867 19499.28129143
v -5066.94761843 21104.42496257 20735.07793197
v -5649.63476562 22295.38405802 30628.68604286
v -4677.31971758 24843.61518125 16758.36394034
v -5169.52254271 24610.47131312 17436.30462018
v -5218.31312701 23882.10998403 18390.89761869
v -5267.26664149 22714.38737201 19667.17482383
v -5683.46317939 24248.05220461 30599.19156117
v -4690.18169870 25754.80325754 16137.59991368
v -5342.21363478 25328.43273586 16947.09283164
v -5696.98553245 26188.90706324 30525.25984579
v -4365.31474320 28230.11188918 14382.38960095
v -4897.54828146 27265.41363415 15348.09337023
v -5721.20539625 28107.39812808 30381.38793447
v -4526.85674010 29438.14358054 13803.67972043
v -5304.38720977 28667.88938300 14776.38682109
v -5788.50109818 30000.79390448 30155.64800690
v -4031.65575056 31906.53952697 11610.07637295
v -4800.74583551 31069.51294183 12891.23020567
v -5556.81129582 31463.96354929 29948.08246992
v -6579.47536141 30706.84449750 29912.62128198
v -6451.75522708 31860.77109218 29641.17574945
v -4536.03520900 34372.40069233 8022.42105972
v -5013.88757669 34187.14163324 9044.79710040
v -5000.33729401 33562.06259568 10258.91304726
v -5103.90317794 32529.87236692 11768.50714548
v -4936.75163036 32750.67911435 29685.49883019
v -5886.02639520 33481.58757279 29092.53202435
v -4709.75450488 35750.58369787 5737.34364413
v -5131.81827401 35691.62993556 6144.95507577
v -5384.76477789 35425.70570590 7040.15380696
v -5446.36306487 34849.13808234 8384.33365513
v -5780.35293737 34804.86009038 28033.56298306
v -4515.05930380 35924.14841828 5767.63883043
v -4796.17158999 36091.29435356 6500.40856671
v -4825.74845839 36287.00844666 7776.80910269
v -4802.27969202 36373.90233387 9123.28191311
v -5567.87521133 36124.24526140 11119.17581612
v -5646.27888236 36418.23031912 13685.55411397
v -5742.22003443 36644.64306788 15803.08912058
v -5802.48786406 36770.71106303 17809.04515908
v -5794.97982737 36811.11004511 19750.95658275
v -5742.79198699 36768.72863464 21622.10397945
v -5670.40319133 36632.42715917 23379.00957146
v -5691.92222990 36320.60435380 25047.77356360
v -5716.36477854 35736.09241473 26649.02300506
v -4924.12526499 1263.92640986 29810.92223724
v -5343.99083362 1904.10675816 29497.91084957
v -5385.23979465 2026.63171850 29867.69564504
v -5381.03684081 3106.42749836 30001.15078281
v -5473.48148425 4645.10168257 28575.75034132
v -5672.75933254 3153.67680702 29169.18441724
v -5616.48577944 4568.72016674 29755.14388510
v -5460.10652528 6517.64977243 28239.18405830
v -5883.40706640 4274.26604522 29296.11336425
v -5660.94798913 5664.42153289 29169.59961182
v -5586.34755060 8638.84297658 27795.02807017
v -5500.55358659 7630.56440122 29009.13478206
v -5841.14089513 10502.37574150 26769.99617043
v -6091.53623164 10479.56758260 27998.62226038
v -5660.35757646 9731.89282031 28910.38881143
v -6394.80941015 11872.13224869 26635.20301964
v -6550.09510194 11830.35696884 27540.67740862
v -6203.07617186 11896.87554165 28824.62445828
v -6131.74984246 15295.94775708 24139.49476182
v -6678.46212686 14155.73752894 25433.73215432
v -6941.89281126 13213.04192002 26773.48151991
v -7099.51756465 13313.46994634 28148.97010045
v -6756.16568372 13784.64390800 29156.72523038
v -6709.22306482 15597.01722625 29842.97316629
v -5909.81331070 17117.99780208 23181.12279225
v -6874.28696105 16808.38780321 24328.30442695
v -7263.84893410 15921.96901946 25320.86008700
v -6553.36005703 17390.99368124 30305.48665936
v -6192.57188610 19012.83585471 22774.19307990
v -7016.78724873 18312.21651487 23998.22206087
v -7658.89008059 17629.78451784 25204.57099855
v -6876.97577696 18939.22280325 30361.56383750
v -6353.03421611 20759.34980766 22251.52158548
v -7220.44646675 20106.35391147 23672.81379894
v -7887.29097208 19393.78377382 24987.80183517
v -7051.57161518 20815.68213556 30374.39210998
v -6572.36547524 22736.60842052 21372.27477459
v -7504.10773878 22016.81060381 23281.61246357
v -8148.22741679 21234.41559585 24767.42686445
v -7140.67455810 22752.15123424 30352.06161515
v -6048.57853925 25272.98217589 18039.28182984
v -6331.08999838 24155.33078553 19690.31791458
v -7412.87158985 24671.77348450 21136.47214077
v -7899.87519522 23892.53588063 22775.54781407
v -8723.91656281 23419.61811782 24757.07570260
v -7186.10776553 24660.63483553 30305.81818695
v -5781.70433844 26455.60688981 16679.58132239
v -6855.12417489 26952.30806719 17811.89596183
v -7257.21729003 25898.79350632 19569.33218408
v -8002.28836550 26011.21680821 21011.23951538
v -8371.84210764 25546.01752551 22286.72128963
v -8809.88666826 25060.86666953 23659.50961930
v -7231.10328106 26511.40164317 30210.04041364
v -6440.84783101 28456.65067370 16107.66946303
v -7473.71496935 28330.55747788 17638.69318289
v -7839.76179665 27589.64296687 18998.90534187
v -8155.71361627 26981.76722432 20307.67707166
v -7355.13635990 28315.56651160 30046.39296648
v -5876.27767857 30042.08667433 14458.59975386
v -7115.96056698 30503.98953647 15513.89529637
v -7700.04264839 29671.71060899 16929.51902942
v -7162.63700072 29701.78658669 29954.44143658
v -8064.79282543 29102.12228468 29789.25778322
v -7846.34809255 30451.33243718 29634.83285788
v -6605.69695992 32133.57187355 13833.94158014
v -7745.56151755 31803.75639085 15510.81956898
v -7984.64086716 30947.00084073 16401.81243697
v -7805.92379858 32113.29055989 29250.34200328
v -5842.29391334 34423.71625387 10126.23007658
v -6156.29068293 33634.21658079 11852.69293853
v -7257.42270730 33985.09251161 13472.33581367
v -8208.87942218 33331.59907318 15353.99499453
v -7652.04859512 33649.87801784 28619.51514098
v -5035.55933624 35898.05624577 5996.73716699
v -5458.38696479 35848.83323849 6672.63788226
v -5899.88185706 35756.73199278 7497.05513175
v -6049.85192326 35486.61515721 8271.46293724
v -6215.79604347 35218.89127869 9605.23973237
v -6234.73329784 35674.34554964 10112.55507317
v -6592.24308712 35019.26259640 11713.36594080
v -7477.66528040 34959.35030113 13616.95975316
v -7992.91627240 34507.81768782 14524.42948497
v -7572.47918902 34861.12204169 27603.09403240
v -5642.97297087 36030.73478376 7558.26766044
v -5791.28411480 36061.97231655 8996.28474528
v -7084.82221388 35718.31956947 13752.33846632
v -7313.31486396 36198.71272502 15716.48815543
v -7530.29546182 36463.38879085 17676.02217879
v -7586.11377643 36594.39656760 19591.86702996
v -7504.19864665 36599.61095074 21423.12658430
v -7415.35455247 36469.49553282 23175.52546169
v -7185.73514298 36275.25032923 24597.92226882
v -7717.30012626 35697.61134963 26156.06763564
v -5776.19070614 2670.12594837 29668.79775350
v -5901.44534936 3506.06411569 29623.37968578
v -7597.45652454 15074.81032784 26557.47159440
v -7655.79071870 14491.94974276 27624.48957833
v -7704.55315498 15045.61368757 28739.46344552
v -8080.20357574 16862.27969785 26438.20367775
v -8267.07502851 16119.71903393 27783.21520488
v -8411.26724814 16317.51339500 28813.81537812
v -7990.99389496 16227.96622081 29382.23485021
v -7788.64372773 17508.88084870 29850.87447622
v -8387.08581259 18677.66158118 26249.53241652
v -8691.00611704 17978.05477053 27486.66127385
v -8751.34581194 17455.18522231 28566.09699985
v -8079.82202668 19492.22728973 29904.99169219
v -8604.35371737 20474.90070182 26026.31651811
v -8938.13545579 19815.43647425 27257.60159165
v -9000.36760043 19116.88449518 28387.37353829
v -8253.16988235 21457.39578540 29852.60920844
v -8798.63442932 21974.15961209 25776.63257851
v -9166.59966371 21712.76381484 26964.37762557
v -9214.58557318 20962.95592583 28166.77981805
v -8346.78464841 23383.66058328 29830.02710203
v -9192.61884638 22943.71099341 26223.01700444
v -9489.14310079 23194.66755792 27118.91412397
v -9444.73375725 22535.02757458 27889.80431667
v -8421.21566738 25176.00196132 29803.20143148
v -8845.03888138 27176.23213130 21655.00588203
v -9343.34714824 26641.63335491 23309.91634022
v -9737.28418258 25873.30868873 25027.81448259
v -9574.33842978 24330.07332518 26342.14857350
v -8515.32212074 26860.38966660 29727.90489960
v -8340.46638530 29193.07210704 18461.27923010
v -8850.12433880 28478.89890818 20254.90945384
v -9383.04909842 28416.62673413 21523.45147850
v -9952.54327720 28427.11469255 22741.17412082
v -10408.02411108 27901.12596912 24341.18814755
v -8586.54694311 28133.66089601 29678.90201927
v -9498.54878543 27558.31857910 29163.08629363
v -9074.56604203 29093.81731578 29397.61188503
v -8614.22960878 30756.08418106 17608.28260848
v -9475.89785628 30561.50946534 19434.73799705
v -9988.68231786 29725.33399595 21381.81695341
v -10943.92159121 30088.39547031 22993.36933877
v -10859.89945750 29192.70645209 23859.84615772
v -9476.99770008 30691.42315330 29173.09241282
v -8561.19590055 32032.17495863 16581.30159765
v -9495.66496518 32230.84173648 18000.10525955
v -10502.88427054 32396.18108206 19695.35695993
v -10521.47732890 31301.46169653 20774.73964536
v -10903.65153793 30955.48345624 21937.41222749
v -9278.04057696 32451.90316889 28939.23434575
v -9102.53409679 33052.79976992 16804.61111220
v -9731.61889753 33445.78467560 17584.13633055
v -10270.85039042 33318.33818128 18553.31875166
v -9344.69374085 33857.64703778 28244.70234368
v -6111.63916485 35845.84465360 8254.70834076
v -6256.31190492 35696.64263979 9051.18857711
v -7992.03558057 35178.03813323 14636.45411793
v -8614.56367575 34698.53943708 15624.11808981
v -9281.47369894 34057.47031827 16698.33150266
v -8947.70890053 34913.85027833 27272.10381466
v -10421.33832855 34421.03511700 27357.21333962
v -9376.69901439 35291.08955370 26432.36820189
v -8329.69665197 35551.44838155 15705.18656964
v -9011.10848325 35881.02860935 17556.91557175
v -9200.18145823 36207.16577236 19374.45119958
v -9177.28052737 36261.98612147 21207.78694391
v -8839.76612793 36241.86415473 22775.65939070
v -9124.54508403 35811.63960689 24745.62607184
v -8500.78917450 17108.14621333 29258.91978785
v -8671.45618935 18424.67205777 29273.99647947
v -8881.57865430 20262.98109422 29171.75277110
v -9134.15592835 22418.95458628 28945.42296781
v -9699.61330568 24411.41745324 27983.12624272
v -9132.69338034 24186.66210265 29198.99319367
v -10273.81826028 26137.44794857 26781.95617083
v -10294.90776142 26901.77631792 28150.02916798
v -9384.53709576 25794.20326906 29064.89078376
v -10840.22191957 27704.39894203 25865.80092701
v -10996.57697106 27763.69678293 27201.32152096
v -10913.13546374 28087.50726357 27958.68064895
v -10476.42630206 28936.23556808 28643.91849321
v -11320.91800798 29923.23331041 24007.81469256
v -11592.87477359 29656.49489861 25141.75480333
v -10771.88115316 30460.84072356 28853.28473116
v -10536.70898906 31583.34628495 28975.95681399
v -11345.55842814 31160.79423286 28695.60248517
v -10962.73787989 32208.52605167 20732.93462900
v -11272.97797091 32004.42206214 21589.43922740
v -11751.63234303 31648.47312925 22987.36711583
v -11749.29231608 30737.41366125 23989.91220626
v -10467.87578934 32767.96096231 28766.99265113
v -11323.55294557 32120.49378047 28704.73994266
v -10219.99455430 34381.58808863 18079.97757092
v -11097.59752967 33992.90769349 19623.03928126
v -11440.99032917 33105.10996524 21000.43889254
v -11846.29819263 32715.86254543 22241.74644694
v -10641.63120973 33544.69849423 28329.86379027
v -11200.07650007 32944.78677912 28575.89878792
v -9366.61116386 35065.73580301 16956.54939898
v -10124.87688027 35305.71085495 18187.80374958
v -10979.70981097 35050.02186380 19201.98083306
v -10304.24588522 35118.44464201 26097.76363187
v -11173.59446151 34566.55384642 26409.31073928
v -10965.08875916 35003.61200464 25066.58561503
v -11550.34690925 33941.32393607 27136.67556420
v -11377.93763385 33472.01032054 27997.36599823
v -10402.49689991 35709.69430424 19207.09541548
v -10753.49435565 35771.09876461 20793.72604792
v -10483.47822301 35606.78126867 22943.14708835
v -11602.73479203 29034.17603829 26619.17819064
v -11384.85960090 28997.92145330 27709.39803544
v -12051.49865444 29980.03541348 26356.46863421
v -12071.84493785 30293.19193498 27272.90723247
v -11476.65400928 30196.54011139 28290.18637313
v -12145.63165782 31523.51996251 23938.49774336
v -12359.65342302 31460.76888109 24825.50007781
v -12445.44027220 30998.77905992 26236.82078868
v -12533.94224770 31403.47549746 27196.08403471
v -12581.95499452 32161.42178489 27286.55987829
v -12034.33038404 31617.10349648 28021.75695520
v -11807.67004911 34397.81015484 20937.44237617
v -12048.63810248 33791.73067881 22409.59804864
v -12297.38027366 32821.81928226 23323.56252295
v -12352.52059343 32093.39057057 23937.35857896
v -12507.96091961 33633.88578117 24783.16684592
v -12089.98497835 33884.43740699 25923.83681057
v -12694.13616904 33116.25642374 25579.01305523
v -12136.16135798 32975.12481280 27436.17596642
v -12663.65299310 32762.00309826 26537.77774487
v -11726.59532801 32654.77507551 28298.59232399
v -11707.61238172 34969.01696064 20155.23063938
v -11965.00013517 35115.11085863 20801.58469478
v -11747.68016304 35435.47012868 20778.05381321
v -11696.38846697 35025.02199175 21791.95424700
v -12427.23577641 33566.85444710 23801.04769068
v -11895.06672027 34446.68310002 23847.87966606
v -11435.40406069 35469.49422828 20088.04196439
v -12753.65785575 32213.63588329 25796.81214001
v -12760.15394659 31931.88739456 26693.69402114
v -12635.39443196 32762.93241549 24597.62405605
v -11914.82751623 35334.72831306 20437.94151425
f 3 2 1
f 5 4 1
f 1 4 3
f 5 6 4
f 1 2 7
f 7 2 8
f 1 9 5
f 1 7 9
f 6 5 10
f 10 5 9
f 13 12 11
f 15 14 11
f 11 14 13
f 17 16 15
f 15 16 14
f 16 17 8
f 17 7 8
f 17 18 7
f 7 19 9
f 7 18 19
f 10 9 20
f 20 9 19
f 23 22 21
f 23 21 12
f 21 11 12
f 21 24 11
f 11 25 15
f 11 24 25
f 15 26 17
f 15 25 26
f 17 27 18
f 17 26 27
f 18 28 19
f 18 27 28
f 20 19 29
f 29 19 28
f 21 22 30
f 30 22 31
f 21 32 24
f 21 30 32
f 24 33 25
f 24 32 33
f 25 34 26
f 25 33 34
f 26 35 27
f 26 34 35
f 27 36 28
f 27 35 36
f 29 28 37
f 37 28 36
f 31 38 30
f 30 38 32
f 32 38 39
f 32 39 33
f 33 39 40
f 33 40 34
f 34 40 41
f 34 41 35
f 35 41 42
f 35 42 36
f 36 42 43
f 36 43 37
f 46 45 44
f 44 47 46
f 50 49 48
f 50 48 45
f 48 44 45
f 48 51 44
f 47 44 52
f 52 44 51
f 48 49 53
f 53 49 54
f 48 55 51
f 48 53 55
f 52 51 56
f 56 51 55
f 59 58 57
f 61 60 57
f 57 60 59
f 60 61 54
f 61 53 54
f 61 62 53
f 53 63 55
f 53 62 63
f 56 55 64
f 64 55 63
f 57 58 65
f 65 58 66
f 65 2 3
f 61 65 3
f 57 65 61
f 61 3 4
f 61 4 62
f 62 4 6
f 67 62 6
f 63 62 67
f 64 63 68
f 68 63 67
f 71 70 69
f 73 72 69
f 69 72 71
f 75 74 73
f 73 74 72
f 74 75 66
f 75 65 66
f 75 76 65
f 76 8 2
f 76 2 65
f 10 77 67
f 10 67 6
f 68 67 78
f 78 67 77
f 69 70 79
f 79 70 80
f 79 12 13
f 73 79 13
f 69 79 73
f 73 13 14
f 73 14 75
f 75 14 16
f 75 16 76
f 76 16 8
f 20 81 77
f 20 77 10
f 78 77 82
f 82 77 81
f 85 84 83
f 87 86 83
f 83 86 85
f 87 88 86
f 79 80 23
f 80 22 23
f 80 89 22
f 79 23 12
f 29 90 81
f 29 81 20
f 82 81 91
f 91 81 90
f 83 84 92
f 92 84 93
f 83 94 87
f 83 92 94
f 88 87 95
f 87 96 95
f 87 94 96
f 98 97 96
f 96 97 95
f 100 99 98
f 98 99 97
f 89 99 100
f 31 89 100
f 22 89 31
f 37 101 90
f 37 90 29
f 91 90 102
f 102 90 101
f 93 103 92
f 92 103 94
f 94 103 104
f 94 104 96
f 96 104 105
f 96 105 98
f 98 105 106
f 98 106 100
f 100 106 107
f 100 107 31
f 107 38 31
f 107 108 38
f 38 109 39
f 108 109 38
f 39 110 40
f 109 110 39
f 40 111 41
f 110 111 40
f 41 112 42
f 111 112 41
f 42 113 43
f 112 113 42
f 37 43 101
f 43 114 101
f 43 113 114
f 101 114 102
f 117 116 115
f 115 118 117
f 115 116 46
f 116 45 46
f 116 119 45
f 46 47 115
f 47 118 115
f 47 120 118
f 123 122 121
f 49 50 121
f 50 123 121
f 50 124 123
f 50 45 119
f 50 119 124
f 52 120 47
f 52 125 120
f 121 122 126
f 126 122 127
f 126 54 49
f 126 49 121
f 56 125 52
f 56 128 125
f 131 130 129
f 58 59 129
f 59 131 129
f 59 132 131
f 60 126 127
f 132 60 127
f 59 60 132
f 126 60 54
f 64 128 56
f 64 133 128
f 136 135 134
f 138 137 134
f 134 137 136
f 137 138 130
f 138 129 130
f 138 139 129
f 139 66 58
f 139 58 129
f 68 133 64
f 68 140 133
f 134 135 71
f 135 70 71
f 135 141 70
f 134 71 72
f 134 72 138
f 138 72 74
f 138 74 139
f 139 74 66
f 78 140 68
f 78 142 140
f 145 144 143
f 141 145 143
f 80 141 143
f 70 141 80
f 82 142 78
f 82 146 142
f 148 147 85
f 85 147 84
f 149 85 86
f 149 148 85
f 151 150 88
f 150 86 88
f 150 149 86
f 153 152 151
f 151 152 150
f 152 153 144
f 153 143 144
f 153 154 143
f 154 89 80
f 154 80 143
f 91 146 82
f 91 155 146
f 158 157 156
f 147 158 156
f 93 147 156
f 84 147 93
f 95 151 88
f 151 95 97
f 151 97 153
f 153 97 99
f 153 99 154
f 154 99 89
f 102 155 91
f 102 159 155
f 157 160 156
f 156 160 93
f 160 103 93
f 160 161 103
f 103 162 104
f 161 162 103
f 104 163 105
f 162 163 104
f 105 164 106
f 163 164 105
f 106 165 107
f 164 165 106
f 107 166 108
f 165 166 107
f 108 167 109
f 166 167 108
f 109 168 110
f 167 168 109
f 110 169 111
f 168 169 110
f 111 170 112
f 169 170 111
f 112 171 113
f 170 171 112
f 113 172 114
f 171 172 113
f 102 114 159
f 159 114 172
f 175 174 173
f 173 176 175
f 179 178 177
f 181 180 177
f 177 180 179
f 180 181 174
f 174 181 173
f 181 116 173
f 116 117 173
f 117 118 173
f 118 176 173
f 118 182 176
f 185 184 183
f 185 183 178
f 183 177 178
f 183 186 177
f 177 187 181
f 177 186 187
f 187 119 116
f 187 116 181
f 120 182 118
f 120 188 182
f 183 184 189
f 189 184 190
f 189 122 123
f 186 189 123
f 183 189 186
f 186 123 124
f 186 124 187
f 187 124 119
f 125 188 120
f 125 191 188
f 194 193 192
f 194 192 190
f 192 189 190
f 192 195 189
f 195 127 122
f 195 122 189
f 128 191 125
f 128 196 191
f 199 198 197
f 201 200 197
f 197 200 199
f 200 201 193
f 193 201 192
f 201 130 192
f 130 131 192
f 192 131 132
f 192 132 195
f 195 132 127
f 133 196 128
f 133 202 196
f 197 198 136
f 198 135 136
f 198 203 135
f 197 136 137
f 197 137 201
f 201 137 130
f 140 202 133
f 140 204 202
f 207 206 205
f 203 207 205
f 141 203 205
f 135 203 141
f 142 204 140
f 142 208 204
f 211 210 209
f 211 209 206
f 206 209 205
f 209 144 205
f 144 145 205
f 205 145 141
f 146 208 142
f 146 212 208
f 215 214 213
f 147 148 213
f 148 215 213
f 148 216 215
f 217 148 149
f 217 216 148
f 218 149 150
f 218 217 149
f 152 209 210
f 218 152 210
f 150 152 218
f 209 152 144
f 155 212 146
f 155 219 212
f 213 214 158
f 214 157 158
f 214 220 157
f 213 158 147
f 159 219 155
f 159 221 219
f 220 222 157
f 157 222 160
f 160 223 161
f 222 223 160
f 161 224 162
f 223 224 161
f 162 225 163
f 224 225 162
f 163 226 164
f 225 226 163
f 164 227 165
f 226 227 164
f 165 228 166
f 227 228 165
f 166 229 167
f 228 229 166
f 167 230 168
f 229 230 167
f 168 231 169
f 230 231 168
f 169 232 170
f 231 232 169
f 170 233 171
f 232 233 170
f 171 234 172
f 233 234 171
f 159 172 221
f 221 172 234
f 237 236 235
f 235 238 237
f 235 236 239
f 239 236 240
f 238 235 241
f 241 235 239
f 239 240 242
f 242 240 243
f 241 239 244
f 244 239 242
f 242 243 245
f 245 243 246
f 244 242 247
f 247 242 245
f 250 249 248
f 252 251 248
f 248 251 250
f 251 252 246
f 252 245 246
f 252 253 245
f 247 245 254
f 254 245 253
f 248 249 255
f 255 249 256
f 248 257 252
f 248 255 257
f 257 174 175
f 253 257 175
f 252 257 253
f 175 176 253
f 176 254 253
f 176 258 254
f 261 260 259
f 261 259 256
f 256 259 255
f 259 178 255
f 178 179 255
f 255 179 180
f 255 180 257
f 257 180 174
f 182 258 176
f 182 262 258
f 259 260 185
f 260 184 185
f 260 263 184
f 259 185 178
f 188 262 182
f 188 264 262
f 267 266 265
f 263 267 265
f 190 263 265
f 184 263 190
f 191 264 188
f 191 268 264
f 271 270 269
f 273 272 269
f 269 272 271
f 272 273 266
f 266 273 265
f 273 193 265
f 193 194 265
f 265 194 190
f 196 268 191
f 196 274 268
f 269 270 199
f 270 198 199
f 270 275 198
f 269 199 200
f 269 200 273
f 273 200 193
f 202 274 196
f 202 276 274
f 275 203 198
f 277 203 275
f 204 276 202
f 204 278 276
f 280 279 207
f 207 279 206
f 207 203 277
f 207 277 280
f 208 278 204
f 208 281 278
f 284 283 282
f 210 211 282
f 211 284 282
f 211 285 284
f 211 206 279
f 211 279 285
f 212 281 208
f 212 286 281
f 287 214 215
f 287 215 288
f 215 289 288
f 215 216 289
f 290 216 217
f 290 289 216
f 218 282 283
f 290 218 283
f 217 218 290
f 282 218 210
f 219 286 212
f 219 291 286
f 293 292 287
f 292 214 287
f 292 220 214
f 293 287 288
f 221 291 219
f 221 294 291
f 292 295 220
f 220 295 222
f 222 296 223
f 295 296 222
f 223 297 224
f 296 297 223
f 224 298 225
f 297 298 224
f 225 299 226
f 298 299 225
f 226 300 227
f 299 300 226
f 227 301 228
f 300 301 227
f 228 302 229
f 301 302 228
f 229 303 230
f 302 303 229
f 230 304 231
f 303 304 230
f 231 305 232
f 304 305 231
f 232 306 233
f 305 306 232
f 233 307 234
f 306 307 233
f 221 234 294
f 294 234 307
f 310 309 308
f 308 311 310
f 308 309 237
f 309 236 237
f 309 312 236
f 237 238 308
f 238 311 308
f 238 313 311
f 312 240 236
f 314 240 312
f 241 313 238
f 241 315 313
f 314 243 240
f 316 243 314
f 244 315 241
f 244 317 315
f 320 319 318
f 322 321 318
f 318 321 320
f 316 321 322
f 246 316 322
f 243 316 246
f 247 317 244
f 247 323 317
f 318 319 250
f 319 249 250
f 319 324 249
f 318 250 251
f 318 251 322
f 322 251 246
f 254 323 247
f 254 325 323
f 328 327 326
f 324 328 326
f 256 324 326
f 249 324 256
f 258 325 254
f 258 329 325
f 326 327 261
f 327 260 261
f 327 330 260
f 326 261 256
f 262 329 258
f 262 331 329
f 330 263 260
f 332 263 330
f 264 331 262
f 264 333 331
f 336 335 334
f 266 267 334
f 267 336 334
f 267 337 336
f 267 263 332
f 267 332 337
f 268 333 264
f 268 338 333
f 340 339 271
f 271 339 270
f 272 334 335
f 340 272 335
f 271 272 340
f 334 272 266
f 274 338 268
f 274 341 338
f 339 275 270
f 342 275 339
f 276 341 274
f 276 343 341
f 346 345 344
f 342 346 344
f 277 342 344
f 275 342 277
f 278 343 276
f 278 347 343
f 344 345 280
f 345 279 280
f 345 348 279
f 344 280 277
f 281 347 278
f 281 349 347
f 351 350 284
f 284 350 283
f 352 284 285
f 352 351 284
f 285 279 348
f 285 348 352
f 286 349 281
f 286 353 349
f 355 354 289
f 289 354 288
f 356 289 290
f 356 355 289
f 290 283 350
f 290 350 356
f 291 353 286
f 291 357 353
f 359 358 293
f 293 358 292
f 293 288 354
f 293 354 359
f 294 357 291
f 294 360 357
f 358 361 292
f 292 361 295
f 295 362 296
f 361 362 295
f 296 363 297
f 362 363 296
f 297 364 298
f 363 364 297
f 298 365 299
f 364 365 298
f 299 366 300
f 365 366 299
f 300 367 301
f 366 367 300
f 301 368 302
f 367 368 301
f 302 369 303
f 368 369 302
f 303 370 304
f 369 370 303
f 304 371 305
f 370 371 304
f 305 372 306
f 371 372 305
f 306 373 307
f 372 373 306
f 294 307 360
f 360 307 373
f 376 375 374
f 374 377 376
f 374 375 310
f 375 309 310
f 375 378 309
f 310 311 374
f 311 377 374
f 311 379 377
f 378 312 309
f 380 312 378
f 313 379 311
f 313 381 379
f 380 314 312
f 382 314 380
f 315 381 313
f 315 383 381
f 386 385 384
f 388 387 384
f 384 387 386
f 382 387 388
f 316 382 388
f 314 382 316
f 317 383 315
f 317 389 383
f 384 385 320
f 385 319 320
f 385 390 319
f 384 320 321
f 384 321 388
f 388 321 316
f 323 389 317
f 323 391 389
f 394 393 392
f 390 394 392
f 324 390 392
f 319 390 324
f 325 391 323
f 325 395 391
f 392 393 328
f 393 327 328
f 393 396 327
f 392 328 324
f 329 395 325
f 329 397 395
f 396 330 327
f 398 330 396
f 331 397 329
f 331 399 397
f 398 332 330
f 400 332 398
f 333 399 331
f 333 401 399
f 402 335 336
f 402 336 403
f 336 404 403
f 336 337 404
f 337 332 400
f 337 400 404
f 338 401 333
f 338 405 401
f 407 406 340
f 340 406 339
f 340 335 402
f 408 340 402
f 407 340 408
f 408 402 403
f 341 405 338
f 341 409 405
f 406 342 339
f 410 342 406
f 343 409 341
f 343 411 409
f 413 412 346
f 346 412 345
f 346 342 410
f 346 410 413
f 347 411 343
f 347 414 411
f 412 348 345
f 415 348 412
f 349 414 347
f 349 416 414
f 418 417 351
f 351 417 350
f 419 351 352
f 419 418 351
f 352 348 415
f 352 415 419
f 353 416 349
f 353 420 416
f 421 354 355
f 356 422 355
f 355 422 421
f 423 422 356
f 350 423 356
f 417 423 350
f 357 420 353
f 357 424 420
f 426 425 359
f 359 425 358
f 359 354 421
f 427 359 421
f 426 359 427
f 427 421 422
f 427 422 428
f 428 422 423
f 360 424 357
f 360 429 424
f 425 430 358
f 358 430 361
f 361 431 362
f 430 431 361
f 362 432 363
f 431 432 362
f 363 433 364
f 432 433 363
f 364 434 365
f 433 434 364
f 365 435 366
f 434 435 365
f 366 436 367
f 435 436 366
f 367 437 368
f 436 437 367
f 368 438 369
f 437 438 368
f 369 439 370
f 438 439 369
f 370 440 371
f 439 440 370
f 371 441 372
f 440 441 371
f 372 442 373
f 441 442 372
f 360 373 429
f 429 373 442
f 444 443 376
f 376 443 375
f 376 377 444
f 444 377 445
f 443 378 375
f 446 378 443
f 379 445 377
f 379 447 445
f 446 380 378
f 448 380 446
f 381 447 379
f 381 449 447
f 452 451 450
f 448 452 450
f 382 448 450
f 380 448 382
f 383 449 381
f 383 453 449
f 455 454 386
f 386 454 385
f 387 450 451
f 455 387 451
f 386 387 455
f 450 387 382
f 389 453 383
f 389 456 453
f 454 390 385
f 457 390 454
f 391 456 389
f 391 458 456
f 460 459 394
f 394 459 393
f 394 390 457
f 394 457 460
f 395 458 391
f 395 461 458
f 459 396 393
f 462 396 459
f 397 461 395
f 397 463 461
f 462 398 396
f 464 398 462
f 399 463 397
f 399 465 463
f 464 400 398
f 466 400 464
f 401 465 399
f 401 467 465
f 469 468 404
f 404 468 403
f 404 400 466
f 404 466 469
f 405 467 401
f 405 470 467
f 472 471 407
f 407 471 406
f 473 407 408
f 473 472 407
f 408 403 468
f 408 468 473
f 409 470 405
f 409 474 470
f 471 410 406
f 475 410 471
f 411 474 409
f 411 476 474
f 477 412 413
f 478 477 413
f 410 478 413
f 475 478 410
f 414 476 411
f 414 479 476
f 481 480 477
f 480 412 477
f 480 415 412
f 481 477 478
f 416 479 414
f 416 482 479
f 483 417 418
f 419 484 418
f 418 484 483
f 485 484 419
f 415 485 419
f 480 485 415
f 420 482 416
f 420 486 482
f 488 487 483
f 487 417 483
f 487 423 417
f 488 483 484
f 488 484 489
f 489 484 485
f 424 486 420
f 424 490 486
f 491 425 426
f 491 426 492
f 426 493 492
f 426 427 493
f 494 427 428
f 494 493 427
f 428 423 487
f 428 487 494
f 429 490 424
f 429 495 490
f 491 430 425
f 492 496 491
f 496 430 491
f 496 431 430
f 431 497 432
f 496 497 431
f 432 498 433
f 497 498 432
f 433 499 434
f 498 499 433
f 434 500 435
f 499 500 434
f 435 501 436
f 500 501 435
f 436 502 437
f 501 502 436
f 437 503 438
f 502 503 437
f 438 504 439
f 503 504 438
f 439 505 440
f 504 505 439
f 440 506 441
f 505 506 440
f 441 507 442
f 506 507 441
f 429 442 495
f 495 442 507
f 510 509 508
f 508 511 510
f 508 509 512
f 512 509 513
f 511 508 514
f 514 508 512
f 516 515 444
f 444 515 443
f 517 512 445
f 512 516 445
f 516 444 445
f 512 513 516
f 514 512 518
f 518 512 517
f 515 446 443
f 519 446 515
f 447 520 517
f 447 517 445
f 518 517 521
f 521 517 520
f 524 523 522
f 519 524 522
f 448 519 522
f 446 519 448
f 449 525 520
f 449 520 447
f 521 520 526
f 526 520 525
f 529 528 527
f 529 527 523
f 523 527 522
f 527 451 522
f 451 452 522
f 522 452 448
f 453 530 525
f 453 525 449
f 526 525 531
f 531 525 530
f 527 528 455
f 528 454 455
f 528 532 454
f 527 455 451
f 456 533 530
f 456 530 453
f 531 530 534
f 534 530 533
f 532 457 454
f 535 457 532
f 458 536 533
f 458 533 456
f 534 533 537
f 537 533 536
f 538 459 460
f 539 538 460
f 457 539 460
f 535 539 457
f 461 540 536
f 461 536 458
f 537 536 541
f 541 536 540
f 543 542 538
f 542 459 538
f 542 462 459
f 543 538 539
f 463 544 540
f 463 540 461
f 541 540 545
f 545 540 544
f 542 464 462
f 546 464 542
f 465 547 544
f 465 544 463
f 545 544 548
f 548 544 547
f 551 550 549
f 546 551 549
f 466 546 549
f 464 546 466
f 467 552 547
f 467 547 465
f 548 547 553
f 553 547 552
f 556 555 554
f 556 554 550
f 550 554 549
f 554 468 549
f 468 469 549
f 549 469 466
f 470 557 552
f 470 552 467
f 553 552 558
f 558 552 557
f 560 559 472
f 472 559 471
f 473 554 555
f 560 473 555
f 472 473 560
f 554 473 468
f 474 561 557
f 474 557 470
f 558 557 562
f 562 557 561
f 565 564 563
f 559 565 563
f 475 559 563
f 471 559 475
f 476 566 561
f 476 561 474
f 562 561 567
f 567 561 566
f 563 564 568
f 568 564 569
f 568 478 475
f 568 475 563
f 479 570 566
f 479 566 476
f 567 566 571
f 571 566 570
f 568 569 481
f 569 480 481
f 569 572 480
f 568 481 478
f 482 573 570
f 482 570 479
f 571 570 574
f 574 570 573
f 577 576 575
f 572 577 575
f 485 572 575
f 480 572 485
f 486 578 573
f 486 573 482
f 574 573 579
f 579 573 578
f 582 581 580
f 584 583 580
f 580 583 582
f 487 488 584
f 488 583 584
f 488 585 583
f 489 575 576
f 585 489 576
f 488 489 585
f 575 489 485
f 490 586 578
f 490 578 486
f 579 578 587
f 587 578 586
f 590 589 588
f 590 588 581
f 581 588 580
f 588 492 580
f 492 493 580
f 580 493 494
f 580 494 584
f 584 494 487
f 495 591 586
f 495 586 490
f 587 586 592
f 592 586 591
f 589 593 588
f 588 593 492
f 593 496 492
f 593 594 496
f 496 595 497
f 594 595 496
f 497 596 498
f 595 596 497
f 498 597 499
f 596 597 498
f 499 598 500
f 597 598 499
f 500 599 501
f 598 599 500
f 501 600 502
f 599 600 501
f 502 601 503
f 600 601 502
f 503 602 504
f 601 602 503
f 504 603 505
f 602 603 504
f 505 604 506
f 603 604 505
f 506 605 507
f 604 605 506
f 495 507 591
f 507 606 591
f 507 605 606
f 591 606 592
f 609 608 607
f 607 610 609
f 607 608 510
f 608 509 510
f 608 611 509
f 510 511 607
f 511 610 607
f 511 612 610
f 611 513 509
f 613 513 611
f 514 612 511
f 514 614 612
f 616 615 516
f 516 615 515
f 516 513 613
f 516 613 616
f 518 614 514
f 518 617 614
f 615 519 515
f 618 519 615
f 521 617 518
f 521 619 617
f 621 620 524
f 524 620 523
f 524 519 618
f 524 618 621
f 526 619 521
f 526 622 619
f 624 623 529
f 529 623 528
f 529 523 620
f 529 620 624
f 531 622 526
f 531 625 622
f 623 532 528
f 626 532 623
f 534 625 531
f 534 627 625
f 626 535 532
f 628 535 626
f 537 627 534
f 537 629 627
f 628 539 535
f 630 539 628
f 541 629 537
f 541 631 629
f 633 632 543
f 543 632 542
f 543 539 630
f 543 630 633
f 545 631 541
f 545 634 631
f 632 546 542
f 635 546 632
f 548 634 545
f 548 636 634
f 638 637 551
f 551 637 550
f 551 546 635
f 551 635 638
f 553 636 548
f 553 639 636
f 641 640 556
f 556 640 555
f 556 550 637
f 556 637 641
f 558 639 553
f 558 642 639
f 644 643 560
f 560 643 559
f 560 555 640
f 560 640 644
f 562 642 558
f 562 645 642
f 647 646 565
f 565 646 564
f 565 559 643
f 565 643 647
f 567 645 562
f 567 648 645
f 646 569 564
f 649 569 646
f 571 648 567
f 571 650 648
f 649 572 569
f 651 572 649
f 574 650 571
f 574 652 650
f 654 653 577
f 577 653 576
f 577 572 651
f 577 651 654
f 579 652 574
f 579 655 652
f 657 656 582
f 582 656 581
f 658 582 583
f 658 657 582
f 659 583 585
f 659 658 583
f 585 576 653
f 585 653 659
f 587 655 579
f 587 660 655
f 662 661 590
f 590 661 589
f 590 581 656
f 590 656 662
f 592 660 587
f 592 663 660
f 661 664 589
f 589 664 593
f 593 665 594
f 664 665 593
f 594 666 595
f 665 666 594
f 595 667 596
f 666 667 595
f 596 668 597
f 667 668 596
f 597 669 598
f 668 669 597
f 598 670 599
f 669 670 598
f 599 671 600
f 670 671 599
f 600 672 601
f 671 672 600
f 601 673 602
f 672 673 601
f 602 674 603
f 673 674 602
f 603 675 604
f 674 675 603
f 604 676 605
f 675 676 604
f 605 677 606
f 676 677 605
f 592 606 663
f 663 606 677
f 678 608 609
f 610 678 609
f 680 679 678
f 679 608 678
f 679 611 608
f 678 610 680
f 610 681 680
f 610 612 681
f 679 613 611
f 682 613 679
f 614 681 612
f 614 683 681
f 685 684 616
f 616 684 615
f 616 613 682
f 616 682 685
f 617 683 614
f 617 686 683
f 684 618 615
f 687 618 684
f 619 686 617
f 619 688 686
f 689 620 621
f 690 689 621
f 618 690 621
f 687 690 618
f 622 688 619
f 622 691 688
f 692 623 624
f 693 692 624
f 693 624 620
f 694 693 620
f 689 694 620
f 694 689 690
f 625 691 622
f 625 695 691
f 697 696 692
f 696 623 692
f 696 626 623
f 697 692 693
f 627 695 625
f 627 698 695
f 696 628 626
f 699 628 696
f 629 698 627
f 629 700 698
f 699 630 628
f 701 630 699
f 631 700 629
f 631 702 700
f 704 703 633
f 633 703 632
f 633 630 701
f 633 701 704
f 634 702 631
f 634 705 702
f 703 635 632
f 706 635 703
f 636 705 634
f 636 707 705
f 708 637 638
f 709 708 638
f 635 709 638
f 706 709 635
f 639 707 636
f 639 710 707
f 711 640 641
f 712 711 641
f 712 641 637
f 713 712 637
f 708 713 637
f 713 708 709
f 642 710 639
f 642 714 710
f 716 715 644
f 644 715 643
f 644 640 711
f 717 644 711
f 716 644 717
f 717 711 712
f 645 714 642
f 645 718 714
f 719 646 647
f 720 719 647
f 643 720 647
f 715 720 643
f 648 718 645
f 648 721 718
f 723 722 719
f 722 646 719
f 722 649 646
f 723 719 720
f 650 721 648
f 650 724 721
f 722 651 649
f 725 651 722
f 652 724 650
f 652 726 724
f 728 727 654
f 654 727 653
f 654 651 725
f 654 725 728
f 655 726 652
f 655 729 726
f 730 656 657
f 730 657 731
f 657 732 731
f 657 658 732
f 733 658 659
f 733 732 658
f 659 653 727
f 659 727 733
f 660 729 655
f 660 734 729
f 736 735 662
f 662 735 661
f 662 656 730
f 737 662 730
f 736 662 737
f 737 730 731
f 740 739 738
f 739 734 738
f 734 663 738
f 734 660 663
f 735 741 661
f 661 741 664
f 664 742 665
f 741 742 664
f 665 743 666
f 742 743 665
f 666 744 667
f 743 744 666
f 667 745 668
f 744 745 667
f 668 746 669
f 745 746 668
f 669 747 670
f 746 747 669
f 670 748 671
f 747 748 670
f 671 749 672
f 748 749 671
f 672 750 673
f 749 750 672
f 673 751 674
f 750 751 673
f 674 752 675
f 751 752 674
f 675 753 676
f 752 753 675
f 738 677 740
f 677 753 740
f 677 676 753
f 677 738 663
f 754 679 680
f 681 754 680
f 756 755 754
f 755 679 754
f 755 682 679
f 754 681 756
f 681 757 756
f 681 683 757
f 758 684 685
f 759 758 685
f 682 759 685
f 755 759 682
f 686 757 683
f 686 760 757
f 762 761 758
f 761 684 758
f 761 687 684
f 762 758 759
f 688 760 686
f 688 763 760
f 761 690 687
f 764 690 761
f 691 763 688
f 691 765 763
f 766 693 694
f 767 766 694
f 690 767 694
f 764 767 690
f 695 765 691
f 695 768 765
f 769 696 697
f 770 769 697
f 770 697 693
f 771 770 693
f 766 771 693
f 771 766 767
f 698 768 695
f 698 772 768
f 773 699 769
f 769 699 696
f 769 770 774
f 769 774 773
f 700 772 698
f 700 775 772
f 777 776 773
f 776 699 773
f 776 701 699
f 777 773 774
f 702 775 700
f 702 778 775
f 780 779 704
f 704 779 703
f 704 701 776
f 704 776 780
f 705 778 702
f 705 781 778
f 779 706 703
f 782 706 779
f 707 781 705
f 707 783 781
f 782 709 706
f 784 709 782
f 710 783 707
f 710 785 783
f 786 712 713
f 787 786 713
f 709 787 713
f 784 787 709
f 714 785 710
f 714 788 785
f 789 715 716
f 789 716 790
f 716 791 790
f 716 717 791
f 717 712 786
f 792 717 786
f 791 717 792
f 792 786 787
f 718 788 714
f 718 793 788
f 795 794 789
f 794 715 789
f 794 720 715
f 795 789 790
f 721 793 718
f 721 796 793
f 797 722 723
f 798 797 723
f 720 798 723
f 794 798 720
f 724 796 721
f 724 799 796
f 801 800 797
f 800 722 797
f 800 725 722
f 801 797 798
f 726 799 724
f 726 802 799
f 803 727 728
f 804 803 728
f 725 804 728
f 800 804 725
f 807 806 805
f 806 802 805
f 802 729 805
f 802 726 729
f 808 731 732
f 808 732 809
f 732 810 809
f 732 733 810
f 733 727 803
f 811 733 803
f 810 733 811
f 811 803 804
f 807 805 812
f 807 812 813
f 734 812 729
f 729 812 805
f 815 814 736
f 736 814 735
f 816 736 737
f 816 815 736
f 737 731 808
f 817 737 808
f 816 737 817
f 817 808 809
f 813 812 739
f 740 813 739
f 818 813 740
f 739 812 734
f 814 819 735
f 735 819 741
f 741 820 742
f 819 820 741
f 742 821 743
f 820 821 742
f 743 822 744
f 821 822 743
f 744 823 745
f 822 823 744
f 745 824 746
f 823 824 745
f 746 825 747
f 824 825 746
f 747 826 748
f 825 826 747
f 748 827 749
f 826 827 748
f 749 828 750
f 827 828 749
f 750 829 751
f 828 829 750
f 751 830 752
f 829 830 751
f 752 831 753
f 830 831 752
f 740 753 818
f 818 753 831
f 832 755 756
f 757 832 756
f 834 833 832
f 833 755 832
f 833 759 755
f 832 757 834
f 757 835 834
f 757 760 835
f 836 761 762
f 837 836 762
f 759 837 762
f 833 837 759
f 763 835 760
f 763 838 835
f 839 764 836
f 836 764 761
f 836 837 840
f 841 836 840
f 839 836 841
f 840 838 841
f 838 765 841
f 838 763 765
f 842 767 839
f 839 767 764
f 843 839 841
f 842 839 843
f 768 843 765
f 765 843 841
f 844 770 771
f 767 842 771
f 842 844 771
f 842 845 844
f 846 842 843
f 845 842 846
f 772 846 768
f 768 846 843
f 847 774 844
f 844 774 770
f 848 844 845
f 847 844 848
f 849 845 846
f 848 845 849
f 775 849 772
f 772 849 846
f 850 776 777
f 851 850 777
f 851 777 774
f 852 851 774
f 847 852 774
f 852 847 848
f 852 848 853
f 853 848 849
f 853 849 854
f 849 775 854
f 775 855 854
f 775 778 855
f 856 779 780
f 776 850 780
f 850 856 780
f 850 857 856
f 850 851 858
f 850 858 857
f 781 855 778
f 781 859 855
f 860 782 856
f 856 782 779
f 861 856 857
f 860 856 861
f 857 858 862
f 857 862 861
f 783 859 781
f 783 863 859
f 864 784 860
f 860 784 782
f 865 860 861
f 864 860 865
f 861 862 866
f 861 866 865
f 785 863 783
f 785 867 863
f 868 787 864
f 864 787 784
f 869 864 865
f 868 864 869
f 865 866 870
f 865 870 869
f 788 867 785
f 788 871 867
f 872 790 791
f 792 873 791
f 791 873 872
f 787 868 792
f 868 873 792
f 868 874 873
f 875 868 869
f 874 868 875
f 869 870 876
f 869 876 875
f 793 871 788
f 793 877 871
f 878 794 795
f 790 872 795
f 872 878 795
f 872 879 878
f 880 872 873
f 879 872 880
f 874 882 881
f 880 874 881
f 873 874 880
f 882 874 875
f 882 875 883
f 883 875 876
f 796 877 793
f 796 884 877
f 885 798 878
f 878 798 794
f 879 887 886
f 885 879 886
f 878 879 885
f 887 879 880
f 887 880 888
f 888 880 881
f 799 884 796
f 799 889 884
f 890 800 801
f 798 885 801
f 885 890 801
f 885 891 890
f 885 886 892
f 885 892 891
f 895 894 893
f 894 889 893
f 889 802 893
f 889 799 802
f 896 804 890
f 890 804 800
f 891 898 897
f 896 891 897
f 890 891 896
f 898 891 892
f 895 893 806
f 807 895 806
f 899 895 807
f 806 893 802
f 900 809 810
f 811 901 810
f 810 901 900
f 804 896 811
f 896 901 811
f 896 902 901
f 896 897 903
f 896 903 902
f 813 899 807
f 813 904 899
f 905 814 815
f 816 906 815
f 815 906 905
f 906 816 907
f 816 908 907
f 816 817 908
f 817 809 900
f 909 817 900
f 908 817 909
f 911 910 909
f 900 911 909
f 901 911 900
f 902 913 912
f 911 902 912
f 901 902 911
f 913 902 903
f 818 904 813
f 818 914 904
f 905 819 814
f 819 905 820
f 820 905 906
f 907 915 906
f 915 820 906
f 915 821 820
f 821 916 822
f 915 916 821
f 911 823 910
f 823 916 910
f 823 822 916
f 912 917 911
f 917 823 911
f 917 824 823
f 824 918 825
f 917 918 824
f 825 919 826
f 918 919 825
f 826 920 827
f 919 920 826
f 827 921 828
f 920 921 827
f 828 922 829
f 921 922 828
f 829 923 830
f 922 923 829
f 830 924 831
f 923 924 830
f 818 831 914
f 914 831 924
f 925 833 834
f 835 925 834
f 926 837 925
f 925 837 833
f 838 926 835
f 835 926 925
f 926 840 837
f 840 926 838
f 927 851 852
f 853 928 852
f 852 928 927
f 854 929 853
f 853 929 928
f 855 929 854
f 930 858 927
f 927 858 851
f 931 927 928
f 930 927 931
f 929 933 932
f 931 929 932
f 928 929 931
f 929 855 933
f 855 934 933
f 855 859 934
f 935 862 930
f 930 862 858
f 936 930 931
f 935 930 936
f 931 932 937
f 931 937 936
f 863 934 859
f 863 938 934
f 939 866 935
f 935 866 862
f 940 935 936
f 939 935 940
f 936 937 941
f 936 941 940
f 867 938 863
f 867 942 938
f 943 870 939
f 939 870 866
f 944 939 940
f 943 939 944
f 940 941 945
f 940 945 944
f 871 942 867
f 871 946 942
f 947 876 943
f 943 876 870
f 944 949 948
f 947 944 948
f 943 944 947
f 949 944 945
f 877 946 871
f 877 950 946
f 951 881 882
f 883 952 882
f 882 952 951
f 953 952 883
f 953 883 876
f 954 953 876
f 947 954 876
f 954 947 948
f 884 950 877
f 884 955 950
f 956 886 887
f 888 957 887
f 887 957 956
f 881 951 888
f 951 957 888
f 951 958 957
f 959 951 952
f 958 951 959
f 952 953 960
f 952 960 959
f 963 962 961
f 962 955 961
f 955 889 961
f 955 884 889
f 964 892 956
f 956 892 886
f 965 956 957
f 964 956 965
f 966 957 958
f 965 957 966
f 959 968 967
f 966 959 967
f 958 959 966
f 968 959 960
f 963 961 894
f 895 963 894
f 969 963 895
f 894 961 889
f 970 897 898
f 892 964 898
f 964 970 898
f 964 971 970
f 965 973 972
f 971 965 972
f 964 965 971
f 973 965 966
f 973 966 974
f 974 966 967
f 899 969 895
f 899 975 969
f 976 903 970
f 970 903 897
f 971 978 977
f 976 971 977
f 970 971 976
f 978 971 972
f 904 975 899
f 904 979 975
f 980 907 908
f 909 981 908
f 908 981 980
f 910 981 909
f 982 912 913
f 983 982 913
f 983 913 903
f 984 983 903
f 976 984 903
f 984 976 977
f 987 986 985
f 986 979 985
f 979 914 985
f 979 904 914
f 980 915 907
f 915 980 916
f 916 980 981
f 916 981 910
f 982 917 912
f 983 988 982
f 988 917 982
f 988 918 917
f 918 989 919
f 988 989 918
f 919 990 920
f 989 990 919
f 920 991 921
f 990 991 920
f 921 992 922
f 991 992 921
f 922 993 923
f 992 993 922
f 985 924 987
f 924 993 987
f 924 923 993
f 924 985 914
f 994 932 933
f 934 994 933
f 995 937 994
f 994 937 932
f 938 995 934
f 934 995 994
f 996 941 995
f 995 941 937
f 942 996 938
f 938 996 995
f 997 945 996
f 996 945 941
f 946 997 942
f 942 997 996
f 998 948 949
f 945 997 949
f 997 998 949
f 997 999 998
f 950 999 946
f 946 999 997
f 1000 953 954
f 948 998 954
f 998 1000 954
f 998 1001 1000
f 1002 998 999
f 1001 998 1002
f 955 1002 950
f 950 1002 999
f 1004 1003 1000
f 1003 953 1000
f 1003 960 953
f 1004 1000 1001
f 1004 1001 1005
f 963 1006 962
f 1006 1001 962
f 1001 1002 962
f 1006 1005 1001
f 962 1002 955
f 1007 967 968
f 1008 1007 968
f 960 1008 968
f 1003 1008 960
f 969 1010 1009
f 1006 969 1009
f 963 969 1006
f 1010 1011 1009
f 1012 972 973
f 974 1013 973
f 973 1013 1012
f 1014 1013 974
f 1014 974 967
f 1015 1014 967
f 1007 1015 967
f 1015 1007 1008
f 975 1016 1010
f 975 1010 969
f 1011 1010 1017
f 1017 1010 1016
f 1018 977 978
f 1019 1018 978
f 1019 978 972
f 1020 1019 972
f 1012 1020 972
f 1020 1012 1013
f 1020 1013 1021
f 1021 1013 1014
f 979 1022 1016
f 979 1016 975
f 1017 1016 1023
f 1023 1016 1022
f 1024 983 984
f 977 1018 984
f 1018 1024 984
f 1018 1025 1024
f 1018 1019 1026
f 1018 1026 1025
f 1029 1028 1027
f 986 987 1027
f 1028 986 1027
f 1030 986 1028
f 979 986 1022
f 986 1031 1022
f 986 1030 1031
f 1022 1031 1023
f 1024 988 983
f 988 1024 989
f 989 1024 1025
f 1026 1032 1025
f 1032 989 1025
f 1032 990 989
f 990 1033 991
f 1032 1033 990
f 991 1034 992
f 1033 1034 991
f 1027 993 1029
f 993 1034 1029
f 993 992 1034
f 993 1027 987
f 1035 1003 1004
f 1005 1036 1004
f 1004 1036 1035
f 1006 1036 1005
f 1037 1008 1035
f 1035 1008 1003
f 1038 1035 1036
f 1037 1035 1038
f 1009 1039 1006
f 1039 1036 1006
f 1039 1038 1036
f 1011 1039 1009
f 1040 1014 1015
f 1041 1040 1015
f 1041 1015 1008
f 1042 1041 1008
f 1037 1042 1008
f 1042 1037 1038
f 1042 1038 1043
f 1045 1044 1043
f 1038 1045 1043
f 1039 1045 1038
f 1017 1045 1011
f 1011 1045 1039
f 1046 1019 1020
f 1021 1047 1020
f 1020 1047 1046
f 1048 1047 1021
f 1048 1021 1014
f 1049 1048 1014
f 1040 1049 1014
f 1052 1051 1050
f 1041 1049 1040
f 1054 1053 1051
f 1054 1051 1052
f 1053 1054 1044
f 1045 1053 1044
f 1055 1053 1045
f 1023 1055 1017
f 1017 1055 1045
f 1057 1056 1046
f 1056 1019 1046
f 1056 1026 1019
f 1059 1058 1057
f 1046 1059 1057
f 1047 1059 1046
f 1047 1048 1060
f 1061 1047 1060
f 1059 1047 1061
f 1061 1060 1050
f 1061 1050 1051
f 1029 1061 1051
f 1028 1029 1051
f 1028 1051 1030
f 1030 1051 1053
f 1030 1053 1031
f 1031 1053 1055
f 1031 1055 1023
f 1056 1062 1026
f 1026 1062 1032
f 1059 1033 1058
f 1033 1062 1058
f 1033 1032 1062
f 1033 1059 1034
f 1034 1059 1061
f 1034 1061 1029
f 1063 1041 1042
f 1043 1064 1042
f 1042 1064 1063
f 1044 1064 1043
f 1065 1048 1049
f 1049 1041 1065
f 1041 1063 1065
f 1052 1050 1065
f 1052 1065 1063
f 1052 1063 1054
f 1054 1063 1064
f 1054 1064 1044
f 1066 1056 1057
f 1058 1066 1057
f 1065 1060 1048
f 1060 1065 1050
f 1066 1062 1056
f 1062 1066 1058

