# https://github.com/mikedh/trimesh
v 11238.21254182 -20148.95722350 -721.58420876
v 10749.11645207 -20269.54453077 -1785.49841928
v 10488.15045598 -20709.76481074 -1031.13291383
v 10863.20236359 -20718.70020203 244.32396700
v 11394.74899081 -20227.15757975 798.74324683
v 11068.63261287 -20625.71137314 1367.45111867
v 11275.97801757 -20140.00608419 2073.56747832
v 10828.30570459 -20447.13277586 2270.55733995
v 11099.12157757 -19457.59862937 -1980.97295536
v 10587.55802333 -19033.93552484 -2768.13952810
v 10381.07435235 -19817.06427477 -2552.49192417
v 11512.86818128 -19275.56872450 -999.44363446
v 11602.84363549 -19433.52159653 181.31951417
v 11520.13156008 -19462.59270268 1585.80524450
v 10962.91637694 -19913.89959046 3096.94665634
v 11235.71819550 -19404.21944801 2836.14340573
v 10925.00010083 -19347.19115256 3652.33921025
v 10916.51219773 -18559.01975321 -2465.87646245
v 10137.35758092 -17993.37878528 -2940.72028183
v 11295.50485487 -18525.00418790 -1648.31827196
v 11503.89201072 -18506.07160556 -441.13754123
v 11494.41750681 -18565.75002887 949.20487141
v 11288.62297983 -18618.16044667 2303.86933297
v 10854.83569739 -18634.86816514 3501.96663478
v 10752.85226451 -17700.82139736 -2236.19416287
v 11041.77504414 -17606.99615665 -1144.63580914
v 11134.92329384 -17648.60614509 213.98459041
v 11066.00484494 -17784.35744283 1590.18249759
v 10895.43332140 -17968.10098319 2656.36729327
v 10007.64625804 -20470.85476111 -2040.47485263
v 9703.59502916 -20767.44657187 -1330.43474955
v 9940.69202363 -20765.50657985 -103.19429321
v 10506.78796924 -20718.65715124 1245.45991639
v 10304.01413028 -20355.50169001 2184.95689670
v 9819.49761040 -19068.41301422 -3058.83761291
v 9502.77340636 -19919.14096962 -2755.66639952
v 10494.32689981 -19995.77849055 3076.39277373
v 10639.15400775 -19545.85532548 3798.28439965
v 10658.07472836 -19032.29310958 4102.02347522
v 10400.42662141 -19151.72915021 4067.16085838
v 9015.91142218 -18029.51637105 -3208.37425101
v 10592.43370616 -18685.82638574 4111.03390488
v 10412.17729757 -18798.58413812 4154.49996103
v 10057.64938004 -16986.48381573 -2644.74595694
v 9195.02897338 -16680.61047163 -3065.95133831
v 10310.06782694 -16798.42097697 -1832.95762696
v 10476.57566266 -16831.24382482 -586.64067342
v 10516.82681187 -17036.14385767 786.06121914
v 10473.70202033 -17355.20736917 2063.04150309
v 10432.08080665 -17853.22705219 3073.39249596
v 10375.88218533 -18404.72125669 3779.22892055
v 9491.65100417 -16181.40355598 -2488.57566208
v 9533.42230183 -16118.33382037 -1424.69525945
v 9865.57954913 -16488.15645344 -89.77519837
v 9714.41191417 -16851.72158644 1119.97521198
v 9956.86156733 -17366.91504481 2372.89962005
v 8989.81343712 -20346.64626945 -2082.73259129
v 9081.04732092 -20590.87580551 -1035.58768702
v 9074.54714449 -20227.97184181 42.76739712
v 8457.76170117 -20013.29810979 -967.70657159
v 9761.99018517 -20294.57892238 1236.61080458
v 8984.03068456 -19250.96842919 -3119.34616118
v 8810.34800434 -19831.34513953 -2826.26509836
v 8527.95890500 -19613.65910074 -60.57503107
v 8190.99624587 -19282.27108778 -647.27438517
v 8952.82242333 -19243.93960183 1091.44523192
v 9857.39474824 -19587.27009502 2577.05564559
v 10276.59328483 -19473.84042225 3609.77024690
v 8386.91162767 -18765.71349690 -2989.44452584
v 8294.38637641 -17762.95316948 -3091.32296467
v 8036.75876369 -18090.33907005 -2724.71151645
v 8320.88532798 -18863.28823841 58.73176098
v 8070.45926411 -18431.02815874 -736.68089540
v 8436.38265299 -18246.57101957 573.76742346
v 8752.00923772 -18259.40095938 1402.38321220
v 8855.60758175 -17770.75308297 1621.25849443
v 9328.16379169 -18414.09300098 2298.78571963
v 10052.01129291 -18818.91537210 3556.32550953
v 8329.79285124 -16724.80031047 -3112.54749084
v 8013.50257510 -17305.88979924 -2777.50729608
v 8201.73211350 -18189.71452467 -76.77552811
v 8946.94640033 -16928.69201371 711.68264636
v 9297.31644712 -17419.89903387 1863.89921951
v 8714.77678116 -17340.07045335 1047.89156363
v 9885.52266897 -17966.34458870 3001.37396407
v 8838.67707123 -15754.30464697 -2923.23468728
v 8381.55415867 -15766.18931892 -3136.20160128
v 8828.05600300 -15567.61923893 -2426.80452644
v 8680.02883481 -15690.66984879 -1801.82004052
v 8980.31265420 -16329.23745667 -512.52598017
v 8384.79079051 -15362.01398327 -2909.53053772
v 8215.25741185 -15343.20332381 -2537.78762515
v 8619.31928060 -20381.89707143 -1536.96873440
v 8551.27684840 -19453.00133275 -2997.56085894
v 8338.61131680 -19625.99449951 -2561.04412719
v 8301.98486574 -19958.68074726 -1862.12898764
v 8030.85450980 -19175.72770229 -1551.96929658
v 7935.71167096 -17765.68195358 -1895.11007364
v 8014.48699976 -18862.62727509 -2384.29615567
v 8534.04243837 -17726.84838762 941.62960917
v 7898.91230527 -16433.83421383 -2540.69525382
v 7955.93573154 -16765.47152167 -1709.30871550
v 8303.61825732 -17291.46485957 -332.09054984
v 7910.67627949 -15695.50793514 -3033.47272822
v 7773.37276936 -15576.16211112 -2730.32086097
v 7838.96997503 -15308.91103671 -2719.20628431
v 8106.26131350 -15945.78165152 -1907.85897470
v 7974.13074876 -15281.04230150 -2994.90101590
v 6000.01978997 -12000.00000000 12000.00000000
v 6000.00000000 -12000.00000000 11999.98021003
v 6000.00000000 -12000.01978997 12000.00000000
v 6000.00000000 -12000.00000000 12000.01978997
v 6000.00000000 -11999.98021003 12000.00000000
v 6006.92291480 -7094.55115436 -171.91314959
v 6000.00000000 -7124.15608808 -262.52684885
v 5996.56242706 -7119.02091071 -199.17126117
v 6001.05378071 -7081.79807123 -74.21509015
v 6009.32035330 -7005.94467246 42.71529657
v 5998.94621929 -7004.08604537 90.10203387
v 6003.43757294 -7073.36006464 -207.61178406
v 6009.32035330 -6994.05532754 -42.71529657
v 5998.94621929 -6995.91395463 -90.10203387
v 6003.43757294 -6926.63993536 207.61178406
v 6006.92291480 -6905.44884564 171.91314959
v 6000.00000000 -6875.84391192 262.52684885
v 6001.05378071 -6918.20192877 74.21509015
v 5996.56242706 -6880.97908929 199.17126117
v 8043.95896106 -19489.93016720 -2148.08205928
v 7743.88568774 -15289.90670793 -2977.63931065
v 5999.98021003 -12000.00000000 12000.00000000
v 5993.07708520 -7070.18974271 -176.42655181
v 5990.67964670 -7042.14259726 -33.82269670
v 5990.67964670 -6957.85740274 33.82269670
v 5993.07708520 -6929.81025729 176.42655181
v 4000.01978997 -6000.00000000 6000.00000000
v 4000.00000000 -6000.00000000 5999.98021003
v 4000.00000000 -6000.01978997 6000.00000000
v 4000.00000000 -6000.00000000 6000.01978997
v 4000.00000000 -5999.98021003 6000.00000000
v 3999.98021003 -6000.00000000 6000.00000000
v -8113.28558252 -21141.43065213 -1000.26823628
v -8308.61439748 -20825.53281681 -1161.95683840
v -8505.58584720 -21257.07989619 -890.41381026
v -8275.65206402 -21155.96276300 -664.80792249
v -8129.64675979 -20841.62424325 -865.96719436
v -7261.02905040 -14711.49363177 -3481.91069619
v -7319.03167840 -14628.77857823 -3490.79552353
v -7541.73976701 -15204.80295348 -3502.13314898
v -7544.95122210 -15232.52196836 -3399.27194590
v -7035.14107264 -13817.11969400 -3244.94925323
v -7251.85915113 -13961.71855570 -3281.11469952
v -7309.83999571 -14471.53280366 -3250.43209017
v -6686.85735492 -12263.31130980 -2557.81919035
v -7104.88748680 -13229.98293848 -3059.17689662
v -6873.75325880 -12865.69794772 -2752.88906543
v -6671.31845893 -12054.53976511 -2532.62267314
v -6393.37114010 -11103.63695516 -1868.39771835
v -6225.94814665 -10277.58194321 -983.93844763
v -6433.37955286 -11274.64253731 -1885.43659897
v -6216.50713919 -10207.20718774 -902.50274068
v -6209.75299865 -10207.04638952 -1005.97866186
v -6092.53621062 -9507.16036145 -126.21024273
v -6048.84145395 -9117.68726365 615.71585807
v -6080.03714950 -9310.72290527 363.09349254
v -6012.01894443 -8641.96156562 1748.67179594
v -6001.47713242 -8578.98271418 1835.80818926
v -5993.10383703 -8299.78896277 2812.05496539
v -5992.15695301 -8296.10817350 2809.95166281
v -5990.85734489 -8160.03022685 3406.52554673
v -5992.58920233 -8161.48547801 3399.52529600
v -5993.37033372 -8119.64834809 3617.98576641
v -6031.11590958 -8968.40496077 840.64290370
v -6013.12578114 -8640.99223625 1737.25368366
v -5998.86351329 -8317.00515190 2776.48280474
v -5995.84741626 -8167.03751279 3393.36157439
v -8834.12385839 -20978.12225299 -1201.34651780
v -9407.29549962 -21332.04319295 -673.82531373
v -9045.35062405 -21300.78306485 -4.11393894
v -8481.97593985 -20626.20406237 -150.77902961
v -9126.73889389 -20870.33994235 863.42287260
v -8390.72099608 -19942.78782264 -924.00300298
v -8863.31868354 -20132.69053151 -1427.92468597
v -8558.07628753 -19614.25422787 -81.12105489
v -8936.70284148 -20035.87871647 868.46078208
v -8743.31236057 -18602.05739637 -1628.48441673
v -8624.99239721 -18540.52364353 -702.76982441
v -8618.19413943 -17547.66480609 -1541.31287384
v -9021.30240574 -18821.50465556 512.83237639
v -7894.87923694 -15280.92147640 -3345.26321431
v -8041.05831161 -15903.73973200 -3224.04951627
v -7920.53949577 -15639.95531839 -3041.11088045
v -8759.93420977 -17555.97047806 -941.13144547
v -8791.03185957 -16984.95535963 -1460.24049433
v -8945.74949131 -17903.64155181 -295.52260894
v -7804.70388340 -14605.59177168 -3225.83791642
v -7638.87325475 -14504.50021598 -3008.12967259
v -9104.46730081 -17227.23776076 -783.14772655
v -7460.10420037 -13915.55956409 -3177.93282480
v -6991.53016901 -12892.30895739 -2831.31179472
v -6439.00684310 -11172.46733641 -1797.54667161
v -6109.62368908 -9489.64912556 77.16006728
v -6023.66759315 -8703.97108769 1650.11729033
v -5999.81039731 -8320.68594116 2778.58610732
v -5994.11555881 -8165.58226163 3400.36182512
v -9680.41184532 -20698.83286953 -1214.46080253
v -10583.25610243 -21289.29019765 -458.85493162
v -10280.21558693 -21567.65156934 357.77122703
v -10066.23892009 -21324.87239295 1473.24029131
v -9676.71701996 -20531.45045444 2045.68169731
v -10386.44004354 -21039.45147731 2658.98595791
v -10352.70629683 -20495.10934749 3217.32175113
v -10968.19892021 -20894.35910664 3379.52663951
v -9777.71551305 -19199.49658475 -1729.50448235
v -9493.37047719 -19500.93729847 1802.66434353
v -9978.31813884 -19910.11996642 2803.26101276
v -10876.32774035 -20374.20200376 3824.07193536
v -10559.63585211 -19810.93566184 3635.10716211
v -11070.90743714 -20008.78195990 4109.24444415
v -8738.05330382 -17219.33826576 -2500.19601523
v -8803.18409658 -16564.04020229 -2872.61033302
v -9580.25808941 -17755.94410159 -2299.35691093
v -8612.26573646 -17440.10146375 -2058.09415966
v -9698.11970648 -18643.12140722 1409.35104508
v -10199.73837447 -19124.16135972 2627.69654029
v -10729.08130362 -19232.99802644 3521.61264076
v -11051.46246552 -19554.72988751 4040.86168675
v -8688.34599115 -15912.47100142 -2897.10188778
v -8471.74175614 -16401.57381873 -2315.73743720
v -10514.47860922 -18334.59929232 1429.40419060
v -9548.58301822 -17837.00307377 263.71824892
v -10790.41295781 -18847.15216858 2867.04318040
v -8425.35239130 -15532.40608531 -2747.05395496
v -7837.04736436 -14595.46878203 -3157.56345666
v -9113.67273742 -16609.57545915 -1677.39255135
v -9598.63870663 -17160.35163420 -691.77950413
v -10846.85955100 -20504.37729044 -980.33462590
v -11717.08743595 -21150.97498252 -149.43124924
v -11471.91441024 -21576.05666016 538.84197627
v -11213.02873219 -21614.62684355 1519.44614040
v -11049.83755991 -21363.46248605 2562.79262888
v -11598.79263124 -21092.71943857 3202.22365927
v -11046.89837020 -19638.15627797 -1169.62431508
v -11545.89431214 -20421.53283004 3786.18853680
v -11383.68056880 -19851.15581909 4180.45443813
v -9718.02714337 -17142.28406557 -2165.08375616
v -10597.16327858 -18488.42316933 -1536.84418618
v -11445.25071785 -19514.73854728 3997.01870847
v -11196.27557896 -19160.39091698 3551.00394552
v -9247.16370337 -16417.63100838 -2238.75883032
v -10576.92899662 -17810.43131862 -1222.91124322
v -9969.49115914 -17162.35766661 -1212.08797309
v -10141.07645353 -17582.01897182 -41.91858199
v -10878.02400156 -18036.23075791 -35.81817671
v -11407.00516441 -18631.99785954 1281.32351352
v -11348.80454399 -18880.62913956 2508.60947581
v -11948.53617075 -20379.80096903 -342.96741888
v -12465.66528523 -21004.48732949 225.37044210
v -12387.22332976 -21376.87360886 703.06896378
v -12187.30885083 -21530.68365681 1505.02877697
v -11911.04335585 -21396.95232687 2444.75594509
v -12207.33350734 -20877.99615480 3035.24556184
v -11612.15542876 -19311.60754706 -563.43916372
v -12676.03280229 -20623.25445579 410.89222520
v -12404.80287738 -19920.43473926 583.23352573
v -12901.67999202 -20526.47273625 1015.10399460
v -12216.35484121 -20130.66707275 3115.92576428
v -12685.71010606 -20666.45699417 2580.98841923
v -12706.32103447 -20236.83570767 2262.57845309
v -11720.59923723 -19844.63704916 3876.52120323
v -11196.79395829 -18472.65110468 -682.88477701
v -11729.63851665 -18920.48166314 386.79350704
v -12780.79056512 -20179.35448444 1532.32827354
v -12158.09707765 -19487.07434871 1935.45998023
v -11744.19114748 -19436.81521063 3320.99807194
v -12859.00974506 -21001.25477661 893.91969295
v -12762.25853673 -21262.03752434 1430.07571479
v -12602.38155151 -21166.89213231 2206.77557732
v -12930.92102422 -20759.79212152 1744.29981108
f 3 2 1
f 5 4 1
f 1 4 3
f 7 6 5
f 5 6 4
f 7 8 6
f 11 10 9
f 11 9 2
f 9 1 2
f 9 12 1
f 1 13 5
f 1 12 13
f 5 14 7
f 5 13 14
f 8 7 15
f 7 16 15
f 7 14 16
f 16 17 15
f 9 10 18
f 18 10 19
f 9 20 12
f 9 18 20
f 12 21 13
f 12 20 21
f 13 22 14
f 13 21 22
f 14 23 16
f 14 22 23
f 17 16 24
f 24 16 23
f 19 25 18
f 18 25 20
f 20 25 26
f 20 26 21
f 21 26 27
f 21 27 22
f 22 27 28
f 22 28 23
f 23 28 29
f 23 29 24
f 31 30 3
f 3 30 2
f 32 3 4
f 32 31 3
f 33 4 6
f 33 32 4
f 6 8 33
f 33 8 34
f 36 35 11
f 11 35 10
f 11 2 30
f 11 30 36
f 37 34 8
f 37 8 15
f 39 38 17
f 38 15 17
f 38 37 15
f 39 40 38
f 35 19 10
f 41 19 35
f 24 42 39
f 24 39 17
f 40 39 43
f 43 39 42
f 25 19 44
f 19 45 44
f 19 41 45
f 46 26 25
f 46 25 44
f 47 27 26
f 47 26 46
f 48 28 27
f 48 27 47
f 49 29 28
f 49 28 48
f 49 50 29
f 29 50 24
f 50 51 24
f 51 42 24
f 42 51 43
f 45 52 44
f 44 52 46
f 46 52 53
f 46 53 47
f 47 53 54
f 47 54 48
f 48 54 55
f 48 55 49
f 49 55 56
f 49 56 50
f 58 57 31
f 31 57 30
f 60 58 59
f 58 32 59
f 58 31 32
f 33 61 32
f 32 61 59
f 34 61 33
f 63 62 36
f 36 62 35
f 36 30 57
f 36 57 63
f 60 59 64
f 60 64 65
f 66 59 61
f 64 59 66
f 37 67 34
f 67 61 34
f 67 66 61
f 38 68 37
f 37 68 67
f 40 68 38
f 70 41 69
f 41 62 69
f 41 35 62
f 71 70 69
f 65 64 72
f 65 72 73
f 66 75 74
f 72 66 74
f 64 66 72
f 77 76 75
f 66 77 75
f 67 77 66
f 78 67 68
f 77 67 78
f 43 78 40
f 40 78 68
f 80 79 70
f 79 41 70
f 79 45 41
f 80 70 71
f 81 73 72
f 84 83 82
f 74 81 72
f 83 84 76
f 77 83 76
f 85 83 77
f 50 85 51
f 85 78 51
f 85 77 78
f 51 78 43
f 52 45 86
f 45 87 86
f 45 79 87
f 88 53 52
f 88 52 86
f 53 88 89
f 90 53 89
f 54 53 90
f 83 55 82
f 55 90 82
f 55 54 90
f 55 83 56
f 56 83 85
f 56 85 50
f 87 91 86
f 86 91 88
f 88 91 92
f 88 92 89
f 93 57 58
f 60 93 58
f 94 62 63
f 95 94 63
f 95 63 57
f 96 95 57
f 93 96 57
f 93 60 96
f 60 97 96
f 60 65 97
f 94 69 62
f 99 98 71
f 99 71 69
f 95 99 69
f 94 95 69
f 99 97 98
f 97 73 98
f 97 65 73
f 100 74 75
f 76 100 75
f 101 79 80
f 71 98 80
f 98 101 80
f 98 102 101
f 81 103 73
f 103 98 73
f 103 102 98
f 81 74 103
f 74 100 103
f 84 82 103
f 84 103 100
f 84 100 76
f 105 104 101
f 104 79 101
f 104 87 79
f 107 106 105
f 101 107 105
f 102 107 101
f 89 107 90
f 107 103 90
f 107 102 103
f 90 103 82
f 104 108 87
f 87 108 91
f 107 92 106
f 92 108 106
f 92 91 108
f 92 107 89
f 111 110 109
f 109 112 111
f 110 113 109
f 109 113 112
f 116 115 114
f 118 117 114
f 114 117 116
f 118 119 117
f 115 120 114
f 122 121 120
f 121 114 120
f 121 118 114
f 119 118 123
f 118 124 123
f 118 121 124
f 124 125 123
f 122 126 121
f 121 126 124
f 124 126 127
f 124 127 125
f 128 95 96
f 97 128 96
f 128 99 95
f 99 128 97
f 129 104 105
f 106 129 105
f 129 108 104
f 108 129 106
f 130 110 111
f 112 130 111
f 130 113 110
f 113 130 112
f 131 115 116
f 117 132 116
f 116 132 131
f 119 132 117
f 131 120 115
f 120 131 122
f 131 133 122
f 131 132 133
f 123 134 119
f 134 132 119
f 134 133 132
f 125 134 123
f 137 136 135
f 135 138 137
f 133 126 122
f 126 133 127
f 127 133 134
f 127 134 125
f 136 139 135
f 135 139 138
f 140 136 137
f 138 140 137
f 140 139 136
f 139 140 138
f 143 142 141
f 141 144 143
f 142 145 141
f 141 145 144
f 148 147 146
f 146 149 148
f 146 147 150
f 150 147 151
f 149 146 152
f 152 146 150
f 150 151 153
f 153 151 154
f 152 150 155
f 155 150 153
f 154 156 153
f 156 157 153
f 157 158 153
f 159 155 153
f 159 153 158
f 158 160 159
f 157 161 158
f 161 162 158
f 162 163 158
f 164 160 158
f 164 158 163
f 166 165 163
f 163 165 164
f 168 167 166
f 166 167 165
f 170 169 168
f 168 169 167
f 170 171 169
f 162 172 163
f 163 172 166
f 166 172 173
f 166 173 168
f 168 173 174
f 168 174 170
f 170 174 175
f 170 175 171
f 177 176 143
f 143 176 142
f 179 178 144
f 178 143 144
f 178 177 143
f 179 180 178
f 145 142 181
f 142 182 181
f 142 176 182
f 179 144 145
f 181 179 145
f 183 179 181
f 180 179 184
f 184 179 183
f 182 185 181
f 187 186 185
f 186 181 185
f 186 183 181
f 184 183 188
f 188 183 186
f 190 189 148
f 148 189 147
f 148 149 190
f 190 149 191
f 186 187 192
f 192 187 193
f 188 186 194
f 194 186 192
f 189 151 147
f 195 151 189
f 152 191 149
f 152 196 191
f 193 197 192
f 192 197 194
f 199 154 198
f 154 195 198
f 154 151 195
f 198 196 199
f 196 155 199
f 196 152 155
f 199 156 154
f 157 156 200
f 156 199 200
f 155 159 200
f 155 200 199
f 160 200 159
f 200 161 157
f 162 161 201
f 161 200 201
f 160 164 201
f 160 201 200
f 165 202 164
f 164 202 201
f 167 203 165
f 165 203 202
f 169 204 167
f 167 204 203
f 171 204 169
f 201 172 162
f 172 201 173
f 173 201 202
f 173 202 174
f 174 202 203
f 174 203 175
f 175 203 204
f 175 204 171
f 206 205 177
f 177 205 176
f 207 177 178
f 207 206 177
f 209 208 180
f 208 178 180
f 208 207 178
f 211 210 209
f 209 210 208
f 211 212 210
f 205 182 176
f 213 182 205
f 184 214 209
f 184 209 180
f 209 215 211
f 209 214 215
f 212 211 216
f 211 217 216
f 211 215 217
f 217 218 216
f 221 220 219
f 219 222 185
f 213 219 185
f 182 213 185
f 219 213 221
f 222 187 185
f 188 223 214
f 188 214 184
f 214 224 215
f 214 223 224
f 226 217 225
f 217 224 225
f 217 215 224
f 217 226 218
f 219 220 190
f 220 189 190
f 220 227 189
f 219 190 191
f 228 219 191
f 222 219 228
f 228 193 187
f 228 187 222
f 230 229 223
f 188 230 223
f 194 230 188
f 223 229 224
f 224 229 231
f 224 231 225
f 233 195 232
f 195 227 232
f 195 189 227
f 232 234 228
f 196 232 228
f 191 196 228
f 233 232 196
f 228 234 193
f 234 197 193
f 234 235 197
f 194 197 230
f 230 197 235
f 233 198 195
f 198 233 196
f 237 236 206
f 206 236 205
f 238 206 207
f 238 237 206
f 239 207 208
f 239 238 207
f 240 208 210
f 240 239 208
f 210 212 240
f 240 212 241
f 236 213 205
f 242 213 236
f 243 241 212
f 243 212 216
f 216 218 243
f 243 218 244
f 245 220 221
f 246 245 221
f 213 246 221
f 242 246 213
f 248 247 226
f 248 226 225
f 218 226 244
f 244 226 247
f 249 227 245
f 245 227 220
f 245 246 250
f 251 245 250
f 249 245 251
f 253 252 251
f 253 251 250
f 229 230 252
f 253 229 252
f 254 229 253
f 229 255 231
f 254 255 229
f 225 231 248
f 248 231 255
f 249 232 227
f 232 249 234
f 234 249 251
f 234 251 235
f 235 251 252
f 235 252 230
f 256 236 237
f 256 237 257
f 237 258 257
f 237 238 258
f 259 238 239
f 259 258 238
f 260 239 240
f 260 259 239
f 240 241 260
f 260 241 261
f 262 242 256
f 256 242 236
f 256 257 263
f 264 256 263
f 262 256 264
f 265 264 263
f 268 267 266
f 269 266 243
f 266 261 243
f 261 241 243
f 261 266 267
f 244 269 243
f 270 246 262
f 262 246 242
f 271 262 264
f 270 262 271
f 264 265 272
f 273 264 272
f 271 264 273
f 273 272 268
f 266 273 268
f 274 273 266
f 248 274 247
f 274 269 247
f 274 266 269
f 247 269 244
f 270 250 246
f 250 270 253
f 253 270 271
f 253 271 254
f 254 271 273
f 254 273 255
f 255 273 274
f 255 274 248
f 275 257 258
f 259 276 258
f 258 276 275
f 260 277 259
f 259 277 276
f 261 277 260
f 275 263 257
f 263 275 265
f 275 278 265
f 275 276 278
f 268 278 267
f 278 277 267
f 278 276 277
f 267 277 261
f 278 272 265
f 272 278 268

