# https://github.com/mikedh/trimesh
v 21275.21684346 -23228.05750675 2939.36031555
v 20938.86586757 -23667.81108445 1862.77413371
v 20982.52832205 -24057.89044686 2617.33666328
v 20846.17309502 -24239.37103149 3602.68169980
v 21169.71365605 -23278.62052666 4561.36566609
v 20433.03409564 -24329.49179709 5315.39306250
v 20879.73104027 -23160.62051050 6136.43547726
v 20379.26722488 -23715.82706160 6647.74752442
v 21150.62265027 -22697.05190118 1805.00788763
v 20610.44801138 -22370.74974066 909.33088732
v 20868.71605780 -23149.81972066 1233.20433106
v 21345.54028623 -22170.40164660 2668.93037389
v 21393.56656949 -22212.12397212 3918.89292726
v 21247.16136877 -22213.68939318 5501.30929387
v 20253.07162405 -22955.17466169 7534.75614470
v 20878.98830304 -22172.27800587 7000.52546605
v 20319.27398893 -21975.94358502 8229.97089013
v 20948.87888687 -21538.23754516 1855.79360270
v 21172.21967761 -21201.03006726 3250.97744509
v 21187.73482107 -21146.86623276 4862.03658556
v 21000.21096300 -21217.67399928 6501.31448711
v 20640.06457305 -21354.21566238 7814.92167137
v 19548.93128697 -25817.43604867 2945.51133458
v 19400.79105984 -25643.87863883 1993.45147424
v 18971.44260474 -26112.62018359 2369.83790693
v 18859.10993236 -26215.40305493 3126.51413755
v 20297.53075278 -24790.51095577 2315.47178126
v 19501.47006841 -24976.58475819 1113.63954381
v 19293.94442993 -25873.26320362 3967.43756037
v 20094.64660138 -25230.78813133 3997.84435133
v 19609.45575191 -25499.50903962 4742.44596626
v 19981.86022737 -25136.00186461 4973.75705526
v 19446.56384210 -24997.97868830 5608.51393886
v 20207.03341632 -23757.39463644 820.01715624
v 19338.48843340 -23795.73117244 -188.96325376
v 19530.40698408 -24427.44294199 378.66436900
v 19708.63592884 -24159.51234371 6625.54668373
v 19974.16131780 -23630.32084839 7252.49418765
v 19111.15277840 -23416.01145053 7836.92127383
v 19665.02722364 -22386.44808442 -201.00794045
v 18625.78603659 -21947.76977128 -1187.94476450
v 18905.12053272 -23051.95543824 -866.55009305
v 19320.80070788 -22238.27719547 9077.95167922
v 19818.93862435 -20975.12104749 9339.31216294
v 19010.61035300 -21490.81757989 10290.65243749
v 19173.44215363 -21042.21058226 -626.97586506
v 18045.90708558 -20510.52715079 -1358.73313878
v 19990.42104956 -20718.40269705 679.22308769
v 20544.42812753 -20260.22686345 2441.46125985
v 20727.75988191 -20074.92254313 4159.34616718
v 20688.81572930 -20091.76297791 5977.63194874
v 20450.50741757 -20357.40894626 7728.74472985
v 19815.55166847 -19570.87516683 9134.58350347
v 18745.53647286 -20720.81184922 11102.57124452
v 19280.19623683 -19840.17574260 10653.40580421
v 18611.78718872 -19784.08581623 11809.35221476
v 18947.53509654 -19907.93883019 -354.67438111
v 19304.33129763 -19415.22320184 586.89777109
v 19689.04779085 -19320.22737757 1763.83246622
v 18874.62476014 -18718.75572524 1218.63061623
v 19952.35297579 -19107.68210355 3412.03436498
v 20042.83282571 -18991.95568266 5249.72618270
v 19928.49691200 -19004.82491438 7366.14845259
v 19474.59014527 -18549.21509422 8989.02783184
v 19182.03089498 -18770.05210825 10396.09768763
v 18785.41367078 -19087.82143336 11593.21034916
v 18788.37081845 -18291.28301313 2743.51085242
v 19259.50260678 -18252.74783812 4420.78049886
v 19025.36385570 -17884.94218031 6281.46092910
v 19168.21640865 -17963.59086754 8097.08236405
v 18395.60407082 -25669.61025951 1466.43491320
v 18493.73274238 -26235.92593161 2477.33330592
v 18252.16669562 -26177.83897971 3081.92537857
v 18769.96824055 -24776.26606172 178.19971404
v 17988.20760131 -24601.29017760 -409.06702027
v 17907.04613928 -25108.33016279 268.62468803
v 18463.96061666 -25924.98757398 3946.15409937
v 18926.49917424 -25570.12416499 4881.65770616
v 18684.54273984 -25138.52475747 5606.97084262
v 18470.50420396 -23945.84498592 -723.49364485
v 18017.91988995 -22975.08461746 -1339.73775101
v 17545.67253899 -23912.52284066 -990.97994046
v 18383.34702482 -24368.23551204 6571.88980246
v 17831.71506734 -23463.06295639 7905.02721557
v 17386.07606877 -21761.64446461 -1841.08624813
v 17829.48451766 -22603.32522132 9200.43062495
v 18265.56345660 -21833.34862869 10393.20828603
v 18474.59191821 -21358.79594132 10952.06576943
v 17617.50322278 -21084.35617839 11504.66296970
v 16516.78338927 -20534.85326432 -2252.77877001
v 17784.30368022 -20094.40133775 12334.53925057
v 17933.85411839 -18977.54786775 12794.12483788
v 16996.08435371 -19423.37273714 13340.21406531
v 18037.36859125 -19394.74431502 -790.94688461
v 17007.81411475 -19481.92529227 -1430.51653553
v 18447.57651475 -18940.20305998 159.72121724
v 18670.48068262 -17674.77132578 9784.56124575
v 18303.12994862 -18028.61373279 11846.47450860
v 17512.56215717 -17856.90193629 13593.34747072
v 16826.50687173 -18439.53407766 14220.69744941
v 17303.92253348 -18728.64883046 -327.78285014
v 17675.13527320 -18234.65042220 1272.31434854
v 17472.48640710 -17722.27750759 2942.24689125
v 18022.51951534 -17510.66456492 4603.85393897
v 17898.17244293 -17063.46202128 6339.21098432
v 16837.74595270 -16858.33987702 5715.22820623
v 18188.96519678 -17096.89873561 8028.56112354
v 17805.30627122 -16825.46740258 9700.23628100
v 17741.50508381 -17007.93694570 11251.27826546
v 17402.02196423 -17118.72251800 12990.79146850
v 16931.16463413 -17655.20435026 14653.30885364
v 16953.63369807 -17146.17297982 14373.64316404
v 16425.50822705 -17241.34458156 15240.94690454
v 17065.41467075 -16578.77918620 7260.16985660
v 17043.13583642 -16457.05565761 8852.78779001
v 16866.44075120 -16443.17378767 10582.90113745
v 16687.42407128 -16538.40337994 12392.46222972
v 16452.62211833 -16658.41732326 14005.53431022
v 16279.04544649 -16819.19558249 15014.84570941
v 17969.11567070 -26007.68597351 2470.56969213
v 17225.84347455 -24587.55847638 -276.67854381
v 17204.17013310 -25112.68455719 780.90136601
v 17279.85414884 -25465.45856530 2028.63199437
v 16444.26374278 -24760.13493508 1436.27521404
v 17524.12639748 -25573.78392236 3414.13611700
v 17930.17043839 -25159.29437157 5047.95695001
v 16874.76619783 -22905.36905474 -1591.46559064
v 16675.47556944 -23796.96777899 -904.39674082
v 16389.77422158 -24705.29278426 2795.67823287
v 16630.11483511 -24527.89621913 4489.81073254
v 17021.05988171 -24185.09251015 6043.56155892
v 17210.51152035 -23720.17565007 7212.91544755
v 16339.23874200 -23391.05035272 6919.54026189
v 15921.53484375 -21689.10828159 -2409.27691653
v 16589.55915446 -22858.51469385 8229.99074927
v 16494.18621009 -22160.04035194 9623.45587133
v 17051.87165206 -21767.57001282 10593.48031724
v 16362.29744442 -21055.28456106 11567.37168018
v 15686.15402301 -20847.81611162 -2851.09229850
v 15082.91403098 -20697.85708269 -3030.35379377
v 15302.07418113 -21186.07366033 -3004.06242615
v 16403.58219169 -20208.45815124 12679.02722749
v 15780.61786360 -19133.22496349 13988.74801288
v 15587.17936501 -20289.29806568 -2731.25352908
v 15740.17239299 -19593.40499601 -2074.27459573
v 15715.54686926 -18159.55551902 15042.08217774
v 16401.71861801 -17777.10412472 15126.26872954
v 15744.45232538 -17460.98139515 15649.49371201
v 16119.20671759 -18845.81308824 -982.42531334
v 16258.68919097 -18324.77913107 443.78747708
v 16240.56947368 -17872.80876792 2278.35476867
v 16445.95514227 -17355.07985763 4109.86079273
v 15489.02851142 -16944.66664867 5481.14510447
v 15701.91926822 -16934.12347852 15659.63149269
v 15920.60423938 -16482.69449572 6817.52179146
v 16181.62254064 -16299.44479525 8074.81921803
v 15722.17596518 -16254.02508644 9630.14155377
v 15671.42887577 -16294.02505441 11653.85175451
v 15385.16432191 -16398.61722344 13582.40985698
v 15403.57556520 -16588.02297966 15064.38659240
v 16207.52516814 -24121.66716645 135.43650249
v 15684.73750268 -22860.00705158 -1258.91147123
v 15186.46245288 -23119.06393425 48.30971470
v 15447.21258156 -23698.41266183 1666.97192649
v 15375.94451280 -23486.23257209 3828.33575934
v 15844.02144010 -23481.95275321 5665.88021232
v 15161.52152969 -21485.07928468 -2865.53531768
v 14765.95121602 -21196.37781650 -3009.84122959
v 14817.73002899 -21746.01785212 -2367.70458148
v 14494.21794804 -22000.85701336 -895.02991267
v 14508.57718130 -22407.78154768 1001.54131820
v 14545.33068735 -22578.37930209 2729.91937075
v 14460.68483131 -22399.93781069 4105.54044531
v 13956.15361483 -21522.68695311 5008.98827782
v 14780.09519854 -22524.53098914 5372.61110904
v 15247.68612846 -22433.48870376 7154.31897342
v 15372.22263634 -21839.59014895 9047.29858725
v 15756.77618918 -21409.65084237 10574.68832968
v 14430.82602009 -20722.60259687 -2913.00437820
v 14180.89381398 -21608.75682498 6426.08090149
v 14018.91752901 -21062.93401124 8164.76243250
v 14443.93162097 -20827.46081051 10165.84219106
v 15078.90582962 -20413.58031677 11895.40042231
v 15203.33671203 -19729.29684201 13212.70192876
v 14849.82372693 -19203.20995345 13838.16032102
v 14930.50892025 -20122.73633811 -2648.95693209
v 14866.04407640 -19580.66662034 -2052.17531761
v 14498.01388226 -18363.65417755 14572.95759760
v 14933.96239134 -17656.93959813 15663.92793635
v 15062.58071083 -17132.86149776 16021.28008039
v 14490.95234589 -17247.44977527 15982.49984262
v 15244.96290403 -19086.42435064 -1464.19253734
v 15212.07070240 -18727.92453948 -400.80662200
v 15073.44146522 -18409.45363673 1298.55963963
v 14590.67399682 -17984.68931580 3969.29725927
v 14374.11843692 -17108.61727982 5955.24879549
v 14556.14667185 -16364.90248018 10927.06134723
v 13451.58196357 -16689.36230535 10127.49186266
v 14503.70733075 -16360.49649093 9450.08845910
v 14482.45317951 -16432.88659782 12698.14918466
v 13527.14347344 -16683.00166238 12004.44499660
v 14248.74906145 -16516.56340550 13966.23649565
v 13484.40696639 -16844.01915550 13778.63972361
v 13545.77142908 -16794.04639749 14580.95562516
v 15003.46771542 -16784.78247425 15861.06137411
v 14524.68403035 -16935.15132275 16018.67732193
v 14913.53307034 -16626.82066144 6672.25066023
v 14999.16366180 -16376.01999033 8046.61961205
v 14402.51126620 -16527.89728682 14743.67048385
v 14310.66808085 -16703.41461347 15537.48618553
v 14195.53675144 -21220.67424491 -2838.12501440
v 14060.59016802 -21369.34026504 -2220.47045037
v 13954.73922935 -20824.40815927 -1226.02227001
v 13859.94335956 -20928.96204783 -2373.77942121
v 13988.07486406 -21184.78566597 517.72071537
v 13958.92063389 -21444.59902776 2309.17741469
v 14005.01078808 -21695.97558000 3641.73986541
v 13970.17446309 -20880.43546097 -2769.63619267
v 14213.23466959 -20253.63880449 -2164.11203632
v 14086.48936084 -19874.99453893 -954.22328209
v 13934.06673867 -20033.29546687 303.02992541
v 13771.62972251 -20226.99830558 2039.18009148
v 13520.51850109 -20406.86108812 4169.96551776
v 13259.76344699 -20402.86563012 6412.59176114
v 13068.22481694 -19774.40659006 5518.34096539
v 12952.10450721 -20065.78524265 8193.43508186
v 12448.35840021 -19382.83429499 7638.47659417
v 13233.65960325 -20094.42665957 9650.92372645
v 13658.58047645 -19869.80438976 11342.67180202
v 14136.38937480 -19320.23006959 13044.86429455
v 14569.66573590 -19347.95799335 -1264.08175151
v 14397.48830365 -19159.66609137 60.04961859
v 14148.36167766 -19110.93866244 1797.46632589
v 13742.89792602 -19288.12126793 3409.76987568
v 13204.65051352 -18969.12165331 5272.93377002
v 12365.20322594 -19340.63002982 9185.19717700
v 12623.69545148 -19248.25261097 10781.88836371
v 13064.41983879 -19043.82345812 12191.74118568
v 13218.86960701 -18217.23585704 13535.46949370
v 13581.65003206 -17375.24288269 14731.13424422
v 13099.18265885 -17269.58966702 14243.78374954
v 14225.29607290 -17543.60209819 15505.16052640
v 13982.47284738 -16825.41150007 7363.34377985
v 13250.00923785 -17699.95892897 6579.61483417
v 13905.61364527 -16590.32434148 8672.27200691
v 12917.10976611 -17133.75028742 8574.07613801
v 12509.57148978 -17142.45640671 10064.31781360
v 12758.21590033 -16988.88564460 11265.90101909
v 12771.41438300 -17103.50389382 13018.83543438
v 13132.55768462 -16942.05112580 14255.37303855
v 13322.67176354 -17006.58217297 14869.96637287
v 13125.12393088 -16867.78992031 14363.69044910
v 13560.59751294 -16845.68820753 15243.26219705
v 13932.86433734 -17058.51928672 15605.77056250
v 13595.66274095 -16723.90635776 14958.58420905
v 13866.61413330 -21151.06759075 -2719.26215786
v 12737.33442377 -19395.13446220 6366.80059451
v 12345.98750645 -18551.21126191 7204.20525988
v 11873.47417931 -18588.14348366 8691.77503540
v 11839.73821719 -18222.80210961 8144.69728110
v 11950.41819942 -18617.18907439 10253.05806248
v 12341.07943068 -18376.95551239 11939.68726970
v 12637.28279741 -17614.61052793 13300.03857552
v 12174.89080630 -17728.71570888 12114.61297335
v 12175.82412936 -17829.40018067 8069.76726452
v 12012.91226155 -17585.53995997 9373.99879024
v 12092.54438315 -17505.50011992 10987.60905479
v 13051.94939819 -17021.96389116 14411.90170028
v 11726.61475599 -18032.02599188 8793.68853642
v 11723.41788831 -18053.53276561 9852.26675132
v 11867.02284457 -18057.76780814 11054.33531732
v -13178.82691905 -19841.70055524 9099.05103016
v -13627.76826368 -19928.96888899 7599.32371474
v -13449.85306580 -20459.62710699 8853.95773178
v -13286.15146623 -20296.86158551 9913.95759231
v -13062.13744705 -19429.15790845 10454.68226298
v -13613.18309432 -20563.79421184 11534.16131014
v -13171.47960988 -19524.23867421 12316.03749969
v -13653.12335622 -20095.64923565 13385.35617978
v -13316.06586492 -19431.28355912 13590.48524206
v -13726.89220615 -19651.89044163 14429.43216971
v -13288.31523854 -19161.39526936 8910.92036546
v -13831.00378736 -18915.53563435 7764.09312697
v -13170.37079733 -18742.63401603 9811.33836006
v -13067.66324977 -18674.13266469 10625.51332731
v -13136.03448221 -18799.97122512 11681.67610770
v -13427.34465961 -18334.54610177 11143.91220361
v -13320.44272774 -18879.13795993 13132.10738843
v -13589.80547264 -19055.31099646 14392.80522538
v -13864.73372728 -18390.36343018 9105.23794096
v -13843.54689844 -18260.29712080 12475.95262302
v -13916.94063880 -18493.18728912 14101.50624700
v -14942.71416113 -23051.09167613 -67.72185714
v -15355.04419264 -23353.72312347 -466.38873169
v -15215.59121325 -23627.88573267 75.82761911
v -15103.51223027 -23393.28365707 480.33418042
v -15168.68983896 -21827.92333492 -1790.22363528
v -15375.30550087 -21709.13789230 -2363.92547316
v -15484.88846610 -22113.96237213 -2274.83896782
v -15594.81916007 -22729.27952555 -1544.81170920
v -14910.30165389 -22016.27575357 -469.58834753
v -14814.12721066 -22537.75036676 407.46332621
v -14694.64744779 -21870.96120543 255.88537603
v -14212.13165292 -20993.64616844 6321.00501398
v -14785.32505836 -21809.12993718 4597.23639472
v -14850.94587948 -22139.26903557 6246.93360349
v -14571.80864572 -21828.20139407 7362.95836853
v -14378.20281458 -21381.08708459 12079.63669728
v -14261.39134142 -21460.75599535 11042.14944234
v -15201.12648386 -22033.41924742 11550.84839043
v -14971.02458796 -21590.31370688 12856.76685106
v -15304.24734387 -21351.21665741 -1987.59316238
v -15112.24761489 -21078.52655239 -1067.32542769
v -15688.06817504 -20880.67677201 -1519.28316568
v -14747.05476294 -21242.03757458 385.87429946
v -14954.99003477 -20355.45296370 595.85368750
v -14971.76815762 -20438.44132260 931.67912938
v -14401.84174116 -20186.74691196 4475.65196191
v -14685.35202577 -20202.96293921 2703.22149488
v -14669.03962935 -20926.70883276 3237.84481508
v -13992.24332034 -20034.15683054 6077.66785333
v -13965.37126563 -21065.42541895 8083.15827350
v -13883.55630704 -21136.63828796 9758.69537527
v -14312.05264186 -20930.78327659 13189.62854603
v -14659.58487517 -20307.93184211 14862.78803258
v -14147.42722883 -19339.49915779 15432.06745732
v -14668.06979375 -19641.65267840 15998.06867027
v -15397.39379408 -20316.34605793 -363.37462865
v -15240.18318578 -19834.69907848 662.26495832
v -15396.66958538 -19350.45179556 1819.55990358
v -14830.35686500 -19613.27156398 2678.41863368
v -15038.81015088 -19967.37882277 1558.53603692
v -14708.37978605 -19139.23557250 4394.44988057
v -14248.32271383 -19195.40426056 6104.23026840
v -13437.40279795 -18346.34653176 10251.41817339
v -14064.46956081 -18764.58504496 15139.36548544
v -14587.53423084 -19227.83321912 16258.28140992
v -14523.67368784 -18845.75187602 15948.35192351
v -14989.73956212 -19020.51554959 16498.80990711
v -15425.61850176 -18756.77757939 3613.66526554
v -15243.42599708 -18454.78324340 5410.28339839
v -14860.74396059 -18266.44621072 7443.05587692
v -15001.90036878 -17924.29193051 9159.45149430
v -14445.04555937 -17978.90493902 10824.81153555
v -14876.97961543 -17888.14924010 12513.19051283
v -14731.25719048 -18080.75821710 13794.22200331
v -14758.49567632 -18420.74532593 15194.34027509
v -15089.97431955 -18675.66049083 16134.88740648
v -15994.23035508 -24355.68999803 631.89318541
v -17139.99149290 -24966.27915519 -193.79674389
v -17271.65227087 -25643.05231089 833.72530179
v -17267.27485412 -25832.43876700 2204.75138687
v -16110.36879017 -24491.27136715 2568.51841926
v -16897.01285342 -25280.16456899 3508.71110431
v -16251.30852650 -23904.36581075 -847.29287017
v -16666.52294740 -23243.28734529 -1688.94395582
v -17336.33103854 -24247.25915722 -1108.51978963
v -15171.50687900 -22994.60160353 1627.25200589
v -16286.19553554 -24522.52323519 3909.66349704
v -15491.72337129 -23330.44235962 3686.37664602
v -16118.55402236 -24057.77151786 4875.33736486
v -15716.29219804 -21885.71225130 -2491.93157887
v -16115.62480095 -22375.46140276 -2220.10519062
v -14796.05177048 -21647.85810984 970.82513499
v -14888.39259844 -21812.55769892 1753.82211380
v -14923.38608914 -21931.95069916 2762.14395674
v -15488.79490265 -23080.51855469 5528.01084932
v -15511.30241861 -22844.88230158 7468.68419126
v -14672.87949793 -21963.12899508 8763.31246296
v -15807.78422548 -22733.03301979 9741.32527566
v -14696.81381757 -21920.13769986 10185.37685321
v -16584.22149319 -22692.48570544 11499.16060706
v -16090.77951689 -21926.25216031 13109.73882978
v -15200.93891788 -21263.42062035 13979.09299410
v -16004.42449966 -21338.98601439 14410.19545647
v -15472.02231467 -20960.59348804 14780.26557345
v -16137.59993966 -20597.19397723 15307.01809938
v -15765.92671911 -21436.24931199 -2264.53833893
v -16744.15212072 -21171.46730512 -1730.97290072
v -15002.97947850 -20647.07893629 1743.26976230
v -15308.92972316 -19870.17837870 16075.16312405
v -14970.31833453 -19412.21651374 16474.55594381
v -15495.45664930 -19344.17860907 16514.19659710
v -16355.41964591 -20323.96118640 -715.76642001
v -15634.69908431 -19953.57988936 570.98874691
v -15321.90068856 -19719.03196591 1111.51791413
v -16182.99259520 -19403.00127208 1524.96164818
v -15514.28082554 -18905.38894523 16411.35143099
v -16477.44126958 -18594.78889999 3037.92921166
v -16469.24710259 -18166.32245252 4730.65368150
v -16339.92433728 -17951.80853033 6559.90608440
v -16212.80397246 -17809.74253556 8422.76787849
v -16027.90999024 -17750.83202812 10207.93381600
v -15871.44128702 -17782.51387139 11887.81416973
v -15820.47578474 -17940.36748347 13400.18515076
v -15615.74709617 -18184.76960069 14598.53409071
v -15856.76581311 -18607.52049414 15657.28717159
v -18028.68044500 -26422.90307667 1457.22078952
v -18301.46723498 -25860.51229976 444.52359157
v -18956.45299291 -26613.15835236 1376.32718600
v -18654.09563640 -26866.94774673 2130.32484575
v -18019.81836026 -26626.50417776 2120.40966592
v -18323.89299365 -26633.50380291 2844.48285127
v -18113.57273910 -25012.86580525 -494.46086958
v -18005.71845154 -25957.40265027 3979.52325824
v -17072.31767246 -24969.42339511 4963.65637681
v -18240.12458755 -25476.10380818 5502.24622808
v -17699.31095079 -24743.38874860 6679.27724258
v -18976.75990944 -25168.04587079 6731.95910181
v -17679.25865087 -23525.55717876 -1584.92686451
v -18441.31584694 -24259.30936325 -1038.44803960
v -16457.67066892 -23994.38767506 6307.92816177
v -18452.57610277 -24436.74021032 8169.98528992
v -17014.27090796 -23802.83225436 8311.81871586
v -18032.51680913 -23892.47973390 9428.32746814
v -17215.32960635 -23383.03068038 10214.48593447
v -18254.95433905 -23510.17753443 10600.93555555
v -17620.96968091 -23107.10413337 11380.56514897
v -18347.42006004 -23018.39135996 11603.45168370
v -16288.91089031 -21828.65284431 -2313.81651781
v -17388.21905546 -22359.68253278 -1897.93634691
v -17636.55140116 -22416.46610957 12579.01987748
v -17143.76301457 -21475.40985228 14194.97771889
v -17352.22542772 -20712.08146673 15041.13735386
v -18187.72750547 -21323.36389924 -1442.11634950
v -16043.98792078 -19782.43112375 16140.29093377
v -16976.80675750 -19860.08608053 15596.44760428
v -17769.63235295 -20448.58171791 -793.68675936
v -17198.69751591 -19749.23429849 307.64990807
v -18173.08227505 -19126.35455839 1433.87852693
v -16154.91357450 -19210.96524466 16180.96830827
v -16812.36509939 -19042.97548276 15504.91256268
v -17844.74263149 -18592.99040245 2683.96392809
v -17816.16212837 -18167.14047756 4185.76211263
v -17784.50339022 -17959.59164601 5873.91021348
v -17710.98868800 -17888.36914691 7723.60090952
v -17499.34345413 -17859.24270773 9590.75693032
v -17233.02462301 -17908.91991035 11357.16333413
v -16870.70359928 -17998.86440662 12795.50796491
v -16967.83952701 -18486.70503805 14302.20933104
v -19345.69962270 -26140.01279772 769.02125756
v -19920.87411986 -26407.37391943 1626.67992264
v -19503.35049690 -26861.37171670 2229.93379213
v -19203.70955709 -26869.93619993 2977.26060163
v -18941.37034474 -26555.84367759 3759.34414882
v -19671.71422004 -26539.24026218 3865.13508590
v -19453.53574373 -25106.03342076 27.29120665
v -19966.20594155 -25888.19299353 826.89745270
v -19427.35867387 -25917.12862480 5100.05333267
v -20133.88660597 -25168.79459184 6706.36671640
v -18612.19943565 -23221.34272294 -1429.05484961
v -19356.09064015 -23901.16490475 -811.02495862
v -19697.56076422 -24561.74551989 8042.13456368
v -19160.49661533 -23837.18183041 9586.59746951
v -19007.29423458 -23200.80954572 10943.13587370
v -19966.63695788 -22810.00743775 10427.32169488
v -18871.75906137 -22163.90575557 -1430.26669306
v -19017.26537140 -22338.08439318 12044.01890875
v -18401.35667192 -21661.00924711 13483.22994545
v -18047.07485173 -21059.71192120 14445.19344796
v -18773.71298383 -20832.86881952 13929.70042955
v -19216.17373020 -21380.82810955 -1113.05694529
v -18913.05448932 -20744.36369045 -786.45853048
v -19927.98419700 -21029.37547527 -322.44562947
v -18052.89928268 -20307.13771124 14817.26107544
v -18708.42357580 -19901.23565078 14051.61610800
v -19111.83351699 -19949.22276164 371.26802981
v -19453.30870818 -19174.55516072 1662.57132827
v -17746.45960576 -19394.10673342 14858.28563723
v -18276.97336744 -19074.86966524 13888.78744099
v -19029.34351569 -18714.02284176 2415.22522638
v -19274.72750971 -18454.84074607 3753.46381780
v -18950.58834168 -18174.60733321 5206.39608943
v -19299.88260484 -18318.80841771 6929.27700133
v -18936.18172200 -18274.43344752 8956.61885573
v -18598.45972924 -18316.81403924 10739.38103587
v -18185.64287819 -18520.54231985 12604.83927504
v -20086.14971835 -26632.63864365 2392.80549686
v -20004.05960592 -26626.16183617 3086.20016140
v -20232.38442942 -25442.71324494 707.32622888
v -20544.09701817 -25595.09606638 1472.64615697
v -20635.15817730 -25916.54635436 2761.90147407
v -20511.93791498 -25872.61496467 4346.79832920
v -20551.08278979 -25454.18452228 5723.71896935
v -20932.16489239 -24840.56446748 6628.65463653
v -19664.27658931 -22865.20972920 -903.62824773
v -20253.11884730 -23690.06592458 -26.57338482
v -20612.43782535 -24657.94309411 902.40741653
v -20713.32232085 -24375.65689835 7708.39785885
v -20342.89419221 -23757.64610823 8988.90757158
v -20836.10530698 -22926.82188054 9287.06247488
v -19753.45804783 -21898.50597962 -889.57911921
v -20542.58608580 -22162.16530959 0.63505710
v -19935.71115289 -21314.69114841 11593.05547745
v -20762.46249815 -21812.52427080 9873.79186073
v -19232.55712925 -21375.68326339 12932.46306403
v -20769.03666826 -21093.91519669 413.70584443
v -20416.49026893 -20160.38495468 10183.55544791
v -21202.90825725 -21125.93046374 8879.35270041
v -21074.62353765 -20198.11783535 8485.84912627
v -19816.99108573 -20079.18008527 11950.02032204
v -19413.17278062 -20491.99645128 13019.37517491
v -20383.82243338 -20409.47583747 556.06133981
v -20048.17670981 -18965.12471557 2716.60158483
v -20456.40554032 -19788.06130844 1627.37628257
v -20441.85391947 -18894.96699815 3860.08312472
v -20967.95868287 -19586.49950640 3114.27823995
v -21057.89835297 -19412.95019612 4412.54859252
v -20283.37496059 -19131.32615622 8462.31297560
v -21116.26398502 -19783.66074978 7400.54032017
v -20577.82689166 -19045.62933308 6820.20765715
v -19663.95931376 -18903.27545093 10038.06971756
v -19441.57991330 -19155.15406420 11500.53744788
v -19123.17747810 -19473.65101364 12950.34782668
v -20244.61546630 -18743.15196464 5277.98330149
v -21284.83696980 -24440.68041347 2466.24470162
v -21356.93093518 -24805.90168816 4154.63391751
v -21227.20116542 -24855.80354213 5629.15542407
v -21211.90263645 -23068.67060168 1340.53457950
v -21769.70037062 -22979.83391438 2865.91946191
v -21852.27719828 -23434.17000268 4109.67767489
v -21765.08265039 -23723.15159891 5590.61509315
v -21417.94336709 -23849.17343367 7073.32954804
v -21073.83540175 -23536.02621049 8361.44871786
v -21252.35414142 -21517.23586412 1195.63908705
v -21693.39686419 -21769.22370847 2555.74799558
v -21965.63252880 -22028.48490081 4051.15710446
v -21977.22927086 -22364.55543774 5537.20260227
v -21795.79220624 -22723.58280861 6792.38562967
v -21393.32613811 -22462.98330034 8289.81803901
v -20992.49529348 -20606.15556726 1127.31589423
v -21324.24183565 -20568.52914310 2214.16061360
v -21615.42850475 -20554.53306026 3925.27342483
v -21860.64470049 -21144.25043952 5321.09419293
v -21621.74902967 -21161.65227149 7129.69571914
v -21304.26897916 -19877.03756739 5796.40596505
f 3 2 1
f 5 4 1
f 1 4 3
f 7 6 5
f 5 6 4
f 7 8 6
f 11 10 9
f 11 9 2
f 9 1 2
f 9 12 1
f 1 13 5
f 1 12 13
f 5 14 7
f 5 13 14
f 8 7 15
f 7 16 15
f 7 14 16
f 16 17 15
f 10 18 9
f 9 18 12
f 12 18 19
f 12 19 13
f 13 19 20
f 13 20 14
f 14 20 21
f 14 21 16
f 16 21 22
f 16 22 17
f 25 24 23
f 23 26 25
f 23 24 27
f 27 24 28
f 26 23 29
f 23 30 29
f 23 27 30
f 32 31 30
f 30 31 29
f 32 33 31
f 36 35 34
f 36 34 28
f 28 34 27
f 34 2 27
f 2 3 27
f 27 3 4
f 27 4 30
f 30 4 6
f 30 6 32
f 38 37 8
f 8 37 6
f 37 33 6
f 33 32 6
f 38 39 37
f 42 41 40
f 42 40 35
f 35 40 34
f 40 10 34
f 10 11 34
f 34 11 2
f 15 38 8
f 44 43 17
f 17 43 15
f 43 39 15
f 39 38 15
f 44 45 43
f 40 41 46
f 46 41 47
f 48 18 10
f 40 48 10
f 46 48 40
f 49 19 18
f 49 18 48
f 50 20 19
f 50 19 49
f 51 21 20
f 51 20 50
f 52 22 21
f 52 21 51
f 44 17 22
f 52 44 22
f 53 44 52
f 45 44 54
f 44 55 54
f 44 53 55
f 55 56 54
f 47 57 46
f 46 57 48
f 48 57 58
f 60 59 58
f 59 48 58
f 59 49 48
f 49 61 50
f 49 59 61
f 50 62 51
f 50 61 62
f 51 63 52
f 51 62 63
f 65 53 64
f 53 63 64
f 53 52 63
f 53 65 55
f 55 65 66
f 55 66 56
f 60 67 59
f 59 67 61
f 61 67 68
f 61 68 62
f 62 68 69
f 62 69 63
f 63 69 70
f 63 70 64
f 72 71 25
f 25 71 24
f 25 26 72
f 72 26 73
f 76 75 74
f 71 76 74
f 28 71 74
f 24 71 28
f 77 73 26
f 77 26 29
f 78 29 31
f 78 77 29
f 31 33 78
f 78 33 79
f 82 81 80
f 82 80 75
f 75 80 74
f 80 35 74
f 35 36 74
f 74 36 28
f 83 79 33
f 83 33 37
f 37 39 83
f 83 39 84
f 80 81 42
f 81 41 42
f 81 85 41
f 80 42 35
f 86 84 39
f 86 39 43
f 88 87 45
f 87 43 45
f 87 86 43
f 88 89 87
f 85 47 41
f 90 47 85
f 54 88 45
f 92 91 56
f 56 91 54
f 91 89 54
f 89 88 54
f 92 93 91
f 57 47 94
f 47 95 94
f 47 90 95
f 96 58 57
f 96 57 94
f 96 60 58
f 64 97 65
f 98 66 65
f 98 65 97
f 92 56 66
f 98 92 66
f 99 92 98
f 93 92 100
f 100 92 99
f 95 101 94
f 94 101 96
f 96 101 102
f 96 102 60
f 102 67 60
f 102 103 67
f 67 104 68
f 103 104 67
f 104 106 105
f 69 104 105
f 68 104 69
f 107 70 69
f 107 69 105
f 97 64 70
f 107 97 70
f 108 97 107
f 97 109 98
f 97 108 109
f 98 110 99
f 98 109 110
f 100 99 111
f 99 112 111
f 99 110 112
f 112 113 111
f 106 114 105
f 105 114 107
f 107 114 115
f 107 115 108
f 108 115 116
f 108 116 109
f 109 116 117
f 109 117 110
f 110 117 118
f 110 118 112
f 112 118 119
f 112 119 113
f 120 71 72
f 73 120 72
f 122 121 76
f 76 121 75
f 122 76 71
f 123 122 71
f 120 123 71
f 122 123 124
f 77 125 73
f 125 120 73
f 125 123 120
f 78 126 77
f 77 126 125
f 79 126 78
f 128 127 82
f 82 127 81
f 82 75 121
f 82 121 128
f 129 124 123
f 129 123 125
f 129 125 130
f 130 125 126
f 130 126 131
f 133 131 132
f 132 131 83
f 131 126 83
f 126 79 83
f 84 132 83
f 127 85 81
f 134 85 127
f 135 133 132
f 135 132 84
f 86 135 84
f 136 135 86
f 137 86 87
f 137 136 86
f 87 89 137
f 137 89 138
f 141 140 139
f 134 141 139
f 90 134 139
f 85 134 90
f 142 138 89
f 142 89 91
f 91 93 142
f 142 93 143
f 140 144 139
f 90 139 144
f 145 90 144
f 95 90 145
f 100 147 146
f 143 100 146
f 93 100 143
f 147 148 146
f 145 149 95
f 95 149 101
f 101 150 102
f 149 150 101
f 102 151 103
f 150 151 102
f 103 152 104
f 151 152 103
f 106 104 152
f 106 152 153
f 111 147 100
f 111 113 147
f 113 148 147
f 113 154 148
f 153 155 106
f 106 155 114
f 114 156 115
f 155 156 114
f 115 157 116
f 156 157 115
f 116 158 117
f 157 158 116
f 117 159 118
f 158 159 117
f 118 160 119
f 159 160 118
f 113 119 154
f 154 119 160
f 161 121 122
f 124 161 122
f 162 127 128
f 121 161 128
f 161 162 128
f 161 163 162
f 129 164 124
f 164 161 124
f 164 163 161
f 130 165 129
f 129 165 164
f 131 166 130
f 130 166 165
f 133 166 131
f 169 168 167
f 170 169 162
f 169 134 162
f 134 127 162
f 169 167 134
f 170 162 163
f 170 163 171
f 171 163 164
f 171 164 172
f 172 164 165
f 172 165 173
f 175 174 173
f 165 175 173
f 166 175 165
f 135 176 133
f 176 166 133
f 176 175 166
f 136 177 135
f 135 177 176
f 137 178 136
f 136 178 177
f 138 178 137
f 167 168 141
f 168 140 141
f 168 179 140
f 167 141 134
f 180 174 175
f 180 175 176
f 180 176 181
f 181 176 177
f 181 177 182
f 182 177 178
f 182 178 183
f 183 178 138
f 142 183 138
f 184 183 142
f 142 143 184
f 184 143 185
f 179 186 140
f 140 186 144
f 145 144 186
f 145 186 187
f 188 185 143
f 188 143 146
f 190 189 148
f 189 146 148
f 189 188 146
f 190 191 189
f 187 192 145
f 145 192 149
f 149 193 150
f 192 193 149
f 150 194 151
f 193 194 150
f 151 195 152
f 194 195 151
f 153 152 195
f 153 195 196
f 199 198 197
f 201 200 197
f 201 197 198
f 203 202 200
f 203 200 201
f 204 202 203
f 154 205 190
f 154 190 148
f 191 190 206
f 206 190 205
f 196 207 153
f 153 207 155
f 155 208 156
f 207 208 155
f 197 157 199
f 157 208 199
f 157 156 208
f 157 197 158
f 158 197 200
f 158 200 159
f 159 200 202
f 204 209 202
f 209 159 202
f 209 160 159
f 154 160 205
f 160 210 205
f 160 209 210
f 205 210 206
f 212 211 169
f 169 211 168
f 214 212 213
f 212 170 213
f 212 169 170
f 171 215 170
f 170 215 213
f 172 216 171
f 171 216 215
f 173 217 172
f 172 217 216
f 174 217 173
f 219 179 218
f 179 211 218
f 179 168 211
f 219 218 214
f 213 219 214
f 220 219 213
f 221 213 215
f 220 213 221
f 222 215 216
f 221 215 222
f 223 216 217
f 222 216 223
f 223 217 174
f 224 223 174
f 180 224 174
f 225 223 224
f 227 224 226
f 224 181 226
f 224 180 181
f 182 228 181
f 181 228 226
f 183 229 182
f 182 229 228
f 184 230 183
f 183 230 229
f 185 230 184
f 219 186 179
f 186 219 187
f 219 231 187
f 219 220 231
f 232 220 221
f 231 220 232
f 233 221 222
f 232 221 233
f 234 222 223
f 233 222 234
f 223 225 235
f 223 235 234
f 236 227 226
f 236 226 228
f 236 228 237
f 237 228 229
f 237 229 238
f 238 229 230
f 238 230 239
f 241 239 240
f 240 239 188
f 239 230 188
f 230 185 188
f 189 242 188
f 188 242 240
f 191 242 189
f 231 192 187
f 192 231 193
f 193 231 232
f 193 232 194
f 194 232 233
f 194 233 195
f 195 233 234
f 244 243 196
f 244 196 195
f 235 244 195
f 234 235 195
f 246 245 243
f 246 243 244
f 198 199 245
f 246 198 245
f 247 198 246
f 198 248 201
f 247 248 198
f 201 249 203
f 248 249 201
f 249 250 203
f 250 241 203
f 240 203 241
f 203 240 204
f 251 204 240
f 204 251 250
f 250 252 204
f 249 252 250
f 250 251 241
f 254 253 251
f 240 254 251
f 242 254 240
f 206 254 191
f 191 254 242
f 243 207 196
f 207 243 208
f 208 243 245
f 208 245 199
f 252 255 204
f 204 255 209
f 254 210 253
f 210 255 253
f 210 209 255
f 210 254 206
f 256 211 212
f 214 256 212
f 256 218 211
f 218 256 214
f 257 225 224
f 227 257 224
f 258 235 257
f 257 235 225
f 258 257 227
f 259 258 227
f 236 259 227
f 260 258 259
f 261 236 237
f 261 259 236
f 262 237 238
f 262 261 237
f 264 262 263
f 262 239 263
f 262 238 239
f 241 263 239
f 258 244 235
f 260 265 258
f 265 244 258
f 265 246 244
f 246 266 247
f 265 266 246
f 247 267 248
f 266 267 247
f 263 249 264
f 249 267 264
f 249 248 267
f 252 249 268
f 249 263 268
f 241 251 268
f 241 268 263
f 253 268 251
f 268 255 252
f 255 268 253
f 269 260 259
f 261 270 259
f 259 270 269
f 262 271 261
f 261 271 270
f 264 271 262
f 269 265 260
f 265 269 266
f 266 269 270
f 266 270 267
f 267 270 271
f 267 271 264
f 274 273 272
f 276 275 272
f 272 275 274
f 278 277 276
f 276 277 275
f 280 279 278
f 278 279 277
f 280 281 279
f 272 273 282
f 282 273 283
f 285 276 284
f 276 282 284
f 276 272 282
f 287 286 285
f 286 276 285
f 286 278 276
f 278 288 280
f 278 286 288
f 281 280 289
f 289 280 288
f 283 290 282
f 282 290 284
f 287 291 286
f 286 291 288
f 288 291 292
f 288 292 289
f 295 294 293
f 293 296 295
f 299 298 297
f 301 300 297
f 297 300 299
f 303 302 301
f 302 293 301
f 294 300 301
f 294 301 293
f 293 302 296
f 306 305 304
f 304 307 306
f 310 309 308
f 308 311 310
f 298 312 297
f 314 313 312
f 313 297 312
f 313 301 297
f 303 301 315
f 301 316 315
f 301 313 316
f 316 317 315
f 320 319 318
f 320 318 305
f 318 304 305
f 318 321 304
f 274 322 273
f 322 304 273
f 304 321 273
f 304 322 307
f 323 274 275
f 323 322 274
f 277 308 309
f 323 277 309
f 275 277 323
f 324 311 308
f 277 324 308
f 279 324 277
f 326 325 281
f 325 279 281
f 325 324 279
f 326 327 325
f 314 328 313
f 313 328 316
f 316 328 329
f 329 330 316
f 330 331 316
f 332 317 316
f 332 316 331
f 332 331 319
f 331 318 319
f 331 333 318
f 318 334 321
f 318 333 334
f 334 283 273
f 334 273 321
f 284 335 285
f 335 287 285
f 289 336 326
f 289 326 281
f 327 326 337
f 326 338 337
f 326 336 338
f 338 339 337
f 330 340 331
f 331 340 333
f 333 340 341
f 333 341 334
f 334 341 342
f 334 342 283
f 342 290 283
f 342 343 290
f 284 290 335
f 290 344 335
f 290 343 344
f 335 344 287
f 344 291 287
f 344 345 291
f 291 346 292
f 345 346 291
f 289 292 336
f 292 347 336
f 292 346 347
f 336 347 338
f 338 347 348
f 338 348 339
f 351 350 349
f 353 352 349
f 349 352 351
f 353 354 352
f 357 356 355
f 357 355 350
f 350 355 349
f 355 294 349
f 294 295 349
f 349 295 296
f 358 349 296
f 353 349 358
f 354 353 359
f 353 360 359
f 353 358 360
f 360 361 359
f 363 362 299
f 299 362 298
f 300 355 356
f 363 300 356
f 299 300 363
f 294 355 300
f 302 303 364
f 358 296 302
f 364 358 302
f 365 358 364
f 358 366 360
f 358 365 366
f 306 367 305
f 367 360 305
f 360 366 305
f 360 367 361
f 369 368 307
f 368 306 307
f 368 367 306
f 371 370 369
f 369 370 368
f 309 310 371
f 310 370 371
f 310 372 370
f 374 373 311
f 373 310 311
f 373 372 310
f 376 375 374
f 374 375 373
f 376 377 375
f 362 378 298
f 298 378 312
f 314 312 378
f 314 378 379
f 315 364 303
f 364 315 317
f 380 364 317
f 365 364 380
f 380 319 320
f 366 380 320
f 365 380 366
f 366 320 305
f 322 369 307
f 369 322 323
f 369 323 371
f 371 323 309
f 324 374 311
f 374 324 325
f 374 325 376
f 382 381 327
f 327 381 325
f 381 377 325
f 377 376 325
f 382 383 381
f 379 384 314
f 314 384 328
f 328 385 329
f 384 385 328
f 385 386 329
f 385 317 386
f 317 385 380
f 387 380 385
f 380 387 332
f 386 332 387
f 387 330 386
f 386 330 329
f 317 332 386
f 380 332 319
f 337 382 327
f 337 339 382
f 339 383 382
f 339 388 383
f 387 389 330
f 330 389 340
f 340 390 341
f 389 390 340
f 341 391 342
f 390 391 341
f 342 392 343
f 391 392 342
f 343 393 344
f 392 393 343
f 344 394 345
f 393 394 344
f 345 395 346
f 394 395 345
f 346 396 347
f 395 396 346
f 347 397 348
f 396 397 347
f 339 348 388
f 388 348 397
f 400 399 398
f 402 401 398
f 398 401 400
f 402 403 401
f 398 399 351
f 399 350 351
f 399 404 350
f 398 351 352
f 398 352 402
f 406 405 354
f 354 405 352
f 405 403 352
f 403 402 352
f 408 407 406
f 406 407 405
f 408 409 407
f 411 410 357
f 357 410 356
f 357 350 404
f 357 404 411
f 359 406 354
f 406 359 361
f 412 406 361
f 408 406 412
f 409 408 413
f 408 414 413
f 408 412 414
f 416 415 414
f 414 415 413
f 418 417 416
f 416 417 415
f 418 419 417
f 420 362 363
f 421 420 363
f 356 421 363
f 410 421 356
f 367 412 361
f 412 367 368
f 412 368 414
f 414 368 370
f 414 370 416
f 416 370 372
f 416 372 418
f 422 419 418
f 372 422 418
f 373 422 372
f 423 373 375
f 423 422 373
f 375 377 423
f 423 377 424
f 420 378 362
f 379 378 420
f 421 379 420
f 425 379 421
f 377 381 426
f 427 377 426
f 424 377 427
f 383 426 381
f 425 428 379
f 379 428 384
f 384 429 385
f 428 429 384
f 387 385 429
f 387 429 430
f 427 426 431
f 427 431 432
f 388 431 383
f 383 431 426
f 430 433 387
f 387 433 389
f 389 434 390
f 433 434 389
f 390 435 391
f 434 435 390
f 391 436 392
f 435 436 391
f 392 437 393
f 436 437 392
f 393 438 394
f 437 438 393
f 394 439 395
f 438 439 394
f 395 440 396
f 439 440 395
f 431 397 432
f 397 440 432
f 397 396 440
f 397 431 388
f 441 399 400
f 441 400 442
f 400 443 442
f 400 401 443
f 445 444 403
f 444 401 403
f 444 443 401
f 445 446 444
f 448 447 441
f 447 399 441
f 447 404 399
f 448 441 442
f 405 445 403
f 449 446 445
f 405 449 445
f 407 449 405
f 407 409 449
f 449 409 450
f 452 451 411
f 411 451 410
f 411 404 447
f 411 447 452
f 453 450 409
f 453 409 413
f 454 413 415
f 454 453 413
f 456 454 455
f 454 417 455
f 454 415 417
f 419 455 417
f 451 421 410
f 457 421 451
f 458 456 455
f 458 455 419
f 422 458 419
f 459 458 422
f 461 459 460
f 459 423 460
f 459 422 423
f 424 460 423
f 463 425 462
f 425 457 462
f 425 421 457
f 464 463 462
f 461 460 465
f 461 465 466
f 427 465 424
f 424 465 460
f 463 428 425
f 464 467 463
f 467 428 463
f 467 429 428
f 430 429 467
f 430 467 468
f 466 465 469
f 466 469 470
f 432 469 427
f 427 469 465
f 468 471 430
f 430 471 433
f 433 472 434
f 471 472 433
f 434 473 435
f 472 473 434
f 435 474 436
f 473 474 435
f 436 475 437
f 474 475 436
f 437 476 438
f 475 476 437
f 438 477 439
f 476 477 438
f 469 440 470
f 440 477 470
f 440 439 477
f 440 469 432
f 478 442 443
f 444 479 443
f 443 479 478
f 446 479 444
f 480 447 448
f 481 480 448
f 481 448 442
f 482 481 442
f 478 482 442
f 482 478 479
f 482 479 483
f 483 479 446
f 449 483 446
f 484 483 449
f 449 450 484
f 484 450 485
f 486 451 452
f 487 486 452
f 487 452 447
f 488 487 447
f 480 488 447
f 488 480 481
f 489 485 450
f 489 450 453
f 490 453 454
f 490 489 453
f 454 456 490
f 490 456 491
f 492 457 486
f 486 457 451
f 486 487 493
f 486 493 492
f 456 458 494
f 495 456 494
f 491 456 495
f 459 496 458
f 458 496 494
f 461 496 459
f 492 462 457
f 464 462 492
f 493 464 492
f 497 464 493
f 500 499 498
f 498 499 495
f 494 498 495
f 501 498 494
f 502 494 496
f 501 494 502
f 466 502 461
f 461 502 496
f 497 503 464
f 464 503 467
f 505 504 468
f 467 505 468
f 503 505 467
f 507 506 504
f 507 504 505
f 508 506 507
f 511 510 509
f 509 510 500
f 498 509 500
f 512 509 498
f 513 498 501
f 512 498 513
f 514 501 502
f 513 501 514
f 470 514 466
f 466 514 502
f 504 471 468
f 471 504 472
f 472 504 506
f 508 515 506
f 515 472 506
f 515 473 472
f 509 474 511
f 474 515 511
f 474 473 515
f 474 509 475
f 475 509 512
f 475 512 476
f 476 512 513
f 476 513 477
f 477 513 514
f 477 514 470
f 516 481 482
f 483 517 482
f 482 517 516
f 484 518 483
f 483 518 517
f 485 518 484
f 519 487 488
f 481 516 488
f 516 519 488
f 516 520 519
f 521 516 517
f 520 516 521
f 522 517 518
f 521 517 522
f 489 523 485
f 523 518 485
f 523 522 518
f 490 524 489
f 489 524 523
f 491 524 490
f 525 493 519
f 519 493 487
f 526 519 520
f 525 519 526
f 527 520 521
f 526 520 527
f 528 521 522
f 527 521 528
f 529 522 523
f 528 522 529
f 530 523 524
f 529 523 530
f 495 530 491
f 491 530 524
f 531 497 525
f 525 497 493
f 532 525 526
f 531 525 532
f 533 526 527
f 532 526 533
f 534 527 528
f 533 527 534
f 535 528 529
f 534 528 535
f 500 535 499
f 535 530 499
f 535 529 530
f 499 530 495
f 531 503 497
f 503 531 505
f 505 531 532
f 505 532 507
f 507 532 533
f 507 533 508
f 533 536 508
f 533 534 536
f 511 536 510
f 536 535 510
f 536 534 535
f 510 535 500
f 536 515 508
f 515 536 511

