# https://github.com/mikedh/trimesh
v -2673.28450000 -941.90485000 552.16500000
v -2658.80450000 -870.30485000 629.24500000
v -2658.24450000 -826.06485000 610.54500000
v -2659.82450000 -972.76485000 584.54500000
v -2645.21450000 -739.63485000 625.23500000
v -2655.38450000 -813.75485000 556.49500000
v -2664.81450000 -936.73485000 498.12500000
v -2663.79450000 -1125.45485000 472.72500000
v -2646.37450000 -849.41485000 500.72500000
v -2669.67450000 -1091.71485000 431.91500000
v -2665.52450000 -1226.77485000 361.95500000
v -2629.58450000 -924.29485000 431.03500000
v -2655.22450000 -1069.34485000 392.48500000
v -2646.56450000 -1296.03485000 377.27500000
v -2662.80450000 -1176.83485000 353.18500000
v -2650.25450000 -1169.29485000 323.59500000
v -2643.37450000 -1276.61485000 277.31500000
v -2627.10450000 -783.76485000 700.86500000
v -2631.99450000 -945.73485000 647.44500000
v -2584.36450000 -836.20485000 755.65500000
v -2627.35450000 -728.15485000 682.29500000
v -2619.35450000 -686.53485000 676.06500000
v -2628.17450000 -728.55485000 592.46500000
v -2641.34450000 -1101.68485000 547.36500000
v -2636.01450000 -789.13485000 535.98500000
v -2621.44450000 -1254.09485000 481.94500000
v -2589.02450000 -1049.52485000 307.86500000
v -2602.85450000 -1393.63485000 371.99500000
v -2615.19450000 -1405.25485000 303.34500000
v -2632.38450000 -1348.94485000 283.73500000
v -2580.96450000 -1226.95485000 215.03500000
v -2598.52450000 -1449.99485000 244.62500000
v -2587.20450000 -1352.73485000 173.85500000
v -2626.18450000 -1357.12485000 238.71500000
v -2595.73450000 -1434.33485000 200.25500000
v -2597.97450000 -672.79485000 739.44500000
v -2606.04450000 -713.68485000 732.54500000
v -2573.57450000 -1029.46485000 700.93500000
v -2594.60450000 -1140.03485000 607.08500000
v -2595.73450000 -651.11485000 660.62500000
v -2560.55450000 -679.38485000 551.43500000
v -2602.47450000 -799.76485000 487.34500000
v -2603.79450000 -1374.60485000 200.93500000
v -2577.40450000 -705.79485000 775.21500000
v -2551.45450000 -966.83485000 756.02500000
v -2581.31450000 -632.72485000 724.73500000
v -2542.88450000 -597.65485000 655.05500000
v -2560.60450000 -1288.51485000 573.48500000
v -2554.73450000 -1389.47485000 481.72500000
v -2556.52450000 -880.06485000 366.24500000
v -2579.07450000 -1474.58485000 287.11500000
v -2516.71450000 -754.54485000 841.74500000
v -2562.89450000 -635.49485000 780.71500000
v -2495.82450000 -957.78485000 812.37500000
v -2547.36450000 -593.56485000 769.23500000
v -2480.35450000 -1116.05485000 776.30500000
v -2529.90450000 -570.69485000 728.09500000
v -2524.18450000 -1192.95485000 681.33500000
v -2500.55450000 -583.01485000 623.85500000
v -2529.49450000 -1359.18485000 568.51500000
v -2542.61450000 -781.75485000 424.33500000
v -2547.06450000 -1485.73485000 357.45500000
v -2520.07450000 -1098.14485000 201.93500000
v -2568.96450000 -1502.62485000 214.34500000
v -2551.40450000 -1510.69485000 145.50500000
v -2559.48450000 -1444.87485000 135.58500000
v -2527.37450000 -636.49485000 828.63500000
v -2529.55450000 -588.44485000 801.91500000
v -2496.57450000 -536.95485000 793.96500000
v -2496.58450000 -1418.92485000 553.06500000
v -2489.56450000 -1493.71485000 452.74500000
v -2492.61450000 -950.51485000 249.63500000
v -2528.41450000 -1542.25485000 270.26500000
v -2535.66450000 -1542.01485000 192.00500000
v -2495.09450000 -1192.14485000 135.67500000
v -2525.44450000 -1342.25485000 120.20500000
v -2524.56450000 -1548.67485000 154.96500000
v -2538.59450000 -1496.80485000 112.65500000
v -2517.56450000 -1521.64485000 113.52500000
v -2468.54450000 -514.53485000 709.29500000
v -2476.52450000 -1328.92485000 656.48500000
v -2495.89450000 -647.20485000 524.43500000
v -2500.96450000 -729.73485000 428.98500000
v -2500.34450000 -821.04485000 346.52500000
v -2509.03450000 -1523.85485000 362.50500000
v -2508.86450000 -1560.83485000 202.72500000
v -2513.29450000 -1465.46485000 95.73500000
v -2465.28450000 -617.70485000 892.85500000
v -2420.43450000 -754.21485000 922.24500000
v -2475.40450000 -554.27485000 850.16500000
v -2404.59450000 -936.93485000 895.54500000
v -2435.77450000 -1252.85485000 753.92500000
v -2432.02450000 -1414.02485000 636.04500000
v -2466.81450000 -1550.49485000 377.61500000
v -2472.57450000 -1567.48485000 298.22500000
v -2497.00450000 -1550.93485000 158.90500000
v -2465.19450000 -1259.97485000 89.68500000
v -2497.38450000 -1497.83485000 90.17500000
v -2461.67450000 -1359.87485000 72.45500000
v -2367.10450000 -626.87485000 965.15500000
v -2432.96450000 -541.05485000 902.66500000
v -2421.01450000 -498.83485000 887.84500000
v -2392.87450000 -1099.03485000 860.25500000
v -2387.00450000 -1209.16485000 821.66500000
v -2395.92450000 -450.38485000 837.45500000
v -2455.02450000 -497.63485000 768.03500000
v -2461.53450000 -530.40485000 665.35500000
v -2432.69450000 -565.74485000 596.59500000
v -2424.45450000 -1474.70485000 567.67500000
v -2449.02450000 -679.52485000 451.07500000
v -2456.21450000 -760.77485000 362.40500000
v -2434.36450000 -1567.40485000 381.51500000
v -2460.93450000 -1061.61485000 162.28500000
v -2436.77450000 -1562.62485000 268.69500000
v -2447.71450000 -986.16485000 190.85500000
v -2486.50450000 -1517.25485000 111.97500000
v -2468.47450000 -1454.84485000 83.75500000
v -2405.50450000 -1323.54485000 741.36500000
v -2394.06450000 -468.62485000 700.54500000
v -2422.15450000 -1524.17485000 490.41500000
v -2421.38450000 -801.00485000 306.36500000
v -2452.88450000 -855.13485000 283.96500000
v -2437.85450000 -932.74485000 220.07500000
v -2438.19450000 -1531.98485000 180.93500000
v -2451.30450000 -1155.32485000 115.48500000
v -2426.69450000 -1269.35485000 70.09500000
v -2434.62450000 -1369.53485000 64.35500000
v -2380.25450000 -543.21485000 944.86500000
v -2387.77450000 -501.55485000 923.99500000
v -2364.26450000 -462.59485000 911.10500000
v -2376.28450000 -429.60485000 761.96500000
v -2381.46450000 -1368.79485000 726.16500000
v -2398.79450000 -610.62485000 524.50500000
v -2391.46450000 -1554.92485000 458.27500000
v -2416.65450000 -732.05485000 384.70500000
v -2402.63450000 -665.19485000 461.90500000
v -2403.77450000 -1565.05485000 380.36500000
v -2421.88450000 -867.38485000 259.41500000
v -2413.59450000 -1021.00485000 163.19500000
v -2420.03450000 -1100.52485000 123.13500000
v -2436.20450000 -1481.52485000 118.45500000
v -2424.41450000 -1183.94485000 95.60500000
v -2411.89450000 -1399.99485000 87.60500000
v -2430.54450000 -1329.14485000 66.47500000
v -2308.54450000 -930.17485000 967.88500000
v -2329.80450000 -415.32485000 890.35500000
v -2348.91450000 -1301.55485000 802.45500000
v -2345.87450000 -1437.41485000 683.52500000
v -2348.09450000 -471.53485000 675.28500000
v -2388.55450000 -853.06485000 274.75500000
v -2398.64450000 -934.12485000 220.89500000
v -2397.24450000 -1139.80485000 103.93500000
v -2398.73450000 -1226.64485000 82.59500000
v -2288.07450000 -810.97485000 993.51500000
v -2299.02450000 -1206.40485000 891.75500000
v -2301.90450000 -358.33485000 799.89500000
v -2342.99450000 -406.50485000 741.43500000
v -2304.86450000 -392.89485000 725.99500000
v -2354.01450000 -539.39485000 608.11500000
v -2359.23450000 -1505.47485000 576.68500000
v -2330.53450000 -599.03485000 551.60500000
v -2374.79450000 -637.16485000 497.45500000
v -2359.39450000 -678.72485000 458.43500000
v -2352.40450000 -1555.59485000 377.36500000
v -2357.23450000 -771.75485000 372.65500000
v -2384.27450000 -1493.02485000 188.29500000
v -2401.61450000 -1089.71485000 127.53500000
v -2390.36450000 -1440.73485000 132.61500000
v -2410.22450000 -1314.67485000 74.78500000
v -2290.13450000 -537.25485000 996.23500000
v -2241.99450000 -702.38485000 1019.50500000
v -2328.43450000 -490.05485000 956.73500000
v -2305.51450000 -1071.47485000 933.27500000
v -2294.70450000 -363.68485000 847.58500000
v -2306.99450000 -1469.93485000 668.38500000
v -2338.75450000 -1554.65485000 460.37500000
v -2370.14450000 -1530.69485000 281.92500000
v -2331.21450000 -916.81485000 273.31500000
v -2328.47450000 -1007.05485000 222.20500000
v -2377.43450000 -1093.30485000 139.77500000
v -2372.33450000 -1179.51485000 107.90500000
v -2379.69450000 -1262.67485000 91.15500000
v -2356.28450000 -1387.45485000 138.86500000
v -2367.00450000 -1319.16485000 111.48500000
v -2294.47450000 -425.88485000 932.94500000
v -2291.21450000 -1372.12485000 786.46500000
v -2291.02450000 -358.16485000 758.03500000
v -2280.99450000 -427.17485000 702.19500000
v -2320.81450000 -1533.84485000 544.93500000
v -2313.97450000 -717.96485000 448.94500000
v -2283.35450000 -854.01485000 361.36500000
v -2341.09450000 -1443.78485000 202.10500000
v -2321.09450000 -1491.20485000 284.80500000
v -2273.86450000 -374.52485000 893.82500000
v -2233.62450000 -361.26485000 726.34500000
v -2280.11450000 -1483.11485000 656.92500000
v -2285.86450000 -500.36485000 655.00500000
v -2298.76450000 -552.08485000 610.03500000
v -2277.03450000 -677.81485000 508.40500000
v -2290.40450000 -1518.57485000 385.57500000
v -2304.35450000 -1380.61485000 209.86500000
v -2321.26450000 -1118.95485000 173.79500000
v -2283.67450000 -1270.87485000 203.49500000
v -2337.14450000 -1219.91485000 143.00500000
v -2184.31450000 -630.87485000 1038.92500000
v -2170.44450000 -868.01485000 1042.06500000
v -2222.76450000 -428.25485000 974.44500000
v -2222.60450000 -1076.75485000 986.56500000
v -2218.21450000 -355.25485000 920.58500000
v -2230.21450000 -1173.62485000 947.98500000
v -2255.24450000 -1300.85485000 863.66500000
v -2236.68450000 -304.53485000 814.89500000
v -2267.84450000 -1432.32485000 731.32500000
v -2245.48450000 -1495.48485000 639.96500000
v -2275.06450000 -1528.33485000 544.20500000
v -2286.25450000 -1532.70485000 465.39500000
v -2270.05450000 -764.31485000 442.18500000
v -2232.97450000 -935.95485000 349.03500000
v -2281.79450000 -1427.68485000 280.31500000
v -2258.45450000 -1035.25485000 270.63500000
v -2242.49450000 -1094.51485000 259.99500000
v -2277.47450000 -1166.84485000 213.42500000
v -2210.24450000 -308.59485000 867.79500000
v -2221.28450000 -295.00485000 777.91500000
v -2245.56450000 -334.94485000 747.96500000
v -2217.76450000 -1439.94485000 733.85500000
v -2236.78450000 -590.51485000 603.90500000
v -2266.00450000 -1470.08485000 349.87500000
v -2137.64450000 -746.48485000 1055.60500000
v -2208.15450000 -964.09485000 1011.66500000
v -2140.55450000 -506.87485000 1023.66500000
v -2230.09450000 -1250.00485000 911.47500000
v -2192.77450000 -1304.32485000 894.01500000
v -2147.23450000 -289.70485000 910.94500000
v -2219.65450000 -1368.92485000 814.22500000
v -2194.32450000 -348.71485000 728.19500000
v -2216.23450000 -461.90485000 686.90500000
v -2221.20450000 -1495.19485000 619.04500000
v -2225.53450000 -1502.60485000 554.31500000
v -2236.52450000 -1502.42485000 482.11500000
v -2186.81450000 -818.58485000 468.06500000
v -2220.54450000 -1414.23485000 365.73500000
v -2225.70450000 -1328.92485000 306.64500000
v -2190.97450000 -1131.07485000 316.32500000
v -2175.57450000 -1219.15485000 340.86500000
v -2201.95450000 -308.89485000 751.01500000
v -2191.30450000 -1451.00485000 700.19500000
v -2152.88450000 -408.42485000 723.22500000
v -2178.12450000 -698.85485000 559.44500000
v -2213.72450000 -1463.56485000 445.29500000
v -2144.42450000 -1080.24485000 1013.87500000
v -2130.10450000 -329.56485000 953.99500000
v -2179.63450000 -1155.35485000 975.95500000
v -2183.34450000 -1226.33485000 939.82500000
v -2124.60450000 -255.15485000 882.46500000
v -2167.55450000 -1327.52485000 871.45500000
v -2151.23450000 -256.30485000 826.34500000
v -2158.56450000 -267.02485000 779.30500000
v -2180.80450000 -552.56485000 653.33500000
v -2181.71450000 -1462.24485000 642.49500000
v -2175.44450000 -1414.41485000 445.19500000
v -2092.72450000 -634.86485000 1056.02500000
v -2091.63450000 -378.29485000 994.11500000
v -2150.72450000 -1257.35485000 926.69500000
v -2170.95450000 -1381.16485000 797.26500000
v -2151.52450000 -318.16485000 752.91500000
v -2140.67450000 -527.54485000 684.45500000
v -2161.61450000 -596.02485000 637.69500000
v -2190.79450000 -1467.92485000 554.52500000
v -2171.37450000 -1356.89485000 404.23500000
v -2167.96450000 -1012.84485000 377.23500000
v -2158.60450000 -1285.36485000 385.10500000
v -2101.13450000 -853.46485000 1063.78500000
v -2124.60450000 -953.62485000 1043.46500000
v -2129.39450000 -1156.12485000 981.44500000
v -2127.25450000 -1278.07485000 893.92500000
v -2080.64450000 -221.85485000 847.19500000
v -2103.88450000 -239.15485000 814.85500000
v -2156.94450000 -1416.08485000 723.52500000
v -2116.33450000 -264.29485000 785.87500000
v -2110.99450000 -379.52485000 749.32500000
v -2160.98450000 -1428.92485000 527.28500000
v -2114.02450000 -1121.82485000 419.36500000
v -2038.35450000 -540.33485000 1044.01500000
v -2082.92450000 -1020.89485000 1039.60500000
v -2102.15450000 -1083.23485000 1013.78500000
v -2036.10450000 -302.34485000 967.99500000
v -2103.68450000 -1183.52485000 957.77500000
v -2082.40450000 -271.12485000 923.63500000
v -2134.09450000 -1344.97485000 806.15500000
v -2068.55450000 -239.28485000 879.66500000
v -2091.68450000 -313.45485000 778.38500000
v -2082.67450000 -501.99485000 728.01500000
v -2154.38450000 -1427.39485000 619.25500000
v -2094.93450000 -740.75485000 594.93500000
v -2143.29450000 -1375.27485000 474.71500000
v -2126.22450000 -1300.44485000 446.03500000
v -2119.05450000 -1216.72485000 428.32500000
v -2116.73450000 -1044.69485000 426.66500000
v -2042.33450000 -446.43485000 1020.15500000
v -2067.23450000 -1076.70485000 1008.51500000
v -2096.62450000 -1275.19485000 846.55500000
v -2111.10450000 -1339.02485000 705.17500000
v -2072.69450000 -262.45485000 810.48500000
v -2058.81450000 -404.30485000 773.85500000
v -2113.33450000 -617.93485000 653.02500000
v -2121.12450000 -1361.01485000 558.37500000
v -2109.25450000 -1311.55485000 499.53500000
v -2129.78450000 -881.83485000 483.36500000
v -2051.76450000 -759.96485000 1069.85500000
v -2048.56450000 -892.76485000 1062.98500000
v -2016.80450000 -362.26485000 996.24500000
v -2069.68450000 -1164.43485000 937.47500000
v -2056.76450000 -223.74485000 866.19500000
v -2053.91450000 -239.90485000 855.51500000
v -2056.82450000 -1190.74485000 875.51500000
v -2071.08450000 -1242.89485000 796.65500000
v -2091.87450000 -1306.81485000 625.43500000
v -2077.65450000 -1256.47485000 576.41500000
v -2091.39450000 -1232.54485000 495.51500000
v -2098.70450000 -947.17485000 484.08500000
v -2017.24450000 -643.13485000 1057.55500000
v -2039.70450000 -975.51485000 1046.55500000
v -2000.45450000 -909.37485000 1053.90500000
v -2031.00450000 -1152.07485000 831.03500000
v -2051.01450000 -335.71485000 800.39500000
v -2020.79450000 -516.73485000 772.02500000
v -2063.14450000 -1231.75485000 697.53500000
v -2051.40450000 -636.26485000 690.56500000
v -2035.25450000 -1150.28485000 658.72500000
v -2046.80450000 -805.86485000 611.39500000
v -2075.78450000 -1124.66485000 491.65500000
v -2072.13450000 -989.89485000 513.09500000
v -2014.11450000 -805.00485000 1071.14500000
v -1999.91450000 -589.03485000 1048.13500000
v -2013.78450000 -987.83485000 1028.25500000
v -2027.70450000 -1053.15485000 990.76500000
v -2030.40450000 -264.72485000 926.13500000
v -2036.03450000 -246.43485000 887.96500000
v -2016.31450000 -1068.41485000 944.95500000
v -2021.17450000 -392.34485000 809.90500000
v -2017.72450000 -1117.50485000 776.69500000
v -2054.38450000 -1137.82485000 565.65500000
v -2036.24450000 -1007.63485000 579.82500000
v -1989.75450000 -757.18485000 1061.47500000
v -2002.59450000 -842.18485000 1061.05500000
v -1998.36450000 -530.20485000 1033.84500000
v -2003.28450000 -326.66485000 983.58500000
v -1994.19450000 -348.29485000 991.23500000
v -1996.54450000 -429.44485000 1005.27500000
v -2002.32450000 -310.23485000 962.64500000
v -2010.57450000 -280.73485000 881.83500000
v -2033.77450000 -304.49485000 837.64500000
v -1993.99450000 -1034.68485000 760.55500000
v -2008.80450000 -1022.64485000 669.38500000
v -2022.08450000 -891.83485000 619.82500000
v -1992.73450000 -898.66485000 681.64500000
v -1978.50450000 -633.40485000 1040.09500000
v -1973.34450000 -829.00485000 1046.36500000
v -2006.51450000 -1010.35485000 999.96500000
v -2005.95450000 -292.38485000 922.73500000
v -1986.49450000 -1009.13485000 885.39500000
v -1999.28450000 -382.29485000 856.67500000
v -1991.44450000 -488.28485000 820.61500000
v -1997.69450000 -628.95485000 754.04500000
v -1981.63450000 -974.73485000 747.08500000
v -1966.79450000 -892.45485000 762.07500000
v -1988.83450000 -772.52485000 714.70500000
v -1985.57450000 -934.99485000 1000.92500000
v -1968.85450000 -525.68485000 1007.42500000
v -1979.64450000 -407.88485000 969.49500000
v -1990.01450000 -339.28485000 947.15500000
v -1989.03450000 -380.81485000 910.58500000
v -1958.70450000 -519.65485000 910.98500000
v -1981.18450000 -463.93485000 866.31500000
v -1973.25450000 -548.38485000 835.35500000
v -1960.12450000 -909.47485000 845.16500000
v -1956.77450000 -785.69485000 777.50500000
v -1957.86450000 -727.01485000 1034.37500000
v -1947.19450000 -795.09485000 998.99500000
v -1956.17450000 -629.23485000 1014.48500000
v -1960.56450000 -888.18485000 933.90500000
v -1963.37450000 -506.52485000 968.17500000
v -1950.70450000 -584.63485000 970.28500000
v -1936.35450000 -645.11485000 921.10500000
v -1962.39450000 -657.39485000 824.47500000
v -1946.39450000 -816.87485000 833.68500000
v -1945.52450000 -686.49485000 982.88500000
v -1935.46450000 -724.08485000 938.98500000
v -1945.86450000 -805.49485000 900.80500000
v -1947.40450000 -739.43485000 866.77500000
v 1960.64550000 -881.54485000 847.17500000
v 1946.72550000 -830.01485000 944.25500000
v 1948.78550000 -750.88485000 909.24500000
v 1964.71550000 -611.17485000 1008.10500000
v 1953.78550000 -757.09485000 985.46500000
v 1971.40550000 -726.63485000 1037.48500000
v 1967.33550000 -824.72485000 1026.65500000
v 1957.42550000 -648.72485000 946.87500000
v 1966.36550000 -881.11485000 960.74500000
v 1968.69550000 -511.52485000 950.39500000
v 1958.76550000 -635.15485000 886.80500000
v 1971.30550000 -483.96485000 892.26500000
v 1958.83550000 -750.17485000 829.26500000
v 1996.68550000 -1019.94485000 837.88500000
v 1970.22550000 -644.21485000 817.50500000
v 1968.42550000 -759.55485000 776.85500000
v 1980.55550000 -848.90485000 743.15500000
v 1991.95550000 -600.85485000 1040.69500000
v 1993.46550000 -731.83485000 1060.94500000
v 1980.83550000 -812.76485000 1049.52500000
v 1995.10550000 -915.07485000 1030.87500000
v 2009.88550000 -831.66485000 1062.87500000
v 1981.81550000 -546.28485000 1017.52500000
v 1990.94550000 -478.56485000 1014.46500000
v 1978.60550000 -503.00485000 996.68500000
v 2008.48550000 -1014.42485000 954.79500000
v 1985.36550000 -417.21485000 981.86500000
v 1996.69550000 -328.85485000 967.82500000
v 1983.18550000 -388.62485000 939.08500000
v 2002.44550000 -291.04485000 917.92500000
v 1991.37550000 -383.58485000 890.31500000
v 1992.23550000 -457.48485000 840.74500000
v 1994.59550000 -998.90485000 758.69500000
v 1994.27550000 -629.28485000 764.61500000
v 1994.25550000 -783.99485000 713.70500000
v 2001.47550000 -973.74485000 700.96500000
v 2014.66550000 -932.66485000 641.91500000
v 2021.37550000 -571.33485000 1050.28500000
v 2031.84550000 -638.51485000 1060.17500000
v 2017.91550000 -492.75485000 1031.12500000
v 2027.68550000 -1034.69485000 1001.88500000
v 2032.88550000 -999.37485000 1034.02500000
v 2006.73550000 -402.71485000 998.88500000
v 2035.60550000 -1092.57485000 948.42500000
v 2020.88550000 -327.63485000 980.76500000
v 2016.30550000 -281.18485000 944.87500000
v 2042.28550000 -1138.59485000 856.88500000
v 2020.19550000 -253.89485000 913.42500000
v 2024.94550000 -248.96485000 890.30500000
v 2026.56550000 -303.13485000 856.69500000
v 2024.44550000 -392.51485000 818.08500000
v 2011.15550000 -511.56485000 790.10500000
v 2041.31550000 -609.46485000 717.32500000
v 2038.65550000 -1150.66485000 736.41500000
v 2028.25550000 -1093.54485000 678.19500000
v 2018.47550000 -741.12485000 685.87500000
v 2033.03550000 -878.84485000 609.79500000
v 2042.26550000 -742.76485000 1068.88500000
v 2061.00550000 -843.85485000 1070.17500000
v 2036.16550000 -924.49485000 1052.55500000
v 2049.06550000 -422.82485000 1015.25500000
v 2067.25550000 -1092.10485000 1001.98500000
v 2037.34550000 -286.49485000 959.30500000
v 2041.69550000 -250.55485000 924.75500000
v 2053.33550000 -231.55485000 879.89500000
v 2052.08550000 -241.18485000 859.50500000
v 2066.75550000 -415.69485000 767.93500000
v 2069.83550000 -1234.59485000 625.68500000
v 2066.57550000 -801.21485000 596.59500000
v 2042.01550000 -1072.45485000 588.61500000
v 2068.15550000 -1021.38485000 1036.22500000
v 2104.35550000 -375.07485000 990.57500000
v 2076.97550000 -1177.61485000 920.37500000
v 2087.14550000 -240.99485000 905.23500000
v 2068.01550000 -234.74485000 897.02500000
v 2081.49550000 -225.10485000 836.72500000
v 2085.55550000 -249.54485000 813.94500000
v 2062.29550000 -325.25485000 804.91500000
v 2078.79550000 -1257.52485000 726.43500000
v 2088.77550000 -493.45485000 730.92500000
v 2104.55550000 -563.95485000 694.18500000
v 2102.24550000 -687.66485000 625.57500000
v 2072.87550000 -1198.26485000 557.12500000
v 2087.61550000 -955.27485000 499.77500000
v 2061.16550000 -1029.43485000 533.43500000
v 2084.22550000 -1163.99485000 500.50500000
v 2104.88550000 -635.63485000 1058.78500000
v 2087.36550000 -950.06485000 1053.84500000
v 2071.72550000 -536.89485000 1042.28500000
v 2111.84550000 -1196.92485000 955.35500000
v 2103.44550000 -302.77485000 943.85500000
v 2103.32550000 -232.83485000 865.72500000
v 2091.05550000 -1264.20485000 809.88500000
v 2106.33550000 -315.06485000 773.70500000
v 2109.25550000 -1342.60485000 629.79500000
v 2109.69550000 -777.06485000 566.91500000
v 2135.41550000 -820.86485000 516.56500000
v 2110.10550000 -1315.43485000 542.89500000
v 2141.31550000 -887.13485000 474.75500000
v 2133.10550000 -1078.03485000 411.78500000
v 2126.36550000 -1150.30485000 425.05500000
v 2134.35550000 -728.14485000 1056.02500000
v 2109.39550000 -1043.01485000 1034.57500000
v 2121.60550000 -470.93485000 1024.18500000
v 2123.82550000 -1130.76485000 995.36500000
v 2119.44550000 -1268.52485000 897.78500000
v 2117.37550000 -1306.40485000 833.22500000
v 2110.22550000 -231.21485000 827.75500000
v 2113.79550000 -236.03485000 809.03500000
v 2126.76550000 -391.54485000 744.30500000
v 2114.48550000 -1335.00485000 736.40500000
v 2143.00550000 -473.31485000 714.40500000
v 2138.04550000 -1288.44485000 449.51500000
v 2163.21550000 -1228.25485000 380.77500000
v 2162.27550000 -852.91485000 1044.48500000
v 2149.01550000 -1015.60485000 1031.83500000
v 2163.50550000 -543.15485000 1036.81500000
v 2188.69550000 -459.59485000 1007.92500000
v 2162.87550000 -1239.48485000 940.99500000
v 2163.24550000 -266.64485000 869.38500000
v 2175.62550000 -310.61485000 912.15500000
v 2142.70550000 -1269.34485000 914.00500000
v 2150.43550000 -1328.26485000 858.86500000
v 2143.95550000 -260.37485000 779.83500000
v 2175.57550000 -328.68485000 749.28500000
v 2143.50550000 -1408.60485000 647.09500000
v 2165.80550000 -648.54485000 604.37500000
v 2143.57550000 -1400.27485000 555.62500000
v 2179.25550000 -743.85485000 529.29500000
v 2159.40550000 -1387.56485000 479.46500000
v 2200.77550000 -1002.51485000 355.65500000
v 2202.27550000 -1114.17485000 317.46500000
v 2155.71550000 -1097.27485000 1009.39500000
v 2203.33550000 -384.91485000 958.35500000
v 2168.66550000 -1388.43485000 806.67500000
v 2196.42550000 -1378.84485000 824.66500000
v 2154.50550000 -1389.43485000 756.99500000
v 2147.15550000 -247.10485000 796.91500000
v 2187.71550000 -1443.77485000 718.97500000
v 2180.18550000 -1414.55485000 761.70500000
v 2185.58550000 -1456.09485000 649.90500000
v 2200.35550000 -535.58485000 657.01500000
v 2187.82550000 -1465.14485000 561.11500000
v 2186.56550000 -1444.74485000 495.37500000
v 2210.95550000 -1192.05485000 302.99500000
v 2183.69550000 -615.60485000 1041.38500000
v 2195.86550000 -1091.49485000 1001.82500000
v 2183.65550000 -1315.44485000 880.20500000
v 2203.23550000 -281.22485000 814.14500000
v 2188.47550000 -273.12485000 784.23500000
v 2219.79550000 -313.72485000 762.32500000
v 2222.09550000 -1497.63485000 583.78500000
v 2246.72550000 -613.75485000 582.48500000
v 2260.43550000 -688.40485000 511.57500000
v 2229.14550000 -1454.78485000 409.51500000
v 2226.47550000 -1382.13485000 354.40500000
v 2228.96550000 -1301.91485000 309.21500000
v 2259.18550000 -1126.78485000 246.14500000
v 2240.52550000 -691.88485000 1024.99500000
v 2246.23550000 -933.71485000 1002.42500000
v 2195.66550000 -1173.57485000 965.54500000
v 2221.98550000 -1275.51485000 902.94500000
v 2241.04550000 -323.45485000 870.38500000
v 2210.99550000 -1435.98485000 739.43500000
v 2225.13550000 -428.85485000 707.26500000
v 2235.18550000 -1486.74485000 638.41500000
v 2250.44550000 -1518.72485000 511.25500000
v 2240.10550000 -1492.61485000 462.91500000
v 2238.94550000 -863.52485000 395.88500000
v 2290.56550000 -1221.97485000 197.24500000
v 2248.21550000 -802.62485000 1015.15500000
v 2261.66550000 -461.31485000 985.85500000
v 2236.92550000 -1348.51485000 843.23500000
v 2230.39550000 -305.98485000 843.99500000
v 2258.22550000 -1422.99485000 753.73500000
v 2247.49550000 -368.25485000 734.48500000
v 2275.74550000 -507.28485000 650.49500000
v 2276.43550000 -772.14485000 427.67500000
v 2319.16550000 -1452.34485000 257.20500000
v 2312.98550000 -944.42485000 271.48500000
v 2296.58550000 -1047.80485000 230.29500000
v 2243.74550000 -552.43485000 1011.72500000
v 2267.81550000 -1074.89485000 962.69500000
v 2256.17550000 -367.14485000 910.64500000
v 2283.46550000 -1192.68485000 911.56500000
v 2247.47550000 -319.16485000 774.72500000
v 2280.24550000 -568.92485000 599.90500000
v 2283.63550000 -1529.45485000 547.41500000
v 2317.10550000 -1549.28485000 462.96500000
v 2293.84550000 -1531.95485000 434.03500000
v 2318.60550000 -1512.44485000 347.39500000
v 2301.20550000 -1375.12485000 230.01500000
v 2310.50550000 -433.47485000 932.43500000
v 2296.22550000 -1298.08485000 849.06500000
v 2285.49550000 -1492.34485000 641.45500000
v 2286.78550000 -362.57485000 748.98500000
v 2286.47550000 -1515.63485000 589.80500000
v 2300.26550000 -874.10485000 330.49500000
v 2329.70550000 -1130.53485000 163.52500000
v 2329.36550000 -517.38485000 967.66500000
v 2310.75550000 -771.18485000 989.73500000
v 2363.05550000 -893.83485000 941.65500000
v 2306.93550000 -1383.39485000 772.43500000
v 2306.24550000 -355.32485000 821.17500000
v 2299.82550000 -354.81485000 777.84500000
v 2343.91550000 -1466.10485000 654.70500000
v 2318.40550000 -423.32485000 710.04500000
v 2326.50550000 -494.72485000 654.83500000
v 2324.61550000 -642.35485000 512.42500000
v 2336.44550000 -847.54485000 321.33500000
v 2309.81550000 -1295.83485000 187.26500000
v 2325.56550000 -627.49485000 983.28500000
v 2352.12550000 -1072.76485000 905.20500000
v 2324.54550000 -392.77485000 866.54500000
v 2331.24550000 -562.00485000 588.86500000
v 2313.51550000 -1526.29485000 572.61500000
v 2334.92550000 -740.16485000 414.19500000
v 2360.04550000 -1553.86485000 370.28500000
v 2389.12550000 -1510.57485000 215.64500000
v 2364.87550000 -1393.71485000 149.65500000
v 2360.63550000 -1058.16485000 168.22500000
v 2337.32550000 -1218.02485000 146.38500000
v 2388.32550000 -1339.91485000 753.52500000
v 2371.73550000 -423.65485000 734.27500000
v 2341.67550000 -1518.42485000 578.77500000
v 2360.41550000 -1548.86485000 486.85500000
v 2376.54550000 -1563.36485000 406.84500000
v 2366.38550000 -907.28485000 251.93500000
v 2406.98550000 -1472.08485000 145.89500000
v 2366.29550000 -1152.95485000 130.06500000
v 2401.38550000 -1167.46485000 827.10500000
v 2385.63550000 -1416.74485000 682.56500000
v 2408.94550000 -504.68485000 658.09500000
v 2382.83550000 -560.99485000 584.29500000
v 2386.60550000 -631.26485000 502.96500000
v 2390.78550000 -707.09485000 414.87500000
v 2396.52550000 -781.90485000 340.11500000
v 2419.65550000 -1550.83485000 244.42500000
v 2384.53550000 -960.83485000 208.80500000
v 2381.92550000 -1321.03485000 108.75500000
v 2400.31550000 -1232.98485000 95.02500000
v 2403.48550000 -507.02485000 912.43500000
v 2462.17550000 -938.88485000 852.83500000
v 2406.62550000 -463.65485000 862.40500000
v 2391.57550000 -425.62485000 815.56500000
v 2361.44550000 -401.56485000 780.21500000
v 2419.74550000 -1463.61485000 601.99500000
v 2413.76550000 -1516.95485000 515.85500000
v 2420.27550000 -1571.90485000 381.41500000
v 2434.93550000 -1570.00485000 299.13500000
v 2409.49550000 -871.64485000 262.72500000
v 2409.81550000 -1028.69485000 154.72500000
v 2406.44550000 -1124.51485000 121.50500000
v 2404.89550000 -580.36485000 936.69500000
v 2396.00550000 -706.88485000 941.28500000
v 2433.48550000 -1266.26485000 759.06500000
v 2431.52550000 -459.56485000 764.37500000
v 2446.46550000 -623.14485000 523.47500000
v 2428.47550000 -686.37485000 433.55500000
v 2438.78550000 -739.42485000 373.84500000
v 2428.14550000 -961.65485000 196.44500000
v 2445.98550000 -1522.50485000 149.44500000
v 2429.38550000 -1080.20485000 130.88500000
v 2434.14550000 -1234.44485000 84.62500000
v 2422.76550000 -1416.51485000 96.78500000
v 2436.25550000 -1298.42485000 69.16500000
v 2432.62550000 -1349.07485000 77.74500000
v 2482.48550000 -645.66485000 886.18500000
v 2485.95550000 -1180.43485000 745.86500000
v 2459.61550000 -498.47485000 711.01500000
v 2451.76550000 -1403.11485000 632.75500000
v 2433.44550000 -1559.01485000 409.24500000
v 2445.35550000 -804.51485000 315.57500000
v 2455.04550000 -870.11485000 262.13500000
v 2440.73550000 -908.61485000 234.63500000
v 2459.62550000 -1567.45485000 217.47500000
v 2475.07550000 -1552.72485000 167.04500000
v 2437.66550000 -1037.93485000 154.85500000
v 2451.70550000 -1478.45485000 103.81500000
v 2440.49550000 -1153.13485000 111.51500000
v 2459.80550000 -566.40485000 887.58500000
v 2472.46550000 -779.88485000 877.38500000
v 2486.70550000 -544.31485000 840.37500000
v 2470.62550000 -503.49485000 793.94500000
v 2483.76550000 -1298.05485000 679.38500000
v 2479.28550000 -524.74485000 681.26500000
v 2491.68550000 -1544.76485000 371.68500000
v 2463.48550000 -698.00485000 432.39500000
v 2467.54550000 -1567.28485000 313.58500000
v 2464.26550000 -940.76485000 223.95500000
v 2474.66550000 -1024.53485000 189.37500000
v 2484.21550000 -1139.21485000 149.59500000
v 2496.35550000 -1297.56485000 102.48500000
v 2468.29550000 -1361.48485000 72.28500000
v 2465.97550000 -1435.84485000 82.49500000
v 2507.30550000 -592.02485000 611.56500000
v 2487.07550000 -1467.01485000 503.79500000
v 2496.21550000 -750.31485000 397.55500000
v 2510.93550000 -859.07485000 323.66500000
v 2483.95550000 -913.64485000 259.22500000
v 2487.79550000 -1564.75485000 211.10500000
v 2494.27550000 -1510.67485000 109.31500000
v 2540.75550000 -715.64485000 833.09500000
v 2518.31550000 -1039.29485000 765.89500000
v 2545.57550000 -1156.89485000 684.59500000
v 2517.19550000 -558.92485000 673.79500000
v 2513.07550000 -1376.33485000 576.46500000
v 2510.74550000 -672.83485000 504.81500000
v 2528.57550000 -1492.56485000 404.86500000
v 2516.83550000 -967.29485000 264.09500000
v 2508.57550000 -1545.19485000 146.06500000
v 2514.76550000 -1409.84485000 80.08500000
v 2504.25550000 -1451.81485000 84.43500000
v 2511.39550000 -602.92485000 846.26500000
v 2522.45550000 -554.73485000 715.56500000
v 2570.69550000 -720.96485000 496.28500000
v 2568.01550000 -806.00485000 423.96500000
v 2551.95550000 -1498.83485000 340.81500000
v 2516.43550000 -1548.22485000 263.17500000
v 2528.49550000 -1547.52485000 176.27500000
v 2576.09550000 -1102.19485000 258.83500000
v 2530.10550000 -1528.54485000 129.14500000
v 2564.65550000 -1400.64485000 131.03500000
v 2525.27550000 -1495.55485000 102.12500000
v 2532.31550000 -1454.01485000 100.42500000
v 2542.30550000 -662.68485000 827.14500000
v 2554.02550000 -849.87485000 785.48500000
v 2553.69550000 -633.42485000 799.18500000
v 2546.64550000 -598.21485000 760.57500000
v 2579.29550000 -639.65485000 630.38500000
v 2554.82550000 -1283.89485000 593.62500000
v 2562.26550000 -669.22485000 561.78500000
v 2568.92550000 -1254.10485000 187.99500000
v 2577.13550000 -724.67485000 779.65500000
v 2560.07550000 -1397.43485000 470.10500000
v 2600.14550000 -922.63485000 385.19500000
v 2578.38550000 -1483.87485000 250.60500000
v 2556.58550000 -1513.09485000 164.39500000
v 2556.33550000 -1475.78485000 137.52500000
v 2596.56550000 -1018.77485000 675.50500000
v 2599.99550000 -663.93485000 679.79500000
v 2587.40550000 -1188.08485000 607.25500000
v 2593.42550000 -1277.69485000 533.85500000
v 2593.13550000 -1420.67485000 365.46500000
v 2583.76550000 -1469.34485000 189.88500000
v 2598.57550000 -1420.63485000 187.13500000
v 2598.91550000 -696.37485000 727.64500000
v 2630.52550000 -1158.42485000 547.74500000
v 2602.81550000 -708.73485000 555.63500000
v 2612.07550000 -784.30485000 495.29500000
v 2622.72550000 -1316.41485000 430.97500000
v 2651.22550000 -1075.53485000 368.00500000
v 2626.24550000 -1389.01485000 305.50500000
v 2604.81550000 -1429.68485000 232.17500000
v 2628.96550000 -1217.28485000 270.79500000
v 2610.85550000 -1333.44485000 212.87500000
v 2619.92550000 -828.57485000 694.94500000
v 2640.42550000 -764.79485000 646.02500000
v 2626.92550000 -1371.97485000 247.21500000
v 2652.78550000 -1290.44485000 289.05500000
v 2647.41550000 -975.91485000 604.14500000
v 2631.72550000 -750.19485000 581.29500000
v 2663.72550000 -1086.22485000 517.10500000
v 2644.80550000 -843.69485000 502.20500000
v 2657.39550000 -1218.90485000 437.78500000
v 2653.49550000 -931.86485000 457.69500000
v 2649.10550000 -1314.39485000 357.79500000
v 2646.13550000 -1331.84485000 306.28500000
v 2655.57550000 -862.07485000 613.65500000
v 2662.60550000 -874.60485000 541.27500000
v 2666.85550000 -987.59485000 536.80500000
v 2646.03550000 -822.84485000 541.23500000
v 2674.92550000 -1135.90485000 436.68500000
v 2668.03550000 -997.87485000 454.75500000
v 2674.87550000 -1112.46485000 404.72500000
v 2672.10550000 -1206.58485000 360.51500000
v 2656.60550000 -1182.12485000 340.95500000
v 2658.42550000 -1248.69485000 363.14500000
v 2668.99550000 -1021.31485000 473.49500000
f 1 2 3
f 4 2 1
f 3 5 6
f 3 6 7
f 1 3 7
f 8 4 1
f 6 9 7
f 10 1 7
f 8 1 10
f 11 8 10
f 7 9 12
f 7 12 13
f 7 13 10
f 14 8 11
f 15 11 10
f 13 16 15
f 13 15 10
f 11 15 17
f 17 15 16
f 18 19 20
f 18 21 3
f 19 18 2
f 21 22 5
f 3 21 5
f 2 18 3
f 19 2 4
f 22 23 5
f 24 19 4
f 5 23 6
f 8 24 4
f 6 23 25
f 25 9 6
f 26 24 8
f 14 26 8
f 12 27 13
f 28 26 14
f 28 14 29
f 13 27 16
f 14 11 30
f 29 14 30
f 16 31 17
f 11 17 30
f 32 29 30
f 17 31 33
f 30 17 34
f 30 34 35
f 36 21 37
f 18 37 21
f 20 19 38
f 22 21 36
f 39 38 19
f 22 40 23
f 23 40 41
f 39 19 24
f 42 23 41
f 23 42 25
f 26 39 24
f 42 9 25
f 9 42 12
f 31 16 27
f 32 30 35
f 17 43 34
f 33 43 17
f 35 34 43
f 44 37 18
f 45 20 38
f 36 46 22
f 22 46 40
f 47 41 40
f 48 39 26
f 49 48 26
f 28 49 26
f 50 12 42
f 27 12 50
f 29 32 51
f 44 20 52
f 53 36 44
f 20 45 54
f 44 36 37
f 20 44 18
f 53 55 46
f 36 53 46
f 45 38 56
f 57 46 55
f 46 57 40
f 57 47 40
f 58 38 39
f 58 39 48
f 59 41 47
f 60 48 49
f 42 41 61
f 50 42 61
f 49 28 62
f 62 28 51
f 51 28 29
f 31 27 63
f 51 32 64
f 64 32 35
f 64 35 65
f 33 66 43
f 43 66 35
f 66 65 35
f 67 44 52
f 67 68 53
f 67 53 44
f 53 68 55
f 57 55 69
f 58 56 38
f 70 60 49
f 62 71 49
f 27 50 72
f 73 62 51
f 64 73 51
f 74 73 64
f 75 31 63
f 74 64 65
f 31 76 33
f 75 76 31
f 77 74 65
f 65 66 78
f 79 65 78
f 77 65 79
f 66 33 76
f 54 52 20
f 68 69 55
f 56 54 45
f 57 80 47
f 47 80 59
f 48 81 58
f 48 60 81
f 59 82 41
f 70 49 71
f 61 41 83
f 83 41 82
f 61 84 50
f 62 85 71
f 61 83 84
f 84 72 50
f 85 62 73
f 72 63 27
f 73 74 86
f 77 86 74
f 76 87 66
f 66 87 78
f 78 87 79
f 67 52 88
f 88 52 89
f 88 90 67
f 67 90 68
f 91 52 54
f 90 69 68
f 56 58 92
f 81 92 58
f 81 70 93
f 70 81 60
f 85 73 94
f 94 73 95
f 73 86 95
f 86 77 96
f 77 79 96
f 76 75 97
f 87 98 79
f 87 76 99
f 88 89 100
f 90 101 102
f 90 88 101
f 103 56 104
f 69 90 105
f 56 103 54
f 69 106 57
f 106 80 57
f 107 59 80
f 108 59 107
f 82 59 108
f 70 71 109
f 82 110 83
f 111 83 110
f 71 85 94
f 84 83 111
f 112 94 95
f 72 113 63
f 86 96 114
f 113 72 115
f 113 75 63
f 116 96 79
f 79 98 116
f 76 97 99
f 117 87 99
f 98 87 117
f 91 89 52
f 102 105 90
f 103 91 54
f 105 106 69
f 92 81 118
f 119 107 80
f 93 70 109
f 109 71 120
f 82 108 110
f 120 71 94
f 111 121 122
f 84 111 122
f 72 84 122
f 95 86 114
f 123 72 122
f 115 72 123
f 96 124 114
f 113 125 75
f 96 116 124
f 75 125 97
f 97 126 99
f 116 98 117
f 99 127 117
f 101 88 128
f 128 88 100
f 102 129 130
f 129 102 101
f 105 102 130
f 56 92 104
f 106 131 80
f 131 119 80
f 81 132 118
f 119 108 107
f 81 93 132
f 110 108 133
f 120 94 134
f 134 94 112
f 135 110 136
f 135 111 110
f 111 135 121
f 112 95 137
f 122 121 138
f 123 122 138
f 115 123 139
f 115 139 113
f 113 139 140
f 125 113 140
f 116 141 124
f 142 125 140
f 97 125 142
f 126 97 142
f 141 117 143
f 116 117 141
f 126 144 99
f 99 144 127
f 143 117 127
f 89 91 145
f 105 130 146
f 147 92 118
f 105 131 106
f 132 93 148
f 149 108 119
f 93 109 148
f 136 110 133
f 134 112 137
f 95 114 137
f 121 150 138
f 138 150 151
f 138 151 123
f 140 152 142
f 126 142 153
f 128 129 101
f 89 154 100
f 145 154 89
f 155 104 147
f 131 105 156
f 104 92 147
f 147 118 132
f 119 131 157
f 158 149 119
f 159 108 149
f 148 109 160
f 159 133 108
f 160 109 120
f 159 161 133
f 162 133 161
f 162 136 133
f 163 136 162
f 135 136 163
f 114 164 137
f 121 135 165
f 150 121 165
f 151 139 123
f 124 141 166
f 140 139 167
f 166 141 168
f 140 167 152
f 142 152 153
f 168 141 143
f 126 153 169
f 144 126 169
f 169 143 127
f 127 144 169
f 170 128 100
f 100 154 171
f 129 172 130
f 128 172 129
f 91 103 173
f 104 155 103
f 105 146 174
f 105 174 156
f 158 119 157
f 148 160 175
f 120 134 160
f 176 134 137
f 165 135 163
f 114 124 177
f 150 178 151
f 177 124 166
f 178 179 151
f 151 179 139
f 139 179 180
f 139 180 167
f 152 167 180
f 180 181 152
f 152 181 153
f 181 182 153
f 183 143 184
f 168 143 183
f 153 182 169
f 143 169 184
f 172 128 170
f 100 171 170
f 130 172 185
f 173 145 91
f 147 132 186
f 187 131 156
f 157 131 187
f 149 158 188
f 189 160 134
f 189 134 176
f 162 161 163
f 176 137 164
f 163 190 165
f 164 114 177
f 150 165 191
f 150 191 178
f 166 192 193
f 177 166 193
f 166 168 192
f 192 168 183
f 184 169 182
f 146 185 194
f 146 130 185
f 194 174 146
f 186 132 148
f 158 195 188
f 175 160 196
f 159 149 197
f 159 198 161
f 189 196 160
f 161 199 163
f 199 190 163
f 193 200 177
f 192 183 201
f 180 179 202
f 183 184 203
f 181 180 202
f 204 181 202
f 182 181 204
f 203 184 204
f 184 182 204
f 171 205 170
f 154 206 171
f 185 172 207
f 207 172 170
f 145 173 208
f 185 209 194
f 173 155 210
f 173 103 155
f 155 147 211
f 212 156 174
f 186 148 213
f 148 175 213
f 157 187 158
f 149 188 197
f 197 198 159
f 214 196 189
f 214 189 215
f 176 215 189
f 216 215 176
f 164 216 176
f 190 217 165
f 217 191 165
f 177 200 164
f 179 178 218
f 219 192 201
f 193 192 219
f 179 220 202
f 220 221 202
f 222 202 221
f 204 202 222
f 194 223 174
f 223 212 174
f 186 211 147
f 224 187 156
f 224 225 187
f 225 158 187
f 158 225 195
f 213 175 196
f 213 196 226
f 198 227 161
f 161 227 199
f 164 200 216
f 200 193 228
f 218 178 191
f 193 219 228
f 201 183 203
f 171 229 205
f 154 230 206
f 231 207 170
f 205 231 170
f 145 230 154
f 208 230 145
f 173 210 208
f 210 155 232
f 155 211 232
f 233 232 211
f 223 209 234
f 194 209 223
f 211 186 235
f 213 235 186
f 224 156 212
f 195 236 237
f 188 195 237
f 237 197 188
f 196 214 226
f 197 237 227
f 197 227 198
f 214 215 238
f 239 238 215
f 216 239 215
f 199 217 190
f 240 239 216
f 200 240 216
f 217 241 191
f 191 241 218
f 242 228 219
f 179 218 220
f 201 203 243
f 243 219 201
f 221 244 222
f 222 244 203
f 244 245 203
f 203 204 222
f 206 229 171
f 209 185 207
f 211 235 233
f 225 246 195
f 226 214 247
f 237 236 248
f 199 249 217
f 200 250 240
f 200 228 250
f 228 242 250
f 242 219 243
f 203 245 243
f 230 208 251
f 207 252 209
f 208 210 253
f 232 254 210
f 210 254 253
f 232 233 254
f 255 223 234
f 233 235 256
f 223 255 257
f 223 257 212
f 235 213 226
f 212 257 224
f 224 257 258
f 224 258 246
f 225 224 246
f 195 246 236
f 238 247 214
f 227 237 259
f 239 260 238
f 199 227 249
f 250 242 261
f 229 262 205
f 262 231 205
f 207 231 263
f 208 253 251
f 263 252 207
f 234 209 252
f 254 233 264
f 233 256 264
f 235 226 265
f 247 265 226
f 236 246 266
f 236 266 248
f 260 247 238
f 237 267 259
f 259 268 227
f 249 227 268
f 260 239 269
f 239 240 269
f 250 269 240
f 249 241 217
f 261 242 270
f 218 271 220
f 243 272 270
f 270 242 243
f 220 271 221
f 272 243 245
f 206 273 229
f 206 230 274
f 230 251 274
f 275 251 253
f 254 275 253
f 275 254 264
f 276 264 256
f 265 276 256
f 265 256 235
f 277 278 257
f 257 278 258
f 279 265 247
f 280 258 278
f 258 280 266
f 246 258 266
f 248 266 281
f 279 247 260
f 248 267 237
f 269 250 282
f 282 250 261
f 244 221 271
f 245 244 283
f 231 262 284
f 206 274 273
f 274 251 285
f 251 275 286
f 263 287 252
f 264 288 275
f 234 252 289
f 264 276 288
f 234 289 255
f 265 290 276
f 255 291 257
f 291 277 257
f 265 279 290
f 266 280 292
f 292 281 266
f 248 281 293
f 267 248 293
f 279 260 294
f 259 267 268
f 260 269 294
f 294 269 282
f 249 295 241
f 282 261 296
f 296 270 297
f 261 270 296
f 297 270 272
f 245 298 272
f 244 271 299
f 283 244 299
f 251 286 285
f 231 300 263
f 275 301 286
f 275 288 301
f 255 289 291
f 276 290 302
f 290 303 302
f 280 278 304
f 290 279 303
f 305 293 281
f 293 306 267
f 279 294 303
f 267 306 268
f 294 282 307
f 303 294 307
f 282 296 307
f 296 308 307
f 295 309 241
f 241 309 218
f 296 297 308
f 218 309 271
f 297 272 298
f 283 298 245
f 229 310 262
f 273 310 229
f 273 311 310
f 273 274 311
f 285 311 274
f 231 284 300
f 312 263 300
f 312 287 263
f 289 252 287
f 276 302 313
f 276 313 288
f 291 314 277
f 314 315 277
f 316 302 317
f 315 278 277
f 304 278 315
f 302 303 317
f 280 304 292
f 292 305 281
f 268 306 249
f 303 307 318
f 307 319 318
f 307 308 319
f 319 308 320
f 298 320 297
f 320 308 297
f 299 271 321
f 262 310 322
f 262 322 284
f 311 323 324
f 285 323 311
f 285 301 323
f 286 301 285
f 288 313 301
f 302 316 313
f 325 316 317
f 326 292 304
f 305 292 326
f 305 327 293
f 303 328 317
f 306 293 329
f 303 318 328
f 319 330 328
f 318 319 328
f 306 295 249
f 331 309 295
f 321 271 309
f 332 283 333
f 320 298 332
f 299 321 333
f 283 299 333
f 298 283 332
f 311 334 310
f 284 322 335
f 323 301 336
f 301 313 337
f 289 287 338
f 289 338 291
f 338 339 291
f 316 340 313
f 291 339 314
f 340 316 325
f 315 314 339
f 326 341 305
f 325 317 328
f 327 329 293
f 328 330 342
f 306 329 295
f 319 343 330
f 321 309 331
f 321 331 333
f 343 332 344
f 319 320 343
f 332 333 344
f 320 332 343
f 310 345 322
f 310 334 345
f 311 346 334
f 311 324 346
f 323 336 324
f 284 347 300
f 335 347 284
f 287 312 348
f 312 349 348
f 312 350 349
f 300 350 312
f 337 336 301
f 313 340 337
f 351 338 287
f 351 287 348
f 352 315 339
f 315 353 304
f 315 352 353
f 326 304 353
f 341 326 353
f 327 305 341
f 325 328 342
f 342 330 354
f 354 330 355
f 331 295 329
f 344 356 357
f 330 343 355
f 333 331 356
f 333 356 344
f 343 344 355
f 334 346 345
f 322 358 335
f 345 358 322
f 324 359 346
f 300 347 350
f 358 347 335
f 336 337 360
f 360 337 340
f 351 361 338
f 338 361 339
f 361 352 339
f 340 325 362
f 353 352 363
f 363 364 341
f 342 354 362
f 325 342 362
f 341 353 363
f 327 341 364
f 327 364 365
f 329 327 365
f 366 355 367
f 354 355 366
f 368 331 365
f 331 329 365
f 356 331 368
f 357 356 368
f 367 355 357
f 355 344 357
f 346 359 345
f 359 324 369
f 369 324 336
f 350 347 370
f 358 370 347
f 369 336 360
f 349 350 371
f 371 350 370
f 349 351 348
f 351 349 371
f 340 369 360
f 372 351 371
f 351 372 361
f 340 362 369
f 373 372 371
f 372 373 361
f 373 352 361
f 373 374 375
f 374 376 375
f 352 373 363
f 375 363 373
f 354 377 362
f 364 363 375
f 376 364 375
f 364 376 365
f 366 377 354
f 367 377 366
f 357 378 367
f 378 357 368
f 358 345 379
f 345 359 379
f 379 359 380
f 379 381 358
f 380 359 369
f 370 358 381
f 369 382 380
f 371 370 383
f 384 383 370
f 384 370 381
f 383 374 371
f 374 373 371
f 369 362 382
f 384 374 383
f 374 384 385
f 362 377 382
f 376 374 386
f 386 365 376
f 368 365 386
f 367 378 387
f 377 367 387
f 378 368 386
f 381 379 388
f 388 379 380
f 384 381 388
f 380 389 388
f 390 389 380
f 382 390 380
f 388 385 384
f 389 385 388
f 382 377 390
f 389 391 385
f 390 391 389
f 385 386 374
f 377 387 390
f 391 386 385
f 390 387 391
f 387 378 391
f 378 386 391
f 392 393 394
f 395 396 397
f 398 397 396
f 396 395 399
f 398 396 400
f 400 396 393
f 399 395 401
f 394 396 399
f 393 396 394
f 399 401 402
f 400 393 392
f 403 402 401
f 394 399 402
f 404 392 394
f 400 392 405
f 403 406 402
f 394 402 404
f 404 402 406
f 406 407 404
f 408 404 407
f 392 404 408
f 409 397 410
f 397 411 410
f 411 412 413
f 414 409 415
f 409 414 395
f 397 409 395
f 398 411 397
f 412 411 398
f 415 416 414
f 414 416 395
f 400 412 398
f 417 412 400
f 418 419 420
f 416 418 401
f 401 418 420
f 416 401 395
f 419 421 420
f 417 400 405
f 420 421 422
f 403 420 422
f 401 420 403
f 403 422 423
f 406 403 423
f 424 405 392
f 406 423 425
f 425 426 406
f 407 406 426
f 408 427 392
f 424 392 427
f 408 407 426
f 428 408 426
f 429 409 430
f 409 410 430
f 411 413 410
f 415 409 431
f 432 433 412
f 434 415 431
f 417 432 412
f 435 432 417
f 419 436 437
f 436 419 434
f 415 434 418
f 416 415 418
f 418 434 419
f 419 437 421
f 438 435 417
f 421 437 439
f 440 421 439
f 438 417 405
f 422 421 441
f 421 440 441
f 441 423 422
f 441 442 423
f 443 423 442
f 423 443 425
f 444 425 443
f 445 405 446
f 446 405 424
f 425 447 426
f 447 425 444
f 428 427 408
f 446 424 427
f 428 426 448
f 448 426 447
f 430 410 449
f 413 449 410
f 413 450 449
f 413 451 450
f 412 451 413
f 412 433 451
f 452 434 431
f 409 429 431
f 433 432 453
f 434 452 436
f 437 454 455
f 454 437 436
f 437 455 439
f 456 439 455
f 440 439 456
f 457 440 456
f 441 440 457
f 438 405 445
f 442 458 443
f 458 444 443
f 459 445 446
f 447 444 460
f 460 448 447
f 446 427 461
f 427 428 461
f 433 462 451
f 433 453 462
f 452 463 436
f 436 463 454
f 435 464 432
f 455 465 466
f 435 438 464
f 456 455 466
f 456 467 457
f 457 467 468
f 468 441 457
f 441 469 442
f 469 441 468
f 469 458 442
f 438 445 470
f 444 458 471
f 470 445 459
f 444 471 472
f 444 472 473
f 444 473 460
f 446 474 459
f 461 474 446
f 448 460 475
f 461 428 476
f 477 461 476
f 476 448 475
f 428 448 476
f 474 461 477
f 430 449 478
f 451 479 450
f 431 429 480
f 430 480 429
f 430 478 480
f 451 462 479
f 431 480 452
f 432 464 453
f 453 464 481
f 455 482 465
f 455 454 482
f 466 483 456
f 484 464 438
f 484 438 470
f 469 485 458
f 486 470 459
f 473 487 460
f 488 460 487
f 474 489 459
f 490 460 488
f 460 490 475
f 475 491 476
f 491 492 476
f 476 492 477
f 449 493 478
f 450 493 449
f 462 494 479
f 452 480 495
f 496 462 453
f 463 482 454
f 481 464 497
f 466 465 483
f 498 497 464
f 483 499 456
f 464 484 498
f 456 499 467
f 467 499 500
f 500 468 467
f 485 469 468
f 501 458 485
f 458 501 471
f 484 470 502
f 471 503 472
f 486 502 470
f 486 459 489
f 477 504 474
f 489 474 504
f 492 505 477
f 505 504 477
f 450 506 493
f 450 479 506
f 507 506 479
f 479 494 507
f 480 508 495
f 462 496 494
f 495 463 452
f 495 509 463
f 453 481 496
f 510 496 481
f 465 511 483
f 465 512 511
f 482 512 465
f 513 497 514
f 497 498 514
f 498 484 502
f 468 500 515
f 485 468 515
f 485 516 501
f 517 502 486
f 473 472 518
f 517 486 519
f 520 473 518
f 487 473 520
f 486 489 519
f 519 489 521
f 504 521 489
f 490 522 475
f 522 491 475
f 523 491 522
f 478 508 480
f 494 524 507
f 496 524 494
f 509 525 463
f 481 513 510
f 497 513 481
f 526 527 514
f 528 514 498
f 528 526 514
f 499 529 500
f 500 529 515
f 498 502 528
f 485 515 516
f 530 531 528
f 471 501 503
f 528 502 517
f 532 530 528
f 517 532 528
f 472 503 533
f 472 533 518
f 519 534 517
f 535 534 519
f 488 487 520
f 535 519 521
f 523 536 491
f 491 536 492
f 492 536 505
f 478 537 508
f 493 537 478
f 524 538 507
f 463 525 482
f 539 510 513
f 514 539 513
f 527 539 514
f 483 540 499
f 499 540 529
f 526 528 531
f 541 515 529
f 542 516 515
f 532 517 534
f 534 543 532
f 518 533 544
f 520 518 545
f 521 546 535
f 504 547 521
f 546 521 547
f 504 505 548
f 505 536 548
f 536 523 549
f 493 550 537
f 506 550 493
f 495 508 509
f 551 506 507
f 538 551 507
f 524 552 538
f 496 552 524
f 552 496 510
f 553 510 539
f 512 554 511
f 511 540 483
f 526 555 527
f 555 526 531
f 555 531 530
f 515 541 542
f 501 516 556
f 556 503 501
f 503 556 533
f 530 532 557
f 518 544 545
f 558 543 534
f 534 535 559
f 520 560 488
f 559 535 546
f 560 490 488
f 522 490 560
f 547 504 548
f 522 549 523
f 549 561 536
f 506 551 562
f 563 525 509
f 482 525 512
f 552 510 553
f 527 564 539
f 511 554 565
f 565 540 511
f 566 527 555
f 541 529 540
f 556 516 567
f 516 542 567
f 555 530 557
f 568 533 556
f 532 543 557
f 534 559 558
f 545 569 520
f 520 569 560
f 570 546 547
f 522 560 571
f 572 522 571
f 508 573 509
f 506 562 550
f 552 574 538
f 512 525 575
f 553 576 552
f 575 554 512
f 564 527 566
f 541 540 577
f 533 568 578
f 533 578 544
f 557 543 579
f 543 558 579
f 579 558 580
f 581 558 559
f 546 570 582
f 547 583 570
f 547 548 583
f 549 522 572
f 537 573 508
f 573 563 509
f 538 574 551
f 584 575 525
f 553 585 576
f 539 564 553
f 566 555 586
f 542 587 567
f 557 586 555
f 557 579 588
f 580 558 581
f 559 546 582
f 560 589 571
f 572 590 549
f 573 537 550
f 573 591 563
f 562 551 592
f 551 574 593
f 552 576 574
f 564 585 553
f 564 594 585
f 540 565 595
f 596 540 595
f 577 540 596
f 564 566 594
f 594 566 597
f 597 566 586
f 542 577 587
f 542 541 577
f 567 598 556
f 599 568 556
f 588 586 557
f 544 578 600
f 545 544 600
f 560 569 601
f 581 559 582
f 560 601 589
f 548 602 583
f 561 602 536
f 536 602 548
f 550 603 573
f 562 592 550
f 550 592 603
f 525 563 584
f 574 604 593
f 574 576 604
f 575 605 554
f 554 595 565
f 587 577 596
f 567 587 598
f 598 599 556
f 568 599 606
f 578 568 606
f 588 607 586
f 578 606 600
f 588 579 607
f 569 545 608
f 580 581 609
f 569 608 601
f 570 610 582
f 611 570 583
f 612 572 571
f 590 572 612
f 613 602 561
f 613 549 590
f 561 549 613
f 603 591 573
f 593 592 551
f 591 584 563
f 554 605 595
f 594 614 585
f 596 615 587
f 586 607 616
f 579 617 607
f 580 617 579
f 600 608 545
f 617 580 618
f 580 609 618
f 609 581 582
f 589 601 571
f 571 601 619
f 610 570 620
f 583 602 611
f 570 611 620
f 621 613 590
f 575 584 605
f 576 622 604
f 585 622 576
f 585 614 622
f 594 623 614
f 594 597 623
f 587 615 598
f 598 624 599
f 586 616 597
f 606 599 625
f 606 625 626
f 600 606 626
f 627 608 600
f 608 628 601
f 582 629 609
f 571 619 630
f 571 630 612
f 590 612 621
f 613 631 602
f 613 621 632
f 631 613 632
f 611 602 631
f 591 633 584
f 604 634 593
f 584 635 605
f 595 605 636
f 605 635 636
f 596 595 637
f 615 596 637
f 615 624 598
f 597 638 623
f 638 597 639
f 616 639 597
f 639 616 617
f 617 616 607
f 617 618 640
f 618 609 641
f 608 627 628
f 582 610 629
f 601 628 642
f 619 601 642
f 619 642 630
f 612 630 643
f 612 643 644
f 621 612 644
f 632 621 644
f 591 603 645
f 645 633 591
f 603 646 645
f 592 646 603
f 646 592 593
f 584 633 635
f 634 604 622
f 614 647 622
f 636 637 595
f 637 648 615
f 624 625 599
f 626 625 649
f 600 626 627
f 650 627 626
f 628 627 651
f 609 629 641
f 652 630 642
f 610 620 653
f 630 652 643
f 644 643 654
f 632 644 655
f 611 631 656
f 611 656 620
f 632 655 657
f 632 657 658
f 631 632 658
f 646 659 645
f 647 660 622
f 648 661 615
f 615 661 624
f 638 662 623
f 624 649 625
f 663 639 617
f 663 617 640
f 650 651 627
f 618 641 640
f 664 628 651
f 664 642 628
f 665 642 664
f 642 665 666
f 667 641 629
f 642 666 652
f 610 653 629
f 668 629 653
f 643 652 669
f 643 669 654
f 620 670 653
f 644 654 671
f 644 671 655
f 620 656 670
f 658 656 631
f 633 645 672
f 659 672 645
f 593 673 646
f 673 593 634
f 633 674 635
f 635 675 636
f 636 648 637
f 614 676 647
f 662 676 614
f 623 662 614
f 624 661 677
f 663 678 639
f 649 650 626
f 649 679 650
f 680 663 640
f 650 679 651
f 680 640 641
f 666 681 652
f 629 668 667
f 652 682 669
f 654 669 683
f 655 671 684
f 657 655 685
f 658 657 685
f 670 656 686
f 686 656 658
f 686 658 685
f 673 659 646
f 633 672 674
f 674 675 635
f 660 647 676
f 677 687 624
f 649 624 687
f 638 639 688
f 639 678 688
f 680 678 663
f 651 679 689
f 651 689 664
f 689 690 664
f 664 690 665
f 690 691 665
f 641 692 680
f 667 692 641
f 666 665 681
f 681 682 652
f 667 668 692
f 683 669 682
f 671 654 683
f 670 693 653
f 693 668 653
f 685 655 684
f 670 686 693
f 673 694 659
f 695 634 622
f 695 622 660
f 675 648 636
f 676 696 660
f 661 697 677
f 662 698 676
f 638 688 662
f 699 649 687
f 678 700 688
f 699 679 649
f 681 665 691
f 681 701 682
f 702 692 668
f 684 671 683
f 693 702 668
f 703 685 684
f 686 704 693
f 704 685 703
f 686 685 704
f 672 659 705
f 672 705 674
f 675 706 648
f 648 706 661
f 706 697 661
f 697 687 677
f 662 688 698
f 699 707 689
f 699 689 679
f 708 690 689
f 678 709 700
f 709 678 710
f 710 678 680
f 691 701 681
f 692 710 680
f 692 711 710
f 682 701 712
f 712 683 682
f 692 702 711
f 702 713 711
f 703 684 714
f 713 702 693
f 715 713 693
f 704 703 716
f 715 693 704
f 705 659 717
f 718 694 673
f 634 718 673
f 705 719 674
f 717 719 705
f 675 674 720
f 720 674 719
f 695 660 696
f 675 720 706
f 697 721 687
f 696 676 722
f 676 698 722
f 723 699 687
f 707 708 689
f 690 701 691
f 724 684 683
f 684 724 714
f 714 716 703
f 715 704 716
f 659 694 717
f 725 717 694
f 718 725 694
f 718 634 695
f 721 723 687
f 698 726 722
f 723 707 699
f 698 688 726
f 688 700 726
f 709 726 700
f 708 727 690
f 709 710 728
f 710 711 728
f 683 712 724
f 728 711 729
f 729 713 730
f 729 711 713
f 714 730 716
f 730 713 715
f 715 716 730
f 719 717 725
f 695 696 731
f 706 720 732
f 721 697 706
f 721 706 732
f 733 696 722
f 733 722 734
f 722 726 734
f 709 735 726
f 690 727 701
f 701 727 712
f 728 735 709
f 729 736 728
f 729 730 736
f 714 737 730
f 737 736 730
f 725 738 719
f 720 719 738
f 738 732 720
f 731 718 695
f 731 696 733
f 733 734 739
f 721 740 723
f 723 740 707
f 707 741 708
f 734 726 742
f 727 708 741
f 726 735 742
f 727 743 712
f 735 728 744
f 745 728 736
f 724 712 746
f 736 737 745
f 747 714 724
f 714 747 737
f 748 738 725
f 718 748 725
f 718 731 748
f 749 732 738
f 731 733 739
f 707 740 741
f 742 739 734
f 742 735 744
f 746 712 743
f 744 728 745
f 746 747 724
f 745 737 750
f 750 747 751
f 737 747 750
f 748 749 738
f 752 748 731
f 753 732 749
f 739 752 731
f 732 753 721
f 721 753 740
f 739 754 752
f 741 740 753
f 753 755 741
f 754 739 756
f 742 756 739
f 727 741 755
f 727 755 757
f 742 758 756
f 742 744 758
f 743 727 757
f 744 759 758
f 759 750 751
f 744 750 759
f 744 745 750
f 747 746 751
f 748 760 749
f 760 748 752
f 761 753 749
f 760 761 749
f 752 762 760
f 762 761 760
f 761 763 753
f 754 762 752
f 755 753 763
f 761 755 763
f 754 764 762
f 757 755 761
f 765 757 761
f 756 764 754
f 743 757 765
f 766 743 765
f 764 767 766
f 768 743 766
f 756 769 764
f 769 767 764
f 756 758 769
f 767 768 766
f 746 743 768
f 758 759 769
f 767 751 768
f 751 746 768
f 769 751 767
f 759 751 769
f 770 761 762
f 762 764 770
f 765 761 770
f 766 765 770
f 766 770 764

