# https://github.com/mikedh/trimesh
v -2830.58144088 -22080.17838909 -11086.26814104
v -3001.38098033 -22355.25143472 -12073.32722774
v -3534.36864714 -22875.09481293 -11644.37002497
v -3362.10057024 -22753.22563887 -10760.31792858
v -2641.33915267 -21340.91858532 -11996.46544457
v -3146.36332720 -21251.06220710 -12855.48181656
v -3088.54325060 -22085.42931331 -12609.93945970
v -2387.73765009 -20963.41507732 -10906.25346831
v -3148.88899183 -22181.83627281 -10041.72960175
v -2631.07118229 -21163.84679660 -9860.92919717
v -3101.11519396 -21573.65458757 -9268.84953899
v -2937.83552062 -20869.58628006 -8878.87987722
v -3464.98358146 -21143.76259642 -8642.20777452
v -2699.73836190 -20083.27742764 -12345.31638386
v -3391.95794448 -20126.62458605 -13045.12637683
v -2326.06339565 -19987.35980586 -11286.97518974
v -2339.00637405 -19952.89942765 -10100.76592869
v -2719.04325799 -19994.07501403 -8979.23149433
v -3410.23798141 -20152.68077682 -8126.87341169
v -3037.57363195 -18972.50439647 -12497.00695105
v -3813.04081853 -19082.15771740 -12995.80358644
v -2548.05327516 -18845.74849872 -11573.91911613
v -2395.09053777 -18802.35631422 -10416.48200784
v -2612.66554832 -18867.87626857 -9258.01676678
v -3238.75386127 -18960.11376701 -8185.02749789
v -3540.22738433 -18225.40068061 -12444.47776020
v -3065.23622183 -17947.29890885 -11738.35556042
v -3839.28804582 -17501.44433938 -11807.29522573
v -2792.26426507 -17825.87093192 -10693.26026583
v -2800.39931834 -17900.54698827 -9597.58970186
v -3092.24575758 -18118.13150503 -8730.29061122
v -3495.23537774 -17201.31067694 -10897.37897936
v -3368.99329741 -17223.62455504 -9854.62706301
v -3386.91335353 -17516.34200803 -8995.96597246
v -3443.31446814 -22634.11579178 -12445.25777511
v -3691.05321518 -22166.23952620 -12891.39991572
v -4220.58802561 -22818.10397399 -12314.83009198
v -4314.86600798 -23128.01559585 -11499.24007964
v -4005.65093073 -23051.83293595 -10826.13864770
v -3718.52557994 -22704.80050628 -10162.19384668
v -4478.48650193 -22703.23464034 -10066.07262641
v -3952.68852227 -21227.54579070 -13205.23325853
v -3896.42793593 -21971.63915598 -9310.62476061
v -4404.54626071 -20722.16215293 -8201.90341971
v -4261.60962264 -20127.43988283 -13297.20493346
v -3985.97778379 -19901.22212864 -7518.34539130
v -3722.34217201 -19326.42301831 -7458.06954761
v -4131.67957369 -19425.30322923 -7210.08483972
v -4609.08023833 -19187.68360140 -13165.26246942
v -3816.08602036 -18711.67189451 -7528.96343453
v -4076.82254923 -19001.43222667 -7214.61523692
v -4492.96963323 -18248.81804168 -12525.67993994
v -4625.37218377 -17410.35112131 -11675.44201287
v -4287.39176508 -18635.03254552 -7462.13487746
v -3973.70062398 -18046.23105957 -8179.10185459
v -4332.45985678 -16983.42494769 -11024.70489127
v -4196.71106137 -16890.38886723 -10091.78778649
v -4139.28020417 -17203.64346934 -9111.18873991
v -4545.34888404 -22104.77714142 -12896.37834554
v -5000.54441560 -22589.24124413 -12361.81068397
v -4988.75525100 -22890.27693730 -11651.58667466
v -4804.49169640 -22974.62711189 -10821.74518971
v -5125.21811612 -22622.65001621 -10203.03985263
v -4850.78092882 -21086.21006247 -13116.70314156
v -5299.44622997 -21834.97620436 -9385.98775905
v -5691.97004056 -20666.01297386 -8483.11441469
v -5070.63769696 -19998.83154715 -13145.05981279
v -4433.32164336 -19810.17989193 -7442.84230535
v -5089.72598899 -19772.72572882 -7816.04808513
v -5149.12691561 -19214.34890076 -13054.24816936
v -4905.28375809 -18768.94240342 -12977.98455050
v -5320.33377966 -18736.39071762 -12576.55781887
v -4528.95579269 -19179.48528075 -7333.34922045
v -5049.82032474 -18657.64112285 -7924.56104377
v -5038.36531078 -17145.38467504 -11088.64914709
v -5513.91704555 -17989.45124868 -11538.02439061
v -5576.80008369 -17296.00620632 -10650.89076569
v -5031.93985596 -17645.22309644 -8626.32285235
v -5019.65195339 -16919.53761104 -10353.84394712
v -5024.39489408 -17056.13696389 -9458.50689390
v -5366.85630571 -21847.94122203 -12531.95803983
v -5529.45128045 -22369.13030630 -11848.51059105
v -5686.71929827 -22275.68285245 -10720.35727252
v -5635.00705341 -20726.38201310 -12608.39644155
v -6072.39335941 -21397.67778011 -11612.90704074
v -6475.74169625 -21358.69969465 -10537.37131039
v -6349.01955189 -21484.96760299 -9737.70114607
v -6234.69325915 -21176.36514930 -9026.04377631
v -6697.07030317 -20875.18863084 -9228.89442776
v -5637.53482849 -19612.59444801 -12657.70661310
v -6196.50054526 -20057.69726859 -11837.83131947
v -6646.95952713 -20413.20942477 -10796.00092128
v -6451.34767653 -20531.43957924 -8762.91479897
v -6078.93404606 -19565.32699195 -8447.31871749
v -5926.34040507 -19039.53119568 -11989.33546243
v -6432.03343301 -19059.70424146 -10933.83052449
v -5930.95831312 -18301.11130743 -8676.53744500
v -5741.34666304 -17292.28782207 -9857.57358357
v -6171.05436946 -17933.41991821 -10379.94636887
v -5719.90591641 -17509.96046636 -9122.14536438
v -6295.50330061 -18004.18164866 -9452.95834144
v -6815.15256900 -20707.71420662 -9855.47909656
v -6845.11218234 -19648.60539057 -9936.42048211
v -6767.81749388 -20081.51444150 -9153.25213400
v -6650.61880190 -18660.24251744 -9934.40413462
v -6609.17948815 -18998.28376039 -9181.79413237
f 3 2 1
f 1 4 3
f 7 6 5
f 7 5 2
f 5 1 2
f 5 8 1
f 4 1 9
f 1 10 9
f 1 8 10
f 12 11 10
f 10 11 9
f 12 13 11
f 5 6 14
f 14 6 15
f 5 16 8
f 5 14 16
f 8 17 10
f 8 16 17
f 10 18 12
f 10 17 18
f 13 12 19
f 19 12 18
f 14 15 20
f 20 15 21
f 14 22 16
f 14 20 22
f 16 23 17
f 16 22 23
f 17 24 18
f 17 23 24
f 19 18 25
f 25 18 24
f 21 26 20
f 28 27 26
f 27 20 26
f 27 22 20
f 22 29 23
f 22 27 29
f 23 30 24
f 23 29 30
f 25 24 31
f 31 24 30
f 28 32 27
f 27 32 29
f 29 32 33
f 29 33 30
f 30 33 34
f 30 34 31
f 37 36 35
f 2 3 35
f 3 37 35
f 3 38 37
f 40 39 4
f 39 3 4
f 39 38 3
f 40 41 39
f 35 36 7
f 36 6 7
f 36 42 6
f 35 7 2
f 9 40 4
f 43 41 40
f 9 43 40
f 11 43 9
f 11 13 43
f 43 13 44
f 42 15 6
f 45 15 42
f 19 47 46
f 44 19 46
f 13 19 44
f 47 48 46
f 45 21 15
f 49 21 45
f 25 50 47
f 25 47 19
f 48 47 51
f 51 47 50
f 49 52 21
f 21 52 26
f 28 26 52
f 28 52 53
f 55 54 50
f 25 55 50
f 31 55 25
f 50 54 51
f 53 56 28
f 28 56 32
f 32 57 33
f 56 57 32
f 33 58 34
f 57 58 33
f 31 34 55
f 55 34 58
f 60 59 37
f 37 59 36
f 61 37 38
f 61 60 37
f 62 38 39
f 62 61 38
f 39 41 62
f 62 41 63
f 59 42 36
f 64 42 59
f 65 63 41
f 65 41 43
f 43 44 65
f 65 44 66
f 64 45 42
f 67 45 64
f 44 46 68
f 69 44 68
f 66 44 69
f 48 68 46
f 71 49 70
f 49 67 70
f 49 45 67
f 72 71 70
f 69 68 73
f 69 73 74
f 51 73 48
f 48 73 68
f 71 52 49
f 76 75 53
f 76 53 52
f 72 76 52
f 71 72 52
f 77 75 76
f 74 73 54
f 55 74 54
f 78 74 55
f 54 73 51
f 75 56 53
f 77 79 75
f 79 56 75
f 79 57 56
f 57 80 58
f 79 80 57
f 55 58 78
f 78 58 80
f 81 59 60
f 61 82 60
f 60 82 81
f 62 83 61
f 61 83 82
f 63 83 62
f 84 64 81
f 81 64 59
f 85 81 82
f 84 81 85
f 83 87 86
f 85 83 86
f 82 83 85
f 89 87 88
f 88 87 65
f 87 83 65
f 83 63 65
f 66 88 65
f 90 67 84
f 84 67 64
f 91 84 85
f 90 84 91
f 85 86 92
f 85 92 91
f 93 89 88
f 88 66 93
f 66 94 93
f 66 69 94
f 90 70 67
f 70 90 72
f 90 95 72
f 90 91 95
f 91 92 96
f 91 96 95
f 74 94 69
f 74 97 94
f 95 76 72
f 99 98 77
f 99 77 76
f 96 99 76
f 95 96 76
f 101 100 98
f 101 98 99
f 101 97 100
f 97 78 100
f 97 74 78
f 98 79 77
f 79 98 80
f 80 98 100
f 80 100 78
f 102 86 87
f 89 102 87
f 103 92 102
f 102 92 86
f 93 104 89
f 104 102 89
f 104 103 102
f 94 104 93
f 105 96 103
f 103 96 92
f 106 103 104
f 105 103 106
f 97 106 94
f 94 106 104
f 105 99 96
f 99 105 101
f 101 105 106
f 101 106 97

