# https://github.com/mikedh/trimesh
v -7551.49195418 -11728.46836835 5871.46873979
v -7581.88004356 -11523.83540523 5652.60396079
v -7820.40769150 -12117.95015218 5474.08512584
v -7805.50841512 -11843.67337950 6400.93324808
v -7555.66423028 -11454.09019196 6034.70500750
v -8774.45651232 -12933.64765607 1013.76252111
v -9187.45750139 -13273.04929279 -219.39578418
v -9509.98337237 -14026.40179846 126.75783126
v -9238.63997005 -14059.47850528 1554.05185171
v -9076.71574430 -12360.77507232 -30.34280689
v -9912.98603638 -12621.97043602 -899.03400820
v -9571.27547071 -13190.88244134 -784.53466204
v -8609.47271749 -11768.70230636 1252.79108455
v -8586.66692880 -13144.12393070 2409.94947702
v -8279.97938481 -11910.23000409 2790.28915526
v -8345.10342533 -12870.95738757 4113.31376962
v -7864.08149519 -11610.87309894 4714.95063193
v -8531.35819376 -13149.78947247 6265.93088508
v -8163.54372079 -12296.89161552 7343.94395857
v -8202.37261562 -11057.24233121 10457.45713787
v -8091.84056192 -11411.60657498 8918.39777497
v -8435.59549340 -12252.14834959 9405.52217362
v -8801.60156659 -12682.38812551 11022.39723619
v -8490.08383458 -11292.70563167 12433.53310379
v -9248.05443889 -12885.76355343 13317.95227353
v -8799.54660579 -11250.27829301 14076.48467574
v -9294.97586560 -12051.16731801 14797.46347831
v -9549.01403206 -11738.62636623 -299.95195206
v -9087.59737075 -11206.46124305 700.72936438
v -10029.19734225 -10952.16978699 193.38491003
v -8681.40293397 -10611.83976352 2352.68211653
v -8183.55104808 -10584.00046549 4232.08778419
v -7850.39210233 -10773.18505290 6287.98333320
v -7938.10787416 -11433.44188167 7659.01778246
v -8026.86105843 -10265.50211253 8772.21251552
v -8087.35441161 -9666.12153371 10556.78343208
v -8167.32662124 -9914.91112516 11953.81634314
v -8453.53761696 -10029.10342491 13461.61594237
v -9207.52475198 -11185.87468649 15169.51765846
v -8966.13638648 -10175.03096322 14781.54308359
v -9748.15801778 -10657.52136264 15791.46065800
v -9601.55944536 -10180.85659835 1478.33986371
v -9328.24805124 -9572.17557207 2720.61813800
v -8840.49962454 -9510.64479522 3922.16217038
v -9770.22156704 -8815.13102950 3744.33172066
v -8522.97526445 -9404.13737588 5664.58023816
v -8405.73883526 -9145.04130992 7683.27915666
v -8432.12696751 -8627.60632555 9857.18717946
v -8302.70157971 -8715.79997990 11645.38907511
v -8363.31899516 -9000.54137729 12903.78276898
v -8900.75308549 -8844.24912685 14172.75730993
v -9635.01128448 -9420.60433491 15398.11680848
v -9447.27281493 -8572.07459681 5186.02522602
v -9255.35946542 -8295.26601919 6905.94595051
v -9149.21141997 -7936.50953619 8706.52496637
v -9158.08704004 -7558.23448227 10162.22478328
v -8890.79801761 -7689.14374769 11407.78867682
v -9862.28646065 -6978.28505669 11125.48174169
v -8840.66990276 -7920.69620777 12960.61799142
v -9330.59643703 -7794.27795696 14091.78370203
v -9850.99419292 -8284.61079346 14954.28065831
v -9640.74659884 -7068.96752585 12492.00669820
v -9581.59273022 -7249.98338845 13545.25495759
v -10672.63294893 -16190.80575408 11528.88191187
v -10892.14502806 -16546.38284157 10552.88757713
v -11119.39552511 -16697.00423034 11367.41966253
v -11072.56092081 -16506.49279518 11953.30775909
v -10012.36381701 -15083.74726767 2709.13747117
v -10671.09753441 -15623.80002897 1531.61333505
v -11442.56253283 -16141.04301075 2340.32239089
v -10874.57994824 -15920.39666726 3893.60421340
v -10137.64061713 -15375.89955704 4765.21893015
v -10977.58964376 -16140.07840971 5208.44657332
v -10362.55924223 -15707.33852651 8370.73316796
v -10863.64760669 -16096.37949638 7068.01828469
v -11059.71903604 -16323.49604124 8249.48888185
v -11017.10514484 -16457.06638069 9347.05837498
v -10172.98933969 -15501.66131996 10282.63941555
v -10198.65278321 -15278.01054276 12099.82057921
v -11040.12192299 -15963.94299158 12792.83461109
v -9763.33502054 -13848.68691954 -728.90992424
v -10648.87653299 -13907.73969055 -1286.79102197
v -10566.62810470 -14799.78722322 -756.08678215
v -10322.05321985 -15120.45285358 641.42113666
v -8965.65934674 -13900.14046574 2991.93629003
v -9202.25125310 -14233.46608098 4528.61361313
v -10466.60845986 -15781.40705579 5907.82393102
v -9733.46415018 -14889.90555711 6635.78181864
v -9599.93200122 -14638.79994356 8743.30562910
v -9103.38787972 -13902.91034985 7688.38651498
v -9536.34770553 -14450.93609244 10076.11156088
v -9514.54379553 -14169.90200789 11472.39781181
v -9195.64946592 -13742.13910786 10335.90321318
v -10409.24185066 -15046.92100834 13365.24742591
v -9822.85424479 -14349.56043162 12943.61721994
v -10147.12269196 -14130.99309784 14199.05305157
v -11045.76013227 -12915.89040343 -1329.82580073
v -8620.95227687 -12970.59335379 8169.36174480
v -8207.33821006 -12076.65760088 8293.94932497
v -8906.22839483 -13257.35464920 9530.54382740
v -9904.17289571 -13027.09400450 15081.52683059
v -9954.23142706 -11942.54677057 15864.08605841
v -10612.84412978 -13029.81623196 16190.52517788
v -10667.04219603 -12314.68492142 16524.43985878
v -11411.25591169 -12877.55803910 16837.31063169
v -10441.75253135 -11851.73840434 -746.72543899
v -11467.49715300 -11149.99091592 -231.22731605
v -11059.90052529 -11458.80386089 16623.46426505
v -10461.99477259 -10063.26342407 16154.23949439
v -10907.11272353 -10068.55433215 1014.01874383
v -10479.15868475 -9174.62204951 2491.64924146
v -10679.69858408 -8457.22311362 3681.59340377
v -10708.04408330 -9024.09180363 15813.39221118
v -10558.77726545 -8144.63488229 4798.35665774
v -10436.47385923 -7807.63158975 6321.98853241
v -10256.14760359 -7447.95072682 8007.82192074
v -10107.10016368 -7117.51845619 9644.28640636
v -11168.36254890 -6619.09478860 10708.87687713
v -11069.04113078 -7985.82260224 15220.94608542
v -10213.62941789 -7409.01234100 14365.42385948
v -10887.09540242 -6632.58039732 12160.02008731
v -10557.75356506 -6881.71224361 13430.29502297
v -12717.49900606 -16726.30988310 -2002.19759302
v -13160.11195167 -17079.43770633 -2419.64741633
v -13567.94070320 -17265.51813562 -2244.38238807
v -13285.09526805 -17066.73707911 -1991.17685364
v -11659.86845085 -16630.87361935 6167.87315440
v -12048.89943621 -16850.03916551 5665.71613865
v -12089.45726826 -16906.96874866 6037.05726041
v -12351.61301613 -16887.97539074 6559.74064060
v -11209.86329014 -16823.42887183 10066.19139978
v -11600.83190571 -16897.16873958 9689.55662123
v -11558.97671353 -16919.39828358 10708.92437726
v -12435.77895927 -16936.61514747 11177.25849823
v -11766.02929170 -16680.34473796 12036.03465653
v -12787.11523365 -16705.08561246 -2279.92149742
v -12092.69522826 -15718.12725621 -1753.69003938
v -11711.14889087 -16011.97844165 -711.69195743
v -12866.84434725 -16713.89102871 -1496.90464036
v -12713.81966331 -16668.23218389 498.14897033
v -11283.42585778 -15965.11889004 768.12510448
v -12907.79612737 -16721.20922232 2731.09719003
v -12167.56032306 -16619.89143955 4710.79931771
v -10933.35142039 -16212.30035803 6052.40303760
v -12180.26906299 -16750.26606321 8299.25493855
v -13072.48579730 -16710.51645342 12354.72797522
v -12416.89562107 -16156.84352431 13773.25347715
v -11225.11662688 -15172.91997902 14513.79024039
v -12446.09481932 -15508.38345296 15432.57354724
v -11730.06142827 -14796.38349931 15961.76437844
v -12488.33420804 -15094.61030254 16363.86976051
v -12366.52684329 -14292.17285527 -1689.39982326
v -9111.07662692 -13774.68010279 8718.00251666
v -9278.55071120 -14000.51714284 9485.82510590
v -10778.35212354 -14052.99109111 15519.47278726
v -12188.25012307 -14575.03875477 16689.80362341
v -11487.55844503 -13914.35617177 16518.26643231
v -12518.96980005 -13892.25522652 17042.20569168
v -12089.35232908 -12946.46048071 -1413.59233988
v -11433.09950735 -12141.58616142 -1061.60378489
v -12598.58599850 -12188.40045463 -915.75849577
v -12491.00366076 -12596.49743022 17170.64371898
v -13242.62183442 -11195.00265082 -2.05470638
v -12695.23907694 -11354.70165609 16984.35107318
v -11680.76326484 -10098.69442229 16463.64174446
v -12322.79607632 -10246.27608252 734.35276019
v -12218.99285684 -9257.02860932 2013.02296868
v -11400.68892517 -8080.99907699 4317.62873512
v -11611.39909363 -8496.57043570 3289.04575627
v -12322.13722454 -8056.35125128 4234.68880017
v -12083.71158774 -8883.33170177 15926.59813431
v -12087.64588919 -7659.04166310 5745.83080076
v -11457.03688978 -7271.12013224 7410.95007812
v -11605.19154218 -6838.29570734 9087.32610638
v -12389.55628207 -6480.72836379 10361.42638575
v -12427.23213151 -7883.71330252 15215.70860127
v -11532.27379249 -7217.44154323 14383.83377757
v -12512.74748225 -6465.75651637 11717.42384121
v -12039.48791303 -6733.25243851 13209.64260317
v -13664.53805940 -17267.24859502 -2438.87337307
v -14441.65194882 -17405.26133845 -2113.53099709
v -14409.75226250 -17450.47098347 -1536.06062792
v -13549.40181460 -17060.88787764 -1247.17873851
v -14565.48532420 -17420.97391492 -543.09586996
v -14059.66866165 -17184.71029566 220.14093338
v -15293.28613593 -17334.48957227 653.18111519
v -12413.03800161 -16902.73822907 5876.15598048
v -12257.90223714 -16973.52796858 10100.35006533
v -13325.66573356 -16989.27372236 -2256.61963854
v -12935.25341738 -16653.27184271 -2114.50052347
v -13578.27024553 -16318.06049916 -1953.09880499
v -14415.51803216 -17009.03160047 2034.80487599
v -14037.73093619 -16832.55522232 4295.69243595
v -13521.85459956 -16808.85205036 6555.19749281
v -14058.74686328 -16742.89469824 8770.93324103
v -13636.91564308 -16798.04158415 10694.43268171
v -14256.21533346 -16608.34232402 12544.93964769
v -13899.75696362 -16376.15115987 13767.89116798
v -13585.29426876 -15883.73238523 15100.89941936
v -13285.86285920 -15300.80228975 16231.38584099
v -12830.39281030 -14785.57502884 16799.30668778
v -13639.68531042 -14577.33372770 16846.77912160
v -14163.82511715 -14853.43957251 -1682.54418141
v -13662.23362836 -13504.51824995 17219.58390410
v -13345.85880135 -13448.35612968 -1399.99234703
v -14370.77408240 -12658.19386210 -665.08778854
v -13700.05182157 -12397.68816672 17270.73524581
v -14834.38814333 -11390.77032220 329.04994077
v -13917.97924101 -11510.99197510 16987.48515054
v -13371.23903690 -10170.26568528 16431.51986830
v -14133.74062744 -10025.54113028 1361.60452985
v -13581.89466377 -8975.17155395 2431.52178041
v -14543.37626208 -9093.84103607 2505.79576048
v -12916.24805886 -8461.00923410 3283.27887716
v -13389.87865522 -8680.92621178 15666.60580776
v -14172.46850413 -8524.98595899 3332.15346658
v -13712.92586263 -8003.93510624 4694.49769803
v -13898.87082481 -7543.70978721 6409.67204607
v -13073.67703027 -7065.71103674 7910.52507122
v -13018.14858038 -6620.41429519 9488.32507411
v -14246.37885813 -6803.10301683 9311.85822020
v -13352.26605774 -7915.53474263 15136.90244108
v -13159.74660036 -7335.94542030 14325.56943576
v -13691.36730304 -6509.61529885 10689.57572282
v -13727.65435669 -6518.23495688 11765.67821178
v -13752.93660303 -6837.82257517 12862.32580534
v -14007.37191877 -17104.02211460 -2299.20026219
v -15121.18305396 -17087.01673023 -1921.06907516
v -15962.36155275 -17609.10463363 -1348.81612335
v -15704.41891014 -17564.30535823 -458.14667312
v -16809.72215682 -17264.31213122 719.19591168
v -15631.40690991 -16141.37641512 -1595.43212169
v -16298.34363925 -16992.17152678 2134.55650376
v -15763.51365908 -16792.94478790 3908.38046167
v -15486.47973469 -16597.82835425 5944.97716831
v -15431.53863654 -16463.41415365 8128.54837759
v -15350.55741883 -16438.62035729 10216.68785983
v -15275.37718245 -16383.00627072 12077.20264654
v -15115.29037716 -16205.52115017 13654.96894402
v -14670.51990656 -15956.92282339 14788.57659478
v -14550.76072335 -15247.93435987 15961.76235880
v -14728.75506857 -14131.37314806 16756.29405109
v -15401.12550154 -14919.71381890 -1388.67151355
v -14657.38025261 -13979.67782489 -1286.40575787
v -15945.09619368 -14128.61316519 -714.87530418
v -14660.80340962 -13059.59286565 17102.02498998
v -16009.49324910 -12631.40176806 89.40739675
v -14556.41017010 -12211.81830337 17091.59478546
v -15095.99170405 -12526.03941626 16881.34513496
v -15048.27143811 -11416.44496941 16354.30290502
v -16034.42820475 -11477.58239566 836.24669919
v -15192.03540422 -10768.93670113 923.60978868
v -15697.91095148 -10482.77762861 1513.83722163
v -14615.18206290 -9534.03902840 15664.81091024
v -15094.28158424 -8813.52745527 3193.72514014
v -15667.94140333 -9626.55407010 2552.72396464
v -15793.04280773 -8925.52232893 3656.57773414
v -14293.02893017 -8192.70768979 14934.51154724
v -15308.33169752 -8885.88486362 14817.87324757
v -15215.61834458 -8143.27261277 14307.61997859
v -15102.01697850 -8403.17558952 4206.28688460
v -15357.03221068 -8038.73366744 5840.64784113
v -15067.20487133 -7442.36896653 7880.00281711
v -15399.12176297 -7149.03841682 9448.74921330
v -14564.58274382 -7515.35613308 13951.49139631
v -15361.47527509 -7858.58948611 13801.64997064
v -15193.56081025 -7476.63902278 13040.55652770
v -14877.54132925 -6795.92163392 10357.55901506
v -14808.99337416 -6890.37864619 11650.00303860
v -16986.70925516 -17385.36686347 -1379.63447732
v -17676.52441479 -17898.50259783 -971.55104043
v -17178.58606804 -17620.06491392 -335.41613568
v -18135.29785809 -16922.07167413 647.87097684
v -17431.53338291 -16600.23751811 -884.64843791
v -16417.64198245 -15460.15194455 -1073.10159593
v -17334.15516900 -15365.57100387 -236.79805507
v -18001.34898961 -16562.10050752 1802.48136636
v -17318.89084369 -16501.24225567 3698.24821046
v -16817.42900411 -16366.59643604 5310.38839548
v -17047.69087304 -15841.66560177 7434.80176208
v -16708.22719503 -15829.95034827 9797.80712559
v -16491.37548738 -15845.15298265 11719.45691116
v -16228.55730282 -15765.47525436 13374.66363972
v -15757.12651577 -15426.77034537 14903.86191180
v -15577.95818105 -14590.36271313 16012.90181312
v -16474.81063631 -14359.75278192 15300.70091418
v -17088.10312584 -13945.34197941 274.80116452
v -15739.44710477 -13234.26970496 16280.63460552
v -16820.16119671 -13323.34313690 15233.87092866
v -16933.79153988 -12836.02034449 617.16991427
v -16553.75790966 -12232.66178056 603.02734921
v -16987.62464545 -12127.26311371 1213.70037096
v -16555.59081698 -11931.54228044 15221.31034370
v -17312.05827396 -12807.89473098 14457.61798042
v -17364.80139621 -11874.76058235 14092.09980760
v -16271.47618477 -10348.65437719 2090.98522743
v -16645.20553588 -11092.82724795 1769.95430473
v -16810.46263737 -10474.06292110 2778.40714156
v -16911.12355229 -10624.09023816 14083.28066159
v -17600.00490676 -11277.60820994 13174.86445161
v -17300.34164859 -9995.00315776 12691.28585319
v -15857.94271070 -10155.63370688 15074.76629731
v -16173.73644732 -8722.51232326 4739.26809771
v -16602.16493268 -9548.81636166 3810.23692678
v -16564.76415389 -8600.54359922 5863.94545980
v -17104.26263468 -9401.31785723 5176.93333686
v -17204.88565489 -9060.00969447 6413.25010489
v -16114.44227789 -8766.01489695 13624.35883646
v -16900.17426793 -8803.93974113 12096.87774717
v -16457.74935595 -8277.11315365 7136.62647275
v -15852.21610857 -7359.81941430 10570.68577582
v -16487.50654675 -8023.83643495 9017.69112688
v -16059.56381770 -7807.06699295 12005.53839568
v -16861.10920014 -8363.82900604 10749.62143657
v -18559.47522719 -18164.39072733 -882.25848933
v -18375.78328866 -18030.98110802 -1084.89513655
v -18811.78389951 -18263.09946728 -962.47350731
v -18838.49132541 -18093.23704654 -683.28187477
v -18107.17430050 -17542.98190708 -1051.82666583
v -18665.04531709 -17812.85249617 -814.60501518
v -18420.91838699 -17284.85743417 -568.95232613
v -18399.50401992 -17720.94504070 -266.86338361
v -18736.22431532 -16973.11388535 851.37879739
v -18170.65255033 -15367.51300917 1058.18280234
v -18395.15850606 -16501.06498013 414.58283238
v -18562.11571249 -16661.66657472 1164.26538281
v -18753.28524055 -16449.12787953 2028.92491934
v -18605.86340074 -16135.91626371 1319.51551971
v -18464.96945277 -16139.55133914 3453.15857720
v -18066.67432048 -15710.04261300 5437.85396624
v -18328.15823624 -14520.59367103 7591.00273223
v -18766.04745138 -14745.09653660 5831.76705573
v -17782.57893970 -14853.71543265 9607.30011772
v -17453.77996609 -15025.53481905 11439.96523364
v -17144.61795720 -15063.02258282 13042.70617577
v -16742.16421991 -15022.45679913 14283.22982537
v -17653.61019277 -13350.61302067 1314.29568925
v -18789.69112233 -15305.66040768 1842.40743327
v -18517.30063845 -13906.20264990 2502.42566381
v -19022.23691150 -14878.45495958 2669.96157503
v -18796.98637151 -13370.16530038 6409.10462350
v -19070.46424242 -14500.03600230 5042.38455656
v -19035.83993519 -13874.10234108 4683.25712587
v -18616.20558848 -13146.43819017 8396.94155173
v -18365.30812141 -13603.05422443 9713.94677717
v -18033.89729349 -13912.61657852 11335.95047938
v -17704.11066852 -14210.13222343 12680.75230569
v -17302.66767180 -14000.55223986 14126.49270733
v -17623.67202271 -11972.98465196 2575.81067753
v -18982.41935203 -14019.30106282 3623.60141688
v -18485.25303143 -12454.81476995 4592.75844682
v -18495.34768637 -11677.71368421 6685.41882457
v -18559.87796786 -11917.57470101 8215.64340635
v -18443.71470536 -12234.89290323 9855.39235740
v -18257.78798907 -12768.77752215 11159.70547361
v -17830.42960744 -12778.39680287 12933.07195629
v -17530.02563175 -10640.35394510 4155.15275347
v -17888.91901218 -10340.28274931 6114.82818862
v -18136.57715386 -10456.72724994 8010.31453351
v -18167.49095742 -10750.44746413 9747.07939030
v -18002.29283095 -11306.68828832 11595.92455634
v -17413.15413868 -9146.07882940 7710.98745379
v -17565.36823161 -9298.26321169 9429.15195988
v -17586.46208555 -9657.44286655 11108.31784468
v -18856.83577180 -18084.48453774 -816.48889614
v -18806.53231553 -17439.67653384 -79.16633166
v -18950.50680450 -16110.67037551 1746.08316540
v -18989.92333644 -15859.06304141 3094.60432387
v -18894.28822546 -15372.12459943 4459.61087185
v -19142.64053351 -14972.50210472 3640.98746409
f 3 2 1
f 1 4 3
f 2 5 1
f 1 5 4
f 8 7 6
f 6 9 8
f 12 11 10
f 12 10 7
f 10 6 7
f 10 13 6
f 9 6 14
f 6 15 14
f 6 13 15
f 17 16 15
f 15 16 14
f 2 3 17
f 3 16 17
f 3 18 16
f 3 4 18
f 18 4 19
f 22 21 20
f 24 23 20
f 20 23 22
f 26 25 24
f 24 25 23
f 26 27 25
f 11 28 10
f 30 29 28
f 29 10 28
f 29 13 10
f 13 31 15
f 13 29 31
f 15 32 17
f 15 31 32
f 33 5 2
f 17 33 2
f 32 33 17
f 19 4 34
f 4 33 34
f 33 35 34
f 4 5 33
f 34 35 21
f 35 20 21
f 35 36 20
f 20 37 24
f 20 36 37
f 24 38 26
f 24 37 38
f 27 26 39
f 26 40 39
f 26 38 40
f 40 41 39
f 30 42 29
f 29 42 31
f 31 42 43
f 45 44 43
f 44 31 43
f 44 32 31
f 32 46 33
f 32 44 46
f 33 47 35
f 33 46 47
f 35 48 36
f 35 47 48
f 36 49 37
f 36 48 49
f 37 50 38
f 37 49 50
f 38 51 40
f 38 50 51
f 41 40 52
f 52 40 51
f 45 53 44
f 44 53 46
f 46 53 54
f 46 54 47
f 47 54 55
f 47 55 48
f 48 55 56
f 58 57 56
f 57 48 56
f 57 49 48
f 49 59 50
f 49 57 59
f 61 51 60
f 51 59 60
f 51 50 59
f 51 61 52
f 58 62 57
f 57 62 59
f 59 62 63
f 59 63 60
f 66 65 64
f 64 67 66
f 70 69 68
f 72 71 68
f 68 71 70
f 72 73 71
f 76 75 74
f 78 77 74
f 74 77 76
f 77 78 65
f 78 64 65
f 78 79 64
f 67 64 80
f 80 64 79
f 83 82 81
f 7 8 81
f 8 83 81
f 8 84 83
f 85 68 9
f 68 84 9
f 84 8 9
f 68 69 84
f 68 86 72
f 68 85 86
f 73 72 87
f 72 88 87
f 72 86 88
f 90 89 88
f 89 74 88
f 75 87 88
f 75 88 74
f 74 89 78
f 78 89 91
f 93 92 91
f 92 78 91
f 92 79 78
f 80 79 94
f 79 95 94
f 79 92 95
f 95 96 94
f 81 82 12
f 82 11 12
f 82 97 11
f 81 12 7
f 14 85 9
f 85 14 16
f 85 16 86
f 86 16 18
f 86 18 88
f 99 98 19
f 19 98 18
f 98 90 18
f 90 88 18
f 21 22 99
f 22 98 99
f 22 100 98
f 23 92 93
f 100 23 93
f 22 23 100
f 92 23 25
f 92 25 95
f 102 101 27
f 27 101 25
f 101 96 25
f 96 95 25
f 104 103 102
f 102 103 101
f 104 105 103
f 97 106 11
f 11 106 28
f 30 28 106
f 30 106 107
f 34 99 19
f 99 34 21
f 39 102 27
f 104 102 108
f 102 41 108
f 41 109 108
f 41 102 39
f 104 108 105
f 107 110 30
f 30 110 42
f 42 111 43
f 110 111 42
f 45 43 111
f 45 111 112
f 52 109 41
f 52 113 109
f 112 114 45
f 45 114 53
f 53 115 54
f 114 115 53
f 54 116 55
f 115 116 54
f 55 117 56
f 116 117 55
f 58 56 117
f 58 117 118
f 120 119 61
f 120 61 60
f 52 61 113
f 113 61 119
f 118 121 58
f 58 121 62
f 62 122 63
f 121 122 62
f 60 63 120
f 120 63 122
f 125 124 123
f 123 126 125
f 129 128 127
f 127 130 129
f 133 132 131
f 131 65 133
f 65 66 133
f 135 134 133
f 135 133 66
f 67 135 66
f 124 136 123
f 136 137 123
f 137 138 123
f 139 126 123
f 139 123 138
f 141 140 138
f 138 140 139
f 69 70 141
f 70 140 141
f 70 142 140
f 143 70 71
f 143 142 70
f 144 127 73
f 127 143 73
f 143 71 73
f 127 128 143
f 76 145 75
f 145 127 75
f 127 144 75
f 127 145 130
f 77 131 132
f 145 77 132
f 76 77 145
f 135 146 134
f 65 131 77
f 67 80 135
f 80 147 135
f 147 146 135
f 147 80 148
f 150 149 148
f 148 149 147
f 150 151 149
f 138 137 83
f 137 82 83
f 137 152 82
f 138 83 84
f 138 84 141
f 141 84 69
f 87 144 73
f 75 144 87
f 89 90 153
f 154 91 89
f 154 89 153
f 154 93 91
f 94 148 80
f 148 94 96
f 155 148 96
f 150 148 155
f 151 150 156
f 150 157 156
f 150 155 157
f 157 158 156
f 160 97 159
f 97 152 159
f 97 82 152
f 161 160 159
f 98 153 90
f 153 98 100
f 153 100 154
f 154 100 93
f 101 155 96
f 155 101 103
f 155 103 157
f 103 105 157
f 105 158 157
f 105 162 158
f 160 106 97
f 107 106 160
f 161 107 160
f 163 107 161
f 165 164 108
f 165 108 109
f 105 108 162
f 162 108 164
f 163 166 107
f 107 166 110
f 110 167 111
f 166 167 110
f 169 168 112
f 111 169 112
f 167 169 111
f 170 168 169
f 113 165 109
f 113 171 165
f 168 114 112
f 170 172 168
f 172 114 168
f 172 115 114
f 115 173 116
f 172 173 115
f 116 174 117
f 173 174 116
f 118 117 174
f 118 174 175
f 177 176 119
f 177 119 120
f 113 119 171
f 171 119 176
f 175 178 118
f 118 178 121
f 121 179 122
f 178 179 121
f 120 122 177
f 177 122 179
f 181 180 125
f 125 180 124
f 183 182 126
f 182 125 126
f 182 181 125
f 185 184 183
f 183 184 182
f 185 186 184
f 187 128 129
f 130 187 129
f 188 132 133
f 134 188 133
f 180 189 124
f 124 189 136
f 189 190 136
f 189 126 190
f 126 189 183
f 191 183 189
f 183 191 139
f 190 139 191
f 191 137 190
f 190 137 136
f 126 139 190
f 183 139 140
f 183 140 185
f 192 186 185
f 140 192 185
f 142 192 140
f 193 142 143
f 193 192 142
f 143 128 187
f 194 143 187
f 193 143 194
f 194 187 130
f 145 194 130
f 195 194 145
f 145 132 188
f 196 145 188
f 195 145 196
f 196 188 134
f 146 196 134
f 197 196 146
f 198 146 147
f 198 197 146
f 199 147 149
f 199 198 147
f 201 200 151
f 200 149 151
f 200 199 149
f 201 202 200
f 191 152 137
f 203 152 191
f 156 201 151
f 156 158 201
f 158 202 201
f 158 204 202
f 203 205 152
f 152 205 159
f 161 159 205
f 161 205 206
f 162 204 158
f 162 207 204
f 206 163 161
f 208 163 206
f 210 209 164
f 210 164 165
f 162 164 207
f 207 164 209
f 208 211 163
f 163 211 166
f 211 213 212
f 167 211 212
f 166 211 167
f 214 169 167
f 214 167 212
f 214 170 169
f 171 210 165
f 171 215 210
f 213 216 212
f 212 216 214
f 214 216 217
f 214 217 170
f 217 172 170
f 217 218 172
f 172 219 173
f 218 219 172
f 219 221 220
f 174 219 220
f 173 219 174
f 220 175 174
f 223 222 176
f 223 176 177
f 171 176 215
f 215 176 222
f 221 224 220
f 220 224 175
f 224 178 175
f 224 225 178
f 178 226 179
f 225 226 178
f 177 179 223
f 223 179 226
f 227 180 181
f 227 181 228
f 181 229 228
f 181 182 229
f 230 182 184
f 230 229 182
f 184 186 230
f 230 186 231
f 227 189 180
f 191 189 227
f 228 191 227
f 232 191 228
f 233 231 186
f 233 186 192
f 234 192 193
f 234 233 192
f 235 193 194
f 235 234 193
f 236 194 195
f 236 235 194
f 237 195 196
f 237 236 195
f 238 196 197
f 238 237 196
f 239 197 198
f 239 238 197
f 240 198 199
f 240 239 198
f 241 199 200
f 241 240 199
f 200 202 241
f 241 202 242
f 244 203 243
f 203 232 243
f 203 191 232
f 245 244 243
f 204 242 202
f 204 246 242
f 244 205 203
f 206 205 244
f 245 206 244
f 247 206 245
f 250 249 248
f 249 246 248
f 246 207 248
f 246 204 207
f 252 208 251
f 208 247 251
f 208 206 247
f 253 252 251
f 250 248 209
f 210 250 209
f 254 250 210
f 209 248 207
f 252 211 208
f 256 255 213
f 256 213 211
f 253 256 211
f 252 253 211
f 257 255 256
f 260 259 258
f 259 254 258
f 254 215 258
f 254 210 215
f 255 216 213
f 257 261 255
f 261 216 255
f 261 217 216
f 217 262 218
f 261 262 217
f 218 263 219
f 262 263 218
f 221 219 263
f 221 263 264
f 267 266 265
f 265 266 260
f 265 260 258
f 223 265 258
f 222 223 258
f 222 258 215
f 264 268 221
f 221 268 224
f 224 269 225
f 268 269 224
f 265 226 267
f 226 269 267
f 226 225 269
f 226 265 223
f 271 270 229
f 229 270 228
f 272 229 230
f 272 271 229
f 230 231 272
f 272 231 273
f 275 232 274
f 232 270 274
f 232 228 270
f 276 275 274
f 277 273 231
f 277 231 233
f 278 233 234
f 278 277 233
f 279 234 235
f 279 278 234
f 280 235 236
f 280 279 235
f 281 236 237
f 281 280 236
f 282 237 238
f 282 281 237
f 283 238 239
f 283 282 238
f 284 239 240
f 284 283 239
f 286 284 285
f 284 241 285
f 284 240 241
f 242 285 241
f 275 243 232
f 245 243 275
f 276 245 275
f 287 245 276
f 286 285 288
f 286 288 289
f 246 288 242
f 242 288 285
f 291 247 290
f 247 287 290
f 247 245 287
f 292 291 290
f 295 294 293
f 293 294 289
f 293 289 288
f 250 293 288
f 249 250 288
f 249 288 246
f 291 251 247
f 297 296 253
f 297 253 251
f 292 297 251
f 291 292 251
f 298 296 297
f 301 300 299
f 299 300 295
f 293 299 295
f 302 299 293
f 254 302 250
f 250 302 293
f 296 256 253
f 304 303 257
f 304 257 256
f 298 304 256
f 296 298 256
f 306 305 303
f 306 303 304
f 307 305 306
f 301 299 308
f 301 308 309
f 260 308 259
f 308 302 259
f 308 299 302
f 259 302 254
f 303 261 257
f 261 303 262
f 262 303 305
f 307 310 305
f 310 262 305
f 310 263 262
f 312 311 264
f 263 312 264
f 310 312 263
f 314 313 311
f 314 311 312
f 313 314 309
f 313 309 308
f 267 313 308
f 266 267 308
f 266 308 260
f 311 268 264
f 268 311 269
f 269 311 313
f 269 313 267
f 317 316 315
f 315 318 317
f 320 319 316
f 319 270 316
f 271 315 316
f 271 316 270
f 320 321 319
f 318 315 322
f 271 322 315
f 322 271 272
f 272 273 322
f 322 273 323
f 319 274 270
f 325 324 276
f 325 276 274
f 321 325 274
f 319 321 274
f 327 326 277
f 326 328 277
f 324 277 328
f 277 324 273
f 325 273 324
f 273 325 326
f 326 323 273
f 327 323 326
f 326 325 328
f 329 277 278
f 329 327 277
f 330 278 279
f 330 329 278
f 332 330 331
f 330 280 331
f 330 279 280
f 281 333 280
f 280 333 331
f 282 334 281
f 281 334 333
f 283 335 282
f 282 335 334
f 284 336 283
f 283 336 335
f 286 336 284
f 337 287 324
f 324 287 276
f 324 328 338
f 339 324 338
f 337 324 339
f 340 339 338
f 343 342 341
f 341 342 332
f 331 341 332
f 344 341 331
f 345 331 333
f 344 331 345
f 346 333 334
f 345 333 346
f 347 334 335
f 346 334 347
f 348 335 336
f 347 335 348
f 289 348 286
f 286 348 336
f 337 290 287
f 290 337 292
f 337 349 292
f 337 339 349
f 339 340 350
f 351 339 350
f 349 339 351
f 351 350 343
f 341 351 343
f 352 351 341
f 353 341 344
f 352 341 353
f 354 344 345
f 353 344 354
f 355 345 346
f 354 345 355
f 356 346 347
f 355 346 356
f 295 356 294
f 356 348 294
f 356 347 348
f 294 348 289
f 349 297 292
f 297 349 298
f 349 357 298
f 349 351 357
f 358 351 352
f 357 351 358
f 359 352 353
f 358 352 359
f 360 353 354
f 359 353 360
f 361 354 355
f 360 354 361
f 301 361 300
f 361 356 300
f 361 355 356
f 300 356 295
f 357 304 298
f 304 357 306
f 306 357 358
f 306 358 307
f 358 362 307
f 358 359 362
f 363 359 360
f 362 359 363
f 364 360 361
f 363 360 364
f 309 364 301
f 301 364 361
f 362 310 307
f 310 362 312
f 312 362 363
f 312 363 314
f 314 363 364
f 314 364 309
f 365 316 317
f 318 365 317
f 365 320 316
f 321 320 366
f 320 365 366
f 318 322 366
f 318 366 365
f 323 366 322
f 366 325 321
f 328 325 367
f 325 366 367
f 323 327 367
f 323 367 366
f 329 368 327
f 327 368 367
f 330 369 329
f 329 369 368
f 332 369 330
f 367 338 328
f 338 367 340
f 367 370 340
f 367 368 370
f 343 370 342
f 370 369 342
f 370 368 369
f 342 369 332
f 370 350 340
f 350 370 343

