# https://github.com/mikedh/trimesh
v 34627.40950371 729.50487017 -25083.63870395
v 33988.71981147 911.21509344 -26189.49936408
v 34259.45823519 11.38304623 -25552.03093306
v 34514.60973050 -41.29876133 -24495.16624159
v 34776.76773245 675.50710382 -24203.64860457
v 34579.74327624 274.86178706 -23534.52971961
v 34374.72354594 1496.95478647 -25345.73561848
v 33740.49119490 2027.68780527 -25941.16284004
v 34581.02748954 1404.64296312 -24418.97621328
v 34533.15862343 1101.64331003 -23366.50048531
v 33920.40761132 2271.10032211 -24840.54610304
v 34012.77321849 2044.85184825 -23517.14550862
v 33013.77333003 -1422.11667427 -26229.79203831
v 32512.74164609 -1227.56080183 -27241.92783850
v 32117.70469255 -2073.98704670 -26539.24560786
v 32491.89881184 -2011.12586367 -25210.94328050
v 33688.24943087 -977.21628150 -25061.17968409
v 32880.12456536 -1815.65767532 -23579.51262705
v 33963.50177200 -675.67000521 -23281.39355299
v 33145.88757008 -1547.22251411 -22217.01051452
v 33634.63637914 -672.59151492 -21635.55829057
v 32821.42537484 -1625.10448533 -20808.85715882
v 33495.15686111 -359.22948488 -26571.39835052
v 32622.44946051 -124.20661271 -27765.26005889
v 34153.21850254 467.41954688 -22263.50332289
v 33273.23775625 -662.46626031 -20433.77569320
v 33634.20205255 263.30933833 -20809.15581251
v 33048.18924813 72.72011246 -19597.72171143
v 33221.00616851 646.80334024 -27239.33750796
v 32905.37589302 1755.84039435 -27047.25735548
v 33937.42300641 1690.00358310 -22255.06793749
v 33650.94627918 1325.57527836 -21044.58680594
v 33266.36457475 1009.36944811 -20031.11692561
v 33422.45168689 2675.35063633 -25581.11992680
v 32806.14144999 2652.70460386 -26278.42865177
v 33157.49057992 2914.06022027 -24995.41977080
v 32899.54103613 2890.91433467 -23845.93394621
v 33132.77334037 2610.45915771 -22354.28881848
v 33155.50362918 2297.80204589 -21110.89946161
v 32127.70971736 3035.18547643 -21072.10276552
v 32925.03460338 1913.35657953 -20008.26137993
v 32725.98225109 3036.21693386 -25613.59883677
v 32345.36119827 2688.20992005 -20131.59027573
v 30613.61784677 -6170.34577149 -12936.47022825
v 30542.21243190 -6285.02133893 -13514.64262094
v 30206.41408532 -6720.28963540 -13090.06317742
v 30052.65872517 -6649.02553321 -12685.32926116
v 30956.04666258 -5262.28546792 -13687.51679774
v 31119.87851015 -4698.56024763 -14986.04534630
v 30349.22780551 -5900.00784335 -14528.59846294
v 30738.89392791 -5403.88942340 -12807.52934882
v 30170.70718405 -6022.19957410 -12443.62760040
v 31327.45151995 -2504.00166043 -26841.32997918
v 31587.55096924 -1978.63187081 -27446.69794271
v 30938.54318574 -2479.26237981 -27350.54471483
v 30505.27346938 -2677.05505721 -26732.76125365
v 31779.95972849 -2723.90221593 -19471.42342587
v 31195.58939341 -3187.83230428 -20331.86390184
v 30607.36834677 -3697.55183345 -19419.39076990
v 30989.85413106 -3752.82507197 -18411.59840716
v 31298.82849177 -3586.87078424 -14441.49902996
v 31500.99810243 -3722.67943374 -15589.63055780
v 30853.38471665 -4276.50892389 -13126.35492475
v 30183.74582448 -4955.84928548 -12392.68877513
v 31495.14218339 -878.86210661 -28158.73556209
v 31047.76454599 -2580.03325120 -25614.11761320
v 31396.38160340 -2580.46923137 -23744.61604168
v 31786.03188683 -2583.77282959 -21653.98446857
v 32641.07800336 -1225.75465492 -19367.84511294
v 31524.97565060 -3268.19814835 -17894.42342509
v 31966.34844288 -2021.00413775 -17703.50672457
v 31563.81839390 -3376.04167654 -16702.52620854
v 31635.03341174 -2525.49574470 -15902.11288575
v 31132.76918398 -1755.35182201 -14730.98927492
v 30752.57797334 -2749.22444183 -13461.89373715
v 30082.08147860 -3584.20353871 -12550.94961709
v 31944.92213827 247.45238122 -28526.35593550
v 31556.11471039 585.48876070 -28863.63589555
v 31303.25617757 44.63982132 -28706.16226794
v 32328.17790943 -260.83960677 -18206.61304368
v 31551.05696595 -658.13969579 -16397.68864642
v 30475.70611746 -6.74548425 -14869.51763540
v 30180.28486700 -1146.88096133 -13613.96906275
v 29920.26012326 -2292.16519342 -12799.33921361
v 31872.45018093 873.16041405 -28716.57629533
v 31447.85887602 1013.85803847 -28833.54354980
v 32358.81664253 992.23403664 -28090.06386014
v 31660.14310372 923.92108825 -17405.33499311
v 32491.39542891 1215.62040146 -18879.58187381
v 30854.90288405 857.45565391 -16156.69202755
v 31695.81239024 1312.20855119 -28550.53763273
v 31558.77310182 1922.78544034 -27918.56451154
v 31777.25092191 2616.55455786 -27057.02906745
v 31212.64310004 3384.94234140 -23784.41408787
v 32116.25091106 3232.10405021 -24924.89444907
v 31792.33656705 3249.88853284 -22413.00214207
v 30630.98501168 3553.15003934 -21012.62929290
v 31951.87803968 2412.16893817 -19086.65837730
v 31545.95871792 3152.08934303 -26062.07044314
v 31012.93052208 3245.03522650 -19552.08439076
v 29839.21384612 -6747.26216113 -13701.14004466
v 29285.55447279 -7014.51190691 -13051.05781198
v 29291.12940608 -6622.26270662 -12437.63109589
v 30588.52252684 -5092.16092270 -15833.14604132
v 29940.04132337 -5115.93336398 -16709.63788214
v 29476.76407164 -5855.39808623 -15661.35784565
v 29136.53540014 -6613.78243799 -14566.52202601
v 29215.46718802 -5746.70683990 -12126.37893232
v 30630.59876922 -1923.58480554 -27820.24744560
v 30352.00792661 -2518.64284153 -27366.10380242
v 29753.53457424 -2518.47782033 -26932.19283597
v 30312.23281434 -3467.16216653 -20648.85520204
v 29205.44636296 -4127.84498215 -19429.38020085
v 29803.88305677 -4529.83163998 -18034.94995001
v 30883.29162732 -4257.36563304 -17103.03502741
v 31236.46159653 -4277.56128146 -16035.34592253
v 29057.22546562 -4469.86204356 -12035.60701430
v 30517.91778369 -1190.21222307 -28212.89201395
v 29298.38346659 -2541.91138467 -25743.20227106
v 29588.96511369 -2817.43401444 -23929.73564201
v 30008.49736254 -3111.82910641 -22155.96262043
v 28739.57979568 -2853.32822102 -12157.58690101
v 30941.86705803 634.00342384 -28780.45271947
v 30375.75014441 -288.97274913 -28459.00797274
v 29886.11176099 -84.92098524 -13937.91236245
v 29010.49715385 -135.85454753 -13294.90133947
v 29065.55269781 -1364.08899164 -12692.44163461
v 30931.62224438 1395.16829763 -28523.93464464
v 29914.21422624 899.49580622 -28409.85108300
v 31584.20124867 1975.43591646 -18046.87873298
v 30620.78587094 2071.91875651 -16918.18383060
v 29514.77310676 1681.61378162 -15368.71747775
v 29392.46664882 719.65043283 -14205.38789555
v 29901.84440257 2125.60017722 -27841.21460730
v 30956.93490227 2532.49738269 -27551.42379575
v 29320.94479735 3496.65659609 -23929.59056690
v 30590.51283759 3430.74152309 -25050.42642072
v 30109.83340822 3583.85902384 -22435.84984715
v 28972.87664771 3846.82217228 -21057.59425081
v 30810.63105216 2817.63517737 -18106.80629547
v 29924.06335120 2992.81748790 -17211.68563722
v 29535.27352386 2687.26321178 -16388.26923513
v 30493.76481470 2917.24239897 -27005.95498254
v 29891.07780861 3313.83871287 -26105.89381449
v 29258.96925209 3881.16801805 -19620.79876672
v 29363.98030729 3589.62491549 -18027.36005420
v 28880.66520546 -7060.23083772 -13790.05828621
v 28082.61681729 -6958.50180254 -14342.93996330
v 27779.22698840 -7152.01654128 -13481.36269430
v 28340.23815006 -7006.65099146 -12717.61066499
v 28096.34106432 -6466.00462514 -12266.86964349
v 28680.04020256 -5459.12198849 -16834.22204583
v 27836.08642125 -6338.78031601 -15479.55518829
v 27855.23763206 -5432.67977662 -11940.64721284
v 29802.78467492 -2179.17497521 -27482.75506502
v 28738.37972772 -3671.06061307 -20725.09215722
v 27571.21332101 -4181.96963018 -19452.13042280
v 28018.84523418 -4816.07087528 -18153.94568936
v 27587.31508370 -4110.50494289 -11808.81989759
v 29557.89817116 -1281.13638915 -27883.25051307
v 28761.73087176 -1918.41189051 -26883.50723399
v 27691.05834152 -1996.52386018 -25625.42184501
v 27599.91399460 -2446.04387747 -24014.59699877
v 27899.95199256 -3098.53082640 -22061.00733001
v 27190.72667510 -2895.85772253 -11830.33555271
v 28954.14243386 20.91281762 -28073.66690601
v 28316.78625278 -651.92877811 -12649.42822712
v 27493.61293228 -1474.56770146 -12197.31632546
v 28560.85638347 1270.80661060 -27944.85908204
v 28739.36768553 1463.48945067 -14397.27857960
v 28175.83793990 1018.81346094 -13700.36057251
v 27321.74158634 86.95273795 -12781.69858077
v 28147.83343221 2242.35930872 -27522.47375056
v 29256.60370160 3440.36745915 -25243.44947490
v 27907.47605259 3219.87799015 -24901.10896968
v 28662.40054981 3282.11553448 -25948.94784186
v 27722.77740960 3367.07973199 -23489.68543907
v 28367.56134123 3637.24705452 -22385.22259047
v 27297.16858669 3902.89549339 -21015.53095416
v 29033.71760741 3301.86766167 -16817.04486347
v 28344.13404200 2940.78135714 -15855.20106873
v 27618.41687426 2146.98390008 -14546.46167933
v 28852.59631136 2919.99304881 -26904.64196122
v 27854.30840475 4150.93763776 -19894.23573443
v 27327.99191098 4342.50038236 -18293.68020478
v 27797.27599819 3786.95881845 -16833.99670065
v 26693.14860592 -6849.58470539 -14458.68018644
v 26057.53985392 -7011.53875362 -13532.16653964
v 27053.33097182 -6937.08290896 -12777.94798414
v 26608.15337020 -6212.77875408 -12254.10642549
v 26873.02963678 -5562.93755900 -16840.34283722
v 25867.01915718 -6205.35856903 -15580.01276252
v 26322.39093533 -5077.91389772 -11900.64149377
v 27291.04138073 -3652.82636077 -20518.54831274
v 26231.81423129 -3851.93227472 -19623.09055742
v 25937.13290146 -4583.08136076 -18205.40782652
v 26065.50614473 -3771.27781194 -11757.99385851
v 28109.84606046 -786.51548875 -27386.94745047
v 27365.56689727 -1289.57094459 -26465.43895294
v 26729.31803479 -1437.33726997 -25599.89482834
v 26460.26777653 -812.83188696 -25975.45043988
v 26591.86452554 -1775.83652395 -24665.66525477
v 26194.27660705 -1978.52505553 -23602.75998857
v 25979.66473396 -2367.11751277 -22292.68181722
v 26028.08896313 -3161.92687720 -20738.30925123
v 25825.64312050 -2330.78368222 -11857.79740475
v 27631.34847533 445.37864493 -27538.78102343
v 25867.90208140 -933.28997156 -24926.92275540
v 25731.21696710 -1456.82157001 -24000.22365650
v 25510.97177516 -670.29516560 -12191.68971136
v 27340.46686060 1550.20902346 -27456.43196918
v 25748.90176947 637.62071285 -12698.21341596
v 26583.74647689 1386.21961952 -13397.24133005
v 27195.17812326 2240.73009780 -27208.04732929
v 26639.42699494 2584.63076879 -25309.57517581
v 27664.41482502 2957.53135705 -26192.45833053
v 26468.18241590 2891.19442245 -23768.27274490
v 26678.97122369 3372.77971307 -22302.61535152
v 25604.88158147 3689.36894161 -20898.74346280
v 25362.20828986 2472.60925934 -14058.50107455
v 26349.07899012 3470.40872129 -15501.16300542
v 27630.69744596 2676.73744957 -26990.85576600
v 26180.48154975 4362.12447290 -19531.54149112
v 25798.60951868 4802.97160371 -18312.56960533
v 24661.46870820 4763.75346792 -18628.00521926
v 25854.31833097 4829.83076437 -17560.26694938
v 26164.18089549 4398.39079353 -16796.91877087
v 24781.89647091 5019.50496528 -17657.19083263
v 24724.03193255 -6489.76657158 -14360.42838834
v 24887.97015732 -6839.99669880 -13457.35921571
v 25569.39135422 -6717.42906667 -12853.51958672
v 24936.19116016 -5775.83894294 -12397.61903860
v 24995.47558079 -5396.17734800 -16659.57837500
v 24349.70484303 -5844.33851411 -15584.00229064
v 25016.38070157 -4610.44378417 -11977.98182888
v 24434.85853079 -3364.53534525 -19209.12701688
v 23623.98181053 -4369.40962125 -17403.99093488
v 24501.77499414 -3365.39494224 -11955.48511234
v 26902.08906253 -272.22977052 -26757.73931199
v 25255.27569396 -1552.28501130 -22994.37686598
v 24633.76638713 -1645.26136821 -21905.19720573
v 24484.38495762 -2277.79125491 -20779.49468171
v 24161.73637680 -1844.41342855 -11991.75725596
v 26617.01214040 900.08396506 -26810.57651730
v 25917.72873351 167.40143623 -25694.46969743
v 25183.77253300 -93.42984997 -24471.14744720
v 25048.05724568 -792.03446482 -23708.21898534
v 23807.32080933 -642.19942261 -12129.61059143
v 26669.89243260 1807.92854175 -26885.42192173
v 26064.48445393 1586.10005719 -25800.09810756
v 25178.08288677 904.13578029 -24517.22074103
v 25090.54672042 1461.48657761 -13105.04314457
v 24138.96109253 561.76750441 -12537.09287020
v 26848.30519644 2404.90318933 -26513.26101418
v 25519.68936120 2017.22601885 -24199.53539945
v 24767.34486807 2492.17878486 -22142.89785695
v 24267.10802222 3430.65737497 -20625.44011577
v 23709.31935566 2879.28157340 -14200.68024960
v 24576.01079817 3464.03603133 -14886.13193495
v 23601.90483067 1847.08231964 -13316.62467815
v 24531.31051691 4162.01550072 -19717.89032239
v 23114.06016918 4393.42260464 -18783.83296596
v 25025.73351963 4851.05519608 -16925.81788408
v 24492.40649273 4307.30566582 -15961.62210412
v 23457.01241051 4974.51145122 -17807.77146214
v 23750.85139525 4918.67228991 -16880.08373934
v 24246.08416513 -6616.89483755 -13618.13252557
v 24357.55861157 -6455.02715321 -13093.48309741
v 23620.21626744 -5216.11195113 -16212.68515520
v 22913.68845378 -5321.96466672 -15034.29789142
v 23489.63785201 -5996.32687358 -13686.38926980
v 23727.01955963 -5755.58929342 -12893.10177665
v 23575.42665396 -4604.09097478 -12494.18033865
v 22379.84398319 -3041.36026219 -18152.49501134
v 21852.63162077 -3744.46845183 -16950.94123947
v 22593.40298095 -4641.28434176 -16287.34775750
v 22705.46074744 -2729.27552152 -12442.97735636
v 24319.65105437 -788.44184976 -22462.74988395
v 23473.93151415 -993.75687707 -21063.78392169
v 22715.23725298 -1796.39234226 -19537.67509275
v 22866.34943987 -1295.71066314 -12195.71870372
v 24461.05014198 273.32074572 -23264.13579763
v 23597.71308831 176.97921630 -21849.68775470
v 22824.68178678 133.69446901 -20839.61447128
v 22395.16923834 -487.46463889 -20134.85000067
v 22530.03002741 -84.92711718 -12411.43676108
v 24673.71642332 1391.36121910 -23327.85814237
v 24018.02209211 1151.82965068 -22353.13707779
v 23142.25608395 1352.24002804 -21113.56691979
v 22796.24005782 977.13736780 -12730.49484234
v 21738.39750800 752.96258949 -12792.96785358
v 22196.39706084 1534.89223794 -13174.73621690
v 23406.59150937 3681.20496764 -19795.65716067
v 23239.70821850 2742.33735444 -20506.43316248
v 22096.50584870 3170.99195409 -19264.19782350
v 22115.41142193 2495.30286214 -14073.63142522
v 23047.17999447 3630.37823382 -15045.00423609
v 21556.20839538 4184.76839852 -18279.97903181
v 22599.94359385 4442.91474139 -16085.50094779
v 22270.74895908 4808.34909321 -17902.89014894
v 22189.81536139 4902.61965780 -17062.51909851
v 22438.11706438 -5090.03647817 -13912.35344409
v 22909.82718738 -5219.97693332 -13192.65424156
v 21125.71496940 -2820.25492983 -17458.71786345
v 20562.40373153 -3004.90107913 -16484.96232630
v 21400.09413531 -4079.86636623 -15737.18581023
v 21551.19305095 -4308.15075979 -14534.82502948
v 20666.48157725 -3558.88640549 -15108.35645454
v 21997.38517427 -4035.37007956 -13361.01379830
v 21034.54912094 -1715.37694628 -18194.44096574
v 20349.44590625 -2215.22182187 -17301.82455924
v 20703.72482466 -3203.54108368 -14252.54611127
v 21054.29312355 -2454.68205447 -13287.28394727
v 21483.18207354 -1138.37749737 -12706.20306006
v 22064.76049713 689.95992497 -20051.20414522
v 21441.23024471 -330.77504726 -19170.13256732
v 21325.62632671 28.99819617 -12721.50629943
v 22217.99407644 1937.59247070 -20001.27665123
v 21066.47360465 1504.70532798 -18975.61584548
v 21011.08178301 545.04851653 -12970.42952923
v 21033.59086871 1293.92407641 -13472.97951312
v 20643.50367427 3074.45813563 -18304.28125531
v 20632.84798348 2209.90797132 -14420.08112204
v 21074.22270515 3487.15935624 -15432.62957760
v 20429.28302642 4056.63981456 -17696.09402151
v 21343.50843232 4497.69210203 -16385.98855310
v 20279.24769241 4139.38740759 -16519.95942299
v 21002.37512551 4716.20627719 -16938.54613975
v 21233.14887795 4700.04035024 -17530.60021044
v 20493.55627513 -3352.28180087 -15690.31853101
v 19976.47139730 -1363.06035284 -17480.85264716
v 19730.96068306 -1827.52569969 -16649.02523115
v 19907.96725341 -2441.91680566 -15395.82615833
v 19972.92462845 -1957.85541794 -14161.18370636
v 20330.00439077 -1295.95899800 -13423.05232262
v 19555.01687034 -738.30133915 -14126.40334163
v 20111.49336721 -58.20974650 -17973.10836693
v 19439.53888582 -741.73430922 -17026.89783414
v 20367.05271837 19.56804943 -13375.43449843
v 19423.81485368 288.71216932 -14263.59366820
v 19794.29825657 1779.02871825 -17801.75393815
v 19897.01252307 1204.76854530 -14203.07773571
v 19198.55675784 1015.95897099 -14894.30514817
v 19651.29977541 2240.43334854 -15264.33837871
v 19674.57548358 3132.56121924 -17508.01518488
v 19774.59180301 3334.35122183 -16003.28977490
v 19770.75219541 3895.76649431 -17103.81989498
v 20425.47284733 4466.43451841 -17182.97122402
v 19482.52657083 3571.49526080 -16580.63712625
v 19145.91600603 -824.76444860 -15989.43718374
v 19324.05680091 -1247.25208003 -14914.94716787
v 19150.33983238 552.35435708 -16825.01357878
v 18853.34174975 237.79717758 -15954.60370326
v 19005.07710290 -17.12942646 -15109.19230406
v 19142.59454286 2171.43322549 -16906.01715910
v 18964.86037102 1296.34257216 -15885.05926976
v 19265.52517778 3197.80366618 -16912.73609656
v 19188.81985693 2713.12846140 -16269.28096292
v -13663.79250147 -615.90644736 -15988.69537334
v -13887.92938629 -527.75502390 -16126.25526392
v -13725.52942844 -649.28897237 -16055.15823635
v -14056.34416223 -691.61126989 -15968.57316372
v -13769.45541529 -506.60982065 -15979.10832001
v -14187.57502809 -362.58473157 -16083.26736974
v -13961.92719504 -580.37935493 -15862.01497479
v -14210.13490205 -424.43655220 -15876.28307384
v -14136.30713681 -636.46838885 -16173.85989274
v -15066.57233224 -322.53064189 -16516.75106485
v -14900.95068110 -925.81727713 -16246.09032925
v -15146.55716881 -661.85487785 -15566.63231120
v -14964.71813833 -138.31388088 -15954.27834484
v -17225.74888100 -4643.52393724 -16396.36310756
v -17361.71008974 -4511.29971432 -17250.05320770
v -18005.40126087 -5278.49150545 -16931.90926359
v -17874.77516404 -5425.70992336 -16138.62095922
v -16771.22886110 -3613.50166140 -16841.54486285
v -17333.65778105 -3888.46992209 -17807.14198212
v -17474.86030225 -4935.49372583 -15400.73554016
v -16699.42583292 -3679.65731210 -15483.35727862
v -17104.33927052 -4219.34778231 -14680.72264043
v -16831.25164557 -2605.82369844 -17803.81544086
v -15998.09125958 -2080.90512713 -16037.97033039
v -15992.99718434 -1219.85774464 -17271.76832387
v -16817.90228822 -3506.26614735 -14414.73545923
v -16496.74472615 -2601.00336076 -14583.18179453
v -17101.47348588 -3061.48773370 -13678.01939483
v -16929.71742033 -2040.49248322 -13642.13968492
v -17955.71863105 -2731.62165005 -12898.97082976
v -16351.82556657 -248.41316569 -17563.69706628
v -16309.87721065 -1418.48847652 -14566.63102135
v -17007.11045457 -1193.12222547 -13663.57165184
v -17560.04338892 -1663.86105070 -13084.16999300
v -15902.74739822 320.98866179 -16234.77958554
v -16670.24387819 470.70539832 -17044.37425695
v -16253.82948762 236.46922447 -15535.11039044
v -17172.08140868 -341.48467412 -14300.03080490
v -17203.24568292 844.90545787 -16187.30023855
v -18130.52374090 -4742.22464497 -17912.92244531
v -18986.18454303 -5590.41706852 -17449.78302296
v -19178.00131352 -6191.23787909 -16031.79804086
v -18115.36582135 -5639.32522094 -15668.14307226
v -18385.45802433 -5657.77910486 -14966.74753620
v -18170.84662113 -3663.94347333 -18916.67802374
v -17794.08286893 -4864.35755943 -14335.97585551
v -17368.08544569 -3994.47058175 -13884.49664034
v -18252.89357522 -4598.88726143 -13420.80395208
v -17830.36409804 -3691.84687125 -13199.73808353
v -19006.70029129 -4143.22209952 -12679.36097496
v -18543.53105138 -1542.32897848 -20980.88680248
v -19232.91096168 -1146.99109320 -22373.20866522
v -19419.14972225 -2229.98777316 -22137.47548255
v -18943.03658166 -2974.82052463 -20622.57423659
v -17627.17327794 -1983.06627444 -19296.63712598
v -16741.67193449 -1654.69574154 -18228.75929338
v -19269.25733397 -3088.53936968 -12328.94003577
v -18791.14664081 -376.81019857 -21331.61479865
v -19536.83212050 -256.08532483 -22553.94881685
v -17936.10677818 -600.67845453 -19828.19049565
v -16945.24370459 -849.93838632 -18463.49848996
v -17761.42666279 -1017.16068485 -13250.08592346
v -18803.00821504 -1825.60980629 -12611.37083939
v -19547.61253035 517.66871341 -21736.68501322
v -18732.64167718 504.50339280 -20221.09042563
v -19879.69831265 1309.44898001 -20682.17038462
v -17669.63132646 356.48140485 -18505.70097958
v -19102.18632722 324.67669443 -14079.78563766
v -17900.49270678 716.42146837 -15152.65678206
v -18878.94973049 -651.79006858 -13188.92657927
v -19306.15633522 1338.01297403 -19067.13203434
v -18501.53409827 1242.65834106 -17281.41095856
v -18591.02983090 1253.24190379 -15983.38263630
v -20283.60412282 -6923.84370845 -15724.18611808
v -20530.69536222 -6836.36999302 -16250.52623926
v -21230.23656312 -7195.43479444 -15533.58770094
v -20436.66399586 -6918.88069976 -14993.62286650
v -19566.47445695 -5028.83827633 -18702.76187795
v -20501.23334582 -6221.48718427 -17360.06086293
v -19518.04194267 -6305.41475765 -14498.01229572
v -18785.61184057 -5523.27231104 -13892.10917014
v -19922.82122137 -6068.44670220 -13422.84824470
v -19239.75682118 -5219.57465522 -13096.74697831
v -20498.32855792 -5475.97931270 -12623.36123596
v -19416.38101341 -4092.79045868 -19908.55366212
v -19950.33960083 -3858.38864204 -20863.67516985
v -20782.46948785 -4700.84110157 -20191.24054053
v -20519.03744997 -4153.60308161 -12137.91352497
v -20557.43225185 -1691.27339073 -24145.74527105
v -21645.88804373 -1528.44314931 -25094.12416871
v -21293.27684237 -2353.80828842 -24440.41011113
v -20525.43460423 -2620.62853683 -23296.20049932
v -19833.66591584 -1716.52208989 -23207.18326795
v -20088.45534252 -3269.79965118 -21893.72429713
v -20471.49930056 -2805.61712923 -12080.06817319
v -20723.00894829 -986.56386308 -24481.62302868
v -20045.36619567 -827.22448509 -23578.44961175
v -20597.98757170 -452.51132685 -24167.82111543
v -20422.12050993 -1479.54962967 -12443.87365115
v -20736.45429800 362.09521274 -23379.88298670
v -20392.40481091 1164.19654932 -21932.34245033
v -20921.70258414 1739.04963483 -21203.53759669
v -20928.58025291 602.95249013 -14075.90176942
v -19628.83996236 1111.34683542 -15092.82552470
v -20565.53855795 -321.88190739 -13137.30773916
v -21084.05212933 2040.22514373 -19743.32479209
v -20585.64002417 1903.42287023 -17901.38259364
v -20102.08779454 1596.38157938 -16327.67736099
v -21744.19773477 -6999.55086081 -16431.34932179
v -22652.25302017 -7363.55089624 -15395.23904686
v -21944.31919836 -7245.36398913 -14357.94695022
v -20733.16188626 -6800.40695801 -13888.29852150
v -21730.21759425 -6942.28738061 -13376.33200183
v -20963.66070969 -6467.58128738 -13093.92993787
v -21965.85821054 -6390.48022685 -12713.25492850
v -21444.81280701 -5676.92077574 -18793.76363502
v -22432.54477337 -6505.47632915 -17531.59095039
v -22035.17909484 -5331.44202656 -12157.43346617
v -21865.67640601 -3148.34771623 -23920.55979593
v -22417.60417410 -2552.51660461 -25047.65871464
v -23266.49146060 -3367.32705462 -24422.59878336
v -22879.87150467 -3948.88632877 -23016.23495786
v -21340.85209591 -3654.04448971 -22575.54594254
v -22266.30624269 -4553.95396179 -21366.36835868
v -20831.76007505 -4053.54104395 -21439.70397717
v -22292.69031394 -5272.70189456 -19916.36070988
v -22066.51661927 -3996.43732145 -11888.03780045
v -23243.16764451 -1795.78311242 -26009.18082497
v -22061.83055345 -2585.59429367 -12006.96018265
v -21380.07284531 -462.12547895 -24752.26688146
v -22683.70377431 -734.98796452 -25712.64945985
v -22096.65128995 -1269.35544145 -12478.07838752
v -22565.57346521 413.55988884 -24861.82572847
v -22149.09769133 1180.83212840 -23619.49364750
v -23461.10456800 1377.25994057 -24228.64318152
v -21476.55235411 1503.76407082 -22394.49273188
v -22738.17546388 621.43216208 -14166.95515982
v -21515.92532082 1307.79871165 -15222.55700069
v -22280.14513894 -187.52658796 -13221.13773115
v -22958.77691729 1870.20078440 -22791.63959682
v -22305.30186665 2221.37805300 -21086.91659554
v -22410.12786629 2496.12564653 -19779.89467546
v -22809.77318962 2520.28589496 -18407.43234905
v -22151.02596506 1923.37259702 -16644.43887091
v -23282.55041155 -7110.96753990 -16345.94650474
v -23874.99290711 -7387.37871077 -15400.66333430
v -23832.77627464 -7353.34835217 -14341.87450143
v -22996.91594528 -7015.96743385 -13311.58290398
v -23459.11961137 -6288.19941406 -12488.61466889
v -23256.09240183 -5900.66781621 -18791.56903475
v -24428.52182759 -6549.37318604 -17256.47369941
v -23617.44494100 -5171.73455325 -11997.71988379
v -23775.64627238 -2764.13165757 -25515.10350159
v -24411.84373269 -3361.38073224 -24835.47386000
v -24674.75253020 -3921.02367102 -23488.74552908
v -24170.74514016 -4600.04774222 -21787.48773986
v -23781.41793166 -5247.59186804 -20219.23365750
v -23678.46802749 -3817.42894825 -11902.34404061
v -24084.34733406 -1606.48170374 -26617.06057617
v -24672.57661946 -1372.92923937 -26829.88431669
v -24842.28621277 -2112.42164945 -26380.49735650
v -24921.74184802 -2936.20698873 -25544.67740473
v -23691.37618289 -2406.97882190 -12169.62409477
v -23873.95897284 -1041.73844481 -26516.91484867
v -25045.74274110 -669.39557095 -26764.28874257
v -23663.30885077 -1150.51996606 -12696.16826197
v -23950.37701690 -93.56769435 -26068.03525665
v -24200.20600919 856.77942062 -25374.82991826
v -24597.69267450 1475.08413218 -24711.48473721
v -24229.33009740 371.33612533 -14199.50123864
v -23763.55941554 1253.86431372 -15339.49878421
v -23807.23947072 -223.48777971 -13405.37383453
v -24671.69138523 1950.40724817 -23422.41001714
v -24108.31110569 2444.39044091 -21633.96430188
v -23724.73251947 2772.81223260 -19878.20129773
v -24198.86234498 2992.44880960 -18693.67503687
v -25174.37220231 3095.11717780 -19157.54981878
v -24381.14011981 2853.01657333 -17926.31916686
v -24365.34654431 2239.72535060 -16893.13624863
v -25087.71229210 3092.14622644 -18300.11542778
v -24515.58332827 -7135.50748310 -15972.25060161
v -24949.64700436 -7275.57665232 -15019.55517717
v -25287.79095891 -7182.29513013 -14108.75922073
v -24800.54052712 -6884.07379933 -13196.57739895
v -24970.56144440 -6082.62371729 -12377.52481339
v -25114.95722567 -5736.99453075 -18826.47802901
v -26321.10569085 -6053.14674800 -17362.03492834
v -25848.29532072 -6761.17597596 -15865.62028747
v -25964.74444370 -7012.15304801 -14660.45205393
v -25128.82748432 -4965.96210182 -12100.49536649
v -25679.63436446 -3331.58842869 -24647.94646346
v -26555.92340337 -3741.37542278 -23228.21866070
v -25913.25297817 -4429.29884292 -21902.54532348
v -25540.24815480 -5052.09116110 -20385.17511286
v -25214.08348981 -3619.91335887 -12196.25124176
v -25780.91476717 -1357.03168164 -26932.93127115
v -26512.25369162 -1961.44889233 -26580.16746384
v -26117.61043760 -2651.06231891 -25718.63385403
v -25252.82743240 -2188.41043308 -12621.70242183
v -26491.82587962 -611.48173787 -26941.71780830
v -25132.00934996 -424.98202650 -13701.00487882
v -26264.86781078 -808.06656812 -14032.94601924
v -25670.59840145 270.32136649 -14764.81370497
v -24776.55959350 -1030.59871530 -13032.71382563
v -25891.36860183 -1415.56377714 -13294.96896285
v -25679.63860230 338.97197818 -26195.54548858
v -25219.80791535 1152.70390199 -25390.87790823
v -26092.57389290 1070.04796496 -25445.84021459
v -25697.85568083 1402.52584202 -15911.95372490
v -25614.01992470 1559.03284852 -24620.11598740
v -26335.57872515 1842.17550569 -23503.07392876
v -25835.62623755 2380.74309341 -22017.23068183
v -25387.33256507 2844.95158543 -20463.51761140
v -26527.03769864 3020.44206434 -19456.77381817
v -26221.47598665 2161.22771522 -16824.20133121
v -25570.87900570 2789.69530329 -17604.88509057
v -26176.93500943 3053.86974855 -18411.53504775
v -26433.43107180 -6623.57368783 -13706.47647458
v -25946.19461715 -6500.55973877 -12818.23151985
v -26200.95242792 -5830.38925191 -12524.14051350
v -27112.52552463 -5199.25358820 -18808.01127594
v -27555.21245560 -5593.12891533 -17369.88914087
v -27411.75513732 -5992.38424368 -16055.91096114
v -26803.68890528 -6554.78014653 -14912.37199161
v -26450.29118152 -4722.24342317 -12530.15568851
v -27448.07286481 -2750.61823109 -24501.67342548
v -27972.86660548 -3322.66921530 -22767.33144699
v -27435.20116589 -4052.90038641 -21656.20322727
v -26913.50802432 -4664.14571236 -20561.24971840
v -26564.41306448 -3432.18799007 -12759.76206213
v -27144.77848517 -1283.76648849 -27013.90219315
v -27745.52501573 -1712.74715800 -26590.46072194
v -27282.84915363 -2259.13177181 -25932.09528879
v -27052.68151690 -1783.88931817 -13872.04496106
v -28110.03461323 -2175.10023537 -14716.61581047
v -27327.31693635 -790.40701115 -14923.59094298
v -26569.40047134 -2389.88690153 -13126.13160622
v -27669.00905014 -3109.68485402 -13662.08234385
v -27746.00076880 -716.02314852 -27059.39132436
v -27021.97409957 558.19884801 -15720.92028074
v -27323.98760114 -103.62497904 -26631.56933553
v -26804.20895754 1255.95599756 -24711.59579837
v -27081.73737154 579.11833750 -25757.20917520
v -27478.74334727 1370.58859996 -23709.70627436
v -28008.09506754 545.77640794 -24786.14786090
v -28453.66303291 837.16374144 -23099.16533919
v -26915.66599964 1472.22587465 -16336.46536329
v -27496.08746426 1907.22936272 -22242.45003526
v -26954.99219129 2623.55510847 -20729.94737232
v -27787.87268365 2741.63008993 -19616.22259003
v -27376.84183846 1868.40444697 -16959.07121168
v -27100.93428340 2554.39637146 -17695.92971984
v -27414.31850445 2905.99591909 -18655.81291224
v -26607.86926869 -6290.73626907 -12941.43635932
v -28013.14035148 -5194.36493894 -17799.70162149
v -28390.40709277 -5166.14228469 -16868.63052929
v -28373.82949597 -5399.27168343 -15678.45449166
v -27747.51431569 -5810.96913372 -14586.69443580
v -27198.68688625 -5619.79590398 -13238.50154578
v -28221.39349799 -4909.23802062 -14016.19752982
v -28502.89358901 -2552.52295352 -23285.55349494
v -28796.61838630 -2795.61502265 -22261.79633018
v -28579.33331710 -3395.94442354 -21304.46768338
v -28211.79302299 -4177.63290071 -19887.68589880
v -28537.98120897 -4566.12886989 -18164.75990424
v -28992.44558810 -3754.66794140 -18729.81169308
v -29022.34320539 -4218.37321158 -17096.18482241
v -28862.98828518 -4764.57957899 -16069.37890984
v -27561.61616899 -4371.24335179 -13234.00357462
v -28329.51853519 -4052.00745805 -13948.72446170
v -28183.34546900 -1179.89332995 -26965.47447992
v -28487.20562703 -1429.88286641 -26544.42067982
v -28289.51449497 -1776.51290484 -25691.88396573
v -28684.17633284 -1570.99700763 -24094.12399166
v -28793.38638795 -999.52431087 -25363.95464993
v -29095.54949849 -1849.51198122 -22494.67186422
v -29106.78077414 -3876.48855065 -17945.41177466
v -28961.63432296 -1253.15156559 -16828.11783706
v -28413.29355995 -1401.25994383 -15652.41689061
v -28880.77100201 -2500.64255689 -15882.09717293
v -28616.51943355 -3362.26009850 -14706.97478813
v -28457.84162535 -772.36227512 -26992.48842238
v -28735.32992352 -296.74249453 -24275.44733702
v -28643.93153824 -285.51044681 -25404.54691591
v -29109.87905240 -390.63649621 -22649.14393905
v -28180.44036877 -255.50992354 -16134.27539845
v -28783.19294601 236.54407506 -17334.54080649
v -28217.84979774 -419.45407019 -26837.56423828
v -28227.47930616 -92.27596754 -26135.55741130
v -29045.85656903 777.78209955 -21991.86750155
v -27875.08618440 988.43307331 -16632.54042521
v -28293.44712841 1666.74908026 -17691.31731724
v -28591.97174105 1472.73901363 -21842.24261076
v -28347.41325953 2073.37332704 -20704.01113779
v -28598.31834908 2296.53262273 -19544.39044837
v -28090.03640595 2498.97905726 -18271.44120960
v -28260.69004665 2642.31250996 -18907.11637934
v -28674.53112293 -4899.99719673 -15068.50094686
v -29233.74848335 -2383.22788413 -21172.72236606
v -29110.37337219 -3100.38254585 -19794.86579173
v -29035.72303389 -3871.36417261 -15845.42608086
v -28752.15327150 -4267.79530024 -14635.04991312
v -28722.98599651 -997.77345485 -26705.65032537
v -28774.11530159 -1219.54458691 -26183.20413961
v -29456.29052211 -1038.93471581 -21200.37539823
v -29487.68683380 -1735.16437654 -19710.23575660
v -29267.19243848 -2815.84809310 -17791.33998114
v -28646.27117314 -578.16807605 -26682.99082558
v -28793.69868475 -695.16928465 -26163.42117559
v -29369.49917723 352.32502415 -21141.33808086
v -29495.86340816 -148.73444091 -19832.77491371
v -29358.33427878 -801.99319076 -18343.00864059
v -29039.89924335 1291.86666026 -21128.70761267
v -29124.27470833 1332.82805927 -19946.50510165
v -29135.38893313 789.66835638 -18622.86659377
v -28741.36648450 1999.28309623 -18776.02825238
f 3 2 1
f 5 4 1
f 1 4 3
f 5 6 4
f 1 2 7
f 7 2 8
f 1 9 5
f 1 7 9
f 6 5 10
f 10 5 9
f 8 11 7
f 7 11 9
f 9 11 12
f 9 12 10
f 15 14 13
f 17 16 13
f 13 16 15
f 19 18 17
f 17 18 16
f 21 20 19
f 19 20 18
f 21 22 20
f 13 14 23
f 23 14 24
f 23 2 3
f 17 23 3
f 13 23 17
f 17 3 4
f 17 4 19
f 19 4 6
f 25 19 6
f 21 19 25
f 22 21 26
f 21 27 26
f 21 25 27
f 27 28 26
f 24 29 23
f 2 23 29
f 30 2 29
f 8 2 30
f 10 31 25
f 10 25 6
f 25 32 27
f 25 31 32
f 28 27 33
f 33 27 32
f 11 8 34
f 8 35 34
f 8 30 35
f 11 34 36
f 37 11 36
f 12 11 37
f 10 12 31
f 12 38 31
f 12 37 38
f 40 39 38
f 39 31 38
f 39 32 31
f 33 32 41
f 41 32 39
f 35 42 34
f 34 42 36
f 40 43 39
f 39 43 41
f 46 45 44
f 44 47 46
f 50 49 48
f 50 48 45
f 48 44 45
f 48 51 44
f 47 44 52
f 52 44 51
f 55 54 53
f 53 56 55
f 59 58 57
f 57 60 59
f 48 49 61
f 61 49 62
f 48 63 51
f 48 61 63
f 52 51 64
f 64 51 63
f 53 54 15
f 54 14 15
f 54 65 14
f 66 56 53
f 15 66 53
f 16 66 15
f 67 16 18
f 67 66 16
f 68 18 20
f 68 67 18
f 69 57 22
f 57 68 22
f 68 20 22
f 57 58 68
f 60 57 70
f 57 71 70
f 57 69 71
f 73 72 71
f 71 72 70
f 72 73 62
f 73 61 62
f 73 74 61
f 61 75 63
f 61 74 75
f 64 63 76
f 76 63 75
f 79 78 77
f 65 79 77
f 24 65 77
f 14 65 24
f 26 69 22
f 69 26 28
f 80 69 28
f 71 69 80
f 71 81 73
f 71 80 81
f 83 74 82
f 74 81 82
f 74 73 81
f 74 83 75
f 75 83 84
f 75 84 76
f 77 78 85
f 85 78 86
f 87 29 24
f 77 87 24
f 85 87 77
f 87 30 29
f 89 88 80
f 28 89 80
f 33 89 28
f 80 88 81
f 81 88 90
f 81 90 82
f 86 91 85
f 85 91 87
f 87 91 92
f 30 87 92
f 93 30 92
f 35 30 93
f 95 94 37
f 95 37 36
f 37 96 38
f 94 96 37
f 40 38 96
f 40 96 97
f 41 89 33
f 41 98 89
f 93 99 35
f 35 99 42
f 36 42 95
f 95 42 99
f 97 100 40
f 40 100 43
f 41 43 98
f 98 43 100
f 102 101 46
f 46 101 45
f 46 47 102
f 102 47 103
f 106 105 104
f 49 50 104
f 50 106 104
f 50 107 106
f 50 45 101
f 50 101 107
f 52 103 47
f 52 108 103
f 110 109 55
f 55 109 54
f 55 56 110
f 110 56 111
f 113 112 59
f 59 112 58
f 115 114 60
f 114 59 60
f 114 113 59
f 114 115 105
f 115 104 105
f 115 116 104
f 116 62 49
f 116 49 104
f 64 108 52
f 64 117 108
f 109 65 54
f 118 65 109
f 119 111 56
f 119 56 66
f 120 66 67
f 120 119 66
f 121 67 68
f 121 120 67
f 68 58 112
f 68 112 121
f 70 115 60
f 115 70 72
f 115 72 116
f 116 72 62
f 76 117 64
f 76 122 117
f 123 78 79
f 124 123 79
f 65 124 79
f 118 124 65
f 82 125 83
f 83 125 126
f 127 83 126
f 84 83 127
f 76 84 122
f 122 84 127
f 128 86 123
f 123 86 78
f 123 124 129
f 123 129 128
f 89 130 88
f 131 90 88
f 131 88 130
f 131 132 90
f 90 132 82
f 132 133 82
f 133 125 82
f 125 133 126
f 128 91 86
f 92 91 128
f 134 92 128
f 129 134 128
f 135 92 134
f 135 93 92
f 137 136 94
f 137 94 95
f 94 138 96
f 136 138 94
f 97 96 138
f 97 138 139
f 98 140 130
f 98 130 89
f 142 131 141
f 131 140 141
f 131 130 140
f 131 142 132
f 134 143 135
f 135 143 93
f 143 99 93
f 143 144 99
f 95 99 137
f 137 99 144
f 139 145 97
f 97 145 100
f 98 100 140
f 100 146 140
f 100 145 146
f 140 146 141
f 149 148 147
f 101 102 147
f 102 149 147
f 102 150 149
f 102 103 150
f 150 103 151
f 153 152 106
f 106 152 105
f 107 147 148
f 153 107 148
f 106 107 153
f 147 107 101
f 108 151 103
f 108 154 151
f 155 109 110
f 111 155 110
f 157 156 113
f 113 156 112
f 158 113 114
f 158 157 113
f 114 105 152
f 114 152 158
f 117 154 108
f 117 159 154
f 161 160 155
f 160 109 155
f 160 118 109
f 161 155 111
f 119 161 111
f 162 161 119
f 163 119 120
f 163 162 119
f 164 120 121
f 164 163 120
f 121 112 156
f 121 156 164
f 122 159 117
f 122 165 159
f 160 124 118
f 166 124 160
f 126 167 127
f 167 168 127
f 168 122 127
f 168 165 122
f 166 129 124
f 169 129 166
f 132 170 133
f 170 171 133
f 133 171 126
f 171 172 126
f 172 167 126
f 167 172 168
f 169 134 129
f 173 134 169
f 176 175 174
f 136 137 174
f 175 136 174
f 177 136 175
f 136 178 138
f 177 178 136
f 139 138 178
f 139 178 179
f 141 180 142
f 180 181 142
f 142 181 132
f 181 182 132
f 182 170 132
f 170 182 171
f 173 183 134
f 134 183 143
f 174 144 176
f 144 183 176
f 144 143 183
f 144 174 137
f 179 184 139
f 139 184 145
f 145 185 146
f 184 185 145
f 141 146 180
f 146 186 180
f 146 185 186
f 180 186 181
f 188 187 149
f 149 187 148
f 189 149 150
f 189 188 149
f 150 151 189
f 189 151 190
f 192 191 153
f 153 191 152
f 153 148 187
f 153 187 192
f 154 190 151
f 154 193 190
f 194 156 157
f 194 157 195
f 157 196 195
f 157 158 196
f 158 152 191
f 158 191 196
f 159 193 154
f 159 197 193
f 199 198 161
f 161 198 160
f 201 199 200
f 199 162 200
f 199 161 162
f 163 202 162
f 162 202 200
f 202 163 203
f 163 204 203
f 163 164 204
f 164 156 194
f 205 164 194
f 204 164 205
f 205 194 195
f 165 197 159
f 165 206 197
f 198 166 160
f 207 166 198
f 208 201 200
f 208 200 202
f 208 202 209
f 209 202 203
f 168 206 165
f 168 210 206
f 207 169 166
f 211 169 207
f 213 212 172
f 213 172 171
f 168 172 210
f 210 172 212
f 211 173 169
f 214 173 211
f 216 215 175
f 216 175 176
f 175 217 177
f 215 217 175
f 177 218 178
f 217 218 177
f 179 178 218
f 179 218 219
f 221 220 182
f 221 182 181
f 171 182 213
f 213 182 220
f 214 222 173
f 173 222 183
f 176 183 216
f 216 183 222
f 219 223 179
f 179 223 184
f 223 225 224
f 185 223 224
f 184 223 185
f 185 224 226
f 227 185 226
f 186 185 227
f 181 186 221
f 221 186 227
f 225 228 224
f 224 228 226
f 230 229 188
f 188 229 187
f 231 188 189
f 231 230 188
f 189 190 231
f 231 190 232
f 234 233 192
f 192 233 191
f 192 187 229
f 192 229 234
f 193 232 190
f 193 235 232
f 237 236 196
f 196 236 195
f 196 191 233
f 196 233 237
f 197 235 193
f 197 238 235
f 239 198 199
f 201 239 199
f 241 240 204
f 204 240 203
f 242 204 205
f 242 241 204
f 205 195 236
f 205 236 242
f 206 238 197
f 206 243 238
f 244 207 239
f 239 207 198
f 208 245 201
f 245 239 201
f 245 244 239
f 245 208 246
f 208 247 246
f 208 209 247
f 209 203 240
f 209 240 247
f 210 243 206
f 210 248 243
f 249 211 244
f 244 211 207
f 250 244 245
f 249 244 250
f 245 246 251
f 245 251 250
f 213 252 212
f 252 253 212
f 253 210 212
f 253 248 210
f 254 214 249
f 249 214 211
f 216 254 215
f 254 250 215
f 254 249 250
f 251 255 250
f 255 215 250
f 255 217 215
f 217 256 218
f 255 256 217
f 219 218 256
f 219 256 257
f 259 258 220
f 259 220 221
f 213 220 252
f 220 260 252
f 220 258 260
f 252 260 253
f 254 222 214
f 222 254 216
f 257 261 219
f 219 261 223
f 225 223 261
f 225 261 262
f 226 263 227
f 263 264 227
f 264 221 227
f 264 259 221
f 262 265 225
f 225 265 228
f 226 228 263
f 228 266 263
f 228 265 266
f 263 266 264
f 267 229 230
f 231 268 230
f 230 268 267
f 232 268 231
f 269 233 234
f 270 269 234
f 270 234 229
f 271 270 229
f 267 271 229
f 271 267 268
f 271 268 272
f 268 232 272
f 232 273 272
f 232 235 273
f 275 274 237
f 237 274 236
f 237 233 269
f 276 237 269
f 275 237 276
f 276 269 270
f 238 273 235
f 238 277 273
f 278 240 241
f 242 279 241
f 241 279 278
f 280 279 242
f 236 280 242
f 274 280 236
f 243 277 238
f 243 281 277
f 282 246 247
f 240 278 247
f 278 282 247
f 278 283 282
f 279 285 284
f 283 279 284
f 278 279 283
f 285 279 280
f 248 281 243
f 248 286 281
f 287 251 282
f 282 251 246
f 288 282 283
f 287 282 288
f 283 284 289
f 283 289 288
f 292 291 290
f 291 286 290
f 286 253 290
f 286 248 253
f 287 255 251
f 255 287 256
f 256 287 288
f 294 293 257
f 294 257 256
f 289 294 256
f 288 289 256
f 295 293 294
f 297 296 258
f 297 258 259
f 290 260 292
f 260 296 292
f 260 258 296
f 260 290 253
f 293 261 257
f 262 261 293
f 295 262 293
f 298 262 295
f 264 297 259
f 264 299 297
f 298 300 262
f 262 300 265
f 265 301 266
f 300 301 265
f 264 266 299
f 299 266 301
f 302 270 271
f 272 303 271
f 271 303 302
f 273 303 272
f 304 274 275
f 304 275 305
f 275 306 305
f 275 276 306
f 306 276 270
f 307 306 270
f 302 307 270
f 306 307 308
f 309 302 303
f 307 302 309
f 277 309 273
f 273 309 303
f 311 310 304
f 310 274 304
f 310 280 274
f 311 304 305
f 312 308 307
f 312 307 309
f 312 309 313
f 309 277 313
f 277 314 313
f 277 281 314
f 315 284 285
f 316 315 285
f 280 316 285
f 310 316 280
f 286 314 281
f 286 317 314
f 318 289 315
f 315 289 284
f 315 316 319
f 315 319 318
f 321 320 291
f 321 291 292
f 286 291 317
f 317 291 320
f 318 294 289
f 295 294 318
f 319 295 318
f 322 295 319
f 324 323 296
f 324 296 297
f 292 296 321
f 321 296 323
f 322 298 295
f 325 298 322
f 328 327 326
f 327 324 326
f 324 299 326
f 324 297 299
f 325 329 298
f 298 329 300
f 326 301 328
f 301 329 328
f 301 300 329
f 301 326 299
f 330 305 306
f 308 330 306
f 331 310 311
f 332 331 311
f 332 311 305
f 333 332 305
f 330 333 305
f 333 330 308
f 312 333 308
f 334 333 312
f 336 334 335
f 334 313 335
f 334 312 313
f 314 335 313
f 338 337 331
f 337 310 331
f 337 316 310
f 338 331 332
f 336 335 339
f 336 339 340
f 317 339 314
f 314 339 335
f 337 319 316
f 341 319 337
f 344 343 342
f 342 343 340
f 342 340 339
f 321 342 339
f 320 321 339
f 320 339 317
f 341 322 319
f 345 322 341
f 344 342 323
f 324 344 323
f 346 344 324
f 323 342 321
f 348 325 347
f 325 345 347
f 325 322 345
f 327 328 348
f 347 327 348
f 349 327 347
f 324 327 346
f 346 327 349
f 348 329 325
f 329 348 328
f 350 332 333
f 334 351 333
f 333 351 350
f 336 351 334
f 352 337 338
f 332 350 338
f 350 352 338
f 350 353 352
f 354 350 351
f 353 350 354
f 340 354 336
f 336 354 351
f 355 341 352
f 352 341 337
f 356 352 353
f 355 352 356
f 344 356 343
f 356 354 343
f 356 353 354
f 343 354 340
f 357 345 355
f 355 345 341
f 358 355 356
f 357 355 358
f 346 358 344
f 344 358 356
f 357 347 345
f 347 357 349
f 349 357 358
f 349 358 346
f 361 360 359
f 359 362 361
f 359 360 363
f 363 360 364
f 362 359 365
f 365 359 363
f 364 366 363
f 363 366 365
f 367 360 361
f 362 367 361
f 369 368 367
f 368 360 367
f 368 364 360
f 367 362 369
f 362 370 369
f 362 365 370
f 368 371 364
f 364 371 366
f 365 366 370
f 370 366 371
f 374 373 372
f 372 375 374
f 372 373 376
f 376 373 377
f 375 372 378
f 372 379 378
f 372 376 379
f 379 380 378
f 377 381 376
f 383 382 381
f 382 376 381
f 382 379 376
f 380 379 384
f 379 385 384
f 379 382 385
f 387 386 385
f 385 386 384
f 387 388 386
f 382 383 369
f 383 368 369
f 383 389 368
f 382 369 370
f 390 382 370
f 385 382 390
f 392 387 391
f 387 390 391
f 387 385 390
f 387 392 388
f 371 368 393
f 368 394 393
f 368 389 394
f 393 395 371
f 371 395 370
f 395 396 370
f 396 390 370
f 390 396 391
f 394 397 393
f 393 397 395
f 399 398 374
f 374 398 373
f 401 400 375
f 400 374 375
f 400 399 374
f 401 402 400
f 398 377 373
f 403 377 398
f 378 401 375
f 405 404 380
f 380 404 378
f 404 402 378
f 402 401 378
f 407 406 405
f 405 406 404
f 407 408 406
f 411 410 409
f 413 412 409
f 409 412 411
f 413 414 381
f 403 413 381
f 377 403 381
f 413 403 412
f 414 383 381
f 384 405 380
f 405 384 386
f 405 386 407
f 386 388 407
f 388 408 407
f 388 415 408
f 409 410 416
f 416 410 417
f 409 418 413
f 409 416 418
f 413 419 414
f 413 418 419
f 419 389 383
f 419 383 414
f 391 420 392
f 420 421 392
f 421 388 392
f 421 415 388
f 417 422 416
f 424 423 422
f 423 416 422
f 423 418 416
f 418 425 419
f 418 423 425
f 425 394 389
f 425 389 419
f 427 426 396
f 427 396 395
f 391 396 420
f 396 428 420
f 396 426 428
f 420 428 421
f 424 429 423
f 423 429 425
f 425 429 430
f 425 430 394
f 430 397 394
f 430 431 397
f 395 397 427
f 427 397 431
f 434 433 432
f 432 435 434
f 437 436 399
f 399 436 398
f 400 432 433
f 437 400 433
f 399 400 437
f 439 438 402
f 402 438 400
f 438 435 400
f 435 432 400
f 441 440 439
f 439 440 438
f 441 442 440
f 445 444 443
f 436 445 443
f 403 436 443
f 398 436 403
f 404 439 402
f 439 404 406
f 439 406 441
f 406 408 441
f 408 442 441
f 408 446 442
f 449 448 447
f 451 450 447
f 447 450 449
f 410 411 451
f 411 450 451
f 411 452 450
f 412 443 444
f 452 412 444
f 411 412 452
f 443 412 403
f 415 446 408
f 415 453 446
f 448 454 447
f 456 455 454
f 455 447 454
f 455 451 447
f 455 417 410
f 455 410 451
f 421 453 415
f 421 457 453
f 456 458 455
f 455 458 417
f 458 422 417
f 458 459 422
f 424 422 459
f 424 459 460
f 462 461 426
f 462 426 427
f 426 463 428
f 461 463 426
f 421 428 457
f 457 428 463
f 460 464 424
f 424 464 429
f 429 465 430
f 464 465 429
f 430 466 431
f 465 466 430
f 427 431 462
f 462 431 466
f 468 467 434
f 434 467 433
f 470 469 435
f 469 434 435
f 469 468 434
f 472 471 470
f 470 471 469
f 472 473 471
f 475 474 437
f 437 474 436
f 437 433 467
f 437 467 475
f 438 470 435
f 470 438 440
f 470 440 472
f 440 442 472
f 442 473 472
f 442 476 473
f 479 478 477
f 481 480 477
f 477 480 479
f 483 482 481
f 481 482 480
f 444 445 483
f 445 482 483
f 445 484 482
f 445 436 474
f 445 474 484
f 446 476 442
f 446 485 476
f 477 478 449
f 478 448 449
f 478 486 448
f 477 449 450
f 477 450 481
f 481 450 452
f 481 452 483
f 483 452 444
f 453 485 446
f 453 487 485
f 454 448 488
f 448 489 488
f 448 486 489
f 488 456 454
f 457 487 453
f 457 490 487
f 489 491 488
f 491 493 492
f 491 492 458
f 488 491 458
f 456 488 458
f 494 459 458
f 494 458 492
f 494 460 459
f 496 495 461
f 496 461 462
f 461 497 463
f 495 497 461
f 457 463 490
f 490 463 497
f 493 498 492
f 492 498 494
f 494 498 499
f 494 499 460
f 499 464 460
f 499 500 464
f 464 501 465
f 500 501 464
f 465 502 466
f 501 502 465
f 462 466 496
f 496 466 502
f 504 503 468
f 468 503 467
f 505 468 469
f 505 504 468
f 506 469 471
f 506 505 469
f 471 473 506
f 506 473 507
f 509 508 475
f 475 508 474
f 475 467 503
f 475 503 509
f 476 507 473
f 476 510 507
f 511 478 479
f 511 479 512
f 479 513 512
f 479 480 513
f 514 480 482
f 514 513 480
f 515 482 484
f 515 514 482
f 484 474 508
f 484 508 515
f 485 510 476
f 485 516 510
f 519 518 517
f 520 519 511
f 519 486 511
f 486 478 511
f 519 517 486
f 520 511 512
f 487 516 485
f 487 521 516
f 517 518 522
f 522 518 523
f 522 489 486
f 522 486 517
f 490 521 487
f 490 524 521
f 523 525 522
f 522 525 489
f 525 491 489
f 525 526 491
f 493 491 526
f 493 526 527
f 529 528 495
f 529 495 496
f 495 530 497
f 528 530 495
f 490 497 524
f 524 497 530
f 527 531 493
f 493 531 498
f 498 532 499
f 531 532 498
f 499 533 500
f 532 533 499
f 533 535 534
f 501 533 534
f 500 533 501
f 501 534 536
f 537 501 536
f 502 501 537
f 496 502 529
f 529 502 537
f 535 538 534
f 534 538 536
f 539 503 504
f 505 540 504
f 504 540 539
f 540 505 541
f 505 542 541
f 505 506 542
f 506 507 542
f 542 507 543
f 545 544 509
f 509 544 508
f 509 503 539
f 546 509 539
f 545 509 546
f 546 539 540
f 546 540 547
f 547 540 541
f 510 543 507
f 510 548 543
f 550 549 513
f 513 549 512
f 551 513 514
f 551 550 513
f 552 514 515
f 552 551 514
f 515 508 544
f 515 544 552
f 516 548 510
f 516 553 548
f 555 554 519
f 519 554 518
f 556 519 520
f 556 555 519
f 520 512 549
f 520 549 556
f 521 553 516
f 521 557 553
f 554 523 518
f 558 523 554
f 561 560 559
f 563 562 559
f 563 559 560
f 563 557 562
f 557 524 562
f 557 521 524
f 558 564 523
f 523 564 525
f 564 566 565
f 526 564 565
f 525 564 526
f 565 527 526
f 561 559 528
f 529 561 528
f 567 561 529
f 528 559 530
f 530 559 562
f 530 562 524
f 566 568 565
f 565 568 527
f 568 531 527
f 568 569 531
f 531 570 532
f 569 570 531
f 532 571 533
f 570 571 532
f 535 533 571
f 535 571 572
f 574 573 537
f 574 537 536
f 529 537 567
f 567 537 573
f 572 575 535
f 535 575 538
f 536 538 574
f 574 538 575
f 577 576 542
f 542 576 541
f 542 543 577
f 577 543 578
f 580 579 545
f 545 579 544
f 581 545 546
f 581 580 545
f 582 546 547
f 582 581 546
f 547 541 576
f 547 576 582
f 548 578 543
f 548 583 578
f 585 584 550
f 550 584 549
f 586 550 551
f 586 585 550
f 587 551 552
f 587 586 551
f 552 544 579
f 552 579 587
f 553 583 548
f 553 588 583
f 590 589 555
f 555 589 554
f 591 555 556
f 591 590 555
f 556 549 584
f 556 584 591
f 594 593 592
f 596 595 592
f 596 592 593
f 596 588 595
f 588 557 595
f 588 553 557
f 589 558 554
f 597 558 589
f 594 592 560
f 561 594 560
f 598 594 561
f 560 592 563
f 563 592 595
f 563 595 557
f 597 599 558
f 558 599 564
f 601 600 566
f 564 601 566
f 599 601 564
f 603 602 600
f 603 600 601
f 604 602 603
f 567 598 561
f 567 605 598
f 600 568 566
f 568 600 569
f 569 600 602
f 604 606 602
f 606 569 602
f 606 570 569
f 570 607 571
f 606 607 570
f 572 571 607
f 572 607 608
f 610 609 573
f 610 573 574
f 567 573 605
f 605 573 609
f 608 611 572
f 572 611 575
f 574 575 610
f 610 575 611
f 612 576 577
f 578 612 577
f 613 579 580
f 581 614 580
f 580 614 613
f 614 581 615
f 581 616 615
f 581 582 616
f 616 582 576
f 617 616 576
f 612 617 576
f 616 617 618
f 583 617 578
f 578 617 612
f 619 584 585
f 619 585 620
f 585 621 620
f 585 586 621
f 622 586 587
f 622 621 586
f 622 587 579
f 623 622 579
f 613 623 579
f 622 623 624
f 614 626 625
f 623 614 625
f 613 614 623
f 626 614 615
f 618 617 627
f 618 627 628
f 588 627 583
f 583 627 617
f 630 629 590
f 590 629 589
f 631 590 591
f 631 630 590
f 631 591 584
f 632 631 584
f 619 632 584
f 631 632 633
f 619 620 634
f 619 634 632
f 635 624 623
f 638 637 636
f 625 635 623
f 593 594 637
f 638 593 637
f 639 593 638
f 627 596 628
f 596 639 628
f 596 593 639
f 596 627 588
f 629 597 589
f 640 597 629
f 633 632 641
f 633 641 642
f 632 634 643
f 632 643 641
f 636 637 644
f 636 644 645
f 598 644 594
f 594 644 637
f 640 646 597
f 597 646 599
f 599 647 601
f 646 647 599
f 641 603 642
f 603 647 642
f 603 601 647
f 604 603 641
f 643 604 641
f 648 604 643
f 645 644 649
f 645 649 650
f 605 649 598
f 598 649 644
f 648 651 604
f 604 651 606
f 606 652 607
f 651 652 606
f 608 607 652
f 608 652 653
f 650 649 609
f 610 650 609
f 654 650 610
f 609 649 605
f 653 655 608
f 608 655 611
f 610 611 654
f 654 611 655
f 656 615 616
f 618 656 616
f 657 620 621
f 622 658 621
f 621 658 657
f 624 658 622
f 659 625 626
f 615 656 626
f 656 659 626
f 656 660 659
f 628 660 618
f 618 660 656
f 661 629 630
f 631 662 630
f 630 662 661
f 633 662 631
f 663 634 657
f 657 634 620
f 664 657 658
f 663 657 664
f 635 665 624
f 665 658 624
f 665 664 658
f 635 625 665
f 625 659 665
f 638 636 665
f 638 665 659
f 638 659 639
f 639 659 660
f 639 660 628
f 666 640 661
f 661 640 629
f 667 661 662
f 666 661 667
f 642 667 633
f 633 667 662
f 668 643 663
f 663 643 634
f 669 663 664
f 668 663 669
f 670 664 665
f 669 664 670
f 645 670 636
f 636 670 665
f 666 646 640
f 646 666 647
f 647 666 667
f 647 667 642
f 671 648 668
f 668 648 643
f 672 668 669
f 671 668 672
f 673 669 670
f 672 669 673
f 650 673 645
f 645 673 670
f 671 651 648
f 651 671 652
f 652 671 672
f 652 672 653
f 672 674 653
f 672 673 674
f 654 674 650
f 650 674 673
f 674 655 653
f 655 674 654

