# https://github.com/mikedh/trimesh
v 8981.15433642 -15423.77148233 6410.99696504
v 8891.37860230 -15449.41816369 5341.12505701
v 8874.74401524 -16277.47955057 5756.37897161
v 8725.41355541 -16299.33202745 6884.83093188
v 8767.49156811 -15277.20262041 7360.86209050
v 8426.90633373 -15789.32007733 8015.60268082
v 8914.31009807 -14737.12004197 6029.04642427
v 8688.63062581 -14545.04197518 5268.50486342
v 8730.98754576 -14486.24424654 6940.73324274
v 8124.33615871 -14339.48777400 8324.10371597
v 8524.68889546 -13882.70472602 6086.22024764
v 8116.07068410 -13343.27247669 7194.68185511
v 7281.89448648 -20250.02731526 2143.04930566
v 7049.04890575 -20109.25554944 1270.07056287
v 6567.40737815 -20744.44400124 1807.84453709
v 6730.62583453 -20963.42221331 2973.13150796
v 7425.55129459 -20257.98448179 3462.46842096
v 6824.41992492 -20986.99187223 4241.12748552
v 7302.41720505 -20274.21842621 4961.33583774
v 6774.29389849 -20919.23804827 5242.73684387
v 7506.65362273 -19441.51750707 1511.29884900
v 7105.71131317 -19197.29139233 734.55544530
v 7913.49603151 -19032.68301998 2555.09729456
v 7929.59434248 -19126.71663763 4370.07828957
v 6720.91099230 -20366.23104949 6249.80047495
v 7558.84071105 -19100.84496887 6396.77023005
v 6808.30935639 -19628.16741511 7400.25767723
v 6428.01204511 -17398.21165305 -2494.98838739
v 6323.20275948 -17024.87658427 -2547.88463138
v 6130.02543998 -17512.98727269 -2359.71908214
v 6374.34158240 -17575.02397354 -2077.95806057
v 7791.11734371 -18040.94091680 1504.79398415
v 7158.91313405 -17843.50089020 213.14314515
v 8138.64403107 -18276.56710740 2131.31481366
v 8250.77641727 -18254.07701575 2543.62138748
v 8328.80824098 -17930.85580854 3510.97782557
v 8312.25381689 -17806.96402814 2594.97919564
v 8410.90374784 -17563.93825650 5618.98956317
v 7074.06997202 -18725.91470073 8192.24165482
v 7940.31352593 -17269.34569413 7964.58330314
v 7052.45703166 -17729.59616261 9399.18221604
v 7467.82643239 -16782.16439067 9575.19493608
v 6912.60997768 -16950.19535049 10343.01801963
v 6524.29096543 -17164.11541405 -2230.33237798
v 7538.70218615 -17114.01318060 789.90547804
v 7769.16494991 -16349.41849992 1569.49901677
v 8252.28441856 -16893.97107414 2769.24326693
v 8200.12143068 -17829.45411979 2182.67262181
v 8640.97204993 -16564.07827144 4491.16301759
v 7786.65043648 -15619.65808132 9271.25456951
v 7085.64782382 -15992.97456817 10477.65104271
v 8028.74901936 -15421.96724688 2676.47772749
v 8443.24612206 -15221.19629251 4075.91096331
v 7929.30076519 -14290.28592521 3333.15447344
v 7634.95260520 -14462.98871839 9489.68311318
v 6898.15567869 -14497.88032744 10499.12902549
v 8065.67782124 -13602.32088174 4780.76763304
v 7855.08001425 -12787.91596977 6149.91994891
v 7545.96375296 -12368.39436221 7099.65752350
v 7223.71345637 -11884.36649635 6421.38869443
v 7156.28295753 -12384.66821420 8280.35586611
v 7219.25725540 -13426.79025021 9521.64055988
v 6930.49113553 -11639.98610893 7212.38149068
v 6438.61194677 -20125.79102897 857.89268978
v 5750.36261002 -20737.25678363 1584.86305350
v 5869.08964788 -21123.83291185 2720.25759603
v 6039.70918632 -21243.70809752 3971.98672686
v 6235.50046085 -21155.08919295 5096.98050955
v 6425.42190411 -20955.59692515 5726.17282615
v 5771.03607819 -20700.37116889 6273.95864051
v 6339.43581451 -18947.06763987 -140.09828505
v 5953.30282811 -19960.48604767 7666.90049469
v 6410.35962180 -19381.44627215 8341.21325374
v 5826.55231738 -19383.91685052 8788.55970287
v 5951.07019314 -17047.29910956 -2564.10749561
v 5548.54319633 -17365.67579152 -2086.05823048
v 5778.89401264 -18121.80224447 -1287.17722322
v 6633.35146051 -17270.87062381 -1155.44018345
v 8269.63931292 -18058.40985163 2290.57010070
v 6200.97694844 -18619.41511129 9363.42139789
v 6223.61788722 -17468.27477442 10457.85119637
v 6313.34538002 -16366.65956078 11249.15939502
v 5395.66230644 -16629.94946847 11357.48883597
v 6432.38969288 -16229.13175057 -1964.74282104
v 6016.99005226 -16377.77981490 -2496.19539132
v 6752.52545960 -15678.19973554 -872.71981398
v 7224.42754543 -16155.08330307 279.30927872
v 6534.48849399 -15443.40979696 11254.94224110
v 5736.39781013 -16100.94918565 11920.89982169
v 5875.35951901 -15507.33504239 11874.69027871
v 5592.67474218 -15786.54490453 12168.04548009
v 6014.44012005 -15420.26871995 -2096.73462302
v 6302.31224353 -14434.56478758 -1146.96332346
v 5511.47457122 -14289.38352640 -1706.51428744
v 6872.14707665 -14298.40078380 261.66623064
v 7473.36667753 -14537.19042147 1847.60365871
v 6110.03613324 -14693.32194370 11465.78664074
v 5197.79620667 -14467.64296902 11756.83349603
v 5303.72187689 -15430.27277075 12066.59887887
v 5811.45667998 -12689.30121040 -901.92318076
v 5171.81827929 -12582.24404702 -1268.54634237
v 6342.17880020 -12598.49866104 195.20085506
v 6805.83465730 -12647.83349334 1759.05546955
v 7339.70824573 -12933.61114730 3383.40985738
v 7098.58650291 -11903.53163973 5121.02187743
v 6558.23409873 -12243.76516388 9584.75358407
v 6313.29630128 -12858.88884303 10416.42905094
v 5750.53650910 -13538.44269982 11190.39879716
v 5457.50427594 -11578.13683037 -815.14802520
v 4976.55372404 -11320.71884404 -899.73770381
v 5750.84356188 -11018.46488549 97.93805720
v 6126.50819649 -10966.50010306 1557.98207559
v 6357.47455845 -11032.00655380 3490.44118266
v 6128.59028825 -10566.22824345 5131.73042358
v 6387.33992588 -10938.63814309 6337.57368898
v 6056.49167312 -10842.87518653 7686.82706657
v 5990.19619586 -11253.58715618 9085.56239673
v 5082.99643529 -10198.43241479 8541.41827824
v 5752.23921538 -11651.27536508 10149.41183921
v 5289.99066953 -10686.46058837 -426.37805033
v 5191.35319761 -9704.73895297 410.71835941
v 5547.17309173 -9651.84981469 1267.97837242
v 5227.87123440 -9021.49005513 1122.68847538
v 5572.17813937 -9531.59127883 2702.22710537
v 5155.36635076 -9356.94736673 4717.95160852
v 5067.13102375 -10717.19421363 9753.33635447
v 5016.25180967 -8521.70211564 1950.96691768
v 4951.98952468 -8520.72504764 3215.64505805
v 5621.70775966 -20024.34348364 653.54397157
v 5049.05166131 -20430.61231505 1479.28907370
v 4993.93532992 -20788.06734384 2525.18142536
v 5092.07937782 -20998.60358121 3853.05114309
v 5355.83568080 -21002.34521117 5130.47336839
v 4763.58796816 -20406.18277751 6269.89125176
v 5441.85727709 -19221.15944070 -113.79336702
v 4802.63323820 -19683.40098831 817.95777994
v 4888.83977765 -19908.15926914 7505.69817293
v 5151.71327729 -19420.43409225 8702.59277952
v 5414.60007728 -18930.40302014 9443.39147341
v 4783.86969588 -18700.53801117 9523.04016162
v 5511.20528295 -16536.83896633 -2351.34198887
v 4990.89839879 -16783.04386110 -1808.65708751
v 4849.79296394 -17597.39940332 -1136.63109902
v 4753.84360047 -18637.80850441 -131.81561781
v 5212.96609753 -17943.71024736 10264.72189895
v 4446.33852652 -16800.68058774 10838.53412697
v 5606.33555607 -15670.82491382 -2270.57942001
v 4898.99764805 -15515.89362490 -1760.06874866
v 5311.40509654 -15905.06912727 12010.55929510
v 4425.67074576 -15306.93416188 11556.67605970
v 4619.65407053 -13724.64516571 -1337.06833614
v 4376.12456354 -14030.84788062 11657.80510228
v 4483.98802083 -12143.12834677 -994.52939735
v 5321.28644239 -12174.63630040 10865.28419211
v 4425.54712772 -12783.11045037 11291.99383708
v 4469.27211143 -11041.49883878 -658.83631034
v 4787.23923643 -10309.51050191 -296.80333827
v 4191.71242563 -10343.35351775 -40.00076888
v 5572.01642980 -10107.96045111 6694.70666322
v 5591.52549897 -9978.95139119 5876.45215495
v 5107.69964528 -9810.44515068 7291.15543828
v 5125.45542674 -9632.75266597 6538.71654751
v 5032.51215417 -11244.83320933 10507.39696722
v 4539.68195345 -11499.48544858 10821.85520863
v 4431.49375676 -9316.51482136 664.93310220
v 4917.52588876 -8822.36057762 1066.87395000
v 5139.20807255 -9526.98559948 5971.37818544
v 4699.05639711 -9279.06275427 6343.58501262
v 4196.25636334 -9293.64314757 7684.54577787
v 4014.56250186 -9904.00110977 9281.80719548
v 3671.29903530 -9190.63610733 8462.64999625
v 4431.28005117 -10760.87640045 10291.50367132
v 4516.05872004 -8311.51309092 1520.45295634
v 4520.01143168 -7838.70201864 2121.94747819
v 4208.87786434 -7853.75421072 2019.99366891
v 4547.53039931 -7871.19933754 2781.05484897
v 4338.14860258 -8196.49020979 3863.00183070
v 3608.88452657 -8680.49331111 5660.48671172
v 3240.63635026 -8942.79775768 7748.02329051
v 4250.11907142 -7632.55077820 2484.10094449
v 4121.07904927 -7740.03081687 3059.10790495
v 4310.65048755 -19992.88132990 2109.03673157
v 4164.60625656 -20247.79828258 3628.26028496
v 4340.10268310 -20375.80290659 5176.88177355
v 3955.47760152 -18854.47129881 1264.21054118
v 3321.60984058 -18946.73982471 3072.14377270
v 3353.38278620 -19340.45162256 4956.96733329
v 3674.23905392 -19234.82040836 6946.04276464
v 4234.70860602 -18893.02068169 8669.54653726
v 4257.04548301 -16446.63344286 -928.61465733
v 3947.67844246 -17592.35725481 147.58446547
v 3018.28027864 -17493.67324304 1778.16247867
v 2501.60548416 -17684.51460361 3196.88169846
v 2484.68420751 -18120.19342605 4500.51099149
v 2581.58772653 -18308.44041211 6103.43250604
v 2614.03279794 -17993.22665379 7418.32535683
v 1991.79300515 -16946.06690852 7974.37684695
v 3107.18248931 -17664.86187922 8745.47640099
v 4120.09663239 -17757.14380510 9872.71238352
v 3925.77991859 -14789.56788104 -760.05192981
v 3214.14272178 -15918.18461563 474.71222006
v 2434.71203716 -16103.83043353 1801.40539728
v 2229.78852636 -16740.30275475 2681.05859269
v 2238.84375939 -16305.83647762 9163.51548990
v 1105.52368009 -15666.16206988 8459.90803880
v 3192.46964938 -16026.31732325 10328.76666739
v 3798.63340206 -12991.71011711 -555.39849475
v 3027.18934838 -13895.88266508 347.13653581
v 2296.15364983 -14691.51865456 1493.30346159
v 1907.69642907 -15114.87358756 9771.91721241
v 941.86631025 -14197.58352253 9504.67695148
v 2354.58717407 -14411.24864185 10521.43435719
v 3190.24653207 -14604.94988337 11080.58125249
v 3529.78359245 -13624.20160520 11360.20997578
v 3879.86674456 -11388.10199852 -256.92874921
v 3054.66609261 -12012.25697378 542.53806675
v 2160.34507118 -12868.28224100 1521.31677672
v 1703.43171633 -14150.44736859 10097.90212836
v 2436.79408678 -11732.46597297 10466.64382775
v 3272.33478802 -12339.10548301 11032.75309337
v 2662.31683926 -12823.77680402 10932.99886156
v 3411.38775585 -10045.90660729 1061.28208165
v 2284.27711633 -11036.23686759 1843.45216363
v 5311.05962844 -9758.98879141 6285.45386813
v 3529.84622076 -11072.74139954 10448.12712860
v 2416.25670582 -10610.85676337 9926.29224843
v 3921.85812726 -8539.22165132 1663.51764730
v 2559.08884429 -9705.49140542 2319.75087585
v 3188.11755964 -8724.67924990 2616.83595346
v 2368.82937242 -9141.09968981 3292.13027999
v 3256.07022421 -9268.74212120 8779.80458052
v 2932.32765881 -9863.72837648 9456.05843406
v 3868.28263802 -7911.42274083 2545.64496853
v 2777.97703858 -8622.85870800 4174.75984704
v 3631.88449437 -8128.09576111 3645.79506081
v 2268.05558544 -8795.43615979 5491.22595409
v 2289.27475095 -8953.87039140 6992.30451129
v 2480.29850627 -9282.49431517 8470.76859435
v 1783.42978318 -16699.30964572 3904.85156206
v 1760.01533793 -17183.87093311 5517.66715673
v 1966.62502620 -17421.52107381 6818.94675470
v 1694.33097376 -15425.12634834 2774.11262752
v 1228.31762372 -15558.71705146 3749.41079767
v 914.42047159 -15836.44178550 4773.89671496
v 1087.07964084 -16392.80407025 6652.28156546
v 1527.69565017 -13802.97820347 2409.25727967
v 644.77926361 -14205.92853115 3503.74389590
v 32.70594737 -14992.65377296 4356.88728344
v 15.65700831 -15737.55433229 5489.89613882
v -32.31798059 -15834.02999052 7056.80456710
v -360.71350459 -14900.27722317 8561.01729780
v 2638.84928171 -13666.58326450 10949.66460100
v 1004.43156995 -11849.48671272 2958.34050872
v -622.90428289 -12237.62688739 3350.49916009
v -478.46729746 -14058.14449265 3681.65395305
v 1682.85378953 -13018.92290228 10270.60535725
v -344.90641926 -12556.01867070 9462.14286003
v 1730.21849638 -10073.52010124 3153.67517194
v -103.13303852 -10901.49185159 3810.27607772
v 583.08643450 -10037.76169307 4378.75234440
v -540.64306021 -10065.67865962 4498.42504300
v 1321.89111747 -11066.72523638 9545.15786017
v -8.45442873 -10652.29169939 8796.67386883
v 1762.91026728 -9200.75748884 4421.22259479
v -676.24191115 -9514.64118405 5753.74071334
v 998.32894618 -9292.27782849 6128.85385709
v 1231.69188374 -9710.14010755 8156.24009141
v -365.27362583 -9767.02191118 7539.79252888
v 2046.65989727 -9958.92703067 9198.56510821
v -1872.98762580 -17129.11583851 4828.98179258
v -2233.40019205 -16944.29180691 3517.43608044
v -2505.62593830 -17976.17631645 4073.94262933
v -2421.74043376 -18134.78563264 5330.43040962
v -1724.79681447 -17088.18523990 6185.11746484
v -2316.73216785 -17799.94448042 6654.24912860
v -1561.40941716 -16216.58330811 4267.17451283
v -1905.77165483 -15571.53799572 3144.18367629
v -1004.48176403 -16198.09580437 5635.69519423
v -1855.23495035 -16904.57081412 7345.13137157
v -1085.35513700 -16139.43735079 7237.64244155
v -1667.48141390 -15863.41496463 8436.45106203
v -909.63341471 -15208.14633803 4227.92694032
v -1537.60417824 -13811.55654793 2952.35164920
v -1508.69055209 -14189.04632092 9415.62717827
v -1844.09016177 -12113.16749363 2688.61340655
v -1632.80437763 -12886.03007650 9833.38142367
v -1672.41385689 -11974.73097363 9732.67529643
v -2236.77561656 -12422.67021622 10123.53407079
v -917.37092014 -10646.22265373 3925.84681203
v -1753.16999159 -10762.39087924 3371.44097281
v -2341.23007934 -11659.29407971 9965.29547083
v -1811.88654367 -10731.82202499 8992.83355240
v -1584.67792907 -9657.46218571 4600.01014285
v -1926.94917392 -9120.06140167 5809.80253933
v -1861.25116340 -9452.89311092 7124.21916894
v -4782.46015743 -21759.48999681 3398.09804466
v -4877.92942967 -21539.45123331 2430.32076885
v -5257.64217138 -22117.79550058 2677.25964234
v -5449.27291474 -22293.69245381 3365.27398026
v -4192.10333079 -20716.46616745 3002.98496984
v -4704.98251031 -20536.39606472 1565.38681782
v -5129.22825227 -21890.16858207 4494.46926615
v -4152.57410813 -20811.82726308 4818.13747304
v -4902.72565881 -21408.31993523 5941.79247775
v -4148.42598072 -20411.44707801 6816.98458809
v -4893.15930942 -21024.29790167 7252.37734048
v -4563.87911912 -20215.57810487 8336.60241716
v -5417.88286673 -20871.62656128 8182.82727485
v -3786.54683232 -19406.54243598 2199.26113977
v -4250.74209864 -19290.05325111 1029.86694071
v -3252.12830938 -19282.22769105 4030.67713536
v -3165.17654675 -19098.39830662 6275.52070988
v -3685.42075222 -19055.56645205 8212.87084583
v -5226.29651666 -20100.44632034 9422.90943519
v -4473.91123523 -19038.68538878 9825.24141642
v -5192.68025976 -19486.85337613 10404.40518749
v -3671.24224882 -17891.23984566 1217.00325650
v -4282.55364812 -17221.96867117 -41.42401184
v -4408.41403285 -18528.65544544 304.90745786
v -2988.87793596 -18068.72895959 2810.68675823
v -2656.47581723 -17450.94635685 8084.61702757
v -3570.50383979 -17494.24556627 9706.55372479
v -5185.79397526 -18658.77453030 11081.53129559
v -4438.64392108 -17557.85935193 10989.40624659
v -5171.27821423 -17500.15894965 11753.69336714
v -3501.74357751 -15818.70191805 692.77053148
v -4265.73517230 -15901.76152697 -394.98978951
v -2774.36050901 -16527.21170438 2154.05212675
v -2698.98078391 -15535.24183315 9728.40294264
v -3866.23745442 -15970.81575263 10944.12000346
v -4776.62662069 -16323.70584208 11869.11914783
v -4029.28547320 -14375.95510460 -178.96832496
v -4954.09907422 -14269.48988826 -995.01823730
v -4735.30924959 -15411.08842526 -899.51613859
v -3180.19878331 -14082.47145023 899.68381633
v -2547.91477754 -14776.47144708 1888.54988733
v -2428.84831598 -13555.53727582 10164.35323006
v -3444.57998437 -14181.60209029 10866.56386946
v -4564.98904020 -14657.70831463 11792.32807457
v -4357.64352188 -12791.33209837 -334.31629892
v -5225.21960743 -13009.97703414 -928.66438025
v -3449.61514314 -12665.39259110 718.42261603
v -2540.99051939 -13024.95712165 1817.16039675
v -3139.80196866 -12378.36225965 10586.84774913
v -4115.14604969 -13228.40834967 11311.75510385
v -4720.14885105 -11820.33461054 -352.79001952
v -3981.29847549 -11115.08329608 629.34211358
v -4758.33150296 -10791.63064003 154.93691493
v -2839.87045199 -11117.56669615 2077.97142544
v -2857.46203521 -11246.54085048 10020.60052363
v -3559.44665610 -11373.36805631 10440.57861077
v -4187.46102147 -12061.05927702 10981.70862559
v -4300.10012581 -9962.02728589 916.87727756
v -4830.15072002 -9859.41823078 825.23391712
v -3727.14065994 -9559.75089345 2044.20802131
v -2778.84017268 -9394.90031469 3635.86846185
v -2529.10928155 -8898.70308021 5069.08382911
v -2970.65575236 -8753.54255669 6264.18610180
v -3373.34674644 -9631.78175650 8032.28989421
v -3430.24469684 -10661.65420549 9655.21851115
v -4165.47178688 -11147.49257003 10377.58381607
v -4379.15434270 -9287.97258361 1518.98341090
v -4295.76224541 -8730.59112982 2533.14538847
v -3725.84828299 -8510.74869479 3468.00117323
v -4267.46644947 -8226.87462074 3563.73272100
v -3394.17492260 -8355.96443489 4833.84051288
v -3764.39345280 -8270.10782731 5797.16591304
v -3893.49647144 -8741.55189375 6733.47459063
v -3974.29600417 -8037.27136824 4287.28554260
v -4024.67210013 -8043.56295448 5067.82687117
v -5714.56243660 -21593.52285645 1939.65371391
v -5662.39943000 -22323.08320899 2666.07385574
v -5963.77839107 -22319.51544992 3124.72250149
v -5516.11827515 -20548.56485089 673.31500530
v -6060.07198860 -20226.08464200 187.04331842
v -6154.53453576 -20804.70781672 881.98477028
v -6070.29805958 -22074.05233584 4216.90696687
v -5680.76498603 -21856.51485041 5442.26469983
v -5750.09698848 -21452.32739012 6828.89965900
v -6196.00762861 -21083.18547235 7903.48662964
v -5634.20903804 -19569.05921614 -179.46881725
v -5985.07090976 -18494.51630899 -730.26507624
v -6252.44348737 -19480.00474966 -264.10193920
v -4907.13050526 -19578.96151365 366.72564468
v -6136.53495623 -20503.18114235 8991.29208296
v -5920.82280107 -19742.97705862 10273.56710179
v -5481.28000840 -19345.30961545 10843.69721966
v -5842.72076231 -19064.84621881 11083.50133944
v -5097.56003523 -18287.18374450 -457.63507484
v -5615.76695060 -17362.10994261 -1052.15517526
v -6131.45882408 -17976.42468570 11703.24818668
v -5590.81669884 -16675.44862327 12302.49509577
v -6294.04886367 -16806.43602864 12343.79882356
v -4921.68763232 -16701.99695367 -845.17615021
v -5586.94864446 -15866.09344167 -1266.33174740
v -5318.34227671 -15448.32434500 12436.96681286
v -6031.87030531 -15770.12888833 12537.84420967
v -5853.51337241 -14400.67404560 -1329.60528934
v -5319.55436922 -14447.30905353 12354.03185275
v -5758.59733589 -14876.32025456 12567.75294791
v -6063.72024112 -13270.09578444 -1013.01271309
v -7146.18976325 -11905.33971853 5706.05109537
v -7349.53190156 -12304.74484426 5283.28317477
v -7019.73275845 -11735.34668662 5480.69798112
v -7333.33685929 -12075.10565970 6131.49042889
v -5703.44012771 -14246.59945941 12361.20978696
v -5282.84668205 -13255.66040233 11618.17104280
v -5427.61843866 -11936.29833800 -487.53684089
v -5443.11138630 -10856.92649164 281.21602583
v -7022.10932906 -11674.30832362 5838.11308194
v -4757.20039683 -10651.85878485 9453.82489979
v -5782.89634098 -11176.24116047 9570.92785203
v -5794.91473029 -10654.42309094 8510.78937473
v -4835.48940685 -11674.42936018 10717.25353919
v -5698.54021968 -11883.21232810 10432.37459092
v -5325.93667669 -9967.17661339 1081.80691693
v -4868.40780023 -9220.82114113 1775.65715502
v -4895.74054120 -8761.97279364 3193.57299646
v -5507.67776704 -9738.39625394 2087.89831904
v -5123.89760481 -8851.93004750 4708.10863808
v -5691.57173262 -9671.25575427 3563.83811673
v -5244.47159054 -9203.68768425 6037.80421008
v -5859.42347528 -9855.18967666 5201.33772159
v -4794.45336669 -9486.01919079 7421.93818285
v -5862.30511056 -10141.93023733 6867.43471549
v -4469.29437536 -8185.18505867 4441.86729313
v -4488.68011125 -8484.97249862 5790.39589406
v -5997.00060972 -22186.90556033 2624.86030256
v -6699.43042854 -19920.41356653 487.01788673
v -6721.26431777 -20848.76085005 1699.52273680
v -6610.13818971 -21664.09531537 3081.58591190
v -6950.90317955 -21594.98853642 4508.11040910
v -6626.28631473 -21587.05856696 5751.63627738
v -6649.08508568 -21248.03275204 7103.63501667
v -7482.48346482 -20775.66477953 6716.97624328
v -6778.00102271 -18480.67595638 -364.84195853
v -7280.14351901 -18861.22191162 569.08150508
v -7404.12067381 -19678.45774117 1553.77441433
v -7008.34017969 -20641.32760597 8105.66412035
v -7090.05555409 -19804.83357090 9556.18508061
v -6661.99559776 -19084.38686384 10793.13285685
v -7378.09073303 -19129.16115603 10370.25239415
v -6400.45470133 -17145.66285259 -1119.50936261
v -7046.80435667 -17225.01764259 -741.29779941
v -7301.51542110 -16226.96385349 -591.66860559
v -7447.90094161 -17407.04810644 226.91933372
v -7798.75323774 -18232.17822166 1510.20118216
v -7522.34452630 -18152.42962790 10960.66491318
v -6903.88092281 -17231.24512853 11941.44082275
v -7632.54850268 -16768.51584071 11559.01302421
v -6473.10066883 -15644.89954144 -1385.87386385
v -7553.63933575 -15653.95416096 461.95559653
v -7267.71740968 -14891.82416296 -435.69886259
v -7910.10280746 -16577.18163391 1553.87766274
v -6826.88977202 -16143.08191937 12215.61962209
v -7530.17825057 -15510.62239759 11625.24577993
v -6598.94760057 -14467.51712923 -1298.36857317
v -7185.36468492 -13671.88871098 862.39162979
v -6979.30438733 -13810.63540603 -450.48878626
v -7774.27064604 -14928.27719795 1795.17766072
v -6418.08844940 -14635.61501097 12088.36345790
v -7394.93725078 -14361.35145517 11240.72820440
v -6677.55090693 -13663.13706157 -923.97880362
v -6334.42502275 -12437.86461146 -67.00836102
v -6572.48080661 -11929.36602124 1290.13761889
v -7534.29451505 -13640.91357343 2409.90202910
v -6968.23402848 -12215.74324087 2729.53135779
v -7013.08575170 -11850.96015174 4563.25135121
v -7607.08110668 -13147.96763076 3977.91283220
v -8044.73326392 -13368.07060723 5794.41146926
v -7795.77908882 -12593.78520116 6955.74243351
v -6734.45164573 -11987.09433759 9415.36287599
v -7827.78357373 -12852.71614614 8784.76346021
v -7306.30050100 -12004.16042702 8284.51856447
v -6601.93980638 -13216.57164702 10972.08823330
v -7803.14899866 -13632.65749392 10093.65011008
v -5931.56011144 -10850.99950745 1057.49333985
v -6214.53133499 -10781.73608789 2385.96271533
v -6426.31005704 -10839.86773910 4037.61969502
v -6717.69922921 -11175.59296663 5927.93299052
v -7289.85165401 -11858.35771686 7207.25754849
v -6647.95208048 -11212.56656797 7775.26074354
v -7503.38726412 -20429.97733201 2820.84960106
v -7615.25518368 -20829.13880963 4226.43380882
v -7507.58366521 -21032.97305895 5394.29775221
v -8053.20231858 -19032.08279191 2805.07860988
v -8150.98493568 -19747.81354399 3980.06260494
v -8410.90707578 -19732.35933166 5811.99692648
v -8197.45546913 -19678.86436190 7996.63249904
v -8845.50859552 -19283.54136658 7069.13128899
v -8011.43351513 -19044.74860576 9703.02844511
v -8748.27453191 -18761.35153359 8913.87071257
v -6937.04309619 -16397.04929194 -1146.71839271
v -8297.37833952 -17357.25184350 2908.07183683
v -8656.97984515 -18265.22763835 4498.72487090
v -9072.98869083 -18394.56109902 5919.16237443
v -9105.38983351 -18823.76878544 6681.46651405
v -8595.23320748 -18139.62966130 9894.36365082
v -8427.41824291 -17170.63443823 10623.62939055
v -9038.83268845 -17326.74965197 9738.93526017
v -7028.87699666 -15386.21019414 -1127.00111929
v -8202.25586876 -15657.83554835 2951.09326752
v -8697.34714822 -16185.79906030 4560.10966567
v -9172.33133645 -17134.91485096 5880.99818776
v -9476.87980959 -16240.14236553 8937.46849800
v -9592.27985755 -16615.48708247 8328.01459357
v -9502.87090336 -15943.70328391 8318.65848282
v -9000.91177076 -16198.39879554 9915.27847107
v -9419.66870341 -16976.84862898 9007.35877666
v -8258.49223905 -16150.04593934 11001.53948786
v -7008.84331277 -14451.29373286 -997.00288933
v -7918.32023986 -14364.43670455 3021.52594039
v -8239.70666356 -14554.33210025 4260.33245465
v -9069.08648089 -15628.79344454 6282.30240355
v -8632.50940883 -14786.31493993 5481.31771376
v -9291.41859989 -15514.20927004 9042.04159457
v -8724.87832745 -14394.36018332 6620.56873242
v -8959.26472907 -15157.09520999 9785.69869366
v -8633.62671743 -14457.60974052 9817.45509713
v -8312.43364516 -15037.37849722 10618.90263265
v -7770.54803247 -12489.19529076 7831.58686957
v -8339.17881271 -13461.10542573 7598.89207873
v -8555.71007330 -13962.80986136 8969.47061063
v -9130.66418297 -18596.58977790 7799.63762725
v -9373.52667140 -17837.47550853 6920.56569201
v -9493.06087233 -17432.75419809 8052.36533622
v -9197.58443965 -17927.95344514 8934.50435435
v -9453.82710998 -16496.85577257 7365.34557309
v -9105.11197075 -14975.00035888 7935.25263861
v -9021.80411456 -14762.41803947 9165.21788883
f 3 2 1
f 5 4 1
f 1 4 3
f 5 6 4
f 1 2 7
f 7 2 8
f 1 9 5
f 1 7 9
f 6 5 10
f 10 5 9
f 8 11 7
f 7 11 9
f 9 11 12
f 9 12 10
f 15 14 13
f 17 16 13
f 13 16 15
f 19 18 17
f 17 18 16
f 19 20 18
f 13 14 21
f 21 14 22
f 13 23 17
f 13 21 23
f 17 24 19
f 17 23 24
f 20 19 25
f 19 26 25
f 19 24 26
f 26 27 25
f 30 29 28
f 28 31 30
f 21 22 32
f 32 22 33
f 35 23 34
f 23 32 34
f 23 21 32
f 37 36 35
f 36 23 35
f 36 24 23
f 24 38 26
f 24 36 38
f 27 26 39
f 26 40 39
f 26 38 40
f 42 41 40
f 40 41 39
f 42 43 41
f 29 44 28
f 28 44 31
f 33 45 32
f 45 46 32
f 46 47 32
f 48 34 32
f 48 32 47
f 48 47 37
f 47 36 37
f 47 49 36
f 49 2 3
f 38 49 3
f 36 49 38
f 38 3 4
f 38 4 40
f 40 4 6
f 50 40 6
f 42 40 50
f 43 42 51
f 51 42 50
f 46 52 47
f 54 53 52
f 53 47 52
f 53 49 47
f 53 8 2
f 53 2 49
f 10 55 50
f 10 50 6
f 51 50 56
f 56 50 55
f 54 57 53
f 53 57 8
f 57 11 8
f 57 58 11
f 58 60 59
f 12 58 59
f 11 58 12
f 59 61 12
f 12 61 10
f 61 62 10
f 62 55 10
f 55 62 56
f 60 63 59
f 59 63 61
f 65 64 15
f 15 64 14
f 66 15 16
f 66 65 15
f 67 16 18
f 67 66 16
f 69 68 20
f 68 18 20
f 68 67 18
f 69 70 68
f 64 22 14
f 71 22 64
f 25 69 20
f 73 72 27
f 27 72 25
f 72 70 25
f 70 69 25
f 73 74 72
f 76 75 30
f 30 75 29
f 78 77 31
f 77 30 31
f 77 76 30
f 71 77 78
f 33 71 78
f 22 71 33
f 34 79 35
f 79 37 35
f 39 73 27
f 80 74 73
f 39 80 73
f 41 80 39
f 82 81 43
f 81 41 43
f 81 80 41
f 82 83 81
f 44 29 84
f 29 85 84
f 29 75 85
f 78 31 44
f 84 78 44
f 86 78 84
f 87 45 33
f 78 87 33
f 86 87 78
f 48 79 34
f 46 45 87
f 79 48 37
f 51 88 82
f 51 82 43
f 83 82 89
f 82 90 89
f 82 88 90
f 90 91 89
f 85 92 84
f 94 93 92
f 93 84 92
f 93 86 84
f 86 95 87
f 86 93 95
f 96 52 46
f 87 96 46
f 95 96 87
f 96 54 52
f 56 97 88
f 56 88 51
f 99 90 98
f 90 97 98
f 90 88 97
f 90 99 91
f 93 94 100
f 100 94 101
f 93 102 95
f 93 100 102
f 95 103 96
f 95 102 103
f 104 57 54
f 96 104 54
f 103 104 96
f 105 58 57
f 105 57 104
f 105 60 58
f 61 106 62
f 106 107 62
f 62 107 56
f 107 108 56
f 108 97 56
f 97 108 98
f 100 101 109
f 109 101 110
f 100 111 102
f 100 109 111
f 102 112 103
f 102 111 112
f 103 113 104
f 103 112 113
f 115 105 114
f 105 113 114
f 105 104 113
f 105 115 60
f 115 63 60
f 115 116 63
f 63 116 61
f 116 117 61
f 117 106 61
f 117 116 118
f 107 106 119
f 119 106 117
f 110 120 109
f 109 120 111
f 111 120 121
f 123 122 121
f 122 111 121
f 122 112 111
f 112 124 113
f 112 122 124
f 114 113 125
f 125 113 124
f 118 126 117
f 117 126 119
f 123 127 122
f 122 127 124
f 124 127 128
f 124 128 125
f 129 64 65
f 129 65 130
f 65 131 130
f 65 66 131
f 132 66 67
f 132 131 66
f 133 67 68
f 133 132 67
f 68 70 133
f 133 70 134
f 135 71 129
f 129 71 64
f 129 130 136
f 129 136 135
f 137 134 70
f 137 70 72
f 139 138 74
f 138 72 74
f 138 137 72
f 139 140 138
f 141 75 76
f 141 76 142
f 76 143 142
f 76 77 143
f 77 71 135
f 144 77 135
f 143 77 144
f 144 135 136
f 80 139 74
f 145 140 139
f 80 145 139
f 81 145 80
f 81 83 145
f 145 83 146
f 147 85 141
f 141 85 75
f 141 142 148
f 141 148 147
f 83 89 149
f 150 83 149
f 146 83 150
f 91 149 89
f 147 92 85
f 94 92 147
f 148 94 147
f 151 94 148
f 150 149 99
f 98 150 99
f 152 150 98
f 99 149 91
f 151 101 94
f 153 101 151
f 107 154 108
f 154 155 108
f 155 98 108
f 155 152 98
f 157 110 156
f 110 153 156
f 110 101 153
f 158 157 156
f 160 159 115
f 160 115 114
f 159 162 161
f 116 159 161
f 115 159 116
f 161 118 116
f 119 163 154
f 119 154 107
f 155 154 164
f 164 154 163
f 157 120 110
f 121 120 157
f 165 121 157
f 158 165 157
f 166 121 165
f 166 123 121
f 125 168 167
f 160 125 167
f 114 125 160
f 167 168 162
f 168 161 162
f 168 169 161
f 161 169 118
f 169 170 118
f 170 126 118
f 169 171 170
f 119 126 163
f 126 172 163
f 126 170 172
f 163 172 164
f 165 173 166
f 173 175 174
f 173 174 127
f 166 173 127
f 123 166 127
f 176 128 127
f 176 127 174
f 176 177 128
f 128 177 125
f 177 178 125
f 178 168 125
f 168 178 169
f 169 178 179
f 169 179 171
f 175 180 174
f 174 180 176
f 176 180 181
f 176 181 177
f 182 130 131
f 132 183 131
f 131 183 182
f 133 184 132
f 132 184 183
f 134 184 133
f 185 136 182
f 182 136 130
f 186 182 183
f 185 182 186
f 187 183 184
f 186 183 187
f 137 188 134
f 188 184 134
f 188 187 184
f 138 189 137
f 137 189 188
f 140 189 138
f 190 142 143
f 144 191 143
f 143 191 190
f 136 185 144
f 185 191 144
f 185 192 191
f 186 194 193
f 192 186 193
f 185 186 192
f 194 186 187
f 194 187 195
f 195 187 188
f 195 188 196
f 198 197 196
f 188 198 196
f 189 198 188
f 145 199 140
f 199 189 140
f 199 198 189
f 146 199 145
f 200 148 190
f 190 148 142
f 201 190 191
f 200 190 201
f 192 203 202
f 201 192 202
f 191 192 201
f 203 192 193
f 197 198 204
f 197 204 205
f 206 198 199
f 204 198 206
f 150 206 146
f 146 206 199
f 207 151 200
f 200 151 148
f 208 200 201
f 207 200 208
f 201 202 209
f 201 209 208
f 205 204 210
f 205 210 211
f 206 213 212
f 210 206 212
f 204 206 210
f 206 150 213
f 150 214 213
f 150 152 214
f 215 153 207
f 207 153 151
f 216 207 208
f 215 207 216
f 208 209 217
f 208 217 216
f 218 211 210
f 221 220 219
f 212 218 210
f 221 214 220
f 214 155 220
f 214 152 155
f 215 156 153
f 156 215 158
f 215 222 158
f 215 216 222
f 216 217 223
f 216 223 222
f 160 224 159
f 224 162 159
f 219 220 225
f 219 225 226
f 164 225 155
f 155 225 220
f 227 165 222
f 222 165 158
f 222 223 228
f 229 222 228
f 227 222 229
f 230 229 228
f 167 224 160
f 224 167 162
f 171 231 170
f 232 226 225
f 170 232 225
f 172 170 225
f 232 170 231
f 172 225 164
f 227 173 165
f 173 227 175
f 227 233 175
f 227 229 233
f 229 230 234
f 235 229 234
f 233 229 235
f 178 177 235
f 234 178 235
f 236 178 234
f 178 237 179
f 236 237 178
f 171 179 231
f 179 238 231
f 179 237 238
f 231 238 232
f 233 180 175
f 180 233 181
f 181 233 235
f 181 235 177
f 239 193 194
f 195 240 194
f 194 240 239
f 196 241 195
f 195 241 240
f 197 241 196
f 242 202 203
f 193 239 203
f 239 242 203
f 239 243 242
f 244 239 240
f 243 239 244
f 245 240 241
f 244 240 245
f 205 245 197
f 197 245 241
f 246 209 242
f 242 209 202
f 247 242 243
f 246 242 247
f 244 249 248
f 247 244 248
f 243 244 247
f 249 244 245
f 249 245 250
f 245 205 250
f 205 251 250
f 205 211 251
f 252 212 213
f 214 252 213
f 253 217 246
f 246 217 209
f 247 255 254
f 253 247 254
f 246 247 253
f 255 247 248
f 211 218 256
f 257 211 256
f 251 211 257
f 218 212 256
f 212 252 256
f 221 219 256
f 221 256 252
f 221 252 214
f 258 223 253
f 253 223 217
f 253 254 259
f 260 253 259
f 258 253 260
f 261 260 259
f 257 256 262
f 257 262 263
f 226 262 219
f 219 262 256
f 258 228 223
f 228 258 230
f 258 264 230
f 258 260 264
f 260 261 265
f 266 260 265
f 264 260 266
f 268 267 266
f 268 266 265
f 267 268 263
f 262 267 263
f 269 267 262
f 232 269 226
f 226 269 262
f 264 234 230
f 234 264 236
f 236 264 266
f 236 266 237
f 237 266 267
f 237 267 238
f 238 267 269
f 238 269 232
f 272 271 270
f 274 273 270
f 270 273 272
f 274 275 273
f 270 271 276
f 276 271 277
f 270 278 274
f 270 276 278
f 275 274 279
f 274 280 279
f 274 278 280
f 280 281 279
f 276 277 282
f 282 277 283
f 282 248 249
f 278 282 249
f 276 282 278
f 278 249 250
f 278 250 280
f 250 251 280
f 251 281 280
f 251 284 281
f 282 283 255
f 283 254 255
f 283 285 254
f 282 255 248
f 257 287 286
f 284 257 286
f 251 257 284
f 287 288 286
f 259 254 289
f 254 290 289
f 254 285 290
f 289 261 259
f 292 291 287
f 257 292 287
f 263 292 257
f 287 291 288
f 290 293 289
f 289 293 261
f 293 265 261
f 293 294 265
f 265 295 268
f 294 295 265
f 263 268 292
f 292 268 295
f 298 297 296
f 296 299 298
f 296 297 300
f 300 297 301
f 299 296 302
f 296 303 302
f 296 300 303
f 305 304 303
f 303 304 302
f 307 306 305
f 305 306 304
f 307 308 306
f 300 301 309
f 309 301 310
f 300 311 303
f 300 309 311
f 303 312 305
f 303 311 312
f 305 313 307
f 305 312 313
f 308 307 314
f 307 315 314
f 307 313 315
f 315 316 314
f 319 318 317
f 319 317 310
f 317 309 310
f 317 320 309
f 320 271 272
f 311 320 272
f 309 320 311
f 311 272 273
f 311 273 312
f 312 273 275
f 321 312 275
f 313 312 321
f 313 322 315
f 313 321 322
f 316 315 323
f 315 324 323
f 315 322 324
f 324 325 323
f 317 318 326
f 326 318 327
f 317 328 320
f 317 326 328
f 328 277 271
f 328 271 320
f 279 321 275
f 321 279 281
f 329 321 281
f 322 321 329
f 322 330 324
f 322 329 330
f 325 324 331
f 331 324 330
f 334 333 332
f 334 332 327
f 332 326 327
f 332 335 326
f 326 336 328
f 326 335 336
f 336 283 277
f 336 277 328
f 284 337 329
f 284 329 281
f 329 338 330
f 329 337 338
f 331 330 339
f 339 330 338
f 332 333 340
f 340 333 341
f 332 342 335
f 332 340 342
f 335 343 336
f 335 342 343
f 343 285 283
f 343 283 336
f 286 337 284
f 337 286 288
f 344 337 288
f 338 337 344
f 339 338 345
f 345 338 344
f 341 346 340
f 348 347 346
f 347 340 346
f 347 342 340
f 342 349 343
f 342 347 349
f 349 290 285
f 349 285 343
f 292 350 291
f 344 288 291
f 350 344 291
f 351 344 350
f 345 344 352
f 352 344 351
f 347 348 353
f 353 348 354
f 347 355 349
f 347 353 355
f 356 293 290
f 349 356 290
f 355 356 349
f 357 294 293
f 357 293 356
f 358 295 294
f 358 294 357
f 358 359 295
f 295 359 292
f 359 360 292
f 360 350 292
f 350 360 351
f 351 360 361
f 351 361 352
f 354 362 353
f 353 362 355
f 355 362 363
f 365 364 363
f 364 355 363
f 364 356 355
f 356 366 357
f 356 364 366
f 368 358 367
f 358 366 367
f 358 357 366
f 358 368 359
f 365 369 364
f 364 369 366
f 366 369 370
f 366 370 367
f 372 371 298
f 298 371 297
f 298 299 372
f 372 299 373
f 376 375 374
f 371 376 374
f 301 371 374
f 297 371 301
f 377 373 299
f 377 299 302
f 378 302 304
f 378 377 302
f 379 304 306
f 379 378 304
f 306 308 379
f 379 308 380
f 383 382 381
f 383 381 375
f 381 374 375
f 381 384 374
f 384 310 301
f 384 301 374
f 385 380 308
f 385 308 314
f 387 386 316
f 386 314 316
f 386 385 314
f 387 388 386
f 381 382 389
f 389 382 390
f 389 318 319
f 384 389 319
f 381 389 384
f 384 319 310
f 323 387 316
f 392 391 325
f 325 391 323
f 391 388 323
f 388 387 323
f 392 393 391
f 389 390 394
f 394 390 395
f 394 327 318
f 394 318 389
f 331 396 392
f 331 392 325
f 393 392 397
f 397 392 396
f 394 395 334
f 395 333 334
f 395 398 333
f 394 334 327
f 339 399 396
f 339 396 331
f 397 396 400
f 400 396 399
f 398 341 333
f 401 341 398
f 404 403 402
f 405 402 403
f 407 406 399
f 339 407 399
f 345 407 339
f 399 406 400
f 401 408 341
f 341 408 346
f 348 346 408
f 348 408 409
f 410 404 402
f 410 402 405
f 413 412 411
f 415 414 411
f 415 411 412
f 415 407 414
f 407 352 414
f 407 345 352
f 417 354 416
f 354 409 416
f 354 348 409
f 419 418 417
f 419 417 416
f 421 420 418
f 421 418 419
f 423 422 420
f 423 420 421
f 425 424 422
f 425 422 423
f 424 425 413
f 424 413 411
f 359 424 411
f 360 359 411
f 360 411 361
f 361 411 414
f 361 414 352
f 417 362 354
f 362 417 363
f 363 417 418
f 363 418 365
f 418 426 365
f 418 420 426
f 427 420 422
f 426 420 427
f 367 427 368
f 427 424 368
f 427 422 424
f 368 424 359
f 426 369 365
f 369 426 370
f 370 426 427
f 370 427 367
f 428 371 372
f 373 428 372
f 429 375 376
f 430 429 376
f 430 376 371
f 431 430 371
f 428 431 371
f 431 428 373
f 377 431 373
f 432 431 377
f 433 377 378
f 433 432 377
f 435 433 434
f 433 379 434
f 433 378 379
f 380 434 379
f 436 382 383
f 375 429 383
f 429 436 383
f 429 437 436
f 429 430 438
f 429 438 437
f 439 435 434
f 439 434 380
f 385 439 380
f 440 439 385
f 442 440 441
f 440 386 441
f 440 385 386
f 388 441 386
f 444 443 436
f 443 382 436
f 443 390 382
f 446 445 444
f 436 446 444
f 437 446 436
f 437 438 447
f 437 447 446
f 448 442 441
f 450 448 449
f 449 448 391
f 448 441 391
f 441 388 391
f 393 449 391
f 443 395 390
f 451 395 443
f 445 446 452
f 445 452 453
f 446 447 454
f 446 454 452
f 450 449 455
f 450 455 456
f 397 455 393
f 393 455 449
f 451 398 395
f 457 398 451
f 453 452 458
f 453 458 459
f 452 454 460
f 452 460 458
f 456 455 461
f 456 461 462
f 400 461 397
f 397 461 455
f 464 401 463
f 401 457 463
f 401 398 457
f 464 463 459
f 458 464 459
f 465 464 458
f 458 460 466
f 467 458 466
f 465 458 467
f 469 468 467
f 469 467 466
f 403 404 468
f 469 403 468
f 470 403 469
f 405 403 470
f 405 470 471
f 474 473 472
f 476 475 472
f 476 472 473
f 475 476 462
f 475 462 461
f 407 475 461
f 406 407 461
f 406 461 400
f 464 408 401
f 408 464 409
f 464 477 409
f 464 465 477
f 478 465 467
f 477 465 478
f 479 467 468
f 478 467 479
f 410 480 404
f 480 468 404
f 480 479 468
f 405 471 481
f 480 405 481
f 482 480 481
f 410 405 480
f 482 481 474
f 482 474 472
f 413 482 472
f 412 413 472
f 412 472 415
f 415 472 475
f 415 475 407
f 477 416 409
f 416 477 419
f 419 477 478
f 419 478 421
f 421 478 479
f 421 479 423
f 423 479 480
f 423 480 425
f 425 480 482
f 425 482 413
f 483 430 431
f 432 484 431
f 431 484 483
f 433 485 432
f 432 485 484
f 435 485 433
f 486 438 483
f 483 438 430
f 487 483 484
f 486 483 487
f 488 484 485
f 487 484 488
f 488 485 435
f 489 488 435
f 439 489 435
f 490 488 489
f 492 489 491
f 489 440 491
f 489 439 440
f 442 491 440
f 493 443 444
f 445 493 444
f 494 447 486
f 486 447 438
f 495 486 487
f 494 486 495
f 488 497 496
f 495 488 496
f 487 488 495
f 497 488 490
f 498 492 491
f 500 498 499
f 499 498 448
f 498 491 448
f 491 442 448
f 450 499 448
f 501 451 493
f 493 451 443
f 453 501 445
f 445 501 493
f 502 454 494
f 494 454 447
f 503 494 495
f 502 494 503
f 495 496 504
f 495 504 503
f 507 506 505
f 509 508 505
f 509 505 506
f 508 509 500
f 499 508 500
f 510 508 499
f 456 510 450
f 450 510 499
f 511 457 501
f 501 457 451
f 459 511 453
f 453 511 501
f 512 460 502
f 502 460 454
f 513 502 503
f 512 502 513
f 503 504 514
f 515 503 514
f 513 503 515
f 507 505 516
f 514 517 515
f 516 505 508
f 516 508 518
f 520 519 518
f 508 520 518
f 510 520 508
f 462 520 456
f 456 520 510
f 511 463 457
f 463 511 459
f 512 466 460
f 466 512 469
f 469 512 513
f 469 513 470
f 470 513 515
f 522 521 471
f 522 471 470
f 517 522 470
f 515 517 470
f 473 474 521
f 522 473 521
f 523 473 522
f 520 476 519
f 476 523 519
f 476 473 523
f 476 520 462
f 521 481 471
f 481 521 474
f 524 490 489
f 492 524 489
f 525 496 497
f 490 524 497
f 524 525 497
f 524 526 525
f 498 527 492
f 527 524 492
f 527 526 524
f 500 527 498
f 528 504 525
f 525 504 496
f 507 528 506
f 528 526 506
f 528 525 526
f 506 526 509
f 509 526 527
f 509 527 500
f 528 514 504
f 517 514 529
f 514 528 529
f 507 516 529
f 507 529 528
f 518 530 516
f 516 530 529
f 519 530 518
f 529 522 517
f 522 529 523
f 523 529 530
f 523 530 519

