# https://github.com/mikedh/trimesh
v 27737.42281236 10148.32585762 -19559.11452920
v 27603.85947558 10205.79929724 -19533.36933994
v 27506.76755299 10168.97733497 -19526.34753435
v 27459.17805859 10136.10353912 -19388.54723252
v 27556.26998118 10172.92550139 -19395.56903811
v 26765.48356278 9187.48381589 -15469.17562512
v 26679.68606756 9342.63821425 -16195.93368372
v 26135.08480678 8806.22429528 -15980.97160065
v 26497.55198554 8825.98675534 -15199.60350318
v 26675.72584186 9147.46663542 -14949.54613625
v 26305.52251085 8897.93911517 -14825.98666188
v 27007.75296988 10325.43298628 -19388.75024002
v 26768.39569661 10139.73292977 -19245.99091492
v 26786.51671680 10168.26921358 -18726.33365154
v 26880.17241525 9687.57112334 -15768.02092695
v 26717.02801426 9767.61501071 -15117.33425980
v 26696.39763843 10327.96286629 -15775.92521622
v 26247.04473358 9400.76439404 -14666.06747994
v 27236.92894768 10303.13196227 -19292.62561833
v 26458.65507911 10502.24699141 -15173.99426429
v 26204.33981308 10961.79404754 -15689.83084911
v 26068.65218805 10184.57724690 -14721.80127005
v 25761.52538175 10963.85652922 -15099.30088593
v 26165.23284743 9417.48628561 -17322.98885968
v 25223.36611444 9053.97812061 -17787.58710600
v 24916.09424678 8626.27106793 -16890.46147977
v 25185.38922294 8433.01451709 -15812.39262052
v 25842.37640903 8616.79685600 -15195.43696458
v 25540.03400774 8946.86090426 -14702.90827747
v 25583.93293649 10505.39795487 -19159.43647041
v 25356.75937206 9681.16016213 -18638.28911661
v 26561.70728450 10262.88914250 -17511.66606364
v 26685.78404155 9971.84493303 -16541.97854308
v 25274.34758426 9675.02254657 -14485.01764857
v 26389.42873181 10688.51608999 -18925.48629057
v 26274.93166570 10868.73279322 -18061.07842055
v 25835.83228653 11209.09680227 -18433.90678177
v 26230.35793066 10890.65450003 -16746.72659179
v 25043.09170949 10569.61605312 -14612.68015106
v 25139.34536939 11731.08678235 -17704.14905079
v 25107.87248448 11684.71113578 -16044.52278185
v 24826.39842017 11303.77540014 -15055.62986031
v 24104.07029467 8894.68035137 -17996.66635880
v 23141.75505585 8379.88690501 -17118.19829382
v 23918.52545644 8301.56294245 -16033.37253445
v 24707.87275242 8518.76989870 -15178.70983651
v 24233.44241028 9057.75791873 -14655.61466065
v 24119.98631955 10222.63315972 -19162.27052662
v 23332.38241720 9500.90995816 -18841.18367912
v 23874.58707736 9957.75180746 -14473.13447820
v 25145.56797345 11290.56665829 -18746.02609954
v 23585.18933081 11184.35301860 -19158.30401741
v 23781.61663986 10968.81142346 -14725.33525476
v 23829.00809681 12055.76637759 -18504.42725436
v 23844.81417223 12527.90941081 -17812.04030212
v 22666.84138773 12759.49371902 -18164.19429201
v 24075.73233759 12485.10948592 -16985.04085115
v 23809.36291586 12364.57049205 -16149.73894505
v 23879.69391150 11802.24103828 -15382.77952415
v 23109.77737916 12893.18549816 -17461.76359696
v 22892.39564854 12817.25823598 -16723.06176215
v 22293.91538706 8773.26138506 -18169.66390138
v 21256.37649101 8291.94230857 -17240.60981399
v 22173.05406155 8217.42990952 -16159.37434015
v 23158.92350878 8507.26363736 -15239.73773318
v 22530.54675917 9186.76487731 -14691.65175078
v 22421.42736865 10350.24871452 -19312.86009333
v 21403.95473977 9483.68023191 -18983.12583304
v 22017.77139516 10318.50032199 -14588.60706694
v 21412.81933110 11376.64932182 -19391.40494524
v 21714.06426411 11950.10369277 -15318.93606375
v 20598.51091380 12001.34178635 -15352.21136923
v 21393.91843129 12435.44511166 -15786.19025723
v 22576.31560839 11492.46282544 -15024.54047170
v 21040.73236701 11241.10463657 -14867.54952404
v 22169.76322831 12209.41433326 -18907.82377714
v 20965.31994347 12949.77311431 -18415.08311351
v 22626.26750952 12345.66130584 -15800.82614945
v 21574.45836553 12864.41861090 -16466.06282051
v 21674.87149470 13105.70571191 -17452.03904537
v 20354.51372597 8738.43698044 -18266.96005453
v 19302.49563664 8271.60323483 -17294.26819481
v 20253.90809879 8184.30121386 -16222.10365742
v 21309.43872604 8510.00764339 -15294.50562021
v 20523.64163865 9228.82038858 -14719.89393303
v 20442.57753220 10430.17598439 -19447.45413693
v 19428.15506486 9501.64707760 -19061.01716815
v 19563.84666535 10244.49241386 -14542.36268564
v 19394.19014974 11488.90642550 -19536.46946437
v 19480.42147925 12135.09319387 -15398.89722366
v 20109.23442040 12697.49929761 -16052.95447155
v 19479.02977589 11394.72588078 -14889.77567118
v 20237.55508589 12370.92355120 -19140.11535133
v 18990.33391334 13180.61822846 -18613.96540025
v 20329.54792877 13165.19182044 -16906.09901378
v 19711.04704816 13351.40701205 -17712.65945984
v 18386.99965234 8744.09381923 -18302.79233027
v 17352.33408549 8291.08793563 -17305.67914108
v 18291.48304351 8183.67207431 -16242.72686525
v 19331.98607096 8493.92608198 -15313.06735893
v 18473.68090924 9139.07896076 -14684.48120699
v 18452.04129105 10482.47168611 -19518.92018944
v 17454.20698941 9527.00862469 -19079.30157184
v 17660.57353041 9819.21439847 -14401.38578248
v 17416.50307336 11562.06315847 -19618.40328770
v 18676.35172189 12571.18307058 -15739.65927585
v 18239.93329143 11899.22937736 -15091.79099735
v 17673.38014375 10860.37385548 -14524.01090108
v 18230.90889855 12528.83397190 -19288.39693740
v 16796.40024783 13517.71975546 -18761.67650506
v 16996.51648101 12615.35655920 -15521.55216683
v 18269.04345787 13287.93186315 -16674.17303099
v 16836.41850450 11710.63739199 -14792.08318285
v 17691.29537962 13705.64788975 -17878.97818483
v 16446.74176063 8775.08099191 -18288.72191447
v 15471.78365588 8354.71171761 -17290.43066833
v 16365.86068452 8231.82749853 -16247.59794004
v 17368.62041316 8496.32210465 -15305.41493691
v 16584.12313148 9133.90384554 -14637.81628627
v 16482.87240307 10519.35511234 -19530.74382312
v 15507.90611725 9562.21602395 -19032.69514042
v 16082.08529372 10027.50527471 -14335.09394198
v 15486.12614831 11608.33805263 -19646.80905754
v 15708.93737754 11040.23329343 -14397.60409249
v 16313.20728928 12618.35365743 -19420.16145367
v 15229.34782186 13445.09035456 -19117.28233040
v 15040.07037460 13012.20218381 -15471.99695283
v 16215.43953563 13445.98788983 -16226.46346621
v 15384.17476545 12043.51954525 -14809.75899066
v 16062.10651476 14137.16825480 -18044.30332188
v 14695.13989776 14254.09156232 -18464.76959918
v 15993.82880941 14048.42388832 -17146.38572860
v 14858.55497786 14519.27106716 -17713.82102864
v 14586.42760937 8837.48198329 -18211.40127583
v 13760.89370352 8473.24213709 -17252.31028761
v 14534.20925988 8353.69814688 -16266.21400738
v 15468.57803857 8590.10138055 -15308.25002995
v 14714.68735199 9325.66910314 -14618.55693324
v 14530.38231079 10558.31081882 -19471.77970772
v 13581.59707434 9624.50119495 -18879.44738354
v 14264.70313835 10300.24151965 -14274.59423048
v 13567.27067388 11654.91733891 -19604.79957883
v 13959.42848930 11342.03675623 -14324.35563808
v 14503.53373181 12680.33189177 -19484.30666766
v 13599.57021178 13703.67838003 -19071.53130947
v 13295.79477577 13414.99537221 -15360.92740974
v 14580.97645505 13881.13649278 -16233.65135652
v 13619.12895771 12395.45748287 -14728.00619978
v 12607.49869124 14689.54476166 -18434.91475597
v 13969.42995089 14593.11513551 -16966.54283328
v 13329.81365691 14924.46224315 -17696.86620285
v 12890.89372539 8937.04107993 -18016.98815788
v 12470.35298279 8642.73838649 -17197.05636095
v 12876.77359907 8558.75310907 -16346.43953010
v 13602.59563873 8794.87611329 -15354.52325236
v 12589.07781316 9681.16831694 -14570.74697128
v 12554.41066654 10633.53926020 -19322.82515226
v 11510.21635769 9750.82454351 -18503.10829925
v 12693.33506846 10674.04529144 -14161.65236624
v 11629.79542808 11718.11987278 -19505.73397544
v 12116.22767934 11663.19645684 -14132.59186218
v 12638.10874582 12765.85671078 -19445.49716347
v 11648.10123570 13888.03614226 -19029.38022529
v 11797.16906468 13866.77414565 -15102.71760650
v 12843.82915768 14345.15796288 -16035.01828723
v 11904.33627821 12838.06217123 -14494.81055600
v 10524.13730457 15179.06852106 -18366.92842900
v 12054.04466801 15239.42606359 -16654.73347869
v 11550.84542381 15535.81548680 -17587.37856085
v 11628.92488354 9033.63367789 -17585.81852932
v 11430.70439130 8909.08183567 -16620.14650201
v 11817.01099924 9041.84252816 -15512.90038582
v 10553.80081108 10842.70606685 -19176.05561844
v 9495.37486017 10337.60263742 -18514.18651379
v 10039.94094413 9573.73841232 -17301.35322562
v 10069.07291163 9422.31212437 -15744.67055719
v 10709.46359647 9656.41172752 -14771.61766374
v 10699.23203421 10630.50961630 -14008.23564958
v 9722.81350195 11800.44943342 -19370.46143086
v 9962.91219396 12279.22997098 -13425.24097547
v 10731.16522076 12770.61738824 -19371.86457667
v 9563.20482438 13839.15662097 -19009.29468795
v 10744.00857656 14324.56084598 -14663.66112058
v 11399.92856061 14788.12368448 -15571.35858013
v 10769.99793098 13500.09101299 -14235.76387713
v 8998.69740960 15117.66630630 -18605.23075256
v 10816.52131570 15620.77467063 -15777.60953685
v 10147.49434955 16208.56526945 -17489.29454266
v 8882.93250998 16318.02694560 -17886.71532426
v 10441.67720719 16311.43123407 -16452.04182322
v 9103.90556506 18474.73378112 -11411.68364071
v 9139.43435547 18504.43887752 -12596.26883389
v 9164.82783865 17545.82809105 -12121.29066033
v 8793.50098980 17328.33440277 -10642.48407781
v 8899.63222989 18665.93204341 -10361.60387076
v 8627.91608344 18379.00376177 -9558.47919000
v 9186.27481135 17146.06355977 -16749.27289186
v 9059.23480180 19243.57627934 -11914.15566322
v 8967.14903886 19300.85129317 -12609.30686578
v 8905.90028502 19493.30891232 -10928.30928968
v 8502.19405567 19637.46011253 -9454.17159338
v 8576.64672443 20268.99539111 -12057.58618442
v 8540.68280733 20491.97197939 -10542.44538576
v 8511.76718165 11269.69173481 -19085.12274285
v 8186.38021072 10854.65175691 -18657.17228360
v 8345.26888744 10381.85176752 -17767.54436682
v 8082.35341572 10048.23941902 -16040.75380364
v 8667.75625485 10060.67005404 -14328.29542907
v 8487.03247109 10939.31173930 -13092.73868341
v 7875.33998914 11913.52223084 -19113.31115125
v 9107.40420935 12590.27027186 -19266.20540661
v 7680.31590989 12762.20949253 -18971.63597903
v 8235.70687345 11765.40153446 -12396.88297731
v 8144.75851742 14354.30534805 -18869.41897780
v 10333.51077642 15212.98537725 -14779.05986494
v 9633.03778960 14339.11813485 -13356.33689249
v 8175.05210468 12959.41548393 -11751.24869454
v 8555.44444625 14706.25216588 -11560.92294353
v 7837.93131306 14112.30286406 -10600.76618752
v 7777.92725203 15547.11542938 -18484.34914744
v 9969.61757078 16334.31393918 -15038.12312824
v 9660.77102839 15857.33094869 -13870.00740436
v 9115.78688149 16114.74861839 -12311.53400773
v 8082.65257309 15090.53557886 -10386.52445551
v 8551.41742587 15851.17581276 -10904.60458722
v 8097.01853907 16178.92445181 -9661.16071844
v 7332.35675873 16829.53834188 -17807.37175767
v 9309.28584261 17490.55590226 -15310.85431732
v 9322.32316504 17288.92968812 -13621.63059033
v 8219.54989154 17550.01493415 -8994.09721943
v 8253.44808805 18760.90084414 -8576.99956063
v 7779.35327196 18144.36769245 -7847.20665830
v 8065.47702222 17489.54588880 -17083.88874727
v 8140.98372397 18431.32794492 -15755.54324828
v 8670.47935640 18995.08135054 -13825.83372951
v 7872.26517582 19496.58752194 -14694.97043525
v 8158.98134628 19552.23782190 -8383.00214380
v 7734.28941487 19348.26480647 -7572.45185495
v 7513.08987259 20662.30782705 -13620.89396149
v 7930.81287565 21822.74724037 -12099.03788257
v 7343.50747824 22088.12598050 -12659.78179590
v 8150.82922853 21614.90478261 -10933.52351670
v 7979.36588150 21173.43339139 -9518.71587530
v 7787.71682202 20429.24281590 -8173.05861692
v 7620.30078293 22752.99934065 -11982.30021286
v 6994.76091258 22840.57076731 -12143.01542713
v 7799.47753200 22864.14693739 -11304.02726428
v 7454.86283176 22487.63927392 -10229.64898736
v 7583.32310305 23401.49938083 -11646.54681295
v 7352.09768655 23528.62433511 -11595.67033506
v 7667.59858011 23576.93708482 -11329.48259114
v 7571.59506053 23309.56556833 -10973.04758536
v 7580.15140167 23732.31080010 -11467.10546269
v 7290.78337948 11473.43276233 -18894.24847382
v 7466.71242563 11351.73818205 -18535.84117967
v 7025.50326905 10821.29643579 -17178.62947560
v 6198.15353622 10691.76802899 -15586.11922828
v 6578.41856842 10234.26909793 -14277.32061881
v 6428.39083451 10295.27384742 -12518.56145574
v 7222.77824707 11142.69610695 -11949.29733212
v 6102.37652506 10737.03251529 -11081.87988481
v 6705.47570981 12285.60893427 -19041.99251735
v 7069.63930079 12143.87101388 -18976.16401793
v 6155.64774622 11992.84423328 -18574.71201130
v 6622.49091909 11699.91127110 -18221.98184965
v 7029.34224581 11671.21880053 -18816.57261667
v 5727.15220634 11403.13674941 -16662.97696017
v 7561.89476511 11852.08703159 -11736.29496799
v 6792.33866185 11825.72547202 -10777.57546874
v 6815.06660401 12951.31261867 -19085.87586133
v 6744.55319518 14353.65160860 -18833.72300057
v 7110.65547308 13230.38337192 -10041.14576040
v 7362.91822930 14811.94601275 -9234.63200106
v 6439.49778204 13641.78188597 -8501.69824958
v 6606.25658924 15099.17010721 -7562.68783684
v 5965.76300356 14088.76819513 -7193.32815247
v 6625.80641170 15912.69669550 -18324.32267771
v 7387.33699768 16657.05997393 -7949.18348237
v 6025.02416945 15108.86218148 -6434.66362896
v 6421.92134036 16540.75997024 -6200.23097845
v 5760.76643321 15728.05121146 -5520.30327222
v 5995.37557099 16973.62938622 -17693.97598079
v 7005.62917261 18491.93864471 -6433.33861327
v 5824.71562824 16780.15271445 -4968.39427011
v 6141.26608106 18056.40255122 -4936.56332537
v 5515.39841528 17543.66887259 -4180.04556268
v 6727.99712713 18196.00059941 -16732.77599413
v 6976.99168157 19552.25427741 -15306.58578553
v 5518.06026023 19388.40523496 -15872.03185979
v 6975.27718871 20686.43714213 -6414.56077536
v 6222.76160103 20014.95490672 -4620.98715039
v 5570.30331539 18904.11726592 -3790.04864700
v 5945.88459788 20588.93846179 -14640.06123554
v 6240.62469609 21746.08859350 -13305.87061506
v 4844.16754706 21279.98089099 -14126.19520877
v 6839.35206710 21990.60151483 -8055.41321761
v 6448.85956151 22334.65421928 -5921.83174424
v 6231.04817748 21929.92473856 -4666.25500541
v 5520.20268664 20226.38755254 -3406.48742368
v 5637.26423914 21532.10326410 -3496.41684969
v 4887.12698197 20884.62366440 -2823.21950212
v 5152.37073296 21803.19738102 -13343.69942169
v 5483.89284383 22189.81138169 -12251.52208499
v 6818.51434536 23119.50225014 -11387.32739780
v 7145.37065503 23152.33025139 -10803.05842747
v 6128.48589478 22465.78718415 -10214.63367352
v 5488.62701588 22508.60659718 -8155.66523790
v 5783.95772091 23258.53288023 -6181.51367114
v 4617.83722938 23040.65911019 -6719.07558565
v 5941.03788112 23430.25125847 -4652.25881576
v 5613.19361654 23136.23645375 -3546.20842554
v 4913.24639114 22542.71255357 -2803.50752551
v 7423.88559513 23596.26014782 -11261.60722257
v 5056.51787869 24145.22892202 -5498.00755420
v 5455.48506711 24677.42736358 -4538.36583947
v 4778.51967697 25028.35908590 -4631.28875221
v 5474.75734779 24554.92535674 -3594.10760922
v 4945.64787550 24133.46968271 -2893.07533592
v 5120.05574262 25617.59366001 -3996.27285798
v 4585.93040492 25744.80776364 -3893.08393550
v 5277.55711303 25585.79077441 -3569.65327065
v 4992.36216132 25370.16666173 -3036.01364429
v 4996.68518718 26025.80227811 -3535.73790160
v 4971.46969320 25997.08564812 -3192.33776304
v 4824.09218401 9969.39687313 -10616.78228930
v 4776.21451693 9978.78684062 -11761.79866995
v 3877.31605292 9715.74281309 -10890.00080529
v 3173.84861998 9283.45362321 -9658.08372264
v 4081.62165670 9826.53111030 -8842.60467131
v 2952.27986448 9104.97748751 -8157.73787334
v 3622.43167066 9678.89529100 -7657.62903563
v 2976.84843389 9364.72654608 -7123.31021297
v 5305.10853165 10723.41282851 -14209.25440748
v 5115.79916629 10350.64779908 -12952.23851100
v 5398.03727054 11048.28132162 -9417.16727387
v 4362.70150733 10810.75031205 -7481.05088287
v 3502.28712694 10055.19591910 -6706.93936678
v 5572.17924494 12670.70537750 -18685.35653230
v 5162.68039148 12618.33547090 -18144.61063322
v 5263.90837761 12162.09344232 -17442.32661115
v 4821.41821913 12029.84311611 -16255.44330336
v 4438.39786276 12774.30431297 -16439.32421389
v 4809.00250780 11597.80753476 -15050.26275481
v 6217.11843551 12388.63027102 -9299.33348601
v 5444.48524283 12581.92251328 -7664.64863336
v 3869.39966992 10940.59599087 -6209.09251489
v 4390.53603204 12350.23998113 -5896.17438419
v 3556.75710659 11471.56692872 -5296.23162113
v 3723.88498295 12657.87983750 -4662.92726211
v 3000.61727310 12032.08740566 -4419.11537891
v 6200.99408342 13411.65254999 -19036.97244736
v 5534.72581094 13381.80555584 -18798.97629252
v 4238.31534219 12645.29314100 -15462.90094174
v 5297.21049770 14261.98624901 -5884.42262863
v 4242.41291009 14196.60358284 -4389.88967334
v 3251.66161339 13508.36188750 -3739.93961158
v 5673.12166100 14235.93942846 -18762.22787699
v 5522.22097262 15568.22791255 -18229.05152101
v 5101.18030864 16045.90763057 -4428.98765559
v 3604.14528653 14764.93568425 -3383.81199050
v 4109.69955146 15982.48011002 -3414.02608740
v 3253.00407515 15682.25178106 -2933.09956683
v 4950.00108429 16857.08166647 -17485.73803444
v 4727.90396455 17857.29360692 -3338.48140608
v 3590.93968660 17345.31180781 -2823.10677655
v 5155.07975824 18067.61534106 -16849.70085787
v 3979.70678854 19085.69610066 -15939.52443100
v 4984.11872043 19519.90969316 -3049.29001734
v 4013.00822464 19485.48638471 -2678.59356808
v 4416.07626762 20344.16611569 -15119.25151079
v 3284.58288371 21026.63064395 -14442.61045911
v 4580.48398419 21657.27420824 -11286.93958603
v 3452.54424731 20854.58593283 -12106.08899750
v 3693.62667141 21431.90255696 -12655.66779038
v 4732.09393284 21803.40179905 -9653.71843560
v 3771.84331745 20785.60829065 -10877.88632598
v 4434.95385529 22056.10540682 -8233.26636744
v 3710.90443415 21007.37606171 -9262.59873568
v 3394.43306980 21672.12444471 -7429.77981878
v 4018.15178471 21589.43503337 -2519.20229325
v 3868.54168609 21578.09851842 -13489.59458840
v 3553.40755981 23009.20019152 -6062.70105974
v 4105.82044809 23366.77730011 -2556.64430254
v 4244.81894104 24109.25738374 -5455.15106898
v 3788.51080441 24897.85991894 -4434.69793734
v 4228.77780926 24924.99396803 -2736.98689167
v 3938.59191358 25648.50650305 -3592.78304758
v 4566.95453058 26034.75202777 -3304.04961321
v 4600.79780875 25810.25476388 -2956.28454119
v 4029.80399413 25640.84576627 -3041.54121678
v 3777.63466178 10371.08944774 -11759.26722689
v 2866.97950380 9829.96234553 -10629.57876614
v 1845.95427218 9196.78253195 -9903.54262174
v 1629.74011081 8555.40350805 -8601.63140586
v 1985.47074596 8973.47223231 -7136.32720209
v 2580.62670136 9815.81180953 -6083.67067569
v 1208.47116561 9614.48739268 -5829.25554540
v 4101.73677006 11347.68804674 -13144.83790830
v 3200.46927808 11445.68708442 -11894.14385870
v 2650.43387721 10940.28294316 -11133.33314498
v 1835.64098032 10361.87247116 -10599.95689027
v 3307.83451815 10511.19256009 -5836.86928123
v 2030.75803739 10353.59334276 -5184.93799803
v 2802.20833370 10825.73445055 -5140.03324325
v 2142.06576092 11399.15721618 -4463.87721587
v 4857.28901385 13445.98516710 -18176.79669900
v 4512.27981450 13230.38094065 -17239.63602306
v 3687.80696430 13021.44176807 -13916.49260478
v 3094.54653250 12702.37794451 -12302.38663280
v 2455.42681609 12373.90919817 -11354.38542585
v 1764.88053996 11870.20225112 -10911.99154976
v 2364.52299831 12760.10263874 -3766.02653440
v 4910.44990883 14512.95613616 -18221.32146071
v 4209.98804796 14620.32750192 -17152.88314880
v 3783.27721995 14190.16943348 -15484.06206156
v 3212.03634156 14770.64050911 -13589.37564979
v 2881.20631474 14396.55572114 -12392.75979846
v 2330.71441411 14035.66685475 -11399.50452931
v 1677.77420570 13580.16666687 -10959.58405857
v 2619.02200852 13887.55549608 -3256.99376356
v 3058.05470439 14538.74716566 -3114.98806080
v 2522.26045068 14968.76749719 -2952.87017878
v 4418.24745071 15953.54275296 -17370.92417964
v 3470.54699050 16634.47010988 -15749.84179862
v 3105.39394277 16279.65222251 -13905.57276149
v 2768.18572979 16192.50778454 -12264.76333860
v 2245.67293533 15885.02683745 -11145.65415203
v 1582.00912212 15404.13682625 -10720.20986537
v 2613.41348704 16537.88756423 -2786.09852563
v 4108.18254759 17514.78354205 -16640.96172019
v 3203.18291561 18333.83800063 -15748.91174168
v 2805.42019594 18211.13899532 -15073.73533475
v 2437.24556959 18915.03592077 -14486.49425158
v 2814.08678861 18128.22415571 -13975.85763188
v 2834.40494832 17953.99014804 -12266.91204219
v 2364.33204720 18002.11891983 -10472.28869408
v 1471.49139464 17307.15283666 -10013.81945627
v 2834.35127280 18443.83356903 -2697.32381400
v 2863.97994549 19381.76861560 -15444.28210459
v 2434.53597110 19400.54144419 -13732.19379775
v 2210.22217583 20550.52785633 -13325.44568926
v 2935.37070019 19618.58509187 -12414.61877355
v 3065.58576306 19568.71371787 -10661.33080158
v 1391.91018529 19124.30309713 -8408.09682886
v 2676.19094011 19985.62222880 -8837.43574342
v 2027.92049985 20487.19243794 -6923.00866048
v 3042.90694672 20459.25055216 -2635.80741854
v 2985.33266878 20190.44625304 -15133.16697331
v 1592.93750013 20877.46511324 -14468.53715407
v 2444.74421054 21300.39648527 -13399.08009518
v 2619.36901651 21902.12226258 -5943.42605751
v 3204.24631591 22348.52297285 -2638.17418677
v 2025.65019964 21322.22860309 -13917.19053360
v 2961.42117459 23090.26823502 -5386.13226613
v 3483.39122397 23881.65914614 -5243.24002366
v 2985.06192450 23860.10685794 -4670.27022044
v 3387.24646258 23957.87363959 -2731.83088769
v 3061.86666397 24590.03744564 -4088.30691606
v 3541.10416095 24993.86197466 -2893.39868953
v 3361.15133287 25182.54053715 -3792.87325144
v 3397.32546507 25263.46178385 -3296.82345463
v -86.61044627 7614.38504395 -9348.22212377
v -302.67190599 7948.99900834 -9969.21646600
v -623.89600427 7543.41474483 -9609.73807320
v -463.32192222 7419.75211894 -8926.55845962
v 296.44762766 7808.52883749 -8633.77536244
v -336.91521833 7672.71683315 -8172.88663402
v 584.87215554 8372.11279010 -9652.83829796
v -297.43458937 8987.13632638 -10785.85758842
v 395.06514193 8430.41463411 -7270.48222985
v 22.29144579 9308.38654531 -5964.62217339
v 848.75681106 9677.82539861 -10479.76204843
v 55.60433859 10538.35353637 -11281.91137560
v 1342.78377539 10752.60762377 -4787.79447510
v 116.10459008 10761.01654743 -4846.99788477
v 952.35719916 11238.74428709 -10906.40596945
v 179.49211598 12249.73495430 -11538.88521643
v 1252.15278625 12264.72986121 -4005.96621201
v 62.26357637 12836.82704430 -3917.57610730
v 957.84518716 12984.74014693 -11042.11900129
v 218.60617148 14104.58736202 -11538.70084824
v 964.19120768 14152.10102268 -3479.22954241
v 37.12443229 14813.43611468 -3556.32868455
v 1897.58123766 13861.00615899 -3324.16739899
v 904.56841520 14828.53860113 -10905.67914455
v 170.32618882 16014.77763948 -11256.08805828
v 952.70453662 16118.06704739 -3365.25783176
v 138.99135321 16824.07187319 -3660.15971729
v 1768.63891241 15463.50684739 -3065.61412880
v 2475.28897965 19111.42329632 -15067.53824024
v 769.04849775 16685.82305691 -10403.27270685
v 43.37185835 17687.30219368 -10612.46943557
v 1192.90036656 18420.29642316 -3683.94996977
v 311.23796827 18698.58978627 -4366.52112170
v 1862.46563086 17374.30334643 -3021.19939004
v 2004.06167527 20010.40716228 -14867.28771551
v 1955.62085957 19763.33629175 -14346.37530597
v 375.87818089 18644.18375910 -9293.41157599
v 184.40699606 19687.61606059 -7509.02344761
v 1575.60626757 20489.54169041 -4908.68400788
v 562.36322280 19756.39715691 -6029.92752723
v 1797.43516007 20293.74998858 -3675.42968912
v 2115.40590355 19380.59957040 -3043.15348479
v 435.26812034 20444.18895055 -14335.93479671
v -20.55481492 21151.80001458 -14233.10862930
v 394.02872951 21171.05560020 -13498.84305097
v 2405.39851420 22524.51529334 -4799.48267716
v 2145.20818506 21905.08172643 -3885.72960314
v 2401.84306389 21266.10467169 -3079.97950491
v 580.42426740 21358.21735375 -13981.80968537
v 2638.62606273 23659.01012049 -3896.14986431
v 2685.00258556 22997.63334886 -3151.31609564
v 2982.22120778 24748.12627102 -3623.43979513
v 2996.39859273 24392.60759564 -3190.02145118
v -1174.73710957 8154.00894314 -10448.87713038
v -1124.26281002 7627.06116276 -9339.50650013
v -888.32810685 7559.62950559 -8536.73934410
v -1443.11040151 7954.53586480 -8678.62629970
v -1440.55461307 9129.70512663 -11846.19495347
v -2486.10420186 9322.61934421 -13089.50585128
v -2404.40484829 8717.18687872 -11653.60952597
v -945.03482030 8196.52906462 -7664.04185559
v -605.05789988 8819.50384217 -6570.42339326
v -807.80621684 9745.89109837 -5661.54620184
v -1611.48808460 10387.78121306 -13082.79255101
v -2215.46364188 11074.13239186 -14484.13974709
v -2530.95046775 9993.46291508 -14086.36825423
v -773.59472534 10008.75147689 -11864.53375723
v -988.74428567 10734.10130341 -4918.96395469
v -855.13248330 11912.90852786 -4291.33505711
v -1495.17402171 11432.57641990 -4708.90273671
v -1348.16998370 12329.54966605 -13658.95026089
v -2031.21209004 12308.09972099 -14914.97365396
v -652.80878943 11424.38591730 -12308.60587305
v -940.34187074 13746.68756039 -3698.17240661
v -1595.44962438 12656.70827693 -4163.87795607
v -2350.99956716 14351.38413166 -16079.23158901
v -3297.31725774 14337.45968702 -17098.26840862
v -3137.63427597 13097.18810435 -16707.53678778
v -2500.09875532 12784.47157308 -15833.23090378
v -1641.55702548 13936.86474883 -14715.68642581
v -963.99319783 14088.27819057 -13379.23124139
v -491.83115983 13232.45149898 -12452.81859641
v -779.22566522 15723.62940740 -3483.54854268
v -1694.95215617 13871.93247963 -3665.57087654
v -1558.73003834 15072.58685918 -3395.82699824
v -2075.93941293 14670.12041906 -3569.03978016
v -2380.66938798 15984.66045839 -16348.71407827
v -3451.10856504 15866.90804949 -17322.79753498
v -1606.45267208 15937.56968047 -15033.51696060
v -1001.09376337 15728.50136824 -13569.19129925
v -424.29067334 15127.67582066 -12356.11682957
v -708.23653780 17599.60547729 -3698.33142834
v -1558.39680393 16785.91447725 -3302.89672594
v -2234.59403090 16050.36984945 -3380.70986757
v -2522.26023895 17483.39698839 -16524.17785074
v -3658.50040159 17245.63606442 -17317.60893359
v -1609.83744400 17731.74127232 -15248.52834772
v -1013.33278701 17699.43669551 -13695.50277624
v -512.59362101 17366.73404743 -11993.73466298
v -753.47094718 19411.54438205 -4376.14911544
v -1589.81613124 18564.52128062 -3390.47292084
v -2482.15934575 18053.66454057 -3173.49443472
v -2837.56145693 18392.17452330 -16657.92730213
v -3768.79197411 18367.02527456 -17009.23591853
v -1805.91824352 19285.99762452 -15476.87230442
v -738.58792499 19636.65279020 -13865.92265885
v -820.89606890 19441.13181077 -12199.27950781
v -632.83395257 19478.48761801 -10308.60386591
v -716.36696289 20354.60684218 -8096.23930238
v -795.37477580 20577.70349326 -5892.34146909
v -1410.31056062 20792.30125743 -4290.83331103
v -1786.97403124 20197.45784263 -3469.02010483
v -2347.98819193 19596.59313285 -3057.87744749
v -2961.98344189 19135.95670735 -16345.53621524
v -3084.99343116 19934.78386193 -15616.56962483
v -1624.53312091 20840.86923838 -14561.88137351
v -959.28095823 21079.49783525 -12343.64684888
v -1215.76823615 20896.51787881 -10985.96734004
v -1752.74503096 21549.10047906 -9173.42308003
v -1908.45415448 22057.72875533 -6634.56599456
v -1834.83138158 22079.80538556 -4702.13299425
v -2168.34691929 21788.82851612 -3525.01827282
v -2698.15611671 21158.01001784 -2985.33141320
v -1050.04284685 21705.65466317 -13642.63099885
v -1456.20759737 22184.67641374 -12515.59255430
v -2721.97299714 22611.41584516 -12759.52539887
v -2094.26140911 22442.90293553 -11013.67254619
v -3085.94263220 22635.17716475 -9512.12644909
v -2966.72074477 22505.30568615 -7891.98176078
v -3175.13993072 23440.01149284 -6190.12864737
v -2621.18393272 23758.86496136 -4803.36067340
v -3405.66961906 24810.12769700 -5058.80899344
v -2609.71522611 23458.55262103 -3620.02256517
v -3084.85038373 23000.06465058 -2930.92952318
v -2484.33572978 23185.65271608 -11824.11717405
v -3302.04324670 23497.04257322 -11825.32582164
v -2769.59427924 23490.17075927 -11261.79756536
v -3434.45597492 23353.06389144 -10641.29116742
v -3121.55994788 25223.53269616 -4214.59012381
v -3679.89891708 26083.46487345 -4205.50098877
v -3027.34550072 24985.29945955 -3611.75249620
v -3489.48573031 24890.42338532 -2906.48242849
v -2890.54052260 23701.74696048 -11558.43221220
v -3440.39123438 26125.23962193 -3599.11499828
v -3555.35918150 26002.44550755 -3109.30965071
v -2072.39918326 8393.78093759 -9824.55292380
v -3928.91075933 9316.99475845 -14789.00011014
v -4431.94866368 9508.26519188 -15655.69618950
v -4999.62374218 9008.93056094 -15055.14371286
v -3901.75506033 9054.35203228 -13383.82120579
v -3195.82259833 9455.38071762 -14192.27071032
v -5043.95979948 9660.55429222 -12484.63817548
v -3430.99751308 9228.07113066 -11102.12559382
v -2815.00550057 9341.43356879 -9359.81153964
v -2011.75995948 8985.33005212 -8086.95339387
v -1424.51605988 9284.22643612 -6618.43403815
v -3325.72523561 10244.94361809 -15279.44930243
v -4462.22504983 10237.21506616 -16415.15707985
v -4252.75316031 10067.34158936 -11055.87384237
v -4305.16597971 10832.73310722 -10428.03288020
v -3612.21312852 10380.52906845 -9691.77299809
v -2873.49447384 10407.17934306 -8045.18652938
v -2204.44050960 10396.03401981 -6590.44020548
v -1581.04486864 10466.88362061 -5519.56287187
v -3534.84630814 11589.86231018 -16439.66022549
v -4382.79673955 12515.18555643 -17416.76297767
v -4675.83093703 11060.28952614 -17119.17629812
v -2670.77951974 11550.86469139 -15484.56758304
v -4085.17514385 11484.09990769 -9552.10116162
v -4321.68959559 12671.14111574 -9086.85630268
v -3599.00369446 11976.66780424 -8159.60883184
v -2867.07161308 11929.75692521 -6519.41954435
v -2150.34170898 11928.51630776 -5144.86354664
v -4624.36161177 14180.61875178 -17841.23781261
v -4062.15920686 13655.51654981 -7856.62064109
v -4509.60952460 13687.11606459 -8746.03181884
v -3446.88527276 13606.12973096 -6482.41571781
v -2795.94690578 13560.28491096 -5107.33452811
v -2184.86520369 13568.83655946 -4139.64003165
v -4855.52723817 15732.01346370 -17916.86429525
v -4641.67390999 14930.08179584 -8172.94325377
v -4479.98681620 16331.06373332 -6882.45203053
v -4001.12144499 15122.21687669 -6616.26435616
v -3387.62970488 15444.15899307 -5035.64238450
v -2635.47263819 15016.22462335 -4013.95103392
v -5181.48298380 17177.71487245 -17633.71014619
v -4070.30257244 16747.16919632 -5589.36100028
v -3680.08437658 17110.89750665 -4471.38902238
v -3655.07987203 18078.26611939 -3874.94437317
v -3064.39098969 16899.66634032 -3748.93471186
v -4825.28968718 18454.71895225 -16921.81451618
v -3767.23555761 19220.88444947 -16459.22552065
v -3909.99706151 19643.37098714 -16024.02814787
v -4543.25454959 19218.07746183 -16294.97224362
v -4485.40389211 19846.06800124 -15446.39765767
v -3304.71437221 18524.47448837 -3368.81716786
v -3281.28854611 20081.93272538 -3081.53725094
v -2541.25972772 21719.84827926 -13802.70016835
v -3413.49169169 20921.53792081 -14529.32659516
v -3919.38184020 21897.29242477 -13387.52703783
v -3971.97723719 22734.06188402 -7251.95650616
v -4725.82130226 21879.12007367 -7922.40850340
v -4230.89252030 22403.98660268 -8726.64055035
v -4695.97339676 22307.40509851 -6749.23978008
v -3711.90311872 22236.74680929 -2861.07197780
v -4408.47021917 22943.76534506 -12210.33910928
v -4283.58163648 23002.87166981 -9817.52137953
v -4203.05360802 23817.90427672 -5992.75309978
v -3626.65381255 24240.14009032 -5702.74913810
v -4117.83550036 24228.35168598 -2677.98659304
v -4246.03027241 23571.98656272 -11238.35577118
v -3275.38696328 23736.43026744 -11303.82599473
v -4535.15235934 23435.62675761 -10499.14717833
v -3943.50164270 24775.41237301 -5431.01879162
v -4215.07984087 25790.49471224 -4792.38868829
v -4164.50768075 25441.27619947 -2626.66999090
v -3916.59723142 26888.86149763 -3633.99095895
v -4423.41362703 27057.41535153 -3948.43897929
v -3954.19261332 26916.97267416 -3178.34548017
v -4280.06429516 26519.03047103 -2797.09839887
v -4392.75490843 27554.24599756 -3374.83019788
v -4475.61285660 27506.70507413 -3012.53689223
v -5662.30477126 9350.34708323 -16299.55622421
v -6333.36916557 8763.75614186 -15519.05164042
v -5983.05783376 8929.09004325 -14253.87048980
v -6749.69346216 9624.46202661 -13498.01774962
v -5424.07677581 10215.64235499 -17063.32360045
v -5832.17031723 11054.57008123 -17647.20603597
v -6697.28373302 9796.80268519 -17282.57159778
v -4999.65212741 10794.37417399 -11368.02079856
v -6207.50132258 10798.83764930 -12424.40779517
v -6047.02235430 12483.90363883 -18109.01361370
v -5660.75384054 12082.41068391 -11280.59587781
v -6988.85311904 12413.56761374 -12357.17110820
v -4719.30083651 11847.89416277 -10292.90699781
v -6205.20019293 14085.24109764 -18317.80050718
v -6077.72748732 13408.49910932 -11193.88953527
v -5902.29336859 14574.63295696 -10568.65646041
v -5132.68812595 13554.69348535 -9859.10726334
v -6554.74447327 15517.39685028 -18225.27758727
v -5413.01042829 15485.66480945 -9389.17216087
v -5024.19722302 16768.48301013 -7941.01947483
v -5658.27320469 17276.98047518 -9231.94853504
v -7071.32103807 16603.95210600 -17889.67541610
v -5240.75551584 18616.79776509 -7778.83005225
v -5746.86244897 19239.17790696 -9210.26695772
v -4692.11851306 18120.00492932 -6283.09084401
v -4156.97916320 18315.64483232 -4718.04607349
v -6115.79633838 17683.20895059 -17293.39089329
v -6024.67754889 18482.19832984 -16242.22869681
v -5732.05340384 19449.74396221 -14903.56771141
v -5172.46053097 20657.16238271 -7616.39069216
v -5518.00788214 21326.73060299 -9284.78175831
v -5012.56574197 19832.93047243 -6479.75601994
v -4735.61300652 20327.17550340 -4908.00745033
v -3956.62366005 19476.93506658 -3777.04648145
v -4886.09006916 20696.74888909 -14124.45218510
v -5453.09649634 21749.50621090 -12734.01255775
v -5110.99154515 22506.12650080 -9590.76860681
v -5052.23987297 21568.32918509 -5918.21377377
v -5163.71388403 21925.25069918 -4877.38649768
v -5031.88881436 21955.67991321 -4186.64613665
v -5093.33993119 23025.61746365 -3577.84524154
v -4404.36311358 21493.89863104 -3504.84523517
v -5617.22913114 22817.16639327 -11952.34417222
v -5270.99789685 23090.15592967 -10182.86928540
v -4959.61677298 23233.54828974 -5654.39029357
v -5253.96436772 22793.03520570 -5109.04947424
v -4627.86215320 23302.89225990 -2970.30059495
v -5162.78567645 24088.96226847 -3163.14352375
v -5384.26143382 23326.07618826 -11446.51478113
v -5324.56771086 23435.93396727 -10786.73769827
v -4423.21607677 24987.78824631 -5343.77914285
v -4882.22350942 24640.67241110 -5239.10089330
v -4872.67042420 24559.21732524 -2817.22296864
v -4772.94638874 25713.99331448 -2742.96783631
v -4784.26667257 25619.95434133 -4904.67922182
v -4900.54784364 26567.80460029 -4305.09775293
v -4974.20356656 26911.34118319 -2851.58979775
v -4804.03362785 27858.90922843 -3508.25874874
v -5049.51451719 27572.98126837 -3716.82492020
v -4850.63325601 27991.38231318 -3177.33101227
v -4891.12363485 27606.59924002 -2935.08087487
v -5109.08909566 28081.95503865 -3369.85412767
v -5166.61707784 28023.23511135 -3153.19365934
v -7571.51246713 8745.75565290 -16490.99015106
v -7653.45551948 8476.76622436 -15189.34794410
v -7465.73954014 8891.08668990 -14318.69304289
v -9102.17536122 8592.85721373 -14566.48346296
v -8030.34642220 10578.31148138 -18167.59482715
v -7877.79330776 9344.75489325 -17439.96741760
v -8015.11754198 9398.89007700 -13960.20508447
v -7967.51066881 10683.73011029 -13367.14012571
v -7512.91485080 12581.97068354 -18492.59514790
v -8135.25944365 12050.68022663 -13145.13789281
v -7979.51857535 13852.59227228 -18547.97969139
v -6782.29757473 14592.05586085 -11778.76744363
v -8200.32775846 13526.11118652 -13164.75852723
v -8358.83892474 15214.93119189 -18319.69148489
v -7963.79012440 16562.65332183 -14369.60682655
v -9130.10545116 15614.11662146 -15149.16083684
v -8311.58168361 16758.27984638 -15447.17866343
v -7472.26589642 15974.37850840 -12930.23244429
v -8777.37120098 14869.12056804 -14114.54444607
v -6708.16715885 16424.66249890 -11567.40147601
v -6134.95694671 15989.39317582 -10527.66219808
v -8696.90154057 16208.83652964 -17947.43660986
v -7039.73624185 18088.39386194 -14932.16631222
v -7945.69341646 17275.25643741 -16270.94736586
v -7039.86260062 17965.50979713 -13379.80851169
v -6785.17292123 17900.42514995 -11956.18631557
v -6270.78962994 17771.09623654 -10560.26872850
v -7717.30929887 17179.51387078 -17279.51467025
v -6211.13897393 19810.98247948 -13519.99543547
v -6622.61765455 19347.96015767 -12352.85746988
v -6365.99862403 19941.79552751 -10843.23266564
v -6408.04912142 21001.12660816 -11962.04607437
v -6596.89165252 21382.40405819 -11055.11740942
v -6331.59103433 21494.05237762 -10398.44618461
v -5993.64293904 22433.07091634 -10164.84798958
v -5320.78870523 23025.24099604 -4343.28597836
v -6249.79221648 22331.65036684 -11789.09649915
v -6620.00017278 22012.71100970 -11349.09207183
v -5938.24270278 23111.61973633 -10523.80844116
v -5319.44776902 24196.16092974 -4654.63182621
v -5395.28840860 24207.84547317 -3748.19629837
v -6102.96329334 23019.78266567 -11478.57832880
v -6079.00098185 23208.42887677 -10998.55910062
v -5212.38071694 25668.09003524 -4483.99594684
v -5433.89732450 25513.96842586 -3808.57974221
v -5272.81262860 25159.91155566 -3161.18131295
v -5320.47419464 26880.29495324 -3713.91757796
v -5288.65021669 26413.83498972 -3167.29477677
v -5286.11227362 27822.56256773 -3396.39766131
v -5260.25749108 27473.43051677 -3141.63369843
v -9710.88061969 7691.17134400 -15799.13810804
v -10506.73817780 7430.03616056 -16885.93993755
v -11220.93055911 6793.42534840 -16185.76388787
v -10942.01275402 6847.04605532 -15489.42467314
v -10659.03104041 7134.94741478 -15215.28097692
v -11374.64314987 6841.54373762 -15057.71197736
v -9347.46412943 8583.44143780 -17480.62964378
v -10577.91837495 8424.52578612 -18277.36407042
v -10881.95265374 7667.60434421 -17718.14195446
v -10856.48705841 7632.24473623 -14746.62084772
v -10300.91373206 8442.87075343 -14405.96648657
v -9922.49463427 9399.15232224 -18536.79257888
v -10737.98838653 9700.85921388 -18997.70101868
v -11137.70630082 8854.74853227 -18824.73321582
v -8915.50479547 9601.53361839 -13974.46032145
v -10124.87339141 9271.08011077 -14135.89375841
v -9830.02340113 10405.24313074 -18815.76898336
v -9456.68658963 11873.81527878 -18732.27897146
v -9420.94657112 10290.13649360 -13815.58524307
v -9417.69572003 11640.76716482 -13663.80225900
v -9932.61059991 13546.61864502 -18521.03803996
v -9865.19693697 13163.02070341 -14096.41827386
v -9972.65566055 14996.67499350 -18159.02867829
v -10205.94100783 14978.59338672 -15649.35480928
v -9440.44853655 16061.98403011 -16219.09400979
v -10060.41728911 14295.18426514 -14858.05623306
v -9873.23465392 15940.92022376 -17848.52606096
v -9072.38245250 16651.10624890 -17076.97932639
v -9077.45225581 16582.11268145 -17620.89112493
v -6564.88205273 22217.93118679 -10780.55517757
v -6498.31230370 22716.01449780 -11172.63754455
v -6376.86709007 22837.15655368 -10694.94594564
v -11615.70970625 6930.77419155 -17152.47839512
v -12815.51861995 6185.09503166 -16458.96674582
v -12071.85569561 6409.17799984 -15484.46542918
v -12636.60940887 6767.58079140 -14734.25868384
v -11739.00904809 7850.79401305 -18364.11714282
v -11726.27036924 7250.20757254 -17799.59230096
v -12176.44665278 7779.93982970 -14326.21208242
v -11183.12137399 8497.69197820 -14254.60856087
v -11780.54941330 9363.29901278 -19134.04546897
v -12145.10562250 8495.81676397 -18930.41417294
v -11276.64374379 9336.38934562 -14054.39430977
v -11049.53709084 10474.30734357 -19048.41897865
v -11899.81878433 11518.55409314 -18742.95895232
v -10658.66835432 10315.73717514 -13952.23019672
v -11653.30518685 11414.04616747 -14177.01036592
v -11869.17280943 13407.60505766 -18014.86169548
v -11296.66316141 13879.10464602 -15430.34767788
v -12803.74665053 13273.00145530 -16033.31119108
v -11022.55700589 14847.85362289 -16445.03129461
v -11084.28203959 13091.64063538 -14673.92604755
v -12519.24960385 12502.57536236 -14943.07048312
v -10907.41152011 15023.67632008 -17748.04811966
v -10188.33396887 15904.91783560 -17086.54877875
v -10426.32586448 15790.40527844 -17573.39712893
v -9798.08938664 16293.80119738 -17522.07679578
v -12795.77749596 6871.69532267 -17731.73585620
v -14527.87620759 6847.10243160 -18167.58126492
v -14255.25069434 5905.90124771 -17138.35806883
v -14260.87469427 5473.13771455 -16222.46290621
v -13764.40193481 5767.79798997 -15382.44576278
v -14546.20145044 6083.59393173 -14586.05510788
v -13048.34773713 7751.16666199 -18626.47675352
v -13025.65992039 8767.35378863 -19100.97327163
v -14056.69272344 7967.64048806 -18825.14959520
v -12369.38167695 8731.92919959 -14078.78293686
v -13879.60236212 7540.15710136 -14170.27998106
v -12553.45068381 9876.37852511 -19130.35602646
v -13434.18236958 9286.19938069 -19154.80953693
v -14007.66787987 9769.11935421 -18861.91694087
v -11948.12064105 9866.57861836 -14009.21205245
v -13652.91000267 9440.95829539 -14040.14381228
v -14296.41595094 11377.27585243 -18137.98310508
v -13958.34539961 11005.89305928 -14427.98061332
v -13879.67340301 12660.22850252 -17068.61097558
v -11956.35783419 14155.79447144 -17149.47872169
v -14549.79188171 12358.28076179 -16017.58706088
v -14247.23137042 12005.24068740 -15188.68001896
v -10970.57998479 15234.02145513 -17267.38122843
v -15454.13061545 5141.22927475 -16537.89379374
v -15785.15064064 5661.43790273 -17462.02959717
v -16916.61047483 4929.83086568 -16763.61330059
v -16415.30872139 4743.48475176 -15863.58490059
v -15142.52328948 5065.78356162 -15660.10611509
v -15956.01846843 4899.37487938 -15201.94800076
v -15079.81073506 5295.23302888 -15011.29864888
v -16023.68955986 5366.64942692 -14672.33594810
v -16179.11349343 6418.93616032 -18110.78928142
v -15914.56310636 6421.44722819 -14201.16731460
v -14042.14487210 8731.28038669 -19032.73764386
v -15556.69780055 7946.31699995 -18609.77462006
v -15793.08403268 7920.17472890 -13962.10987951
v -16087.66487143 9538.88793204 -18416.64822461
v -15795.88535791 9517.70659588 -14106.82933262
v -16598.10927498 10644.44057232 -17839.76171393
v -15776.38970227 10829.14090864 -14636.67773604
v -15570.69995698 11633.04713205 -17383.89644668
v -15952.07454473 11802.28408782 -16448.04611387
v -15808.61553480 11592.23558998 -15424.87936137
v -17359.26784040 5541.80008510 -17596.21712187
v -18509.86347428 4886.48425659 -16881.08321433
v -17877.72678314 4642.06582290 -15980.08824515
v -17088.93740491 4836.57459382 -15165.89247118
v -17451.77763150 5511.15398932 -14523.15445725
v -17579.79300743 6615.74589710 -18173.23788190
v -17616.76225405 6680.94793020 -14078.91393896
v -17776.63871359 7998.30570762 -18338.65847666
v -17677.47227700 8122.76138515 -13976.74902708
v -18130.84626957 9317.12020763 -18027.47440469
v -17724.49001109 9625.02520515 -14344.12896384
v -18332.02633142 10307.70618513 -17399.11440791
v -17255.81063814 11176.57963567 -15652.02296981
v -18771.05303873 10640.43739858 -15924.19826999
v -17476.19635038 11246.67432590 -16394.97301192
v -17016.58115352 10797.93745814 -14925.56812243
v -18424.06933462 10322.70724026 -15009.51986695
v -17049.67801970 11189.37846497 -17098.75276319
v -19021.13806640 5612.16809224 -17620.74605417
v -20119.82188114 4983.97794616 -16922.78490686
v -19475.64888723 4703.95629956 -16081.10167819
v -18619.53162696 4903.04445289 -15196.67112888
v -19140.90774764 5725.23287226 -14546.39439217
v -19363.16761681 6728.32868417 -18037.96721854
v -19352.16020327 6928.93279674 -14142.67157012
v -19702.41438955 7964.61162983 -18003.69809640
v -19426.93835383 8210.11995254 -14128.41558766
v -20075.74039633 9150.41308671 -17465.74420795
v -19651.28372506 9260.93908718 -14525.52767862
v -19690.12466601 10126.49335367 -16683.27645113
v -18284.59228901 10821.88854594 -16749.59185425
v -20145.73260262 10084.53898132 -15874.30534684
v -19911.48317068 9905.86883293 -15193.95159975
v -20844.93081566 5766.99328531 -17497.72045188
v -21372.82484820 5113.50438710 -16890.78284239
v -20989.88135708 4890.41461128 -16221.94326799
v -20278.18685801 5096.46924036 -15336.68214692
v -20993.18797348 6089.90599020 -14760.88028498
v -20869.32768156 6865.37193541 -17824.42673084
v -20688.57687047 7239.18613361 -14295.84657102
v -21614.14985895 7733.28548154 -17549.76076860
v -20948.63056402 8172.71683282 -14427.40595133
v -21725.12145556 8677.83636621 -17049.52544473
v -20920.43022197 9445.12767630 -16840.11344838
v -21759.08431783 9122.93195452 -16499.14964277
v -21029.18382605 9048.20149610 -14832.21682670
v -21000.97302268 9666.19493270 -16206.79862255
v -21078.11961691 9533.36334846 -15465.65621855
v -22125.79645389 5534.42902566 -17070.62260659
v -22204.20289484 5224.05079509 -16458.09086681
v -21810.23955945 5332.84243596 -15653.55777261
v -22347.21211603 6399.94923197 -17386.96104979
v -23169.40068183 5826.74239872 -16741.44089599
v -22878.25323649 5585.57504615 -16059.85240473
v -22646.00598408 6061.53669812 -15413.14357767
v -22106.26664243 7100.42635140 -14807.89171680
v -23134.67501309 7114.56841380 -17226.80310120
v -22073.50363760 8190.69456251 -14883.41102799
v -22683.00363575 7889.80143868 -17078.56041797
v -21962.93851298 9051.82027872 -15852.36390703
v -22694.57397187 8321.71115964 -16408.34260348
v -21887.47922102 8885.95297420 -15216.98324124
v -22666.85474988 8277.38066900 -15528.23736908
v -23671.43538403 6434.44211184 -17050.70076132
v -24016.05074744 6200.00375686 -16689.10654076
v -23680.57784512 6137.95724926 -16136.61202111
v -23346.32135129 6772.05100546 -15546.77844445
v -24005.97624702 6682.39329327 -16123.21671138
v -23948.61241993 6854.34593069 -16950.75280887
v -23537.86713514 7424.91851594 -16751.62711551
v -23523.79343962 7415.22132009 -15992.33424950
v -24134.60079994 6867.13013851 -16546.76082285
v -22922.63780245 7543.94961539 -15250.73031399
v -24227.71973421 6516.10489367 -16803.46271944
v -24242.45802062 6428.52800586 -16482.30534286
f 3 2 1
f 1 4 3
f 2 5 1
f 1 5 4
f 8 7 6
f 10 9 6
f 6 9 8
f 10 11 9
f 13 12 3
f 3 12 2
f 3 4 13
f 13 4 14
f 7 15 6
f 17 16 15
f 16 6 15
f 16 10 6
f 11 10 18
f 18 10 16
f 12 19 2
f 2 19 5
f 4 5 14
f 14 5 19
f 16 17 20
f 20 17 21
f 18 16 22
f 22 16 20
f 21 23 20
f 20 23 22
f 26 25 24
f 7 8 24
f 8 26 24
f 8 27 26
f 28 8 9
f 28 27 8
f 9 11 28
f 28 11 29
f 31 30 13
f 13 30 12
f 32 24 14
f 24 31 14
f 31 13 14
f 24 25 31
f 33 15 7
f 24 33 7
f 32 33 24
f 33 17 15
f 18 29 11
f 18 34 29
f 30 35 12
f 12 35 19
f 19 35 14
f 35 36 14
f 36 32 14
f 36 35 37
f 32 38 33
f 32 36 38
f 38 21 17
f 38 17 33
f 22 34 18
f 22 39 34
f 37 40 36
f 36 40 38
f 38 40 41
f 38 41 21
f 41 23 21
f 41 42 23
f 22 23 39
f 39 23 42
f 44 43 26
f 26 43 25
f 45 26 27
f 45 44 26
f 46 27 28
f 46 45 27
f 28 29 46
f 46 29 47
f 49 48 31
f 31 48 30
f 31 25 43
f 31 43 49
f 34 47 29
f 34 50 47
f 35 30 51
f 30 52 51
f 30 48 52
f 51 37 35
f 39 50 34
f 39 53 50
f 52 54 51
f 54 56 55
f 54 55 40
f 51 54 40
f 37 51 40
f 57 41 40
f 57 40 55
f 41 57 58
f 59 41 58
f 42 41 59
f 39 42 53
f 53 42 59
f 56 60 55
f 55 60 57
f 57 60 61
f 57 61 58
f 63 62 44
f 44 62 43
f 64 44 45
f 64 63 44
f 65 45 46
f 65 64 45
f 46 47 65
f 65 47 66
f 68 67 49
f 49 67 48
f 49 43 62
f 49 62 68
f 50 66 47
f 50 69 66
f 67 52 48
f 70 52 67
f 73 72 71
f 75 74 71
f 75 71 72
f 75 69 74
f 69 53 74
f 69 50 53
f 70 76 52
f 52 76 54
f 56 54 76
f 56 76 77
f 73 71 78
f 73 78 79
f 58 78 59
f 78 74 59
f 78 71 74
f 59 74 53
f 77 80 56
f 56 80 60
f 78 61 79
f 61 80 79
f 61 60 80
f 61 78 58
f 82 81 63
f 63 81 62
f 83 63 64
f 83 82 63
f 84 64 65
f 84 83 64
f 65 66 84
f 84 66 85
f 87 86 68
f 68 86 67
f 68 62 81
f 68 81 87
f 69 85 66
f 69 88 85
f 86 70 67
f 89 70 86
f 91 90 72
f 91 72 73
f 72 92 75
f 90 92 72
f 69 75 88
f 88 75 92
f 89 93 70
f 70 93 76
f 77 76 93
f 77 93 94
f 79 91 73
f 79 95 91
f 94 96 77
f 77 96 80
f 79 80 95
f 95 80 96
f 98 97 82
f 82 97 81
f 99 82 83
f 99 98 82
f 100 83 84
f 100 99 83
f 84 85 100
f 100 85 101
f 103 102 87
f 87 102 86
f 87 81 97
f 87 97 103
f 88 101 85
f 88 104 101
f 102 89 86
f 105 89 102
f 91 106 90
f 107 92 90
f 107 90 106
f 107 108 92
f 108 88 92
f 108 104 88
f 105 109 89
f 89 109 93
f 94 93 109
f 94 109 110
f 112 111 106
f 91 112 106
f 95 112 91
f 106 111 107
f 107 111 113
f 107 113 108
f 110 114 94
f 94 114 96
f 95 96 112
f 112 96 114
f 116 115 98
f 98 115 97
f 117 98 99
f 117 116 98
f 118 99 100
f 118 117 99
f 100 101 118
f 118 101 119
f 121 120 103
f 103 120 102
f 103 97 115
f 103 115 121
f 104 119 101
f 104 122 119
f 120 105 102
f 123 105 120
f 108 122 104
f 108 124 122
f 123 125 105
f 105 125 109
f 110 109 125
f 110 125 126
f 128 127 111
f 128 111 112
f 111 129 113
f 127 129 111
f 108 113 124
f 124 113 129
f 114 110 130
f 110 131 130
f 110 126 131
f 130 132 114
f 132 112 114
f 132 128 112
f 131 133 130
f 130 133 132
f 135 134 116
f 116 134 115
f 136 116 117
f 136 135 116
f 137 117 118
f 137 136 117
f 118 119 137
f 137 119 138
f 140 139 121
f 121 139 120
f 121 115 134
f 121 134 140
f 122 138 119
f 122 141 138
f 139 123 120
f 142 123 139
f 124 141 122
f 124 143 141
f 142 144 123
f 123 144 125
f 126 125 144
f 126 144 145
f 147 146 127
f 147 127 128
f 127 148 129
f 146 148 127
f 124 129 143
f 143 129 148
f 145 131 126
f 149 131 145
f 132 147 128
f 132 150 147
f 149 151 131
f 131 151 133
f 132 133 150
f 150 133 151
f 153 152 135
f 135 152 134
f 154 135 136
f 154 153 135
f 155 136 137
f 155 154 136
f 137 138 155
f 155 138 156
f 158 157 140
f 140 157 139
f 140 134 152
f 140 152 158
f 141 156 138
f 141 159 156
f 157 142 139
f 160 142 157
f 143 159 141
f 143 161 159
f 160 162 142
f 142 162 144
f 145 144 162
f 145 162 163
f 165 164 146
f 165 146 147
f 146 166 148
f 164 166 146
f 143 148 161
f 161 148 166
f 163 149 145
f 167 149 163
f 150 165 147
f 150 168 165
f 167 169 149
f 149 169 151
f 150 151 168
f 168 151 169
f 170 152 153
f 154 171 153
f 153 171 170
f 155 172 154
f 154 172 171
f 156 172 155
f 174 173 158
f 158 173 157
f 158 152 170
f 175 158 170
f 174 158 175
f 175 170 171
f 175 171 176
f 176 171 172
f 176 172 177
f 172 156 177
f 156 178 177
f 156 159 178
f 173 160 157
f 179 160 173
f 161 178 159
f 161 180 178
f 179 181 160
f 160 181 162
f 163 162 181
f 163 181 182
f 184 183 164
f 184 164 165
f 164 185 166
f 183 185 164
f 161 166 180
f 180 166 185
f 182 167 163
f 186 167 182
f 168 184 165
f 168 187 184
f 169 167 188
f 167 189 188
f 167 186 189
f 188 190 169
f 190 168 169
f 190 187 168
f 193 192 191
f 195 194 191
f 191 194 193
f 195 196 194
f 189 197 188
f 188 197 190
f 191 192 198
f 198 192 199
f 191 200 195
f 191 198 200
f 196 195 201
f 201 195 200
f 199 202 198
f 198 202 200
f 200 202 203
f 200 203 201
f 205 204 174
f 174 204 173
f 206 174 175
f 206 205 174
f 207 175 176
f 207 206 175
f 208 176 177
f 208 207 176
f 177 178 208
f 208 178 209
f 211 179 210
f 179 204 210
f 179 173 204
f 212 211 210
f 180 209 178
f 180 213 209
f 211 181 179
f 182 181 211
f 212 182 211
f 214 182 212
f 184 215 183
f 216 185 183
f 216 183 215
f 213 180 217
f 180 216 217
f 216 218 217
f 180 185 216
f 218 219 217
f 214 186 182
f 220 186 214
f 187 221 215
f 187 215 184
f 215 222 216
f 215 221 222
f 216 223 218
f 216 222 223
f 219 218 224
f 218 225 224
f 218 223 225
f 225 226 224
f 220 189 186
f 227 189 220
f 190 228 221
f 190 221 187
f 221 229 222
f 221 228 229
f 229 192 193
f 223 229 193
f 222 229 223
f 223 193 194
f 223 194 225
f 231 230 196
f 196 230 194
f 230 226 194
f 226 225 194
f 231 232 230
f 227 233 189
f 189 233 197
f 190 197 228
f 197 234 228
f 197 233 234
f 236 235 234
f 235 228 234
f 235 229 228
f 235 199 192
f 235 192 229
f 201 237 231
f 201 231 196
f 232 231 238
f 238 231 237
f 236 239 235
f 239 241 240
f 239 240 202
f 235 239 202
f 199 235 202
f 242 203 202
f 242 202 240
f 242 243 203
f 203 243 201
f 243 244 201
f 244 237 201
f 237 244 238
f 240 241 245
f 245 241 246
f 240 247 242
f 240 245 247
f 243 242 248
f 248 242 247
f 245 246 249
f 249 246 250
f 252 247 251
f 247 249 251
f 247 245 249
f 247 252 248
f 250 253 249
f 249 253 251
f 254 204 205
f 206 255 205
f 205 255 254
f 207 256 206
f 206 256 255
f 256 207 257
f 207 258 257
f 207 208 258
f 260 259 209
f 259 208 209
f 259 258 208
f 260 261 259
f 263 210 262
f 210 204 262
f 262 204 254
f 264 262 254
f 264 266 265
f 266 263 265
f 212 265 263
f 265 212 255
f 210 255 212
f 255 210 266
f 266 254 255
f 264 254 266
f 266 210 263
f 265 255 256
f 265 256 267
f 267 256 257
f 213 268 260
f 213 260 209
f 261 260 269
f 269 260 268
f 262 270 263
f 212 263 270
f 271 212 270
f 214 212 271
f 217 268 213
f 273 272 219
f 219 272 217
f 272 269 217
f 269 268 217
f 275 274 273
f 273 274 272
f 275 276 274
f 271 220 214
f 277 220 271
f 224 273 219
f 273 224 226
f 278 273 226
f 275 273 278
f 276 275 279
f 275 280 279
f 275 278 280
f 280 281 279
f 277 227 220
f 282 227 277
f 230 278 226
f 278 230 232
f 283 278 232
f 280 278 283
f 281 280 284
f 280 285 284
f 280 283 285
f 285 286 284
f 282 287 227
f 227 287 233
f 287 289 288
f 234 287 288
f 233 287 234
f 288 236 234
f 238 290 283
f 238 283 232
f 283 291 285
f 283 290 291
f 286 285 292
f 292 285 291
f 289 293 288
f 293 295 294
f 293 294 239
f 288 293 239
f 236 288 239
f 294 241 239
f 243 296 244
f 290 238 244
f 296 290 244
f 297 290 296
f 290 298 291
f 290 297 298
f 292 291 299
f 291 300 299
f 291 298 300
f 300 301 299
f 295 302 294
f 246 241 294
f 303 246 294
f 302 303 294
f 246 303 304
f 306 305 304
f 306 304 303
f 306 307 296
f 248 306 296
f 243 248 296
f 305 306 248
f 309 308 307
f 308 296 307
f 308 297 296
f 297 310 298
f 297 308 310
f 298 311 300
f 298 310 311
f 301 300 312
f 312 300 311
f 313 250 304
f 304 250 246
f 251 313 252
f 313 305 252
f 313 304 305
f 252 305 248
f 309 314 308
f 316 315 314
f 315 308 314
f 315 310 308
f 310 317 311
f 310 315 317
f 312 311 318
f 318 311 317
f 313 253 250
f 253 313 251
f 315 316 319
f 319 316 320
f 315 321 317
f 315 319 321
f 318 317 322
f 322 317 321
f 320 323 319
f 319 323 321
f 321 323 324
f 321 324 322
f 327 326 325
f 329 328 325
f 325 328 327
f 331 330 329
f 329 330 328
f 331 332 330
f 334 333 258
f 258 333 257
f 259 325 326
f 334 259 326
f 258 259 334
f 325 259 261
f 335 325 261
f 329 325 335
f 329 336 331
f 329 335 336
f 332 331 337
f 337 331 336
f 339 338 264
f 264 338 262
f 340 264 265
f 340 339 264
f 342 340 341
f 340 267 341
f 340 265 267
f 343 341 267
f 257 343 267
f 333 343 257
f 269 344 335
f 269 335 261
f 335 345 336
f 335 344 345
f 337 336 346
f 336 347 346
f 336 345 347
f 349 348 347
f 347 348 346
f 349 350 348
f 270 262 351
f 262 352 351
f 262 338 352
f 351 271 270
f 353 342 341
f 353 341 343
f 272 344 269
f 344 272 274
f 344 274 345
f 345 274 276
f 354 345 276
f 347 345 354
f 347 355 349
f 347 354 355
f 350 349 356
f 356 349 355
f 352 357 351
f 271 351 357
f 358 271 357
f 277 271 358
f 279 354 276
f 354 279 281
f 359 354 281
f 355 354 359
f 356 355 360
f 355 361 360
f 355 359 361
f 361 362 360
f 358 282 277
f 363 282 358
f 284 359 281
f 359 284 286
f 364 359 286
f 361 359 364
f 362 361 365
f 365 361 364
f 363 366 282
f 282 366 287
f 289 287 366
f 289 366 367
f 292 368 364
f 292 364 286
f 365 364 369
f 369 364 368
f 367 370 289
f 289 370 293
f 295 293 370
f 295 370 371
f 374 373 372
f 376 375 372
f 376 372 373
f 378 377 375
f 378 375 376
f 379 377 378
f 299 368 292
f 299 301 368
f 301 369 368
f 301 380 369
f 371 381 295
f 295 381 302
f 372 303 374
f 303 381 374
f 303 302 381
f 303 372 306
f 306 372 375
f 306 375 307
f 307 375 377
f 309 307 377
f 379 309 377
f 382 309 379
f 312 380 301
f 312 383 380
f 382 384 309
f 309 384 314
f 316 314 384
f 316 384 385
f 318 383 312
f 318 386 383
f 388 320 387
f 320 385 387
f 320 316 385
f 390 389 388
f 390 388 387
f 390 386 389
f 386 322 389
f 386 318 322
f 388 323 320
f 323 388 324
f 324 388 389
f 324 389 322
f 391 326 327
f 328 392 327
f 327 392 391
f 392 328 393
f 328 394 393
f 328 330 394
f 396 395 332
f 395 330 332
f 395 394 330
f 396 397 395
f 398 333 334
f 326 391 334
f 391 398 334
f 391 399 398
f 400 391 392
f 399 391 400
f 392 393 401
f 392 401 400
f 337 402 396
f 337 396 332
f 397 396 403
f 396 404 403
f 396 402 404
f 404 405 403
f 406 338 339
f 340 407 339
f 339 407 406
f 342 407 340
f 408 343 398
f 398 343 333
f 409 398 399
f 408 398 409
f 410 399 400
f 409 399 410
f 400 401 411
f 400 411 410
f 346 402 337
f 402 346 348
f 402 348 404
f 348 350 404
f 350 405 404
f 350 412 405
f 413 352 406
f 406 352 338
f 414 406 407
f 413 406 414
f 353 415 342
f 415 407 342
f 415 414 407
f 343 408 353
f 408 415 353
f 408 416 415
f 417 408 409
f 416 408 417
f 418 409 410
f 417 409 418
f 410 411 419
f 410 419 418
f 356 421 420
f 412 356 420
f 350 356 412
f 421 422 420
f 413 357 352
f 357 413 358
f 413 423 358
f 413 414 423
f 424 414 415
f 423 414 424
f 425 415 416
f 424 415 425
f 426 416 417
f 425 416 426
f 427 417 418
f 426 417 427
f 418 419 428
f 418 428 427
f 360 421 356
f 360 362 421
f 362 422 421
f 362 429 422
f 430 363 423
f 423 363 358
f 424 432 431
f 430 424 431
f 423 424 430
f 434 433 432
f 424 434 432
f 425 434 424
f 435 425 426
f 434 425 435
f 436 426 427
f 435 426 436
f 427 428 437
f 427 437 436
f 365 429 362
f 365 438 429
f 430 366 363
f 367 366 430
f 431 367 430
f 439 367 431
f 440 433 434
f 442 441 440
f 434 442 440
f 435 442 434
f 443 435 436
f 442 435 443
f 436 437 444
f 445 436 444
f 443 436 445
f 446 445 444
f 369 438 365
f 369 447 438
f 439 448 367
f 367 448 370
f 371 370 448
f 371 448 449
f 441 442 373
f 374 441 373
f 450 441 374
f 373 442 376
f 376 442 443
f 376 443 378
f 378 443 445
f 379 378 445
f 446 379 445
f 451 379 446
f 380 447 369
f 380 452 447
f 449 453 371
f 371 453 381
f 374 381 450
f 450 381 453
f 455 382 454
f 382 451 454
f 382 379 451
f 456 455 454
f 383 452 380
f 383 457 452
f 455 384 382
f 385 384 455
f 456 385 455
f 458 385 456
f 386 457 383
f 386 459 457
f 458 460 385
f 385 460 387
f 387 461 390
f 460 461 387
f 386 390 459
f 459 390 461
f 464 463 462
f 466 465 462
f 462 465 464
f 466 467 465
f 462 463 468
f 468 463 469
f 468 393 394
f 466 468 394
f 462 468 466
f 470 467 466
f 394 470 466
f 395 470 394
f 395 397 470
f 470 397 471
f 468 469 472
f 472 469 473
f 472 401 393
f 472 393 468
f 397 403 474
f 475 397 474
f 471 397 475
f 405 474 403
f 472 473 476
f 476 473 477
f 476 411 401
f 476 401 472
f 475 474 478
f 475 478 479
f 412 478 405
f 405 478 474
f 476 477 480
f 480 477 481
f 480 419 411
f 480 411 476
f 479 478 482
f 479 482 483
f 420 484 412
f 484 478 412
f 484 482 478
f 422 484 420
f 480 481 485
f 485 481 486
f 485 428 419
f 485 419 480
f 483 482 487
f 483 487 488
f 489 482 484
f 487 482 489
f 429 489 422
f 422 489 484
f 490 431 432
f 433 490 432
f 485 486 491
f 491 486 492
f 491 437 428
f 491 428 485
f 488 487 493
f 488 493 494
f 495 487 489
f 493 487 495
f 438 495 429
f 429 495 489
f 496 439 490
f 490 439 431
f 440 497 433
f 497 490 433
f 497 496 490
f 441 497 440
f 492 498 491
f 491 498 437
f 498 444 437
f 498 499 444
f 501 500 446
f 444 501 446
f 499 501 444
f 500 501 494
f 493 500 494
f 502 500 493
f 503 493 495
f 502 493 503
f 447 503 438
f 438 503 495
f 496 448 439
f 496 497 504
f 449 496 504
f 505 449 504
f 496 449 448
f 497 441 504
f 441 506 504
f 441 450 506
f 507 451 500
f 500 451 446
f 508 500 502
f 507 500 508
f 509 502 503
f 508 502 509
f 452 509 447
f 447 509 503
f 505 510 449
f 449 510 453
f 450 453 506
f 506 453 510
f 507 454 451
f 454 507 456
f 507 511 456
f 507 508 511
f 512 508 509
f 511 508 512
f 457 512 452
f 452 512 509
f 513 458 511
f 511 458 456
f 514 511 512
f 513 511 514
f 459 514 457
f 457 514 512
f 513 460 458
f 460 513 461
f 461 513 514
f 461 514 459
f 516 515 464
f 464 515 463
f 518 516 517
f 516 465 517
f 516 464 465
f 467 517 465
f 521 520 519
f 515 521 519
f 469 515 519
f 463 515 469
f 522 518 517
f 522 517 467
f 470 522 467
f 523 522 470
f 470 471 523
f 523 471 524
f 527 526 525
f 527 525 520
f 525 519 520
f 525 528 519
f 528 473 469
f 528 469 519
f 475 530 529
f 524 475 529
f 471 475 524
f 530 531 529
f 525 526 532
f 532 526 533
f 525 534 528
f 525 532 534
f 534 477 473
f 534 473 528
f 479 535 530
f 479 530 475
f 531 530 536
f 536 530 535
f 539 538 537
f 541 540 537
f 537 540 539
f 540 541 533
f 541 532 533
f 541 542 532
f 532 543 534
f 532 542 543
f 543 481 477
f 543 477 534
f 483 544 535
f 483 535 479
f 536 535 545
f 535 546 545
f 535 544 546
f 546 547 545
f 537 538 548
f 548 538 549
f 537 550 541
f 537 548 550
f 541 551 542
f 541 550 551
f 542 552 543
f 542 551 552
f 552 486 481
f 552 481 543
f 488 553 544
f 488 544 483
f 544 554 546
f 544 553 554
f 547 546 555
f 555 546 554
f 548 549 556
f 556 549 557
f 548 558 550
f 548 556 558
f 550 559 551
f 550 558 559
f 551 560 552
f 551 559 560
f 560 492 486
f 560 486 552
f 494 561 553
f 494 553 488
f 553 562 554
f 553 561 562
f 555 554 563
f 563 554 562
f 556 557 564
f 564 557 565
f 556 566 558
f 556 564 566
f 558 567 559
f 558 566 567
f 559 568 560
f 559 567 568
f 569 498 492
f 560 569 492
f 568 569 560
f 570 499 498
f 570 498 569
f 571 501 499
f 571 499 570
f 561 494 501
f 571 561 501
f 572 561 571
f 561 573 562
f 561 572 573
f 563 562 574
f 574 562 573
f 565 575 564
f 564 575 566
f 566 575 576
f 577 505 504
f 566 577 504
f 567 566 504
f 576 577 566
f 567 504 506
f 578 567 506
f 568 567 578
f 568 579 569
f 568 578 579
f 569 580 570
f 569 579 580
f 570 581 571
f 570 580 581
f 571 582 572
f 571 581 582
f 572 583 573
f 572 582 583
f 574 573 584
f 584 573 583
f 577 585 505
f 505 585 510
f 510 585 506
f 585 586 506
f 586 578 506
f 586 585 587
f 578 588 579
f 578 586 588
f 590 580 589
f 580 588 589
f 580 579 588
f 580 590 581
f 581 590 591
f 593 592 591
f 592 581 591
f 592 582 581
f 582 594 583
f 582 592 594
f 584 583 595
f 595 583 594
f 586 587 596
f 596 587 597
f 599 588 598
f 588 596 598
f 588 586 596
f 588 599 589
f 592 593 600
f 600 593 601
f 592 602 594
f 592 600 602
f 595 594 603
f 603 594 602
f 597 604 596
f 596 604 598
f 601 605 600
f 600 605 602
f 602 605 606
f 602 606 603
f 607 515 516
f 518 607 516
f 610 609 608
f 612 611 608
f 608 611 610
f 612 520 611
f 520 521 611
f 614 613 611
f 614 611 521
f 515 607 521
f 607 614 521
f 607 615 614
f 522 616 518
f 616 607 518
f 616 615 607
f 523 617 522
f 522 617 616
f 524 617 523
f 608 609 618
f 618 609 619
f 618 526 527
f 612 618 527
f 608 618 612
f 614 620 613
f 520 612 527
f 622 621 620
f 614 622 620
f 615 622 614
f 623 615 616
f 622 615 623
f 624 616 617
f 623 616 624
f 529 625 524
f 625 617 524
f 625 624 617
f 531 625 529
f 628 627 626
f 628 626 619
f 626 618 619
f 626 629 618
f 629 533 526
f 629 526 618
f 630 621 622
f 632 631 630
f 622 632 630
f 623 632 622
f 633 623 624
f 632 623 633
f 634 624 625
f 633 624 634
f 536 634 531
f 531 634 625
f 626 627 539
f 627 538 539
f 627 635 538
f 626 539 540
f 626 540 629
f 629 540 533
f 631 632 636
f 631 636 637
f 638 632 633
f 636 632 638
f 639 633 634
f 638 633 639
f 545 640 536
f 640 634 536
f 640 639 634
f 547 640 545
f 635 549 538
f 641 549 635
f 642 637 636
f 644 643 642
f 636 644 642
f 638 644 636
f 645 638 639
f 644 638 645
f 646 639 640
f 645 639 646
f 555 646 547
f 547 646 640
f 641 557 549
f 647 557 641
f 648 643 644
f 648 644 645
f 648 645 649
f 651 650 649
f 645 651 649
f 646 651 645
f 563 651 555
f 555 651 646
f 653 565 652
f 565 647 652
f 565 557 647
f 655 654 653
f 655 653 652
f 656 654 655
f 657 650 651
f 651 563 657
f 563 658 657
f 563 574 658
f 653 575 565
f 575 653 576
f 576 653 654
f 660 659 577
f 660 577 576
f 656 660 576
f 654 656 576
f 661 659 660
f 664 663 662
f 665 662 663
f 584 658 574
f 584 666 658
f 659 585 577
f 587 585 659
f 661 587 659
f 667 587 661
f 664 662 590
f 589 664 590
f 668 664 589
f 591 590 662
f 669 591 662
f 665 669 662
f 670 591 669
f 670 593 591
f 595 666 584
f 595 671 666
f 673 597 672
f 597 667 672
f 597 587 667
f 599 598 673
f 672 599 673
f 674 599 672
f 589 599 668
f 668 599 674
f 669 675 670
f 593 670 675
f 676 593 675
f 601 593 676
f 603 671 595
f 603 677 671
f 673 604 597
f 604 673 598
f 605 601 678
f 601 679 678
f 601 676 679
f 680 606 605
f 680 605 678
f 680 681 606
f 681 603 606
f 681 677 603
f 679 682 678
f 678 682 680
f 680 682 683
f 680 683 681
f 685 684 610
f 610 684 609
f 686 610 611
f 686 685 610
f 611 613 686
f 686 613 687
f 690 689 688
f 684 690 688
f 619 684 688
f 609 684 619
f 613 620 691
f 692 613 691
f 687 613 692
f 621 691 620
f 688 689 628
f 689 627 628
f 689 693 627
f 688 628 619
f 692 691 694
f 692 694 695
f 630 696 621
f 696 691 621
f 696 694 691
f 631 696 630
f 693 635 627
f 697 635 693
f 698 695 694
f 700 699 698
f 694 700 698
f 696 700 694
f 637 700 631
f 631 700 696
f 697 641 635
f 701 641 697
f 702 699 700
f 704 702 703
f 703 702 642
f 702 700 642
f 700 637 642
f 643 703 642
f 701 647 641
f 705 647 701
f 704 703 706
f 704 706 707
f 648 708 643
f 708 703 643
f 708 706 703
f 649 709 648
f 648 709 708
f 650 709 649
f 705 710 647
f 647 710 652
f 652 711 655
f 710 711 652
f 656 655 711
f 656 711 712
f 707 706 713
f 707 713 714
f 715 706 708
f 713 706 715
f 716 708 709
f 715 708 716
f 657 717 650
f 717 709 650
f 717 716 709
f 658 717 657
f 712 718 656
f 656 718 660
f 661 660 718
f 661 718 719
f 714 713 663
f 664 714 663
f 720 714 664
f 663 713 665
f 713 721 665
f 713 715 721
f 716 723 722
f 721 716 722
f 715 716 721
f 725 724 723
f 716 725 723
f 717 725 716
f 666 725 658
f 658 725 717
f 719 667 661
f 726 667 719
f 668 720 664
f 668 727 720
f 729 728 721
f 728 665 721
f 728 669 665
f 729 721 722
f 724 725 730
f 724 730 731
f 671 730 666
f 666 730 725
f 726 732 667
f 667 732 672
f 672 733 674
f 732 733 672
f 668 674 727
f 727 674 733
f 675 669 734
f 669 735 734
f 669 728 735
f 734 676 675
f 736 731 730
f 730 671 736
f 671 737 736
f 671 677 737
f 735 738 734
f 676 734 738
f 739 676 738
f 679 676 739
f 681 737 677
f 681 740 737
f 682 679 741
f 679 742 741
f 679 739 742
f 743 683 682
f 743 682 741
f 743 744 683
f 744 681 683
f 744 740 681
f 742 745 741
f 741 745 743
f 743 745 746
f 743 746 744
f 748 747 685
f 685 747 684
f 750 748 749
f 748 686 749
f 748 685 686
f 687 749 686
f 752 751 690
f 690 751 689
f 690 684 747
f 690 747 752
f 753 750 749
f 749 687 753
f 687 754 753
f 687 692 754
f 751 693 689
f 755 693 751
f 695 754 692
f 695 756 754
f 755 697 693
f 757 697 755
f 695 698 758
f 759 695 758
f 756 695 759
f 699 758 698
f 757 701 697
f 760 701 757
f 763 762 761
f 765 764 761
f 765 761 762
f 764 765 759
f 758 764 759
f 766 764 758
f 702 767 699
f 767 758 699
f 767 766 758
f 704 767 702
f 760 705 701
f 768 705 760
f 763 761 769
f 763 769 770
f 771 761 764
f 769 761 771
f 772 764 766
f 771 764 772
f 773 766 767
f 772 766 773
f 707 773 704
f 704 773 767
f 768 774 705
f 705 774 710
f 769 711 770
f 711 774 770
f 711 710 774
f 711 769 712
f 769 775 712
f 769 771 775
f 776 771 772
f 775 771 776
f 777 772 773
f 776 772 777
f 714 777 707
f 707 777 773
f 775 718 712
f 718 775 719
f 775 778 719
f 775 776 778
f 777 780 779
f 778 777 779
f 776 777 778
f 777 714 780
f 714 781 780
f 714 720 781
f 782 722 723
f 724 782 723
f 784 783 778
f 783 719 778
f 783 726 719
f 784 778 779
f 727 781 720
f 727 785 781
f 786 728 729
f 722 782 729
f 782 786 729
f 782 787 786
f 731 787 724
f 724 787 782
f 783 788 726
f 726 788 732
f 732 789 733
f 788 789 732
f 727 733 785
f 785 733 789
f 790 735 786
f 786 735 728
f 791 786 787
f 790 786 791
f 736 792 731
f 792 787 731
f 792 791 787
f 737 792 736
f 790 738 735
f 738 790 739
f 790 793 739
f 790 791 793
f 794 791 792
f 793 791 794
f 740 794 737
f 737 794 792
f 795 742 793
f 793 742 739
f 796 793 794
f 795 793 796
f 744 796 740
f 740 796 794
f 795 745 742
f 745 795 746
f 746 795 796
f 746 796 744
f 799 798 797
f 801 800 797
f 797 800 799
f 801 802 800
f 805 804 803
f 805 803 798
f 798 803 797
f 803 747 797
f 747 748 797
f 801 797 806
f 797 750 806
f 750 807 806
f 750 797 748
f 801 806 802
f 810 809 808
f 810 808 804
f 804 808 803
f 808 751 803
f 751 752 803
f 803 752 747
f 750 753 811
f 812 750 811
f 807 750 812
f 754 811 753
f 809 813 808
f 751 808 813
f 814 751 813
f 755 751 814
f 815 812 811
f 811 754 815
f 754 816 815
f 754 756 816
f 814 757 755
f 817 757 814
f 759 816 756
f 759 818 816
f 817 760 757
f 819 760 817
f 821 820 762
f 821 762 763
f 762 822 765
f 820 822 762
f 759 765 818
f 818 765 822
f 819 768 760
f 823 768 819
f 770 821 763
f 770 824 821
f 823 825 768
f 768 825 774
f 770 774 824
f 824 774 825
f 826 779 780
f 781 826 780
f 827 783 784
f 779 826 784
f 826 827 784
f 826 828 827
f 785 828 781
f 781 828 826
f 827 788 783
f 788 827 789
f 789 827 828
f 789 828 785
f 830 829 799
f 799 829 798
f 831 799 800
f 831 830 799
f 800 802 831
f 831 802 832
f 834 833 805
f 805 833 804
f 805 798 829
f 805 829 834
f 836 835 806
f 836 806 807
f 802 806 832
f 832 806 835
f 838 837 810
f 810 837 809
f 810 804 833
f 810 833 838
f 812 836 807
f 812 839 836
f 837 840 809
f 809 840 813
f 814 813 840
f 814 840 841
f 842 839 812
f 842 812 815
f 815 816 842
f 842 816 843
f 841 817 814
f 844 817 841
f 847 846 845
f 849 848 845
f 849 845 846
f 849 843 848
f 843 818 848
f 843 816 818
f 844 819 817
f 850 819 844
f 847 845 820
f 821 847 820
f 851 847 821
f 820 845 822
f 822 845 848
f 822 848 818
f 853 823 852
f 823 850 852
f 823 819 850
f 852 851 853
f 851 824 853
f 851 821 824
f 853 825 823
f 825 853 824
f 856 855 854
f 829 830 854
f 830 856 854
f 830 857 856
f 858 830 831
f 858 857 830
f 831 832 858
f 858 832 859
f 862 861 860
f 862 860 855
f 855 860 854
f 860 833 854
f 833 834 854
f 854 834 829
f 836 863 835
f 863 864 835
f 864 832 835
f 864 859 832
f 866 865 861
f 865 837 861
f 838 860 861
f 838 861 837
f 838 833 860
f 865 866 867
f 839 868 863
f 839 863 836
f 864 863 869
f 869 863 868
f 865 840 837
f 841 840 865
f 867 841 865
f 870 841 867
f 842 868 839
f 842 843 868
f 843 869 868
f 843 871 869
f 873 844 872
f 844 870 872
f 844 841 870
f 846 847 873
f 872 846 873
f 874 846 872
f 846 875 849
f 874 875 846
f 843 849 871
f 871 849 875
f 876 850 873
f 873 850 844
f 851 876 847
f 847 876 873
f 876 852 850
f 852 876 851
f 879 878 877
f 881 880 877
f 877 880 879
f 883 882 881
f 881 882 880
f 883 884 882
f 877 878 856
f 878 855 856
f 878 885 855
f 877 856 857
f 877 857 881
f 881 857 858
f 881 858 883
f 858 859 883
f 859 884 883
f 859 886 884
f 887 861 862
f 888 887 862
f 855 888 862
f 885 888 855
f 864 886 859
f 864 889 886
f 887 866 861
f 867 866 887
f 888 867 887
f 890 867 888
f 869 889 864
f 869 891 889
f 890 870 867
f 892 870 890
f 871 891 869
f 871 893 891
f 892 894 870
f 870 894 872
f 872 895 874
f 894 895 872
f 874 896 875
f 895 896 874
f 871 875 893
f 893 875 896
f 898 897 879
f 879 897 878
f 899 879 880
f 899 898 879
f 900 880 882
f 900 899 880
f 882 884 900
f 900 884 901
f 897 885 878
f 902 885 897
f 886 901 884
f 886 903 901
f 902 888 885
f 904 888 902
f 889 903 886
f 889 905 903
f 904 890 888
f 906 890 904
f 891 905 889
f 891 907 905
f 906 892 890
f 908 892 906
f 911 910 909
f 913 912 909
f 913 909 910
f 913 907 912
f 907 893 912
f 907 891 893
f 908 914 892
f 892 914 894
f 909 895 911
f 895 914 911
f 895 894 914
f 895 909 896
f 896 909 912
f 896 912 893
f 916 915 898
f 898 915 897
f 917 898 899
f 917 916 898
f 918 899 900
f 918 917 899
f 900 901 918
f 918 901 919
f 915 902 897
f 920 902 915
f 903 919 901
f 903 921 919
f 920 904 902
f 922 904 920
f 905 921 903
f 905 923 921
f 922 906 904
f 924 906 922
f 907 923 905
f 907 925 923
f 927 908 926
f 908 924 926
f 908 906 924
f 910 911 927
f 926 910 927
f 928 910 926
f 910 929 913
f 928 929 910
f 907 913 925
f 925 913 929
f 927 914 908
f 914 927 911
f 931 930 916
f 916 930 915
f 932 916 917
f 932 931 916
f 933 917 918
f 933 932 917
f 918 919 933
f 933 919 934
f 930 920 915
f 935 920 930
f 921 934 919
f 921 936 934
f 935 922 920
f 937 922 935
f 923 936 921
f 923 938 936
f 940 924 939
f 924 937 939
f 924 922 937
f 941 940 939
f 925 938 923
f 925 942 938
f 940 926 924
f 941 943 940
f 943 926 940
f 943 928 926
f 928 944 929
f 943 944 928
f 925 929 942
f 942 929 944
f 945 930 931
f 932 946 931
f 931 946 945
f 933 947 932
f 932 947 946
f 934 947 933
f 949 948 945
f 948 930 945
f 948 935 930
f 949 945 946
f 949 946 950
f 950 946 947
f 950 947 951
f 947 934 951
f 934 952 951
f 934 936 952
f 948 937 935
f 953 937 948
f 938 952 936
f 938 954 952
f 953 955 937
f 937 955 939
f 957 956 941
f 939 957 941
f 955 957 939
f 959 958 956
f 959 956 957
f 959 954 958
f 954 942 958
f 954 938 942
f 956 943 941
f 943 956 944
f 944 956 958
f 944 958 942
f 961 960 949
f 949 960 948
f 962 949 950
f 962 961 949
f 964 962 963
f 962 951 963
f 962 950 951
f 952 963 951
f 966 953 965
f 953 960 965
f 953 948 960
f 968 967 966
f 968 966 965
f 967 968 964
f 963 967 964
f 969 967 963
f 954 969 952
f 952 969 963
f 966 955 953
f 955 966 957
f 957 966 967
f 957 967 959
f 959 967 969
f 959 969 954
f 970 960 961
f 962 971 961
f 961 971 970
f 964 971 962
f 970 965 960
f 965 970 968
f 968 970 971
f 968 971 964

