# https://github.com/mikedh/trimesh
v -2272.26450000 -1844.87485000 660.93500000
v -2273.65450000 -1746.91485000 622.17500000
v -2286.02450000 -1824.14485000 614.34500000
v -2268.50450000 -1896.95485000 643.47500000
v -2275.88450000 -1701.19485000 587.01500000
v -2282.19450000 -1763.62485000 586.81500000
v -2277.33450000 -1715.21485000 578.71500000
v -2269.70450000 -1837.87485000 590.26500000
v -2268.34450000 -1726.64485000 570.41500000
v -2222.58450000 -1760.04485000 551.52500000
v -2244.48450000 -1915.68485000 680.60500000
v -2254.44450000 -1925.28485000 662.72500000
v -2242.60450000 -1634.39485000 600.00500000
v -2243.52450000 -1923.40485000 627.09500000
v -2234.22450000 -1938.84485000 658.88500000
v -2257.91450000 -1669.25485000 576.07500000
v -2245.62450000 -1652.38485000 557.79500000
v -2193.52450000 -1836.38485000 560.42500000
v -2221.93450000 -1860.07485000 715.94500000
v -2229.75450000 -1770.11485000 684.58500000
v -2219.34450000 -1658.95485000 653.25500000
v -2221.83450000 -1951.40485000 643.59500000
v -2224.31450000 -1600.16485000 567.62500000
v -2190.71450000 -1892.08485000 588.15500000
v -2205.41450000 -1596.12485000 541.16500000
v -2222.08450000 -1668.89485000 546.79500000
v -2194.79450000 -1915.18485000 727.18500000
v -2175.55450000 -1949.00485000 700.91500000
v -2167.82450000 -1671.40485000 717.20500000
v -2149.34450000 -1956.58485000 651.73500000
v -2197.87450000 -1572.19485000 635.04500000
v -2182.71450000 -1525.68485000 601.82500000
v -2160.63450000 -1935.84485000 619.89500000
v -2177.65450000 -1594.77485000 528.16500000
v -2147.15450000 -1670.86485000 528.23500000
v -2151.06450000 -1762.48485000 751.72500000
v -2150.93450000 -1859.03485000 762.98500000
v -2142.81450000 -1907.15485000 761.99500000
v -2166.59450000 -1577.01485000 686.67500000
v -2163.25450000 -1516.16485000 661.38500000
v -2171.66450000 -1525.78485000 548.08500000
v -2106.33450000 -1873.75485000 564.74500000
v -2067.91450000 -1785.57485000 546.34500000
v -2120.38450000 -1671.57485000 755.63500000
v -2130.32450000 -1926.88485000 749.50500000
v -2149.64450000 -1509.74485000 522.44500000
v -2057.20450000 -1774.72485000 803.22500000
v -2107.80450000 -1907.57485000 775.07500000
v -2128.54450000 -1489.81485000 725.86500000
v -2122.54450000 -1600.86485000 741.63500000
v -2127.65450000 -1414.83485000 689.17500000
v -2067.87450000 -1956.86485000 691.11500000
v -2053.18450000 -1939.86485000 612.36500000
v -2131.43450000 -1423.84485000 579.83500000
v -2094.09450000 -1911.01485000 591.89500000
v -2141.29450000 -1468.48485000 538.90500000
v -2117.77450000 -1547.34485000 512.08500000
v -2102.76450000 -1342.75485000 840.05500000
v -2113.80450000 -1393.86485000 777.00500000
v -2105.30450000 -1419.20485000 801.24500000
v -2088.45450000 -1872.96485000 784.82500000
v -2072.98450000 -1545.03485000 790.33500000
v -2072.04450000 -1935.28485000 741.11500000
v -2095.56450000 -1317.88485000 807.48500000
v -2117.22450000 -1412.29485000 516.74500000
v -2080.92450000 -1284.13485000 897.86500000
v -2088.75450000 -1355.69485000 863.85500000
v -2066.12450000 -1300.74485000 922.67500000
v -2038.19450000 -1399.24485000 882.36500000
v -2055.24450000 -1454.81485000 836.46500000
v -2085.35450000 -1670.71485000 778.85500000
v -2084.66450000 -1283.13485000 679.07500000
v -2100.04450000 -1330.19485000 517.61500000
v -2092.72450000 -1337.49485000 459.02500000
v -2106.84450000 -1430.25485000 492.32500000
v -2035.28450000 -1592.94485000 506.04500000
v -2076.66450000 -1357.52485000 446.40500000
v -2058.45450000 -1468.56485000 481.18500000
v -2069.84450000 -1188.90485000 529.80500000
v -2086.05450000 -1250.23485000 432.14500000
v -2079.29450000 -1176.88485000 420.02500000
v -2075.72450000 -1202.76485000 369.37500000
v -2068.40450000 -1139.09485000 397.54500000
v -2068.57450000 -1271.99485000 392.89500000
v -2063.50450000 -1227.72485000 852.11500000
v -2040.92450000 -1200.53485000 955.80500000
v -2027.97450000 -1128.03485000 800.13500000
v -2002.58450000 -1560.55485000 835.97500000
v -2069.58450000 -1899.66485000 777.46500000
v -2031.46450000 -447.06485000 717.69500000
v -2039.66450000 -510.17485000 671.05500000
v -2018.27450000 -469.38485000 750.64500000
v -2043.78450000 -454.17485000 659.20500000
v -2036.41450000 -504.18485000 598.83500000
v -2018.81450000 -1946.05485000 649.57500000
v -2054.67450000 -1102.33485000 475.25500000
v -2044.89450000 -1076.86485000 425.88500000
v -2051.28450000 -1142.66485000 358.24500000
v -2051.36450000 -1210.40485000 343.86500000
v -2023.05450000 -1198.68485000 995.18500000
v -2012.41450000 -1148.64485000 1004.58500000
v -2012.14450000 -1274.29485000 963.54500000
v -2018.80450000 -1111.12485000 912.06500000
v -1986.29450000 -1364.91485000 930.23500000
v -1958.45450000 -1524.43485000 870.89500000
v -2009.95450000 -1654.70485000 819.09500000
v -1995.44450000 -1823.76485000 808.65500000
v -2007.06450000 -536.93485000 743.68500000
v -2013.95450000 -605.91485000 655.74500000
v -2030.90450000 -1094.57485000 674.06500000
v -2003.44450000 -441.38485000 735.60500000
v -2019.26450000 -609.22485000 584.30500000
v -2029.00450000 -481.04485000 594.24500000
v -2033.98450000 -1061.50485000 574.64500000
v -2025.51450000 -568.45485000 533.95500000
v -2021.52450000 -527.87485000 532.17500000
v -2021.43450000 -1014.48485000 526.21500000
v -2005.17450000 -1889.81485000 582.19500000
v -1997.27450000 -1400.46485000 444.47500000
v -2009.63450000 -1319.27485000 403.20500000
v -2009.86450000 -1054.44485000 399.35500000
v -2019.62450000 -1260.51485000 364.58500000
v -2031.22450000 -1124.10485000 344.26500000
v -2023.91450000 -1166.82485000 327.94500000
v -1984.76450000 -1156.29485000 1019.34500000
v -1927.14450000 -1264.90485000 1003.62500000
v -2007.67450000 -1108.59485000 986.24500000
v -1993.02450000 -451.08485000 790.82500000
v -1983.00450000 -480.16485000 839.19500000
v -1984.75450000 -1884.42485000 777.06500000
v -1993.48450000 -984.09485000 764.30500000
v -2003.39450000 -1925.99485000 731.96500000
v -2008.99450000 -454.84485000 678.83500000
v -1970.93450000 -471.67485000 636.10500000
v -1995.45450000 -713.31485000 622.64500000
v -1994.45450000 -508.45485000 534.43500000
v -2004.65450000 -647.60485000 532.99500000
v -1989.45450000 -733.82485000 560.77500000
v -2001.68450000 -992.95485000 475.36500000
v -1988.14450000 -907.81485000 564.87500000
v -2001.02450000 -539.47485000 497.91500000
v -1990.30450000 -611.79485000 508.49500000
v -1989.96450000 -1480.09485000 470.73500000
v -1991.07450000 -1086.77485000 366.79500000
v -1980.60450000 -1143.39485000 335.66500000
v -1992.73450000 -1229.28485000 348.39500000
v -1978.05450000 -1061.48485000 1022.39500000
v -1982.89450000 -1028.49485000 970.54500000
v -1911.58450000 -1479.04485000 914.56500000
v -1974.24450000 -947.87485000 900.54500000
v -1969.66450000 -1729.29485000 827.47500000
v -1961.78450000 -443.85485000 863.56500000
v -1960.70450000 -436.89485000 836.00500000
v -1968.70450000 -578.21485000 839.38500000
v -1988.33450000 -647.20485000 716.44500000
v -1931.98450000 -444.94485000 778.94500000
v -1994.55450000 -930.82485000 664.32500000
v -1967.58450000 -1925.20485000 697.34500000
v -1968.09450000 -740.70485000 522.07500000
v -1963.66450000 -1790.13485000 553.77500000
v -1972.45450000 -909.06485000 507.89500000
v -1961.42450000 -532.81485000 497.93500000
v -1964.19450000 -582.00485000 493.79500000
v -1937.68450000 -1439.35485000 453.73500000
v -1964.83450000 -941.80485000 468.39500000
v -1948.40450000 -1191.50485000 349.72500000
v -1955.29450000 -949.49485000 1025.17500000
v -1945.38450000 -976.93485000 1047.36500000
v -1961.48450000 -937.70485000 983.12500000
v -1946.49450000 -532.70485000 955.59500000
v -1949.96450000 -463.64485000 919.60500000
v -1945.38450000 -612.41485000 908.78500000
v -1968.51450000 -700.23485000 759.28500000
v -1967.16450000 -856.66485000 801.28500000
v -1969.48450000 -792.86485000 746.70500000
v -1983.38450000 -791.03485000 663.13500000
v -1984.95450000 -798.18485000 589.08500000
v -1982.08450000 -1924.35485000 617.74500000
v -1973.62450000 -822.33485000 541.59500000
v -1904.82450000 -496.38485000 575.84500000
v -1913.74450000 -519.73485000 528.96500000
v -1962.39450000 -1665.88485000 523.15500000
v -1954.06450000 -845.71485000 504.67500000
v -1945.88450000 -1533.56485000 486.21500000
v -1950.81450000 -639.70485000 498.72500000
v -1954.85450000 -981.63485000 431.74500000
v -1930.44450000 -1343.15485000 414.91500000
v -1921.37450000 -1021.07485000 406.78500000
v -1973.14450000 -1281.66485000 380.04500000
v -1935.57450000 -1060.06485000 1045.92500000
v -1943.49450000 -847.01485000 988.55500000
v -1936.31450000 -691.37485000 955.43500000
v -1872.42450000 -1400.09485000 967.40500000
v -1927.66450000 -460.99485000 976.72500000
v -1951.40450000 -802.38485000 899.32500000
v -1920.40450000 -439.35485000 946.13500000
v -1957.98450000 -719.12485000 844.56500000
v -1942.59450000 -1639.81485000 848.22500000
v -1893.42450000 -1718.94485000 844.14500000
v -1914.88450000 -1796.84485000 814.12500000
v -1930.54450000 -1882.70485000 750.60500000
v -1939.80450000 -1915.91485000 650.31500000
v -1924.15450000 -700.64485000 500.89500000
v -1930.32450000 -783.14485000 500.06500000
v -1912.03450000 -862.14485000 473.84500000
v -1921.65450000 -575.69485000 499.61500000
v -1926.29450000 -1099.40485000 370.19500000
v -1908.21450000 -1150.43485000 364.50500000
v -1927.06450000 -758.81485000 1023.22500000
v -1930.06450000 -868.91485000 1039.31500000
v -1912.79450000 -759.70485000 1050.88500000
v -1908.65450000 -899.14485000 1060.11500000
v -1920.86450000 -558.99485000 1023.55500000
v -1923.39450000 -656.19485000 1013.33500000
v -1908.09450000 -643.21485000 1043.52500000
v -1912.08450000 -492.12485000 1012.37500000
v -1882.51450000 -451.03485000 1010.06500000
v -1872.61450000 -1181.49485000 1043.13500000
v -1838.08450000 -470.07485000 707.92500000
v -1937.09450000 -1899.65485000 613.44500000
v -1937.63450000 -1834.99485000 580.58500000
v -1825.67450000 -564.55485000 526.69500000
v -1889.95450000 -628.01485000 504.68500000
v -1852.53450000 -1063.84485000 405.25500000
v -1924.23450000 -1249.60485000 377.47500000
v -1880.01450000 -708.07485000 1065.71500000
v -1836.14450000 -1083.84485000 1066.99500000
v -1837.40450000 -485.16485000 1047.77500000
v -1881.93450000 -575.39485000 1043.82500000
v -1842.15450000 -427.35485000 934.96500000
v -1900.80450000 -1824.35485000 792.07500000
v -1830.44450000 -521.11485000 554.00500000
v -1902.90450000 -1729.84485000 559.73500000
v -1887.87450000 -1576.20485000 512.73500000
v -1882.62450000 -772.34485000 484.93500000
v -1871.84450000 -929.79485000 444.34500000
v -1818.89450000 -994.28485000 435.10500000
v -1822.91450000 -1182.17485000 400.21500000
v -1810.21450000 -581.75485000 1069.78500000
v -1803.43450000 -434.90485000 1012.06500000
v -1862.43450000 -1604.30485000 883.35500000
v -1871.99450000 -1828.91485000 767.22500000
v -1900.37450000 -1880.23485000 702.99500000
v -1827.41450000 -719.25485000 491.04500000
v -1867.12450000 -1426.49485000 464.93500000
v -1821.26450000 -1120.56485000 402.91500000
v -1807.61450000 -1285.19485000 437.73500000
v -1817.91450000 -692.94485000 1079.26500000
v -1796.27450000 -895.67485000 1077.77500000
v -1780.03450000 -1338.93485000 1028.52500000
v -1810.36450000 -1525.33485000 936.71500000
v -1844.99450000 -1751.94485000 813.10500000
v -1906.14450000 -1889.33485000 648.04500000
v -1898.18450000 -1836.91485000 616.98500000
v -1863.89450000 -1760.99485000 630.39500000
v -1715.91450000 -502.76485000 611.88500000
v -1830.29450000 -824.78485000 468.18500000
v -1782.88450000 -451.29485000 1041.71500000
v -1766.60450000 -436.25485000 883.31500000
v -1874.79450000 -1851.12485000 676.08500000
v -1868.85450000 -1816.85485000 656.68500000
v -1827.98450000 -1650.49485000 633.11500000
v -1857.47450000 -1682.33485000 591.05500000
v -1837.27450000 -1596.82485000 562.12500000
v -1820.96450000 -1495.24485000 519.07500000
v -1801.18450000 -901.16485000 455.80500000
v -1774.19450000 -1338.20485000 470.08500000
v -1657.23450000 -734.76485000 1084.78500000
v -1701.89450000 -1144.85485000 1089.19500000
v -1735.60450000 -1241.81485000 1068.64500000
v -1673.64450000 -420.22485000 986.60500000
v -1810.98450000 -1656.44485000 869.53500000
v -1783.20450000 -1583.61485000 915.41500000
v -1711.76450000 -455.48485000 809.26500000
v -1850.77450000 -1801.15485000 749.94500000
v -1842.13450000 -1768.12485000 713.75500000
v -1822.95450000 -1693.26485000 707.65500000
v -1781.41450000 -647.19485000 518.33500000
v -1773.31450000 -770.30485000 480.98500000
v -1709.55450000 -508.14485000 1065.18500000
v -1715.12450000 -450.53485000 1047.80500000
v -1687.58450000 -432.27485000 1018.34500000
v -1749.51450000 -1448.99485000 992.59500000
v -1814.06450000 -1730.53485000 800.12500000
v -1824.72450000 -1745.18485000 770.27500000
v -1796.06450000 -1673.52485000 781.25500000
v -1690.40450000 -476.62485000 714.01500000
v -1767.14450000 -1518.72485000 623.49500000
v -1690.73450000 -532.93485000 568.29500000
v -1748.44450000 -1378.36485000 505.89500000
v -1725.28450000 -1043.83485000 454.46500000
v -1685.78450000 -1267.48485000 487.76500000
v -1669.93450000 -963.68485000 1088.63500000
v -1727.37450000 -1516.86485000 960.25500000
v -1772.78450000 -1645.36485000 854.18500000
v -1782.29450000 -1594.20485000 710.90500000
v -1777.01450000 -1475.91485000 551.23500000
v -1708.04450000 -625.63485000 543.97500000
v -1759.26450000 -721.01485000 501.59500000
v -1756.52450000 -857.41485000 474.30500000
v -1735.27450000 -942.66485000 471.24500000
v -1684.33450000 -1402.78485000 1037.67500000
v -1588.90450000 -416.39485000 973.22500000
v -1739.69450000 -1574.98485000 915.78500000
v -1613.15450000 -433.62485000 892.83500000
v -1757.22450000 -1609.12485000 824.40500000
v -1742.01450000 -1561.40485000 789.47500000
v -1724.16450000 -1485.75485000 713.92500000
v -1710.50450000 -1393.16485000 557.18500000
v -1653.74450000 -584.67485000 560.57500000
v -1695.38450000 -714.06485000 527.96500000
v -1708.12450000 -1121.15485000 448.55500000
v -1677.53450000 -1342.97485000 1061.65500000
v -1710.57450000 -1561.52485000 909.74500000
v -1714.69450000 -1548.58485000 859.59500000
v -1693.08450000 -1406.33485000 637.49500000
v -1717.57450000 -796.89485000 503.18500000
v -1652.94450000 -1174.38485000 479.21500000
v -1587.21450000 -1078.96485000 1101.74500000
v -1667.54450000 -1443.65485000 1013.05500000
v -1684.35450000 -1463.67485000 814.94500000
v -1566.66450000 -478.85485000 681.60500000
v -1522.83450000 -495.30485000 610.46500000
v -1690.66450000 -870.98485000 502.48500000
v -1609.84450000 -1280.78485000 1084.59500000
v -1602.13450000 -449.75485000 1050.45500000
v -1680.87450000 -1501.77485000 958.77500000
v -1679.18450000 -1510.70485000 921.42500000
v -1587.02450000 -454.79485000 788.49500000
v -1661.22450000 -1386.50485000 730.30500000
v -1636.25450000 -1331.45485000 651.40500000
v -1575.07450000 -513.97485000 586.79500000
v -1650.11450000 -1330.62485000 587.72500000
v -1648.90450000 -814.97485000 530.46500000
v -1639.18450000 -1285.46485000 539.80500000
v -1628.36450000 -947.74485000 510.41500000
v -1591.45450000 -1173.16485000 1099.90500000
v -1562.23450000 -539.74485000 1068.65500000
v -1535.26450000 -946.63485000 1095.98500000
v -1632.46450000 -1375.24485000 1049.86500000
v -1541.43450000 -424.35485000 1015.59500000
v -1499.70450000 -411.74485000 942.71500000
v -1642.16450000 -1443.95485000 919.18500000
v -1581.10450000 -1272.39485000 714.79500000
v -1544.43450000 -542.56485000 571.20500000
v -1578.50450000 -711.32485000 558.65500000
v -1566.90450000 -1061.85485000 514.58500000
v -1567.23450000 -1194.75485000 531.13500000
v -1547.74450000 -1131.04485000 1105.66500000
v -1449.44450000 -721.07485000 1080.35500000
v -1625.58450000 -1421.96485000 1014.87500000
v -1643.38450000 -1454.83485000 970.33500000
v -1603.07450000 -1350.55485000 874.35500000
v -1593.25450000 -1268.94485000 604.96500000
v -1600.81450000 -1399.04485000 1003.36500000
v -1596.58450000 -1382.77485000 964.15500000
v -1545.84450000 -1238.84485000 858.69500000
v -1525.96450000 -605.23485000 566.51500000
v -1569.69450000 -857.62485000 546.94500000
v -1508.05450000 -1060.50485000 1101.39500000
v -1445.16450000 -616.89485000 1071.77500000
v -1446.21450000 -883.60485000 1088.83500000
v -1578.28450000 -1337.37485000 1052.51500000
v -1484.19450000 -433.98485000 826.09500000
v -1475.12450000 -861.31485000 565.23500000
v -1525.98450000 -1161.96485000 1098.25500000
v -1529.74450000 -1237.47485000 1081.15500000
v -1562.70450000 -1320.41485000 996.11500000
v -1542.95450000 -1267.31485000 944.61500000
v -1494.86450000 -1167.84485000 829.59500000
v -1476.53450000 -458.62485000 708.33500000
v -1487.81450000 -1166.59485000 730.34500000
v -1514.95450000 -1197.51485000 631.54500000
v -1537.05450000 -1201.49485000 572.94500000
v -1392.79450000 -574.49485000 1062.85500000
v -1473.48450000 -475.45485000 1044.13500000
v -1425.43450000 -402.40485000 977.66500000
v -1500.95450000 -1200.25485000 953.39500000
v -1440.11450000 -477.68485000 627.34500000
v -1437.64450000 -683.28485000 568.71500000
v -1499.85450000 -954.15485000 550.35500000
v -1528.26450000 -1261.52485000 1055.73500000
v -1498.56450000 -1212.60485000 1015.10500000
v -1480.18450000 -1158.42485000 915.85500000
v -1399.68450000 -612.41485000 564.15500000
v -1388.19450000 -910.03485000 578.25500000
v -1480.96450000 -983.10485000 1096.42500000
v -1438.03450000 -1035.62485000 1085.20500000
v -1471.38450000 -1131.55485000 1083.82500000
v -1486.25450000 -1181.38485000 1061.15500000
v -1428.50450000 -1093.58485000 935.84500000
v -1428.37450000 -1099.37485000 837.95500000
v -1424.62450000 -1110.84485000 705.11500000
v -1414.82450000 -800.36485000 570.90500000
v -1494.64450000 -1159.65485000 563.94500000
v -1452.11450000 -1132.41485000 607.47500000
v -1453.05450000 -520.38485000 584.32500000
v -1394.23450000 -1000.72485000 577.21500000
v -1497.26450000 -1113.45485000 556.68500000
v -1432.98450000 -1075.28485000 1076.27500000
v -1460.68450000 -1147.15485000 1038.88500000
v -1368.79450000 -424.49485000 1012.51500000
v -1451.31450000 -1131.79485000 995.12500000
v -1388.64450000 -408.47485000 857.88500000
v -1437.65450000 -1101.85485000 1051.07500000
v -1351.58450000 -1035.33485000 849.48500000
v -1364.97450000 -427.90485000 717.06500000
v -1379.06450000 -1077.56485000 640.09500000
v -1324.31450000 -698.36485000 1071.52500000
v -1315.17450000 -812.14485000 1076.59500000
v -1404.08450000 -1041.51485000 1059.68500000
v -1353.49450000 -514.20485000 1041.81500000
v -1389.41450000 -1053.49485000 977.61500000
v -1323.00450000 -1033.07485000 714.46500000
v -1322.94450000 -857.01485000 580.18500000
v -1348.05450000 -558.63485000 557.73500000
v -1325.06450000 -909.86485000 1073.43500000
v -1284.11450000 -374.54485000 909.81500000
v -1380.46450000 -1052.24485000 605.67500000
v -1304.22450000 -756.97485000 561.00500000
v -1340.70450000 -979.21485000 1044.37500000
v -1237.44450000 -500.84485000 1020.16500000
v -1304.35450000 -393.09485000 970.09500000
v -1294.28450000 -383.48485000 816.60500000
v -1244.03450000 -971.33485000 844.47500000
v -1302.74450000 -1018.47485000 645.54500000
v -1353.25450000 -487.57485000 590.32500000
v -1279.56450000 -413.22485000 621.62500000
v -1275.56450000 -623.21485000 529.76500000
v -1266.27450000 -606.27485000 1049.08500000
v -1261.47450000 -1000.66485000 670.51500000
v -1295.05450000 -918.36485000 589.59500000
v -1299.93450000 -525.16485000 539.11500000
v -1221.26450000 -407.32485000 979.98500000
v -1254.93450000 -954.99485000 967.30500000
v -1188.01450000 -360.81485000 936.84500000
v -1217.03450000 -973.07485000 719.46500000
v -1216.82450000 -354.08485000 775.04500000
v -1265.24450000 -966.19485000 613.45500000
v -1258.23450000 -851.85485000 578.78500000
v -1276.91450000 -456.01485000 540.47500000
v -1234.78450000 -372.33485000 528.05500000
v -1247.58450000 -523.17485000 501.92500000
v -1159.92450000 -729.12485000 1052.42500000
v -1220.27450000 -833.18485000 1061.68500000
v -1188.48450000 -875.77485000 1033.04500000
v -1207.93450000 -346.15485000 646.84500000
v -1228.70450000 -394.83485000 461.15500000
v -1223.15450000 -342.45485000 458.77500000
v -1113.51450000 -588.95485000 1020.18500000
v -1240.82450000 -360.99485000 849.16500000
v -1185.17450000 -952.58485000 782.26500000
v -1197.86450000 -817.47485000 559.80500000
v -1150.15450000 -716.93485000 497.02500000
v -1162.23450000 -270.54485000 566.38500000
v -1205.70450000 -303.95485000 465.65500000
v -1187.40450000 -586.64485000 467.69500000
v -1195.26450000 -465.20485000 429.58500000
v -1205.72450000 -301.83485000 409.69500000
v -1147.21450000 -907.67485000 930.23500000
v -1197.05450000 -347.74485000 882.10500000
v -1144.62450000 -939.86485000 753.80500000
v -1200.79450000 -961.44485000 654.31500000
v -1205.19450000 -883.95485000 586.66500000
v -1188.32450000 -257.99485000 418.57500000
v -1192.19450000 -334.92485000 378.67500000
v -1181.99450000 -242.69485000 347.07500000
v -1155.14450000 -200.59485000 399.07500000
v -1067.52450000 -855.19485000 973.99500000
v -1109.37450000 -458.98485000 982.15500000
v -1106.52450000 -360.06485000 942.04500000
v -1143.21450000 -333.17485000 910.87500000
v -1145.74450000 -299.00485000 737.42500000
v -1105.14450000 -888.06485000 598.20500000
v -1161.07450000 -520.20485000 417.99500000
v -1156.63450000 -406.21485000 362.28500000
v -1164.06450000 -265.37485000 310.40500000
v -1152.56450000 -182.81485000 286.82500000
v -1130.93450000 -314.53485000 298.51500000
v -1081.39450000 -794.33485000 1035.40500000
v -1113.92450000 -912.81485000 839.82500000
v -1114.96450000 -931.47485000 694.99500000
v -1108.13450000 -165.68485000 479.02500000
v -1127.74450000 -124.84485000 287.39500000
v -1102.97450000 -465.74485000 352.88500000
v -1135.78450000 -208.87485000 256.53500000
v -1122.47450000 -128.81485000 224.01500000
v -1106.90450000 -89.64485000 215.37500000
v -1120.16450000 -175.39485000 228.07500000
v -1097.54450000 -315.93485000 910.90500000
v -1128.81450000 -309.44485000 847.97500000
v -1080.97450000 -909.62485000 650.37500000
v -1111.50450000 -814.13485000 540.06500000
v -1123.25450000 -568.45485000 415.73500000
v -1080.39450000 -101.61485000 381.24500000
v -1079.94450000 -80.35485000 287.82500000
v -1098.38450000 -262.57485000 261.80500000
v -1105.45450000 -90.94485000 202.96500000
v -1095.26450000 -167.39485000 223.33500000
v -1075.93450000 -881.23485000 905.50500000
v -1087.60450000 -231.30485000 705.52500000
v -1074.55450000 -423.55485000 326.33500000
v -1074.76450000 -76.34485000 242.22500000
v -1081.25450000 -111.84485000 216.58500000
v -955.89450000 -541.64485000 972.51500000
v -1004.10450000 -383.95485000 933.56500000
v -1050.90450000 -254.38485000 842.41500000
v -1022.57450000 -124.87485000 586.95500000
v -1038.36450000 -723.24485000 463.27500000
v -1090.70450000 -650.27485000 438.90500000
v -1063.10450000 -572.23485000 393.83500000
v -1028.14450000 -76.49485000 417.71500000
v -1064.21450000 -261.71485000 263.81500000
v -1040.05450000 -814.78485000 1012.80500000
v -1005.33450000 -268.12485000 884.23500000
v -1030.25450000 -891.48485000 764.20500000
v -1029.45450000 -67.63485000 339.64500000
v -1041.69450000 -379.47485000 312.31500000
v -1060.24450000 -202.60485000 240.32500000
v -1071.57450000 -160.43485000 225.50500000
v -1061.96450000 -150.78485000 228.24500000
v -1054.80450000 -80.20485000 249.45500000
v -975.08450000 -672.35485000 1011.24500000
v -992.85450000 -740.35485000 1021.59500000
v -953.46450000 -840.83485000 887.34500000
v -1020.52450000 -188.88485000 757.75500000
v -978.48450000 -873.21485000 684.63500000
v -1003.84450000 -866.70485000 618.95500000
v -1029.67450000 -802.65485000 523.92500000
v -1026.59450000 -515.00485000 364.30500000
v -1035.70450000 -71.77485000 295.00500000
v -1044.18450000 -110.38485000 259.33500000
v -975.41450000 -183.46485000 821.31500000
v -957.81450000 -125.78485000 734.50500000
v -955.46450000 -71.18485000 562.50500000
v -975.36450000 -63.18485000 452.66500000
v -1012.09450000 -625.14485000 412.62500000
v -1008.22450000 -461.21485000 353.06500000
v -1027.09450000 -302.95485000 299.55500000
v -1016.02450000 -391.10485000 331.71500000
v -1026.65450000 -75.82485000 305.55500000
v -1031.22450000 -185.96485000 283.27500000
v -920.10450000 -770.66485000 999.73500000
v -948.97450000 -803.43485000 983.73500000
v -925.45450000 -304.97485000 888.00500000
v -880.48450000 -825.69485000 811.75500000
v -935.62450000 -92.84485000 684.12500000
v -976.93450000 -816.88485000 549.51500000
v -986.88450000 -763.48485000 488.53500000
v -977.49450000 -696.25485000 451.52500000
v -999.60450000 -69.05485000 375.42500000
v -975.71450000 -575.81485000 415.15500000
v -1000.66450000 -145.02485000 347.04500000
v -932.39450000 -815.51485000 951.26500000
v -921.33450000 -208.77485000 857.50500000
v -935.82450000 -177.85485000 838.53500000
v -918.85450000 -827.43485000 620.97500000
v -941.86450000 -62.83485000 484.65500000
v -989.48450000 -400.10485000 371.08500000
v -1000.41450000 -257.41485000 347.90500000
v -905.03450000 -434.48485000 921.17500000
v -926.08450000 -138.53485000 800.34500000
v -895.54450000 -104.87485000 762.61500000
v -900.67450000 -64.12485000 589.19500000
v -935.03450000 -758.21485000 512.63500000
v -950.77450000 -108.92485000 452.57500000
v -918.61450000 -698.30485000 499.80500000
v -942.58450000 -261.06485000 457.00500000
v -918.02450000 -469.12485000 499.19500000
v -830.36450000 -657.07485000 970.01500000
v -876.61450000 -722.78485000 991.42500000
v -846.52450000 -781.85485000 950.31500000
v -892.60450000 -82.02485000 684.17500000
v -902.47450000 -63.06485000 559.31500000
v -905.05450000 -72.63485000 547.74500000
v -883.91450000 -632.76485000 541.52500000
v -843.79450000 -519.66485000 924.98500000
v -851.06450000 -800.37485000 892.23500000
v -866.70450000 -229.99485000 844.68500000
v -852.94450000 -372.12485000 877.24500000
v -889.07450000 -151.78485000 811.35500000
v -841.88450000 -803.48485000 738.46500000
v -906.63450000 -793.98485000 573.83500000
v -873.89450000 -203.69485000 591.80500000
v -904.91450000 -145.07485000 535.74500000
v -858.60450000 -349.75485000 616.39500000
v -863.21450000 -104.92485000 755.68500000
v -854.81450000 -783.40485000 630.22500000
v -882.59450000 -70.14485000 606.99500000
v -863.28450000 -123.71485000 636.27500000
v -842.43450000 -518.89485000 626.22500000
v -892.31450000 -757.23485000 559.11500000
v -841.89450000 -171.25485000 794.42500000
v -864.81450000 -93.63485000 678.34500000
v -828.61450000 -218.70485000 695.63500000
v -865.28450000 -726.05485000 578.65500000
v -828.10450000 -657.89485000 636.19500000
v -829.61450000 -746.90485000 975.41500000
v -818.11450000 -291.46485000 824.39500000
v -810.76450000 -407.07485000 711.31500000
v -801.00450000 -714.23485000 968.96500000
v -791.88450000 -462.59485000 867.85500000
v -816.63450000 -213.76485000 791.63500000
v -833.85450000 -170.31485000 749.20500000
v -848.78450000 -150.38485000 690.05500000
v -808.98450000 -773.26485000 708.00500000
v -819.64450000 -737.07485000 663.84500000
v -787.18450000 -589.62485000 920.02500000
v -792.51450000 -368.44485000 827.34500000
v -805.07450000 -320.04485000 780.78500000
v -794.80450000 -771.33485000 868.43500000
v -790.16450000 -766.36485000 779.52500000
v -794.91450000 -564.81485000 719.66500000
v -787.21450000 -748.08485000 743.76500000
v -777.95450000 -682.29485000 757.43500000
v -770.83450000 -671.53485000 938.77500000
v -795.04450000 -732.03485000 939.72500000
v -782.60450000 -429.00485000 827.29500000
v -782.41450000 -476.19485000 789.83500000
v -759.16450000 -608.73485000 820.26500000
v -757.98450000 -612.82485000 890.98500000
v -775.79450000 -518.40485000 840.10500000
v -760.98450000 -728.44485000 827.00500000
v -754.61450000 -682.32485000 824.93500000
v -768.06450000 -703.40485000 894.77500000
v -760.60450000 -667.85485000 849.66500000
v 747.91550000 -700.76485000 930.81500000
v 745.99550000 -673.24485000 895.80500000
v 750.51550000 -703.21485000 871.84500000
v 754.38550000 -732.07485000 917.60500000
v 776.77550000 -767.10485000 854.12500000
v 796.69550000 -761.75485000 923.13500000
v 775.84550000 -742.61485000 799.93500000
v 763.34550000 -627.99485000 835.97500000
v 801.90550000 -733.69485000 951.46500000
v 790.12550000 -657.63485000 940.11500000
v 767.43550000 -629.81485000 898.28500000
v 775.28550000 -547.82485000 865.22500000
v 782.14550000 -493.46485000 812.27500000
v 782.97550000 -696.42485000 759.90500000
v 867.12550000 -670.55485000 975.41500000
v 809.58550000 -518.65485000 895.72500000
v 875.81550000 -798.30485000 911.38500000
v 798.13550000 -437.66485000 846.74500000
v 824.22550000 -793.90485000 835.15500000
v 800.76550000 -350.06485000 805.22500000
v 800.23550000 -441.30485000 756.50500000
v 811.73550000 -780.03485000 728.07500000
v 836.99550000 -803.94485000 762.05500000
v 794.09550000 -587.15485000 748.41500000
v 832.10550000 -554.41485000 665.29500000
v 813.66550000 -752.55485000 691.38500000
v 866.62550000 -570.26485000 943.17500000
v 819.04550000 -410.91485000 865.04500000
v 830.55550000 -301.81485000 835.09500000
v 821.51550000 -208.39485000 789.13500000
v 812.68550000 -274.61485000 759.62500000
v 827.64550000 -154.64485000 745.71500000
v 870.65550000 -407.89485000 611.77500000
v 840.59550000 -675.30485000 637.52500000
v 910.63550000 -749.00485000 992.67500000
v 905.41550000 -777.04485000 967.89500000
v 881.47550000 -379.81485000 891.00500000
v 901.92550000 -824.47485000 823.78500000
v 849.73550000 -163.53485000 807.66500000
v 842.24550000 -126.34485000 757.46500000
v 868.89550000 -78.19485000 693.54500000
v 854.38550000 -104.38485000 693.85500000
v 861.72550000 -219.44485000 652.22500000
v 880.23550000 -814.22485000 659.05500000
v 863.06550000 -780.50485000 622.52500000
v 863.41550000 -742.22485000 597.08500000
v 999.87550000 -675.84485000 1010.78500000
v 887.79550000 -499.76485000 927.57500000
v 872.53550000 -109.73485000 772.77500000
v 961.22550000 -859.75485000 715.38500000
v 879.70550000 -75.68485000 631.66500000
v 934.10550000 -237.58485000 482.40500000
v 888.78550000 -125.53485000 597.06500000
v 900.24550000 -713.31485000 530.94500000
v 898.43550000 -221.71485000 847.88500000
v 893.30550000 -148.23485000 813.12500000
v 883.63550000 -83.10485000 722.06500000
v 904.59550000 -68.84485000 592.95500000
v 908.71550000 -81.09485000 567.26500000
v 940.51550000 -443.99485000 465.48500000
v 912.57550000 -595.34485000 522.16500000
v 907.77550000 -758.41485000 537.16500000
v 979.44550000 -484.91485000 954.08500000
v 907.24550000 -120.85485000 799.00500000
v 913.20550000 -95.26485000 722.76500000
v 919.59550000 -76.07485000 628.07500000
v 914.76550000 -797.65485000 582.71500000
v 927.16550000 -119.40485000 515.86500000
v 951.00550000 -706.57485000 481.10500000
v 1027.33550000 -804.74485000 1016.10500000
v 965.02550000 -307.29485000 896.92500000
v 959.26550000 -181.85485000 830.83500000
v 1025.33550000 -873.16485000 826.82500000
v 945.09550000 -66.89485000 532.98500000
v 975.33550000 -844.07485000 621.21500000
v 952.93550000 -79.44485000 485.90500000
v 1015.86550000 -751.52485000 1023.67500000
v 996.61550000 -820.15485000 975.77500000
v 971.57550000 -240.74485000 868.50500000
v 1021.90550000 -852.89485000 915.78500000
v 954.87550000 -134.40485000 753.38500000
v 1089.45550000 -912.12485000 659.43500000
v 951.37550000 -129.75485000 465.13500000
v 978.37550000 -796.37485000 548.09500000
v 986.94550000 -374.16485000 379.54500000
v 976.31550000 -502.01485000 411.34500000
v 981.80550000 -600.50485000 429.46500000
v 1028.14550000 -281.01485000 895.41500000
v 989.88550000 -103.94485000 609.05500000
v 969.99550000 -72.32485000 526.25500000
v 991.57550000 -66.15485000 433.06500000
v 1025.86550000 -745.30485000 487.57500000
v 987.56550000 -134.75485000 382.39500000
v 1007.79550000 -75.21485000 365.76500000
v 1011.66550000 -657.00485000 438.99500000
v 1010.76550000 -508.24485000 375.20500000
v 1006.57550000 -233.64485000 338.87500000
v 1111.44550000 -710.71485000 1041.78500000
v 1018.14550000 -246.93485000 868.40500000
v 1046.51550000 -195.19485000 716.10500000
v 1022.58550000 -63.26485000 346.24500000
v 1013.21550000 -429.58485000 356.59500000
v 1029.21550000 -96.56485000 295.19500000
v 1028.66550000 -153.03485000 291.90500000
v 1100.20550000 -789.24485000 1041.45500000
v 1089.62550000 -352.42485000 935.94500000
v 1041.92550000 -239.99485000 832.02500000
v 1078.55550000 -144.56485000 521.67500000
v 1109.63550000 -912.53485000 771.59500000
v 1047.54550000 -862.48485000 601.26500000
v 1030.56550000 -70.76485000 403.54500000
v 1091.98550000 -831.46485000 562.90500000
v 1036.77550000 -63.55485000 324.07500000
v 1031.14550000 -571.90485000 394.60500000
v 1050.22550000 -72.01485000 277.84500000
v 1031.39550000 -332.44485000 319.56500000
v 1054.47550000 -430.37485000 337.71500000
v 1054.58550000 -214.90485000 265.48500000
v 1148.89550000 -445.89485000 986.79500000
v 1100.59550000 -313.86485000 906.45500000
v 1108.58550000 -758.05485000 506.64500000
v 1074.62550000 -657.20485000 444.35500000
v 1071.93550000 -64.19485000 249.41500000
v 1063.81550000 -121.62485000 239.62500000
v 1165.21550000 -557.35485000 1019.75500000
v 1136.95550000 -876.40485000 997.50500000
v 1078.45550000 -284.13485000 873.45500000
v 1178.93550000 -920.89485000 906.87500000
v 1083.64550000 -99.41485000 389.26500000
v 1067.53550000 -63.14485000 282.10500000
v 1082.97550000 -522.98485000 378.77500000
v 1069.23550000 -301.99485000 287.18500000
v 1085.18550000 -231.73485000 248.06500000
v 1087.64550000 -159.42485000 216.65500000
v 1089.05550000 -80.73485000 218.16500000
v 1097.17550000 -111.62485000 204.52500000
v 1187.93550000 -862.12485000 1047.22500000
v 1169.94550000 -344.44485000 925.59500000
v 1133.30550000 -218.72485000 550.30500000
v 1115.92550000 -891.25485000 611.57500000
v 1093.45550000 -73.89485000 281.37500000
v 1105.63550000 -414.72485000 332.52500000
v 1106.53550000 -289.39485000 275.34500000
v 1092.94550000 -74.89485000 231.07500000
v 1106.85550000 -177.27485000 216.53500000
v 1106.53550000 -126.49485000 198.35500000
v 1221.23550000 -789.35485000 1062.65500000
v 1124.18550000 -284.49485000 787.31500000
v 1162.95550000 -292.22485000 646.29500000
v 1178.63550000 -886.55485000 595.15500000
v 1148.97550000 -594.85485000 443.74500000
v 1145.41550000 -449.32485000 373.12500000
v 1107.86550000 -100.63485000 203.53500000
v 1308.90550000 -653.66485000 1059.09500000
v 1240.61550000 -397.73485000 988.63500000
v 1209.42550000 -370.03485000 956.95500000
v 1176.82550000 -330.43485000 876.06500000
v 1204.81550000 -958.09485000 712.94500000
v 1197.52550000 -936.98485000 633.48500000
v 1186.58550000 -803.66485000 555.08500000
v 1154.55550000 -178.18485000 385.67500000
v 1164.15550000 -702.01485000 501.54500000
v 1124.72550000 -105.57485000 293.62500000
v 1140.15550000 -339.40485000 314.87500000
v 1115.84550000 -94.23485000 233.83500000
v 1135.36550000 -178.44485000 227.25500000
v 1115.12550000 -133.99485000 205.82500000
v 1262.08550000 -946.67485000 1002.32500000
v 1219.02550000 -949.53485000 818.59500000
v 1224.95550000 -356.41485000 693.29500000
v 1148.01550000 -255.26485000 278.07500000
v 1127.98550000 -123.43485000 217.90500000
v 1290.35550000 -878.20485000 1073.36500000
v 1284.80550000 -944.08485000 1041.09500000
v 1216.46550000 -343.88485000 807.20500000
v 1267.78550000 -991.98485000 650.90500000
v 1239.32550000 -920.91485000 603.22500000
v 1236.48550000 -866.10485000 583.90500000
v 1202.31550000 -287.94485000 497.29500000
v 1230.03550000 -606.29485000 500.39500000
v 1209.21550000 -464.50485000 432.68500000
v 1178.69550000 -301.04485000 335.89500000
v 1142.13550000 -133.05485000 267.85500000
v 1158.03550000 -207.00485000 264.39500000
v 1146.84550000 -163.89485000 249.05500000
v 1255.26550000 -366.20485000 943.14500000
v 1286.39550000 -1001.18485000 748.64500000
v 1259.82550000 -693.32485000 542.15500000
v 1199.58550000 -251.75485000 410.15500000
v 1162.06550000 -201.56485000 304.55500000
v 1180.91550000 -239.67485000 362.33500000
v 1329.39550000 -844.00485000 1079.52500000
v 1449.38550000 -815.84485000 1082.37500000
v 1312.38550000 -450.23485000 1022.83500000
v 1306.70550000 -980.64485000 972.56500000
v 1305.52550000 -372.85485000 890.08500000
v 1301.25550000 -1020.73485000 674.97500000
v 1304.60550000 -990.08485000 612.64500000
v 1222.40550000 -305.65485000 444.58500000
v 1224.64550000 -367.97485000 421.23500000
v 1206.48550000 -298.86485000 403.43500000
v 1311.94550000 -926.65485000 1066.01500000
v 1308.02550000 -387.33485000 985.80500000
v 1329.73550000 -1016.97485000 852.49500000
v 1303.82550000 -396.84485000 743.90500000
v 1319.65550000 -439.25485000 615.96500000
v 1245.51550000 -373.81485000 582.69500000
v 1303.82550000 -812.51485000 573.22500000
v 1305.21550000 -926.15485000 590.75500000
v 1260.33550000 -518.76485000 494.54500000
v 1261.10550000 -453.62485000 484.97500000
v 1232.78550000 -354.91485000 447.45500000
v 1245.15550000 -394.86485000 464.75500000
v 1415.51550000 -961.17485000 1088.12500000
v 1385.57550000 -527.15485000 1051.81500000
v 1421.77550000 -411.69485000 1017.94500000
v 1353.31550000 -1051.55485000 628.68500000
v 1243.20550000 -376.34485000 491.34500000
v 1358.35550000 -1015.88485000 1032.25500000
v 1380.33550000 -1007.41485000 581.65500000
v 1290.76550000 -451.60485000 546.45500000
v 1371.80550000 -677.78485000 564.50500000
v 1302.25550000 -555.94485000 533.52500000
v 1473.70550000 -599.90485000 1073.41500000
v 1506.85550000 -449.30485000 1050.72500000
v 1409.92550000 -1079.59485000 961.48500000
v 1379.33550000 -392.10485000 974.20500000
v 1376.58550000 -414.58485000 801.41500000
v 1378.52550000 -1067.51485000 721.15500000
v 1419.77550000 -446.72485000 706.77500000
v 1411.23550000 -1075.42485000 588.44500000
v 1351.21550000 -499.58485000 572.08500000
v 1384.18550000 -917.82485000 578.13500000
v 1376.31550000 -1001.65485000 1065.51500000
v 1453.78550000 -1121.08485000 865.38500000
v 1443.03550000 -482.69485000 617.72500000
v 1429.51550000 -806.62485000 573.89500000
v 1452.83550000 -570.86485000 566.99500000
v 1448.79550000 -1123.89485000 787.60500000
v 1466.52550000 -1143.25485000 634.58500000
v 1506.17550000 -518.87485000 585.82500000
v 1440.55550000 -1071.55485000 1086.85500000
v 1428.35550000 -1089.54485000 1068.09500000
v 1428.89550000 -1105.37485000 1035.94500000
v 1456.65550000 -409.81485000 915.49500000
v 1472.61550000 -431.63485000 825.87500000
v 1454.94550000 -1007.48485000 556.20500000
v 1495.55550000 -914.95485000 558.18500000
v 1518.99550000 -1109.30485000 535.57500000
v 1534.40550000 -1050.03485000 1100.64500000
v 1508.06550000 -1144.63485000 1098.03500000
v 1518.20550000 -975.67485000 1091.08500000
v 1482.51550000 -1165.88485000 1083.77500000
v 1464.96550000 -1155.00485000 1060.03500000
v 1494.31550000 -1197.48485000 1002.10500000
v 1520.52550000 -1202.40485000 894.49500000
v 1510.43550000 -1189.99485000 707.42500000
v 1497.88550000 -689.64485000 570.75500000
v 1514.58550000 -1240.62485000 1062.57500000
v 1489.18550000 -507.66485000 1065.02500000
v 1543.80550000 -409.36485000 992.77500000
v 1532.56550000 -1212.53485000 796.30500000
v 1542.13550000 -450.70485000 785.54500000
v 1524.43550000 -1171.63485000 569.94500000
v 1604.44550000 -543.56485000 568.68500000
v 1551.89550000 -1232.59485000 657.99500000
v 1566.63550000 -475.49485000 691.75500000
v 1557.05550000 -500.48485000 616.13500000
v 1525.45550000 -790.38485000 566.53500000
v 1572.89550000 -606.28485000 566.32500000
v 1590.36550000 -1018.13485000 512.25500000
v 1540.56550000 -1268.30485000 1082.40500000
v 1558.02550000 -1321.67485000 1064.68500000
v 1581.31550000 -1347.53485000 1001.48500000
v 1586.07550000 -1313.90485000 910.68500000
v 1624.15550000 -432.22485000 882.82500000
v 1592.86550000 -1265.63485000 612.06500000
v 1654.03550000 -516.48485000 583.62500000
v 1593.01550000 -1218.12485000 533.42500000
v 1597.21550000 -1157.44485000 1098.03500000
v 1588.60550000 -519.33485000 1074.40500000
v 1572.67550000 -703.92485000 1082.99500000
v 1634.87550000 -926.22485000 1091.27500000
v 1588.88550000 -1354.71485000 1065.85500000
v 1597.53550000 -1375.60485000 1040.08500000
v 1655.87550000 -423.18485000 1029.47500000
v 1596.90550000 -415.33485000 948.54500000
v 1614.66550000 -1266.54485000 560.36500000
v 1619.65550000 -849.55485000 529.33500000
v 1608.28550000 -1251.86485000 1088.07500000
v 1590.06550000 -1316.75485000 1075.29500000
v 1599.16550000 -1287.39485000 711.40500000
v 1613.43550000 -698.60485000 552.16500000
v 1672.16550000 -1133.45485000 466.92500000
v 1659.74550000 -456.16485000 1057.57500000
v 1625.30550000 -1424.34485000 1002.46500000
v 1656.34550000 -1472.84485000 949.44500000
v 1637.21550000 -1414.96485000 914.97500000
v 1642.49550000 -460.28485000 777.64500000
v 1599.45550000 -1304.38485000 815.93500000
v 1663.52550000 -1336.12485000 580.18500000
v 1717.02550000 -1265.62485000 482.20500000
v 1675.27550000 -1354.00485000 1049.11500000
v 1634.06550000 -1409.57485000 1023.33500000
v 1662.34550000 -1423.49485000 844.88500000
v 1669.31550000 -496.13485000 633.25500000
v 1676.03550000 -749.73485000 521.06500000
v 1693.46550000 -1132.36485000 1087.92500000
v 1707.48550000 -695.53485000 1085.46500000
v 1666.93550000 -1480.15485000 977.50500000
v 1694.01550000 -1433.00485000 734.36500000
v 1705.48550000 -680.07485000 525.67500000
v 1677.51550000 -1318.16485000 541.52500000
v 1687.91550000 -810.55485000 502.70500000
v 1702.95550000 -874.45485000 486.90500000
v 1696.33550000 -954.37485000 480.72500000
v 1745.56550000 -1059.12485000 445.16500000
v 1688.27550000 -1461.05485000 998.30500000
v 1713.55550000 -418.77485000 960.22500000
v 1694.24550000 -1508.48485000 881.74500000
v 1722.61550000 -477.61485000 700.50500000
v 1676.40550000 -1377.60485000 634.34500000
v 1696.09550000 -605.32485000 544.06500000
v 1775.54550000 -540.25485000 1068.09500000
v 1751.22550000 -1233.48485000 1062.65500000
v 1717.84550000 -1538.59485000 951.44500000
v 1721.78550000 -1562.59485000 914.83500000
v 1727.45550000 -454.53485000 796.33500000
v 1718.16550000 -1516.06485000 814.00500000
v 1726.06550000 -1413.03485000 568.12500000
v 1747.94550000 -733.89485000 499.77500000
v 1741.56550000 -816.19485000 480.44500000
v 1791.91550000 -1208.06485000 421.96500000
v 1774.11550000 -1406.26485000 1003.32500000
v 1774.45550000 -1495.94485000 962.01500000
v 1793.75550000 -436.07485000 849.01500000
v 1757.36550000 -1592.36485000 915.29500000
v 1792.59550000 -1646.79485000 877.25500000
v 1781.45550000 -1651.70485000 863.27500000
v 1759.26550000 -1606.01485000 838.94500000
v 1757.28550000 -1501.07485000 637.28500000
v 1802.54550000 -502.19485000 592.42500000
v 1736.42550000 -538.53485000 559.49500000
v 1769.23550000 -1410.60485000 517.67500000
v 1760.96550000 -880.62485000 469.65500000
v 1815.77550000 -1147.33485000 402.86500000
v 1881.35550000 -1108.24485000 378.86500000
v 1779.79550000 -1027.27485000 1084.33500000
v 1805.75550000 -1129.98485000 1069.78500000
v 1800.91550000 -455.27485000 1040.41500000
v 1779.93550000 -1573.24485000 924.13500000
v 1772.94550000 -1587.37485000 736.49500000
v 1814.87550000 -1546.80485000 560.34500000
v 1785.90550000 -629.17485000 515.98500000
v 1785.20550000 -750.89485000 485.51500000
v 1874.93550000 -1455.49485000 479.12500000
v 1808.96550000 -965.86485000 449.52500000
v 1864.69550000 -1045.10485000 409.41500000
v 1807.29550000 -884.57485000 1081.74500000
v 1823.92550000 -427.42485000 994.51500000
v 1807.37550000 -1705.92485000 818.73500000
v 1805.17550000 -1693.17485000 767.46500000
v 1792.18550000 -566.51485000 530.99500000
v 1815.76550000 -787.37485000 479.49500000
v 1874.77550000 -1288.81485000 414.69500000
v 1833.67550000 -711.58485000 1075.55500000
v 1830.09550000 -1308.66485000 1022.48500000
v 1905.75550000 -1419.26485000 951.34500000
v 1846.39550000 -1635.08485000 879.82500000
v 1857.56550000 -1738.08485000 836.99500000
v 1864.35550000 -1803.62485000 784.53500000
v 1828.75550000 -1701.36485000 681.97500000
v 1855.06550000 -465.58485000 694.36500000
v 1822.12550000 -1631.86485000 627.77500000
v 1855.56550000 -1539.65485000 522.22500000
v 1849.18550000 -680.88485000 492.36500000
v 1892.80550000 -1190.28485000 1039.82500000
v 1869.61550000 -1542.46485000 907.55500000
v 1881.79550000 -1717.17485000 852.65500000
v 1838.66550000 -1786.04485000 742.01500000
v 1845.38550000 -1778.04485000 674.00500000
v 1856.92550000 -1737.70485000 619.24500000
v 1901.93550000 -515.52485000 523.59500000
v 1826.28550000 -534.49485000 541.35500000
v 1886.77550000 -573.55485000 503.96500000
v 1827.15550000 -870.67485000 465.10500000
v 1899.37550000 -1206.20485000 368.17500000
v 1867.26550000 -613.17485000 1066.33500000
v 1908.12550000 -1870.90485000 758.89500000
v 1880.14550000 -1863.00485000 697.53500000
v 1862.44550000 -1835.39485000 664.70500000
v 1873.48550000 -1815.64485000 615.86500000
v 1891.79550000 -1871.14485000 619.55500000
v 1857.35550000 -1665.34485000 580.06500000
v 1882.02550000 -1660.87485000 549.43500000
v 1876.31550000 -742.40485000 486.82500000
v 1894.17550000 -833.02485000 480.96500000
v 1923.06550000 -1006.58485000 417.56500000
v 1883.15550000 -528.72485000 1044.81500000
v 1869.88550000 -1052.14485000 1063.35500000
v 1933.17550000 -1851.64485000 789.47500000
v 1923.35550000 -1905.09485000 700.95500000
v 1918.11550000 -1905.87485000 649.76500000
v 1886.94550000 -1777.95485000 580.94500000
v 1890.56550000 -1837.76485000 597.63500000
v 1908.87550000 -1623.01485000 521.68500000
v 1897.79550000 -924.63485000 456.90500000
v 1889.99550000 -458.23485000 1009.72500000
v 1860.19550000 -425.57485000 919.01500000
v 1973.31550000 -1504.28485000 876.89500000
v 2022.49550000 -1416.41485000 897.60500000
v 1957.79550000 -1722.29485000 843.87500000
v 1923.71550000 -440.66485000 788.53500000
v 1939.06550000 -1911.08485000 608.42500000
v 1935.72550000 -1857.81485000 586.63500000
v 1941.80550000 -623.37485000 486.00500000
v 1950.37550000 -1074.98485000 376.16500000
v 1960.86550000 -1245.11485000 354.29500000
v 1941.23550000 -1161.60485000 343.36500000
v 1898.66550000 -755.45485000 1066.07500000
v 1909.26550000 -930.06485000 1057.08500000
v 1911.42550000 -671.16485000 1050.90500000
v 1897.85550000 -437.90485000 963.94500000
v 1967.59550000 -1812.97485000 817.87500000
v 1992.71550000 -1941.26485000 677.70500000
v 1975.78550000 -1932.07485000 630.82500000
v 1961.27550000 -1749.04485000 547.05500000
v 1979.56550000 -563.12485000 483.45500000
v 1916.61550000 -694.40485000 490.97500000
v 1940.65550000 -748.07485000 495.44500000
v 1966.83550000 -1626.88485000 508.25500000
v 1946.88550000 -906.26485000 477.06500000
v 1966.59550000 -1388.22485000 443.53500000
v 2004.61550000 -1517.98485000 486.73500000
v 1938.55550000 -842.15485000 1041.39500000
v 1929.48550000 -496.93485000 1009.75500000
v 1935.18550000 -567.14485000 1014.99500000
v 1960.32550000 -1616.21485000 853.04500000
v 1970.15550000 -1907.45485000 738.70500000
v 1980.01550000 -458.02485000 654.56500000
v 2009.58550000 -1932.70485000 607.76500000
v 2035.73550000 -1898.09485000 583.55500000
v 1958.31550000 -535.23485000 497.39500000
v 1956.87550000 -845.33485000 502.39500000
v 1990.60550000 -1301.59485000 393.64500000
v 1969.69550000 -1124.97485000 345.09500000
v 2001.36550000 -1208.18485000 326.64500000
v 1938.74550000 -728.33485000 1024.61500000
v 1941.68550000 -809.19485000 1027.38500000
v 1968.81550000 -1117.41485000 1026.72500000
v 1969.05550000 -1268.29485000 988.65500000
v 1935.32550000 -439.21485000 880.41500000
v 1995.17550000 -435.97485000 775.64500000
v 2023.69550000 -1722.50485000 828.76500000
v 1950.63550000 -500.28485000 557.82500000
v 2072.03550000 -1950.47485000 637.22500000
v 1974.29550000 -778.99485000 515.39500000
v 1964.52550000 -668.51485000 490.28500000
v 1970.05550000 -976.73485000 447.80500000
v 1997.27550000 -1054.88485000 390.53500000
v 2016.02550000 -1255.30485000 355.43500000
v 1979.72550000 -1027.92485000 1022.78500000
v 1954.49550000 -501.61485000 972.52500000
v 1960.21550000 -529.76485000 945.65500000
v 1951.85550000 -640.18485000 950.95500000
v 1956.91550000 -858.36485000 981.01500000
v 1947.75550000 -752.78485000 973.85500000
v 1981.16550000 -976.27485000 1005.73500000
v 1936.71550000 -463.47485000 933.97500000
v 1954.48550000 -759.66485000 914.10500000
v 1967.65550000 -869.16485000 863.94500000
v 2015.29550000 -1352.73485000 934.25500000
v 1995.99550000 -448.26485000 817.99500000
v 1968.15550000 -667.57485000 853.32500000
v 1975.36550000 -813.17485000 782.02500000
v 2043.41550000 -1559.18485000 818.44500000
v 2062.73550000 -1820.54485000 807.50500000
v 2000.43550000 -1890.78485000 771.05500000
v 2001.78550000 -439.23485000 720.73500000
v 2032.97550000 -435.55485000 719.20500000
v 1990.77550000 -689.68485000 504.42500000
v 2062.13550000 -1628.43485000 508.79500000
v 1993.84550000 -531.99485000 502.55500000
v 2023.61550000 -1163.95485000 325.71500000
v 2009.79550000 -1045.40485000 939.62500000
v 2000.41550000 -1000.96485000 837.28500000
v 1973.02550000 -493.18485000 883.02500000
v 1968.40550000 -571.79485000 891.54500000
v 2001.98550000 -565.36485000 794.07500000
v 2066.24550000 -1453.04485000 844.51500000
v 1988.44550000 -738.01485000 727.27500000
v 2016.54550000 -990.04485000 670.21500000
v 2003.62550000 -881.84485000 635.75500000
v 2010.37550000 -665.33485000 685.59500000
v 1997.88550000 -794.31485000 606.58500000
v 2070.80550000 -1940.76485000 725.11500000
v 2106.26550000 -1959.12485000 677.83500000
v 2036.45550000 -1834.68485000 558.46500000
v 1995.28550000 -751.84485000 543.88500000
v 1987.16550000 -837.50485000 536.42500000
v 2104.33550000 -1740.85485000 533.64500000
v 1990.88550000 -932.35485000 493.90500000
v 2024.57550000 -511.95485000 536.76500000
v 1992.75550000 -615.23485000 489.11500000
v 2072.92550000 -1451.81485000 479.43500000
v 2044.67550000 -1353.78485000 436.16500000
v 2001.62550000 -1111.71485000 353.00500000
v 2009.50550000 -1126.61485000 1007.92500000
v 2026.66550000 -1124.69485000 980.32500000
v 2024.42550000 -1194.90485000 981.34500000
v 2045.40550000 -1145.27485000 813.59500000
v 2009.13550000 -485.51485000 807.21500000
v 2053.13550000 -1155.61485000 668.71500000
v 2059.38550000 -1658.86485000 807.03500000
v 2064.01550000 -1890.09485000 772.23500000
v 2028.28550000 -437.45485000 745.07500000
v 2032.21550000 -569.05485000 709.77500000
v 2059.12550000 -1123.15485000 571.36500000
v 2030.22550000 -455.68485000 659.34500000
v 2015.75550000 -682.46485000 595.53500000
v 2030.49550000 -614.21485000 641.15500000
v 2013.36550000 -483.06485000 601.77500000
v 2003.72550000 -894.14485000 553.90500000
v 2023.31550000 -641.23485000 527.87500000
v 2020.14550000 -609.71485000 500.98500000
v 2128.41550000 -1592.20485000 509.58500000
v 2015.17550000 -556.46485000 507.38500000
v 2022.63550000 -1034.60485000 427.69500000
v 2055.60550000 -1278.82485000 377.60500000
v 2052.28550000 -1203.44485000 318.78500000
v 2053.15550000 -1165.00485000 915.25500000
v 2102.88550000 -1760.60485000 792.13500000
v 2027.95550000 -486.40485000 750.37500000
v 2059.56550000 -1187.58485000 714.16500000
v 2047.93550000 -562.66485000 647.75500000
v 2044.82550000 -579.02485000 605.41500000
v 2040.60550000 -483.14485000 603.62500000
v 2033.02550000 -1008.71485000 501.02500000
v 2119.76550000 -1927.66485000 605.44500000
v 2040.59550000 -1114.55485000 363.42500000
v 2044.26550000 -1230.99485000 339.23500000
v 2070.94550000 -1243.47485000 933.03500000
v 2063.81550000 -1206.57485000 928.75500000
v 2048.72550000 -1293.42485000 931.53500000
v 2052.29550000 -1372.72485000 895.13500000
v 2096.64550000 -1519.17485000 785.57500000
v 2107.41550000 -1596.05485000 767.52500000
v 2146.23550000 -1935.15485000 738.05500000
v 2038.08550000 -465.66485000 684.37500000
v 2043.02550000 -528.20485000 669.65500000
v 2166.55550000 -1954.79485000 699.23500000
v 2066.91550000 -1120.00485000 495.61500000
v 2037.93550000 -517.10485000 553.18500000
v 2033.24550000 -566.40485000 549.85500000
v 2056.23550000 -1094.20485000 398.08500000
v 2083.78550000 -1381.84485000 467.87500000
v 2076.42550000 -1310.88485000 434.03500000
v 2062.21550000 -1182.69485000 332.07500000
v 2086.60550000 -1275.28485000 817.52500000
v 2155.09550000 -1852.25485000 769.33500000
v 2126.01550000 -1885.48485000 765.55500000
v 2147.38550000 -1707.15485000 756.81500000
v 2082.69550000 -1255.64485000 702.44500000
v 2038.18550000 -520.74485000 609.05500000
v 2110.83550000 -1349.19485000 572.96500000
v 2085.07550000 -1219.99485000 517.76500000
v 2156.50550000 -1858.85485000 571.57500000
v 2136.09550000 -1677.58485000 521.25500000
v 2109.92550000 -1421.21485000 507.46500000
v 2074.95550000 -1132.31485000 408.44500000
v 2085.85550000 -1250.15485000 384.53500000
v 2065.70550000 -1147.39485000 368.46500000
v 2063.48550000 -1225.01485000 348.66500000
v 2081.69550000 -1361.18485000 849.06500000
v 2105.92550000 -1461.32485000 786.80500000
v 2179.64550000 -1646.68485000 713.20500000
v 2147.25550000 -1537.45485000 727.29500000
v 2124.47550000 -1377.35485000 668.04500000
v 2172.63550000 -1948.93485000 651.44500000
v 2091.86550000 -1323.69485000 489.46500000
v 2087.64550000 -1261.68485000 439.96500000
v 2155.17550000 -1526.02485000 515.88500000
v 2083.49550000 -1200.72485000 430.01500000
v 2070.73550000 -1190.04485000 376.64500000
v 2125.06550000 -1429.03485000 737.82500000
v 2179.05550000 -1798.16485000 749.22500000
v 2188.47550000 -1910.49485000 733.44500000
v 2179.43550000 -1487.15485000 583.14500000
v 2157.93550000 -1475.12485000 545.00500000
v 2195.08550000 -1703.44485000 530.73500000
v 2199.38550000 -1942.25485000 706.89500000
v 2178.99550000 -1517.38485000 662.00500000
v 2164.81550000 -1470.43485000 647.31500000
v 2209.81550000 -1785.93485000 551.55500000
v 2224.41550000 -1754.00485000 696.71500000
v 2217.51550000 -1631.27485000 658.74500000
v 2213.25550000 -1915.28485000 613.20500000
v 2211.81550000 -1561.43485000 617.62500000
v 2206.74550000 -1559.68485000 548.99500000
v 2208.52550000 -1633.59485000 535.74500000
v 2215.60550000 -1857.59485000 717.82500000
v 2210.06550000 -1948.49485000 678.87500000
v 2233.76550000 -1932.60485000 649.56500000
v 2229.50550000 -1915.05485000 684.89500000
v 2261.15550000 -1908.88485000 623.93500000
v 2239.84550000 -1608.16485000 579.61500000
v 2255.99550000 -1855.22485000 592.45500000
v 2252.33550000 -1742.98485000 557.97500000
v 2268.16550000 -1838.91485000 655.45500000
v 2253.24550000 -1656.16485000 611.97500000
v 2252.71550000 -1672.93485000 562.97500000
v 2264.23550000 -1733.90485000 632.85500000
v 2262.00550000 -1897.88485000 635.41500000
v 2269.17550000 -1882.72485000 615.30500000
v 2271.59550000 -1707.59485000 591.05500000
v 2280.92550000 -1745.30485000 580.41500000
v 2282.90550000 -1781.90485000 605.32500000
v 2272.76550000 -1845.86485000 613.34500000
v 2269.14550000 -1791.78485000 592.67500000
f 1 2 3
f 4 1 3
f 2 5 6
f 6 5 7
f 2 6 3
f 8 4 3
f 6 8 3
f 6 7 9
f 8 6 9
f 10 8 9
f 11 1 4
f 4 12 11
f 2 13 5
f 14 15 4
f 4 15 12
f 5 13 16
f 4 8 14
f 5 16 7
f 9 16 17
f 7 16 9
f 18 8 10
f 1 19 20
f 11 19 1
f 1 20 2
f 12 15 11
f 20 21 2
f 2 21 13
f 15 14 22
f 16 13 23
f 14 8 24
f 16 23 17
f 17 23 25
f 24 8 18
f 26 17 25
f 9 17 26
f 9 26 10
f 27 19 11
f 27 11 28
f 11 15 28
f 20 29 21
f 30 15 22
f 21 31 13
f 31 32 13
f 13 32 23
f 14 24 33
f 25 34 26
f 10 26 35
f 20 36 29
f 20 19 36
f 19 27 37
f 27 38 37
f 21 29 39
f 28 15 30
f 21 39 31
f 31 40 32
f 14 33 22
f 32 41 23
f 23 41 25
f 18 42 24
f 35 26 34
f 18 10 43
f 29 36 44
f 37 36 19
f 27 45 38
f 27 28 45
f 31 39 40
f 30 22 33
f 41 46 25
f 25 46 34
f 10 35 43
f 42 18 43
f 36 37 47
f 45 48 38
f 49 39 50
f 39 29 50
f 49 51 40
f 39 49 40
f 28 30 52
f 40 51 32
f 33 53 30
f 32 51 54
f 32 54 41
f 55 33 24
f 54 56 41
f 41 56 46
f 34 46 57
f 58 59 60
f 37 61 47
f 38 61 37
f 38 48 61
f 60 49 62
f 60 59 49
f 49 50 62
f 44 50 29
f 45 28 63
f 64 51 59
f 49 59 51
f 52 63 28
f 55 53 33
f 56 54 65
f 56 65 46
f 66 67 68
f 67 66 58
f 58 66 64
f 69 67 70
f 70 67 60
f 60 67 58
f 58 64 59
f 44 36 71
f 71 36 47
f 62 70 60
f 64 72 51
f 54 51 72
f 73 54 72
f 54 73 65
f 55 24 42
f 65 73 74
f 65 74 75
f 65 75 46
f 75 57 46
f 35 34 57
f 43 35 76
f 75 74 77
f 57 75 78
f 73 79 80
f 80 74 73
f 80 79 81
f 82 81 83
f 80 81 82
f 82 84 80
f 85 66 86
f 68 86 66
f 68 67 69
f 66 85 64
f 87 72 85
f 64 85 72
f 70 62 88
f 50 44 71
f 89 61 48
f 89 48 45
f 63 89 45
f 90 91 92
f 90 93 94
f 91 90 94
f 30 95 52
f 30 53 95
f 72 79 73
f 79 96 81
f 77 78 75
f 74 80 84
f 84 77 74
f 81 96 83
f 83 96 97
f 97 98 83
f 83 98 82
f 84 82 99
f 99 82 98
f 86 100 101
f 102 100 86
f 68 102 86
f 86 103 85
f 68 69 104
f 70 88 105
f 70 105 69
f 71 47 106
f 61 107 47
f 50 71 62
f 91 108 92
f 109 108 91
f 72 87 110
f 90 111 93
f 91 94 112
f 112 109 91
f 72 110 79
f 93 113 94
f 79 110 114
f 112 94 115
f 113 116 94
f 115 94 116
f 79 114 96
f 96 114 117
f 118 42 43
f 35 57 76
f 96 117 97
f 78 77 119
f 77 120 119
f 84 120 77
f 97 121 98
f 122 120 84
f 98 121 123
f 84 99 122
f 98 123 124
f 98 124 99
f 101 100 125
f 125 100 126
f 86 101 127
f 100 102 126
f 86 127 103
f 68 104 102
f 85 103 87
f 88 62 106
f 62 71 106
f 107 61 89
f 90 92 128
f 129 92 108
f 130 89 63
f 110 87 131
f 132 63 52
f 111 133 93
f 133 113 93
f 133 134 113
f 135 109 112
f 118 55 42
f 116 113 136
f 115 137 112
f 138 112 137
f 139 117 140
f 116 136 141
f 116 142 115
f 141 142 116
f 137 115 142
f 117 139 97
f 78 119 143
f 57 78 76
f 97 139 121
f 123 144 124
f 145 124 144
f 146 99 124
f 147 101 125
f 127 147 148
f 101 147 127
f 127 148 103
f 69 149 104
f 103 150 87
f 47 151 106
f 47 107 151
f 152 128 129
f 92 129 128
f 87 150 131
f 90 128 153
f 154 129 108
f 108 155 154
f 90 153 111
f 153 156 111
f 132 130 63
f 155 108 109
f 131 157 110
f 158 132 52
f 114 110 157
f 52 95 158
f 135 155 109
f 114 157 117
f 117 157 140
f 138 135 112
f 113 134 136
f 55 118 53
f 159 138 137
f 160 118 43
f 159 137 142
f 161 139 140
f 141 136 162
f 78 143 76
f 141 162 163
f 142 141 163
f 143 119 164
f 139 165 121
f 123 121 144
f 122 99 146
f 124 145 166
f 124 166 146
f 167 147 168
f 148 167 169
f 147 167 148
f 170 171 129
f 170 129 154
f 172 170 154
f 148 169 150
f 103 148 150
f 69 105 149
f 129 171 152
f 89 130 107
f 155 173 154
f 174 175 157
f 131 174 157
f 111 156 133
f 176 173 155
f 175 173 176
f 157 175 176
f 135 176 155
f 140 157 176
f 176 135 177
f 53 178 95
f 135 138 177
f 140 176 177
f 53 118 178
f 177 138 179
f 177 179 140
f 136 134 180
f 181 136 180
f 179 138 159
f 140 179 161
f 43 182 160
f 183 161 179
f 136 181 162
f 161 183 165
f 165 139 161
f 76 143 184
f 185 142 163
f 121 165 186
f 119 187 164
f 186 144 121
f 188 144 186
f 187 119 120
f 120 122 189
f 122 146 189
f 168 147 190
f 147 125 190
f 167 191 169
f 192 170 172
f 102 193 126
f 169 191 150
f 102 104 193
f 170 194 171
f 191 195 150
f 149 193 104
f 171 194 196
f 197 192 172
f 152 171 196
f 153 152 196
f 197 172 154
f 105 88 198
f 150 195 174
f 107 199 151
f 152 153 128
f 154 173 197
f 131 150 174
f 107 130 200
f 174 197 175
f 201 130 132
f 175 197 173
f 156 134 133
f 202 158 95
f 159 183 179
f 159 142 203
f 204 159 203
f 183 159 204
f 76 184 182
f 43 76 182
f 203 142 185
f 183 205 165
f 162 206 163
f 120 189 187
f 144 188 207
f 144 207 145
f 166 145 208
f 209 210 211
f 210 168 212
f 190 212 168
f 213 214 215
f 214 209 211
f 215 214 211
f 191 210 209
f 167 210 191
f 168 210 167
f 194 216 217
f 213 216 170
f 170 214 213
f 209 214 192
f 191 209 192
f 125 126 218
f 170 216 194
f 192 214 170
f 194 217 196
f 191 192 195
f 195 192 197
f 195 197 174
f 198 88 106
f 151 198 106
f 107 200 199
f 158 201 132
f 202 95 178
f 219 180 134
f 118 220 178
f 118 160 221
f 181 222 162
f 162 222 206
f 163 223 185
f 185 223 203
f 205 183 204
f 165 205 186
f 143 164 184
f 207 188 224
f 146 225 189
f 145 207 208
f 146 166 225
f 211 212 226
f 212 211 210
f 212 190 227
f 217 216 228
f 213 229 216
f 215 229 213
f 125 218 190
f 230 153 196
f 230 156 153
f 130 231 200
f 130 201 231
f 219 134 156
f 220 202 178
f 221 220 118
f 180 232 181
f 182 233 160
f 234 182 184
f 204 203 235
f 205 236 186
f 236 188 186
f 237 188 236
f 208 238 166
f 238 225 166
f 228 229 239
f 229 226 239
f 215 226 229
f 211 226 215
f 190 218 227
f 229 228 216
f 196 217 240
f 149 105 241
f 105 198 241
f 151 199 198
f 201 242 231
f 201 158 243
f 158 202 243
f 233 221 160
f 234 233 182
f 181 232 222
f 203 223 244
f 203 244 235
f 204 235 205
f 245 234 184
f 164 245 184
f 164 187 245
f 188 237 224
f 189 225 187
f 224 246 207
f 238 247 225
f 239 226 248
f 226 249 248
f 212 249 226
f 212 227 249
f 218 126 250
f 240 230 196
f 149 241 251
f 241 198 199
f 200 231 252
f 253 243 202
f 202 220 253
f 253 220 254
f 255 254 233
f 220 221 254
f 180 256 232
f 254 221 233
f 223 163 206
f 205 235 257
f 236 205 257
f 247 245 187
f 225 247 187
f 207 246 208
f 217 258 240
f 258 217 228
f 126 193 250
f 149 251 193
f 230 259 156
f 200 252 199
f 259 219 156
f 242 201 243
f 243 253 260
f 260 254 261
f 253 254 260
f 262 255 263
f 254 255 261
f 255 233 263
f 233 264 263
f 265 264 234
f 233 234 264
f 206 222 223
f 245 265 234
f 235 244 257
f 237 236 266
f 245 247 267
f 249 268 248
f 227 269 249
f 227 218 270
f 270 218 250
f 271 259 230
f 241 272 273
f 199 272 241
f 252 272 199
f 252 231 242
f 259 274 219
f 252 242 275
f 242 243 275
f 275 260 276
f 243 260 275
f 255 262 277
f 276 255 277
f 261 255 276
f 260 261 276
f 219 256 180
f 263 264 262
f 223 222 278
f 257 244 279
f 236 257 266
f 228 280 258
f 280 228 239
f 258 281 240
f 240 282 230
f 193 251 283
f 241 273 251
f 252 275 284
f 284 275 285
f 285 276 286
f 276 277 286
f 275 276 285
f 219 287 256
f 262 264 288
f 232 256 289
f 223 278 244
f 267 290 245
f 245 290 265
f 237 291 224
f 267 247 292
f 224 291 246
f 208 246 238
f 248 268 239
f 249 293 268
f 249 269 293
f 230 282 271
f 281 282 240
f 193 283 250
f 251 273 294
f 295 272 252
f 284 295 252
f 285 286 284
f 286 277 296
f 287 219 274
f 296 262 288
f 277 262 296
f 288 264 297
f 232 289 222
f 222 298 278
f 265 290 297
f 264 265 297
f 244 278 299
f 244 299 279
f 257 279 300
f 257 300 266
f 237 301 291
f 270 269 227
f 258 280 281
f 250 283 302
f 251 294 283
f 271 303 259
f 273 304 294
f 304 273 272
f 303 305 259
f 295 304 272
f 305 274 259
f 295 286 306
f 295 284 286
f 307 306 286
f 286 296 307
f 308 307 296
f 296 288 308
f 288 297 309
f 289 310 222
f 222 310 298
f 278 311 299
f 266 300 301
f 237 266 301
f 238 246 312
f 246 291 312
f 239 268 280
f 270 250 313
f 295 314 304
f 315 306 307
f 309 316 288
f 309 297 290
f 278 298 311
f 279 299 317
f 300 279 317
f 247 238 318
f 269 319 293
f 250 302 313
f 283 294 320
f 295 306 315
f 314 295 315
f 315 307 321
f 307 308 321
f 287 322 256
f 308 288 316
f 322 323 256
f 299 311 317
f 292 290 267
f 324 300 317
f 301 300 324
f 292 247 318
f 313 325 270
f 270 325 269
f 326 281 280
f 302 283 320
f 294 304 327
f 327 304 314
f 314 315 328
f 305 329 274
f 329 287 274
f 308 330 321
f 331 330 316
f 308 316 330
f 256 323 332
f 332 289 256
f 316 309 333
f 317 334 324
f 335 309 290
f 301 324 336
f 318 238 312
f 319 269 337
f 337 269 325
f 280 268 338
f 293 339 268
f 293 319 339
f 340 313 302
f 302 320 340
f 282 341 271
f 294 327 320
f 342 305 303
f 328 327 314
f 328 315 343
f 315 321 343
f 331 344 330
f 316 333 331
f 289 332 345
f 310 289 345
f 311 298 346
f 311 346 334
f 309 335 333
f 311 334 317
f 301 336 291
f 290 292 335
f 291 347 312
f 348 292 318
f 319 337 349
f 280 338 326
f 268 350 338
f 281 326 282
f 320 351 340
f 341 303 271
f 327 351 320
f 327 328 352
f 328 343 352
f 343 321 353
f 321 330 353
f 333 354 331
f 298 310 346
f 334 336 324
f 291 336 347
f 335 292 348
f 340 325 313
f 282 326 341
f 352 351 327
f 355 351 352
f 355 343 356
f 352 343 355
f 353 356 343
f 344 357 353
f 353 330 344
f 329 322 287
f 354 344 331
f 310 358 346
f 334 346 359
f 334 359 336
f 312 347 318
f 339 319 360
f 349 360 319
f 350 361 338
f 268 339 362
f 351 363 340
f 342 364 305
f 305 364 329
f 310 345 358
f 359 346 365
f 354 333 335
f 337 366 349
f 337 325 366
f 268 362 350
f 325 363 367
f 340 363 325
f 355 363 351
f 355 356 368
f 368 353 369
f 368 356 353
f 353 357 369
f 357 344 370
f 329 371 322
f 372 370 344
f 373 372 344
f 354 373 344
f 335 374 354
f 335 348 374
f 367 366 325
f 338 361 375
f 326 376 341
f 326 338 376
f 363 355 368
f 303 377 342
f 369 357 378
f 329 364 371
f 371 379 322
f 322 379 323
f 346 358 380
f 373 354 374
f 359 365 381
f 359 381 336
f 347 336 381
f 349 366 360
f 363 382 367
f 338 375 376
f 368 382 363
f 383 382 368
f 341 377 303
f 369 378 383
f 368 369 383
f 378 357 384
f 357 370 384
f 358 345 385
f 365 386 381
f 339 360 387
f 366 388 360
f 366 389 388
f 389 366 367
f 339 387 362
f 390 389 367
f 367 382 390
f 383 390 382
f 384 370 391
f 391 370 392
f 372 373 393
f 346 380 394
f 365 346 394
f 374 395 396
f 374 396 373
f 345 332 397
f 345 397 385
f 347 381 398
f 318 347 399
f 347 398 399
f 348 318 399
f 395 348 399
f 374 348 395
f 389 400 388
f 401 390 383
f 402 341 376
f 403 401 383
f 383 378 403
f 377 404 342
f 403 378 384
f 364 342 404
f 370 372 392
f 392 372 393
f 393 373 396
f 323 397 332
f 380 358 385
f 360 388 387
f 400 389 405
f 405 389 390
f 390 401 405
f 403 384 391
f 393 406 392
f 407 379 371
f 396 408 393
f 379 397 323
f 365 394 386
f 396 395 399
f 350 409 361
f 362 410 350
f 388 362 387
f 411 400 405
f 412 402 376
f 341 402 377
f 405 401 403
f 391 413 403
f 407 364 404
f 364 407 371
f 408 414 393
f 386 394 415
f 386 398 381
f 385 397 416
f 350 410 409
f 388 417 362
f 388 400 411
f 412 376 375
f 411 405 413
f 405 403 413
f 377 418 404
f 392 413 391
f 406 393 414
f 408 396 419
f 420 394 380
f 399 398 419
f 396 399 419
f 420 380 385
f 361 409 375
f 388 421 417
f 388 411 421
f 402 412 422
f 413 421 411
f 377 402 423
f 377 423 418
f 406 413 392
f 404 424 407
f 414 425 406
f 408 426 414
f 408 419 426
f 427 407 428
f 407 427 379
f 397 379 427
f 397 427 416
f 429 385 416
f 385 429 420
f 409 430 375
f 424 404 418
f 426 431 414
f 394 420 415
f 386 415 432
f 432 398 386
f 416 427 433
f 429 416 433
f 362 417 410
f 430 412 375
f 402 434 423
f 434 402 422
f 421 413 435
f 423 436 418
f 413 406 435
f 435 406 425
f 437 425 414
f 424 438 407
f 428 407 438
f 431 437 414
f 432 439 398
f 426 419 439
f 439 419 398
f 415 420 440
f 427 428 441
f 428 442 441
f 427 441 433
f 433 441 443
f 409 410 444
f 417 445 410
f 421 446 417
f 412 430 422
f 446 421 435
f 447 428 438
f 447 442 428
f 433 443 429
f 448 442 449
f 441 442 448
f 448 443 441
f 444 430 409
f 446 445 417
f 430 450 422
f 424 418 451
f 438 424 451
f 425 437 452
f 440 420 453
f 440 432 415
f 420 429 454
f 455 456 442
f 442 456 449
f 429 443 457
f 457 443 458
f 449 456 459
f 448 449 459
f 443 448 458
f 410 445 444
f 423 434 436
f 435 425 460
f 436 461 418
f 418 461 451
f 452 437 462
f 431 463 437
f 431 426 463
f 447 455 442
f 464 432 440
f 455 465 456
f 456 465 459
f 466 448 459
f 466 458 448
f 467 465 468
f 466 459 467
f 459 465 467
f 435 469 446
f 422 470 434
f 436 434 471
f 436 472 461
f 438 451 461
f 438 473 447
f 463 439 474
f 463 426 439
f 474 439 464
f 464 439 432
f 440 453 464
f 454 453 420
f 454 429 457
f 458 475 457
f 465 455 468
f 458 476 475
f 466 476 458
f 477 476 466
f 468 478 467
f 467 477 466
f 476 477 479
f 467 478 477
f 430 444 450
f 445 446 480
f 422 450 470
f 460 469 435
f 460 425 481
f 425 452 481
f 455 447 473
f 482 437 463
f 455 483 468
f 484 468 483
f 485 476 479
f 478 468 484
f 486 479 477
f 478 486 477
f 478 484 487
f 487 484 488
f 486 478 487
f 486 487 489
f 436 471 490
f 472 436 490
f 473 438 491
f 491 438 461
f 462 481 452
f 482 462 437
f 474 492 463
f 464 453 493
f 493 453 454
f 494 457 475
f 454 457 494
f 476 494 475
f 484 483 495
f 476 485 494
f 496 484 495
f 497 479 486
f 488 484 496
f 487 488 498
f 489 487 499
f 434 470 471
f 490 491 472
f 461 472 491
f 481 500 460
f 473 501 455
f 501 483 455
f 463 492 482
f 502 485 479
f 502 479 497
f 503 488 496
f 497 486 489
f 497 489 499
f 488 503 498
f 498 499 487
f 499 498 504
f 445 480 444
f 505 470 450
f 470 506 471
f 491 490 507
f 491 501 473
f 474 464 493
f 483 508 495
f 454 509 493
f 510 509 454
f 510 454 494
f 510 494 511
f 485 511 494
f 495 512 496
f 497 499 513
f 504 498 503
f 446 514 480
f 446 469 514
f 469 460 500
f 490 515 507
f 507 501 491
f 516 481 462
f 516 462 482
f 483 501 508
f 485 502 511
f 512 517 496
f 517 503 496
f 502 497 518
f 499 519 513
f 499 520 519
f 520 521 519
f 503 522 504
f 499 504 520
f 444 523 450
f 524 523 444
f 480 524 444
f 505 450 523
f 471 515 490
f 500 481 525
f 526 501 507
f 508 501 526
f 492 527 482
f 474 528 492
f 493 529 474
f 495 508 512
f 511 502 530
f 502 518 530
f 517 531 503
f 531 522 503
f 497 513 518
f 522 532 504
f 521 504 532
f 520 504 521
f 507 515 533
f 526 507 533
f 481 516 525
f 526 534 508
f 482 527 516
f 527 492 528
f 508 535 512
f 529 493 509
f 512 535 536
f 509 510 511
f 537 509 511
f 512 536 517
f 530 537 511
f 530 518 538
f 518 539 540
f 518 513 539
f 531 541 522
f 542 539 519
f 539 513 519
f 532 522 541
f 542 521 532
f 519 521 542
f 480 543 524
f 514 543 480
f 514 469 544
f 470 505 506
f 515 506 545
f 506 515 471
f 525 516 546
f 547 508 534
f 474 548 528
f 508 547 535
f 474 529 548
f 509 549 529
f 509 537 550
f 536 551 517
f 530 552 537
f 551 531 517
f 518 540 538
f 532 541 553
f 542 532 553
f 514 544 543
f 469 554 544
f 525 554 469
f 469 500 525
f 545 555 515
f 533 515 556
f 533 534 526
f 546 516 527
f 528 557 527
f 528 548 557
f 548 529 549
f 509 550 549
f 558 551 536
f 538 559 552
f 538 552 530
f 553 541 551
f 541 531 551
f 560 542 553
f 559 539 560
f 540 539 559
f 538 540 559
f 539 542 560
f 561 506 505
f 506 561 545
f 556 515 555
f 533 556 562
f 534 533 562
f 562 563 534
f 534 563 547
f 535 564 536
f 564 558 536
f 549 565 548
f 565 549 550
f 558 566 551
f 552 550 537
f 567 550 552
f 553 551 566
f 568 553 566
f 559 560 568
f 560 553 568
f 552 559 569
f 523 570 505
f 571 523 524
f 543 571 524
f 572 554 525
f 547 573 535
f 535 573 564
f 564 574 558
f 558 575 566
f 576 567 552
f 567 565 550
f 559 568 569
f 552 569 576
f 505 577 561
f 578 572 525
f 545 579 555
f 561 580 545
f 580 579 545
f 562 556 581
f 556 555 581
f 562 581 563
f 573 547 563
f 582 527 557
f 583 557 548
f 574 575 558
f 584 568 585
f 569 568 586
f 565 583 548
f 585 566 575
f 568 566 585
f 523 571 570
f 572 543 544
f 544 554 572
f 579 581 555
f 578 525 546
f 587 563 581
f 557 588 582
f 589 574 564
f 584 585 590
f 584 586 568
f 569 591 576
f 592 565 567
f 583 565 592
f 570 577 505
f 581 593 587
f 563 587 573
f 546 527 582
f 573 594 564
f 594 589 564
f 595 586 584
f 590 575 589
f 586 591 569
f 557 583 588
f 575 574 589
f 588 583 592
f 590 585 575
f 596 576 597
f 567 576 596
f 592 567 596
f 543 598 571
f 543 572 598
f 580 561 577
f 579 593 581
f 599 593 579
f 599 579 580
f 573 587 594
f 590 589 594
f 590 595 584
f 586 600 591
f 588 592 596
f 597 576 591
f 571 601 570
f 571 598 601
f 602 599 580
f 599 603 593
f 604 587 593
f 603 604 593
f 587 604 594
f 604 605 594
f 595 590 605
f 600 586 595
f 594 605 590
f 588 606 582
f 607 606 588
f 596 597 607
f 588 596 607
f 570 608 577
f 602 580 577
f 599 602 609
f 603 599 610
f 609 610 599
f 546 582 611
f 610 604 603
f 610 595 604
f 600 595 610
f 582 612 611
f 595 605 604
f 600 613 591
f 606 612 582
f 614 606 607
f 597 613 615
f 614 607 615
f 597 591 613
f 607 597 615
f 616 608 570
f 601 616 570
f 617 601 598
f 598 572 617
f 577 608 602
f 578 546 611
f 609 602 618
f 618 610 609
f 618 619 610
f 619 600 610
f 619 620 613
f 613 600 619
f 620 615 613
f 612 606 614
f 601 617 616
f 572 611 617
f 608 621 602
f 608 616 621
f 578 611 572
f 602 621 622
f 618 602 622
f 621 620 622
f 611 612 623
f 618 622 619
f 620 619 622
f 624 615 620
f 623 615 624
f 612 614 623
f 623 614 615
f 617 625 616
f 621 616 625
f 617 611 625
f 625 626 621
f 626 625 623
f 625 611 623
f 621 626 620
f 624 620 626
f 623 624 626
f 627 628 629
f 630 627 629
f 631 632 630
f 630 629 633
f 633 631 630
f 628 634 629
f 627 630 635
f 636 627 635
f 627 636 637
f 627 637 628
f 628 637 634
f 637 638 634
f 638 639 634
f 629 634 640
f 633 629 640
f 635 641 636
f 632 635 630
f 636 642 637
f 632 631 643
f 642 638 637
f 642 644 638
f 643 631 645
f 638 644 639
f 639 644 646
f 639 646 647
f 631 633 648
f 649 645 631
f 648 649 631
f 650 639 647
f 634 639 650
f 647 651 650
f 640 634 650
f 648 633 652
f 652 633 640
f 642 636 653
f 642 654 644
f 655 644 654
f 656 646 655
f 644 655 646
f 657 656 658
f 646 656 657
f 647 646 657
f 647 657 659
f 659 651 647
f 640 650 660
f 652 640 660
f 635 661 641
f 641 653 636
f 662 632 643
f 654 642 663
f 655 654 663
f 643 645 664
f 656 655 665
f 665 666 656
f 656 666 658
f 664 645 649
f 667 668 666
f 658 666 668
f 658 669 657
f 669 659 657
f 669 658 668
f 670 649 648
f 671 670 648
f 651 660 650
f 648 652 671
f 652 672 671
f 660 672 652
f 673 641 661
f 635 632 662
f 674 642 653
f 675 666 665
f 666 675 667
f 676 664 649
f 677 668 667
f 670 676 649
f 659 669 678
f 668 677 679
f 669 668 679
f 680 672 660
f 661 635 662
f 663 642 674
f 655 663 681
f 682 665 681
f 655 681 665
f 675 665 682
f 667 675 683
f 684 677 667
f 677 685 679
f 669 679 678
f 659 678 686
f 687 651 659
f 660 651 687
f 672 688 671
f 660 687 680
f 680 688 672
f 653 641 689
f 690 675 682
f 691 675 690
f 675 691 683
f 683 692 667
f 667 692 684
f 685 677 684
f 670 671 693
f 694 679 685
f 671 688 693
f 688 680 695
f 661 662 696
f 697 663 689
f 663 674 689
f 663 697 681
f 682 698 690
f 682 681 698
f 683 691 692
f 699 664 676
f 692 700 684
f 701 670 693
f 685 702 694
f 694 678 679
f 686 687 659
f 680 687 695
f 689 641 673
f 673 661 703
f 661 696 703
f 653 689 674
f 704 662 643
f 681 697 705
f 643 664 706
f 698 681 705
f 690 698 707
f 706 664 699
f 707 691 690
f 701 708 676
f 676 670 701
f 702 685 684
f 702 684 700
f 702 709 694
f 693 688 710
f 709 678 694
f 678 711 686
f 688 695 710
f 687 686 712
f 713 687 712
f 695 687 713
f 704 643 706
f 705 697 714
f 691 707 715
f 691 715 692
f 692 715 716
f 692 716 700
f 701 693 710
f 716 717 700
f 702 700 717
f 710 695 718
f 709 702 719
f 719 702 720
f 709 719 678
f 695 713 721
f 686 711 712
f 713 712 722
f 723 678 719
f 711 678 723
f 673 703 724
f 704 696 662
f 725 705 714
f 725 698 705
f 698 726 707
f 720 702 717
f 721 718 695
f 727 720 717
f 711 728 712
f 712 728 722
f 719 720 729
f 719 729 730
f 703 731 724
f 697 689 732
f 697 732 714
f 698 725 733
f 733 726 698
f 707 726 715
f 715 726 734
f 708 735 676
f 701 710 736
f 716 715 737
f 716 737 717
f 718 738 710
f 717 739 727
f 713 722 740
f 721 713 740
f 741 720 727
f 720 741 729
f 730 723 719
f 723 742 711
f 711 742 728
f 743 722 728
f 742 723 744
f 703 696 731
f 745 732 689
f 714 732 746
f 708 701 736
f 710 738 736
f 738 718 747
f 748 718 721
f 717 737 739
f 743 740 722
f 741 727 739
f 728 742 743
f 749 741 739
f 723 730 744
f 750 729 741
f 730 729 750
f 750 744 730
f 673 751 689
f 704 706 752
f 714 753 725
f 714 746 753
f 706 699 754
f 753 733 725
f 754 699 735
f 699 676 735
f 715 755 737
f 748 747 718
f 737 756 739
f 748 721 740
f 757 748 740
f 740 743 757
f 739 756 749
f 742 758 743
f 759 758 744
f 742 744 758
f 750 760 744
f 759 744 760
f 741 749 761
f 761 750 741
f 762 750 761
f 760 750 762
f 731 696 763
f 689 751 745
f 754 752 706
f 764 746 732
f 765 734 726
f 736 738 766
f 715 734 755
f 737 767 756
f 743 768 757
f 743 769 768
f 743 758 769
f 756 770 749
f 761 749 770
f 759 760 771
f 772 760 762
f 771 760 772
f 731 763 773
f 673 724 751
f 763 696 752
f 704 752 696
f 733 774 726
f 708 736 766
f 726 775 765
f 776 766 738
f 755 767 737
f 777 748 757
f 757 778 777
f 757 768 778
f 758 759 769
f 756 767 770
f 779 761 770
f 762 761 779
f 772 762 779
f 731 773 724
f 780 751 724
f 745 781 732
f 732 782 764
f 746 783 753
f 764 783 746
f 753 774 733
f 726 774 775
f 735 708 784
f 708 785 784
f 785 708 766
f 747 786 738
f 786 776 738
f 734 765 787
f 788 747 748
f 787 755 734
f 789 767 755
f 790 778 768
f 790 768 769
f 767 791 770
f 789 791 767
f 792 769 771
f 759 771 769
f 793 771 772
f 793 772 779
f 732 781 782
f 752 754 794
f 783 774 753
f 754 735 795
f 774 796 775
f 795 735 784
f 788 786 747
f 788 748 777
f 789 755 787
f 797 790 769
f 792 797 769
f 791 779 770
f 798 779 791
f 779 798 793
f 798 792 793
f 771 793 792
f 724 773 780
f 773 763 799
f 763 752 800
f 783 801 774
f 801 796 774
f 785 802 784
f 785 766 776
f 803 785 776
f 786 804 776
f 787 765 805
f 777 806 788
f 778 807 777
f 790 797 808
f 778 790 808
f 809 789 787
f 810 797 792
f 789 809 791
f 811 810 792
f 791 809 798
f 798 809 811
f 792 798 811
f 764 812 783
f 764 782 812
f 795 784 813
f 805 765 775
f 776 804 803
f 788 814 786
f 787 805 815
f 806 777 807
f 807 778 808
f 816 787 817
f 816 808 810
f 816 809 787
f 797 810 808
f 816 811 809
f 810 811 816
f 799 818 773
f 773 819 780
f 751 820 745
f 794 754 821
f 812 822 783
f 783 822 801
f 802 823 784
f 824 802 785
f 806 814 788
f 825 815 805
f 826 807 808
f 827 817 815
f 815 817 787
f 826 808 827
f 817 808 816
f 827 808 817
f 763 828 799
f 763 800 828
f 745 820 781
f 800 752 794
f 781 829 782
f 821 754 830
f 754 795 830
f 822 831 801
f 795 813 830
f 823 813 784
f 831 832 796
f 801 831 796
f 832 833 796
f 796 833 775
f 785 803 824
f 786 834 804
f 834 835 804
f 803 804 835
f 814 834 786
f 807 836 806
f 826 837 807
f 825 827 815
f 838 827 825
f 837 826 839
f 839 826 838
f 838 826 827
f 799 840 818
f 841 751 780
f 781 842 829
f 802 843 823
f 775 833 805
f 803 835 824
f 833 844 805
f 825 805 844
f 844 838 825
f 839 838 844
f 807 837 836
f 773 818 819
f 799 828 840
f 751 841 820
f 800 794 845
f 842 781 820
f 829 812 782
f 846 824 835
f 843 802 824
f 833 847 844
f 834 814 848
f 844 847 837
f 847 849 837
f 837 849 836
f 836 849 806
f 814 806 849
f 837 839 844
f 780 850 841
f 780 819 850
f 820 851 842
f 820 841 851
f 845 794 821
f 852 845 821
f 830 852 821
f 812 853 822
f 822 854 831
f 855 830 813
f 854 856 831
f 855 813 823
f 831 856 832
f 823 843 855
f 843 824 857
f 847 833 832
f 832 858 847
f 835 834 859
f 835 859 846
f 849 848 814
f 828 800 860
f 800 845 860
f 829 853 812
f 861 852 830
f 832 862 858
f 832 856 862
f 834 848 863
f 834 863 859
f 857 824 846
f 849 847 858
f 864 849 858
f 829 842 853
f 865 861 830
f 830 855 865
f 843 866 855
f 858 867 864
f 860 840 828
f 868 860 869
f 845 869 860
f 869 845 870
f 845 852 870
f 871 822 853
f 871 854 822
f 854 872 856
f 866 843 857
f 873 859 874
f 859 873 846
f 849 864 848
f 875 846 873
f 876 840 877
f 840 868 877
f 840 819 818
f 840 878 819
f 868 840 860
f 869 879 868
f 869 880 879
f 870 880 869
f 880 870 881
f 870 852 881
f 882 881 852
f 855 883 865
f 858 862 867
f 863 848 884
f 859 863 874
f 884 848 864
f 857 846 875
f 879 880 885
f 841 850 886
f 881 885 880
f 842 887 853
f 852 861 882
f 871 872 854
f 865 888 861
f 872 889 856
f 883 855 866
f 866 857 890
f 864 867 891
f 890 857 875
f 879 877 868
f 841 886 851
f 887 871 853
f 883 866 892
f 856 893 862
f 862 894 867
f 863 895 874
f 864 891 896
f 864 896 884
f 873 897 875
f 840 876 878
f 879 898 877
f 885 898 879
f 885 899 898
f 899 885 900
f 885 881 900
f 900 881 901
f 882 901 881
f 871 902 872
f 882 861 888
f 889 872 902
f 883 888 865
f 889 893 856
f 903 892 866
f 893 894 862
f 903 866 890
f 863 884 895
f 867 904 891
f 890 875 905
f 877 906 876
f 886 850 907
f 819 908 850
f 819 909 908
f 819 878 909
f 898 899 910
f 910 899 911
f 842 912 887
f 912 842 851
f 887 913 871
f 913 902 871
f 867 894 904
f 903 890 914
f 874 895 915
f 874 897 873
f 909 878 876
f 877 916 906
f 898 916 877
f 898 917 916
f 898 910 917
f 911 899 900
f 883 918 888
f 883 892 918
f 896 919 884
f 895 884 919
f 874 915 897
f 914 890 905
f 875 897 920
f 876 906 909
f 886 907 851
f 850 908 907
f 851 921 912
f 911 900 922
f 923 922 900
f 901 924 900
f 902 925 889
f 901 882 926
f 926 882 888
f 903 918 892
f 895 919 915
f 903 914 927
f 905 875 928
f 928 875 920
f 910 929 917
f 907 921 851
f 910 930 929
f 911 930 910
f 911 922 930
f 923 900 924
f 924 901 931
f 931 901 926
f 925 893 889
f 893 932 894
f 915 919 933
f 906 934 909
f 906 916 934
f 908 935 907
f 922 936 930
f 922 923 936
f 926 937 931
f 926 888 918
f 918 937 926
f 894 932 904
f 919 938 933
f 927 914 939
f 915 933 940
f 941 915 940
f 914 905 939
f 897 915 942
f 939 905 928
f 920 897 943
f 917 929 916
f 930 944 929
f 912 945 887
f 936 944 930
f 887 945 913
f 902 913 945
f 924 946 923
f 931 946 924
f 925 947 893
f 948 937 918
f 893 947 932
f 918 903 948
f 948 903 927
f 896 949 919
f 915 941 942
f 897 942 943
f 935 950 907
f 916 951 934
f 929 951 916
f 950 921 907
f 936 952 944
f 952 936 953
f 936 923 953
f 953 923 946
f 902 954 925
f 937 955 931
f 927 956 948
f 896 891 949
f 957 940 933
f 941 940 958
f 928 920 959
f 908 909 935
f 944 960 929
f 944 961 960
f 952 961 944
f 945 962 902
f 952 953 963
f 963 953 964
f 965 964 953
f 966 965 953
f 953 946 966
f 962 954 902
f 931 955 946
f 937 948 967
f 956 967 948
f 904 932 968
f 969 904 968
f 891 904 969
f 891 969 949
f 949 938 919
f 927 939 956
f 939 970 956
f 933 938 957
f 939 928 970
f 940 957 958
f 941 958 971
f 941 971 942
f 920 943 972
f 943 973 972
f 934 974 909
f 934 975 974
f 934 951 975
f 921 976 912
f 976 921 950
f 952 977 961
f 963 977 952
f 946 955 966
f 925 954 947
f 978 955 937
f 947 968 932
f 979 956 970
f 967 956 979
f 949 980 938
f 958 957 981
f 970 928 982
f 943 942 983
f 943 983 984
f 920 972 959
f 909 985 935
f 945 912 986
f 966 987 965
f 987 966 988
f 978 966 955
f 978 937 967
f 949 969 989
f 949 989 980
f 938 980 957
f 981 990 958
f 942 971 983
f 928 959 991
f 982 928 991
f 973 943 984
f 935 992 950
f 935 985 992
f 929 993 951
f 960 961 994
f 963 995 977
f 995 963 964
f 996 964 965
f 996 965 987
f 996 987 997
f 966 978 988
f 978 998 988
f 954 999 947
f 999 968 947
f 979 1000 967
f 979 970 1001
f 957 980 1002
f 957 1002 981
f 970 982 1001
f 958 990 971
f 909 974 985
f 912 976 986
f 951 993 1003
f 977 1004 961
f 977 995 1004
f 964 1005 995
f 964 996 1005
f 962 999 954
f 997 987 1006
f 1006 987 988
f 998 1007 988
f 1006 988 1007
f 1007 998 1008
f 998 978 1000
f 967 1000 978
f 968 1009 1010
f 969 968 1010
f 969 1010 989
f 980 989 1011
f 981 1002 990
f 971 990 1012
f 971 1012 983
f 991 959 1013
f 959 972 1013
f 950 992 1014
f 951 1003 975
f 929 960 993
f 994 993 960
f 961 1004 994
f 1015 997 1016
f 1016 997 1006
f 1006 1007 1017
f 1016 1006 1017
f 1008 998 1000
f 1017 1007 1018
f 1019 1016 1017
f 1020 1000 979
f 979 1001 1021
f 1020 979 1021
f 1002 1022 990
f 990 1023 1012
f 983 1024 984
f 950 1025 976
f 950 1014 1025
f 1003 1026 975
f 997 1015 1027
f 1015 1016 1028
f 1029 1028 1016
f 1019 1029 1016
f 1007 1008 1018
f 1018 1019 1017
f 1008 1000 1020
f 1018 1008 1030
f 1031 1018 1030
f 1019 1018 1031
f 980 1011 1002
f 1032 1021 1001
f 990 1022 1023
f 1032 1001 982
f 983 1012 1033
f 983 1033 1024
f 975 1026 974
f 976 1034 986
f 986 1035 945
f 994 1036 1037
f 1004 1036 994
f 1005 1038 995
f 945 1035 962
f 1039 962 1035
f 996 997 1027
f 1039 999 962
f 1029 1019 1040
f 1020 1030 1008
f 1019 1031 1041
f 1040 1019 1041
f 1030 1020 1021
f 1041 1031 1030
f 1010 1009 1011
f 989 1010 1011
f 1002 1011 1042
f 1012 1023 1033
f 984 1024 1043
f 984 1043 973
f 1044 991 1013
f 972 973 1045
f 972 1045 1013
f 1014 992 1046
f 992 1047 1046
f 985 1047 992
f 974 1026 985
f 1014 1048 1025
f 1046 1048 1014
f 1025 1034 976
f 986 1049 1035
f 996 1050 1005
f 996 1027 1050
f 1028 1029 1051
f 1029 1040 1052
f 1021 1053 1030
f 1030 1053 1041
f 1053 1021 1032
f 1011 1054 1042
f 1002 1042 1055
f 1022 1002 1055
f 1023 1022 1056
f 1032 982 1057
f 1058 1033 1023
f 982 1059 1060
f 1060 1057 982
f 991 1059 982
f 1026 1047 985
f 1061 1048 1046
f 1047 1061 1046
f 1025 1062 1034
f 1063 1062 1025
f 1048 1063 1025
f 986 1034 1049
f 1004 1064 1036
f 995 1064 1004
f 995 1038 1064
f 1005 1050 1038
f 1015 1065 1027
f 1065 1015 1028
f 1066 999 1039
f 1051 1029 1052
f 1052 1040 1067
f 1041 1068 1040
f 1011 1009 1069
f 1022 1055 1056
f 1023 1056 1070
f 1023 1070 1058
f 991 1071 1059
f 973 1043 1072
f 973 1072 1045
f 1013 1045 1073
f 1013 1073 1044
f 1063 1048 1074
f 1074 1048 1061
f 1075 1074 1061
f 1026 1003 1076
f 1003 1077 1076
f 1003 993 1077
f 1049 1078 1035
f 1078 1039 1035
f 1078 1079 1039
f 1038 1080 1064
f 1065 1028 1051
f 1081 999 1066
f 999 1081 968
f 1082 1052 1067
f 1067 1040 1068
f 968 1081 1009
f 1053 1032 1057
f 1009 1081 1069
f 1056 1083 1070
f 1054 1011 1069
f 1055 1042 1084
f 1084 1056 1055
f 1024 1033 1085
f 1085 1086 1024
f 1071 991 1044
f 1071 1044 1087
f 1088 1061 1047
f 1076 1088 1047
f 1026 1076 1047
f 1063 1089 1062
f 1090 1089 1063
f 1091 1090 1063
f 1091 1063 1074
f 1075 1092 1074
f 1092 1093 1074
f 1061 1092 1075
f 1092 1061 1094
f 1095 1062 1089
f 1095 1034 1062
f 1093 1091 1074
f 1034 1095 1049
f 1092 1096 1093
f 1097 1096 1092
f 1049 1095 1078
f 994 1037 1098
f 1093 1096 1091
f 1099 1078 1095
f 1096 1100 1091
f 1097 1101 1096
f 1079 1078 1099
f 1101 1100 1096
f 1064 1102 1036
f 1038 1050 1103
f 1104 1050 1027
f 1104 1027 1065
f 1039 1079 1105
f 1079 1106 1105
f 1105 1066 1039
f 1051 1052 1082
f 1107 1083 1056
f 1057 1060 1108
f 1069 1109 1054
f 1058 1085 1033
f 1086 1043 1024
f 1045 1072 1110
f 1045 1110 1073
f 1061 1088 1094
f 1094 1111 1092
f 994 1077 993
f 994 1098 1077
f 1092 1112 1097
f 1089 1113 1095
f 1090 1113 1089
f 1091 1114 1090
f 1100 1114 1091
f 1111 1112 1092
f 1095 1113 1099
f 1090 1114 1113
f 1115 1113 1114
f 1100 1115 1114
f 1036 1102 1116
f 1100 1101 1117
f 1101 1097 1118
f 1112 1118 1097
f 1117 1115 1100
f 1118 1119 1101
f 1115 1117 1120
f 1119 1117 1101
f 1119 1121 1117
f 1122 1065 1051
f 1123 1122 1051
f 1082 1123 1051
f 1041 1124 1068
f 1083 1107 1125
f 1126 1083 1125
f 1053 1057 1127
f 1124 1041 1053
f 1126 1070 1083
f 1070 1128 1058
f 1070 1126 1128
f 1081 1129 1109
f 1069 1081 1109
f 1042 1130 1084
f 1084 1130 1107
f 1056 1084 1107
f 1058 1128 1085
f 1042 1054 1130
f 1131 1060 1059
f 1059 1071 1132
f 1133 1043 1086
f 1072 1043 1133
f 1073 1087 1044
f 1088 1076 1134
f 1094 1088 1135
f 1136 1134 1076
f 1076 1077 1136
f 1135 1111 1094
f 1137 1112 1111
f 1138 1113 1115
f 1038 1103 1080
f 1113 1138 1099
f 1137 1139 1112
f 1140 1102 1064
f 1080 1140 1064
f 1050 1141 1103
f 1141 1050 1104
f 1099 1142 1079
f 1112 1139 1118
f 1104 1065 1122
f 1115 1120 1143
f 1139 1144 1118
f 1105 1106 1145
f 1145 1066 1105
f 1117 1121 1120
f 1120 1146 1147
f 1121 1146 1120
f 1145 1148 1066
f 1119 1149 1121
f 1066 1148 1081
f 1150 1146 1125
f 1121 1125 1146
f 1126 1125 1121
f 1149 1126 1121
f 1148 1129 1081
f 1107 1151 1150
f 1125 1107 1150
f 1126 1149 1128
f 1053 1127 1124
f 1151 1107 1130
f 1060 1152 1108
f 1054 1109 1153
f 1054 1153 1130
f 1085 1128 1154
f 1059 1132 1131
f 1085 1154 1086
f 1071 1087 1155
f 1072 1133 1110
f 1073 1110 1156
f 1088 1134 1135
f 1135 1157 1111
f 1157 1137 1111
f 1116 1037 1036
f 1158 1080 1103
f 1138 1159 1099
f 1138 1115 1159
f 1099 1159 1142
f 1143 1159 1115
f 1139 1137 1160
f 1079 1142 1106
f 1120 1147 1143
f 1143 1147 1161
f 1147 1162 1161
f 1146 1162 1147
f 1145 1163 1148
f 1118 1164 1119
f 1150 1162 1146
f 1067 1068 1165
f 1164 1149 1119
f 1148 1163 1129
f 1149 1164 1128
f 1164 1154 1128
f 1060 1131 1152
f 1151 1130 1153
f 1071 1155 1132
f 1086 1166 1133
f 1086 1154 1166
f 1155 1087 1167
f 1133 1166 1110
f 1073 1167 1087
f 1156 1167 1073
f 1136 1135 1134
f 1136 1168 1135
f 1168 1169 1135
f 1170 1168 1136
f 1077 1170 1136
f 1098 1170 1077
f 1098 1037 1171
f 1116 1171 1037
f 1102 1172 1116
f 1080 1158 1140
f 1102 1173 1172
f 1140 1173 1102
f 1141 1104 1122
f 1174 1141 1122
f 1142 1175 1106
f 1176 1143 1161
f 1122 1123 1177
f 1106 1175 1145
f 1145 1175 1163
f 1161 1162 1176
f 1067 1165 1082
f 1178 1164 1118
f 1178 1118 1144
f 1163 1179 1129
f 1150 1180 1162
f 1153 1129 1179
f 1180 1153 1179
f 1150 1151 1180
f 1057 1108 1127
f 1129 1153 1109
f 1180 1151 1153
f 1164 1181 1154
f 1131 1132 1182
f 1132 1183 1182
f 1155 1183 1132
f 1154 1181 1166
f 1110 1166 1184
f 1184 1156 1110
f 1169 1157 1135
f 1098 1171 1170
f 1169 1185 1157
f 1185 1137 1157
f 1103 1186 1158
f 1141 1187 1103
f 1103 1187 1186
f 1140 1188 1173
f 1158 1188 1140
f 1185 1189 1137
f 1143 1176 1159
f 1137 1189 1160
f 1122 1177 1174
f 1159 1175 1142
f 1176 1175 1159
f 1176 1190 1175
f 1163 1175 1190
f 1160 1189 1139
f 1176 1162 1190
f 1191 1139 1189
f 1190 1179 1163
f 1144 1139 1192
f 1191 1192 1139
f 1162 1180 1190
f 1068 1124 1193
f 1193 1165 1068
f 1180 1179 1190
f 1124 1127 1193
f 1192 1178 1144
f 1108 1152 1194
f 1182 1195 1131
f 1178 1196 1164
f 1196 1181 1164
f 1183 1155 1197
f 1166 1181 1198
f 1198 1181 1196
f 1155 1199 1197
f 1167 1199 1155
f 1198 1184 1166
f 1199 1167 1156
f 1199 1156 1184
f 1168 1185 1169
f 1170 1200 1168
f 1200 1170 1171
f 1200 1185 1168
f 1200 1171 1116
f 1200 1116 1201
f 1201 1116 1172
f 1202 1173 1188
f 1141 1174 1187
f 1173 1203 1172
f 1185 1204 1189
f 1123 1082 1205
f 1204 1191 1189
f 1082 1165 1205
f 1206 1192 1191
f 1206 1207 1192
f 1206 1195 1182
f 1195 1208 1131
f 1131 1208 1152
f 1108 1194 1127
f 1178 1192 1209
f 1209 1192 1207
f 1183 1207 1206
f 1182 1183 1206
f 1209 1196 1178
f 1197 1209 1207
f 1183 1197 1207
f 1197 1210 1209
f 1209 1210 1196
f 1197 1199 1210
f 1210 1198 1196
f 1184 1198 1210
f 1199 1184 1210
f 1200 1201 1211
f 1158 1212 1188
f 1211 1204 1185
f 1200 1211 1185
f 1201 1172 1203
f 1174 1213 1187
f 1202 1203 1173
f 1214 1191 1204
f 1215 1191 1214
f 1194 1216 1127
f 1195 1206 1191
f 1191 1215 1195
f 1186 1212 1158
f 1211 1201 1203
f 1217 1213 1174
f 1203 1218 1211
f 1219 1204 1211
f 1219 1211 1218
f 1204 1219 1214
f 1127 1216 1220
f 1208 1195 1215
f 1194 1152 1216
f 1187 1213 1186
f 1221 1188 1212
f 1188 1221 1202
f 1217 1174 1177
f 1202 1222 1203
f 1205 1177 1123
f 1165 1223 1205
f 1219 1224 1214
f 1165 1193 1223
f 1215 1214 1225
f 1225 1208 1215
f 1220 1193 1127
f 1216 1152 1226
f 1152 1208 1226
f 1186 1227 1212
f 1213 1227 1186
f 1217 1177 1228
f 1203 1222 1218
f 1205 1228 1177
f 1218 1222 1224
f 1219 1218 1224
f 1205 1223 1229
f 1225 1226 1208
f 1212 1227 1221
f 1213 1230 1227
f 1217 1230 1213
f 1217 1228 1230
f 1202 1221 1222
f 1228 1205 1229
f 1229 1223 1231
f 1224 1232 1214
f 1214 1232 1225
f 1223 1193 1233
f 1216 1226 1234
f 1235 1221 1227
f 1230 1235 1227
f 1228 1229 1230
f 1224 1222 1236
f 1236 1232 1224
f 1233 1231 1223
f 1237 1225 1232
f 1220 1233 1193
f 1237 1226 1225
f 1226 1237 1234
f 1216 1234 1220
f 1221 1235 1238
f 1235 1230 1239
f 1222 1221 1238
f 1230 1229 1239
f 1236 1222 1238
f 1239 1231 1240
f 1239 1229 1231
f 1241 1232 1236
f 1241 1237 1232
f 1240 1231 1233
f 1237 1242 1234
f 1234 1233 1220
f 1238 1235 1243
f 1244 1235 1239
f 1238 1241 1236
f 1241 1238 1243
f 1240 1244 1239
f 1233 1245 1244
f 1240 1233 1244
f 1242 1237 1241
f 1245 1234 1242
f 1233 1234 1245
f 1243 1235 1244
f 1241 1243 1242
f 1245 1242 1243
f 1244 1245 1243

