# https://github.com/mikedh/trimesh
v -2270.13450000 -6051.56485000 -2101.99500000
v -2261.76450000 -6059.26485000 -1996.40500000
v -2259.95450000 -6039.46485000 -2015.21500000
v -2246.97450000 -6110.96485000 -2016.54500000
v -2260.86450000 -6026.96485000 -2202.65500000
v -2256.13450000 -6105.06485000 -2189.82500000
v -2264.01450000 -6055.46485000 -2310.83500000
v -2245.24450000 -6130.76485000 -2333.01500000
v -2260.64450000 -6031.46485000 -2340.73500000
v -2249.25450000 -6017.26485000 -2376.09500000
v -2253.68450000 -6039.56485000 -2444.45500000
v -2249.91450000 -6078.96485000 -2464.21500000
v -2241.21450000 -6053.96485000 -1881.94500000
v -2244.13450000 -6036.16485000 -1921.40500000
v -2249.34450000 -6054.36485000 -1940.46500000
v -2239.79450000 -6086.86485000 -1922.90500000
v -2240.77450000 -6015.76485000 -2021.96500000
v -2205.99450000 -5976.66485000 -2195.17500000
v -2215.74450000 -6203.96485000 -2169.07500000
v -2219.97450000 -6192.76485000 -2398.20500000
v -2186.66450000 -5972.16485000 -2451.94500000
v -2233.82450000 -6132.16485000 -2495.19500000
v -2224.68450000 -6019.16485000 -2524.71500000
v -2233.81450000 -6053.26485000 -2557.34500000
v -2231.97450000 -6087.46485000 -2563.87500000
v -2222.71450000 -6046.46485000 -1832.24500000
v -2218.62450000 -6092.46485000 -1841.30500000
v -2190.87450000 -6072.06485000 -1753.62500000
v -2199.26450000 -6033.06485000 -1784.10500000
v -2212.43450000 -6015.86485000 -1873.32500000
v -2203.26450000 -6177.16485000 -1921.72500000
v -2164.62450000 -5960.46485000 -2002.07500000
v -2175.27450000 -5951.56485000 -2324.92500000
v -2190.77450000 -6231.76485000 -2528.24500000
v -2207.61450000 -6136.96485000 -2603.85500000
v -2208.61450000 -6032.16485000 -2629.14500000
v -2211.26450000 -6075.66485000 -2627.20500000
v -2183.75450000 -6144.86485000 -1784.42500000
v -2179.86450000 -6009.56485000 -1774.45500000
v -2143.83450000 -5964.66485000 -1866.84500000
v -2166.65450000 -6213.66485000 -1800.23500000
v -2171.98450000 -6276.36485000 -1989.02500000
v -2168.79450000 -6306.46485000 -2152.17500000
v -2121.41450000 -5911.26485000 -2291.46500000
v -2169.02450000 -6304.16485000 -2345.97500000
v -2134.68450000 -5925.96485000 -2405.91500000
v -2173.49450000 -5995.46485000 -2623.11500000
v -2163.50450000 -6223.76485000 -2643.08500000
v -2185.05450000 -6022.96485000 -2671.22500000
v -2170.33450000 -6129.86485000 -2695.87500000
v -2176.59450000 -6051.26485000 -2697.05500000
v -2154.12450000 -6134.56485000 -1693.55500000
v -2147.33450000 -6067.46485000 -1667.49500000
v -2174.42450000 -6038.06485000 -1735.96500000
v -2149.16450000 -6019.06485000 -1700.48500000
v -2151.15450000 -6194.66485000 -1731.40500000
v -2151.81450000 -6266.66485000 -1840.50500000
v -2102.25450000 -5904.26485000 -2162.05500000
v -2141.43450000 -6361.46485000 -2205.09500000
v -2104.90450000 -5908.46485000 -2489.17500000
v -2156.79450000 -6317.06485000 -2481.74500000
v -2130.62450000 -6329.26485000 -2578.56500000
v -2083.77450000 -5912.46485000 -2601.99500000
v -2154.02450000 -6013.36485000 -2708.82500000
v -2134.92450000 -6037.76485000 -2761.76500000
v -2123.70450000 -6097.56485000 -2776.03500000
v -2123.08450000 -6030.16485000 -1640.72500000
v -2123.79450000 -5977.76485000 -1745.61500000
v -2130.96450000 -6248.96485000 -1735.13500000
v -2081.30450000 -5931.46485000 -1827.69500000
v -2074.48450000 -5906.16485000 -1984.22500000
v -2126.15450000 -6336.86485000 -1897.88500000
v -2136.35450000 -6351.66485000 -2064.30500000
v -2115.75450000 -6386.56485000 -2469.50500000
v -2104.45450000 -6310.56485000 -2690.03500000
v -2093.87450000 -5955.86485000 -2708.11500000
v -2113.85450000 -6232.06485000 -2743.19500000
v -2108.31450000 -6169.26485000 -2782.17500000
v -2074.97450000 -6087.66485000 -1560.10500000
v -2084.69450000 -6174.16485000 -1590.45500000
v -2107.71450000 -6220.66485000 -1658.94500000
v -2093.41450000 -5993.06485000 -1644.61500000
v -2087.57450000 -6334.36485000 -1749.21500000
v -2095.31450000 -6424.66485000 -2153.66500000
v -2089.05450000 -6434.06485000 -2326.20500000
v -2088.75450000 -6000.06485000 -2785.41500000
v -2063.65450000 -6228.36485000 -2828.99500000
v -2050.26450000 -6088.16485000 -2855.18500000
v -2087.16450000 -6030.06485000 -1590.98500000
v -2054.74450000 -6048.56485000 -1533.61500000
v -2066.51450000 -6303.16485000 -1647.31500000
v -2040.44450000 -6428.36485000 -1818.01500000
v -2075.54450000 -6422.46485000 -1994.02500000
v -2041.96450000 -5856.66485000 -2344.15500000
v -2086.08450000 -5889.66485000 -2416.15500000
v -2065.17450000 -6444.56485000 -2571.21500000
v -2062.26450000 -6404.36485000 -2668.51500000
v -2042.13450000 -6192.76485000 -2861.15500000
v -2004.71450000 -6216.36485000 -1491.61500000
v -2048.94450000 -6010.06485000 -1553.77500000
v -2012.05450000 -6265.36485000 -1515.34500000
v -2046.95450000 -6270.96485000 -1580.87500000
v -2039.82450000 -5937.96485000 -1706.85500000
v -2008.28450000 -6423.26485000 -1690.94500000
v -2013.79450000 -6488.96485000 -1935.83500000
v -2034.92450000 -6490.36485000 -2092.80500000
v -2049.66450000 -6486.46485000 -2240.29500000
v -2061.06450000 -6467.76485000 -2469.10500000
v -2047.08450000 -5869.06485000 -2505.33500000
v -2014.03450000 -5887.16485000 -2709.78500000
v -2044.41450000 -6363.16485000 -2768.84500000
v -2024.69450000 -5928.36485000 -2772.53500000
v -2032.69450000 -6301.86485000 -2837.82500000
v -2026.28450000 -5963.06485000 -2819.70500000
v -2037.49450000 -6012.06485000 -2841.89500000
v -2023.95450000 -6034.66485000 -1501.54500000
v -2011.39450000 -6072.46485000 -1483.32500000
v -2014.13450000 -5964.16485000 -1589.66500000
v -2014.87450000 -6335.96485000 -1572.19500000
v -2011.13450000 -6377.36485000 -1624.14500000
v -2011.30450000 -5889.76485000 -1867.07500000
v -1978.21450000 -6499.16485000 -1807.96500000
v -2036.37450000 -5864.36485000 -2165.53500000
v -2024.07450000 -6515.16485000 -2403.16500000
v -1992.94450000 -5850.06485000 -2627.63500000
v -2010.78450000 -6281.56485000 -2879.30500000
v -1992.60450000 -6057.76485000 -2895.95500000
v -1973.74450000 -6161.16485000 -1452.70500000
v -2005.72450000 -6012.36485000 -1494.29500000
v -1987.77450000 -5984.66485000 -1515.93500000
v -1950.85450000 -5884.96485000 -1750.68500000
v -1962.13450000 -6481.46485000 -1697.93500000
v -1978.55450000 -5847.16485000 -2057.81500000
v -1979.19450000 -6533.86485000 -2005.51500000
v -1999.77450000 -6532.36485000 -2212.57500000
v -1972.95450000 -5822.86485000 -2288.97500000
v -2021.57450000 -6506.56485000 -2551.61500000
v -2019.25450000 -6481.26485000 -2660.77500000
v -2014.12450000 -6448.36485000 -2739.47500000
v -1987.79450000 -6398.36485000 -2854.51500000
v -1985.76450000 -5981.46485000 -2858.65500000
v -1975.60450000 -6203.66485000 -2929.45500000
v -1974.97450000 -6033.86485000 -1461.19500000
v -1963.17450000 -5996.16485000 -1479.54500000
v -1996.27450000 -6319.76485000 -1527.57500000
v -1943.67450000 -6333.46485000 -1466.92500000
v -1976.58450000 -6555.76485000 -2371.13500000
v -1971.49450000 -5823.66485000 -2497.67500000
v -1978.64450000 -6543.46485000 -2541.83500000
v -1977.14450000 -6525.46485000 -2670.76500000
v -1956.92450000 -6504.86485000 -2789.98500000
v -1955.57450000 -5872.66485000 -2770.57500000
v -1971.56450000 -6451.86485000 -2832.63500000
v -1972.18450000 -5924.26485000 -2817.88500000
v -1976.47450000 -6128.26485000 -2922.02500000
v -1942.13450000 -6110.96485000 -1427.26500000
v -1926.27450000 -5942.26485000 -1535.44500000
v -1946.81450000 -6398.86485000 -1526.91500000
v -1944.79450000 -5918.66485000 -1625.75500000
v -1949.60450000 -6450.96485000 -1605.90500000
v -1914.85450000 -5850.36485000 -1869.66500000
v -1958.90450000 -6527.06485000 -1861.98500000
v -1956.08450000 -6559.26485000 -2113.34500000
v -1968.40450000 -6556.26485000 -2239.78500000
v -1921.40450000 -6541.36485000 -2792.56500000
v -1968.06450000 -6373.96485000 -2899.63500000
v -1942.36450000 -6031.66485000 -2908.86500000
v -1952.91450000 -6322.26485000 -2931.92500000
v -1937.59450000 -6110.86485000 -2941.75500000
v -1869.33450000 -6052.96485000 -1408.87500000
v -1903.37450000 -6283.26485000 -1406.27500000
v -1900.42450000 -5964.56485000 -1481.85500000
v -1907.06450000 -5808.96485000 -2167.16500000
v -1936.36450000 -6569.16485000 -2297.45500000
v -1911.87450000 -6571.46485000 -2071.10500000
v -1944.62450000 -5804.36485000 -2401.28500000
v -1907.98450000 -5793.96485000 -2336.18500000
v -1944.26450000 -6562.76485000 -2502.01500000
v -1910.67450000 -5810.26485000 -2646.05500000
v -1910.75450000 -6558.86485000 -2697.87500000
v -1952.69450000 -5849.36485000 -2705.29500000
v -1903.37450000 -6499.16485000 -2909.65500000
v -1945.16450000 -6437.46485000 -2892.79500000
v -1927.19450000 -5957.36485000 -2867.88500000
v -1920.90450000 -6206.86485000 -2966.38500000
v -1916.59450000 -6293.76485000 -2968.04500000
v -1880.31450000 -6216.16485000 -1381.05500000
v -1885.67450000 -5998.56485000 -1446.25500000
v -1895.03450000 -6513.86485000 -1598.30500000
v -1881.52450000 -5879.26485000 -1678.23500000
v -1920.08450000 -6528.76485000 -1725.43500000
v -1914.58450000 -6554.96485000 -1879.54500000
v -1897.11450000 -5861.76485000 -1774.26500000
v -1870.84450000 -5823.06485000 -1988.14500000
v -1910.80450000 -5797.56485000 -2469.85500000
v -1916.91450000 -5890.76485000 -2815.38500000
v -1885.85450000 -6535.86485000 -2878.27500000
v -1898.19450000 -6027.06485000 -2917.42500000
v -1911.00450000 -6430.46485000 -2939.97500000
v -1899.85450000 -6092.46485000 -2948.34500000
v -1826.20450000 -6156.16485000 -1363.18500000
v -1840.96450000 -6394.06485000 -1390.76500000
v -1856.03450000 -6444.36485000 -1445.74500000
v -1873.94450000 -6482.96485000 -1517.38500000
v -1852.92450000 -5907.76485000 -1564.92500000
v -1867.33450000 -6573.66485000 -1904.83500000
v -1830.75450000 -5788.16485000 -2229.18500000
v -1892.25450000 -6572.56485000 -2507.65500000
v -1843.90450000 -6574.46485000 -2723.38500000
v -1910.98450000 -5848.36485000 -2749.20500000
v -1872.12450000 -6555.16485000 -2842.12500000
v -1883.64450000 -5964.56485000 -2880.76500000
v -1880.23450000 -6175.36485000 -2975.48500000
v -1875.56450000 -6320.36485000 -2994.18500000
v -1818.77450000 -6304.96485000 -1339.80500000
v -1809.69450000 -6360.16485000 -1349.28500000
v -1809.63450000 -5998.06485000 -1412.08500000
v -1789.25450000 -5940.76485000 -1471.14500000
v -1861.11450000 -6543.96485000 -1602.09500000
v -1865.36450000 -6554.16485000 -1677.33500000
v -1853.95450000 -5858.96485000 -1737.74500000
v -1848.53450000 -6576.56485000 -2093.64500000
v -1869.55450000 -5786.36485000 -2393.67500000
v -1857.19450000 -5790.36485000 -2501.38500000
v -1858.26450000 -5799.66485000 -2639.58500000
v -1868.92450000 -5866.06485000 -2795.41500000
v -1888.53450000 -5917.16485000 -2839.92500000
v -1849.54450000 -6529.06485000 -2947.44500000
v -1861.87450000 -6405.26485000 -2991.67500000
v -1852.23450000 -6486.66485000 -2969.98500000
v -1849.65450000 -6282.56485000 -2997.90500000
v -1758.45450000 -6083.66485000 -1351.64500000
v -1769.13450000 -6022.56485000 -1380.02500000
v -1789.69450000 -5976.86485000 -1423.67500000
v -1839.22450000 -6529.66485000 -1531.01500000
v -1828.07450000 -6568.66485000 -1695.25500000
v -1802.20450000 -5838.76485000 -1807.39500000
v -1756.68450000 -5815.76485000 -1917.19500000
v -1638.38450000 -6580.56485000 -2220.55500000
v -1866.79450000 -5827.36485000 -2715.80500000
v -1821.73450000 -6568.66485000 -2848.93500000
v -1853.14450000 -5932.26485000 -2846.58500000
v -1810.35450000 -6552.26485000 -2932.09500000
v -1859.42450000 -6014.86485000 -2904.36500000
v -1866.74450000 -6073.56485000 -2940.19500000
v -1850.36450000 -6138.26485000 -2966.53500000
v -1817.57450000 -6241.66485000 -2992.49500000
v -1829.57450000 -6369.06485000 -3009.80500000
v -1768.11450000 -6254.86485000 -1318.42500000
v -1781.85450000 -6517.46485000 -1440.10500000
v -1744.38450000 -5908.46485000 -1513.62500000
v -1783.07450000 -5871.76485000 -1654.10500000
v -1805.53450000 -6550.26485000 -1549.60500000
v -1793.91450000 -6576.06485000 -1738.06500000
v -1802.26450000 -5804.56485000 -2067.28500000
v -1817.14450000 -5787.16485000 -2333.73500000
v -1825.07450000 -5795.66485000 -2565.20500000
v -1823.72450000 -5813.26485000 -2653.03500000
v -1810.84450000 -5849.36485000 -2714.30500000
v -1826.11450000 -5888.96485000 -2787.97500000
v -1831.74450000 -6083.86485000 -2935.74500000
v -1797.77450000 -6429.46485000 -3022.79500000
v -1797.08450000 -6484.16485000 -3013.03500000
v -1758.03450000 -6362.66485000 -1310.92500000
v -1784.71450000 -6462.46485000 -1387.44500000
v -1781.18450000 -5796.96485000 -2403.73500000
v -1782.78450000 -5809.46485000 -2530.07500000
v -1735.09450000 -6576.76485000 -2744.65500000
v -1804.24450000 -5940.16485000 -2817.25500000
v -1807.67450000 -6016.76485000 -2875.03500000
v -1792.99450000 -6194.26485000 -2971.71500000
v -1795.13450000 -6526.16485000 -2985.95500000
v -1771.23450000 -6385.26485000 -3021.89500000
v -1738.93450000 -6320.96485000 -1299.31500000
v -1708.53450000 -6440.76485000 -1319.68500000
v -1715.57450000 -6000.86485000 -1365.52500000
v -1698.48450000 -6570.96485000 -1505.90500000
v -1706.42450000 -6577.56485000 -1793.42500000
v -1751.72450000 -5796.06485000 -2098.76500000
v -1746.35450000 -5796.16485000 -2195.17500000
v -1750.24450000 -5838.46485000 -2558.85500000
v -1756.04450000 -5932.86485000 -2743.70500000
v -1766.95450000 -6131.06485000 -2922.65500000
v -1737.91450000 -6568.56485000 -2919.11500000
v -1723.29450000 -6177.36485000 -1312.40500000
v -1704.12450000 -6037.36485000 -1338.45500000
v -1712.46450000 -6497.86485000 -1360.48500000
v -1716.47450000 -6549.76485000 -1441.67500000
v -1703.65450000 -5823.56485000 -1829.83500000
v -1676.18450000 -5816.46485000 -1886.14500000
v -1720.22450000 -5823.96485000 -2383.99500000
v -1731.17450000 -5889.66485000 -2635.35500000
v -1742.50450000 -6036.86485000 -2827.49500000
v -1757.01450000 -6082.56485000 -2880.36500000
v -1714.93450000 -6271.06485000 -2962.05500000
v -1746.98450000 -6317.56485000 -2997.62500000
v -1753.77450000 -6549.76485000 -2979.71500000
v -1739.51450000 -6525.06485000 -3016.19500000
v -1748.54450000 -6474.76485000 -3028.20500000
v -1686.61450000 -6270.36485000 -1279.59500000
v -1673.86450000 -6105.16485000 -1300.31500000
v -1671.96450000 -5849.46485000 -1706.45500000
v -1709.44450000 -5806.66485000 -1999.29500000
v -1699.11450000 -5812.26485000 -2221.66500000
v -1606.50450000 -6576.06485000 -2731.79500000
v -1715.09450000 -6155.06485000 -2890.13500000
v -1713.81450000 -6464.06485000 -3034.70500000
v -1647.95450000 -6361.16485000 -1265.87500000
v -1632.78450000 -6061.26485000 -1286.53500000
v -1666.70450000 -6533.96485000 -1365.04500000
v -1659.21450000 -5989.46485000 -1359.73500000
v -1637.49450000 -5942.66485000 -1441.72500000
v -1442.30450000 -6579.16485000 -1555.01500000
v -1715.43450000 -5800.56485000 -2081.90500000
v -1696.11450000 -6042.66485000 -2767.68500000
v -1705.83450000 -6222.76485000 -2923.29500000
v -1708.09450000 -6424.66485000 -3023.14500000
v -1691.51450000 -6509.66485000 -3027.27500000
v -1582.20450000 -6449.86485000 -1257.25500000
v -1630.30450000 -6178.76485000 -1261.57500000
v -1639.86450000 -6556.06485000 -1390.72500000
v -1660.98450000 -5892.06485000 -1567.82500000
v -1675.56450000 -5811.86485000 -2065.40500000
v -1666.50450000 -5833.86485000 -2230.45500000
v -1696.25450000 -5850.66485000 -2423.09500000
v -1699.80450000 -5876.36485000 -2507.59500000
v -1680.92450000 -6002.96485000 -2686.53500000
v -1682.82450000 -6385.16485000 -2995.94500000
v -1682.71450000 -6547.76485000 -2955.57500000
v -1690.37450000 -6477.66485000 -3029.14500000
v -1640.28450000 -6510.06485000 -1322.76500000
v -1670.69450000 -5849.86485000 -2307.73500000
v -1655.77450000 -5957.66485000 -2513.05500000
v -1643.41450000 -6194.26485000 -2821.80500000
v -1633.43450000 -6308.16485000 -2899.78500000
v -1644.62450000 -6380.76485000 -2963.01500000
v -1631.01450000 -6535.96485000 -2990.81500000
v -1543.47450000 -6399.06485000 -1230.28500000
v -1590.06450000 -6098.46485000 -1254.86500000
v -1625.99450000 -6034.16485000 -1301.08500000
v -1547.91450000 -6567.86485000 -1397.77500000
v -1619.05450000 -5831.86485000 -1818.69500000
v -1656.35450000 -5818.46485000 -1943.59500000
v -1641.17450000 -5832.86485000 -2108.13500000
v -1660.52450000 -5888.16485000 -2374.00500000
v -1609.28450000 -6099.66485000 -2626.33500000
v -1625.02450000 -6452.66485000 -2987.54500000
v -1653.39450000 -6482.66485000 -3004.60500000
v -1612.59450000 -6258.96485000 -1247.82500000
v -1594.56450000 -6063.96485000 -1269.03500000
v -1578.93450000 -6496.76485000 -1281.37500000
v -1556.32450000 -6540.46485000 -1324.34500000
v -1526.36450000 -5919.16485000 -1517.67500000
v -1581.09450000 -5871.96485000 -1636.17500000
v -1600.79450000 -5852.16485000 -1714.01500000
v -1606.14450000 -5834.76485000 -1940.24500000
v -1227.11450000 -6580.66485000 -1711.14500000
v -1632.57450000 -5872.36485000 -2215.39500000
v -1612.66450000 -5967.36485000 -2341.13500000
v -1627.44450000 -6129.46485000 -2723.54500000
v -1566.79450000 -6310.86485000 -2809.14500000
v -1576.22450000 -6559.36485000 -2891.05500000
v -1608.16450000 -6528.66485000 -2984.85500000
v -1554.67450000 -6211.46485000 -1230.17500000
v -1536.83450000 -6317.46485000 -1225.83500000
v -1536.27450000 -6031.86485000 -1278.76500000
v -1580.78450000 -5947.36485000 -2171.82500000
v -1597.05450000 -6062.96485000 -2487.00500000
v -1571.85450000 -6202.96485000 -2695.25500000
v -1403.90450000 -6580.86485000 -2259.88500000
v -1585.21450000 -6230.66485000 -2755.87500000
v -1572.63450000 -6460.46485000 -2931.65500000
v -1502.30450000 -6571.46485000 -2761.99500000
v -1585.43450000 -6541.66485000 -2951.14500000
v -1605.20450000 -6493.76485000 -2974.24500000
v -1539.20450000 -6070.36485000 -1251.93500000
v -1533.77450000 -6483.56485000 -1252.71500000
v -1527.76450000 -5994.76485000 -1342.25500000
v -1499.73450000 -5962.66485000 -1419.01500000
v -1553.00450000 -5851.16485000 -1794.50500000
v -1581.47450000 -5872.86485000 -2024.70500000
v -1525.91450000 -5873.66485000 -1832.81500000
v -1541.23450000 -5928.26485000 -2014.52500000
v -1562.25450000 -6074.86485000 -2361.59500000
v -1552.22450000 -6183.16485000 -2574.69500000
v -1467.41450000 -6577.56485000 -2558.50500000
v -1565.01450000 -6522.06485000 -2937.22500000
v -1503.25450000 -6164.96485000 -1222.79500000
v -1470.72450000 -6455.96485000 -1228.23500000
v -1442.77450000 -6564.36485000 -1326.34500000
v -1517.74450000 -5885.46485000 -1622.19500000
v -1559.48450000 -5861.66485000 -1712.38500000
v -1523.04450000 -5899.66485000 -1908.53500000
v -1516.13450000 -6023.06485000 -2092.60500000
v -1536.02450000 -6547.86485000 -2890.37500000
v -1520.13450000 -6512.46485000 -2891.70500000
v -1448.10450000 -6278.06485000 -1204.81500000
v -1463.76450000 -6509.56485000 -1259.80500000
v -1376.72450000 -6572.66485000 -1378.40500000
v -1489.92450000 -5970.06485000 -1928.50500000
v -1520.48450000 -6111.76485000 -2265.06500000
v -1514.31450000 -6186.56485000 -2416.32500000
v -1505.60450000 -6342.26485000 -2714.53500000
v -1529.13450000 -6414.36485000 -2835.85500000
v -1510.09450000 -6559.76485000 -2833.03500000
v -1520.99450000 -6476.56485000 -2871.63500000
v -1519.80450000 -6536.46485000 -2884.73500000
v -1456.65450000 -6137.76485000 -1220.32500000
v -1450.47450000 -6198.16485000 -1211.95500000
v -1451.90450000 -6381.96485000 -1211.50500000
v -1436.53450000 -6030.06485000 -1286.36500000
v -1409.98450000 -5994.36485000 -1367.66500000
v -1413.39450000 -5961.26485000 -1460.74500000
v -1458.34450000 -5915.56485000 -1582.03500000
v -1499.36450000 -5887.26485000 -1695.17500000
v -1480.72450000 -6023.36485000 -1978.59500000
v -1481.08450000 -6108.06485000 -2117.85500000
v -1457.28450000 -6207.86485000 -2249.27500000
v -1478.41450000 -6294.66485000 -2531.01500000
v -1496.83450000 -6549.36485000 -2844.66500000
v -1459.45450000 -6071.76485000 -1250.17500000
v -1368.28450000 -6444.26485000 -1209.64500000
v -1373.92450000 -6547.36485000 -1284.70500000
v -1442.57450000 -5937.86485000 -1523.46500000
v -1454.75450000 -5917.06485000 -1717.14500000
v -1479.26450000 -5926.56485000 -1821.71500000
v -1444.52450000 -6292.06485000 -2403.01500000
v -1359.70450000 -6575.46485000 -2379.44500000
v -1431.07450000 -6572.76485000 -2597.78500000
v -1466.30450000 -6451.46485000 -2760.66500000
v -1468.08450000 -6555.56485000 -2781.03500000
v -1480.43450000 -6501.06485000 -2817.56500000
v -1497.07450000 -6530.06485000 -2852.48500000
v -1399.06450000 -6126.76485000 -1228.84500000
v -1375.22450000 -6490.86485000 -1231.78500000
v -1420.53450000 -5933.76485000 -1620.97500000
v -1457.54450000 -5982.16485000 -1851.10500000
v -1459.45450000 -6044.26485000 -1954.93500000
v -1440.06450000 -6148.76485000 -2073.77500000
v -1438.04450000 -6398.76485000 -2607.96500000
v -1441.83450000 -6437.86485000 -2681.45500000
v -1440.33450000 -6562.96485000 -2693.54500000
v -1477.90450000 -6538.06485000 -2813.77500000
v -1396.21450000 -6225.86485000 -1208.98500000
v -1372.62450000 -6364.26485000 -1199.97500000
v -1381.43450000 -6067.86485000 -1265.24500000
v -1323.20450000 -6524.96485000 -1251.36500000
v -1385.14450000 -5955.86485000 -1527.66500000
v -1421.69450000 -5998.66485000 -1783.85500000
v -1363.26450000 -5983.26485000 -1634.19500000
v -1373.96450000 -6260.46485000 -2109.56500000
v -1391.91450000 -6333.16485000 -2315.57500000
v -1414.69450000 -6376.56485000 -2481.65500000
v -1394.80450000 -6564.96485000 -2560.97500000
v -1440.36450000 -6556.16485000 -2730.83500000
v -1429.45450000 -6498.36485000 -2708.19500000
v -1445.98450000 -6538.26485000 -2745.39500000
v -1382.26450000 -6297.76485000 -1201.88500000
v -1335.23450000 -6029.46485000 -1665.26500000
v -1362.15450000 -6148.36485000 -1890.29500000
v -1402.08450000 -6457.06485000 -2579.93500000
v -1420.78450000 -6553.86485000 -2671.74500000
v -1409.41450000 -6536.76485000 -2661.55500000
v -1327.72450000 -6321.96485000 -1207.45500000
v -1336.19450000 -6212.56485000 -1226.16500000
v -1343.99450000 -6128.76485000 -1250.80500000
v -1358.74450000 -6033.16485000 -1313.89500000
v -1334.03450000 -6011.26485000 -1365.69500000
v -1352.88450000 -5990.26485000 -1410.72500000
v -1344.34450000 -5981.76485000 -1456.59500000
v -1343.68450000 -5978.16485000 -1554.62500000
v -1328.31450000 -6086.66485000 -1733.43500000
v -1342.13450000 -6377.86485000 -2248.71500000
v -1366.26450000 -6568.16485000 -2457.83500000
v -1362.67450000 -6555.66485000 -2489.75500000
v -1372.38450000 -6423.26485000 -2424.39500000
v -1389.78450000 -6549.56485000 -2590.00500000
v -1396.77450000 -6510.76485000 -2618.59500000
v -1383.74450000 -6530.06485000 -2586.96500000
v -1321.13450000 -6088.26485000 -1286.82500000
v -1293.69450000 -6278.46485000 -1946.83500000
v -1302.36450000 -6346.06485000 -2090.76500000
v -1246.80450000 -6574.56485000 -2107.67500000
v -1339.40450000 -6560.76485000 -2397.46500000
v -1369.96450000 -6498.66485000 -2517.76500000
v -1370.87450000 -6533.86485000 -2533.35500000
v -1302.89450000 -6419.96485000 -1211.45500000
v -1293.42450000 -6191.46485000 -1254.94500000
v -1304.27450000 -6479.46485000 -1227.09500000
v -1264.76450000 -6546.36485000 -1269.61500000
v -1269.93450000 -6563.16485000 -1313.82500000
v -1312.19450000 -5994.66485000 -1481.66500000
v -1293.43450000 -6013.46485000 -1525.65500000
v -1260.06450000 -6127.46485000 -1663.84500000
v -1247.90450000 -6209.16485000 -1750.56500000
v -1244.87450000 -6271.76485000 -1833.52500000
v -1152.91450000 -6577.06485000 -1877.30500000
v -1287.55450000 -6573.66485000 -2233.09500000
v -1306.60450000 -6565.16485000 -2305.23500000
v -1329.45450000 -6545.46485000 -2401.66500000
v -1312.20450000 -6552.36485000 -2346.19500000
v -1329.36450000 -6466.36485000 -2354.83500000
v -1344.35450000 -6521.56485000 -2438.44500000
v -1265.60450000 -6315.46485000 -1233.69500000
v -1234.11450000 -6182.26485000 -1306.68500000
v -1288.99450000 -6063.66485000 -1345.93500000
v -1284.91450000 -6574.86485000 -1395.33500000
v -1245.34450000 -6578.16485000 -1478.05500000
v -1305.22450000 -6015.46485000 -1412.08500000
v -1233.44450000 -6115.56485000 -1591.55500000
v -1290.38450000 -6422.36485000 -2191.90500000
v -1290.01450000 -6478.16485000 -2269.56500000
v -1308.25450000 -6517.86485000 -2338.37500000
v -1308.15450000 -6543.96485000 -2342.09500000
v -1248.83450000 -6409.96485000 -1227.64500000
v -1251.00450000 -6465.06485000 -1230.88500000
v -1201.94450000 -6310.96485000 -1281.87500000
v -1228.06450000 -6514.56485000 -1256.78500000
v -1254.53450000 -6063.96485000 -1388.17500000
v -1245.06450000 -6063.86485000 -1454.25500000
v -1238.63450000 -6402.06485000 -2032.22500000
v -1272.28450000 -6514.46485000 -2254.32500000
v -1248.29450000 -6473.96485000 -2163.94500000
v -1288.86450000 -6546.26485000 -2285.84500000
v -1213.16450000 -6144.96485000 -1362.23500000
v -1195.42450000 -6382.26485000 -1898.08500000
v -1256.51450000 -6559.66485000 -2198.79500000
v -1246.93450000 -6521.26485000 -2204.51500000
v -1262.27450000 -6536.96485000 -2230.40500000
v -1173.52450000 -6425.76485000 -1273.45500000
v -1199.40450000 -6544.26485000 -1287.52500000
v -1142.99450000 -6316.36485000 -1332.71500000
v -1224.99450000 -6095.36485000 -1520.54500000
v -1150.85450000 -6352.56485000 -1778.47500000
v -1234.44450000 -6539.36485000 -2179.52500000
v -1212.68450000 -6551.06485000 -2123.03500000
v -1210.26450000 -6465.26485000 -1252.16500000
v -1175.98450000 -6528.56485000 -1279.13500000
v -1210.32450000 -6572.56485000 -1380.67500000
v -1144.45450000 -6248.96485000 -1370.29500000
v -1201.67450000 -6127.36485000 -1409.53500000
v -1158.26450000 -6169.36485000 -1461.22500000
v -1177.34450000 -6149.06485000 -1499.67500000
v -1163.26450000 -6177.76485000 -1540.44500000
v -1123.95450000 -6284.76485000 -1657.00500000
v -1205.22450000 -6477.86485000 -2072.85500000
v -1212.75450000 -6560.46485000 -2097.23500000
v -1186.91450000 -6555.66485000 -2052.08500000
v -1221.23450000 -6511.56485000 -2139.67500000
v -1207.02450000 -6530.96485000 -2116.25500000
v -1158.67450000 -6503.26485000 -1286.36500000
v -1141.13450000 -6557.56485000 -1349.75500000
v -1162.70450000 -6192.16485000 -1394.18500000
v -1143.93450000 -6199.66485000 -1430.00500000
v -1076.13450000 -6572.56485000 -1817.26500000
v -1137.64450000 -6568.26485000 -1922.26500000
v -1187.62450000 -6562.36485000 -2032.65500000
v -1184.00450000 -6512.16485000 -2051.79500000
v -1177.14450000 -6538.86485000 -2037.97500000
v -1089.06450000 -6420.66485000 -1353.37500000
v -1158.07450000 -6533.06485000 -1302.67500000
v -1173.36450000 -6572.36485000 -1468.82500000
v -1130.36450000 -6444.46485000 -1860.17500000
v -1169.18450000 -6466.76485000 -1964.20500000
v -1142.64450000 -6527.16485000 -1959.34500000
v -1162.09450000 -6554.66485000 -1991.80500000
v -1153.22450000 -6546.86485000 -1978.11500000
v -1109.38450000 -6253.96485000 -1427.08500000
v -1115.11450000 -6229.66485000 -1516.16500000
v -1108.72450000 -6255.46485000 -1574.03500000
v -1132.16450000 -6551.16485000 -1934.16500000
v -1106.05450000 -6491.76485000 -1326.03500000
v -1117.27450000 -6530.66485000 -1333.05500000
v -1059.70450000 -6547.46485000 -1387.72500000
v -1076.23450000 -6355.36485000 -1395.53500000
v -1086.37450000 -6267.66485000 -1478.39500000
v -1100.69450000 -6564.86485000 -1474.11500000
v -1052.88450000 -6407.96485000 -1715.43500000
v -1058.87450000 -6576.36485000 -1667.80500000
v -1062.87450000 -6462.36485000 -1786.14500000
v -1058.14450000 -6562.76485000 -1815.34500000
v -1100.82450000 -6503.66485000 -1871.06500000
v -1106.41450000 -6558.26485000 -1887.09500000
v -1100.54450000 -6543.46485000 -1882.25500000
v -1071.76450000 -6527.46485000 -1363.66500000
v -1078.31450000 -6311.56485000 -1424.33500000
v -1055.64450000 -6321.16485000 -1460.39500000
v -1014.08450000 -6565.46485000 -1723.50500000
v -1051.99450000 -6506.26485000 -1378.55500000
v -1047.23450000 -6531.96485000 -1389.31500000
v -1045.20450000 -6569.56485000 -1563.98500000
v -1045.16450000 -6320.96485000 -1540.72500000
v -1020.05450000 -6365.76485000 -1597.06500000
v -1044.72450000 -6511.36485000 -1802.51500000
v -1049.64450000 -6539.76485000 -1812.76500000
v -1026.30450000 -6555.76485000 -1782.71500000
v -1023.65450000 -6433.36485000 -1423.30500000
v -1015.00450000 -6486.76485000 -1419.56500000
v -1020.61450000 -6390.56485000 -1458.33500000
v -1021.58450000 -6359.86485000 -1503.78500000
v -1002.32450000 -6419.16485000 -1655.34500000
v -1001.65450000 -6471.36485000 -1717.72500000
v -1000.32450000 -6553.86485000 -1748.21500000
v -1014.47450000 -6501.06485000 -1759.67500000
v -1006.85450000 -6529.66485000 -1764.38500000
v -1016.68450000 -6527.66485000 -1421.53500000
v -1023.20450000 -6551.76485000 -1469.36500000
v -972.55450000 -6553.46485000 -1521.21500000
v -1009.74450000 -6545.66485000 -1765.32500000
v -965.34450000 -6480.16485000 -1493.10500000
v -980.49450000 -6515.66485000 -1462.90500000
v -985.61450000 -6534.26485000 -1476.60500000
v -988.16450000 -6561.76485000 -1601.35500000
v -983.96450000 -6404.56485000 -1550.49500000
v -977.42450000 -6543.06485000 -1726.14500000
v -984.97450000 -6420.86485000 -1510.58500000
v -954.68450000 -6456.36485000 -1600.30500000
v -960.95450000 -6549.96485000 -1686.08500000
v -977.80450000 -6517.76485000 -1719.73500000
v -960.15450000 -6527.06485000 -1507.22500000
v -959.65450000 -6455.56485000 -1546.08500000
v -944.71450000 -6541.86485000 -1559.59500000
v -954.58450000 -6547.96485000 -1628.06500000
v -956.23450000 -6495.66485000 -1659.48500000
v -957.92450000 -6531.26485000 -1683.79500000
v -938.92450000 -6520.96485000 -1543.51500000
v -935.90450000 -6501.96485000 -1571.67500000
v -938.35450000 -6531.86485000 -1582.46500000
v -939.65450000 -6497.16485000 -1612.32500000
v -950.62450000 -6522.06485000 -1631.68500000
v 952.79550000 -6512.26485000 -1511.96500000
v 942.74550000 -6481.76485000 -1558.11500000
v 935.98550000 -6512.56485000 -1576.17500000
v 949.52550000 -6538.76485000 -1548.69500000
v 940.61550000 -6484.86485000 -1599.33500000
v 946.09550000 -6538.36485000 -1618.05500000
v 951.84550000 -6506.16485000 -1641.21500000
v 974.84550000 -6453.66485000 -1506.48500000
v 980.62550000 -6539.36485000 -1481.03500000
v 972.10550000 -6432.36485000 -1544.96500000
v 959.40550000 -6451.26485000 -1579.14500000
v 998.65550000 -6559.06485000 -1494.26500000
v 967.28550000 -6556.46485000 -1583.53500000
v 968.76550000 -6452.66485000 -1618.26500000
v 966.79550000 -6554.46485000 -1651.72500000
v 997.63550000 -6568.16485000 -1644.32500000
v 980.65550000 -6476.36485000 -1670.34500000
v 981.22550000 -6541.26485000 -1691.38500000
v 995.95550000 -6511.26485000 -1710.82500000
v 1008.67550000 -6453.96485000 -1446.59500000
v 1012.21550000 -6403.66485000 -1470.93500000
v 1000.24550000 -6509.86485000 -1446.72500000
v 1045.81550000 -6553.66485000 -1412.75500000
v 1003.63550000 -6394.16485000 -1513.20500000
v 1003.00550000 -6393.76485000 -1564.22500000
v 1027.16550000 -6376.16485000 -1601.06500000
v 1015.75550000 -6419.76485000 -1645.62500000
v 1001.35550000 -6559.86485000 -1696.45500000
v 1019.13550000 -6536.96485000 -1749.72500000
v 1044.89550000 -6484.66485000 -1390.31500000
v 1034.54550000 -6527.46485000 -1408.28500000
v 1050.38550000 -6570.36485000 -1516.93500000
v 1036.07550000 -6569.66485000 -1713.45500000
v 1031.00550000 -6455.76485000 -1704.48500000
v 1041.32550000 -6552.06485000 -1762.94500000
v 1058.69550000 -6356.76485000 -1427.95500000
v 1036.03550000 -6359.16485000 -1476.66500000
v 1052.90550000 -6326.66485000 -1511.65500000
v 1078.80550000 -6298.56485000 -1553.50500000
v 1071.73550000 -6373.36485000 -1656.82500000
v 1184.34550000 -6576.46485000 -1636.11500000
v 1043.24550000 -6514.46485000 -1773.25500000
v 1042.30550000 -6536.66485000 -1776.27500000
v 1069.18550000 -6515.36485000 -1358.87500000
v 1077.40550000 -6538.76485000 -1361.09500000
v 1076.12550000 -6399.86485000 -1382.01500000
v 1077.01550000 -6302.26485000 -1460.70500000
v 1087.26550000 -6564.96485000 -1407.02500000
v 1083.12550000 -6445.96485000 -1760.56500000
v 1069.39550000 -6537.06485000 -1812.43500000
v 1119.94550000 -6437.06485000 -1321.91500000
v 1109.62550000 -6508.06485000 -1323.11500000
v 1115.14550000 -6275.26485000 -1404.41500000
v 1097.08550000 -6334.56485000 -1388.02500000
v 1096.72550000 -6552.26485000 -1358.60500000
v 1108.63550000 -6248.66485000 -1489.77500000
v 1080.21550000 -6291.26485000 -1517.48500000
v 1117.64550000 -6569.06485000 -1778.19500000
v 1104.07550000 -6554.76485000 -1840.61500000
v 1090.12550000 -6509.96485000 -1833.88500000
v 1116.95550000 -6539.06485000 -1884.54500000
v 1128.75550000 -6532.86485000 -1315.06500000
v 1113.11550000 -6255.06485000 -1441.98500000
v 1151.73550000 -6235.46485000 -1602.63500000
v 1143.48550000 -6444.26485000 -1856.48500000
v 1153.60550000 -6568.46485000 -1870.29500000
v 1133.23550000 -6513.86485000 -1907.45500000
v 1164.16550000 -6493.66485000 -1279.36500000
v 1140.65550000 -6309.06485000 -1350.43500000
v 1160.96550000 -6191.86485000 -1416.91500000
v 1308.04550000 -6574.96485000 -1435.04500000
v 1154.06550000 -6194.46485000 -1530.95500000
v 1155.71550000 -6313.56485000 -1710.88500000
v 1150.60550000 -6554.96485000 -1927.01500000
v 1159.04550000 -6538.56485000 -1969.87500000
v 1193.66550000 -6415.26485000 -1259.90500000
v 1180.47550000 -6555.56485000 -1334.66500000
v 1169.75550000 -6224.36485000 -1365.64500000
v 1168.29550000 -6167.56485000 -1474.87500000
v 1344.07550000 -6578.26485000 -1904.44500000
v 1202.16550000 -6309.26485000 -1779.18500000
v 1215.25550000 -6568.56485000 -1964.94500000
v 1186.65550000 -6477.06485000 -1995.59500000
v 1162.12550000 -6504.86485000 -1958.80500000
v 1230.32550000 -6467.26485000 -1236.70500000
v 1198.08550000 -6308.76485000 -1291.65500000
v 1182.89550000 -6531.86485000 -1288.87500000
v 1210.85550000 -6210.46485000 -1321.93500000
v 1208.23550000 -6154.66485000 -1363.33500000
v 1211.49550000 -6107.86485000 -1433.21500000
v 1210.68550000 -6109.06485000 -1495.28500000
v 1211.71550000 -6182.06485000 -1636.99500000
v 1243.89550000 -6205.06485000 -1717.17500000
v 1234.60550000 -6358.66485000 -1920.85500000
v 1255.40550000 -6429.36485000 -2088.69500000
v 1190.51550000 -6529.26485000 -2036.43500000
v 1202.92550000 -6556.16485000 -2032.26500000
v 1251.36550000 -6306.16485000 -1246.11500000
v 1228.10550000 -6511.86485000 -1254.09500000
v 1299.11550000 -6544.36485000 -1277.76500000
v 1203.50550000 -6136.86485000 -1395.11500000
v 1219.47550000 -6125.46485000 -1564.48500000
v 1241.10550000 -6571.76485000 -2055.00500000
v 1225.98550000 -6510.96485000 -2112.77500000
v 1239.66550000 -6548.46485000 -2136.43500000
v 1253.00550000 -6537.86485000 -2184.41500000
v 1260.55550000 -6396.26485000 -1224.47500000
v 1335.58550000 -6564.06485000 -1333.09500000
v 1236.10550000 -6096.26485000 -1377.61500000
v 1258.91550000 -6045.26485000 -1463.49500000
v 1255.11550000 -6062.26485000 -1519.72500000
v 1566.32550000 -6579.86485000 -1630.52500000
v 1269.01550000 -6247.86485000 -1819.63500000
v 1273.13550000 -6574.76485000 -2021.11500000
v 1255.27550000 -6564.26485000 -2124.11500000
v 1260.70550000 -6478.56485000 -2170.98500000
v 1268.68550000 -6514.26485000 -2220.52500000
v 1284.72550000 -6481.56485000 -1223.57500000
v 1335.64550000 -6504.66485000 -1237.53500000
v 1263.35550000 -6202.56485000 -1275.79500000
v 1262.00550000 -6117.86485000 -1324.89500000
v 1275.20550000 -6051.36485000 -1371.27500000
v 1253.24550000 -6062.06485000 -1412.86500000
v 1291.93550000 -6096.36485000 -1654.38500000
v 1329.98550000 -6303.26485000 -2040.96500000
v 1306.31550000 -6449.66485000 -2251.65500000
v 1280.70550000 -6551.56485000 -2238.20500000
v 1282.20550000 -6537.36485000 -2251.46500000
v 1297.98550000 -6432.96485000 -1211.13500000
v 1304.15550000 -6373.06485000 -1205.45500000
v 1299.84550000 -6227.36485000 -1238.71500000
v 1303.18550000 -6304.76485000 -1219.10500000
v 1283.34550000 -6030.36485000 -1414.79500000
v 1292.26550000 -6021.66485000 -1515.15500000
v 1296.25550000 -6045.06485000 -1575.92500000
v 1316.05550000 -6152.16485000 -1771.80500000
v 1334.33550000 -6221.26485000 -1908.54500000
v 1306.75550000 -6573.96485000 -2128.53500000
v 1283.23550000 -6488.06485000 -2236.89500000
v 1290.42550000 -6562.36485000 -2202.72500000
v 1305.42550000 -6496.16485000 -2304.15500000
v 1305.46550000 -6525.56485000 -2315.00500000
v 1312.40550000 -6547.96485000 -2316.98500000
v 1310.77550000 -6058.86485000 -1321.51500000
v 1326.05550000 -6022.46485000 -1368.85500000
v 1326.50550000 -6002.16485000 -1466.90500000
v 1340.43550000 -6357.76485000 -2173.79500000
v 1323.15550000 -6561.96485000 -2298.26500000
v 1356.28550000 -6370.96485000 -1196.74500000
v 1343.91550000 -6307.76485000 -1203.50500000
v 1426.05550000 -6528.06485000 -1257.67500000
v 1333.86550000 -6126.36485000 -1264.74500000
v 1351.72550000 -5986.56485000 -1554.04500000
v 1358.11550000 -6005.96485000 -1632.62500000
v 1338.83550000 -6571.06485000 -2260.68500000
v 1384.75550000 -6390.36485000 -2373.41500000
v 1345.06550000 -6474.56485000 -2397.74500000
v 1334.76550000 -6516.46485000 -2399.07500000
v 1330.96550000 -6540.06485000 -2376.54500000
v 1354.76550000 -6557.36485000 -2410.36500000
v 1354.85550000 -6223.86485000 -1219.17500000
v 1374.55550000 -6446.86485000 -1214.71500000
v 1455.54550000 -6555.36485000 -1296.04500000
v 1395.39550000 -6559.86485000 -1308.78500000
v 1375.12550000 -6050.26485000 -1296.92500000
v 1403.85550000 -5986.46485000 -1409.60500000
v 1400.61550000 -5967.26485000 -1478.96500000
v 1369.48550000 -5975.76485000 -1512.01500000
v 1355.07550000 -6064.36485000 -1719.25500000
v 1374.68550000 -6112.06485000 -1824.59500000
v 1386.08550000 -6166.76485000 -1928.23500000
v 1382.88550000 -6203.36485000 -1983.72500000
v 1414.26550000 -6246.76485000 -2163.43500000
v 1363.14550000 -6568.86485000 -2351.57500000
v 1357.34550000 -6539.06485000 -2456.24500000
v 1362.90550000 -6514.86485000 -2488.50500000
v 1400.39550000 -6286.56485000 -1199.77500000
v 1403.64550000 -6130.96485000 -1228.13500000
v 1411.91550000 -6080.36485000 -1255.50500000
v 1443.36550000 -6010.16485000 -1339.42500000
v 1401.79550000 -5954.96485000 -1542.40500000
v 1413.65550000 -5945.66485000 -1624.21500000
v 1469.09550000 -6577.56485000 -2357.43500000
v 1410.30550000 -6570.06485000 -2469.65500000
v 1393.97550000 -6554.86485000 -2545.31500000
v 1382.15550000 -6480.66485000 -2526.24500000
v 1380.87550000 -6535.16485000 -2549.28500000
v 1387.72550000 -6517.46485000 -2578.35500000
v 1408.43550000 -6535.06485000 -2636.90500000
v 1412.65550000 -6335.66485000 -1195.84500000
v 1427.14550000 -6490.66485000 -1235.49500000
v 1460.33550000 -6568.66485000 -1354.12500000
v 1556.59550000 -6575.86485000 -1452.60500000
v 1418.12550000 -6017.36485000 -1780.28500000
v 1702.43550000 -6580.76485000 -2133.98500000
v 1422.60550000 -6428.76485000 -2584.31500000
v 1412.73550000 -6492.46485000 -2633.56500000
v 1433.48550000 -6557.06485000 -2673.71500000
v 1438.64550000 -6544.86485000 -2720.26500000
v 1413.65550000 -6196.06485000 -1211.70500000
v 1440.33550000 -6380.16485000 -1205.09500000
v 1450.84550000 -6143.26485000 -1216.49500000
v 1493.00550000 -6444.66485000 -1229.14500000
v 1471.71550000 -6041.06485000 -1281.70500000
v 1498.38550000 -5973.36485000 -1394.79500000
v 1478.50550000 -5948.76485000 -1463.75500000
v 1450.46550000 -5934.56485000 -1528.46500000
v 1439.65550000 -5927.46485000 -1581.63500000
v 1420.75550000 -6131.76485000 -1967.89500000
v 1459.68550000 -6269.76485000 -2366.50500000
v 1470.29550000 -6312.36485000 -2510.85500000
v 1445.68550000 -6568.96485000 -2616.29500000
v 1448.30550000 -6457.56485000 -2704.36500000
v 1437.26550000 -6514.56485000 -2713.67500000
v 1459.64550000 -6556.46485000 -2750.77500000
v 1447.81550000 -6202.76485000 -1207.47500000
v 1480.02550000 -6257.16485000 -1208.61500000
v 1481.57550000 -6084.76485000 -1242.17500000
v 1467.88550000 -5903.26485000 -1639.87500000
v 1479.05550000 -5911.76485000 -1754.19500000
v 1476.68550000 -5959.96485000 -1850.66500000
v 1491.61550000 -6006.56485000 -1968.85500000
v 1458.44550000 -6574.36485000 -2544.07500000
v 1481.00550000 -6361.86485000 -2651.50500000
v 1479.15550000 -6566.96485000 -2737.82500000
v 1465.46550000 -6500.66485000 -2781.06500000
v 1464.42550000 -6539.56485000 -2771.35500000
v 1492.60550000 -6141.46485000 -1222.79500000
v 1491.79550000 -6498.36485000 -1251.45500000
v 1554.12550000 -5987.36485000 -1356.66500000
v 1474.69550000 -5911.26485000 -1580.40500000
v 1499.64550000 -5915.06485000 -1848.59500000
v 1487.91550000 -6110.76485000 -2126.32500000
v 1526.66550000 -6245.26485000 -2579.72500000
v 1501.23550000 -6399.46485000 -2757.52500000
v 1508.10550000 -6475.86485000 -2843.34500000
v 1502.65550000 -6554.46485000 -2822.12500000
v 1505.55550000 -6520.36485000 -2845.57500000
v 1547.76550000 -6354.86485000 -1228.70500000
v 1539.20550000 -6527.86485000 -1287.55500000
v 1509.96550000 -5910.86485000 -1544.40500000
v 1509.68550000 -5887.06485000 -1624.18500000
v 1503.87550000 -5883.26485000 -1694.04500000
v 1533.04550000 -5865.46485000 -1782.28500000
v 1535.24550000 -5884.36485000 -1886.15500000
v 1514.30550000 -5929.86485000 -1913.79500000
v 1500.46550000 -6163.66485000 -2271.26500000
v 1520.06550000 -6198.16485000 -2439.84500000
v 1525.57550000 -6575.66485000 -2698.61500000
v 1548.68550000 -6250.76485000 -2671.40500000
v 1544.60550000 -6380.86485000 -2823.43500000
v 1549.85550000 -6534.66485000 -2912.68500000
v 1538.56550000 -6090.26485000 -1239.88500000
v 1597.16550000 -6569.86485000 -1391.68500000
v 1593.52550000 -5921.76485000 -1486.31500000
v 1578.62550000 -5876.86485000 -1612.46500000
v 1548.84550000 -5863.06485000 -1708.64500000
v 1539.85550000 -6018.66485000 -2132.96500000
v 1523.50550000 -6094.76485000 -2212.52500000
v 1572.54550000 -6273.66485000 -2761.39500000
v 1535.61550000 -6567.06485000 -2830.61500000
v 1580.69550000 -6424.56485000 -2910.45500000
v 1547.87550000 -6493.36485000 -2899.94500000
v 1564.72550000 -6556.36485000 -2911.15500000
v 1546.51550000 -6173.96485000 -1230.98500000
v 1580.44550000 -6273.06485000 -1237.42500000
v 1567.90550000 -6041.16485000 -1287.33500000
v 1586.59550000 -6468.56485000 -1265.66500000
v 1558.35550000 -6555.06485000 -1338.91500000
v 1588.33550000 -5837.86485000 -1832.31500000
v 1575.65550000 -5851.26485000 -1915.51500000
v 1551.86550000 -5926.36485000 -2020.76500000
v 1576.28550000 -5871.96485000 -1989.25500000
v 1557.25550000 -6068.56485000 -2312.95500000
v 1672.02550000 -6579.86485000 -2634.10500000
v 1592.61550000 -6566.86485000 -2926.60500000
v 1603.15550000 -6410.76485000 -1253.61500000
v 1634.45550000 -6498.86485000 -1302.18500000
v 1643.80550000 -5988.36485000 -1354.51500000
v 1614.24550000 -5846.16485000 -1722.40500000
v 1603.21550000 -5849.56485000 -2023.23500000
v 1584.33550000 -5956.26485000 -2193.67500000
v 1576.96550000 -6125.76485000 -2530.03500000
v 1612.64550000 -6128.26485000 -2670.62500000
v 1608.64550000 -6572.26485000 -2848.98500000
v 1618.63550000 -6284.86485000 -2852.26500000
v 1607.26550000 -6496.86485000 -2973.08500000
v 1606.38550000 -6544.56485000 -2967.00500000
v 1601.62550000 -6105.46485000 -1269.45500000
v 1659.04550000 -6214.16485000 -1273.79500000
v 1641.68550000 -5881.26485000 -1577.94500000
v 1643.88550000 -5829.86485000 -1799.08500000
v 1632.50550000 -5827.96485000 -2007.51500000
v 1604.24550000 -5883.06485000 -2109.38500000
v 1625.07550000 -5910.26485000 -2259.67500000
v 1607.54550000 -5996.26485000 -2383.31500000
v 1644.06550000 -6141.16485000 -2761.58500000
v 1660.49550000 -6331.36485000 -2940.52500000
v 1639.11550000 -6420.46485000 -2969.97500000
v 1603.61550000 -6559.36485000 -2951.08500000
v 1681.62550000 -6344.96485000 -1276.71500000
v 1674.21550000 -6094.56485000 -1304.74500000
v 1636.43550000 -6019.36485000 -1317.72500000
v 1643.95550000 -6532.16485000 -1342.31500000
v 1677.34550000 -5948.36485000 -1426.53500000
v 1656.69550000 -5821.96485000 -1889.51500000
v 1637.18550000 -5845.36485000 -2114.02500000
v 1639.62550000 -6002.46485000 -2541.67500000
v 1670.47550000 -6167.76485000 -2834.15500000
v 1698.58550000 -6212.66485000 -2901.13500000
v 1641.17550000 -6557.46485000 -2970.42500000
v 1673.68550000 -6441.36485000 -3008.08500000
v 1664.31550000 -6496.36485000 -3021.60500000
v 1647.96550000 -6528.26485000 -3000.80500000
v 1644.55550000 -6417.56485000 -1272.79500000
v 1633.42550000 -6051.86485000 -1304.12500000
v 1672.29550000 -6555.66485000 -1394.58500000
v 1694.45550000 -6569.06485000 -1460.93500000
v 1651.39550000 -6575.86485000 -1528.37500000
v 1673.26550000 -5862.86485000 -1636.25500000
v 1706.51550000 -5842.56485000 -1722.27500000
v 1710.85550000 -5808.96485000 -2000.53500000
v 1698.25550000 -5809.06485000 -2105.62500000
v 1682.29550000 -5823.26485000 -2192.01500000
v 1656.31550000 -5862.36485000 -2258.01500000
v 1653.47550000 -5920.16485000 -2417.43500000
v 1676.45550000 -5923.36485000 -2538.59500000
v 1689.06550000 -6571.36485000 -2874.29500000
v 1699.63550000 -6430.76485000 -1303.45500000
v 1696.29550000 -6019.56485000 -1347.71500000
v 1711.96550000 -6493.86485000 -1346.60500000
v 1750.64550000 -5963.46485000 -1412.56500000
v 1708.29550000 -5887.56485000 -1560.80500000
v 1730.41550000 -5824.56485000 -1835.41500000
v 1724.07550000 -5802.76485000 -2201.06500000
v 1690.40550000 -5868.16485000 -2451.31500000
v 1681.68550000 -5896.46485000 -2496.70500000
v 1679.92550000 -5991.26485000 -2655.69500000
v 1723.03550000 -6029.56485000 -2785.42500000
v 1692.02550000 -6358.16485000 -2981.99500000
v 1684.43550000 -6538.26485000 -3016.28500000
v 1711.08550000 -6468.56485000 -3033.71500000
v 1686.81550000 -6510.36485000 -3023.81500000
v 1759.82550000 -6263.16485000 -1306.72500000
v 1741.53550000 -6213.96485000 -1306.25500000
v 1741.81550000 -6140.06485000 -1323.98500000
v 1718.02550000 -5987.56485000 -1379.63500000
v 1720.17550000 -5915.16485000 -1497.67500000
v 1722.11550000 -5816.76485000 -1917.38500000
v 1710.04550000 -5836.96485000 -2400.55500000
v 1733.59550000 -5850.06485000 -2557.10500000
v 1699.41550000 -5901.26485000 -2559.70500000
v 1727.97550000 -6116.16485000 -2864.67500000
v 1731.06550000 -6260.56485000 -2960.39500000
v 1749.94550000 -6342.46485000 -3005.06500000
v 1740.24550000 -6548.76485000 -2977.48500000
v 1735.52550000 -6066.06485000 -1344.46500000
v 1752.67550000 -6528.96485000 -1412.95500000
v 1730.63550000 -6554.46485000 -1443.93500000
v 1772.65550000 -5813.26485000 -1940.15500000
v 1764.20550000 -5792.86485000 -2172.23500000
v 1765.16550000 -5793.56485000 -2302.21500000
v 1738.82550000 -5811.66485000 -2353.22500000
v 1739.49550000 -5897.86485000 -2657.86500000
v 1732.97550000 -5952.86485000 -2716.68500000
v 1759.31550000 -6053.46485000 -2854.38500000
v 1731.99550000 -6510.16485000 -3023.23500000
v 1760.42550000 -6369.96485000 -1315.28500000
v 1778.72550000 -6036.06485000 -1372.12500000
v 1777.10550000 -6488.26485000 -1384.76500000
v 1788.42550000 -5932.66485000 -1476.33500000
v 1798.99550000 -5900.56485000 -1551.37500000
v 1809.05550000 -5802.56485000 -2065.47500000
v 1765.40550000 -5818.26485000 -2515.44500000
v 1773.53550000 -5916.86485000 -2745.55500000
v 1776.63550000 -6104.46485000 -2903.26500000
v 1804.99550000 -6569.46485000 -2783.71500000
v 1803.52550000 -6332.96485000 -3017.82500000
v 1772.69550000 -6417.96485000 -3027.21500000
v 1754.56550000 -6469.76485000 -3028.84500000
v 1777.85550000 -6522.56485000 -3008.61500000
v 1823.20550000 -6173.56485000 -1349.05500000
v 1800.91550000 -6396.36485000 -1348.94500000
v 1767.12550000 -6453.96485000 -1358.59500000
v 1807.67550000 -6097.06485000 -1361.54500000
v 1821.11550000 -6000.96485000 -1405.02500000
v 1735.75550000 -6573.36485000 -1581.20500000
v 1759.10550000 -5867.06485000 -1641.93500000
v 1796.93550000 -5844.86485000 -1749.01500000
v 1833.78550000 -5827.16485000 -1885.55500000
v 1796.87550000 -5793.86485000 -2459.64500000
v 1795.11550000 -5845.26485000 -2667.85500000
v 1795.14550000 -5981.36485000 -2831.47500000
v 1794.77550000 -6538.06485000 -2984.38500000
v 1882.01550000 -5963.66485000 -1469.56500000
v 1784.03550000 -6551.16485000 -1512.65500000
v 1778.82550000 -6576.06485000 -1809.74500000
v 1836.74550000 -5790.26485000 -2191.09500000
v 1798.50550000 -5786.76485000 -2342.54500000
v 1811.03550000 -5807.46485000 -2593.74500000
v 1800.50550000 -6194.46485000 -2967.59500000
v 1832.05550000 -6236.86485000 -2993.23500000
v 1808.62550000 -6461.16485000 -3012.59500000
v 1821.63550000 -6311.46485000 -1344.40500000
v 1846.91550000 -6445.26485000 -1419.70500000
v 1808.91550000 -6493.56485000 -1424.27500000
v 1830.97550000 -5783.56485000 -2318.36500000
v 1836.92550000 -5783.46485000 -2466.58500000
v 1839.88550000 -5794.76485000 -2591.16500000
v 1837.33550000 -5814.76485000 -2664.71500000
v 1824.75550000 -5891.56485000 -2778.60500000
v 1854.36550000 -5841.86485000 -2734.60500000
v 1825.71550000 -6578.46485000 -2464.17500000
v 1844.29550000 -5928.66485000 -2834.62500000
v 1837.54550000 -6006.76485000 -2882.84500000
v 1846.02550000 -6091.06485000 -2934.85500000
v 1830.95550000 -6543.56485000 -2926.28500000
v 1824.28550000 -6513.96485000 -2979.39500000
v 1821.08550000 -6371.06485000 -3015.59500000
v 1825.31550000 -6246.66485000 -1342.00500000
v 1862.23550000 -6107.16485000 -1378.23500000
v 1854.98550000 -6061.26485000 -1390.38500000
v 1839.46550000 -6502.36485000 -1480.89500000
v 1831.48550000 -6563.46485000 -1683.13500000
v 1866.60550000 -5881.16485000 -1660.97500000
v 1855.07550000 -6154.16485000 -2967.40500000
v 1852.11550000 -6294.16485000 -3003.02500000
v 1910.72550000 -6034.86485000 -1420.95500000
v 1930.21550000 -6000.66485000 -1450.40500000
v 1876.58550000 -5921.66485000 -1554.33500000
v 1862.37550000 -6534.96485000 -1594.48500000
v 1913.43550000 -5856.96485000 -1827.16500000
v 1830.37550000 -6577.36485000 -2004.77500000
v 1847.91550000 -5814.86485000 -1990.01500000
v 1889.17550000 -5807.96485000 -2107.52500000
v 1880.68550000 -5789.56485000 -2282.58500000
v 1875.20550000 -5783.46485000 -2444.01500000
v 1880.20550000 -5791.86485000 -2573.25500000
v 1885.19550000 -5815.66485000 -2673.16500000
v 1896.48550000 -6571.46485000 -2631.35500000
v 1869.49550000 -5882.36485000 -2801.11500000
v 1888.62550000 -6556.76485000 -2783.16500000
v 1876.31550000 -5941.16485000 -2855.49500000
v 1888.21550000 -6018.06485000 -2904.86500000
v 1896.99550000 -6097.66485000 -2944.98500000
v 1860.37550000 -6480.86485000 -2979.87500000
v 1880.08550000 -6513.86485000 -2931.45500000
v 1889.44550000 -6202.06485000 -2976.06500000
v 1865.44550000 -6358.16485000 -3000.86500000
v 1897.11550000 -6197.96485000 -1385.71500000
v 1889.82550000 -6347.86485000 -1408.78500000
v 1894.80550000 -6549.16485000 -1721.75500000
v 1892.11550000 -5829.46485000 -1964.07500000
v 1868.24550000 -6576.46485000 -2184.59500000
v 1906.73550000 -5857.36485000 -2767.08500000
v 1901.19550000 -5900.66485000 -2824.18500000
v 1917.58550000 -5955.36485000 -2867.34500000
v 1899.28550000 -6535.96485000 -2851.71500000
v 1882.54550000 -6415.96485000 -2982.19500000
v 1887.63550000 -6104.76485000 -1393.74500000
v 1912.91550000 -6269.26485000 -1405.15500000
v 1906.28550000 -6446.06485000 -1496.04500000
v 1932.60550000 -6467.86485000 -1582.81500000
v 1929.68550000 -5912.66485000 -1616.20500000
v 1934.48550000 -6509.06485000 -1681.58500000
v 1904.61550000 -6560.86485000 -1936.58500000
v 1928.82550000 -5806.26485000 -2219.73500000
v 1927.59550000 -5797.46485000 -2367.53500000
v 1929.59550000 -5799.76485000 -2505.09500000
v 1939.96550000 -5814.96485000 -2606.96500000
v 1941.06550000 -6557.96485000 -2675.80500000
v 1944.74550000 -5913.76485000 -2825.51500000
v 1948.67550000 -6033.36485000 -2905.64500000
v 1904.48550000 -6455.46485000 -2947.90500000
v 1893.59550000 -6285.26485000 -2987.58500000
v 1915.05550000 -6324.06485000 -2975.34500000
v 1970.83550000 -6025.96485000 -1454.41500000
v 1935.68550000 -6376.56485000 -1476.76500000
v 1985.96550000 -5910.56485000 -1707.69500000
v 1951.62550000 -6533.36485000 -1848.22500000
v 2000.92550000 -6477.76485000 -1798.00500000
v 1946.71550000 -6546.56485000 -1921.71500000
v 1920.36550000 -6572.66485000 -2402.27500000
v 1950.84550000 -5845.36485000 -2700.11500000
v 1949.63550000 -6538.26485000 -2744.58500000
v 1983.11550000 -5898.16485000 -2775.43500000
v 1926.56550000 -6483.46485000 -2903.40500000
v 1932.28550000 -6509.36485000 -2849.16500000
v 1943.56550000 -6129.56485000 -2941.14500000
v 1937.00550000 -6367.76485000 -2946.81500000
v 1934.15550000 -6225.46485000 -2959.63500000
v 1977.24550000 -6184.76485000 -1447.93500000
v 1972.73550000 -6284.86485000 -1473.31500000
v 1991.64550000 -5986.76485000 -1509.94500000
v 1980.99550000 -5951.56485000 -1588.66500000
v 1973.75550000 -6395.66485000 -1552.82500000
v 2011.88550000 -6434.36485000 -1707.87500000
v 1972.88550000 -6537.76485000 -1988.70500000
v 1954.95550000 -5839.96485000 -2030.46500000
v 1949.54550000 -6563.56485000 -2221.65500000
v 2010.44550000 -5842.86485000 -2211.25500000
v 1992.81550000 -5826.06485000 -2401.49500000
v 1986.84550000 -5827.66485000 -2515.56500000
v 1959.64550000 -6562.56485000 -2523.93500000
v 1984.33550000 -5979.86485000 -2863.01500000
v 1958.91550000 -6478.16485000 -2852.01500000
v 1970.19550000 -6393.26485000 -2892.47500000
v 1960.58550000 -6096.46485000 -1441.13500000
v 1997.43550000 -6012.46485000 -1488.36500000
v 1998.41550000 -5880.86485000 -1873.34500000
v 1972.30550000 -6548.36485000 -2109.22500000
v 1973.99550000 -6559.56485000 -2375.48500000
v 2023.24550000 -5868.46485000 -2612.08500000
v 1974.43550000 -6549.26485000 -2604.56500000
v 2026.60550000 -5900.16485000 -2713.54500000
v 1983.27550000 -6498.16485000 -2761.26500000
v 2019.75550000 -5956.06485000 -2821.60500000
v 1977.13550000 -6327.56485000 -2917.21500000
v 1994.02550000 -6084.06485000 -2907.84500000
v 1995.78550000 -6157.26485000 -2915.29500000
v 1978.50550000 -6262.66485000 -2923.25500000
v 2044.99550000 -6119.76485000 -1512.34500000
v 2024.50550000 -6049.56485000 -1503.43500000
v 1995.12550000 -6336.46485000 -1532.68500000
v 2012.48550000 -6398.76485000 -1639.64500000
v 2031.55550000 -6481.06485000 -1964.47500000
v 2009.64550000 -6521.86485000 -2096.67500000
v 2014.13550000 -6526.06485000 -2246.12500000
v 2003.27550000 -6536.36485000 -2477.36500000
v 1997.12550000 -6521.26485000 -2633.82500000
v 2005.74550000 -6412.16485000 -2815.60500000
v 2019.87550000 -6035.86485000 -2876.28500000
v 2032.10550000 -6258.86485000 -2869.85500000
v 2025.36550000 -6206.36485000 -1507.08500000
v 2056.16550000 -6013.86485000 -1554.71500000
v 2038.99550000 -6342.16485000 -1615.64500000
v 2093.65550000 -5935.46485000 -1823.19500000
v 2086.78550000 -5909.66485000 -1985.37500000
v 2102.66550000 -5892.16485000 -2310.83500000
v 2109.81550000 -5898.86485000 -2188.28500000
v 2062.50550000 -5876.66485000 -2467.87500000
v 2032.53550000 -6475.66485000 -2659.76500000
v 2039.03550000 -6414.76485000 -2738.24500000
v 2079.48550000 -5958.26485000 -2754.78500000
v 2039.01550000 -5997.56485000 -2844.97500000
v 2046.39550000 -6304.66485000 -2828.24500000
v 2045.23550000 -6085.46485000 -2872.99500000
v 2057.60550000 -6149.66485000 -2862.03500000
v 2046.08550000 -6267.66485000 -1567.72500000
v 2060.87550000 -5989.26485000 -1598.02500000
v 2093.51550000 -5969.26485000 -1711.42500000
v 2061.93550000 -6423.46485000 -1857.88500000
v 2132.44550000 -5921.96485000 -2098.68500000
v 2051.52550000 -6480.36485000 -2116.89500000
v 2072.44550000 -6464.66485000 -2340.06500000
v 2063.66550000 -6459.26485000 -2535.70500000
v 2073.23550000 -6405.06485000 -2671.72500000
v 2093.55550000 -6349.76485000 -2701.93500000
v 2070.18550000 -6336.96485000 -2759.59500000
v 2080.86550000 -6177.46485000 -1573.25500000
v 2090.00550000 -6288.36485000 -1658.22500000
v 2079.92550000 -6351.66485000 -1743.13500000
v 2095.63550000 -6413.96485000 -1978.29500000
v 2083.12550000 -6440.46485000 -2070.30500000
v 2072.13550000 -6458.76485000 -2170.81500000
v 2088.66550000 -6408.86485000 -2611.84500000
v 2114.36550000 -5944.66485000 -2653.75500000
v 2070.90550000 -5990.86485000 -2811.48500000
v 2116.87550000 -6199.76485000 -2779.90500000
v 2106.53550000 -6271.46485000 -2750.20500000
v 2106.55550000 -6156.36485000 -2808.36500000
v 2069.51550000 -6029.26485000 -2836.54500000
v 2091.71550000 -6052.56485000 -1580.18500000
v 2110.92550000 -6104.06485000 -1600.24500000
v 2117.74550000 -6213.96485000 -1652.99500000
v 2151.83550000 -5973.96485000 -1808.41500000
v 2130.83550000 -5918.46485000 -2433.60500000
v 2131.06550000 -5930.56485000 -2521.56500000
v 2124.71550000 -6392.46485000 -2350.52500000
v 2141.40550000 -6309.46485000 -2630.07500000
v 2088.29550000 -6071.46485000 -2831.33500000
v 2132.44550000 -6138.36485000 -1640.73500000
v 2124.08550000 -6016.56485000 -1661.60500000
v 2122.03550000 -6274.76485000 -1727.51500000
v 2118.42550000 -6361.46485000 -1907.40500000
v 2171.09550000 -5974.16485000 -1877.67500000
v 2114.77550000 -6394.36485000 -2110.95500000
v 2124.66550000 -6371.06485000 -2525.40500000
v 2114.80550000 -6298.26485000 -2707.77500000
v 2119.50550000 -6026.86485000 -2775.61500000
v 2124.59550000 -6088.86485000 -2789.48500000
v 2137.75550000 -6056.86485000 -1648.30500000
v 2162.59550000 -6088.36485000 -1684.15500000
v 2146.18550000 -6285.16485000 -1828.85500000
v 2190.08550000 -5954.96485000 -2201.51500000
v 2177.81550000 -6300.36485000 -2379.53500000
v 2169.34550000 -6007.46485000 -2682.39500000
v 2156.56550000 -6213.56485000 -2697.96500000
v 2165.64550000 -6110.26485000 -2739.54500000
v 2160.47550000 -6147.16485000 -1700.00500000
v 2170.09550000 -6196.16485000 -1775.08500000
v 2173.15550000 -6290.26485000 -2015.19500000
v 2160.97550000 -6325.46485000 -2199.32500000
v 2191.58550000 -5970.96485000 -2018.93500000
v 2183.67550000 -5957.56485000 -2414.59500000
v 2163.54550000 -6302.96485000 -2520.31500000
v 2181.56550000 -5979.16485000 -2560.35500000
v 2164.56550000 -6155.56485000 -2723.67500000
v 2159.20550000 -6057.26485000 -2733.40500000
v 2180.34550000 -6050.06485000 -1728.29500000
v 2169.64550000 -6007.36485000 -1778.40500000
v 2211.93550000 -6149.36485000 -1836.08500000
v 2206.43550000 -6189.16485000 -1914.08500000
v 2212.21550000 -6208.06485000 -2502.45500000
v 2218.67550000 -6219.76485000 -2348.95500000
v 2202.50550000 -6173.06485000 -2620.52500000
v 2199.34550000 -6105.06485000 -1779.43500000
v 2214.99550000 -6051.36485000 -1816.24500000
v 2225.96550000 -6188.96485000 -2034.64500000
v 2213.95550000 -6223.36485000 -2211.01500000
v 2228.44550000 -6001.76485000 -2482.08500000
v 2190.90550000 -6130.16485000 -2683.77500000
v 2194.52550000 -6068.86485000 -2677.98500000
v 2229.36550000 -6077.96485000 -1845.17500000
v 2233.52550000 -6104.06485000 -1883.48500000
v 2219.17550000 -6016.26485000 -1908.26500000
v 2241.55550000 -6008.96485000 -2028.36500000
v 2247.15550000 -6123.46485000 -1999.82500000
v 2232.70550000 -5993.46485000 -2142.03500000
v 2236.22550000 -6000.56485000 -2320.54500000
v 2236.22550000 -6128.66485000 -2563.02500000
v 2252.13550000 -6120.46485000 -2477.51500000
v 2219.53550000 -6034.96485000 -2582.79500000
v 2217.12550000 -6101.66485000 -2613.16500000
v 2238.06550000 -6060.46485000 -1894.84500000
v 2253.87550000 -6078.36485000 -1973.74500000
v 2254.82550000 -6042.16485000 -2022.54500000
v 2247.98550000 -6144.96485000 -2144.69500000
v 2253.79550000 -6020.76485000 -2173.22500000
v 2244.11550000 -6150.66485000 -2312.20500000
v 2249.79550000 -6034.16485000 -2454.62500000
v 2242.46550000 -6082.66485000 -2513.70500000
v 2258.54550000 -6092.06485000 -2138.77500000
v 2264.79550000 -6049.96485000 -2224.11500000
v 2256.64550000 -6034.96485000 -2312.55500000
v 2252.21550000 -6079.06485000 -2348.00500000
f 1 2 3
f 4 2 1
f 5 1 3
f 4 1 6
f 1 5 7
f 6 1 7
f 8 6 7
f 9 5 10
f 7 5 9
f 11 7 9
f 8 7 12
f 12 7 11
f 13 14 15
f 16 13 15
f 3 14 17
f 15 14 3
f 2 16 15
f 4 16 2
f 2 15 3
f 3 17 5
f 5 17 18
f 19 4 6
f 19 6 8
f 5 18 10
f 8 20 19
f 21 10 18
f 9 10 11
f 12 22 8
f 23 11 10
f 24 11 23
f 11 24 12
f 12 24 25
f 22 12 25
f 26 27 28
f 29 26 28
f 29 30 26
f 13 27 26
f 13 16 27
f 31 27 16
f 14 26 30
f 13 26 14
f 32 17 30
f 30 17 14
f 16 4 31
f 19 31 4
f 18 17 32
f 18 33 21
f 8 22 20
f 22 34 20
f 10 21 23
f 34 22 35
f 25 35 22
f 24 23 36
f 24 37 25
f 36 37 24
f 35 25 37
f 38 28 27
f 29 39 30
f 40 30 39
f 31 38 27
f 41 38 31
f 30 40 32
f 42 31 19
f 42 19 43
f 18 44 33
f 45 43 19
f 45 19 20
f 21 33 46
f 45 20 34
f 21 47 23
f 48 34 35
f 36 47 49
f 36 23 47
f 48 35 50
f 49 51 36
f 37 36 51
f 37 50 35
f 51 50 37
f 52 53 28
f 39 54 55
f 28 53 54
f 52 28 38
f 56 52 38
f 54 39 29
f 28 54 29
f 41 56 38
f 41 31 57
f 31 42 57
f 18 32 58
f 44 18 58
f 59 43 45
f 60 21 46
f 61 45 34
f 61 34 62
f 47 21 63
f 62 34 48
f 47 64 49
f 49 64 51
f 64 65 51
f 66 51 65
f 50 51 66
f 53 67 55
f 53 55 54
f 55 68 39
f 69 56 41
f 39 68 40
f 57 69 41
f 40 68 70
f 32 40 71
f 72 57 42
f 73 72 42
f 73 43 59
f 42 43 73
f 33 44 46
f 74 45 61
f 60 63 21
f 75 62 48
f 64 47 76
f 50 77 48
f 77 75 48
f 78 77 50
f 66 78 50
f 67 53 79
f 53 80 79
f 52 80 53
f 52 81 80
f 68 55 82
f 82 55 67
f 56 81 52
f 69 81 56
f 83 69 57
f 83 57 72
f 71 58 32
f 73 59 84
f 85 84 59
f 59 45 85
f 85 45 74
f 61 62 74
f 76 47 63
f 64 76 86
f 64 86 65
f 78 87 77
f 65 88 66
f 88 65 86
f 67 79 89
f 79 90 89
f 67 89 82
f 81 69 91
f 83 91 69
f 83 72 92
f 40 70 71
f 93 92 72
f 93 72 73
f 73 84 93
f 94 44 58
f 46 44 95
f 60 46 95
f 96 74 62
f 62 75 97
f 66 98 78
f 99 79 80
f 90 100 89
f 80 101 99
f 101 80 102
f 89 100 82
f 81 102 80
f 91 102 81
f 68 82 103
f 103 70 68
f 92 104 83
f 93 105 92
f 84 106 93
f 107 106 84
f 95 44 94
f 85 74 108
f 63 60 109
f 62 97 96
f 63 110 76
f 75 111 97
f 77 111 75
f 86 76 112
f 113 111 77
f 86 112 114
f 87 113 77
f 86 114 115
f 115 88 86
f 88 98 66
f 78 98 87
f 116 100 90
f 117 116 90
f 79 117 90
f 100 118 82
f 91 119 102
f 82 118 103
f 91 120 119
f 91 83 120
f 104 120 83
f 70 103 121
f 92 105 122
f 106 105 93
f 58 123 94
f 84 85 107
f 124 107 85
f 124 85 108
f 60 95 109
f 96 108 74
f 110 63 125
f 126 113 87
f 87 98 126
f 88 115 127
f 128 117 79
f 99 128 79
f 116 129 100
f 129 130 100
f 100 130 118
f 103 131 121
f 104 92 132
f 122 132 92
f 70 121 71
f 71 121 133
f 105 106 134
f 71 123 58
f 106 107 135
f 136 94 123
f 109 95 94
f 137 124 108
f 108 96 137
f 137 96 138
f 109 125 63
f 97 138 96
f 138 97 139
f 97 111 139
f 76 110 112
f 140 111 113
f 115 114 141
f 115 141 127
f 88 142 98
f 143 116 117
f 129 144 130
f 129 143 144
f 101 145 146
f 99 101 146
f 116 143 129
f 102 145 101
f 102 119 145
f 123 71 133
f 134 106 135
f 107 124 135
f 147 135 124
f 148 94 136
f 94 148 109
f 149 147 124
f 137 149 124
f 150 137 138
f 151 150 138
f 139 151 138
f 110 152 112
f 111 153 139
f 114 112 154
f 153 111 140
f 114 154 141
f 155 88 127
f 142 88 155
f 143 117 156
f 156 117 128
f 130 157 118
f 145 119 158
f 118 157 159
f 119 120 158
f 158 120 160
f 118 159 103
f 104 160 120
f 103 159 131
f 121 131 161
f 122 105 162
f 134 162 105
f 133 121 161
f 135 163 134
f 136 123 133
f 164 135 147
f 148 125 109
f 137 150 149
f 165 150 151
f 139 153 151
f 154 112 152
f 140 113 166
f 127 141 167
f 126 166 113
f 126 168 166
f 127 167 169
f 127 169 155
f 126 98 168
f 156 170 143
f 128 99 171
f 146 171 99
f 130 144 172
f 145 158 146
f 130 172 157
f 160 104 132
f 133 173 136
f 163 135 164
f 174 175 163
f 164 174 163
f 176 136 177
f 164 147 174
f 174 147 178
f 148 136 176
f 149 178 147
f 148 179 125
f 149 150 180
f 181 125 179
f 181 110 125
f 165 180 150
f 182 151 153
f 140 183 153
f 141 184 167
f 183 140 166
f 98 142 168
f 142 155 185
f 186 142 185
f 168 142 186
f 128 187 156
f 144 143 188
f 188 143 170
f 144 188 172
f 132 189 160
f 131 159 190
f 189 132 191
f 122 191 132
f 191 122 162
f 192 191 162
f 131 193 161
f 192 162 134
f 192 134 163
f 175 192 163
f 161 194 133
f 194 173 133
f 173 177 136
f 176 195 148
f 179 148 195
f 149 180 178
f 110 181 152
f 154 152 196
f 197 165 151
f 182 197 151
f 154 196 184
f 141 154 184
f 182 153 183
f 167 184 198
f 166 199 183
f 167 198 200
f 169 167 200
f 168 199 166
f 155 169 185
f 170 156 201
f 201 156 187
f 187 128 171
f 171 146 202
f 146 158 203
f 203 158 204
f 160 204 158
f 159 157 205
f 131 190 193
f 192 175 206
f 173 207 177
f 195 176 177
f 174 178 208
f 178 180 208
f 208 180 209
f 179 210 181
f 152 181 210
f 180 165 211
f 152 210 196
f 197 211 165
f 184 212 198
f 199 182 183
f 185 169 213
f 169 200 213
f 186 185 214
f 187 171 215
f 171 202 216
f 217 188 170
f 203 202 146
f 157 172 218
f 189 204 160
f 205 190 159
f 189 191 219
f 219 191 220
f 220 191 192
f 161 193 221
f 206 175 222
f 175 174 222
f 174 208 222
f 177 207 223
f 177 223 195
f 195 224 179
f 224 225 179
f 196 210 226
f 196 226 227
f 196 227 184
f 184 227 212
f 197 182 228
f 168 186 229
f 168 229 199
f 230 182 199
f 185 213 231
f 185 231 214
f 186 214 229
f 201 232 170
f 170 232 233
f 172 188 234
f 218 205 157
f 189 219 235
f 189 235 204
f 190 221 193
f 220 192 236
f 236 192 206
f 221 237 161
f 161 237 194
f 237 238 194
f 222 208 239
f 223 224 195
f 239 208 209
f 240 179 225
f 179 240 210
f 240 226 210
f 211 241 180
f 180 241 209
f 226 242 227
f 211 197 243
f 212 244 198
f 197 228 243
f 200 198 245
f 198 244 245
f 182 230 228
f 213 200 246
f 231 213 247
f 213 246 247
f 199 229 230
f 248 214 231
f 229 214 248
f 187 215 249
f 187 249 201
f 216 215 171
f 188 217 234
f 172 234 218
f 204 250 203
f 205 218 251
f 252 190 205
f 253 219 220
f 253 220 236
f 236 206 254
f 206 222 254
f 194 238 255
f 194 255 173
f 255 207 173
f 207 256 223
f 223 256 224
f 224 257 225
f 257 258 225
f 225 258 240
f 258 259 240
f 259 226 240
f 260 226 259
f 260 242 226
f 227 242 212
f 242 244 212
f 243 241 211
f 261 245 244
f 200 245 246
f 245 261 246
f 229 248 262
f 230 229 263
f 263 229 262
f 216 264 215
f 170 233 217
f 202 203 265
f 203 250 265
f 204 235 250
f 235 219 253
f 251 252 205
f 256 266 224
f 266 257 224
f 257 267 258
f 239 209 268
f 260 269 242
f 209 241 268
f 242 270 244
f 261 244 270
f 261 271 246
f 228 272 243
f 246 271 247
f 228 230 272
f 231 247 273
f 231 273 248
f 215 274 249
f 216 275 264
f 202 275 216
f 202 265 275
f 217 276 234
f 250 235 253
f 253 236 277
f 277 236 254
f 221 190 252
f 254 222 278
f 278 222 239
f 255 279 207
f 279 280 207
f 207 280 256
f 280 266 256
f 266 267 257
f 281 259 258
f 259 282 260
f 260 282 269
f 270 242 269
f 270 283 261
f 241 243 284
f 261 283 271
f 263 272 230
f 248 273 262
f 201 249 285
f 264 274 215
f 285 232 201
f 286 233 232
f 217 233 276
f 265 250 287
f 288 250 253
f 221 252 237
f 237 289 238
f 289 290 238
f 291 267 266
f 258 267 281
f 259 281 292
f 269 293 270
f 270 293 294
f 270 294 283
f 241 284 268
f 283 295 271
f 271 295 296
f 271 296 247
f 243 272 297
f 247 296 273
f 298 272 263
f 298 297 272
f 262 273 299
f 263 262 299
f 298 263 299
f 285 249 300
f 249 274 300
f 232 301 286
f 275 265 287
f 276 233 286
f 288 253 277
f 277 254 278
f 252 302 237
f 302 289 237
f 290 303 238
f 255 238 303
f 303 279 255
f 304 291 266
f 267 291 281
f 259 292 282
f 239 268 305
f 293 269 282
f 294 306 283
f 284 243 297
f 299 273 307
f 264 308 274
f 264 275 308
f 301 232 285
f 286 301 309
f 287 250 310
f 234 311 218
f 311 234 276
f 310 250 288
f 218 312 251
f 313 278 239
f 303 314 279
f 314 280 279
f 282 315 293
f 294 293 306
f 306 316 283
f 295 283 316
f 273 296 317
f 273 317 307
f 298 299 318
f 308 275 319
f 285 320 301
f 321 310 288
f 288 277 321
f 251 312 322
f 251 322 252
f 252 322 302
f 323 304 280
f 280 304 266
f 324 291 304
f 281 291 325
f 325 326 281
f 281 326 292
f 327 282 292
f 282 327 315
f 268 284 305
f 296 295 328
f 284 297 329
f 296 328 317
f 317 330 307
f 299 307 318
f 329 297 298
f 318 329 298
f 320 285 300
f 274 308 300
f 275 287 331
f 310 331 287
f 218 311 312
f 303 323 314
f 314 323 280
f 291 324 332
f 325 291 332
f 333 292 326
f 333 327 292
f 293 315 334
f 293 334 306
f 295 316 335
f 335 336 295
f 295 336 328
f 305 284 329
f 307 330 318
f 337 329 318
f 319 338 308
f 309 301 339
f 340 286 309
f 286 340 276
f 276 340 311
f 321 277 341
f 277 278 313
f 302 342 289
f 289 342 290
f 290 343 303
f 303 343 323
f 304 323 344
f 344 324 304
f 345 325 332
f 345 326 325
f 333 326 345
f 333 346 327
f 306 335 316
f 347 328 336
f 317 328 348
f 328 347 348
f 317 348 330
f 318 330 348
f 348 337 318
f 320 300 349
f 339 301 320
f 350 340 309
f 339 350 309
f 319 275 351
f 275 331 351
f 310 352 331
f 321 352 310
f 312 353 322
f 322 354 302
f 354 355 302
f 355 342 302
f 290 342 343
f 323 343 356
f 357 313 239
f 344 323 356
f 358 324 344
f 324 358 332
f 358 345 332
f 359 333 345
f 360 327 346
f 315 327 360
f 361 335 334
f 335 306 334
f 305 329 362
f 362 329 337
f 348 363 337
f 339 320 364
f 364 320 349
f 308 349 300
f 308 365 349
f 308 338 365
f 311 340 366
f 353 354 322
f 342 356 343
f 359 358 367
f 358 359 345
f 368 333 359
f 368 346 333
f 346 369 360
f 239 305 370
f 334 315 360
f 334 371 361
f 335 372 336
f 373 305 362
f 372 347 336
f 362 337 374
f 347 375 348
f 363 348 375
f 337 363 374
f 364 349 365
f 340 350 376
f 376 350 339
f 377 319 351
f 376 366 340
f 331 352 351
f 341 352 321
f 378 312 311
f 341 277 313
f 379 353 312
f 342 380 356
f 381 356 382
f 356 381 344
f 358 344 381
f 383 367 381
f 367 358 381
f 359 367 384
f 384 368 359
f 385 369 346
f 334 360 371
f 386 305 373
f 375 387 363
f 375 347 372
f 388 339 364
f 388 376 339
f 338 319 389
f 319 377 389
f 311 366 378
f 390 352 341
f 378 379 312
f 353 391 354
f 354 392 355
f 342 355 392
f 380 342 392
f 382 356 380
f 382 393 381
f 393 383 381
f 394 367 383
f 394 384 367
f 368 384 385
f 385 346 368
f 370 305 386
f 369 371 360
f 395 362 374
f 372 396 387
f 374 387 395
f 387 375 372
f 374 363 387
f 364 397 388
f 365 397 364
f 398 377 351
f 351 352 398
f 341 313 399
f 354 391 392
f 393 400 383
f 394 401 384
f 402 384 401
f 384 402 385
f 403 369 385
f 403 371 369
f 403 361 371
f 404 335 361
f 395 405 362
f 362 405 373
f 372 335 404
f 406 372 404
f 406 396 372
f 407 387 396
f 395 387 407
f 388 408 376
f 397 409 388
f 338 410 365
f 338 389 410
f 398 389 377
f 366 411 378
f 378 412 379
f 413 353 379
f 353 414 391
f 391 415 392
f 415 380 392
f 382 380 415
f 383 400 394
f 394 400 416
f 401 394 417
f 401 417 418
f 401 418 402
f 385 402 419
f 403 385 419
f 361 403 404
f 420 395 407
f 405 395 420
f 376 408 421
f 388 409 408
f 365 410 397
f 389 422 410
f 366 376 421
f 421 411 366
f 398 352 423
f 352 390 423
f 390 341 399
f 379 412 413
f 353 413 424
f 353 424 414
f 391 414 415
f 382 415 425
f 425 426 382
f 426 393 382
f 400 393 426
f 427 402 418
f 370 386 428
f 428 386 429
f 429 386 373
f 430 404 403
f 431 373 405
f 406 432 396
f 404 432 406
f 432 433 396
f 420 407 433
f 407 396 433
f 408 434 421
f 389 398 435
f 411 412 378
f 414 436 415
f 437 400 426
f 438 400 437
f 416 400 438
f 416 438 394
f 417 394 438
f 439 417 438
f 418 417 439
f 427 419 402
f 403 419 440
f 441 403 440
f 429 373 442
f 441 430 403
f 442 373 431
f 431 420 443
f 431 405 420
f 404 430 432
f 443 433 432
f 420 433 443
f 409 397 444
f 410 422 445
f 409 444 408
f 408 444 434
f 389 435 422
f 421 434 446
f 421 446 411
f 447 398 423
f 424 448 414
f 414 448 436
f 436 425 415
f 449 425 450
f 425 449 426
f 437 426 449
f 438 437 449
f 439 451 418
f 427 418 452
f 419 427 453
f 440 419 453
f 454 429 442
f 442 431 455
f 441 456 430
f 455 431 457
f 456 432 430
f 456 457 432
f 431 443 457
f 457 443 432
f 410 445 397
f 397 445 458
f 435 398 447
f 436 450 425
f 459 449 450
f 460 438 449
f 460 439 438
f 451 439 460
f 418 451 452
f 427 452 453
f 428 429 454
f 441 440 461
f 442 462 454
f 442 455 462
f 463 457 456
f 462 457 463
f 462 455 457
f 397 458 444
f 444 458 464
f 444 465 434
f 434 466 446
f 411 446 467
f 411 467 412
f 467 468 412
f 413 412 469
f 413 469 470
f 413 448 424
f 448 413 470
f 448 471 436
f 450 436 471
f 459 472 449
f 460 449 472
f 357 239 370
f 452 451 473
f 428 454 474
f 474 454 475
f 476 461 453
f 461 440 453
f 475 454 477
f 477 454 462
f 456 441 461
f 478 456 461
f 479 463 478
f 463 456 478
f 477 463 479
f 477 462 463
f 464 465 444
f 465 466 434
f 467 446 480
f 466 480 446
f 460 481 451
f 481 482 451
f 473 451 482
f 483 370 428
f 476 453 452
f 484 428 474
f 475 484 474
f 485 461 476
f 478 461 485
f 486 479 485
f 479 478 485
f 475 477 486
f 486 477 479
f 445 464 458
f 422 487 445
f 488 466 465
f 435 447 489
f 490 447 423
f 491 423 390
f 390 399 491
f 412 468 469
f 470 492 448
f 492 471 448
f 450 471 493
f 459 494 472
f 472 495 460
f 481 460 496
f 357 370 497
f 497 370 483
f 483 428 498
f 498 428 499
f 473 476 452
f 428 484 499
f 484 475 500
f 501 484 500
f 502 485 476
f 503 485 502
f 500 475 503
f 475 486 503
f 486 485 503
f 445 487 464
f 464 504 465
f 422 489 487
f 435 489 422
f 488 480 466
f 488 505 480
f 490 423 491
f 480 506 467
f 505 506 480
f 399 313 507
f 507 313 508
f 468 509 469
f 470 469 509
f 492 493 471
f 493 510 450
f 459 510 494
f 450 510 459
f 495 496 460
f 511 473 482
f 511 502 473
f 511 512 502
f 476 473 502
f 484 501 499
f 512 513 502
f 514 500 513
f 501 500 514
f 513 503 502
f 500 503 513
f 487 515 464
f 516 515 487
f 487 489 516
f 504 488 465
f 504 517 488
f 518 489 447
f 491 399 507
f 467 506 468
f 468 506 509
f 519 520 509
f 509 492 470
f 521 482 481
f 522 512 523
f 513 512 522
f 499 501 524
f 524 514 513
f 501 514 524
f 515 504 464
f 447 490 518
f 488 517 505
f 506 519 509
f 525 519 506
f 509 520 492
f 492 520 493
f 481 496 526
f 521 511 482
f 511 523 512
f 499 527 498
f 523 528 522
f 527 524 529
f 527 499 524
f 522 529 524
f 528 529 522
f 524 513 522
f 504 530 517
f 515 530 504
f 489 518 516
f 531 518 490
f 517 532 505
f 490 491 531
f 506 505 525
f 520 533 493
f 510 493 533
f 495 472 494
f 495 534 496
f 526 496 534
f 521 481 526
f 483 498 527
f 521 523 511
f 535 536 527
f 527 529 535
f 535 529 528
f 537 530 515
f 516 537 515
f 516 518 537
f 538 518 531
f 539 491 507
f 505 532 540
f 525 541 519
f 541 542 520
f 519 541 520
f 520 542 543
f 543 533 520
f 533 544 510
f 494 545 495
f 546 523 521
f 527 547 483
f 536 548 547
f 523 546 549
f 547 527 536
f 549 528 523
f 535 550 536
f 549 550 535
f 535 528 549
f 518 551 537
f 518 538 551
f 491 552 531
f 552 491 539
f 540 525 505
f 540 553 525
f 525 553 541
f 507 508 539
f 542 541 554
f 543 544 533
f 508 313 357
f 555 497 556
f 497 483 556
f 556 483 557
f 557 483 547
f 558 549 546
f 559 550 558
f 550 549 558
f 548 536 559
f 536 550 559
f 530 560 517
f 561 538 531
f 552 561 531
f 553 554 541
f 539 508 562
f 562 508 357
f 510 545 494
f 495 545 534
f 563 564 526
f 521 526 564
f 564 546 521
f 558 546 564
f 565 558 564
f 557 548 566
f 557 547 548
f 567 559 565
f 559 558 565
f 567 566 559
f 566 548 559
f 530 537 551
f 538 561 551
f 517 560 532
f 552 539 562
f 568 553 540
f 554 553 568
f 569 544 543
f 542 569 543
f 510 570 545
f 510 544 570
f 526 534 563
f 566 571 556
f 556 557 566
f 571 566 567
f 530 551 572
f 560 530 572
f 551 561 573
f 573 572 551
f 552 574 573
f 552 573 561
f 575 540 532
f 560 575 532
f 554 576 542
f 576 554 568
f 562 357 577
f 576 569 542
f 544 569 570
f 545 578 534
f 579 357 497
f 534 580 563
f 556 581 555
f 582 564 563
f 565 564 582
f 583 571 584
f 556 571 583
f 571 565 584
f 571 567 565
f 573 585 572
f 573 574 585
f 568 540 586
f 586 540 575
f 552 562 577
f 587 568 586
f 568 587 576
f 534 578 580
f 588 555 581
f 582 563 580
f 581 583 584
f 581 556 583
f 584 565 582
f 585 589 572
f 590 589 585
f 574 590 585
f 574 552 577
f 577 357 591
f 569 592 570
f 593 570 592
f 570 593 545
f 579 497 588
f 497 555 588
f 580 594 582
f 582 594 595
f 581 595 596
f 581 584 595
f 584 582 595
f 560 572 589
f 575 560 597
f 589 598 560
f 586 575 599
f 599 575 597
f 587 586 599
f 576 587 600
f 576 592 569
f 545 593 601
f 545 601 578
f 578 602 580
f 596 603 581
f 581 603 588
f 580 604 594
f 594 605 595
f 597 560 598
f 590 606 589
f 590 574 606
f 574 607 606
f 574 577 607
f 607 577 591
f 587 599 600
f 607 591 608
f 600 592 576
f 591 357 579
f 580 602 604
f 596 609 603
f 604 605 594
f 595 605 609
f 596 595 609
f 598 589 606
f 597 598 610
f 611 598 606
f 599 597 610
f 606 612 611
f 607 612 606
f 608 612 607
f 608 591 613
f 592 600 614
f 591 579 613
f 593 592 614
f 578 601 602
f 605 615 609
f 603 609 615
f 598 611 610
f 599 610 616
f 600 599 616
f 616 614 600
f 614 617 593
f 601 593 617
f 613 579 588
f 603 618 588
f 603 615 618
f 602 619 604
f 605 604 619
f 615 605 619
f 611 612 620
f 610 611 620
f 612 608 620
f 621 616 610
f 608 622 620
f 608 613 622
f 614 616 621
f 614 621 617
f 623 622 613
f 617 624 601
f 588 623 613
f 618 623 588
f 624 602 601
f 624 625 619
f 602 624 619
f 618 615 625
f 615 619 625
f 620 626 610
f 610 627 621
f 610 626 627
f 620 622 626
f 622 628 626
f 627 617 621
f 628 627 626
f 622 623 628
f 627 629 617
f 630 628 623
f 624 617 629
f 624 629 630
f 630 623 618
f 630 625 624
f 618 625 630
f 630 629 627
f 627 628 630
f 631 632 633
f 634 631 633
f 633 632 635
f 634 633 636
f 633 635 637
f 636 633 637
f 631 638 632
f 634 639 631
f 638 640 632
f 632 640 641
f 632 641 635
f 642 634 643
f 634 636 643
f 635 644 637
f 641 644 635
f 643 636 645
f 646 643 645
f 644 647 637
f 637 648 636
f 648 645 636
f 647 649 637
f 648 637 649
f 650 651 638
f 652 650 631
f 631 650 638
f 639 652 631
f 653 639 642
f 651 654 638
f 639 634 642
f 638 654 640
f 640 655 641
f 641 655 644
f 655 656 644
f 656 657 644
f 647 644 657
f 658 646 645
f 649 659 648
f 645 648 658
f 650 652 660
f 639 661 652
f 639 653 661
f 640 654 655
f 642 643 662
f 643 646 662
f 646 658 663
f 647 657 664
f 647 664 649
f 648 659 665
f 658 648 665
f 661 660 652
f 650 666 651
f 666 667 651
f 654 651 667
f 654 667 668
f 655 654 668
f 656 669 670
f 655 669 656
f 657 656 670
f 662 646 671
f 646 663 671
f 649 664 672
f 672 659 649
f 659 673 665
f 673 659 672
f 674 661 675
f 650 660 676
f 660 661 674
f 675 661 653
f 667 666 677
f 653 642 678
f 678 642 662
f 667 677 668
f 668 669 655
f 672 664 679
f 658 665 663
f 680 665 673
f 680 673 672
f 681 674 682
f 682 674 675
f 676 660 681
f 674 681 660
f 683 666 684
f 676 684 666
f 650 676 666
f 675 653 685
f 653 678 685
f 677 666 683
f 677 686 668
f 686 687 668
f 668 687 669
f 657 670 664
f 665 688 663
f 665 680 689
f 679 690 672
f 672 690 680
f 691 689 680
f 691 680 690
f 682 675 692
f 692 675 685
f 683 693 677
f 677 693 686
f 669 694 670
f 664 670 679
f 671 663 688
f 665 689 688
f 679 695 690
f 696 688 689
f 697 691 690
f 698 681 682
f 676 699 684
f 683 700 693
f 686 693 700
f 678 662 701
f 662 671 701
f 669 686 702
f 686 669 687
f 669 702 694
f 670 694 703
f 679 670 703
f 679 703 695
f 690 695 697
f 689 691 704
f 697 705 691
f 705 704 691
f 681 698 706
f 682 692 698
f 699 676 681
f 685 707 692
f 678 707 685
f 699 708 683
f 684 699 683
f 708 700 683
f 700 709 686
f 686 709 702
f 671 688 710
f 711 695 703
f 710 688 696
f 689 704 696
f 712 696 704
f 695 713 714
f 695 714 697
f 705 697 714
f 706 698 715
f 699 681 716
f 706 716 681
f 717 698 692
f 718 699 716
f 717 692 707
f 718 708 699
f 707 678 701
f 708 719 700
f 709 700 720
f 721 702 709
f 703 722 723
f 694 722 703
f 695 711 724
f 724 725 713
f 724 713 695
f 705 714 726
f 727 705 726
f 727 704 705
f 714 713 726
f 716 706 728
f 729 715 698
f 698 717 729
f 717 707 730
f 718 719 708
f 719 731 700
f 700 731 720
f 721 732 702
f 694 732 722
f 694 702 732
f 711 703 723
f 710 696 712
f 727 712 704
f 733 712 727
f 713 734 726
f 713 725 734
f 726 734 735
f 735 727 726
f 735 734 736
f 728 706 737
f 706 715 737
f 730 729 717
f 730 707 738
f 707 701 738
f 719 739 731
f 720 731 739
f 721 720 740
f 720 721 709
f 721 740 741
f 701 671 742
f 732 721 741
f 671 710 742
f 711 723 743
f 724 711 743
f 710 712 744
f 744 712 733
f 745 733 727
f 735 745 727
f 725 746 734
f 736 734 747
f 747 734 746
f 715 729 748
f 749 748 729
f 729 730 749
f 728 750 716
f 716 750 718
f 718 751 719
f 752 739 751
f 719 751 739
f 753 739 752
f 739 753 720
f 740 720 753
f 732 754 722
f 724 755 725
f 756 746 725
f 735 736 757
f 757 736 758
f 758 736 747
f 715 759 737
f 737 759 760
f 715 748 759
f 761 728 762
f 737 762 728
f 728 761 750
f 751 718 750
f 763 753 752
f 740 753 763
f 741 740 764
f 741 764 765
f 741 765 732
f 754 732 765
f 754 766 723
f 754 723 722
f 766 743 723
f 724 767 755
f 744 733 768
f 733 745 768
f 746 756 769
f 735 757 770
f 735 770 745
f 746 769 747
f 769 771 747
f 758 747 772
f 772 747 771
f 757 758 773
f 760 762 737
f 752 751 774
f 752 774 775
f 763 775 776
f 763 752 775
f 740 763 776
f 764 740 776
f 743 767 724
f 777 756 725
f 745 770 768
f 769 756 771
f 772 773 758
f 778 757 773
f 760 759 779
f 760 780 762
f 749 730 781
f 750 782 751
f 751 782 774
f 764 783 765
f 765 784 754
f 743 766 767
f 744 768 710
f 755 777 725
f 768 770 785
f 756 777 786
f 757 778 770
f 756 787 771
f 771 787 788
f 772 771 788
f 773 772 789
f 789 772 788
f 790 778 773
f 789 790 773
f 760 779 780
f 761 762 791
f 791 762 780
f 759 748 792
f 748 749 792
f 761 782 750
f 793 781 730
f 730 794 793
f 794 730 738
f 782 795 774
f 774 795 775
f 776 775 796
f 776 796 797
f 798 776 797
f 783 776 798
f 776 783 764
f 784 765 783
f 754 784 799
f 766 754 799
f 766 800 767
f 801 802 767
f 767 802 755
f 803 777 755
f 770 778 785
f 756 786 787
f 804 778 790
f 805 790 789
f 788 787 806
f 789 788 805
f 805 788 806
f 791 780 807
f 780 779 807
f 759 792 779
f 791 808 782
f 761 791 782
f 782 809 795
f 775 795 810
f 810 796 775
f 798 811 783
f 783 812 784
f 800 801 767
f 710 768 813
f 755 802 803
f 768 785 813
f 785 778 804
f 814 804 790
f 815 814 790
f 790 805 815
f 787 786 816
f 805 817 815
f 806 787 816
f 806 816 818
f 805 806 817
f 817 806 818
f 815 817 819
f 779 820 807
f 821 792 749
f 782 808 809
f 749 781 821
f 794 738 822
f 738 701 822
f 701 742 823
f 797 811 798
f 811 812 783
f 784 824 799
f 799 800 766
f 742 710 825
f 803 786 777
f 785 804 813
f 786 826 816
f 816 826 827
f 816 827 818
f 817 818 819
f 828 815 819
f 819 818 827
f 828 819 829
f 791 807 830
f 779 831 820
f 831 779 792
f 791 830 808
f 808 830 832
f 792 833 831
f 795 834 810
f 834 795 809
f 796 810 835
f 701 823 822
f 796 835 836
f 796 836 797
f 797 837 811
f 811 838 812
f 812 824 784
f 799 824 800
f 824 839 800
f 800 839 801
f 801 839 802
f 803 802 839
f 803 840 786
f 840 841 786
f 804 814 813
f 786 841 826
f 842 814 815
f 828 842 815
f 826 843 827
f 819 827 844
f 829 819 844
f 845 828 829
f 827 843 844
f 807 846 830
f 807 847 846
f 820 847 807
f 820 831 847
f 808 832 848
f 833 792 821
f 848 809 808
f 837 797 836
f 838 811 837
f 812 838 849
f 812 850 824
f 850 851 824
f 824 852 839
f 710 813 825
f 813 814 853
f 853 814 842
f 841 854 826
f 826 854 843
f 855 842 828
f 845 855 828
f 843 856 844
f 844 857 829
f 857 845 829
f 857 844 856
f 832 858 848
f 832 846 858
f 830 846 832
f 859 821 781
f 810 834 860
f 822 793 794
f 810 860 835
f 837 861 838
f 838 861 849
f 850 812 849
f 851 850 862
f 851 852 824
f 863 839 852
f 839 863 803
f 864 854 841
f 865 843 854
f 843 865 856
f 865 866 856
f 867 845 857
f 868 867 857
f 857 856 868
f 868 856 866
f 831 833 869
f 809 848 834
f 781 870 859
f 870 781 793
f 871 837 836
f 861 837 871
f 861 872 849
f 873 849 872
f 850 849 873
f 874 850 873
f 875 850 874
f 850 875 862
f 862 876 851
f 852 851 876
f 877 803 863
f 803 877 840
f 840 878 841
f 864 841 878
f 853 842 879
f 842 855 879
f 880 865 854
f 845 867 855
f 865 881 866
f 867 868 882
f 846 847 858
f 831 869 847
f 848 858 883
f 821 859 833
f 822 823 884
f 871 836 885
f 861 871 872
f 871 886 872
f 872 887 873
f 875 876 862
f 888 863 852
f 889 863 888
f 889 877 863
f 877 878 840
f 853 879 813
f 880 854 864
f 890 865 880
f 890 881 865
f 879 855 891
f 855 867 891
f 881 892 866
f 866 893 868
f 893 882 868
f 867 882 894
f 893 866 892
f 847 895 858
f 847 896 895
f 847 869 896
f 848 883 897
f 859 898 833
f 897 834 848
f 793 899 870
f 899 793 822
f 835 885 836
f 886 887 872
f 873 887 874
f 887 900 874
f 874 901 875
f 902 875 903
f 875 902 876
f 876 902 852
f 852 902 888
f 888 904 889
f 904 877 889
f 877 904 878
f 813 879 905
f 867 894 891
f 894 906 891
f 895 883 858
f 833 907 869
f 833 898 907
f 870 908 898
f 870 898 859
f 834 897 860
f 897 909 860
f 887 910 900
f 874 900 901
f 903 875 901
f 911 903 901
f 912 888 902
f 888 912 904
f 904 913 878
f 825 813 905
f 878 913 864
f 913 914 880
f 913 880 864
f 914 890 880
f 905 879 915
f 879 891 915
f 881 890 916
f 916 892 881
f 891 906 915
f 917 893 892
f 918 894 882
f 882 893 917
f 895 919 883
f 896 920 895
f 822 884 899
f 885 835 860
f 921 886 885
f 886 871 885
f 886 910 887
f 900 910 922
f 923 901 900
f 911 924 903
f 903 924 902
f 902 924 912
f 924 925 912
f 904 912 926
f 904 926 913
f 914 927 890
f 927 916 890
f 892 916 928
f 892 928 929
f 892 929 917
f 906 894 930
f 894 918 930
f 917 918 882
f 919 895 920
f 869 931 896
f 869 907 931
f 919 897 883
f 920 932 919
f 909 897 933
f 934 908 870
f 899 934 870
f 935 885 860
f 922 936 900
f 900 936 923
f 901 923 911
f 911 923 937
f 924 911 937
f 912 925 926
f 938 913 926
f 927 939 916
f 916 940 928
f 906 930 941
f 906 941 915
f 917 929 942
f 943 917 942
f 944 917 943
f 918 917 944
f 931 920 896
f 907 898 945
f 897 946 933
f 919 946 897
f 899 947 934
f 899 884 947
f 909 935 860
f 884 823 948
f 823 742 949
f 950 886 921
f 886 950 910
f 950 951 910
f 910 951 922
f 936 952 923
f 952 953 923
f 937 923 954
f 954 923 953
f 937 955 924
f 924 955 925
f 955 956 925
f 925 956 926
f 956 957 938
f 926 956 938
f 913 938 914
f 916 939 940
f 915 941 958
f 930 918 941
f 944 941 918
f 898 959 945
f 933 946 960
f 961 908 934
f 933 960 909
f 962 935 909
f 884 948 947
f 823 949 948
f 963 921 885
f 951 964 922
f 953 965 954
f 955 937 954
f 955 966 956
f 967 956 966
f 956 967 957
f 957 968 938
f 914 938 968
f 914 968 927
f 927 968 969
f 927 969 939
f 929 970 942
f 941 944 971
f 943 942 972
f 944 943 973
f 971 944 973
f 920 974 975
f 931 974 920
f 907 945 931
f 976 932 920
f 975 976 920
f 898 908 959
f 932 946 919
f 908 961 959
f 909 960 977
f 977 962 909
f 935 978 885
f 885 978 963
f 921 963 950
f 922 964 936
f 964 979 936
f 952 936 979
f 954 980 955
f 955 980 966
f 981 966 980
f 982 966 981
f 966 982 967
f 967 982 957
f 982 968 957
f 969 983 939
f 939 983 940
f 915 958 905
f 970 928 984
f 928 970 929
f 942 970 985
f 941 971 986
f 942 985 972
f 943 972 973
f 932 960 946
f 932 987 960
f 934 988 961
f 988 934 947
f 988 947 989
f 979 990 952
f 952 991 953
f 953 991 965
f 991 992 965
f 954 993 980
f 965 993 954
f 981 994 982
f 982 994 968
f 994 995 968
f 968 995 969
f 969 996 983
f 928 940 984
f 958 941 986
f 997 973 972
f 971 973 997
f 997 986 971
f 945 959 931
f 931 959 998
f 976 987 932
f 987 999 960
f 1000 961 988
f 935 1001 978
f 1001 935 962
f 963 978 1002
f 990 1003 952
f 1003 991 952
f 965 992 993
f 993 1004 980
f 981 980 1004
f 994 1005 995
f 995 1005 969
f 1006 983 996
f 983 1006 940
f 1007 905 958
f 940 1006 984
f 984 985 970
f 985 1008 1009
f 972 985 1009
f 1010 972 1009
f 1011 986 997
f 997 972 1010
f 975 1012 976
f 1013 998 959
f 959 1014 1013
f 1015 987 976
f 961 1014 959
f 960 1016 977
f 960 999 1016
f 962 977 1016
f 947 948 989
f 948 949 1017
f 949 742 1017
f 1018 950 963
f 950 1018 951
f 1018 1019 951
f 951 1019 964
f 1019 1020 964
f 964 990 979
f 992 1021 993
f 1004 993 1021
f 1022 981 1004
f 994 981 1022
f 1005 1023 969
f 969 1023 996
f 1007 958 986
f 1011 1024 986
f 1015 999 987
f 961 1000 1014
f 1025 962 1016
f 1026 989 948
f 1026 948 1017
f 1002 1018 963
f 1017 742 1027
f 1027 742 825
f 964 1020 990
f 1003 1028 991
f 991 1029 992
f 1029 1021 992
f 1030 1004 1021
f 1004 1030 1022
f 994 1022 1005
f 996 1023 1006
f 984 1006 1031
f 985 1031 1032
f 985 984 1031
f 985 1032 1008
f 997 1010 1033
f 997 1033 1011
f 974 1012 975
f 931 1034 974
f 931 998 1034
f 1012 1015 976
f 1014 1035 1013
f 1000 1035 1014
f 1000 1036 1035
f 1000 988 1036
f 962 1025 1001
f 1001 1002 978
f 989 1026 988
f 1028 1037 991
f 991 1037 1029
f 1029 1038 1021
f 1021 1039 1030
f 1030 1040 1022
f 1041 1022 1042
f 1022 1041 1005
f 1043 905 1007
f 1005 1041 1023
f 1023 1044 1045
f 1023 1045 1006
f 1006 1045 1046
f 1007 986 1047
f 1006 1046 1031
f 986 1024 1047
f 1033 1048 1011
f 1024 1011 1048
f 1008 1049 1009
f 1010 1009 1033
f 1009 1049 1033
f 1012 974 1050
f 1050 974 1034
f 1012 1051 1015
f 999 1015 1052
f 1052 1016 999
f 988 1053 1036
f 988 1026 1053
f 1026 1017 1054
f 1054 1017 1027
f 1018 1055 1019
f 1029 1037 1038
f 1038 1039 1021
f 1030 1039 1040
f 1022 1040 1042
f 1023 1041 1044
f 1024 1048 1047
f 1031 1056 1032
f 1008 1032 1057
f 1008 1057 1049
f 998 1013 1034
f 1052 1058 1016
f 1016 1059 1025
f 1001 1060 1002
f 1053 1026 1061
f 1002 1060 1055
f 1002 1055 1018
f 1054 1061 1026
f 1055 1062 1019
f 1019 1062 1020
f 1027 825 1063
f 1020 1064 990
f 990 1064 1003
f 1064 1065 1003
f 1003 1065 1028
f 1028 1066 1037
f 1066 1067 1037
f 825 905 1043
f 1037 1067 1038
f 1067 1068 1038
f 1038 1068 1039
f 1039 1069 1040
f 1040 1069 1042
f 1043 1007 1070
f 1041 1042 1071
f 1044 1041 1071
f 1070 1007 1072
f 1044 1073 1045
f 1072 1007 1047
f 1046 1045 1074
f 1046 1075 1056
f 1031 1046 1056
f 1048 1076 1077
f 1047 1048 1077
f 1032 1056 1078
f 1049 1057 1079
f 1033 1049 1079
f 1048 1033 1076
f 1050 1080 1012
f 1013 1081 1034
f 1015 1051 1052
f 1081 1013 1035
f 1058 1059 1016
f 1036 1053 1035
f 1054 1082 1061
f 1062 1083 1020
f 1083 1064 1020
f 1063 825 1084
f 1065 1066 1028
f 825 1043 1084
f 1068 1069 1039
f 1085 1042 1069
f 1085 1071 1042
f 1071 1086 1073
f 1044 1071 1073
f 1073 1087 1074
f 1045 1073 1074
f 1047 1088 1072
f 1047 1077 1088
f 1046 1074 1075
f 1032 1078 1057
f 1079 1089 1033
f 1076 1033 1089
f 1080 1050 1034
f 1012 1090 1051
f 1034 1091 1080
f 1081 1091 1034
f 1035 1053 1092
f 1053 1093 1092
f 1053 1061 1093
f 1060 1094 1055
f 1061 1095 1093
f 1061 1082 1095
f 1082 1054 1096
f 1096 1054 1027
f 1027 1063 1096
f 1083 1065 1064
f 1065 1097 1066
f 1066 1098 1067
f 1098 1099 1067
f 1067 1099 1068
f 1099 1100 1068
f 1068 1100 1069
f 1101 1070 1072
f 1085 1086 1071
f 1102 1086 1085
f 1087 1073 1086
f 1074 1103 1075
f 1056 1075 1078
f 1089 1104 1076
f 1077 1076 1104
f 1057 1078 1105
f 1105 1106 1079
f 1106 1089 1079
f 1079 1057 1105
f 1051 1090 1052
f 1012 1080 1090
f 1052 1090 1058
f 1059 1058 1107
f 1081 1035 1108
f 1092 1108 1035
f 1001 1025 1060
f 1094 1109 1055
f 1110 1111 1095
f 1095 1082 1110
f 1109 1062 1055
f 1096 1110 1082
f 1112 1110 1096
f 1063 1084 1096
f 1084 1043 1113
f 1098 1066 1097
f 1113 1043 1070
f 1069 1100 1114
f 1069 1114 1085
f 1115 1101 1072
f 1085 1116 1102
f 1072 1088 1115
f 1102 1087 1086
f 1077 1117 1118
f 1118 1088 1077
f 1087 1103 1074
f 1077 1104 1117
f 1078 1075 1119
f 1106 1120 1089
f 1120 1104 1089
f 1078 1121 1105
f 1091 1122 1080
f 1081 1123 1091
f 1025 1059 1124
f 1025 1125 1060
f 1124 1125 1025
f 1092 1126 1108
f 1126 1092 1093
f 1060 1125 1094
f 1095 1127 1093
f 1127 1095 1111
f 1096 1128 1112
f 1083 1129 1065
f 1096 1084 1130
f 1097 1065 1129
f 1084 1113 1130
f 1097 1131 1098
f 1131 1132 1098
f 1098 1132 1099
f 1132 1133 1099
f 1113 1070 1134
f 1099 1133 1100
f 1134 1070 1101
f 1114 1116 1085
f 1115 1088 1118
f 1102 1135 1087
f 1118 1117 1136
f 1087 1135 1103
f 1104 1120 1137
f 1136 1117 1137
f 1075 1103 1119
f 1117 1104 1137
f 1078 1119 1121
f 1105 1121 1106
f 1090 1138 1058
f 1090 1080 1138
f 1138 1080 1122
f 1138 1107 1058
f 1091 1123 1122
f 1124 1059 1139
f 1139 1059 1107
f 1081 1108 1123
f 1109 1140 1062
f 1062 1140 1129
f 1062 1129 1083
f 1128 1110 1112
f 1141 1128 1096
f 1096 1130 1141
f 1129 1131 1097
f 1130 1113 1142
f 1113 1134 1142
f 1143 1100 1133
f 1144 1134 1101
f 1143 1114 1100
f 1101 1115 1144
f 1145 1116 1114
f 1118 1146 1115
f 1102 1116 1147
f 1118 1136 1146
f 1102 1147 1135
f 1148 1137 1120
f 1103 1149 1119
f 1150 1151 1121
f 1148 1120 1151
f 1121 1119 1150
f 1106 1121 1151
f 1120 1106 1151
f 1152 1153 1138
f 1122 1152 1138
f 1108 1154 1123
f 1154 1108 1126
f 1093 1155 1126
f 1155 1093 1127
f 1094 1125 1109
f 1156 1111 1110
f 1110 1128 1156
f 1128 1141 1157
f 1158 1141 1130
f 1142 1158 1130
f 1159 1158 1142
f 1134 1159 1142
f 1144 1159 1134
f 1115 1160 1144
f 1115 1146 1160
f 1146 1136 1161
f 1137 1161 1136
f 1135 1162 1103
f 1103 1162 1149
f 1148 1163 1137
f 1119 1149 1150
f 1107 1153 1139
f 1107 1138 1153
f 1122 1123 1164
f 1164 1152 1122
f 1139 1165 1124
f 1154 1126 1166
f 1166 1126 1155
f 1109 1167 1140
f 1140 1168 1129
f 1131 1129 1168
f 1128 1157 1156
f 1141 1158 1157
f 1169 1131 1170
f 1132 1131 1169
f 1171 1132 1169
f 1133 1132 1171
f 1144 1160 1159
f 1114 1143 1145
f 1146 1172 1160
f 1172 1146 1173
f 1174 1116 1145
f 1146 1161 1173
f 1135 1147 1175
f 1161 1137 1176
f 1135 1175 1162
f 1176 1137 1163
f 1177 1178 1150
f 1150 1149 1177
f 1151 1150 1178
f 1139 1153 1165
f 1164 1123 1179
f 1123 1154 1179
f 1124 1180 1125
f 1154 1166 1179
f 1125 1181 1109
f 1127 1111 1182
f 1182 1111 1156
f 1168 1140 1167
f 1168 1183 1131
f 1184 1156 1157
f 1170 1131 1183
f 1184 1157 1158
f 1158 1159 1185
f 1186 1185 1159
f 1171 1143 1133
f 1159 1160 1186
f 1160 1172 1186
f 1172 1173 1187
f 1187 1173 1188
f 1173 1161 1189
f 1116 1174 1147
f 1161 1176 1189
f 1178 1163 1151
f 1162 1177 1149
f 1148 1151 1163
f 1164 1190 1152
f 1165 1180 1124
f 1179 1190 1164
f 1179 1166 1191
f 1166 1155 1192
f 1109 1181 1167
f 1155 1127 1192
f 1192 1127 1182
f 1182 1156 1193
f 1194 1193 1156
f 1184 1194 1156
f 1184 1158 1195
f 1195 1158 1185
f 1186 1172 1196
f 1172 1187 1196
f 1143 1197 1145
f 1173 1189 1188
f 1147 1174 1198
f 1199 1200 1176
f 1189 1176 1200
f 1198 1175 1147
f 1199 1163 1201
f 1176 1163 1199
f 1202 1162 1175
f 1177 1162 1202
f 1163 1178 1201
f 1165 1153 1203
f 1153 1152 1203
f 1204 1203 1152
f 1190 1204 1152
f 1190 1179 1205
f 1180 1181 1125
f 1191 1205 1179
f 1166 1192 1191
f 1167 1181 1206
f 1194 1184 1195
f 1171 1169 1207
f 1143 1171 1208
f 1186 1209 1185
f 1210 1196 1187
f 1208 1197 1143
f 1197 1174 1145
f 1198 1202 1175
f 1202 1211 1177
f 1211 1178 1177
f 1212 1190 1205
f 1165 1213 1180
f 1165 1203 1213
f 1190 1212 1204
f 1180 1213 1181
f 1205 1191 1214
f 1191 1192 1214
f 1192 1182 1215
f 1216 1167 1206
f 1168 1167 1216
f 1182 1193 1215
f 1185 1217 1195
f 1185 1209 1217
f 1209 1186 1218
f 1218 1186 1196
f 1210 1218 1196
f 1210 1187 1188
f 1210 1188 1219
f 1188 1189 1219
f 1174 1220 1198
f 1202 1220 1211
f 1202 1198 1220
f 1178 1211 1221
f 1201 1178 1221
f 1213 1203 1222
f 1204 1222 1203
f 1204 1212 1223
f 1214 1192 1224
f 1192 1215 1224
f 1215 1193 1217
f 1193 1194 1217
f 1170 1183 1225
f 1217 1194 1195
f 1169 1170 1225
f 1207 1208 1171
f 1209 1218 1226
f 1227 1174 1197
f 1189 1200 1219
f 1219 1200 1228
f 1174 1227 1220
f 1199 1228 1200
f 1221 1229 1201
f 1201 1229 1199
f 1222 1204 1223
f 1223 1212 1230
f 1230 1212 1205
f 1231 1230 1205
f 1205 1214 1231
f 1224 1231 1214
f 1224 1215 1232
f 1215 1217 1232
f 1233 1232 1217
f 1183 1168 1234
f 1235 1207 1169
f 1233 1209 1226
f 1233 1217 1209
f 1218 1236 1226
f 1218 1210 1236
f 1208 1237 1197
f 1237 1227 1197
f 1210 1219 1228
f 1228 1199 1238
f 1239 1229 1221
f 1238 1199 1229
f 1221 1220 1239
f 1221 1211 1220
f 1222 1240 1213
f 1240 1222 1223
f 1213 1241 1181
f 1241 1213 1240
f 1181 1241 1206
f 1242 1231 1243
f 1224 1243 1231
f 1224 1232 1243
f 1234 1168 1216
f 1225 1235 1169
f 1208 1207 1235
f 1237 1208 1235
f 1226 1244 1245
f 1226 1236 1244
f 1244 1210 1246
f 1236 1210 1244
f 1210 1228 1246
f 1227 1239 1220
f 1240 1223 1247
f 1223 1230 1247
f 1247 1248 1240
f 1230 1231 1247
f 1241 1240 1248
f 1231 1242 1247
f 1206 1241 1216
f 1249 1243 1232
f 1232 1250 1249
f 1232 1233 1250
f 1234 1225 1183
f 1245 1250 1226
f 1250 1233 1226
f 1237 1235 1251
f 1246 1228 1252
f 1253 1239 1227
f 1228 1238 1252
f 1252 1229 1253
f 1238 1229 1252
f 1229 1239 1253
f 1247 1254 1248
f 1247 1255 1254
f 1247 1242 1255
f 1256 1241 1248
f 1241 1256 1216
f 1242 1243 1255
f 1216 1256 1234
f 1234 1256 1257
f 1243 1258 1255
f 1243 1249 1258
f 1225 1234 1259
f 1260 1225 1259
f 1235 1225 1260
f 1244 1261 1262
f 1251 1263 1237
f 1244 1246 1261
f 1261 1246 1264
f 1263 1227 1237
f 1253 1227 1263
f 1263 1264 1253
f 1246 1252 1264
f 1252 1253 1264
f 1248 1265 1256
f 1254 1265 1248
f 1255 1265 1254
f 1265 1255 1266
f 1267 1256 1265
f 1257 1256 1267
f 1255 1258 1266
f 1234 1257 1259
f 1268 1258 1249
f 1269 1259 1257
f 1250 1268 1249
f 1260 1259 1269
f 1270 1268 1250
f 1245 1270 1250
f 1260 1251 1235
f 1251 1260 1271
f 1245 1244 1270
f 1270 1244 1262
f 1251 1271 1263
f 1272 1263 1271
f 1261 1272 1262
f 1272 1264 1263
f 1264 1272 1261
f 1266 1267 1265
f 1266 1273 1267
f 1258 1273 1266
f 1267 1269 1257
f 1274 1269 1267
f 1273 1274 1267
f 1258 1268 1273
f 1268 1270 1273
f 1269 1275 1260
f 1274 1275 1269
f 1273 1276 1274
f 1270 1276 1273
f 1276 1275 1274
f 1260 1275 1271
f 1270 1262 1276
f 1276 1271 1275
f 1276 1272 1271
f 1262 1272 1276

