# https://github.com/mikedh/trimesh
v 52846.25457388 27600.30551711 -15098.36184345
v 52730.91792075 27922.27789700 -15700.14697928
v 52277.19780590 27115.92591623 -15433.18782536
v 52425.47244206 26967.12291246 -14894.43116680
v 52681.82704688 27369.46220177 -14651.75472694
v 52160.48283758 26961.08613413 -14549.35915778
v 53079.61385193 28729.85286341 -15338.89519824
v 52737.83235513 29081.62123803 -16257.93650004
v 52890.85781744 28262.85782413 -14677.18109483
v 52283.12544209 27683.86755366 -14317.26864379
v 53197.13767315 30313.49594788 -15565.83350282
v 52933.61811072 30944.59949608 -16515.32411674
v 53022.13459137 29704.02699330 -14753.99677222
v 52390.51178986 28990.57776141 -14216.79121162
v 53273.86298116 32180.66836430 -15698.49318888
v 52990.19041695 32864.57200527 -16668.30797539
v 53083.79706916 31465.65698818 -14829.30139135
v 52430.96282061 30650.93545251 -14188.11770338
v 53286.05624388 34115.56015285 -15774.34623556
v 53002.30674744 34809.59438001 -16725.85626680
v 53093.66461116 33372.61099910 -14883.47361914
v 52426.49986921 32496.54178179 -14185.88992861
v 53238.91535356 35995.91745532 -15830.93636264
v 52963.13528918 36631.14667314 -16709.26620817
v 53043.99567693 35300.67697811 -14940.60927185
v 52376.13626523 34413.05141130 -14202.90698812
v 53121.45438783 37663.19226791 -15912.32673701
v 52832.05212266 38188.42778838 -16625.86332025
v 52915.00994988 37161.61987635 -15050.20333344
v 52250.91381753 36346.78208720 -14256.47523697
v 52915.33947413 38844.73070841 -16038.68545915
v 52682.23849447 39143.12880891 -16437.55967349
v 52731.16051889 38764.62551217 -15325.99424412
v 51964.24426345 38393.34620412 -14378.39199831
v 52260.10945330 40096.06898082 -15937.51597305
v 52049.66146561 39868.05253363 -14902.81181790
v 51991.76342222 27734.50590046 -16248.66975832
v 51507.40066931 26879.73330644 -15709.01214102
v 51489.15449376 26570.01585090 -14923.18428198
v 51338.55034035 26964.56530611 -14299.44694230
v 52027.04365582 28702.19531382 -16918.89312674
v 51546.61163006 29174.77813576 -17460.74015238
v 51199.82782401 28218.88047263 -17033.72890346
v 51456.16392188 28199.75931418 -14020.33885962
v 52250.36726398 29898.54713760 -17173.01791186
v 51383.09802116 30390.11293039 -17916.61672356
v 51430.58405288 29743.14261667 -13879.35267679
v 52268.80548457 31612.00760971 -17468.35239683
v 51130.29295323 32267.85558829 -18452.15088436
v 51386.81434911 31500.51882661 -13789.70099207
v 52268.87846944 33606.28989689 -17643.17273214
v 51192.82825144 34624.29587962 -18576.65486993
v 51319.22565894 33347.57511374 -13741.83394918
v 52334.49974919 35578.65382510 -17606.24503047
v 51557.90508162 36416.00085501 -18231.64645405
v 51210.31801249 35227.42627519 -13730.62405455
v 52277.69673535 37362.62725757 -17455.07919684
v 51161.18443105 38031.89911213 -18188.01221902
v 51029.96189663 37071.62361416 -13753.59800818
v 52007.44073110 39186.90568303 -17107.11145899
v 50454.55209514 40127.57937453 -17995.11486637
v 50709.39122278 38597.36504999 -13772.45465101
v 51326.95756981 41023.11055257 -16864.14465611
v 51419.51922388 41937.78217007 -15894.14151906
v 50560.65691521 42667.26237662 -16600.23298905
v 51485.51868825 41313.73992158 -15015.25950867
v 50891.68585025 40213.08609382 -14157.69819163
v 50868.95718703 43129.69180516 -15791.87774213
v 50122.57717048 43836.97670156 -15953.29864736
v 50961.39086921 42794.49226488 -15150.85465788
v 50270.78520084 42245.45237310 -14337.06717644
v 50436.27410041 43810.69490519 -15309.99742106
v 50248.10023485 43501.49961110 -14737.81745225
v 50762.27140801 26294.80915612 -14484.05040951
v 50375.55229336 26250.66704226 -14808.39276554
v 50348.84370974 26113.65278308 -14448.84772573
v 50305.60917591 26610.87103499 -14341.41275099
v 50896.49916884 27263.40293778 -16318.66534428
v 50659.61671608 26614.02095323 -15544.79669671
v 50575.57771783 27551.21537833 -14108.46078174
v 50594.62875991 29214.81011634 -17763.81217793
v 49973.76749195 28055.46394769 -16995.09353786
v 50311.62280428 28847.75804541 -13966.46509217
v 50143.53067367 30671.87430155 -18574.77615120
v 50162.62635527 30523.38058952 -13772.25969099
v 50035.67340996 31974.20357495 -19094.13859063
v 49208.29853872 32507.15100998 -19464.34857061
v 49380.16499927 31394.32552960 -19162.67487110
v 50065.68715526 32241.73760466 -13621.60137473
v 50140.54128566 33342.22019483 -19210.42987541
v 48962.49482068 34090.83266138 -19691.47526363
v 49906.10504241 34025.55641717 -13539.45435813
v 50025.21115051 34808.46264893 -19319.44467956
v 50317.88305226 36449.24756699 -19007.96358365
v 49762.78303024 35835.58642670 -13484.47693503
v 49707.19677724 38505.29567974 -18952.19041576
v 49596.40203203 37575.17852126 -13476.28903711
v 48798.71626614 40253.88757537 -18902.19069181
v 49474.08325058 39274.42119977 -13568.07423092
v 50335.88229636 41729.81060481 -17431.26565894
v 49040.65053038 41838.62878132 -18069.96477267
v 49280.70811524 40982.13267196 -13717.69446788
v 49663.08061506 42684.45868020 -17310.71860137
v 49169.20081967 43703.94380295 -16649.85929336
v 48906.71248849 42339.04929735 -13832.30521171
v 49780.69847458 44400.52514378 -15409.32348950
v 49070.74034846 44502.42754893 -15783.86046464
v 49676.63381678 44261.59038141 -14866.98013656
v 49138.63479055 43550.84640198 -14256.35266268
v 48936.77708520 44726.20052063 -15101.12593514
v 48745.10543253 44449.31343367 -14570.52132734
v 50137.22580154 26192.56769503 -14501.68461185
v 50048.82023731 27091.01224158 -16120.89525310
v 49769.50203437 26784.05650779 -15437.25248603
v 49767.13721879 26682.18819997 -14745.91004584
v 49480.85852016 27862.19245144 -14479.82208906
v 49257.72919982 29475.04456775 -18001.86979328
v 48873.09355666 28545.10196952 -17073.67351170
v 49237.31073631 27614.95623510 -16226.34866332
v 48788.27556130 29812.91976201 -14255.66566283
v 49093.95489352 30608.01465016 -18820.77258354
v 48375.09333869 31622.97543874 -19197.75133139
v 48393.75175717 30387.60167742 -18536.82213519
v 48967.34846028 31338.94321825 -13834.17431411
v 48253.22622970 32986.46765687 -19634.77603191
v 48554.24512476 32873.94808468 -13726.58791158
v 47784.20171586 34027.91978027 -19816.72103069
v 48351.18212130 34646.15599877 -13556.90001405
v 49251.47548941 35604.06987687 -19610.60914218
v 47926.02472867 35592.19683543 -19913.20766712
v 48218.62418817 36347.36987938 -13437.94482777
v 48832.98073486 37105.44292816 -19595.86452913
v 47328.01988655 37514.87792728 -19952.89745872
v 48030.76574167 38057.18424659 -13410.09347003
v 48197.22920243 38873.63047849 -19548.97625832
v 46618.13156923 39355.86761625 -19875.75558072
v 47883.68904547 39784.14161498 -13435.54105108
v 47567.92182977 40242.36659670 -19451.51466966
v 47342.78294490 41581.86571323 -18912.28198793
v 47733.43917656 41399.02227642 -13531.09731184
v 48648.23915882 43086.78904266 -17461.48447463
v 47399.07516442 42895.00255494 -17953.09731893
v 47686.51811534 42830.59314658 -13775.26373925
v 47557.79542121 43826.56998096 -16978.75609985
v 47862.84295873 44499.10200493 -16091.07900496
v 47721.94987014 43997.41238218 -14175.85736939
v 47964.04998499 44860.32433725 -15352.36654059
v 47822.16275858 44707.47783283 -14702.70334754
v 49005.55494183 27593.19151184 -15364.32719150
v 47997.84724945 29685.82967980 -17578.34443694
v 48301.59349476 28587.70145383 -16332.84718398
v 48091.68252256 29025.03775444 -15270.24422305
v 47466.62869342 31102.03824886 -18515.97438576
v 47004.81887673 30644.83766648 -17634.00938482
v 47229.16079589 29888.16488458 -16504.77519116
v 47074.38067472 30102.66750404 -15557.87696234
v 47501.35750963 30230.70271529 -14865.73390289
v 47484.37305789 31613.86231435 -14366.59961911
v 46970.11758456 33001.81077463 -19301.99408926
v 46399.03926032 31873.01120950 -18197.47099032
v 46325.59709393 31172.61816211 -17063.63379760
v 46508.32445759 30749.52706578 -16116.65457213
v 46790.70591709 33737.31520117 -14079.94942120
v 46871.01103416 34711.12849132 -19846.99373762
v 47034.32864544 35307.10775855 -13664.20979478
v 46413.38607254 36205.59358748 -20004.37206396
v 46602.60721114 36781.72441227 -13594.82425782
v 45890.62466210 37856.17639266 -20080.16951650
v 46383.28565909 38536.43997537 -13495.60378174
v 45292.30203151 39172.71554437 -20012.37174792
v 46281.96809404 40202.78695575 -13450.81172084
v 46593.28920058 40791.02504125 -19557.23361848
v 45295.75034825 40664.71081559 -19732.14720788
v 46182.10741470 41749.30529544 -13558.88982574
v 45951.48257242 41674.26187756 -19305.47525152
v 45665.13780340 42719.24090900 -18552.62355096
v 46211.21809219 43152.02672170 -13867.89098218
v 45842.72680813 43648.43097450 -17332.10941265
v 46972.29872045 44804.87664245 -15533.85047663
v 46140.67900784 44343.22918170 -16100.22584219
v 46007.48720218 44637.67677346 -15244.00852137
v 46480.60024688 44233.34541610 -14355.55438050
v 46822.87885622 44789.33560262 -14938.47915692
v 46594.29644309 31140.90527738 -15325.02833649
v 45532.20386825 33331.47276308 -18642.07862658
v 45502.20651995 32503.22357251 -17494.15830713
v 45824.19617998 31890.11516786 -16272.34099180
v 45801.81645499 32814.66640223 -15170.58267261
v 45425.78683324 34968.58386324 -19494.31087737
v 44684.75753623 34335.37588370 -18792.97142756
v 44037.46818716 34737.61444584 -18347.84092064
v 44633.99279318 33774.90857640 -17926.63155871
v 44770.54908155 33432.97054930 -16560.04743226
v 44485.36282962 34351.80078609 -15420.95192760
v 45362.31408464 34129.82394191 -14612.31780589
v 45524.16938846 35351.66231947 -14119.29309719
v 45217.05970994 36732.07645539 -19915.94745241
v 43781.64723576 34761.05370325 -17284.25568889
v 44010.85872215 34442.51757367 -16333.43859237
v 44777.33987465 37401.23666346 -13984.30964914
v 44604.71710804 38109.11495943 -19908.76898208
v 45000.08625827 39138.37090709 -13643.45029205
v 44157.20472343 39701.75503037 -19779.88818576
v 44710.47435031 40530.55610486 -13617.76156121
v 43736.35689158 41327.98360373 -19451.12875835
v 44620.73381943 42008.38578054 -13726.56014314
v 44759.59382777 42067.72579377 -19267.70042813
v 44274.03470337 42860.01747902 -18755.21280622
v 44682.69702297 43379.50362099 -14216.71341187
v 44050.84683308 43383.22797574 -17782.02396890
v 44238.26750874 43859.61532151 -16389.90150152
v 45670.95150767 44373.36310499 -14708.19001906
v 44530.11531544 44019.67184675 -15149.05399761
v 44214.32175129 35258.74438068 -18980.07676007
v 44742.89277186 34834.89875966 -14671.86119256
v 44048.42230869 36685.83292590 -19368.96840478
v 43351.63867025 35955.23755396 -18281.06792555
v 42962.97535628 35993.64064471 -17153.52570362
v 43414.28101670 35506.37433909 -16100.01873317
v 44055.60222121 35855.92312737 -14843.36462688
v 42959.22457024 36714.61779000 -15410.40378214
v 43385.30917964 38562.31292700 -19411.28338798
v 43321.07668404 37408.66598169 -14664.08817719
v 43260.51043970 39216.43595316 -14134.72747832
v 42958.82658882 40183.01468718 -19274.26943167
v 43402.51492908 40911.09709204 -13801.25942250
v 42674.64932349 41380.89275209 -19039.26415233
v 42981.72861350 42057.34127215 -13956.48791534
v 43755.64400497 42429.42187784 -19121.39054974
v 42953.52363172 42265.46820621 -18946.50056996
v 42729.60518339 43048.53726361 -14460.53391844
v 43331.13656402 42965.85513934 -18566.90516797
v 42809.56238914 43193.04272277 -17841.57851597
v 42523.17051778 43353.19572658 -16665.91427193
v 42637.18771118 43495.28890007 -15381.92451207
v 42795.31603774 37611.73107432 -18632.38638109
v 42404.08895256 37175.43917540 -17551.76109639
v 42464.71426922 36954.02153182 -16362.13382414
v 42312.25723754 39216.79999083 -18629.61379774
v 41984.64831686 38434.21515921 -17859.77912703
v 41645.00704444 38539.18515935 -16640.07117188
v 42200.70145554 38241.59168319 -15297.03557951
v 42025.40668272 40752.62645433 -18440.53430227
v 41420.80834768 39888.16215430 -17408.76693798
v 40926.73120894 39856.15560871 -16303.73420841
v 41089.72815304 39604.89468926 -15490.78766540
v 41658.77005708 39726.96773760 -14657.01683540
v 42010.79912404 40799.75474217 -14109.25391778
v 42148.84660285 42015.66809981 -18361.37536089
v 41292.77661314 41620.72355581 -17191.07260668
v 40661.42432046 40858.54807907 -16265.09074401
v 41137.98309201 41999.47674629 -14118.07469199
v 42557.17715916 42770.20221742 -18348.58561021
v 41993.23903180 42732.67275418 -17511.74475095
v 40405.56561523 41947.43766975 -15627.08442826
v 41232.55406009 42687.67128776 -16288.87043008
v 40571.92892396 42690.98749123 -15297.95763626
v 41057.43624858 42812.65560151 -14583.48597739
v 41315.63524775 43102.81861105 -15454.10113531
v 40527.97518871 40501.72651581 -15585.31755444
v 40490.57702038 41009.19363050 -14590.20643546
v 40231.97451896 41229.03745016 -15317.30438560
v 39857.71239507 41741.24445044 -14638.99088718
v 39601.38886308 41722.58997418 -14110.80643494
v 39809.98691830 41843.19992018 -13946.18399966
v 39970.85875363 42242.43684994 -14012.77583277
v 39446.58371715 42068.33812212 -13781.80410316
v 40594.43703726 42844.10504014 -14877.63921915
v 40003.93124155 42367.21122549 -14533.15084399
v 39451.25464672 42158.80642910 -13915.18160034
v 39459.99724674 42015.61983630 -14091.12473709
v 39351.74991438 41971.77531962 -13833.44155742
f 3 2 1
f 5 4 1
f 1 4 3
f 5 6 4
f 1 2 7
f 7 2 8
f 1 9 5
f 1 7 9
f 6 5 10
f 10 5 9
f 7 8 11
f 11 8 12
f 7 13 9
f 7 11 13
f 10 9 14
f 14 9 13
f 11 12 15
f 15 12 16
f 11 17 13
f 11 15 17
f 14 13 18
f 18 13 17
f 15 16 19
f 19 16 20
f 15 21 17
f 15 19 21
f 18 17 22
f 22 17 21
f 19 20 23
f 23 20 24
f 19 25 21
f 19 23 25
f 22 21 26
f 26 21 25
f 23 24 27
f 27 24 28
f 23 29 25
f 23 27 29
f 26 25 30
f 30 25 29
f 27 28 31
f 31 28 32
f 27 33 29
f 27 31 33
f 30 29 34
f 34 29 33
f 32 35 31
f 31 35 33
f 33 35 36
f 33 36 34
f 38 37 3
f 3 37 2
f 39 3 4
f 39 38 3
f 4 6 39
f 39 6 40
f 43 42 41
f 37 43 41
f 8 37 41
f 2 37 8
f 10 40 6
f 10 44 40
f 41 42 45
f 45 42 46
f 45 12 8
f 45 8 41
f 14 44 10
f 14 47 44
f 45 46 48
f 48 46 49
f 48 16 12
f 48 12 45
f 18 47 14
f 18 50 47
f 48 49 51
f 51 49 52
f 51 20 16
f 51 16 48
f 22 50 18
f 22 53 50
f 51 52 54
f 54 52 55
f 54 24 20
f 54 20 51
f 26 53 22
f 26 56 53
f 54 55 57
f 57 55 58
f 57 28 24
f 57 24 54
f 30 56 26
f 30 59 56
f 57 58 60
f 60 58 61
f 60 32 28
f 60 28 57
f 34 59 30
f 34 62 59
f 61 63 60
f 63 65 64
f 63 64 35
f 60 63 35
f 32 60 35
f 66 36 35
f 66 35 64
f 66 67 36
f 67 34 36
f 67 62 34
f 64 65 68
f 68 65 69
f 64 70 66
f 64 68 70
f 67 66 71
f 71 66 70
f 69 72 68
f 68 72 70
f 70 72 73
f 70 73 71
f 76 75 74
f 74 77 76
f 79 78 38
f 38 78 37
f 39 74 75
f 79 39 75
f 38 39 79
f 39 40 74
f 40 77 74
f 40 80 77
f 82 81 43
f 43 81 42
f 43 37 78
f 43 78 82
f 44 80 40
f 44 83 80
f 81 46 42
f 84 46 81
f 47 83 44
f 47 85 83
f 88 87 86
f 84 88 86
f 49 84 86
f 46 84 49
f 50 85 47
f 50 89 85
f 86 87 90
f 90 87 91
f 90 52 49
f 90 49 86
f 53 89 50
f 53 92 89
f 91 93 90
f 52 90 93
f 94 52 93
f 55 52 94
f 56 92 53
f 56 95 92
f 94 58 55
f 96 58 94
f 59 95 56
f 59 97 95
f 96 61 58
f 98 61 96
f 62 97 59
f 62 99 97
f 63 61 100
f 61 101 100
f 61 98 101
f 100 65 63
f 67 99 62
f 67 102 99
f 101 103 100
f 65 100 103
f 104 65 103
f 69 65 104
f 71 102 67
f 71 105 102
f 72 69 106
f 69 107 106
f 69 104 107
f 108 73 72
f 108 72 106
f 108 109 73
f 109 71 73
f 109 105 71
f 107 110 106
f 106 110 108
f 108 110 111
f 108 111 109
f 112 75 76
f 77 112 76
f 113 78 79
f 114 113 79
f 114 79 75
f 115 114 75
f 112 115 75
f 112 77 115
f 77 116 115
f 77 80 116
f 118 117 82
f 82 117 81
f 82 78 113
f 119 82 113
f 118 82 119
f 119 113 114
f 83 116 80
f 83 120 116
f 123 122 121
f 117 123 121
f 84 117 121
f 81 117 84
f 85 120 83
f 85 124 120
f 121 122 88
f 122 87 88
f 122 125 87
f 121 88 84
f 89 124 85
f 89 126 124
f 125 91 87
f 127 91 125
f 92 126 89
f 92 128 126
f 93 91 129
f 91 130 129
f 91 127 130
f 129 94 93
f 95 128 92
f 95 131 128
f 129 130 132
f 132 130 133
f 132 96 94
f 132 94 129
f 97 131 95
f 97 134 131
f 132 133 135
f 135 133 136
f 135 98 96
f 135 96 132
f 99 134 97
f 99 137 134
f 136 138 135
f 98 135 138
f 139 98 138
f 101 98 139
f 102 137 99
f 102 140 137
f 103 101 141
f 101 142 141
f 101 139 142
f 141 104 103
f 105 140 102
f 105 143 140
f 142 144 141
f 104 141 144
f 145 104 144
f 107 104 145
f 109 143 105
f 109 146 143
f 145 147 107
f 107 147 110
f 110 148 111
f 147 148 110
f 109 111 146
f 146 111 148
f 149 114 115
f 116 149 115
f 150 117 118
f 119 151 118
f 118 151 150
f 114 149 119
f 149 151 119
f 149 152 151
f 120 152 116
f 116 152 149
f 153 122 123
f 117 150 123
f 150 153 123
f 150 154 153
f 155 150 151
f 154 150 155
f 152 157 156
f 155 152 156
f 151 152 155
f 152 120 157
f 120 158 157
f 120 124 158
f 160 159 153
f 159 122 153
f 159 125 122
f 160 153 154
f 160 154 161
f 161 154 155
f 161 155 162
f 162 155 156
f 126 158 124
f 126 163 158
f 159 127 125
f 164 127 159
f 128 163 126
f 128 165 163
f 164 130 127
f 166 130 164
f 131 165 128
f 131 167 165
f 166 133 130
f 168 133 166
f 134 167 131
f 134 169 167
f 168 136 133
f 170 136 168
f 137 169 134
f 137 171 169
f 138 136 172
f 136 173 172
f 136 170 173
f 172 139 138
f 140 171 137
f 140 174 171
f 173 175 172
f 139 172 175
f 176 139 175
f 142 139 176
f 143 174 140
f 143 177 174
f 176 178 142
f 142 178 144
f 180 179 145
f 144 180 145
f 178 180 144
f 181 179 180
f 146 177 143
f 146 182 177
f 179 147 145
f 181 183 179
f 183 147 179
f 183 148 147
f 146 148 182
f 182 148 183
f 184 156 157
f 158 184 157
f 185 159 160
f 161 186 160
f 160 186 185
f 162 187 161
f 161 187 186
f 156 184 162
f 184 187 162
f 184 188 187
f 163 188 158
f 158 188 184
f 190 189 185
f 189 159 185
f 189 164 159
f 192 191 190
f 185 192 190
f 186 192 185
f 193 186 187
f 192 186 193
f 188 195 194
f 193 188 194
f 187 188 193
f 188 163 195
f 163 196 195
f 163 165 196
f 189 166 164
f 197 166 189
f 198 191 192
f 198 192 193
f 198 193 199
f 199 193 194
f 167 196 165
f 167 200 196
f 197 168 166
f 201 168 197
f 169 200 167
f 169 202 200
f 201 170 168
f 203 170 201
f 171 202 169
f 171 204 202
f 203 173 170
f 205 173 203
f 174 204 171
f 174 206 204
f 205 207 173
f 173 207 175
f 176 175 207
f 176 207 208
f 177 206 174
f 177 209 206
f 208 210 176
f 176 210 178
f 178 211 180
f 210 211 178
f 213 212 181
f 180 213 181
f 211 213 180
f 213 209 212
f 209 182 212
f 209 177 182
f 212 183 181
f 183 212 182
f 214 189 190
f 191 214 190
f 215 194 195
f 196 215 195
f 217 216 214
f 216 189 214
f 216 197 189
f 217 214 191
f 198 217 191
f 218 217 198
f 219 198 199
f 219 218 198
f 219 199 194
f 220 219 194
f 215 220 194
f 219 220 221
f 200 220 196
f 196 220 215
f 216 201 197
f 222 201 216
f 223 221 220
f 220 200 223
f 200 224 223
f 200 202 224
f 222 203 201
f 225 203 222
f 204 224 202
f 204 226 224
f 225 205 203
f 227 205 225
f 206 226 204
f 206 228 226
f 207 205 229
f 205 230 229
f 205 227 230
f 229 208 207
f 209 228 206
f 209 231 228
f 230 232 229
f 229 232 208
f 232 210 208
f 232 233 210
f 210 234 211
f 233 234 210
f 211 235 213
f 234 235 211
f 209 213 231
f 231 213 235
f 236 216 217
f 218 237 217
f 217 237 236
f 219 238 218
f 218 238 237
f 221 238 219
f 239 222 236
f 236 222 216
f 240 236 237
f 239 236 240
f 241 237 238
f 240 237 241
f 223 242 221
f 242 238 221
f 242 241 238
f 224 242 223
f 243 225 239
f 239 225 222
f 244 239 240
f 243 239 244
f 241 246 245
f 244 241 245
f 240 241 244
f 246 241 242
f 246 242 247
f 242 224 247
f 224 248 247
f 224 226 248
f 249 227 243
f 243 227 225
f 250 243 244
f 249 243 250
f 244 245 251
f 244 251 250
f 228 248 226
f 228 252 248
f 253 230 249
f 249 230 227
f 254 249 250
f 253 249 254
f 250 251 255
f 256 250 255
f 254 250 256
f 257 256 255
f 231 252 228
f 231 258 252
f 253 232 230
f 232 253 233
f 233 253 254
f 233 254 234
f 234 254 256
f 257 259 256
f 259 234 256
f 259 235 234
f 231 235 258
f 258 235 259
f 260 245 246
f 247 261 246
f 246 261 260
f 248 261 247
f 262 251 260
f 260 251 245
f 261 264 263
f 262 261 263
f 260 261 262
f 248 252 261
f 252 265 261
f 265 264 261
f 265 252 266
f 266 267 265
f 262 255 251
f 269 268 257
f 269 257 255
f 263 269 255
f 262 263 255
f 269 270 266
f 258 269 266
f 252 258 266
f 268 269 258
f 266 270 267
f 268 259 257
f 259 268 258
f 271 263 264
f 265 272 264
f 264 272 271
f 267 272 265
f 271 269 263
f 269 271 270
f 270 271 272
f 270 272 267

