# https://github.com/mikedh/trimesh
v 27737.42281236 10148.32585762 -19559.11452920
v 27603.85947558 10205.79929724 -19533.36933994
v 27506.76755299 10168.97733497 -19526.34753435
v 27459.17805859 10136.10353912 -19388.54723252
v 27556.26998118 10172.92550139 -19395.56903811
v 26765.48356278 9187.48381589 -15469.17562512
v 26679.68606756 9342.63821425 -16195.93368372
v 26135.08480678 8806.22429528 -15980.97160065
v 26497.55198554 8825.98675534 -15199.60350318
v 26675.72584186 9147.46663542 -14949.54613625
v 26305.52251085 8897.93911517 -14825.98666188
v 27007.75296988 10325.43298628 -19388.75024002
v 26768.39569661 10139.73292977 -19245.99091492
v 26786.51671680 10168.26921358 -18726.33365154
v 26880.17241525 9687.57112334 -15768.02092695
v 26717.02801426 9767.61501071 -15117.33425980
v 26696.39763843 10327.96286629 -15775.92521622
v 26247.04473358 9400.76439404 -14666.06747994
v 27236.92894768 10303.13196227 -19292.62561833
v 26458.65507911 10502.24699141 -15173.99426429
v 26204.33981308 10961.79404754 -15689.83084911
v 26068.65218805 10184.57724690 -14721.80127005
v 25761.52538175 10963.85652922 -15099.30088593
v 26165.23284743 9417.48628561 -17322.98885968
v 25223.36611444 9053.97812061 -17787.58710600
v 24916.09424678 8626.27106793 -16890.46147977
v 25185.38922294 8433.01451709 -15812.39262052
v 25842.37640903 8616.79685600 -15195.43696458
v 25540.03400774 8946.86090425 -14702.90827747
v 25583.93293649 10505.39795487 -19159.43647041
v 25356.75937206 9681.16016213 -18638.28911661
v 26561.70728450 10262.88914250 -17511.66606364
v 26685.78404155 9971.84493303 -16541.97854308
v 25274.34758426 9675.02254657 -14485.01764857
v 26389.42873181 10688.51608999 -18925.48629057
v 26274.93166570 10868.73279322 -18061.07842055
v 25835.83228653 11209.09680227 -18433.90678177
v 26230.35793066 10890.65450003 -16746.72659179
v 25043.09170949 10569.61605312 -14612.68015105
v 25139.34536939 11731.08678235 -17704.14905079
v 25107.87248448 11684.71113578 -16044.52278185
v 24826.39842017 11303.77540014 -15055.62986031
v 24104.07029467 8894.68035137 -17996.66635880
v 23141.75505585 8379.88690501 -17118.19829382
v 23918.52545644 8301.56294245 -16033.37253445
v 24707.87275242 8518.76989870 -15178.70983650
v 24233.44241028 9057.75791873 -14655.61466064
v 24119.98631955 10222.63315972 -19162.27052662
v 23332.38241720 9500.90995816 -18841.18367912
v 23874.58707740 9957.75180746 -14473.13447814
v 25145.56797345 11290.56665829 -18746.02609954
v 23585.18933081 11184.35301860 -19158.30401741
v 23781.61663990 10968.81142346 -14725.33525471
v 23829.00809681 12055.76637759 -18504.42725436
v 23844.81417223 12527.90941081 -17812.04030212
v 22666.84138773 12759.49371902 -18164.19429201
v 24075.73233759 12485.10948592 -16985.04085115
v 23809.36291586 12364.57049205 -16149.73894505
v 23879.69391150 11802.24103828 -15382.77952415
v 23109.77737916 12893.18549816 -17461.76359696
v 22892.39564854 12817.25823598 -16723.06176215
v 22293.91538707 8773.26138506 -18169.66390138
v 21256.37649112 8291.94230855 -17240.60981379
v 22173.05406162 8217.42990950 -16159.37434003
v 23158.92350880 8507.26363736 -15239.73773314
v 22530.54675940 9186.76487726 -14691.65175037
v 22421.42736865 10350.24871452 -19312.86009333
v 21403.95473978 9483.68023190 -18983.12583302
v 22017.77139631 10318.50032173 -14588.60706491
v 21412.81933111 11376.64932182 -19391.40494524
v 21714.06426419 11950.10369275 -15318.93606361
v 20598.51091468 12001.34178618 -15352.21136771
v 21393.91843136 12435.44511166 -15786.19025713
v 22576.31560846 11492.46282542 -15024.54047157
v 21040.73236886 11241.10463616 -14867.54952078
v 22169.76322831 12209.41433326 -18907.82377714
v 20965.31994353 12949.77311431 -18415.08311348
v 22626.26750952 12345.66130584 -15800.82614945
v 21574.45836559 12864.41861090 -16466.06282042
v 21674.87149474 13105.70571190 -17452.03904532
v 20354.51372611 8738.43698037 -18266.96005425
v 19302.49563912 8271.60323394 -17294.26819010
v 20253.90810058 8184.30121335 -16222.10365416
v 21309.43872688 8510.00764318 -15294.50561872
v 20523.64164477 9228.82038691 -14719.89392183
v 20442.57753222 10430.17598435 -19447.45413687
v 19428.15506514 9501.64707722 -19061.01716733
v 19563.84669729 10244.49240524 -14542.36262664
v 19394.19014982 11488.90642543 -19536.46946426
v 19480.42148344 12135.09319308 -15398.89721642
v 20109.23442176 12697.49929741 -16052.95446938
v 19479.02979650 11394.72587564 -14889.77563360
v 20237.55508595 12370.92355120 -19140.11535134
v 18990.33391480 13180.61822846 -18613.96540033
v 20329.54792973 13165.19182031 -16906.09901233
v 19711.04704919 13351.40701194 -17712.65945859
v 18386.99965529 8744.09381699 -18302.79232347
v 17352.33412215 8291.08791779 -17305.67906524
v 18291.48307545 8183.67206252 -16242.72680300
v 19331.98608884 8493.92607630 -15313.06732513
v 18473.68101514 9139.07892743 -14684.48100325
v 18452.04129168 10482.47168502 -19518.92018737
v 17454.20699583 9527.00861485 -19079.30155151
v 17660.57386332 9819.21429825 -14401.38514214
v 17416.50307457 11562.06315693 -19618.40328490
v 18676.35174279 12571.18306684 -15739.65923946
v 18239.93335044 11899.22936434 -15091.79089125
v 17673.38053214 10860.37375108 -14524.01016647
v 18230.90890002 12528.83397185 -19288.39693753
v 16796.40028544 13517.71975487 -18761.67651127
v 16996.51681373 12615.35650069 -15521.55157258
v 18269.04348083 13287.93185976 -16674.17299640
v 16836.41908139 11710.63726310 -14792.08211915
v 17691.29538889 13705.64788924 -17878.97818148
v 16446.74180330 8775.08094887 -18288.72180225
v 15471.78403029 8354.71148831 -17290.42982397
v 16365.86108492 8231.82732435 -16247.59711145
v 17368.62068943 8496.32200495 -15305.41438792
v 16584.12459802 9133.90337333 -14637.81336872
v 16482.87241565 10519.35509036 -19530.74378043
v 15507.90622875 9562.21584777 -19032.69476942
v 16082.08853165 10027.50433826 -14335.08758045
v 15486.12616588 11608.33803008 -19646.80901523
v 15708.94158092 11040.23230105 -14397.59607902
v 16313.20729885 12618.35365637 -19420.16145300
v 15229.34794568 13445.09035263 -19117.28234903
v 15040.07289540 13012.20188975 -15471.99252670
v 16215.43977949 13445.98785804 -16226.46306435
v 15384.17871982 12043.51886879 -14809.75175057
v 16062.10658796 14137.16825261 -18044.30332992
v 14695.14077588 14254.09153025 -18464.76974720
v 15993.82895279 14048.42387693 -17146.38565818
v 14858.55545145 14519.27104002 -17713.82109862
v 14586.42808464 8837.48141224 -18211.39988497
v 13760.89638287 8473.24015208 -17252.30369419
v 14534.21283272 8353.69638251 -16266.20616842
v 15468.58123302 8590.10016797 -15308.24342917
v 14714.70408961 9325.66420284 -14618.52309045
v 14530.38248605 10558.31052477 -19471.77910664
v 13581.59865613 9624.49882409 -18879.44205688
v 14264.73070005 10300.23481511 -14274.53991725
v 13567.27083236 11654.91714379 -19604.79920107
v 13959.45826542 11342.03198640 -14324.29995717
v 14503.53384163 12680.33187945 -19484.30666087
v 13599.57159730 13703.67833646 -19071.53149977
v 13295.80527028 13414.99508998 -15360.90989766
v 14580.97751676 13881.13641617 -16233.64987581
v 13619.15366763 12395.45532809 -14727.96227201
v 12607.51105160 14689.54415099 -18434.91671780
v 13969.43185637 14593.11497744 -16966.54289441
v 13329.81908877 14924.46185708 -17696.86717219
v 12890.89808152 8937.03563526 -18016.97468960
v 12470.36627370 8642.72730955 -17197.02122541
v 12876.79575808 8558.74044205 -16346.38740119
v 13602.62319240 8794.86556007 -15354.46438890
v 12589.24244168 9681.13059711 -14570.41498526
v 12554.41227772 10633.53673812 -19322.81966478
v 11510.23590014 9750.79862931 -18503.04373713
v 12693.48470084 10674.02210892 -14161.36510928
v 11629.79612457 11718.11904069 -19505.73245437
v 12116.41658203 11663.18539266 -14132.25254202
v 12638.10965069 12765.85661200 -19445.49712332
v 11648.11277274 13888.03554752 -19029.38138991
v 11797.18902460 13866.77500012 -15102.68656123
v 12843.83310425 14345.15780283 -16035.01510665
v 11904.43597057 12838.06606028 -14494.64589871
v 10524.25710711 15179.06132281 -18366.94583553
v 12054.06822047 15239.42364140 -16654.73738651
v 11550.89891630 15535.81093091 -17587.38807217
v 11628.95717895 9033.59783107 -17585.72007345
v 11430.80360007 8909.01505006 -16619.89283248
v 11817.16974979 9041.77570548 -15512.54254067
v 10553.80578964 10842.69804974 -19176.03909310
v 9495.41653430 10337.53604688 -18514.03533276
v 10040.17126182 9573.49913089 -17300.63876776
v 10069.83709518 9421.96535578 -15742.84961654
v 10710.26862353 9656.22218494 -14769.93344747
v 10700.28572256 10630.42623907 -14006.24547266
v 9722.81672344 11800.44565264 -19370.45511423
v 9963.76292340 12279.33428645 -13423.89462036
v 10731.16915197 12770.61651988 -19371.86347899
v 9563.24723815 13839.15239186 -19009.29161661
v 10744.04576381 14324.56769821 -14663.61395250
v 11399.93962298 14788.12385482 -15571.35256933
v 10770.11932857 13500.10370606 -14235.57542824
v 8998.94356939 15117.65750212 -18605.26068694
v 10816.57052674 15620.76937333 -15777.61631290
v 10147.81172635 16208.53606077 -17489.34729918
v 8884.05458879 16317.93695470 -17886.87337037
v 10441.95435775 16311.39670356 -16452.09405291
v 9104.12091721 18474.69188876 -11411.73869855
v 9140.22187351 18504.28789666 -12596.45093392
v 9164.99659224 17545.79944813 -12121.32626424
v 8793.54968949 17328.33211081 -10642.48524147
v 8899.78727788 18665.89846080 -10361.65150236
v 8628.00595677 18378.98367533 -9558.51031955
v 9187.92143522 17145.86027228 -16749.55265862
v 9060.08770820 19243.40176195 -11914.36386976
v 8968.76009186 19300.52934632 -12609.68232211
v 8906.60501384 19493.15854384 -10928.49326706
v 8502.79666462 19637.30994502 -9454.38071072
v 8581.17741892 20268.02335701 -12058.61340106
v 8542.16225657 20491.63401943 -10542.85739668
v 8511.78373368 11269.67538190 -19085.09194843
v 8186.41858688 10854.57497546 -18657.02006874
v 8345.53695981 10381.44445485 -17766.55189683
v 8084.30256637 10046.50167108 -16034.77235280
v 8672.64220644 10060.04079224 -14318.37517761
v 8492.61237242 10939.89618799 -13083.36319876
v 7875.36374202 11913.49153939 -19113.25885049
v 9107.41688446 12590.26240398 -19266.19263631
v 7680.41743009 12762.15005473 -18971.52973561
v 8238.50185162 11766.04543893 -12392.86091016
v 8144.99409622 14354.30282816 -18869.42643972
v 10333.55780841 15212.98779938 -14779.03802063
v 9633.26397776 14339.18487459 -13356.06600767
v 8177.02407529 12960.24407627 -11749.11068616
v 8555.72961569 14706.36976474 -11560.62300614
v 7838.72127977 14112.67513585 -10600.03296143
v 7778.98942063 15547.07616405 -18484.45978116
v 9969.84011655 16334.28181614 -15038.16508930
v 9660.88523568 15857.32376210 -13869.99579598
v 9115.88747056 16114.75168976 -12311.50442789
v 8082.86435898 15090.63423885 -10386.34515221
v 8551.48231453 15851.19903677 -10904.55167542
v 8097.14044764 16178.97550970 -9661.08671395
v 7337.82818427 16829.08008223 -17808.03136603
v 9310.87912239 17490.30733120 -15311.16421085
v 9322.96200585 17288.81556634 -13621.76674558
v 8219.60345984 17550.01651166 -8994.09999715
v 8253.59283410 18760.86303102 -8577.06104052
v 7779.48247042 18144.33456820 -7847.26853993
v 8070.83165919 17488.94382788 -17084.66376953
v 8149.68551181 18430.00567273 -15757.03304204
v 8675.67906710 18994.06358824 -13826.92790968
v 7886.76634174 19493.89148750 -14697.78943158
v 8159.45146811 19552.11098300 -8383.19675070
v 7734.80310740 19348.10780567 -7572.70303158
v 7546.35030860 20655.15298185 -13627.56784915
v 7941.28517042 21820.35933749 -12101.44785381
v 7377.43912002 22080.06305585 -12667.09772376
v 8154.63494708 21614.01264509 -10934.48426488
v 7983.01172335 21172.50050109 -9519.85150198
v 7789.98637942 20428.62543451 -8173.92895972
v 7635.54938548 22749.31600896 -11985.75567575
v 7046.15279374 22827.97890314 -12153.22105819
v 7805.17951079 22862.79097156 -11305.42065899
v 7467.34187070 22484.50350318 -10232.46697149
v 7594.76181941 23398.70820465 -11649.15057951
v 7370.51229030 23524.07220910 -11599.65708214
v 7672.84614732 23575.68201928 -11330.76438892
v 7578.78217977 23307.81406383 -10974.71498382
v 7587.53480878 23730.52039149 -11468.86169765
v 7290.83031991 11473.36933045 -18894.14047921
v 7466.81138758 11351.51861195 -18535.41958810
v 7026.40108921 10819.65335768 -17174.87724001
v 6203.14554932 10685.01231694 -15567.13345096
v 6589.99466826 10228.16744684 -14245.65610606
v 6459.71169113 10300.22757101 -12466.49466058
v 7233.39248710 11145.79731935 -11934.73720046
v 6140.14550424 10753.35390288 -11038.97797288
v 6705.63111383 12285.56900678 -19041.90320680
v 7069.69854485 12143.78679086 -18976.01689859
v 6155.99044386 11992.49011820 -18574.08020639
v 6622.87041865 11699.17601322 -18220.56158855
v 7029.40633947 11671.09365044 -18816.36010044
v 5729.82366398 11398.48898922 -16652.21649222
v 7566.32077384 11853.71592982 -11730.97965104
v 6805.66820103 11832.12752773 -10764.72572122
v 6815.22978371 12951.30466556 -19085.84726723
v 6745.60237249 14353.65656135 -18833.73236529
v 7114.54234751 13232.31553282 -10037.90204856
v 7363.88491593 14812.40799894 -9234.01045713
v 6445.15805424 13644.49232891 -8498.94933120
v 6607.76243173 15099.74776255 -7562.34621260
v 5971.90635532 14091.10749965 -7192.49777292
v 6629.47689164 15912.57329389 -18324.59061258
v 7387.60900054 16657.11811685 -7949.16314678
v 6027.85339864 15109.44363542 -6435.48473826
v 6422.77390362 16540.71798959 -6200.75768710
v 5764.16539906 15728.00947521 -5522.77638093
v 6010.85262409 16972.56711434 -17695.29482281
v 7006.09563538 18491.72367560 -6433.72565648
v 5826.99479091 16779.48978798 -4970.92385371
v 6142.47637836 18055.65438154 -4938.14494578
v 5519.83071228 17541.35060204 -4186.00548919
v 6753.74840881 18192.78524072 -16736.13334030
v 7016.89098486 19545.27775811 -15313.29823255
v 5631.18716741 19371.27302721 -15886.88165671
v 6977.53173394 20685.69706219 -6415.73111617
v 6224.03683408 20013.82290508 -4622.80299672
v 5574.45204873 18900.92903973 -3796.29575243
v 6078.89681366 20562.17677109 -14662.98070384
v 6365.61205658 21716.63633829 -13330.26353220
v 5188.04413720 21203.94016252 -14186.52060476
v 6853.96285619 21986.66123357 -8060.51082848
v 6454.04532491 22333.09701372 -5924.98281685
v 6232.63975757 21928.91451968 -4667.99205672
v 5523.99075334 20222.41895005 -3412.94973906
v 5639.96028323 21528.83989067 -3501.48977217
v 4898.28788892 20872.73817465 -2843.39525508
v 5438.79535117 21734.14873233 -13398.29929142
v 5704.42138230 22136.80174252 -12287.77586513
v 6868.63072456 23107.05531415 -11396.90845436
v 7166.99332247 23146.92519172 -10807.48964654
v 6199.49508106 22447.92367189 -10227.47638603
v 5540.75068392 22493.64162974 -8176.61258267
v 5802.16171373 23253.40988506 -6193.48656156
v 4691.79425787 23019.53124859 -6770.14316578
v 5944.63183804 23428.93682944 -4655.37409209
v 5615.10432081 23134.04899648 -3549.80008354
v 4920.16312313 22533.85119794 -2818.08059881
v 7436.16287251 23593.23346627 -11264.30034359
v 5078.91604371 24139.74156077 -5517.62987736
v 5461.35018575 24675.91751083 -4544.02254495
v 4790.74538195 25026.23827536 -4645.60564283
v 5476.41354051 24553.73769646 -3596.64679955
v 4948.99888889 24129.03841226 -2900.92829788
v 5123.31336819 25617.00518292 -4000.45420759
v 4591.53330933 25744.03485604 -3901.38887868
v 5278.89769614 25585.25704882 -3571.54283135
v 4993.72357653 25368.62875869 -3039.23061583
v 4998.14595846 26025.49861274 -3538.06860879
v 4972.26543826 25996.58282256 -3193.99919805
v 4962.22392658 10034.06676002 -10462.66796588
v 4867.91601059 9988.26082199 -11590.20614651
v 4102.23074101 9785.17037982 -10546.67227902
v 3688.72697764 9576.78740780 -9179.68849183
v 4313.19419408 9965.95912199 -8686.48426716
v 3523.96803057 9475.77753678 -7888.23650407
v 3894.39904228 9838.51697704 -7560.56145712
v 3449.81923967 9618.42262701 -7035.09898492
v 5323.28771444 10705.72332068 -14144.93009202
v 5160.58303324 10334.60838290 -12832.23174653
v 5460.47242210 11081.91252277 -9369.41017454
v 4475.28763464 10868.16313158 -7447.06101137
v 3751.40296773 10161.59648505 -6698.37586961
v 5572.92893081 12670.46992316 -18684.86707304
v 5164.29773719 12617.39029807 -18142.80261227
v 5265.95595388 12159.70196172 -17437.66996509
v 4826.50343454 12022.36440667 -16238.58989652
v 4446.73344152 12766.95359734 -16423.82460574
v 4824.03643254 11579.05061803 -14994.93327134
v 6232.38426165 12396.53315318 -9288.46127173
v 5471.44788757 12594.19119189 -7656.42636107
v 3992.03691525 10980.35887348 -6226.06819932
v 4446.38673981 12363.54345955 -5913.90573360
v 3699.45432265 11491.05061282 -5372.84066911
v 3813.13266564 12660.44164488 -4738.30574669
v 3230.04499586 12033.92516011 -4620.56691639
v 6201.43786561 13411.65599224 -19036.91969986
v 5535.99359385 13381.68777004 -18798.62135876
v 4253.74420804 12628.43574389 -15420.42069874
v 5310.52130429 14264.27001324 -5890.18819348
v 4281.56547632 14195.46891142 -4428.67053209
v 3379.79930691 13501.87536816 -3883.73863280
v 5675.07291642 14235.91453257 -18762.05172699
v 5530.13269668 15567.99777769 -18228.98641490
v 5111.67283488 16043.67777753 -4440.78724943
v 3663.44200427 14757.17815477 -3457.84219769
v 4143.92724091 15972.64822271 -3459.13426066
v 3344.91108418 15658.74295128 -3058.57220960
v 4979.24397485 16855.57380973 -17486.75621320
v 4745.88275016 17846.68012985 -3364.77846792
v 3662.40126046 17309.28663884 -2926.73067964
v 5221.07908760 18061.22642693 -16855.36716809
v 4229.46658616 19057.75254642 -15959.56070814
v 4995.20940076 19510.12283238 -3067.31942897
v 4056.40013601 19448.87830146 -2749.69319824
v 4762.99900151 20282.41355730 -15166.97481552
v 4141.21156432 20855.55623834 -14566.95880037
v 4821.40666325 21601.56952183 -11310.45470473
v 3924.55196377 20761.13567104 -12118.42599573
v 4303.01989854 21298.32753851 -12722.22675032
v 4854.67354207 21769.65109995 -9676.00191372
v 4012.49899991 20726.64166939 -10884.42741683
v 4551.39342563 22019.31755488 -8283.52122940
v 3922.67231620 20938.84547815 -9303.35039295
v 3657.02738733 21584.63776157 -7578.23885709
v 4046.49562065 21557.25763712 -2574.62681444
v 4546.04600933 21420.91393782 -13606.73834339
v 3684.83290687 22980.77659436 -6184.52634754
v 4120.35796561 23349.15125055 -2589.12359374
v 4287.70133441 24100.96664256 -5499.01271962
v 3813.94278361 24894.37930550 -4470.45003349
v 4234.50110312 24918.84121602 -2750.58108313
v 3945.58208639 25646.93928835 -3605.05929884
v 4568.93119815 26034.08940691 -3307.84672918
v 4602.37973024 25808.79599758 -2960.12683195
v 4033.78688916 25638.30414792 -3050.42130442
v 3936.22021383 10353.07453687 -11366.84352676
v 3325.67981051 9950.87339910 -9833.86875794
v 2956.41682702 9746.48494302 -8693.87352792
v 2975.81731672 9541.57465219 -7852.57612358
v 3015.62631613 9560.94514887 -6940.87050289
v 3171.22136539 10004.51246861 -6169.72452292
v 2727.74210081 9956.41790994 -6153.14598113
v 4162.78323781 11300.59870074 -12931.78840817
v 3359.18477702 11358.97830000 -11339.11028817
v 3004.58196180 10892.07562898 -10118.73755191
v 2649.36136490 10497.00296222 -8809.09486574
v 3548.61420261 10575.50915807 -5897.46754067
v 2784.19553704 10436.44120122 -5566.41989850
v 3161.24307441 10870.94221125 -5331.80896066
v 2711.55685714 11393.42625875 -4957.72699382
v 4861.21654324 13445.02600762 -18174.75187811
v 4520.01633205 13226.30005550 -17231.20407888
v 3741.05053985 12972.04894412 -13753.65651407
v 3231.11037818 12599.21612873 -11805.33223701
v 2757.23922632 12243.09551131 -10259.67294180
v 2399.50720203 11804.16970220 -8863.15427619
v 2748.89368816 12742.65497091 -4185.80075129
v 4917.30756100 14512.38812029 -18219.97683400
v 4231.15352249 14616.19431719 -17144.35106066
v 3820.00274963 14170.75430356 -15438.53112489
v 3299.69506471 14714.69056472 -13433.06133773
v 3041.30572688 14294.74289947 -11976.98514103
v 2645.92275246 13887.39037319 -10374.47380534
v 2261.69356568 13446.44372890 -8880.62114100
v 2842.99058540 13867.59452114 -3535.97201093
v 3171.51817544 14524.68372488 -3261.65108172
v 2749.48428742 14927.82017240 -3257.77596706
v 4448.09213123 15951.58544770 -17368.40113806
v 3571.02393310 16623.51452297 -15733.49726220
v 3226.22539381 16238.77546013 -13824.29649264
v 2973.57782858 16100.03686139 -12001.49497068
v 2642.19625720 15740.10342747 -10359.38547036
v 2248.59845635 15269.22220547 -8851.68492223
v 2819.25318938 16458.29946805 -3075.56436434
v 4198.70111959 17508.74837638 -16642.55915418
v 3439.01234848 18321.75001597 -15750.03432532
v 3063.88616963 18198.59686471 -15062.38666576
v 2896.02877038 18889.25663250 -14468.92093554
v 3071.09128249 18093.78960649 -13944.99559621
v 3078.49797670 17880.34982433 -12164.45471201
v 2844.34941803 17843.49920881 -10173.30955037
v 2377.26260210 17143.82434497 -8735.87622052
v 2991.37871414 18331.88167697 -2935.71008647
v 3369.35221409 19343.66160997 -15462.72379486
v 3026.88419269 19335.47132416 -13712.34336422
v 3413.11111876 20360.19259966 -13314.52214820
v 3342.55422986 19541.83939924 -12393.18705283
v 3358.13222246 19478.21775393 -10620.28466192
v 2624.97410174 18723.83090119 -8476.23453050
v 3160.37949297 19814.17620124 -8904.72384305
v 2767.74270147 20183.32292054 -7368.62024865
v 3141.03978409 20356.90315460 -2813.01541609
v 3729.91212610 20084.73397300 -15202.30908620
v 3469.89589642 20557.81472547 -14667.89316418
v 3750.26198390 20997.84995019 -13631.42028890
v 2961.41301302 21830.35493854 -6270.60193718
v 3257.22412512 22289.17982344 -2749.55426104
v 3721.99896262 20966.30217875 -14179.55279980
v 3109.57749473 23067.89450136 -5558.04191174
v 3552.26316126 23871.84554279 -5325.39578482
v 3069.35632800 23847.74793700 -4787.20633047
v 3412.01716734 23934.75430377 -2785.56580542
v 3099.34423411 24581.80396928 -4149.59453551
v 3551.87229416 24985.71855328 -2917.24174477
v 3376.56159127 25179.00345979 -3820.05965483
v 3408.51642788 25258.39255904 -3319.45836128
v 2502.41601798 10184.03378004 -7666.71945104
v 2563.65356225 9975.62661497 -6743.33186511
v 2193.03462382 11390.65437748 -7549.28309387
v 2221.50590612 11035.87473005 -6423.18494479
v 2456.74155057 10691.48260453 -5721.59143010
v 2003.92301962 12995.98176481 -7466.12716056
v 1975.16080812 12581.28734431 -6164.29788684
v 2263.21565213 12228.54403570 -5060.83140041
v 1939.25314125 14812.02260247 -7402.13150859
v 1831.03339202 14363.79404924 -6026.55131313
v 1998.06138198 13973.50453276 -4829.05796922
v 2396.53052775 13805.47681439 -3947.69393752
v 2014.13842128 16713.96794524 -7326.28148140
v 1825.94204907 16265.15265997 -5935.02525065
v 1912.28084779 15787.61645032 -4687.90739983
v 2265.60926340 15335.43919636 -3747.67501333
v 3003.23093091 19087.58347623 -15063.29791259
v 2262.23474871 18582.92488813 -7246.33616639
v 1973.82820444 18252.75871001 -5856.58314994
v 1965.07654437 17724.10592925 -4588.78622401
v 2287.85171466 17133.51714097 -3609.10626196
v 3155.93341158 19938.86991137 -14886.18479846
v 2987.24060847 19717.93065037 -14317.77802525
v 2337.07990099 20434.51447476 -5782.97950903
v 2138.00338961 19754.77866393 -4491.69435727
v 2399.01374137 19095.64361230 -3501.66016296
v 3279.55414840 20497.45155118 -14205.54123095
v 2651.99973580 22486.02275277 -5115.98081862
v 2391.87149360 21773.21435391 -4295.16773661
v 2557.57829525 21087.54134211 -3400.75169771
v 2728.65643345 23627.37066460 -4043.41369964
v 2767.42743373 22934.66770921 -3311.71710891
v 3010.34606609 24738.49855751 -3674.49584805
v 3028.06844409 24374.30974751 -3252.13031566
f 3 2 1
f 1 4 3
f 2 5 1
f 1 5 4
f 8 7 6
f 10 9 6
f 6 9 8
f 10 11 9
f 13 12 3
f 3 12 2
f 3 4 13
f 13 4 14
f 7 15 6
f 17 16 15
f 16 6 15
f 16 10 6
f 11 10 18
f 18 10 16
f 12 19 2
f 2 19 5
f 4 5 14
f 14 5 19
f 16 17 20
f 20 17 21
f 18 16 22
f 22 16 20
f 21 23 20
f 20 23 22
f 26 25 24
f 7 8 24
f 8 26 24
f 8 27 26
f 28 8 9
f 28 27 8
f 9 11 28
f 28 11 29
f 31 30 13
f 13 30 12
f 32 24 14
f 24 31 14
f 31 13 14
f 24 25 31
f 33 15 7
f 24 33 7
f 32 33 24
f 33 17 15
f 18 29 11
f 18 34 29
f 30 35 12
f 12 35 19
f 19 35 14
f 35 36 14
f 36 32 14
f 36 35 37
f 32 38 33
f 32 36 38
f 38 21 17
f 38 17 33
f 22 34 18
f 22 39 34
f 37 40 36
f 36 40 38
f 38 40 41
f 38 41 21
f 41 23 21
f 41 42 23
f 22 23 39
f 39 23 42
f 44 43 26
f 26 43 25
f 45 26 27
f 45 44 26
f 46 27 28
f 46 45 27
f 28 29 46
f 46 29 47
f 49 48 31
f 31 48 30
f 31 25 43
f 31 43 49
f 34 47 29
f 34 50 47
f 35 30 51
f 30 52 51
f 30 48 52
f 51 37 35
f 39 50 34
f 39 53 50
f 52 54 51
f 54 56 55
f 54 55 40
f 51 54 40
f 37 51 40
f 57 41 40
f 57 40 55
f 41 57 58
f 59 41 58
f 42 41 59
f 39 42 53
f 53 42 59
f 56 60 55
f 55 60 57
f 57 60 61
f 57 61 58
f 63 62 44
f 44 62 43
f 64 44 45
f 64 63 44
f 65 45 46
f 65 64 45
f 46 47 65
f 65 47 66
f 68 67 49
f 49 67 48
f 49 43 62
f 49 62 68
f 50 66 47
f 50 69 66
f 67 52 48
f 70 52 67
f 73 72 71
f 75 74 71
f 75 71 72
f 75 69 74
f 69 53 74
f 69 50 53
f 70 76 52
f 52 76 54
f 56 54 76
f 56 76 77
f 73 71 78
f 73 78 79
f 58 78 59
f 78 74 59
f 78 71 74
f 59 74 53
f 77 80 56
f 56 80 60
f 78 61 79
f 61 80 79
f 61 60 80
f 61 78 58
f 82 81 63
f 63 81 62
f 83 63 64
f 83 82 63
f 84 64 65
f 84 83 64
f 65 66 84
f 84 66 85
f 87 86 68
f 68 86 67
f 68 62 81
f 68 81 87
f 69 85 66
f 69 88 85
f 86 70 67
f 89 70 86
f 91 90 72
f 91 72 73
f 72 92 75
f 90 92 72
f 69 75 88
f 88 75 92
f 89 93 70
f 70 93 76
f 77 76 93
f 77 93 94
f 79 91 73
f 79 95 91
f 94 96 77
f 77 96 80
f 79 80 95
f 95 80 96
f 98 97 82
f 82 97 81
f 99 82 83
f 99 98 82
f 100 83 84
f 100 99 83
f 84 85 100
f 100 85 101
f 103 102 87
f 87 102 86
f 87 81 97
f 87 97 103
f 88 101 85
f 88 104 101
f 102 89 86
f 105 89 102
f 91 106 90
f 107 92 90
f 107 90 106
f 107 108 92
f 108 88 92
f 108 104 88
f 105 109 89
f 89 109 93
f 94 93 109
f 94 109 110
f 112 111 106
f 91 112 106
f 95 112 91
f 106 111 107
f 107 111 113
f 107 113 108
f 110 114 94
f 94 114 96
f 95 96 112
f 112 96 114
f 116 115 98
f 98 115 97
f 117 98 99
f 117 116 98
f 118 99 100
f 118 117 99
f 100 101 118
f 118 101 119
f 121 120 103
f 103 120 102
f 103 97 115
f 103 115 121
f 104 119 101
f 104 122 119
f 120 105 102
f 123 105 120
f 108 122 104
f 108 124 122
f 123 125 105
f 105 125 109
f 110 109 125
f 110 125 126
f 128 127 111
f 128 111 112
f 111 129 113
f 127 129 111
f 108 113 124
f 124 113 129
f 114 110 130
f 110 131 130
f 110 126 131
f 130 132 114
f 132 112 114
f 132 128 112
f 131 133 130
f 130 133 132
f 135 134 116
f 116 134 115
f 136 116 117
f 136 135 116
f 137 117 118
f 137 136 117
f 118 119 137
f 137 119 138
f 140 139 121
f 121 139 120
f 121 115 134
f 121 134 140
f 122 138 119
f 122 141 138
f 139 123 120
f 142 123 139
f 124 141 122
f 124 143 141
f 142 144 123
f 123 144 125
f 126 125 144
f 126 144 145
f 147 146 127
f 147 127 128
f 127 148 129
f 146 148 127
f 124 129 143
f 143 129 148
f 145 131 126
f 149 131 145
f 132 147 128
f 132 150 147
f 149 151 131
f 131 151 133
f 132 133 150
f 150 133 151
f 153 152 135
f 135 152 134
f 154 135 136
f 154 153 135
f 155 136 137
f 155 154 136
f 137 138 155
f 155 138 156
f 158 157 140
f 140 157 139
f 140 134 152
f 140 152 158
f 141 156 138
f 141 159 156
f 157 142 139
f 160 142 157
f 143 159 141
f 143 161 159
f 160 162 142
f 142 162 144
f 145 144 162
f 145 162 163
f 165 164 146
f 165 146 147
f 146 166 148
f 164 166 146
f 143 148 161
f 161 148 166
f 163 149 145
f 167 149 163
f 150 165 147
f 150 168 165
f 167 169 149
f 149 169 151
f 150 151 168
f 168 151 169
f 170 152 153
f 154 171 153
f 153 171 170
f 155 172 154
f 154 172 171
f 156 172 155
f 174 173 158
f 158 173 157
f 158 152 170
f 175 158 170
f 174 158 175
f 175 170 171
f 175 171 176
f 176 171 172
f 176 172 177
f 172 156 177
f 156 178 177
f 156 159 178
f 173 160 157
f 179 160 173
f 161 178 159
f 161 180 178
f 179 181 160
f 160 181 162
f 163 162 181
f 163 181 182
f 184 183 164
f 184 164 165
f 164 185 166
f 183 185 164
f 161 166 180
f 180 166 185
f 182 167 163
f 186 167 182
f 168 184 165
f 168 187 184
f 169 167 188
f 167 189 188
f 167 186 189
f 188 190 169
f 190 168 169
f 190 187 168
f 193 192 191
f 195 194 191
f 191 194 193
f 195 196 194
f 189 197 188
f 188 197 190
f 191 192 198
f 198 192 199
f 191 200 195
f 191 198 200
f 196 195 201
f 201 195 200
f 199 202 198
f 198 202 200
f 200 202 203
f 200 203 201
f 205 204 174
f 174 204 173
f 206 174 175
f 206 205 174
f 207 175 176
f 207 206 175
f 208 176 177
f 208 207 176
f 177 178 208
f 208 178 209
f 211 179 210
f 179 204 210
f 179 173 204
f 212 211 210
f 180 209 178
f 180 213 209
f 211 181 179
f 182 181 211
f 212 182 211
f 214 182 212
f 184 215 183
f 216 185 183
f 216 183 215
f 213 180 217
f 180 216 217
f 216 218 217
f 180 185 216
f 218 219 217
f 214 186 182
f 220 186 214
f 187 221 215
f 187 215 184
f 215 222 216
f 215 221 222
f 216 223 218
f 216 222 223
f 219 218 224
f 218 225 224
f 218 223 225
f 225 226 224
f 220 189 186
f 227 189 220
f 190 228 221
f 190 221 187
f 221 229 222
f 221 228 229
f 229 192 193
f 223 229 193
f 222 229 223
f 223 193 194
f 223 194 225
f 231 230 196
f 196 230 194
f 230 226 194
f 226 225 194
f 231 232 230
f 227 233 189
f 189 233 197
f 190 197 228
f 197 234 228
f 197 233 234
f 236 235 234
f 235 228 234
f 235 229 228
f 235 199 192
f 235 192 229
f 201 237 231
f 201 231 196
f 232 231 238
f 238 231 237
f 236 239 235
f 239 241 240
f 239 240 202
f 235 239 202
f 199 235 202
f 242 203 202
f 242 202 240
f 242 243 203
f 203 243 201
f 243 244 201
f 244 237 201
f 237 244 238
f 240 241 245
f 245 241 246
f 240 247 242
f 240 245 247
f 243 242 248
f 248 242 247
f 245 246 249
f 249 246 250
f 252 247 251
f 247 249 251
f 247 245 249
f 247 252 248
f 250 253 249
f 249 253 251
f 254 204 205
f 206 255 205
f 205 255 254
f 207 256 206
f 206 256 255
f 256 207 257
f 207 258 257
f 207 208 258
f 260 259 209
f 259 208 209
f 259 258 208
f 260 261 259
f 263 210 262
f 210 204 262
f 262 204 254
f 264 262 254
f 264 266 265
f 266 263 265
f 212 265 263
f 265 212 255
f 210 255 212
f 255 210 266
f 266 254 255
f 264 254 266
f 266 210 263
f 265 255 256
f 265 256 267
f 267 256 257
f 213 268 260
f 213 260 209
f 261 260 269
f 269 260 268
f 262 270 263
f 212 263 270
f 271 212 270
f 214 212 271
f 217 268 213
f 273 272 219
f 219 272 217
f 272 269 217
f 269 268 217
f 275 274 273
f 273 274 272
f 275 276 274
f 271 220 214
f 277 220 271
f 224 273 219
f 273 224 226
f 278 273 226
f 275 273 278
f 276 275 279
f 275 280 279
f 275 278 280
f 280 281 279
f 277 227 220
f 282 227 277
f 230 278 226
f 278 230 232
f 283 278 232
f 280 278 283
f 281 280 284
f 280 285 284
f 280 283 285
f 285 286 284
f 282 287 227
f 227 287 233
f 287 289 288
f 234 287 288
f 233 287 234
f 288 236 234
f 238 290 283
f 238 283 232
f 283 291 285
f 283 290 291
f 286 285 292
f 292 285 291
f 289 293 288
f 293 295 294
f 293 294 239
f 288 293 239
f 236 288 239
f 294 241 239
f 243 296 244
f 290 238 244
f 296 290 244
f 297 290 296
f 290 298 291
f 290 297 298
f 292 291 299
f 291 300 299
f 291 298 300
f 300 301 299
f 295 302 294
f 246 241 294
f 303 246 294
f 302 303 294
f 246 303 304
f 306 305 304
f 306 304 303
f 306 307 296
f 248 306 296
f 243 248 296
f 305 306 248
f 309 308 307
f 308 296 307
f 308 297 296
f 297 310 298
f 297 308 310
f 298 311 300
f 298 310 311
f 301 300 312
f 312 300 311
f 313 250 304
f 304 250 246
f 251 313 252
f 313 305 252
f 313 304 305
f 252 305 248
f 309 314 308
f 316 315 314
f 315 308 314
f 315 310 308
f 310 317 311
f 310 315 317
f 312 311 318
f 318 311 317
f 313 253 250
f 253 313 251
f 315 316 319
f 319 316 320
f 315 321 317
f 315 319 321
f 318 317 322
f 322 317 321
f 320 323 319
f 319 323 321
f 321 323 324
f 321 324 322
f 327 326 325
f 329 328 325
f 325 328 327
f 331 330 329
f 329 330 328
f 331 332 330
f 334 333 258
f 258 333 257
f 259 325 326
f 334 259 326
f 258 259 334
f 325 259 261
f 335 325 261
f 329 325 335
f 329 336 331
f 329 335 336
f 332 331 337
f 337 331 336
f 339 338 264
f 264 338 262
f 340 264 265
f 340 339 264
f 342 340 341
f 340 267 341
f 340 265 267
f 343 341 267
f 257 343 267
f 333 343 257
f 269 344 335
f 269 335 261
f 335 345 336
f 335 344 345
f 337 336 346
f 336 347 346
f 336 345 347
f 349 348 347
f 347 348 346
f 349 350 348
f 270 262 351
f 262 352 351
f 262 338 352
f 351 271 270
f 353 342 341
f 353 341 343
f 272 344 269
f 344 272 274
f 344 274 345
f 345 274 276
f 354 345 276
f 347 345 354
f 347 355 349
f 347 354 355
f 350 349 356
f 356 349 355
f 352 357 351
f 271 351 357
f 358 271 357
f 277 271 358
f 279 354 276
f 354 279 281
f 359 354 281
f 355 354 359
f 356 355 360
f 355 361 360
f 355 359 361
f 361 362 360
f 358 282 277
f 363 282 358
f 284 359 281
f 359 284 286
f 364 359 286
f 361 359 364
f 362 361 365
f 365 361 364
f 363 366 282
f 282 366 287
f 289 287 366
f 289 366 367
f 292 368 364
f 292 364 286
f 365 364 369
f 369 364 368
f 367 370 289
f 289 370 293
f 295 293 370
f 295 370 371
f 374 373 372
f 376 375 372
f 376 372 373
f 378 377 375
f 378 375 376
f 379 377 378
f 299 368 292
f 299 301 368
f 301 369 368
f 301 380 369
f 371 381 295
f 295 381 302
f 372 303 374
f 303 381 374
f 303 302 381
f 303 372 306
f 306 372 375
f 306 375 307
f 307 375 377
f 309 307 377
f 379 309 377
f 382 309 379
f 312 380 301
f 312 383 380
f 382 384 309
f 309 384 314
f 316 314 384
f 316 384 385
f 318 383 312
f 318 386 383
f 388 320 387
f 320 385 387
f 320 316 385
f 390 389 388
f 390 388 387
f 390 386 389
f 386 322 389
f 386 318 322
f 388 323 320
f 323 388 324
f 324 388 389
f 324 389 322
f 391 326 327
f 328 392 327
f 327 392 391
f 392 328 393
f 328 394 393
f 328 330 394
f 396 395 332
f 395 330 332
f 395 394 330
f 396 397 395
f 398 333 334
f 326 391 334
f 391 398 334
f 391 399 398
f 400 391 392
f 399 391 400
f 392 393 401
f 392 401 400
f 337 402 396
f 337 396 332
f 397 396 403
f 396 404 403
f 396 402 404
f 404 405 403
f 406 338 339
f 340 407 339
f 339 407 406
f 342 407 340
f 408 343 398
f 398 343 333
f 409 398 399
f 408 398 409
f 410 399 400
f 409 399 410
f 400 401 411
f 400 411 410
f 346 402 337
f 402 346 348
f 402 348 404
f 348 350 404
f 350 405 404
f 350 412 405
f 413 352 406
f 406 352 338
f 414 406 407
f 413 406 414
f 353 415 342
f 415 407 342
f 415 414 407
f 343 408 353
f 408 415 353
f 408 416 415
f 417 408 409
f 416 408 417
f 418 409 410
f 417 409 418
f 410 411 419
f 410 419 418
f 356 421 420
f 412 356 420
f 350 356 412
f 421 422 420
f 413 357 352
f 357 413 358
f 413 423 358
f 413 414 423
f 424 414 415
f 423 414 424
f 425 415 416
f 424 415 425
f 426 416 417
f 425 416 426
f 427 417 418
f 426 417 427
f 418 419 428
f 418 428 427
f 360 421 356
f 360 362 421
f 362 422 421
f 362 429 422
f 430 363 423
f 423 363 358
f 424 432 431
f 430 424 431
f 423 424 430
f 434 433 432
f 424 434 432
f 425 434 424
f 435 425 426
f 434 425 435
f 436 426 427
f 435 426 436
f 427 428 437
f 427 437 436
f 365 429 362
f 365 438 429
f 430 366 363
f 367 366 430
f 431 367 430
f 439 367 431
f 440 433 434
f 442 441 440
f 434 442 440
f 435 442 434
f 443 435 436
f 442 435 443
f 436 437 444
f 445 436 444
f 443 436 445
f 446 445 444
f 369 438 365
f 369 447 438
f 439 448 367
f 367 448 370
f 371 370 448
f 371 448 449
f 441 442 373
f 374 441 373
f 450 441 374
f 373 442 376
f 376 442 443
f 376 443 378
f 378 443 445
f 379 378 445
f 446 379 445
f 451 379 446
f 380 447 369
f 380 452 447
f 449 453 371
f 371 453 381
f 374 381 450
f 450 381 453
f 455 382 454
f 382 451 454
f 382 379 451
f 456 455 454
f 383 452 380
f 383 457 452
f 455 384 382
f 385 384 455
f 456 385 455
f 458 385 456
f 386 457 383
f 386 459 457
f 458 460 385
f 385 460 387
f 387 461 390
f 460 461 387
f 386 390 459
f 459 390 461
f 462 393 394
f 395 463 394
f 394 463 462
f 397 463 395
f 464 401 462
f 462 401 393
f 465 462 463
f 464 462 465
f 403 466 397
f 466 463 397
f 466 465 463
f 405 466 403
f 467 411 464
f 464 411 401
f 468 464 465
f 467 464 468
f 469 465 466
f 468 465 469
f 412 469 405
f 405 469 466
f 470 419 467
f 467 419 411
f 471 467 468
f 470 467 471
f 472 468 469
f 471 468 472
f 420 473 412
f 473 469 412
f 473 472 469
f 422 473 420
f 474 428 470
f 470 428 419
f 475 470 471
f 474 470 475
f 476 471 472
f 475 471 476
f 477 472 473
f 476 472 477
f 429 477 422
f 422 477 473
f 478 431 432
f 433 478 432
f 479 437 474
f 474 437 428
f 480 474 475
f 479 474 480
f 481 475 476
f 480 475 481
f 482 476 477
f 481 476 482
f 438 482 429
f 429 482 477
f 483 439 478
f 478 439 431
f 440 484 433
f 484 478 433
f 484 483 478
f 441 484 440
f 479 444 437
f 444 479 446
f 479 485 446
f 479 480 485
f 486 480 481
f 485 480 486
f 487 481 482
f 486 481 487
f 447 487 438
f 438 487 482
f 483 448 439
f 448 483 449
f 483 488 449
f 483 484 488
f 450 488 441
f 441 488 484
f 489 451 485
f 485 451 446
f 490 485 486
f 489 485 490
f 491 486 487
f 490 486 491
f 452 491 447
f 447 491 487
f 488 453 449
f 453 488 450
f 489 454 451
f 454 489 456
f 489 492 456
f 489 490 492
f 493 490 491
f 492 490 493
f 457 493 452
f 452 493 491
f 494 458 492
f 492 458 456
f 495 492 493
f 494 492 495
f 459 495 457
f 457 495 493
f 494 460 458
f 460 494 461
f 461 494 495
f 461 495 459

