# https://github.com/mikedh/trimesh
v -13178.82691905 -19841.70055524 9099.05103016
v -13627.76826368 -19928.96888899 7599.32371474
v -13449.85306580 -20459.62710699 8853.95773178
v -13286.15146623 -20296.86158551 9913.95759231
v -13062.13744705 -19429.15790845 10454.68226298
v -13613.18309432 -20563.79421184 11534.16131014
v -13171.47960988 -19524.23867421 12316.03749969
v -13653.12335622 -20095.64923565 13385.35617978
v -13316.06586492 -19431.28355912 13590.48524206
v -13726.89220615 -19651.89044163 14429.43216971
v -13288.31523854 -19161.39526936 8910.92036546
v -13831.00378736 -18915.53563435 7764.09312697
v -13170.37079733 -18742.63401603 9811.33836006
v -13067.66324977 -18674.13266469 10625.51332731
v -13136.03448221 -18799.97122512 11681.67610770
v -13427.34465961 -18334.54610177 11143.91220361
v -13320.44272774 -18879.13795993 13132.10738843
v -13589.80547264 -19055.31099646 14392.80522538
v -13864.73372728 -18390.36343018 9105.23794096
v -13843.54689844 -18260.29712080 12475.95262302
v -13916.94063880 -18493.18728912 14101.50624700
v -14942.71416113 -23051.09167613 -67.72185714
v -15355.04419264 -23353.72312347 -466.38873169
v -15215.59121325 -23627.88573267 75.82761911
v -15103.51223027 -23393.28365707 480.33418042
v -15168.68983896 -21827.92333492 -1790.22363528
v -15375.30550087 -21709.13789230 -2363.92547316
v -15484.88846610 -22113.96237213 -2274.83896782
v -15594.81916007 -22729.27952555 -1544.81170920
v -14910.30165389 -22016.27575357 -469.58834753
v -14814.12721066 -22537.75036676 407.46332621
v -14694.64744779 -21870.96120543 255.88537603
v -14212.13165292 -20993.64616844 6321.00501398
v -14785.32505836 -21809.12993718 4597.23639472
v -14850.94587948 -22139.26903557 6246.93360349
v -14571.80864572 -21828.20139407 7362.95836853
v -14378.20281458 -21381.08708459 12079.63669728
v -14261.39134142 -21460.75599535 11042.14944234
v -15201.12648386 -22033.41924742 11550.84839043
v -14971.02458796 -21590.31370688 12856.76685106
v -15304.24734387 -21351.21665741 -1987.59316238
v -15112.24761489 -21078.52655239 -1067.32542769
v -15688.06817504 -20880.67677201 -1519.28316568
v -14747.05476294 -21242.03757458 385.87429946
v -14954.99003477 -20355.45296370 595.85368750
v -14971.76815762 -20438.44132260 931.67912938
v -14401.84174116 -20186.74691196 4475.65196191
v -14685.35202577 -20202.96293921 2703.22149488
v -14669.03962935 -20926.70883276 3237.84481508
v -13992.24332034 -20034.15683054 6077.66785333
v -13965.37126563 -21065.42541895 8083.15827350
v -13883.55630704 -21136.63828796 9758.69537527
v -14312.05264186 -20930.78327659 13189.62854603
v -14659.58487517 -20307.93184211 14862.78803258
v -14147.42722883 -19339.49915779 15432.06745732
v -14668.06979375 -19641.65267840 15998.06867027
v -15397.39379408 -20316.34605793 -363.37462865
v -15240.18318578 -19834.69907848 662.26495832
v -15396.66958538 -19350.45179556 1819.55990358
v -14830.35686500 -19613.27156398 2678.41863368
v -15038.81015088 -19967.37882277 1558.53603692
v -14708.37978605 -19139.23557250 4394.44988057
v -14248.32271383 -19195.40426056 6104.23026840
v -13437.40279795 -18346.34653176 10251.41817339
v -14064.46956081 -18764.58504496 15139.36548544
v -14587.53423084 -19227.83321912 16258.28140992
v -14523.67368784 -18845.75187602 15948.35192351
v -14989.73956212 -19020.51554959 16498.80990711
v -15425.61850176 -18756.77757939 3613.66526554
v -15243.42599708 -18454.78324340 5410.28339839
v -14860.74396059 -18266.44621072 7443.05587692
v -15001.90036878 -17924.29193051 9159.45149430
v -14445.04555937 -17978.90493902 10824.81153555
v -14876.97961543 -17888.14924010 12513.19051283
v -14731.25719048 -18080.75821710 13794.22200331
v -14758.49567632 -18420.74532593 15194.34027509
v -15089.97431955 -18675.66049083 16134.88740648
v -15994.23035508 -24355.68999803 631.89318541
v -17139.99149290 -24966.27915519 -193.79674389
v -17271.65227087 -25643.05231089 833.72530179
v -17267.27485412 -25832.43876700 2204.75138687
v -16110.36879017 -24491.27136715 2568.51841926
v -16897.01285342 -25280.16456899 3508.71110431
v -16251.30852650 -23904.36581075 -847.29287017
v -16666.52294740 -23243.28734529 -1688.94395582
v -17336.33103854 -24247.25915722 -1108.51978963
v -15171.50687900 -22994.60160353 1627.25200589
v -16286.19553554 -24522.52323519 3909.66349704
v -15491.72337129 -23330.44235962 3686.37664602
v -16118.55402236 -24057.77151786 4875.33736486
v -15716.29219804 -21885.71225130 -2491.93157887
v -16115.62480095 -22375.46140276 -2220.10519062
v -14796.05177048 -21647.85810984 970.82513499
v -14888.39259844 -21812.55769892 1753.82211380
v -14923.38608914 -21931.95069916 2762.14395674
v -15488.79490265 -23080.51855469 5528.01084932
v -15511.30241861 -22844.88230158 7468.68419126
v -14672.87949793 -21963.12899508 8763.31246296
v -15807.78422548 -22733.03301979 9741.32527566
v -14696.81381757 -21920.13769986 10185.37685321
v -16584.22149319 -22692.48570544 11499.16060706
v -16090.77951689 -21926.25216031 13109.73882978
v -15200.93891788 -21263.42062035 13979.09299410
v -16004.42449966 -21338.98601439 14410.19545647
v -15472.02231467 -20960.59348804 14780.26557345
v -16137.59993966 -20597.19397723 15307.01809938
v -15765.92671911 -21436.24931199 -2264.53833893
v -16744.15212072 -21171.46730512 -1730.97290072
v -15002.97947850 -20647.07893629 1743.26976230
v -15308.92972316 -19870.17837870 16075.16312405
v -14970.31833453 -19412.21651374 16474.55594381
v -15495.45664930 -19344.17860907 16514.19659710
v -16355.41964591 -20323.96118640 -715.76642001
v -15634.69908431 -19953.57988936 570.98874691
v -15321.90068856 -19719.03196591 1111.51791413
v -16182.99259520 -19403.00127208 1524.96164818
v -15514.28082554 -18905.38894523 16411.35143099
v -16477.44126958 -18594.78889999 3037.92921166
v -16469.24710259 -18166.32245252 4730.65368150
v -16339.92433728 -17951.80853033 6559.90608440
v -16212.80397246 -17809.74253556 8422.76787849
v -16027.90999024 -17750.83202812 10207.93381600
v -15871.44128702 -17782.51387139 11887.81416973
v -15820.47578474 -17940.36748347 13400.18515076
v -15615.74709617 -18184.76960069 14598.53409071
v -15856.76581311 -18607.52049414 15657.28717159
v -18028.68044500 -26422.90307667 1457.22078952
v -18301.46723498 -25860.51229976 444.52359157
v -18956.45299291 -26613.15835236 1376.32718600
v -18654.09563640 -26866.94774673 2130.32484575
v -18019.81836026 -26626.50417776 2120.40966592
v -18323.89299365 -26633.50380291 2844.48285127
v -18113.57273910 -25012.86580525 -494.46086958
v -18005.71845154 -25957.40265027 3979.52325824
v -17072.31767246 -24969.42339511 4963.65637681
v -18240.12458755 -25476.10380818 5502.24622808
v -17699.31095079 -24743.38874860 6679.27724258
v -18976.75990944 -25168.04587079 6731.95910181
v -17679.25865087 -23525.55717876 -1584.92686451
v -18441.31584694 -24259.30936325 -1038.44803960
v -16457.67066892 -23994.38767506 6307.92816177
v -18452.57610277 -24436.74021032 8169.98528992
v -17014.27090796 -23802.83225436 8311.81871586
v -18032.51680913 -23892.47973390 9428.32746814
v -17215.32960635 -23383.03068038 10214.48593447
v -18254.95433905 -23510.17753443 10600.93555555
v -17620.96968091 -23107.10413337 11380.56514897
v -18347.42006004 -23018.39135996 11603.45168370
v -16288.91089031 -21828.65284431 -2313.81651781
v -17388.21905546 -22359.68253278 -1897.93634691
v -17636.55140116 -22416.46610957 12579.01987748
v -17143.76301457 -21475.40985228 14194.97771889
v -17352.22542772 -20712.08146673 15041.13735386
v -18187.72750547 -21323.36389924 -1442.11634950
v -16043.98792078 -19782.43112375 16140.29093377
v -16976.80675750 -19860.08608053 15596.44760428
v -17769.63235295 -20448.58171791 -793.68675936
v -17198.69751591 -19749.23429849 307.64990807
v -18173.08227505 -19126.35455839 1433.87852693
v -16154.91357450 -19210.96524466 16180.96830827
v -16812.36509939 -19042.97548276 15504.91256268
v -17844.74263149 -18592.99040245 2683.96392809
v -17816.16212837 -18167.14047756 4185.76211263
v -17784.50339022 -17959.59164601 5873.91021348
v -17710.98868800 -17888.36914691 7723.60090952
v -17499.34345413 -17859.24270773 9590.75693032
v -17233.02462301 -17908.91991035 11357.16333413
v -16870.70359928 -17998.86440662 12795.50796491
v -16967.83952701 -18486.70503805 14302.20933104
v -19345.69962270 -26140.01279772 769.02125756
v -19920.87411986 -26407.37391943 1626.67992264
v -19503.35049690 -26861.37171670 2229.93379213
v -19203.70955709 -26869.93619993 2977.26060163
v -18941.37034474 -26555.84367759 3759.34414882
v -19671.71422004 -26539.24026218 3865.13508590
v -19453.53574373 -25106.03342076 27.29120665
v -19966.20594155 -25888.19299353 826.89745270
v -19427.35867387 -25917.12862480 5100.05333267
v -20133.88660597 -25168.79459184 6706.36671640
v -18612.19943565 -23221.34272294 -1429.05484961
v -19356.09064015 -23901.16490475 -811.02495862
v -19697.56076422 -24561.74551989 8042.13456368
v -19160.49661533 -23837.18183041 9586.59746951
v -19007.29423458 -23200.80954572 10943.13587370
v -19966.63695788 -22810.00743775 10427.32169488
v -18871.75906137 -22163.90575557 -1430.26669306
v -19017.26537140 -22338.08439318 12044.01890875
v -18401.35667192 -21661.00924711 13483.22994545
v -18047.07485173 -21059.71192120 14445.19344796
v -18773.71298383 -20832.86881952 13929.70042955
v -19216.17373020 -21380.82810955 -1113.05694529
v -18913.05448932 -20744.36369045 -786.45853048
v -19927.98419700 -21029.37547527 -322.44562947
v -18052.89928268 -20307.13771124 14817.26107544
v -18708.42357580 -19901.23565078 14051.61610800
v -19111.83351699 -19949.22276164 371.26802981
v -19453.30870818 -19174.55516072 1662.57132827
v -17746.45960576 -19394.10673342 14858.28563723
v -18276.97336744 -19074.86966524 13888.78744099
v -19029.34351569 -18714.02284176 2415.22522638
v -19274.72750971 -18454.84074607 3753.46381780
v -18950.58834168 -18174.60733321 5206.39608943
v -19299.88260484 -18318.80841771 6929.27700133
v -18936.18172200 -18274.43344752 8956.61885573
v -18598.45972924 -18316.81403924 10739.38103587
v -18185.64287819 -18520.54231985 12604.83927504
v -20086.14971835 -26632.63864365 2392.80549686
v -20004.05960592 -26626.16183617 3086.20016140
v -20232.38442942 -25442.71324494 707.32622888
v -20544.09701817 -25595.09606638 1472.64615697
v -20635.15817730 -25916.54635436 2761.90147407
v -20511.93791498 -25872.61496467 4346.79832920
v -20551.08278979 -25454.18452228 5723.71896935
v -20932.16489239 -24840.56446748 6628.65463653
v -19664.27658931 -22865.20972920 -903.62824773
v -20253.11884730 -23690.06592458 -26.57338482
v -20612.43782535 -24657.94309411 902.40741653
v -20713.32232085 -24375.65689835 7708.39785885
v -20342.89419221 -23757.64610823 8988.90757158
v -20836.10530698 -22926.82188054 9287.06247488
v -19753.45804783 -21898.50597962 -889.57911921
v -20542.58608580 -22162.16530959 0.63505710
v -19935.71115289 -21314.69114841 11593.05547745
v -20762.46249815 -21812.52427080 9873.79186073
v -19232.55712925 -21375.68326339 12932.46306403
v -20769.03666826 -21093.91519669 413.70584443
v -20416.49026893 -20160.38495468 10183.55544791
v -21202.90825725 -21125.93046374 8879.35270041
v -21074.62353765 -20198.11783535 8485.84912627
v -19816.99108573 -20079.18008527 11950.02032204
v -19413.17278062 -20491.99645128 13019.37517491
v -20383.82243338 -20409.47583747 556.06133981
v -20048.17670981 -18965.12471557 2716.60158483
v -20456.40554032 -19788.06130844 1627.37628257
v -20441.85391947 -18894.96699815 3860.08312472
v -20967.95868287 -19586.49950640 3114.27823995
v -21057.89835297 -19412.95019612 4412.54859252
v -20283.37496059 -19131.32615622 8462.31297560
v -21116.26398502 -19783.66074978 7400.54032017
v -20577.82689166 -19045.62933308 6820.20765715
v -19663.95931376 -18903.27545093 10038.06971756
v -19441.57991330 -19155.15406420 11500.53744788
v -19123.17747810 -19473.65101364 12950.34782668
v -20244.61546630 -18743.15196464 5277.98330149
v -21284.83696980 -24440.68041347 2466.24470162
v -21356.93093518 -24805.90168816 4154.63391751
v -21227.20116542 -24855.80354213 5629.15542407
v -21211.90263645 -23068.67060168 1340.53457950
v -21769.70037062 -22979.83391438 2865.91946191
v -21852.27719828 -23434.17000268 4109.67767489
v -21765.08265039 -23723.15159891 5590.61509315
v -21417.94336709 -23849.17343367 7073.32954804
v -21073.83540175 -23536.02621049 8361.44871786
v -21252.35414142 -21517.23586412 1195.63908705
v -21693.39686419 -21769.22370847 2555.74799558
v -21965.63252880 -22028.48490081 4051.15710446
v -21977.22927086 -22364.55543774 5537.20260227
v -21795.79220624 -22723.58280861 6792.38562967
v -21393.32613811 -22462.98330034 8289.81803901
v -20992.49529348 -20606.15556726 1127.31589423
v -21324.24183565 -20568.52914310 2214.16061360
v -21615.42850475 -20554.53306026 3925.27342483
v -21860.64470049 -21144.25043952 5321.09419293
v -21621.74902967 -21161.65227149 7129.69571914
v -21304.26897916 -19877.03756739 5796.40596505
f 3 2 1
f 5 4 1
f 1 4 3
f 7 6 5
f 5 6 4
f 9 8 7
f 7 8 6
f 9 10 8
f 1 2 11
f 11 2 12
f 14 5 13
f 5 11 13
f 5 1 11
f 16 15 14
f 15 5 14
f 15 7 5
f 7 17 9
f 7 15 17
f 10 9 18
f 18 9 17
f 12 19 11
f 11 19 13
f 16 20 15
f 15 20 17
f 17 20 21
f 17 21 18
f 24 23 22
f 22 25 24
f 28 27 26
f 30 29 26
f 26 29 28
f 32 31 30
f 31 22 30
f 23 29 30
f 23 30 22
f 22 31 25
f 35 34 33
f 33 36 35
f 39 38 37
f 37 40 39
f 27 41 26
f 43 42 41
f 42 26 41
f 42 30 26
f 32 30 44
f 30 45 44
f 30 42 45
f 45 46 44
f 49 48 47
f 49 47 34
f 47 33 34
f 47 50 33
f 3 51 2
f 51 33 2
f 33 50 2
f 33 51 36
f 52 3 4
f 52 51 3
f 6 37 38
f 52 6 38
f 4 6 52
f 53 40 37
f 6 53 37
f 8 53 6
f 55 54 10
f 54 8 10
f 54 53 8
f 55 56 54
f 43 57 42
f 42 57 45
f 45 57 58
f 58 59 45
f 59 60 45
f 61 46 45
f 61 45 60
f 61 60 48
f 60 47 48
f 60 62 47
f 47 63 50
f 47 62 63
f 63 12 2
f 63 2 50
f 13 64 14
f 64 16 14
f 18 65 55
f 18 55 10
f 56 55 66
f 55 67 66
f 55 65 67
f 67 68 66
f 59 69 60
f 60 69 62
f 62 69 70
f 62 70 63
f 63 70 71
f 63 71 12
f 71 19 12
f 71 72 19
f 13 19 64
f 19 73 64
f 19 72 73
f 64 73 16
f 73 20 16
f 73 74 20
f 20 75 21
f 74 75 20
f 18 21 65
f 21 76 65
f 21 75 76
f 65 76 67
f 67 76 77
f 67 77 68
f 80 79 78
f 82 81 78
f 78 81 80
f 82 83 81
f 86 85 84
f 86 84 79
f 79 84 78
f 84 23 78
f 23 24 78
f 78 24 25
f 87 78 25
f 82 78 87
f 83 82 88
f 82 89 88
f 82 87 89
f 89 90 88
f 92 91 28
f 28 91 27
f 29 84 85
f 92 29 85
f 28 29 92
f 23 84 29
f 31 32 93
f 87 25 31
f 93 87 31
f 94 87 93
f 87 95 89
f 87 94 95
f 35 96 34
f 96 89 34
f 89 95 34
f 89 96 90
f 98 97 36
f 97 35 36
f 97 96 35
f 100 99 98
f 98 99 97
f 38 39 100
f 39 99 100
f 39 101 99
f 103 102 40
f 102 39 40
f 102 101 39
f 105 104 103
f 103 104 102
f 105 106 104
f 91 107 27
f 27 107 41
f 43 41 107
f 43 107 108
f 44 93 32
f 93 44 46
f 109 93 46
f 94 93 109
f 109 48 49
f 95 109 49
f 94 109 95
f 95 49 34
f 51 98 36
f 98 51 52
f 98 52 100
f 100 52 38
f 53 103 40
f 103 53 54
f 103 54 105
f 111 110 56
f 56 110 54
f 110 106 54
f 106 105 54
f 111 112 110
f 108 113 43
f 43 113 57
f 57 114 58
f 113 114 57
f 114 115 58
f 114 46 115
f 46 114 109
f 116 109 114
f 109 116 61
f 115 61 116
f 116 59 115
f 115 59 58
f 46 61 115
f 109 61 48
f 66 111 56
f 66 68 111
f 68 112 111
f 68 117 112
f 116 118 59
f 59 118 69
f 69 119 70
f 118 119 69
f 70 120 71
f 119 120 70
f 71 121 72
f 120 121 71
f 72 122 73
f 121 122 72
f 73 123 74
f 122 123 73
f 74 124 75
f 123 124 74
f 75 125 76
f 124 125 75
f 76 126 77
f 125 126 76
f 68 77 117
f 117 77 126
f 129 128 127
f 131 130 127
f 127 130 129
f 131 132 130
f 127 128 80
f 128 79 80
f 128 133 79
f 127 80 81
f 127 81 131
f 135 134 83
f 83 134 81
f 134 132 81
f 132 131 81
f 137 136 135
f 135 136 134
f 137 138 136
f 140 139 86
f 86 139 85
f 86 79 133
f 86 133 140
f 88 135 83
f 135 88 90
f 141 135 90
f 137 135 141
f 138 137 142
f 137 143 142
f 137 141 143
f 145 144 143
f 143 144 142
f 147 146 145
f 145 146 144
f 147 148 146
f 149 91 92
f 150 149 92
f 85 150 92
f 139 150 85
f 96 141 90
f 141 96 97
f 141 97 143
f 143 97 99
f 143 99 145
f 145 99 101
f 145 101 147
f 151 148 147
f 101 151 147
f 102 151 101
f 152 102 104
f 152 151 102
f 104 106 152
f 152 106 153
f 149 107 91
f 108 107 149
f 150 108 149
f 154 108 150
f 106 110 155
f 156 106 155
f 153 106 156
f 112 155 110
f 154 157 108
f 108 157 113
f 113 158 114
f 157 158 113
f 116 114 158
f 116 158 159
f 156 155 160
f 156 160 161
f 117 160 112
f 112 160 155
f 159 162 116
f 116 162 118
f 118 163 119
f 162 163 118
f 119 164 120
f 163 164 119
f 120 165 121
f 164 165 120
f 121 166 122
f 165 166 121
f 122 167 123
f 166 167 122
f 123 168 124
f 167 168 123
f 124 169 125
f 168 169 124
f 160 126 161
f 126 169 161
f 126 125 169
f 126 160 117
f 170 128 129
f 170 129 171
f 129 172 171
f 129 130 172
f 174 173 132
f 173 130 132
f 173 172 130
f 174 175 173
f 177 176 170
f 176 128 170
f 176 133 128
f 177 170 171
f 134 174 132
f 178 175 174
f 134 178 174
f 136 178 134
f 136 138 178
f 178 138 179
f 181 180 140
f 140 180 139
f 140 133 176
f 140 176 181
f 182 179 138
f 182 138 142
f 183 142 144
f 183 182 142
f 185 183 184
f 183 146 184
f 183 144 146
f 148 184 146
f 180 150 139
f 186 150 180
f 187 185 184
f 187 184 148
f 151 187 148
f 188 187 151
f 190 188 189
f 188 152 189
f 188 151 152
f 153 189 152
f 192 154 191
f 154 186 191
f 154 150 186
f 193 192 191
f 190 189 194
f 190 194 195
f 156 194 153
f 153 194 189
f 192 157 154
f 193 196 192
f 196 157 192
f 196 158 157
f 159 158 196
f 159 196 197
f 195 194 198
f 195 198 199
f 161 198 156
f 156 198 194
f 197 200 159
f 159 200 162
f 162 201 163
f 200 201 162
f 163 202 164
f 201 202 163
f 164 203 165
f 202 203 164
f 165 204 166
f 203 204 165
f 166 205 167
f 204 205 166
f 167 206 168
f 205 206 167
f 198 169 199
f 169 206 199
f 169 168 206
f 169 198 161
f 207 171 172
f 173 208 172
f 172 208 207
f 175 208 173
f 209 176 177
f 210 209 177
f 210 177 171
f 211 210 171
f 207 211 171
f 211 207 208
f 211 208 212
f 212 208 175
f 178 212 175
f 213 212 178
f 178 179 213
f 213 179 214
f 215 180 181
f 216 215 181
f 216 181 176
f 217 216 176
f 209 217 176
f 217 209 210
f 218 214 179
f 218 179 182
f 219 182 183
f 219 218 182
f 183 185 219
f 219 185 220
f 221 186 215
f 215 186 180
f 215 216 222
f 215 222 221
f 185 187 223
f 224 185 223
f 220 185 224
f 188 225 187
f 187 225 223
f 190 225 188
f 221 191 186
f 193 191 221
f 222 193 221
f 226 193 222
f 229 228 227
f 227 228 224
f 223 227 224
f 230 227 223
f 231 223 225
f 230 223 231
f 195 231 190
f 190 231 225
f 226 232 193
f 193 232 196
f 234 233 197
f 196 234 197
f 232 234 196
f 236 235 233
f 236 233 234
f 237 235 236
f 240 239 238
f 238 239 229
f 227 238 229
f 241 238 227
f 242 227 230
f 241 227 242
f 243 230 231
f 242 230 243
f 199 243 195
f 195 243 231
f 233 200 197
f 200 233 201
f 201 233 235
f 237 244 235
f 244 201 235
f 244 202 201
f 238 203 240
f 203 244 240
f 203 202 244
f 203 238 204
f 204 238 241
f 204 241 205
f 205 241 242
f 205 242 206
f 206 242 243
f 206 243 199
f 245 210 211
f 212 246 211
f 211 246 245
f 213 247 212
f 212 247 246
f 214 247 213
f 248 216 217
f 210 245 217
f 245 248 217
f 245 249 248
f 250 245 246
f 249 245 250
f 251 246 247
f 250 246 251
f 218 252 214
f 252 247 214
f 252 251 247
f 219 253 218
f 218 253 252
f 220 253 219
f 254 222 248
f 248 222 216
f 255 248 249
f 254 248 255
f 256 249 250
f 255 249 256
f 257 250 251
f 256 250 257
f 258 251 252
f 257 251 258
f 259 252 253
f 258 252 259
f 224 259 220
f 220 259 253
f 260 226 254
f 254 226 222
f 261 254 255
f 260 254 261
f 262 255 256
f 261 255 262
f 263 256 257
f 262 256 263
f 264 257 258
f 263 257 264
f 229 264 228
f 264 259 228
f 264 258 259
f 228 259 224
f 260 232 226
f 232 260 234
f 234 260 261
f 234 261 236
f 236 261 262
f 236 262 237
f 262 265 237
f 262 263 265
f 240 265 239
f 265 264 239
f 265 263 264
f 239 264 229
f 265 244 237
f 244 265 240

