# https://github.com/mikedh/trimesh
v -3775.23750000 -36000.79541667 -29236.07041667
v -4002.87083333 -35979.46250000 -29759.25416667
v -4090.69305556 -36169.28777778 -29281.60027778
v -3949.55888889 -36071.45986111 -28401.22902778
v -3759.64635417 -35367.51753472 -27706.06961806
v -4091.09055556 -35490.60416667 -27228.80416667
v -3932.62472222 -35642.59680556 -29191.73152778
v -4137.60046296 -35199.82731481 -28016.99189815
v -3904.84000000 -34496.77833333 -26746.28583333
v -3688.12337963 -34421.89780093 -25748.11192130
v -4011.43726852 -34784.74560185 -25858.55046296
v -3974.82407407 -34384.48379630 -24095.78518519
v -3690.16990741 -34039.47847222 -24057.95277778
v -3895.40555556 -34225.48055556 -22801.06166667
v -3779.59861111 -33901.88333333 -22800.98805556
v -4000.00000000 -34000.00000000 -22249.80000000
v -3872.67055556 -33937.64486111 -25454.16236111
v -4001.62939815 -33776.03344907 -24096.99849537
v -4102.09166667 -33788.94722222 -22804.74222222
v -4248.08027778 -35811.08916667 -29237.26138889
v -4310.76018519 -35708.19664352 -28126.06863426
v -4250.92829861 -34535.27986111 -26194.96510417
v -4286.28356481 -34121.03877315 -24134.83090278
v -4217.89861111 -34112.54444444 -22804.81583333
f 3 2 1
f 5 4 1
f 1 4 3
f 5 6 4
f 2 7 1
f 1 7 5
f 5 7 8
f 8 9 5
f 9 10 5
f 11 6 5
f 11 5 10
f 13 12 10
f 10 12 11
f 15 14 13
f 13 14 12
f 15 16 14
f 9 17 10
f 10 17 13
f 13 17 18
f 13 18 15
f 15 18 19
f 15 19 16
f 20 2 3
f 4 21 3
f 3 21 20
f 6 21 4
f 20 7 2
f 7 20 8
f 8 20 21
f 9 8 22
f 8 21 22
f 6 11 22
f 6 22 21
f 12 23 11
f 11 23 22
f 14 24 12
f 12 24 23
f 16 24 14
f 22 17 9
f 17 22 18
f 18 22 23
f 18 23 19
f 19 23 24
f 19 24 16

