# https://github.com/mikedh/trimesh
v 6219.66527778 -36098.48472222 -31199.01194444
v 6000.00000000 -36000.00000000 -31750.20000000
v 5895.70000000 -36213.99722222 -31198.93833333
v 5987.54953704 -36252.42430556 -29942.04722222
v 6298.02754630 -35939.33923611 -29903.00150463
v 6077.50166667 -36068.95097222 -28545.83763889
v 6239.35607639 -35350.88072917 -27805.03489583
v 5912.00111111 -35492.01750000 -27253.71416667
v 6102.38611111 -35772.31111111 -31195.25777778
v 5993.64467593 -35593.35243056 -29865.16909722
v 5840.10671296 -35205.73356481 -28141.44953704
v 6091.77388889 -34495.24722222 -26771.19583333
v 6314.86296296 -34399.40868056 -25873.93136574
v 6011.22361111 -34788.25949074 -25983.00810185
v 6105.72805556 -34330.51222222 -24762.73861111
v 6239.44083333 -33973.49138889 -24718.39972222
v 6003.75416667 -34021.64166667 -24240.74583333
v 6100.56333333 -33934.47347222 -25598.77097222
v 5922.80750000 -33864.56708333 -24763.92958333
v 5778.42083333 -35887.82361111 -31195.18416667
v 5683.16666667 -35906.43750000 -29904.21481481
v 5692.66782407 -35732.50150463 -28251.88807870
v 5745.90260417 -34554.29062500 -26293.93038194
v 5789.09472222 -34221.58791667 -24808.26847222
f 3 2 1
f 5 4 1
f 1 4 3
f 7 6 5
f 5 6 4
f 7 8 6
f 2 9 1
f 1 9 5
f 5 9 10
f 5 10 7
f 7 10 11
f 11 12 7
f 12 13 7
f 14 8 7
f 14 7 13
f 16 15 13
f 13 15 14
f 16 17 15
f 12 18 13
f 13 18 16
f 16 18 19
f 16 19 17
f 20 2 3
f 4 21 3
f 3 21 20
f 6 22 4
f 4 22 21
f 8 22 6
f 20 9 2
f 9 20 10
f 10 20 21
f 10 21 11
f 11 21 22
f 12 11 23
f 11 22 23
f 8 14 23
f 8 23 22
f 15 24 14
f 14 24 23
f 17 24 15
f 23 18 12
f 18 23 19
f 19 23 24
f 19 24 17

