# https://github.com/mikedh/trimesh
v 1753.73191964 -30106.46733985 -21887.27363591
v 1270.52901786 -30232.93988568 -22548.56125992
v 1238.85942460 -30779.71622024 -21709.72379299
v 1343.13644841 -30182.22730442 -21248.18896825
v 1052.15019841 -29629.49425008 -21769.18426871
v 691.23218774 -31275.91785242 -22347.11831302
v -302.30257127 -31222.70332038 -22644.21513201
v 51.73377268 -31842.45232426 -22050.24386338
v 336.66890873 -31552.54902778 -21593.04626984
v 435.80191327 -30484.78999433 -23330.15196051
v -54.87460317 -30066.52929422 -23814.51061508
v -347.95024376 -30488.00622449 -23539.28759070
v 145.32647658 -30722.31370642 -20893.85073430
v 658.33181548 -29944.31984694 -20657.74336310
v -19.19345238 -30049.29618410 -20257.36093750
v 184.13239796 -29657.86057661 -23050.34475624
v -1.10416667 -29319.23086735 -21998.42261905
v -215.37157738 -29600.40962707 -20938.99827806
v -369.57943878 -31536.57065476 -21732.65954932
v -667.25845238 -29941.15734694 -23407.55678571
v -1206.26719104 -30341.57458900 -22742.11346372
v -1142.36528183 -30686.15414845 -21680.18179665
v -699.80991922 -30166.20447279 -20647.68911139
v -1348.64173469 -29941.15505102 -21312.35515306
v -1044.53180272 -29620.73917638 -22217.65382653
v -1727.79606718 -30078.36943027 -21988.81358418
f 3 2 1
f 1 4 3
f 2 5 1
f 1 5 4
f 8 7 6
f 6 9 8
f 12 11 10
f 12 10 7
f 7 10 6
f 10 2 6
f 2 3 6
f 14 13 4
f 4 13 3
f 13 9 3
f 9 6 3
f 14 15 13
f 11 16 10
f 10 16 2
f 16 5 2
f 16 17 5
f 4 5 14
f 5 18 14
f 5 17 18
f 14 18 15
f 19 7 8
f 9 19 8
f 20 11 12
f 21 20 12
f 21 12 7
f 22 21 7
f 19 22 7
f 24 22 23
f 23 22 13
f 22 19 13
f 19 9 13
f 15 23 13
f 20 16 11
f 21 25 20
f 25 16 20
f 25 17 16
f 23 18 24
f 18 25 24
f 18 17 25
f 18 23 15
f 26 21 22
f 24 26 22
f 26 25 21
f 25 26 24

