# https://github.com/mikedh/trimesh
v 4009.79472222 -27918.38095734 -11298.98237599
v 3201.20692791 -27413.16562972 -12176.80126606
v 3078.84908352 -28347.72938083 -11664.51310154
v 3717.43244048 -28289.80084491 -10479.97379134
v 4073.35172681 -27355.92040964 -9801.82155981
v 3385.51304563 -27814.91242697 -9417.76212660
v 3718.76988261 -27106.14642719 -11108.79956046
v 3442.04172867 -26992.09913057 -9795.55018188
v 3408.74692150 -26395.78721582 -9115.51846892
v 3960.42579861 -26417.40142361 -8515.43180556
v 3672.67473958 -26968.96650270 -8601.80038580
v 3326.92438988 -26262.26461310 -7959.31006448
v 3045.78676009 -25755.54777612 -8284.13591683
v 1659.13848397 -27623.59025753 -12769.88884840
v 1310.70626822 -28572.57048375 -12012.57113163
v 2439.23598828 -28485.83841490 -10408.50879315
v 2062.95754795 -27559.80918394 -9287.57564943
v 2840.87108135 -26439.69206349 -11696.22777778
v 1762.75570437 -26382.70832152 -12329.28337585
v 2838.76708209 -26403.76855985 -10092.43653894
v 3188.03352348 -27102.74104387 -8989.27123291
v 2624.25716456 -26714.70298652 -8509.44557188
v 1957.15914765 -26090.95621969 -7800.01886436
v 1694.63529266 -25636.43039021 -11122.35780423
v 1955.41849135 -25478.52894700 -9376.63770196
v 1566.71111111 -25512.70674603 -8144.88511905
v 669.31301020 -28095.56445578 -13372.79489796
v -34.90136054 -28018.74192177 -13832.35012755
v -231.71402251 -28426.51303855 -13066.15160350
v -259.04240363 -28741.74469010 -11609.21986017
v 575.93218537 -28534.01014109 -10354.24328389
v -309.90674603 -27824.08132165 -9101.65561618
v -136.04577664 -27510.27202786 -13353.71667477
v 154.04925359 -26513.23364512 -12563.64769463
v 689.12022569 -26914.07571373 -8200.63295718
v 159.95535714 -26046.56542108 -7787.00292108
v 168.03325066 -25616.55957341 -11555.86597222
v 91.08506944 -25261.42749669 -9985.37533069
v 74.97900132 -25415.70205026 -8460.07754630
v -531.20815618 -27992.01920351 -13647.98455215
v -1249.03576153 -27877.65863568 -12815.92025699
v -1503.94850718 -28353.84897014 -11719.23904006
v -1185.79861111 -28389.03791887 -10293.00716490
v -1730.60555556 -27592.00648148 -9140.43425926
v -1006.23976190 -26020.32253968 -11680.77960317
v -1304.81952948 -26908.28261527 -12277.31243386
v -1903.05523810 -26354.56325397 -11157.92230159
v -1107.33912037 -26853.00559414 -8222.31925154
v -1242.61071429 -25973.13690476 -8004.51190476
v -1320.79874339 -25605.22195767 -10461.57334656
v -1460.70998677 -25609.18882275 -8947.37632275
v -2152.89292328 -27377.58888889 -11444.42579365
v -2253.84093915 -27601.37830688 -10160.98181217
v -2281.09629630 -26390.60509259 -10014.11990741
v -2122.17592593 -26576.11805556 -8766.68287037
f 3 2 1
f 5 4 1
f 1 4 3
f 5 6 4
f 2 7 1
f 1 7 5
f 5 7 8
f 8 9 5
f 9 10 5
f 11 6 5
f 11 5 10
f 10 12 11
f 9 13 10
f 10 13 12
f 15 14 3
f 3 14 2
f 16 3 4
f 16 15 3
f 4 6 16
f 16 6 17
f 7 2 18
f 2 19 18
f 2 14 19
f 20 8 7
f 20 7 18
f 22 21 11
f 22 9 21
f 9 22 20
f 17 20 22
f 20 17 8
f 21 8 17
f 17 6 21
f 21 6 11
f 9 8 21
f 11 12 22
f 22 12 23
f 19 24 18
f 18 24 20
f 20 24 25
f 20 25 9
f 25 13 9
f 25 26 13
f 12 13 23
f 23 13 26
f 29 28 27
f 14 15 27
f 15 29 27
f 15 30 29
f 31 15 16
f 31 30 15
f 16 17 31
f 31 17 32
f 28 33 27
f 14 27 33
f 34 14 33
f 19 14 34
f 35 32 17
f 35 17 22
f 22 23 35
f 35 23 36
f 34 37 19
f 19 37 24
f 24 38 25
f 37 38 24
f 25 39 26
f 38 39 25
f 23 26 36
f 36 26 39
f 40 28 29
f 40 29 41
f 29 42 41
f 29 30 42
f 43 30 31
f 43 42 30
f 31 32 43
f 43 32 44
f 40 33 28
f 46 45 34
f 46 34 33
f 41 46 33
f 40 41 33
f 47 45 46
f 48 44 32
f 48 32 35
f 35 36 48
f 48 36 49
f 45 37 34
f 47 50 45
f 50 37 45
f 50 38 37
f 38 51 39
f 50 51 38
f 36 39 49
f 49 39 51
f 52 41 42
f 43 53 42
f 42 53 52
f 44 53 43
f 52 46 41
f 46 52 47
f 52 54 47
f 52 53 54
f 48 55 44
f 55 53 44
f 55 54 53
f 49 55 48
f 54 50 47
f 50 54 51
f 51 54 55
f 51 55 49

