# https://github.com/mikedh/trimesh
v -1871.58093618 -23222.91936346 -19270.82321833
v -2123.93176020 -23705.82876276 -19895.92548895
v -2125.03592687 -23888.19632228 -19717.31209609
v -2332.51336735 -23530.26015306 -19100.74086735
v -2315.32987528 -23005.94566327 -19564.20694444
v -2061.65854119 -21815.87211829 -18802.80050076
v -1727.05858236 -21670.33009799 -17765.01936953
v -2190.93509070 -22812.54246032 -18315.90809524
v -2653.98214286 -21877.96974679 -17231.71710128
v -1690.34941893 -20189.07827853 -17677.67566610
v -2637.95729403 -20363.48752834 -18414.88614890
v -2192.28527494 -20923.30206916 -16464.04399376
v -1736.70791761 -19914.56868859 -16406.85589097
v -2553.53704365 -19905.95138889 -15700.79716270
v -2230.31795635 -19154.84226190 -17589.72628968
v -1897.72776124 -18646.46974206 -16516.78282077
v -2773.28654101 -18159.71031746 -16801.71412037
v -2698.61268601 -18233.10220734 -15269.06278522
v -2753.88285384 -17330.76273148 -15628.33143188
v -2629.41524943 -23404.16609977 -19461.41009070
v -3165.71594590 -21935.53854875 -18849.30413832
v -3178.47059443 -22577.87474085 -18254.52191448
v -3762.07613379 -21539.92896825 -17108.82142857
v -3764.36859410 -20453.45844671 -18308.14790249
v -3297.03120040 -20770.03587963 -16219.13186177
v -3629.68310421 -19321.22638416 -15558.74591128
v -3344.56679894 -19235.20866402 -17780.04001323
v -3838.83565760 -18405.52074830 -16871.04574830
v -3829.96009070 -17876.81613379 -14995.32449546
v -3664.20756567 -17340.90554138 -15830.48666619
v -3645.60998866 -16980.28963152 -14425.19061224
v -3337.73511905 -16604.99133598 -14534.27953042
v -3623.14606009 -16476.12344104 -14899.91196145
v -3868.72684595 -16293.85087868 -14101.21438138
v -3866.79455428 -16112.57171202 -14280.45083971
v -4136.19633409 -21238.07979025 -17816.62391345
v -4298.54360355 -19659.58971088 -17371.06160242
v -4272.77615977 -20245.35376512 -16564.73827239
v -4273.83076004 -18407.85285471 -15938.68426668
v -4095.38901846 -16771.71680434 -14699.48562520
f 3 2 1
f 1 4 3
f 2 5 1
f 5 6 1
f 6 7 1
f 8 4 1
f 8 1 7
f 7 9 8
f 7 6 10
f 10 6 11
f 9 7 12
f 7 13 12
f 7 10 13
f 13 14 12
f 11 15 10
f 17 16 15
f 16 10 15
f 16 13 10
f 14 13 18
f 18 13 16
f 17 19 16
f 16 19 18
f 20 2 3
f 4 20 3
f 20 5 2
f 6 5 21
f 20 21 5
f 21 20 22
f 4 22 20
f 22 4 8
f 8 9 22
f 22 9 23
f 21 11 6
f 24 11 21
f 25 23 9
f 25 9 12
f 12 14 25
f 25 14 26
f 24 27 11
f 11 27 15
f 17 15 27
f 17 27 28
f 18 26 14
f 18 29 26
f 28 30 17
f 17 30 19
f 18 31 29
f 31 18 32
f 19 32 18
f 32 19 33
f 30 33 19
f 32 34 31
f 33 35 32
f 32 35 34
f 36 21 22
f 23 36 22
f 37 24 36
f 36 24 21
f 25 38 23
f 38 36 23
f 38 37 36
f 26 38 25
f 37 27 24
f 27 37 28
f 37 39 28
f 37 38 39
f 29 39 26
f 26 39 38
f 39 30 28
f 33 30 40
f 30 39 40
f 29 31 40
f 29 40 39
f 34 40 31
f 40 35 33
f 35 40 34

