# https://github.com/mikedh/trimesh
v 5910.54701672 -21316.72483702 -17432.97667234
v 5086.13110739 -21880.93945312 -18597.68070023
v 5223.45415840 -22630.59866898 -18325.51286927
v 5366.69802001 -21816.52736442 -17322.72951802
v 5407.91457920 -21068.32629795 -17611.66567874
v 5446.66385913 -19904.88400298 -17003.69668155
v 6063.84553571 -19839.09652778 -16226.90333995
v 5688.27628968 -20875.76955192 -16516.89661872
v 5418.39722222 -19865.94211310 -15725.68705357
v 5937.21525794 -18552.98968254 -16105.28204365
v 5315.97416667 -18167.90908730 -16413.60285714
v 5278.37848462 -18223.23844246 -15227.11811756
v 5248.82385913 -17324.94236111 -15547.92842262
v 4602.38314319 -23364.96333499 -19414.58997465
v 4089.54687500 -23716.91319444 -19898.20543981
v 4092.62934028 -23888.06857639 -19729.02835648
v 4243.82671958 -23307.98175705 -18965.02342372
v 4198.53645833 -22867.39544753 -19379.37461420
v 4249.43309772 -21860.90598132 -18844.18795470
v 4540.65865575 -22469.89150132 -17973.33831845
v 4559.15507192 -21354.50563203 -17282.33280630
v 4874.78002764 -20640.12915249 -17680.60867465
v 4231.50049603 -20791.57767306 -18304.83138228
v 5244.10129382 -21026.31960152 -16961.77964203
v 4794.69979229 -20521.12415675 -16484.26325128
v 4377.74034155 -19293.94071122 -15592.48289596
v 4404.02420635 -19707.13307540 -17648.97848545
v 4368.92413785 -18667.87767385 -16844.72347962
v 4170.49209184 -17876.13260204 -14994.88282880
v 4377.11227560 -17365.47346466 -15788.71080641
v 4353.39626134 -16980.06879819 -14423.09269558
v 4661.80481151 -16604.56193783 -14529.21876653
v 4379.79838435 -16477.00677438 -14894.02307256
v 4131.27315405 -16293.85087868 -14101.21438138
v 4133.20544572 -16112.57171202 -14280.45083971
v 3835.09513889 -23449.79328704 -19503.72962963
v 3824.41814098 -21905.32597553 -18299.97837210
v 3705.45226285 -19818.92300564 -17405.73158148
v 3772.71022003 -20267.90848017 -16666.40252090
v 3751.43667193 -18433.87907353 -15942.52506411
v 3907.30004049 -16773.27916262 -14698.11856171
f 3 2 1
f 1 4 3
f 2 5 1
f 5 6 1
f 6 7 1
f 8 4 1
f 8 1 7
f 7 9 8
f 7 6 10
f 10 6 11
f 9 7 12
f 12 7 10
f 11 13 10
f 10 13 12
f 16 15 14
f 14 17 16
f 15 18 14
f 2 18 19
f 18 2 14
f 3 14 2
f 14 3 17
f 20 17 3
f 3 4 20
f 20 4 21
f 5 2 22
f 2 23 22
f 2 19 23
f 25 24 8
f 25 6 24
f 6 25 22
f 21 22 25
f 22 21 5
f 24 5 21
f 21 4 24
f 24 4 8
f 6 5 24
f 8 9 25
f 25 9 26
f 23 27 22
f 6 22 27
f 28 6 27
f 11 6 28
f 12 26 9
f 12 29 26
f 28 30 11
f 11 30 13
f 12 31 29
f 31 12 32
f 13 32 12
f 32 13 33
f 30 33 13
f 32 34 31
f 33 35 32
f 32 35 34
f 36 15 16
f 17 36 16
f 36 18 15
f 19 18 37
f 18 36 37
f 17 20 37
f 17 37 36
f 21 37 20
f 38 23 37
f 37 23 19
f 25 39 21
f 39 37 21
f 39 38 37
f 26 39 25
f 38 27 23
f 27 38 28
f 38 40 28
f 38 39 40
f 29 40 26
f 26 40 39
f 40 30 28
f 33 30 41
f 30 40 41
f 29 31 41
f 29 41 40
f 34 41 31
f 41 35 33
f 35 41 34

